<?xml version="1.0" standalone="no"?><!DOCTYPE svg PUBLIC "-//W3C//DTD SVG 1.1//EN" "http://www.w3.org/Graphics/SVG/1.1/DTD/svg11.dtd" ><svg xmlns="http://www.w3.org/2000/svg"><metadata></metadata><defs><font id="1.001;UKWN;Bota-ExtraBold" horiz-adv-x="1098"><font-face font-family="Bota ExtraBold" font-weight="900" font-stretch="normal" units-per-em="1000" panose-1="0 0 10 0 0 0 0 0 0 0" ascent="910" descent="-290" x-height="0" bbox="-725 -435 1076 1072" underline-thickness="36" underline-position="-98" unicode-range="U+0020-fb02" /><missing-glyph horiz-adv-x="510" d="M418 730 l-323 0 l0 -1020 l323 0 l0 1020 ZM340 662 l0 -34 l-68 0 l0 -38 l68 0 l0 -33 l-170 0 l0 33 l68 0 l0 38 l-67 0 l0 34 l169 0 ZM272 530 l0 -71 l68 0 l0 -35 l-170 0 l0 106 l102 0 ZM238 495 l-34 0 l0 -36 l34 0 l0 36 ZM340 396 l0 -33 l-68 0 l0 -72 l-102 0 l0 34 l68 0 l0 38 l-68 0 l0 33 l170 0 ZM340 335 l0 -102 l-170 0 l0 35 l136 0 l0 67 l34 0 ZM340 211 l0 -115 l-170 0 l0 115 l34 0 l0 -82 l102 0 l0 48 l-34 0 l0 -23 l-34 0 l0 57 l102 0 ZM340 34 l0 -115 l-170 0 l0 115 l170 0 ZM306 1 l-102 0 l0 -48 l102 0 l0 48 ZM340 -104 l0 -34 l-33 0 l-71 -48 l104 0 l0 -34 l-170 0 l0 34 l72 48 l-72 0 l0 34 l170 0 Z" /><glyph glyph-name="" unicode=" " d="" /><glyph glyph-name="" unicode="A" d="M622 120 q-31 85 -116 324 q-86 240 -95 270 l-53 0 q-12 -30 -109 -270 q-96 -239 -131 -324 q-19 -51 -40 -68 q-21 -17 -78 -16 l0 -36 l263 0 q0 2 0 18 q0 15 0 18 l-34 0 q-37 -2 -59 10 q-22 11 -5 58 q6 15 22 55 q16 40 37 92 l204 0 q17 -50 30 -90 q13 -40 19 -57 q15 -48 -14 -59 q-28 -11 -77 -9 q-2 0 -13 0 q-10 0 -13 0 l0 -36 l380 0 l0 36 q-56 -1 -78 16 q-23 17 -40 68 l0 0 ZM242 295 q36 89 64 159 q28 70 30 74 l78 -233 l-172 0 Z" /><glyph glyph-name="" unicode="Á" d="M528 940 l-117 0 l-57 -178 l24 0 l150 178 ZM622 120 q-31 85 -116 324 q-86 240 -95 270 l-53 0 q-12 -30 -109 -270 q-96 -239 -131 -324 q-19 -51 -40 -68 q-21 -17 -78 -16 l0 -36 l263 0 q0 2 0 18 q0 15 0 18 l-34 0 q-37 -2 -59 10 q-22 11 -5 58 q6 15 22 55 q16 40 37 92 l204 0 q17 -50 30 -90 q13 -40 19 -57 q15 -48 -14 -59 q-28 -11 -77 -9 q-2 0 -13 0 q-10 0 -13 0 l0 -36 l380 0 l0 36 q-56 -1 -78 16 q-23 17 -40 68 l0 0 ZM242 295 q36 89 64 159 q28 70 30 74 l78 -233 l-172 0 Z" /><glyph glyph-name="" unicode="&#x102;" d="M371 765 q87 9 114 69 q27 60 24 69 l-8 0 q2 -3 -26 -23 q-29 -21 -105 -24 q-76 3 -104 24 q-28 20 -26 23 l-7 0 q-3 -9 24 -69 q26 -60 114 -69 l0 0 ZM622 120 q-31 85 -116 324 q-86 240 -95 270 l-53 0 q-12 -30 -109 -270 q-96 -239 -131 -324 q-19 -51 -40 -68 q-21 -17 -78 -16 l0 -36 l263 0 q0 2 0 18 q0 15 0 18 l-34 0 q-37 -2 -59 10 q-22 11 -5 58 q6 15 22 55 q16 40 37 92 l204 0 q17 -50 30 -90 q13 -40 19 -57 q15 -48 -14 -59 q-28 -11 -77 -9 q-2 0 -13 0 q-10 0 -13 0 l0 -36 l380 0 l0 36 q-56 -1 -78 16 q-23 17 -40 68 l0 0 ZM242 295 q36 89 64 159 q28 70 30 74 l78 -233 l-172 0 Z" /><glyph glyph-name="" unicode="&#x1eb6;" d="M371 765 q87 9 114 69 q27 60 24 69 l-8 0 q2 -3 -26 -23 q-29 -21 -105 -24 q-76 3 -104 24 q-28 20 -26 23 l-7 0 q-3 -9 24 -69 q26 -60 114 -69 l0 0 ZM622 120 q-31 85 -116 324 q-86 240 -95 270 l-53 0 q-12 -30 -109 -270 q-96 -239 -131 -324 q-19 -51 -40 -68 q-21 -17 -78 -16 l0 -36 l263 0 q0 2 0 18 q0 15 0 18 l-34 0 q-37 -2 -59 10 q-22 11 -5 58 q6 15 22 55 q16 40 37 92 l204 0 q17 -50 30 -90 q13 -40 19 -57 q15 -48 -14 -59 q-28 -11 -77 -9 q-2 0 -13 0 q-10 0 -13 0 l0 -36 l380 0 l0 36 q-56 -1 -78 16 q-23 17 -40 68 l0 0 ZM242 295 q36 89 64 159 q28 70 30 74 l78 -233 l-172 0 ZM376 -69 q-28 -1 -47 -19 q-19 -18 -20 -45 q1 -28 20 -47 q19 -19 47 -20 q28 1 47 20 q19 19 20 47 q-1 27 -20 45 q-19 18 -47 19 l0 0 Z" /><glyph glyph-name="" unicode="&#x1cd;" d="M425 778 l100 149 l-24 0 l-110 -77 l-111 77 l-23 0 l100 -149 l68 0 ZM622 120 q-31 85 -116 324 q-86 240 -95 270 l-53 0 q-12 -30 -109 -270 q-96 -239 -131 -324 q-19 -51 -40 -68 q-21 -17 -78 -16 l0 -36 l263 0 q0 2 0 18 q0 15 0 18 l-34 0 q-37 -2 -59 10 q-22 11 -5 58 q6 15 22 55 q16 40 37 92 l204 0 q17 -50 30 -90 q13 -40 19 -57 q15 -48 -14 -59 q-28 -11 -77 -9 q-2 0 -13 0 q-10 0 -13 0 l0 -36 l380 0 l0 36 q-56 -1 -78 16 q-23 17 -40 68 l0 0 ZM242 295 q36 89 64 159 q28 70 30 74 l78 -233 l-172 0 Z" /><glyph glyph-name="" unicode="Â" d="M380 839 l96 -86 l38 0 l-100 145 l-68 0 l-100 -145 l38 0 l96 86 ZM622 120 q-31 85 -116 324 q-86 240 -95 270 l-53 0 q-12 -30 -109 -270 q-96 -239 -131 -324 q-19 -51 -40 -68 q-21 -17 -78 -16 l0 -36 l263 0 q0 2 0 18 q0 15 0 18 l-34 0 q-37 -2 -59 10 q-22 11 -5 58 q6 15 22 55 q16 40 37 92 l204 0 q17 -50 30 -90 q13 -40 19 -57 q15 -48 -14 -59 q-28 -11 -77 -9 q-2 0 -13 0 q-10 0 -13 0 l0 -36 l380 0 l0 36 q-56 -1 -78 16 q-23 17 -40 68 l0 0 ZM242 295 q36 89 64 159 q28 70 30 74 l78 -233 l-172 0 Z" /><glyph glyph-name="" unicode="&#x1eac;" d="M380 839 l96 -86 l38 0 l-100 145 l-68 0 l-100 -145 l38 0 l96 86 ZM622 120 q-31 85 -116 324 q-86 240 -95 270 l-53 0 q-12 -30 -109 -270 q-96 -239 -131 -324 q-19 -51 -40 -68 q-21 -17 -78 -16 l0 -36 l263 0 q0 2 0 18 q0 15 0 18 l-34 0 q-37 -2 -59 10 q-22 11 -5 58 q6 15 22 55 q16 40 37 92 l204 0 q17 -50 30 -90 q13 -40 19 -57 q15 -48 -14 -59 q-28 -11 -77 -9 q-2 0 -13 0 q-10 0 -13 0 l0 -36 l380 0 l0 36 q-56 -1 -78 16 q-23 17 -40 68 l0 0 ZM242 295 q36 89 64 159 q28 70 30 74 l78 -233 l-172 0 ZM376 -69 q-28 -1 -47 -19 q-19 -18 -20 -45 q1 -28 20 -47 q19 -19 47 -20 q28 1 47 20 q19 19 20 47 q-1 27 -20 45 q-19 18 -47 19 l0 0 Z" /><glyph glyph-name="" unicode="Ä" d="M282 776 q27 1 45 18 q17 18 18 42 q-1 26 -18 44 q-18 18 -45 19 q-26 -1 -41 -19 q-16 -18 -16 -44 q0 -24 16 -42 q15 -17 41 -18 l0 0 ZM475 776 q27 1 45 18 q18 18 19 42 q-1 26 -19 44 q-18 18 -45 19 q-25 -1 -40 -19 q-16 -18 -16 -44 q0 -24 16 -42 q15 -17 40 -18 l0 0 ZM622 120 q-31 85 -116 324 q-86 240 -95 270 l-53 0 q-12 -30 -109 -270 q-96 -239 -131 -324 q-19 -51 -40 -68 q-21 -17 -78 -16 l0 -36 l263 0 q0 2 0 18 q0 15 0 18 l-34 0 q-37 -2 -59 10 q-22 11 -5 58 q6 15 22 55 q16 40 37 92 l204 0 q17 -50 30 -90 q13 -40 19 -57 q15 -48 -14 -59 q-28 -11 -77 -9 q-2 0 -13 0 q-10 0 -13 0 l0 -36 l380 0 l0 36 q-56 -1 -78 16 q-23 17 -40 68 l0 0 ZM242 295 q36 89 64 159 q28 70 30 74 l78 -233 l-172 0 Z" /><glyph glyph-name="" unicode="&#x1ea0;" d="M622 120 q-31 85 -116 324 q-86 240 -95 270 l-53 0 q-12 -30 -109 -270 q-96 -239 -131 -324 q-19 -51 -40 -68 q-21 -17 -78 -16 l0 -36 l263 0 q0 2 0 18 q0 15 0 18 l-34 0 q-37 -2 -59 10 q-22 11 -5 58 q6 15 22 55 q16 40 37 92 l204 0 q17 -50 30 -90 q13 -40 19 -57 q15 -48 -14 -59 q-28 -11 -77 -9 q-2 0 -13 0 q-10 0 -13 0 l0 -36 l380 0 l0 36 q-56 -1 -78 16 q-23 17 -40 68 l0 0 ZM242 295 q36 89 64 159 q28 70 30 74 l78 -233 l-172 0 ZM376 -69 q-28 -1 -47 -19 q-19 -18 -20 -45 q1 -28 20 -47 q19 -19 47 -20 q28 1 47 20 q19 19 20 47 q-1 27 -20 45 q-19 18 -47 19 l0 0 Z" /><glyph glyph-name="" unicode="À" d="M413 762 l-59 176 l-115 0 l136 -176 l38 0 ZM622 120 q-31 85 -116 324 q-86 240 -95 270 l-53 0 q-12 -30 -109 -270 q-96 -239 -131 -324 q-19 -51 -40 -68 q-21 -17 -78 -16 l0 -36 l263 0 q0 2 0 18 q0 15 0 18 l-34 0 q-37 -2 -59 10 q-22 11 -5 58 q6 15 22 55 q16 40 37 92 l204 0 q17 -50 30 -90 q13 -40 19 -57 q15 -48 -14 -59 q-28 -11 -77 -9 q-2 0 -13 0 q-10 0 -13 0 l0 -36 l380 0 l0 36 q-56 -1 -78 16 q-23 17 -40 68 l0 0 ZM242 295 q36 89 64 159 q28 70 30 74 l78 -233 l-172 0 Z" /><glyph glyph-name="" unicode="&#x1ea2;" d="M340 879 q31 -2 42 -20 q12 -19 11 -36 q-1 -25 -10 -42 q-10 -16 -19 -26 l5 -5 q19 6 56 42 q38 35 42 78 q0 29 -22 50 q-21 20 -62 21 q-55 -5 -85 -43 q-31 -38 -31 -43 l4 -5 q7 7 26 18 q19 10 43 11 l0 0 ZM622 120 q-31 85 -116 324 q-86 240 -95 270 l-53 0 q-12 -30 -109 -270 q-96 -239 -131 -324 q-19 -51 -40 -68 q-21 -17 -78 -16 l0 -36 l263 0 q0 2 0 18 q0 15 0 18 l-34 0 q-37 -2 -59 10 q-22 11 -5 58 q6 15 22 55 q16 40 37 92 l204 0 q17 -50 30 -90 q13 -40 19 -57 q15 -48 -14 -59 q-28 -11 -77 -9 q-2 0 -13 0 q-10 0 -13 0 l0 -36 l380 0 l0 36 q-56 -1 -78 16 q-23 17 -40 68 l0 0 ZM242 295 q36 89 64 159 q28 70 30 74 l78 -233 l-172 0 Z" /><glyph glyph-name="" unicode="&#x100;" d="M500 842 l-266 0 l0 -36 l266 0 l0 36 ZM622 120 q-31 85 -116 324 q-86 240 -95 270 l-53 0 q-12 -30 -109 -270 q-96 -239 -131 -324 q-19 -51 -40 -68 q-21 -17 -78 -16 l0 -36 l263 0 q0 2 0 18 q0 15 0 18 l-34 0 q-37 -2 -59 10 q-22 11 -5 58 q6 15 22 55 q16 40 37 92 l204 0 q17 -50 30 -90 q13 -40 19 -57 q15 -48 -14 -59 q-28 -11 -77 -9 q-2 0 -13 0 q-10 0 -13 0 l0 -36 l380 0 l0 36 q-56 -1 -78 16 q-23 17 -40 68 l0 0 ZM242 295 q36 89 64 159 q28 70 30 74 l78 -233 l-172 0 Z" /><glyph glyph-name="" unicode="&#x104;" d="M727 -146 q-18 0 -26 12 q-7 11 -6 29 q0 19 11 47 q11 28 29 58 l5 0 l0 36 q-56 -1 -78 16 q-23 17 -40 68 q-31 85 -116 324 q-86 240 -95 270 l-53 0 q-12 -30 -109 -270 q-96 -239 -131 -324 q-19 -51 -40 -68 q-21 -17 -78 -16 l0 -36 l263 0 q0 2 0 18 q0 15 0 18 l-34 0 q-37 -2 -59 10 q-22 11 -5 58 q6 15 22 55 q16 40 37 92 l204 0 q17 -50 30 -90 q13 -40 19 -57 q15 -48 -14 -59 q-28 -11 -77 -9 q-2 0 -13 0 q-10 0 -13 0 l0 -36 l349 0 q-42 -30 -76 -65 q-34 -35 -36 -68 q1 -28 18 -41 q18 -14 45 -14 q48 1 80 11 q33 9 34 10 l0 22 q-1 0 -14 0 q-14 -1 -33 -1 l0 0 ZM242 295 q36 89 64 159 q28 70 30 74 l78 -233 l-172 0 Z" /><glyph glyph-name="" unicode="Å" d="M371 763 q44 1 73 23 q29 22 30 53 q-1 34 -30 57 q-29 22 -73 23 q-44 -1 -73 -23 q-29 -23 -30 -57 q1 -31 30 -53 q29 -22 73 -23 l0 0 ZM371 874 q15 0 26 -10 q10 -10 10 -24 q0 -14 -10 -24 q-11 -10 -26 -10 q-15 0 -25 10 q-10 10 -10 24 q0 14 10 24 q10 10 25 10 l0 0 ZM622 120 q-31 85 -116 324 q-86 240 -95 270 l-53 0 q-12 -30 -109 -270 q-96 -239 -131 -324 q-19 -51 -40 -68 q-21 -17 -78 -16 l0 -36 l263 0 q0 2 0 18 q0 15 0 18 l-34 0 q-37 -2 -59 10 q-22 11 -5 58 q6 15 22 55 q16 40 37 92 l204 0 q17 -50 30 -90 q13 -40 19 -57 q15 -48 -14 -59 q-28 -11 -77 -9 q-2 0 -13 0 q-10 0 -13 0 l0 -36 l380 0 l0 36 q-56 -1 -78 16 q-23 17 -40 68 l0 0 ZM242 295 q36 89 64 159 q28 70 30 74 l78 -233 l-172 0 Z" /><glyph glyph-name="" unicode="Ã" d="M301 810 q29 -2 60 -18 q31 -16 65 -18 q31 4 46 44 q15 41 20 73 l-13 0 q1 -2 -10 -17 q-10 -16 -40 -18 q-32 2 -61 18 q-29 16 -64 18 q-31 -4 -45 -44 q-14 -41 -21 -73 l13 0 q-1 2 10 18 q10 15 40 17 l0 0 ZM622 120 q-31 85 -116 324 q-86 240 -95 270 l-53 0 q-12 -30 -109 -270 q-96 -239 -131 -324 q-19 -51 -40 -68 q-21 -17 -78 -16 l0 -36 l263 0 q0 2 0 18 q0 15 0 18 l-34 0 q-37 -2 -59 10 q-22 11 -5 58 q6 15 22 55 q16 40 37 92 l204 0 q17 -50 30 -90 q13 -40 19 -57 q15 -48 -14 -59 q-28 -11 -77 -9 q-2 0 -13 0 q-10 0 -13 0 l0 -36 l380 0 l0 36 q-56 -1 -78 16 q-23 17 -40 68 l0 0 ZM242 295 q36 89 64 159 q28 70 30 74 l78 -233 l-172 0 Z" /><glyph glyph-name="" unicode="Æ" d="M-3 0 l274 0 l0 38 l-42 0 q-37 -1 -57 12 q-19 12 6 56 q34 56 56 92 q23 36 46 73 l235 0 l0 -159 q-1 -53 -34 -75 q-34 -22 -83 -21 l0 -16 l617 0 l0 225 l-28 0 q-9 -97 -30 -139 q-21 -42 -90 -41 l-145 0 q-35 -1 -52 13 q-17 14 -17 54 l0 244 l150 0 q55 2 75 -23 q19 -26 24 -102 l28 0 l0 294 l-28 0 q-4 -77 -24 -102 q-21 -25 -75 -23 l-150 0 l0 188 q0 40 17 54 q17 14 52 13 l130 0 q67 1 90 -35 q24 -36 30 -117 l29 0 l0 197 l-509 0 l-358 -578 q-26 -45 -53 -65 q-27 -19 -84 -19 l0 -38 ZM303 315 q65 104 122 195 q57 90 90 143 l0 -338 l-212 0 Z" /><glyph glyph-name="" unicode="B" d="M30 0 l330 0 q96 -3 180 36 q84 39 90 160 q-4 91 -67 131 q-62 39 -136 46 q50 -2 107 39 q57 40 62 122 q-2 86 -74 126 q-72 40 -192 40 l-300 0 l0 -36 q40 1 69 -14 q30 -16 31 -65 l0 -463 q-1 -55 -31 -71 q-29 -17 -69 -15 l0 -36 ZM349 388 q-35 1 -56 4 q-20 4 -21 3 l0 194 q-2 28 12 47 q13 18 64 19 l2 0 q62 -1 82 -35 q21 -34 19 -88 q0 -65 -25 -104 q-26 -39 -77 -40 l0 0 ZM330 45 q-38 1 -48 19 q-11 18 -10 47 l0 238 q0 0 20 -4 q20 -3 55 -4 q11 0 18 0 q6 1 18 2 q66 -11 84 -59 q17 -48 15 -91 q3 -43 -19 -93 q-23 -51 -103 -55 l-30 0 Z" /><glyph glyph-name="" unicode="C" d="M423 -10 q70 2 149 15 q78 13 85 15 l0 211 l-35 0 q-2 -113 -53 -155 q-50 -43 -146 -41 q-118 1 -173 81 q-54 80 -53 234 q-1 154 53 234 q55 80 173 81 q93 0 137 -42 q44 -41 51 -119 l28 0 l7 183 q-1 2 -57 12 q-56 10 -152 11 q-174 -5 -284 -106 q-110 -100 -113 -254 q2 -154 102 -255 q101 -101 281 -105 l0 0 Z" /><glyph glyph-name="" unicode="&#x106;" d="M376 751 l24 0 l150 178 l-117 0 l-57 -178 ZM423 -10 q70 2 149 15 q78 13 85 15 l0 211 l-35 0 q-2 -113 -53 -155 q-50 -43 -146 -41 q-118 1 -173 81 q-54 80 -53 234 q-1 154 53 234 q55 80 173 81 q93 0 137 -42 q44 -41 51 -119 l28 0 l7 183 q-1 2 -57 12 q-56 10 -152 11 q-174 -5 -284 -106 q-110 -100 -113 -254 q2 -154 102 -255 q101 -101 281 -105 l0 0 Z" /><glyph glyph-name="" unicode="&#x10c;" d="M379 767 l68 0 l100 149 l-24 0 l-110 -77 l-111 77 l-23 0 l100 -149 ZM423 -10 q70 2 149 15 q78 13 85 15 l0 211 l-35 0 q-2 -113 -53 -155 q-50 -43 -146 -41 q-118 1 -173 81 q-54 80 -53 234 q-1 154 53 234 q55 80 173 81 q93 0 137 -42 q44 -41 51 -119 l28 0 l7 183 q-1 2 -57 12 q-56 10 -152 11 q-174 -5 -284 -106 q-110 -100 -113 -254 q2 -154 102 -255 q101 -101 281 -105 l0 0 Z" /><glyph glyph-name="" unicode="Ç" d="M423 -10 q70 2 149 15 q78 13 85 15 l0 211 l-35 0 q-2 -113 -53 -155 q-50 -43 -146 -41 q-118 1 -173 81 q-54 80 -53 234 q-1 154 53 234 q55 80 173 81 q93 0 137 -42 q44 -41 51 -119 l28 0 l7 183 q-1 2 -57 12 q-56 10 -152 11 q-174 -5 -284 -106 q-110 -100 -113 -254 q1 -145 92 -244 q91 -100 254 -115 l-48 -76 q37 -1 57 -13 q21 -11 21 -34 q0 -22 -10 -35 q-10 -14 -25 -14 q-19 1 -32 8 q-14 6 -15 7 l0 -14 q1 -1 28 -10 q26 -10 63 -11 q38 0 58 17 q20 16 20 44 q0 31 -25 48 q-25 16 -74 18 l-14 -2 l10 66 l23 0 Z" /><glyph glyph-name="" unicode="&#x10a;" d="M404 756 q28 1 47 20 q19 19 20 47 q-1 27 -20 45 q-19 18 -47 19 q-28 -1 -47 -19 q-19 -18 -20 -45 q1 -28 20 -47 q19 -19 47 -20 l0 0 ZM423 -10 q70 2 149 15 q78 13 85 15 l0 211 l-35 0 q-2 -113 -53 -155 q-50 -43 -146 -41 q-118 1 -173 81 q-54 80 -53 234 q-1 154 53 234 q55 80 173 81 q93 0 137 -42 q44 -41 51 -119 l28 0 l7 183 q-1 2 -57 12 q-56 10 -152 11 q-174 -5 -284 -106 q-110 -100 -113 -254 q2 -154 102 -255 q101 -101 281 -105 l0 0 Z" /><glyph glyph-name="" unicode="D" d="M30 0 l384 0 q176 3 280 100 q104 98 107 250 q-3 152 -107 250 q-104 97 -280 100 l-384 0 l0 -36 q49 2 82 -10 q33 -13 34 -66 l0 -476 q-1 -52 -34 -65 q-33 -13 -82 -11 l0 -36 ZM401 45 q-49 -3 -82 5 q-34 9 -35 62 l0 476 q1 51 35 61 q33 9 82 6 l13 0 q129 -3 181 -89 q53 -86 51 -216 q2 -130 -51 -216 q-52 -86 -181 -89 l-13 0 Z" /><glyph glyph-name="" unicode="Ð" d="M414 700 l-384 0 l0 -36 q49 2 82 -10 q33 -13 34 -66 l0 -216 l-57 0 l0 -46 l57 0 l0 -214 q-1 -52 -34 -65 q-33 -13 -82 -11 l0 -36 l384 0 q176 3 280 100 q104 98 107 250 q-3 152 -107 250 q-104 97 -280 100 l0 0 ZM414 45 l-13 0 q-49 -3 -82 5 q-34 9 -35 62 l0 214 l120 0 l0 46 l-120 0 l0 216 q1 51 35 61 q33 9 82 6 l13 0 q129 -3 181 -89 q53 -86 51 -216 q2 -130 -51 -216 q-52 -86 -181 -89 l0 0 Z" /><glyph glyph-name="" unicode="&#x10e;" d="M334 768 l68 0 l100 149 l-24 0 l-110 -77 l-111 77 l-23 0 l100 -149 ZM30 0 l384 0 q176 3 280 100 q104 98 107 250 q-3 152 -107 250 q-104 97 -280 100 l-384 0 l0 -36 q49 2 82 -10 q33 -13 34 -66 l0 -476 q-1 -52 -34 -65 q-33 -13 -82 -11 l0 -36 ZM401 45 q-49 -3 -82 5 q-34 9 -35 62 l0 476 q1 51 35 61 q33 9 82 6 l13 0 q129 -3 181 -89 q53 -86 51 -216 q2 -130 -51 -216 q-52 -86 -181 -89 l-13 0 Z" /><glyph glyph-name="" unicode="&#x110;" d="M414 700 l-384 0 l0 -36 q49 2 82 -10 q33 -13 34 -66 l0 -182 l-90 0 l0 -47 l90 0 l0 -247 q-1 -52 -34 -65 q-33 -13 -82 -11 l0 -36 l384 0 q176 3 280 100 q104 98 107 250 q-3 152 -107 250 q-104 97 -280 100 l0 0 ZM414 45 l-13 0 q-49 -3 -82 5 q-34 9 -35 62 l0 247 l198 0 l0 47 l-198 0 l0 182 q1 51 35 61 q33 9 82 6 l13 0 q129 -3 181 -89 q53 -86 51 -216 q2 -130 -51 -216 q-52 -86 -181 -89 l0 0 Z" /><glyph glyph-name="" unicode="E" d="M30 0 l571 0 l0 205 l-35 0 q-9 -83 -30 -122 q-21 -38 -90 -38 l-92 0 q-35 -1 -52 13 q-17 14 -17 54 l0 244 l97 0 q56 0 76 -31 q20 -31 23 -94 l35 0 l0 294 l-35 0 q-4 -64 -24 -94 q-21 -31 -75 -31 l-97 0 l0 188 q0 40 17 54 q17 14 52 13 l77 0 q67 0 90 -33 q24 -32 30 -99 l36 0 l0 177 l-557 0 l0 -36 q49 2 83 -11 q33 -14 34 -65 l0 -476 q-1 -52 -34 -65 q-34 -13 -83 -11 l0 -36 Z" /><glyph glyph-name="" unicode="É" d="M315 752 l24 0 l150 178 l-117 0 l-57 -178 ZM30 0 l571 0 l0 205 l-35 0 q-9 -83 -30 -122 q-21 -38 -90 -38 l-92 0 q-35 -1 -52 13 q-17 14 -17 54 l0 244 l97 0 q56 0 76 -31 q20 -31 23 -94 l35 0 l0 294 l-35 0 q-4 -64 -24 -94 q-21 -31 -75 -31 l-97 0 l0 188 q0 40 17 54 q17 14 52 13 l77 0 q67 0 90 -33 q24 -32 30 -99 l36 0 l0 177 l-557 0 l0 -36 q49 2 83 -11 q33 -14 34 -65 l0 -476 q-1 -52 -34 -65 q-34 -13 -83 -11 l0 -36 Z" /><glyph glyph-name="" unicode="&#x11a;" d="M318 768 l68 0 l100 149 l-24 0 l-110 -77 l-111 77 l-23 0 l100 -149 ZM30 0 l571 0 l0 205 l-35 0 q-9 -83 -30 -122 q-21 -38 -90 -38 l-92 0 q-35 -1 -52 13 q-17 14 -17 54 l0 244 l97 0 q56 0 76 -31 q20 -31 23 -94 l35 0 l0 294 l-35 0 q-4 -64 -24 -94 q-21 -31 -75 -31 l-97 0 l0 188 q0 40 17 54 q17 14 52 13 l77 0 q67 0 90 -33 q24 -32 30 -99 l36 0 l0 177 l-557 0 l0 -36 q49 2 83 -11 q33 -14 34 -65 l0 -476 q-1 -52 -34 -65 q-34 -13 -83 -11 l0 -36 Z" /><glyph glyph-name="" unicode="Ê" d="M207 743 l38 0 l96 86 l96 -86 l38 0 l-100 145 l-68 0 l-100 -145 ZM30 0 l571 0 l0 205 l-35 0 q-9 -83 -30 -122 q-21 -38 -90 -38 l-92 0 q-35 -1 -52 13 q-17 14 -17 54 l0 244 l97 0 q56 0 76 -31 q20 -31 23 -94 l35 0 l0 294 l-35 0 q-4 -64 -24 -94 q-21 -31 -75 -31 l-97 0 l0 188 q0 40 17 54 q17 14 52 13 l77 0 q67 0 90 -33 q24 -32 30 -99 l36 0 l0 177 l-557 0 l0 -36 q49 2 83 -11 q33 -14 34 -65 l0 -476 q-1 -52 -34 -65 q-34 -13 -83 -11 l0 -36 Z" /><glyph glyph-name="" unicode="&#x1ec6;" d="M207 743 l38 0 l96 86 l96 -86 l38 0 l-100 145 l-68 0 l-100 -145 ZM30 0 l571 0 l0 205 l-35 0 q-9 -83 -30 -122 q-21 -38 -90 -38 l-92 0 q-35 -1 -52 13 q-17 14 -17 54 l0 244 l97 0 q56 0 76 -31 q20 -31 23 -94 l35 0 l0 294 l-35 0 q-4 -64 -24 -94 q-21 -31 -75 -31 l-97 0 l0 188 q0 40 17 54 q17 14 52 13 l77 0 q67 0 90 -33 q24 -32 30 -99 l36 0 l0 177 l-557 0 l0 -36 q49 2 83 -11 q33 -14 34 -65 l0 -476 q-1 -52 -34 -65 q-34 -13 -83 -11 l0 -36 ZM361 -200 q28 1 47 20 q19 19 20 47 q-1 27 -20 45 q-19 18 -47 19 q-28 -1 -47 -19 q-19 -18 -20 -45 q1 -28 20 -47 q19 -19 47 -20 l0 0 Z" /><glyph glyph-name="" unicode="Ë" d="M243 766 q27 1 45 18 q17 18 18 42 q-1 26 -18 44 q-18 18 -45 19 q-26 -1 -41 -19 q-16 -18 -16 -44 q0 -24 16 -42 q15 -17 41 -18 l0 0 ZM436 766 q27 1 45 18 q18 18 19 42 q-1 26 -19 44 q-18 18 -45 19 q-25 -1 -40 -19 q-16 -18 -16 -44 q0 -24 16 -42 q15 -17 40 -18 l0 0 ZM30 0 l571 0 l0 205 l-35 0 q-9 -83 -30 -122 q-21 -38 -90 -38 l-92 0 q-35 -1 -52 13 q-17 14 -17 54 l0 244 l97 0 q56 0 76 -31 q20 -31 23 -94 l35 0 l0 294 l-35 0 q-4 -64 -24 -94 q-21 -31 -75 -31 l-97 0 l0 188 q0 40 17 54 q17 14 52 13 l77 0 q67 0 90 -33 q24 -32 30 -99 l36 0 l0 177 l-557 0 l0 -36 q49 2 83 -11 q33 -14 34 -65 l0 -476 q-1 -52 -34 -65 q-34 -13 -83 -11 l0 -36 Z" /><glyph glyph-name="" unicode="&#x116;" d="M343 757 q28 1 47 20 q19 19 20 47 q-1 27 -20 45 q-19 18 -47 19 q-28 -1 -47 -19 q-19 -18 -20 -45 q1 -28 20 -47 q19 -19 47 -20 l0 0 ZM30 0 l571 0 l0 205 l-35 0 q-9 -83 -30 -122 q-21 -38 -90 -38 l-92 0 q-35 -1 -52 13 q-17 14 -17 54 l0 244 l97 0 q56 0 76 -31 q20 -31 23 -94 l35 0 l0 294 l-35 0 q-4 -64 -24 -94 q-21 -31 -75 -31 l-97 0 l0 188 q0 40 17 54 q17 14 52 13 l77 0 q67 0 90 -33 q24 -32 30 -99 l36 0 l0 177 l-557 0 l0 -36 q49 2 83 -11 q33 -14 34 -65 l0 -476 q-1 -52 -34 -65 q-34 -13 -83 -11 l0 -36 Z" /><glyph glyph-name="" unicode="&#x1eb8;" d="M30 0 l571 0 l0 205 l-35 0 q-9 -83 -30 -122 q-21 -38 -90 -38 l-92 0 q-35 -1 -52 13 q-17 14 -17 54 l0 244 l97 0 q56 0 76 -31 q20 -31 23 -94 l35 0 l0 294 l-35 0 q-4 -64 -24 -94 q-21 -31 -75 -31 l-97 0 l0 188 q0 40 17 54 q17 14 52 13 l77 0 q67 0 90 -33 q24 -32 30 -99 l36 0 l0 177 l-557 0 l0 -36 q49 2 83 -11 q33 -14 34 -65 l0 -476 q-1 -52 -34 -65 q-34 -13 -83 -11 l0 -36 ZM361 -200 q28 1 47 20 q19 19 20 47 q-1 27 -20 45 q-19 18 -47 19 q-28 -1 -47 -19 q-19 -18 -20 -45 q1 -28 20 -47 q19 -19 47 -20 l0 0 Z" /><glyph glyph-name="" unicode="È" d="M336 752 l38 0 l-59 176 l-115 0 l136 -176 ZM30 0 l571 0 l0 205 l-35 0 q-9 -83 -30 -122 q-21 -38 -90 -38 l-92 0 q-35 -1 -52 13 q-17 14 -17 54 l0 244 l97 0 q56 0 76 -31 q20 -31 23 -94 l35 0 l0 294 l-35 0 q-4 -64 -24 -94 q-21 -31 -75 -31 l-97 0 l0 188 q0 40 17 54 q17 14 52 13 l77 0 q67 0 90 -33 q24 -32 30 -99 l36 0 l0 177 l-557 0 l0 -36 q49 2 83 -11 q33 -14 34 -65 l0 -476 q-1 -52 -34 -65 q-34 -13 -83 -11 l0 -36 Z" /><glyph glyph-name="" unicode="&#x1eba;" d="M330 740 q19 6 56 42 q38 35 42 78 q0 29 -22 50 q-21 20 -62 21 q-55 -5 -85 -43 q-31 -38 -31 -43 l4 -5 q7 7 26 18 q19 10 43 11 q31 -2 42 -20 q12 -19 11 -36 q-1 -25 -10 -42 q-10 -16 -19 -26 l5 -5 ZM30 0 l571 0 l0 205 l-35 0 q-9 -83 -30 -122 q-21 -38 -90 -38 l-92 0 q-35 -1 -52 13 q-17 14 -17 54 l0 244 l97 0 q56 0 76 -31 q20 -31 23 -94 l35 0 l0 294 l-35 0 q-4 -64 -24 -94 q-21 -31 -75 -31 l-97 0 l0 188 q0 40 17 54 q17 14 52 13 l77 0 q67 0 90 -33 q24 -32 30 -99 l36 0 l0 177 l-557 0 l0 -36 q49 2 83 -11 q33 -14 34 -65 l0 -476 q-1 -52 -34 -65 q-34 -13 -83 -11 l0 -36 Z" /><glyph glyph-name="" unicode="&#x112;" d="M195 796 l266 0 l0 36 l-266 0 l0 -36 ZM30 0 l571 0 l0 205 l-35 0 q-9 -83 -30 -122 q-21 -38 -90 -38 l-92 0 q-35 -1 -52 13 q-17 14 -17 54 l0 244 l97 0 q56 0 76 -31 q20 -31 23 -94 l35 0 l0 294 l-35 0 q-4 -64 -24 -94 q-21 -31 -75 -31 l-97 0 l0 188 q0 40 17 54 q17 14 52 13 l77 0 q67 0 90 -33 q24 -32 30 -99 l36 0 l0 177 l-557 0 l0 -36 q49 2 83 -11 q33 -14 34 -65 l0 -476 q-1 -52 -34 -65 q-34 -13 -83 -11 l0 -36 Z" /><glyph glyph-name="" unicode="&#x118;" d="M588 -146 q-18 0 -26 12 q-7 11 -6 29 q0 19 11 47 q11 28 29 58 l5 0 l0 205 l-35 0 q-9 -83 -30 -122 q-21 -38 -90 -38 l-92 0 q-35 -1 -52 13 q-17 14 -17 54 l0 244 l97 0 q56 0 76 -31 q20 -31 23 -94 l35 0 l0 294 l-35 0 q-4 -64 -24 -94 q-21 -31 -75 -31 l-97 0 l0 188 q0 40 17 54 q17 14 52 13 l77 0 q67 0 90 -33 q24 -32 30 -99 l36 0 l0 177 l-557 0 l0 -36 q49 2 83 -11 q33 -14 34 -65 l0 -476 q-1 -52 -34 -65 q-34 -13 -83 -11 l0 -36 l540 0 q-42 -30 -76 -65 q-34 -35 -36 -68 q1 -28 18 -41 q18 -14 45 -14 q48 1 80 11 q33 9 34 10 l0 22 q-1 0 -14 0 q-14 -1 -33 -1 l0 0 Z" /><glyph glyph-name="" unicode="&#x1ebc;" d="M387 764 q31 4 46 44 q15 41 20 73 l-13 0 q1 -2 -10 -17 q-10 -16 -40 -18 q-32 2 -61 18 q-29 16 -64 18 q-31 -4 -45 -44 q-14 -41 -21 -73 l13 0 q-1 2 10 18 q10 15 40 17 q29 -2 60 -18 q31 -16 65 -18 l0 0 ZM30 0 l571 0 l0 205 l-35 0 q-9 -83 -30 -122 q-21 -38 -90 -38 l-92 0 q-35 -1 -52 13 q-17 14 -17 54 l0 244 l97 0 q56 0 76 -31 q20 -31 23 -94 l35 0 l0 294 l-35 0 q-4 -64 -24 -94 q-21 -31 -75 -31 l-97 0 l0 188 q0 40 17 54 q17 14 52 13 l77 0 q67 0 90 -33 q24 -32 30 -99 l36 0 l0 177 l-557 0 l0 -36 q49 2 83 -11 q33 -14 34 -65 l0 -476 q-1 -52 -34 -65 q-34 -13 -83 -11 l0 -36 Z" /><glyph glyph-name="" unicode="F" d="M30 0 l398 0 l0 36 q-71 -2 -108 10 q-37 13 -37 66 l0 244 l97 0 q55 1 75 -27 q19 -28 24 -98 l38 0 l-3 294 l-35 0 q-4 -70 -24 -98 q-20 -28 -75 -27 l-97 0 l0 188 q0 40 17 54 q18 14 52 13 l78 0 q67 1 90 -29 q23 -30 30 -103 l35 0 l0 177 l-555 0 l0 -36 q49 2 82 -11 q33 -14 34 -65 l0 -476 q-1 -51 -34 -65 q-33 -13 -82 -11 l0 -36 Z" /><glyph glyph-name="" unicode="G" d="M413 -10 q99 -3 186 22 q87 25 93 29 l0 196 q-1 37 12 56 q13 20 49 20 l0 31 l-329 0 l0 -31 q63 2 97 -10 q34 -13 34 -66 l0 -151 q3 -3 -25 -25 q-27 -23 -117 -26 q-115 2 -166 89 q-51 86 -50 226 q-1 140 59 226 q60 85 189 87 q77 0 137 -42 q60 -41 70 -119 l35 0 l0 185 q-9 1 -93 11 q-83 10 -135 12 q-203 -4 -311 -105 q-107 -101 -108 -255 q1 -152 99 -248 q97 -96 274 -112 l0 0 Z" /><glyph glyph-name="" unicode="&#x11e;" d="M383 764 q87 9 114 69 q27 60 24 69 l-8 0 q2 -3 -26 -23 q-29 -21 -105 -24 q-76 3 -104 24 q-28 20 -26 23 l-7 0 q-3 -9 24 -69 q26 -60 114 -69 l0 0 ZM413 -10 q99 -3 186 22 q87 25 93 29 l0 196 q-1 37 12 56 q13 20 49 20 l0 31 l-329 0 l0 -31 q63 2 97 -10 q34 -13 34 -66 l0 -151 q3 -3 -25 -25 q-27 -23 -117 -26 q-115 2 -166 89 q-51 86 -50 226 q-1 140 59 226 q60 85 189 87 q77 0 137 -42 q60 -41 70 -119 l35 0 l0 185 q-9 1 -93 11 q-83 10 -135 12 q-203 -4 -311 -105 q-107 -101 -108 -255 q1 -152 99 -248 q97 -96 274 -112 l0 0 Z" /><glyph glyph-name="" unicode="&#x122;" d="M413 -10 q99 -3 186 22 q87 25 93 29 l0 196 q-1 37 12 56 q13 20 49 20 l0 31 l-329 0 l0 -31 q63 2 97 -10 q34 -13 34 -66 l0 -151 q3 -3 -25 -25 q-27 -23 -117 -26 q-115 2 -166 89 q-51 86 -50 226 q-1 140 59 226 q60 85 189 87 q77 0 137 -42 q60 -41 70 -119 l35 0 l0 185 q-9 1 -93 11 q-83 10 -135 12 q-203 -4 -311 -105 q-107 -101 -108 -255 q1 -152 99 -248 q97 -96 274 -112 l0 0 ZM323 -229 l10 0 l144 184 l-106 12 l-48 -196 Z" /><glyph glyph-name="" unicode="&#x120;" d="M394 766 q28 1 47 20 q19 19 20 47 q-1 27 -20 45 q-19 18 -47 19 q-28 -1 -47 -19 q-19 -18 -20 -45 q1 -28 20 -47 q19 -19 47 -20 l0 0 ZM413 -10 q99 -3 186 22 q87 25 93 29 l0 196 q-1 37 12 56 q13 20 49 20 l0 31 l-329 0 l0 -31 q63 2 97 -10 q34 -13 34 -66 l0 -151 q3 -3 -25 -25 q-27 -23 -117 -26 q-115 2 -166 89 q-51 86 -50 226 q-1 140 59 226 q60 85 189 87 q77 0 137 -42 q60 -41 70 -119 l35 0 l0 185 q-9 1 -93 11 q-83 10 -135 12 q-203 -4 -311 -105 q-107 -101 -108 -255 q1 -152 99 -248 q97 -96 274 -112 l0 0 Z" /><glyph glyph-name="" unicode="H" d="M802 664 l0 36 l-356 0 l0 -36 q53 1 78 -14 q24 -16 24 -62 l0 -188 l-263 0 l0 188 q0 44 24 61 q25 16 78 15 l0 36 l-357 0 l0 -36 q49 2 83 -10 q33 -13 34 -66 l0 -476 q-1 -52 -34 -65 q-34 -13 -83 -11 l0 -36 l357 0 l0 36 q-53 -1 -78 14 q-24 16 -24 62 l0 244 l263 0 l0 -244 q0 -44 -24 -60 q-25 -17 -78 -16 l0 -36 l356 0 l0 36 q-49 -2 -82 10 q-33 12 -34 66 l0 476 q1 52 34 65 q33 13 82 11 l0 0 Z" /><glyph glyph-name="" unicode="&#x126;" d="M814 664 l0 36 l-356 0 l0 -36 q53 1 78 -14 q24 -16 24 -62 l0 -49 l-263 0 l0 49 q0 44 24 61 q25 16 78 15 l0 36 l-357 0 l0 -36 q49 2 83 -10 q33 -13 34 -66 l0 -49 l-93 0 l0 -44 l93 0 l0 -383 q-1 -52 -34 -65 q-34 -13 -83 -11 l0 -36 l357 0 l0 36 q-53 -1 -78 14 q-24 16 -24 62 l0 244 l263 0 l0 -244 q0 -44 -24 -60 q-25 -17 -78 -16 l0 -36 l356 0 l0 36 q-49 -2 -82 10 q-33 12 -34 66 l0 383 l93 0 l0 44 l-93 0 l0 49 q1 52 34 65 q33 13 82 11 l0 0 ZM560 400 l-263 0 l0 95 l263 0 l0 -95 Z" /><glyph glyph-name="" unicode="I" d="M30 0 l370 0 l0 36 q-49 -2 -82 10 q-33 12 -34 66 l0 476 q1 52 34 65 q33 13 82 11 l0 36 l-370 0 l0 -36 q49 2 83 -10 q33 -13 34 -66 l0 -476 q-1 -52 -34 -65 q-34 -13 -83 -11 l0 -36 Z" /><glyph glyph-name="" unicode="&#x132;" d="M30 0 l370 0 l0 36 q-49 -2 -82 10 q-33 12 -34 66 l0 476 q1 52 34 65 q33 13 82 11 l0 36 l-370 0 l0 -36 q49 2 83 -10 q33 -13 34 -66 l0 -476 q-1 -52 -34 -65 q-34 -13 -83 -11 l0 -36 ZM584 -10 q147 3 188 53 q41 49 36 119 l0 426 q1 52 34 65 q33 13 82 11 l0 36 l-399 0 l0 -36 q63 2 103 -10 q41 -13 42 -66 l0 -457 q-1 -53 -25 -75 q-24 -22 -65 -21 q-47 -1 -76 38 q-29 38 -38 123 l-36 0 l0 -183 q3 -1 55 -11 q52 -10 99 -12 l0 0 Z" /><glyph glyph-name="" unicode="Í" d="M194 752 l24 0 l150 178 l-117 0 l-57 -178 ZM30 0 l370 0 l0 36 q-49 -2 -82 10 q-33 12 -34 66 l0 476 q1 52 34 65 q33 13 82 11 l0 36 l-370 0 l0 -36 q49 2 83 -10 q33 -13 34 -66 l0 -476 q-1 -52 -34 -65 q-34 -13 -83 -11 l0 -36 Z" /><glyph glyph-name="" unicode="&#x1cf;" d="M197 768 l68 0 l100 149 l-24 0 l-110 -77 l-111 77 l-23 0 l100 -149 ZM30 0 l370 0 l0 36 q-49 -2 -82 10 q-33 12 -34 66 l0 476 q1 52 34 65 q33 13 82 11 l0 36 l-370 0 l0 -36 q49 2 83 -10 q33 -13 34 -66 l0 -476 q-1 -52 -34 -65 q-34 -13 -83 -11 l0 -36 Z" /><glyph glyph-name="" unicode="Î" d="M86 743 l38 0 l96 86 l96 -86 l38 0 l-100 145 l-68 0 l-100 -145 ZM30 0 l370 0 l0 36 q-49 -2 -82 10 q-33 12 -34 66 l0 476 q1 52 34 65 q33 13 82 11 l0 36 l-370 0 l0 -36 q49 2 83 -10 q33 -13 34 -66 l0 -476 q-1 -52 -34 -65 q-34 -13 -83 -11 l0 -36 Z" /><glyph glyph-name="" unicode="Ï" d="M122 766 q27 1 45 18 q17 18 18 42 q-1 26 -18 44 q-18 18 -45 19 q-26 -1 -41 -19 q-16 -18 -16 -44 q0 -24 16 -42 q15 -17 41 -18 l0 0 ZM315 766 q27 1 45 18 q18 18 19 42 q-1 26 -19 44 q-18 18 -45 19 q-25 -1 -40 -19 q-16 -18 -16 -44 q0 -24 16 -42 q15 -17 40 -18 l0 0 ZM30 0 l370 0 l0 36 q-49 -2 -82 10 q-33 12 -34 66 l0 476 q1 52 34 65 q33 13 82 11 l0 36 l-370 0 l0 -36 q49 2 83 -10 q33 -13 34 -66 l0 -476 q-1 -52 -34 -65 q-34 -13 -83 -11 l0 -36 Z" /><glyph glyph-name="" unicode="&#x130;" d="M222 757 q28 1 47 20 q19 19 20 47 q-1 27 -20 45 q-19 18 -47 19 q-28 -1 -47 -19 q-19 -18 -20 -45 q1 -28 20 -47 q19 -19 47 -20 l0 0 ZM30 0 l370 0 l0 36 q-49 -2 -82 10 q-33 12 -34 66 l0 476 q1 52 34 65 q33 13 82 11 l0 36 l-370 0 l0 -36 q49 2 83 -10 q33 -13 34 -66 l0 -476 q-1 -52 -34 -65 q-34 -13 -83 -11 l0 -36 Z" /><glyph glyph-name="" unicode="&#x1eca;" d="M30 0 l370 0 l0 36 q-49 -2 -82 10 q-33 12 -34 66 l0 476 q1 52 34 65 q33 13 82 11 l0 36 l-370 0 l0 -36 q49 2 83 -10 q33 -13 34 -66 l0 -476 q-1 -52 -34 -65 q-34 -13 -83 -11 l0 -36 ZM226 -200 q28 1 47 20 q19 19 20 47 q-1 27 -20 45 q-19 18 -47 19 q-28 -1 -47 -19 q-19 -18 -20 -45 q1 -28 20 -47 q19 -19 47 -20 l0 0 Z" /><glyph glyph-name="" unicode="Ì" d="M215 752 l38 0 l-59 176 l-115 0 l136 -176 ZM30 0 l370 0 l0 36 q-49 -2 -82 10 q-33 12 -34 66 l0 476 q1 52 34 65 q33 13 82 11 l0 36 l-370 0 l0 -36 q49 2 83 -10 q33 -13 34 -66 l0 -476 q-1 -52 -34 -65 q-34 -13 -83 -11 l0 -36 Z" /><glyph glyph-name="" unicode="&#x1ec8;" d="M209 740 q19 6 56 42 q38 35 42 78 q0 29 -22 50 q-21 20 -62 21 q-55 -5 -85 -43 q-31 -38 -31 -43 l4 -5 q7 7 26 18 q19 10 43 11 q31 -2 42 -20 q12 -19 11 -36 q-1 -25 -10 -42 q-10 -16 -19 -26 l5 -5 ZM30 0 l370 0 l0 36 q-49 -2 -82 10 q-33 12 -34 66 l0 476 q1 52 34 65 q33 13 82 11 l0 36 l-370 0 l0 -36 q49 2 83 -10 q33 -13 34 -66 l0 -476 q-1 -52 -34 -65 q-34 -13 -83 -11 l0 -36 Z" /><glyph glyph-name="" unicode="&#x12a;" d="M74 796 l266 0 l0 36 l-266 0 l0 -36 ZM30 0 l370 0 l0 36 q-49 -2 -82 10 q-33 12 -34 66 l0 476 q1 52 34 65 q33 13 82 11 l0 36 l-370 0 l0 -36 q49 2 83 -10 q33 -13 34 -66 l0 -476 q-1 -52 -34 -65 q-34 -13 -83 -11 l0 -36 Z" /><glyph glyph-name="" unicode="&#x12e;" d="M386 -154 q-18 0 -26 12 q-7 11 -6 29 q0 21 13 51 q12 31 32 62 l1 0 l0 36 q-49 -2 -82 10 q-33 12 -34 66 l0 476 q1 52 34 65 q33 13 82 11 l0 36 l-370 0 l0 -36 q49 2 83 -10 q33 -13 34 -66 l0 -476 q-1 -52 -34 -65 q-34 -13 -83 -11 l0 -36 l349 0 q-44 -31 -82 -68 q-39 -38 -41 -73 q1 -28 18 -41 q18 -14 45 -14 q48 1 80 11 q33 9 34 10 l0 22 q-1 0 -14 0 q-14 -1 -33 -1 l0 0 Z" /><glyph glyph-name="" unicode="&#x128;" d="M266 764 q31 4 46 44 q15 41 20 73 l-13 0 q1 -2 -10 -17 q-10 -16 -40 -18 q-32 2 -61 18 q-29 16 -64 18 q-31 -4 -45 -44 q-14 -41 -21 -73 l13 0 q-1 2 10 18 q10 15 40 17 q29 -2 60 -18 q31 -16 65 -18 l0 0 ZM30 0 l370 0 l0 36 q-49 -2 -82 10 q-33 12 -34 66 l0 476 q1 52 34 65 q33 13 82 11 l0 36 l-370 0 l0 -36 q49 2 83 -10 q33 -13 34 -66 l0 -476 q-1 -52 -34 -65 q-34 -13 -83 -11 l0 -36 Z" /><glyph glyph-name="" unicode="J" d="M154 -10 q147 3 188 53 q41 49 36 119 l0 426 q1 52 34 65 q33 13 82 11 l0 36 l-399 0 l0 -36 q63 2 103 -10 q41 -13 42 -66 l0 -457 q-1 -53 -25 -75 q-24 -22 -65 -21 q-47 -1 -76 38 q-29 38 -38 123 l-36 0 l0 -183 q3 -1 55 -11 q52 -10 99 -12 l0 0 Z" /><glyph glyph-name="" unicode="K" d="M30 0 l370 0 l0 36 q-51 -2 -83 11 q-32 13 -33 65 l0 176 q15 15 26 25 q10 10 19 19 q39 -45 112 -132 q74 -86 94 -112 q22 -28 13 -40 q-8 -12 -53 -12 l0 -36 l308 0 l0 36 q-30 1 -61 20 q-30 18 -57 49 q-37 42 -135 156 q-99 115 -136 159 q34 36 89 93 q55 56 108 110 q34 33 62 38 q27 5 49 3 l0 36 l-212 0 l0 -36 l30 0 q21 0 26 -10 q6 -10 -16 -34 q-109 -116 -173 -179 q-64 -63 -93 -91 l0 238 q1 53 34 66 q33 12 82 10 l0 36 l-370 0 l0 -36 q49 2 82 -9 q33 -12 34 -67 l0 -476 q-1 -54 -34 -66 q-33 -12 -82 -10 l0 -36 Z" /><glyph glyph-name="" unicode="&#x136;" d="M30 0 l370 0 l0 36 q-51 -2 -83 11 q-32 13 -33 65 l0 176 q15 15 26 25 q10 10 19 19 q39 -45 112 -132 q74 -86 94 -112 q22 -28 13 -40 q-8 -12 -53 -12 l0 -36 l308 0 l0 36 q-30 1 -61 20 q-30 18 -57 49 q-37 42 -135 156 q-99 115 -136 159 q34 36 89 93 q55 56 108 110 q34 33 62 38 q27 5 49 3 l0 36 l-212 0 l0 -36 l30 0 q21 0 26 -10 q6 -10 -16 -34 q-109 -116 -173 -179 q-64 -63 -93 -91 l0 238 q1 53 34 66 q33 12 82 10 l0 36 l-370 0 l0 -36 q49 2 82 -9 q33 -12 34 -67 l0 -476 q-1 -54 -34 -66 q-33 -12 -82 -10 l0 -36 ZM313 -229 l10 0 l144 184 l-106 12 l-48 -196 Z" /><glyph glyph-name="" unicode="L" d="M30 0 l604 0 l0 225 l-35 0 q-8 -97 -29 -139 q-21 -42 -91 -41 l-126 0 q-35 -1 -53 13 q-17 14 -17 54 l0 476 q1 52 35 65 q33 13 83 11 l0 36 l-371 0 l0 -36 q49 2 82 -10 q33 -13 34 -66 l0 -476 q-1 -52 -34 -65 q-33 -13 -82 -11 l0 -36 Z" /><glyph glyph-name="" unicode="&#x139;" d="M195 742 l24 0 l165 149 l-116 0 l-73 -149 ZM30 0 l604 0 l0 225 l-35 0 q-8 -97 -29 -139 q-21 -42 -91 -41 l-126 0 q-35 -1 -53 13 q-17 14 -17 54 l0 476 q1 52 35 65 q33 13 83 11 l0 36 l-371 0 l0 -36 q49 2 82 -10 q33 -13 34 -66 l0 -476 q-1 -52 -34 -65 q-33 -13 -82 -11 l0 -36 Z" /><glyph glyph-name="" unicode="&#x13d;" d="M459 482 q9 -1 69 24 q59 25 68 92 q-8 67 -66 92 q-58 25 -66 24 l-7 -5 q18 -20 30 -49 q12 -30 12 -62 q-1 -31 -14 -61 q-14 -29 -33 -50 l7 -5 ZM30 0 l604 0 l0 225 l-35 0 q-8 -97 -29 -139 q-21 -42 -91 -41 l-126 0 q-35 -1 -53 13 q-17 14 -17 54 l0 476 q1 52 35 65 q33 13 83 11 l0 36 l-371 0 l0 -36 q49 2 82 -10 q33 -13 34 -66 l0 -476 q-1 -52 -34 -65 q-33 -13 -82 -11 l0 -36 Z" /><glyph glyph-name="" unicode="&#x13b;" d="M30 0 l604 0 l0 225 l-35 0 q-8 -97 -29 -139 q-21 -42 -91 -41 l-126 0 q-35 -1 -53 13 q-17 14 -17 54 l0 476 q1 52 35 65 q33 13 83 11 l0 36 l-371 0 l0 -36 q49 2 82 -10 q33 -13 34 -66 l0 -476 q-1 -52 -34 -65 q-33 -13 -82 -11 l0 -36 ZM97 -229 l10 0 l144 184 l-106 12 l-48 -196 Z" /><glyph glyph-name="" unicode="&#x13f;" d="M30 0 l604 0 l0 225 l-35 0 q-8 -97 -29 -139 q-21 -42 -91 -41 l-126 0 q-35 -1 -53 13 q-17 14 -17 54 l0 476 q1 52 35 65 q33 13 83 11 l0 36 l-371 0 l0 -36 q49 2 82 -10 q33 -13 34 -66 l0 -476 q-1 -52 -34 -65 q-33 -13 -82 -11 l0 -36 ZM446 263 q30 1 51 20 q21 19 22 48 q-1 29 -22 49 q-21 20 -51 21 q-30 -1 -50 -21 q-20 -20 -21 -49 q1 -29 21 -48 q20 -19 50 -20 l0 0 Z" /><glyph glyph-name="" unicode="&#x141;" d="M42 0 l571 0 l0 225 l-37 0 q-8 -97 -29 -139 q-21 -42 -91 -41 l-91 0 q-35 -1 -53 13 q-17 14 -17 54 l0 253 l124 66 l0 49 l-124 -66 l0 174 q1 52 35 65 q33 13 83 11 l0 36 l-371 0 l0 -36 q49 2 82 -10 q33 -13 34 -66 l0 -246 l-86 -46 l0 -49 l86 46 l0 -181 q-1 -52 -34 -65 q-33 -13 -82 -11 l0 -36 Z" /><glyph glyph-name="" unicode="M" d="M20 0 l274 0 l0 15 q-49 -2 -81 13 q-33 14 -32 64 l25 513 l209 -605 l111 0 l203 585 q1 -45 12 -248 q10 -203 13 -245 q2 -49 -32 -64 q-35 -15 -84 -13 l0 -15 l359 0 l0 15 q-47 -1 -73 13 q-25 15 -29 64 l-35 495 q-3 49 23 67 q26 18 69 17 l0 29 l-232 0 l-206 -587 l-203 587 l-261 0 l0 -36 q48 1 75 -16 q27 -16 27 -61 q-1 -24 -13 -221 q-11 -196 -15 -274 q-3 -47 -30 -62 q-27 -16 -74 -15 l0 -15 Z" /><glyph glyph-name="" unicode="N" d="M30 0 l273 0 l0 16 q-49 -2 -82 11 q-34 13 -35 65 l0 512 l321 -604 l130 0 l0 588 q0 44 24 61 q25 16 78 15 l0 36 l-272 0 l0 -36 q49 2 82 -10 q33 -13 34 -66 l0 -435 l-292 547 l-261 0 l0 -36 q53 1 78 -15 q24 -17 24 -61 l0 -496 q0 -46 -24 -62 q-25 -15 -78 -14 l0 -16 Z" /><glyph glyph-name="" unicode="&#x143;" d="M354 752 l24 0 l150 178 l-117 0 l-57 -178 ZM30 0 l273 0 l0 16 q-49 -2 -82 11 q-34 13 -35 65 l0 512 l321 -604 l130 0 l0 588 q0 44 24 61 q25 16 78 15 l0 36 l-272 0 l0 -36 q49 2 82 -10 q33 -13 34 -66 l0 -435 l-292 547 l-261 0 l0 -36 q53 1 78 -15 q24 -17 24 -61 l0 -496 q0 -46 -24 -62 q-25 -15 -78 -14 l0 -16 Z" /><glyph glyph-name="" unicode="&#x147;" d="M357 768 l68 0 l100 149 l-24 0 l-110 -77 l-111 77 l-23 0 l100 -149 ZM30 0 l273 0 l0 16 q-49 -2 -82 11 q-34 13 -35 65 l0 512 l321 -604 l130 0 l0 588 q0 44 24 61 q25 16 78 15 l0 36 l-272 0 l0 -36 q49 2 82 -10 q33 -13 34 -66 l0 -435 l-292 547 l-261 0 l0 -36 q53 1 78 -15 q24 -17 24 -61 l0 -496 q0 -46 -24 -62 q-25 -15 -78 -14 l0 -16 Z" /><glyph glyph-name="" unicode="&#x145;" d="M30 0 l273 0 l0 16 q-49 -2 -82 11 q-34 13 -35 65 l0 512 l321 -604 l130 0 l0 588 q0 44 24 61 q25 16 78 15 l0 36 l-272 0 l0 -36 q49 2 82 -10 q33 -13 34 -66 l0 -435 l-292 547 l-261 0 l0 -36 q53 1 78 -15 q24 -17 24 -61 l0 -496 q0 -46 -24 -62 q-25 -15 -78 -14 l0 -16 ZM264 -229 l10 0 l144 184 l-106 12 l-48 -196 Z" /><glyph glyph-name="" unicode="&#x14a;" d="M517 -215 q74 2 104 43 q29 41 28 100 l0 660 q0 44 24 61 q25 16 78 15 l0 36 l-272 0 l0 -36 q49 2 82 -10 q33 -13 34 -66 l0 -332 l-292 444 l-261 0 l0 -36 q53 1 78 -15 q24 -17 24 -61 l0 -496 q0 -46 -24 -62 q-25 -15 -78 -14 l0 -16 l273 0 l0 16 q-49 -2 -82 11 q-34 13 -35 65 l0 512 l397 -607 l0 -56 q2 -48 -13 -82 q-14 -34 -73 -36 q-42 3 -79 39 q-38 36 -67 68 l-40 -120 q5 -2 68 -12 q63 -11 126 -13 l0 0 Z" /><glyph glyph-name="" unicode="Ñ" d="M426 764 q31 4 46 44 q15 41 20 73 l-13 0 q1 -2 -10 -17 q-10 -16 -40 -18 q-32 2 -61 18 q-29 16 -64 18 q-31 -4 -45 -44 q-14 -41 -21 -73 l13 0 q-1 2 10 18 q10 15 40 17 q29 -2 60 -18 q31 -16 65 -18 l0 0 ZM30 0 l273 0 l0 16 q-49 -2 -82 11 q-34 13 -35 65 l0 512 l321 -604 l130 0 l0 588 q0 44 24 61 q25 16 78 15 l0 36 l-272 0 l0 -36 q49 2 82 -10 q33 -13 34 -66 l0 -435 l-292 547 l-261 0 l0 -36 q53 1 78 -15 q24 -17 24 -61 l0 -496 q0 -46 -24 -62 q-25 -15 -78 -14 l0 -16 Z" /><glyph glyph-name="" unicode="O" d="M428 -10 q176 4 281 105 q104 102 107 255 q-3 153 -107 255 q-105 101 -281 105 q-175 -4 -280 -105 q-105 -102 -108 -255 q3 -153 108 -255 q105 -101 280 -105 l0 0 ZM428 35 q-128 4 -180 94 q-53 90 -51 221 q-2 130 51 220 q52 89 180 93 q129 -4 180 -93 q52 -90 50 -220 q2 -131 -50 -221 q-51 -90 -180 -94 l0 0 Z" /><glyph glyph-name="" unicode="Ó" d="M411 752 l24 0 l150 178 l-117 0 l-57 -178 ZM428 -10 q176 4 281 105 q104 102 107 255 q-3 153 -107 255 q-105 101 -281 105 q-175 -4 -280 -105 q-105 -102 -108 -255 q3 -153 108 -255 q105 -101 280 -105 l0 0 ZM428 35 q-128 4 -180 94 q-53 90 -51 221 q-2 130 51 220 q52 89 180 93 q129 -4 180 -93 q52 -90 50 -220 q2 -131 -50 -221 q-51 -90 -180 -94 l0 0 Z" /><glyph glyph-name="" unicode="&#x1d1;" d="M414 768 l68 0 l100 149 l-24 0 l-110 -77 l-111 77 l-23 0 l100 -149 ZM428 -10 q176 4 281 105 q104 102 107 255 q-3 153 -107 255 q-105 101 -281 105 q-175 -4 -280 -105 q-105 -102 -108 -255 q3 -153 108 -255 q105 -101 280 -105 l0 0 ZM428 35 q-128 4 -180 94 q-53 90 -51 221 q-2 130 51 220 q52 89 180 93 q129 -4 180 -93 q52 -90 50 -220 q2 -131 -50 -221 q-51 -90 -180 -94 l0 0 Z" /><glyph glyph-name="" unicode="Ô" d="M303 743 l38 0 l96 86 l96 -86 l38 0 l-100 145 l-68 0 l-100 -145 ZM428 -10 q176 4 281 105 q104 102 107 255 q-3 153 -107 255 q-105 101 -281 105 q-175 -4 -280 -105 q-105 -102 -108 -255 q3 -153 108 -255 q105 -101 280 -105 l0 0 ZM428 35 q-128 4 -180 94 q-53 90 -51 221 q-2 130 51 220 q52 89 180 93 q129 -4 180 -93 q52 -90 50 -220 q2 -131 -50 -221 q-51 -90 -180 -94 l0 0 Z" /><glyph glyph-name="" unicode="&#x1ed8;" d="M303 743 l38 0 l96 86 l96 -86 l38 0 l-100 145 l-68 0 l-100 -145 ZM428 -10 q176 4 281 105 q104 102 107 255 q-3 153 -107 255 q-105 101 -281 105 q-175 -4 -280 -105 q-105 -102 -108 -255 q3 -153 108 -255 q105 -101 280 -105 l0 0 ZM428 35 q-128 4 -180 94 q-53 90 -51 221 q-2 130 51 220 q52 89 180 93 q129 -4 180 -93 q52 -90 50 -220 q2 -131 -50 -221 q-51 -90 -180 -94 l0 0 ZM432 -200 q28 1 47 20 q19 19 20 47 q-1 27 -20 45 q-19 18 -47 19 q-28 -1 -47 -19 q-19 -18 -20 -45 q1 -28 20 -47 q19 -19 47 -20 l0 0 Z" /><glyph glyph-name="" unicode="Ö" d="M339 766 q27 1 45 18 q17 18 18 42 q-1 26 -18 44 q-18 18 -45 19 q-26 -1 -41 -19 q-16 -18 -16 -44 q0 -24 16 -42 q15 -17 41 -18 l0 0 ZM532 766 q27 1 45 18 q18 18 19 42 q-1 26 -19 44 q-18 18 -45 19 q-25 -1 -40 -19 q-16 -18 -16 -44 q0 -24 16 -42 q15 -17 40 -18 l0 0 ZM428 -10 q176 4 281 105 q104 102 107 255 q-3 153 -107 255 q-105 101 -281 105 q-175 -4 -280 -105 q-105 -102 -108 -255 q3 -153 108 -255 q105 -101 280 -105 l0 0 ZM428 35 q-128 4 -180 94 q-53 90 -51 221 q-2 130 51 220 q52 89 180 93 q129 -4 180 -93 q52 -90 50 -220 q2 -131 -50 -221 q-51 -90 -180 -94 l0 0 Z" /><glyph glyph-name="" unicode="&#x1ecc;" d="M428 -10 q176 4 281 105 q104 102 107 255 q-3 153 -107 255 q-105 101 -281 105 q-175 -4 -280 -105 q-105 -102 -108 -255 q3 -153 108 -255 q105 -101 280 -105 l0 0 ZM428 35 q-128 4 -180 94 q-53 90 -51 221 q-2 130 51 220 q52 89 180 93 q129 -4 180 -93 q52 -90 50 -220 q2 -131 -50 -221 q-51 -90 -180 -94 l0 0 ZM432 -200 q28 1 47 20 q19 19 20 47 q-1 27 -20 45 q-19 18 -47 19 q-28 -1 -47 -19 q-19 -18 -20 -45 q1 -28 20 -47 q19 -19 47 -20 l0 0 Z" /><glyph glyph-name="" unicode="Ò" d="M432 752 l38 0 l-59 176 l-115 0 l136 -176 ZM428 -10 q176 4 281 105 q104 102 107 255 q-3 153 -107 255 q-105 101 -281 105 q-175 -4 -280 -105 q-105 -102 -108 -255 q3 -153 108 -255 q105 -101 280 -105 l0 0 ZM428 35 q-128 4 -180 94 q-53 90 -51 221 q-2 130 51 220 q52 89 180 93 q129 -4 180 -93 q52 -90 50 -220 q2 -131 -50 -221 q-51 -90 -180 -94 l0 0 Z" /><glyph glyph-name="" unicode="&#x1ece;" d="M426 740 q19 6 56 42 q38 35 42 78 q0 29 -22 50 q-21 20 -62 21 q-55 -5 -85 -43 q-31 -38 -31 -43 l4 -5 q7 7 26 18 q19 10 43 11 q31 -2 42 -20 q12 -19 11 -36 q-1 -25 -10 -42 q-10 -16 -19 -26 l5 -5 ZM428 -10 q176 4 281 105 q104 102 107 255 q-3 153 -107 255 q-105 101 -281 105 q-175 -4 -280 -105 q-105 -102 -108 -255 q3 -153 108 -255 q105 -101 280 -105 l0 0 ZM428 35 q-128 4 -180 94 q-53 90 -51 221 q-2 130 51 220 q52 89 180 93 q129 -4 180 -93 q52 -90 50 -220 q2 -131 -50 -221 q-51 -90 -180 -94 l0 0 Z" /><glyph glyph-name="" unicode="&#x150;" d="M344 752 l24 0 l150 178 l-117 0 l-57 -178 ZM497 752 l24 0 l150 178 l-117 0 l-57 -178 ZM428 -10 q176 4 281 105 q104 102 107 255 q-3 153 -107 255 q-105 101 -281 105 q-175 -4 -280 -105 q-105 -102 -108 -255 q3 -153 108 -255 q105 -101 280 -105 l0 0 ZM428 35 q-128 4 -180 94 q-53 90 -51 221 q-2 130 51 220 q52 89 180 93 q129 -4 180 -93 q52 -90 50 -220 q2 -131 -50 -221 q-51 -90 -180 -94 l0 0 Z" /><glyph glyph-name="" unicode="&#x14c;" d="M291 796 l266 0 l0 36 l-266 0 l0 -36 ZM428 -10 q176 4 281 105 q104 102 107 255 q-3 153 -107 255 q-105 101 -281 105 q-175 -4 -280 -105 q-105 -102 -108 -255 q3 -153 108 -255 q105 -101 280 -105 l0 0 ZM428 35 q-128 4 -180 94 q-53 90 -51 221 q-2 130 51 220 q52 89 180 93 q129 -4 180 -93 q52 -90 50 -220 q2 -131 -50 -221 q-51 -90 -180 -94 l0 0 Z" /><glyph glyph-name="" unicode="Ø" d="M217 -50 l65 0 l35 60 q63 -20 136 -20 q176 4 281 105 q104 102 107 255 q-1 93 -43 170 q-42 77 -118 127 l42 73 l-65 0 l-26 -46 q-79 36 -178 36 q-175 -4 -280 -105 q-105 -102 -108 -255 q1 -105 53 -188 q53 -83 146 -130 l-47 -82 ZM299 93 q-39 46 -59 110 q-20 64 -20 147 q-2 144 52 228 q53 85 181 87 q49 0 81 -10 q33 -11 60 -37 l-295 -525 ZM453 37 q-34 0 -59 7 q-24 7 -47 22 l294 517 q24 -46 35 -106 q10 -59 10 -127 q2 -144 -51 -227 q-53 -84 -182 -86 l0 0 Z" /><glyph glyph-name="" unicode="Õ" d="M496 764 q31 4 46 44 q15 41 20 73 l-13 0 q1 -2 -10 -17 q-10 -16 -40 -18 q-32 2 -61 18 q-29 16 -64 18 q-31 -4 -45 -44 q-14 -41 -21 -73 l13 0 q-1 2 10 18 q10 15 40 17 q29 -2 60 -18 q31 -16 65 -18 l0 0 ZM428 -10 q176 4 281 105 q104 102 107 255 q-3 153 -107 255 q-105 101 -281 105 q-175 -4 -280 -105 q-105 -102 -108 -255 q3 -153 108 -255 q105 -101 280 -105 l0 0 ZM428 35 q-128 4 -180 94 q-53 90 -51 221 q-2 130 51 220 q52 89 180 93 q129 -4 180 -93 q52 -90 50 -220 q2 -131 -50 -221 q-51 -90 -180 -94 l0 0 Z" /><glyph glyph-name="" unicode="&#x152;" d="M989 205 q-9 -83 -30 -122 q-21 -38 -90 -38 l-91 0 q-35 -1 -52 13 q-17 14 -17 54 l0 234 l96 0 q55 3 75 -13 q19 -17 24 -92 l35 0 l0 274 l-35 0 q-4 -75 -24 -92 q-21 -16 -75 -13 l-96 0 l0 178 q0 40 17 54 q17 14 52 13 l76 0 q67 1 90 -35 q24 -36 30 -117 l36 0 l0 197 l-398 0 q-37 -1 -79 4 q-41 5 -80 6 q-175 -4 -280 -105 q-105 -102 -108 -255 q3 -153 108 -255 q105 -101 280 -105 q51 0 97 10 l474 0 l0 205 l-35 0 ZM442 35 q-122 9 -173 98 q-51 90 -49 217 q-2 129 51 219 q53 89 179 94 q28 -1 64 -1 q36 -1 55 -3 q0 -159 1 -303 q0 -144 0 -303 q-8 -2 -43 -9 q-36 -7 -85 -9 l0 0 Z" /><glyph glyph-name="" unicode="P" d="M30 0 l370 0 l0 36 q-49 -2 -82 10 q-33 12 -34 66 l0 216 q7 -3 29 -9 q23 -6 61 -7 q116 0 193 55 q76 56 79 163 q-2 89 -72 130 q-69 41 -175 40 l-369 0 l0 -34 q49 2 82 -10 q33 -13 34 -66 l0 -478 q-1 -52 -34 -65 q-33 -13 -82 -11 l0 -36 ZM377 358 q-27 0 -48 5 q-22 6 -45 14 l0 218 q0 29 16 48 q15 18 45 19 l32 0 q73 -1 98 -37 q26 -36 24 -100 q3 -77 -20 -121 q-23 -45 -102 -46 l0 0 Z" /><glyph glyph-name="" unicode="Þ" d="M30 0 l370 0 l0 36 q-49 -2 -82 10 q-33 12 -34 66 l0 56 q18 -3 41 -4 q23 -1 53 -1 q125 2 195 60 q70 57 71 144 q-2 89 -67 130 q-65 41 -166 40 l-127 0 l0 51 q1 52 34 65 q33 13 82 11 l0 36 l-370 0 l0 -36 q49 2 82 -10 q33 -12 34 -66 l0 -476 q-1 -52 -34 -65 q-33 -13 -82 -11 l0 -36 ZM358 208 q-16 0 -34 2 q-19 2 -40 5 l0 277 l77 0 q73 0 105 -33 q32 -34 31 -97 q1 -69 -29 -111 q-31 -42 -110 -43 l0 0 Z" /><glyph glyph-name="" unicode="Q" d="M714 -219 l0 40 l-171 183 q127 36 199 129 q72 93 73 217 q-3 153 -107 255 q-104 101 -280 105 q-175 -4 -280 -105 q-105 -102 -108 -255 q2 -141 92 -239 q90 -98 241 -118 l341 -212 ZM428 35 q-129 4 -181 94 q-52 90 -50 221 q-2 130 50 220 q52 89 181 93 q129 -4 181 -93 q53 -90 51 -220 q2 -131 -51 -221 q-52 -90 -181 -94 l0 0 Z" /><glyph glyph-name="" unicode="R" d="M631 97 q-43 67 -93 143 q-50 75 -72 109 q99 22 140 76 q40 54 39 119 q0 82 -63 119 q-63 38 -183 37 l-369 0 l0 -36 q49 2 82 -10 q33 -13 34 -66 l0 -476 q-1 -52 -34 -65 q-33 -13 -82 -11 l0 -36 l370 0 l0 36 q-49 -2 -82 10 q-33 12 -34 66 l0 243 q3 -2 11 -4 q8 -2 19 -4 l213 -347 l212 0 l0 38 q-30 -1 -58 13 q-28 13 -50 46 l0 0 ZM284 595 q0 29 16 48 q15 18 45 19 l12 0 q1 0 1 0 l19 0 q61 -1 91 -33 q30 -32 30 -90 q0 -69 -27 -111 q-28 -42 -88 -43 q-18 0 -46 5 q-29 6 -53 14 l0 191 Z" /><glyph glyph-name="" unicode="&#x154;" d="M516 930 l-117 0 l-57 -178 l24 0 l150 178 ZM631 97 q-43 67 -93 143 q-50 75 -72 109 q99 22 140 76 q40 54 39 119 q0 82 -63 119 q-63 38 -183 37 l-369 0 l0 -36 q49 2 82 -10 q33 -13 34 -66 l0 -476 q-1 -52 -34 -65 q-33 -13 -82 -11 l0 -36 l370 0 l0 36 q-49 -2 -82 10 q-33 12 -34 66 l0 243 q3 -2 11 -4 q8 -2 19 -4 l213 -347 l212 0 l0 38 q-30 -1 -58 13 q-28 13 -50 46 l0 0 ZM284 595 q0 29 16 48 q15 18 45 19 l12 0 q1 0 1 0 l19 0 q61 -1 91 -33 q30 -32 30 -90 q0 -69 -27 -111 q-28 -42 -88 -43 q-18 0 -46 5 q-29 6 -53 14 l0 191 Z" /><glyph glyph-name="" unicode="&#x158;" d="M413 768 l100 149 l-24 0 l-110 -77 l-111 77 l-23 0 l100 -149 l68 0 ZM631 97 q-43 67 -93 143 q-50 75 -72 109 q99 22 140 76 q40 54 39 119 q0 82 -63 119 q-63 38 -183 37 l-369 0 l0 -36 q49 2 82 -10 q33 -13 34 -66 l0 -476 q-1 -52 -34 -65 q-33 -13 -82 -11 l0 -36 l370 0 l0 36 q-49 -2 -82 10 q-33 12 -34 66 l0 243 q3 -2 11 -4 q8 -2 19 -4 l213 -347 l212 0 l0 38 q-30 -1 -58 13 q-28 13 -50 46 l0 0 ZM284 595 q0 29 16 48 q15 18 45 19 l12 0 q1 0 1 0 l19 0 q61 -1 91 -33 q30 -32 30 -90 q0 -69 -27 -111 q-28 -42 -88 -43 q-18 0 -46 5 q-29 6 -53 14 l0 191 Z" /><glyph glyph-name="" unicode="&#x156;" d="M631 97 q-43 67 -93 143 q-50 75 -72 109 q99 22 140 76 q40 54 39 119 q0 82 -63 119 q-63 38 -183 37 l-369 0 l0 -36 q49 2 82 -10 q33 -13 34 -66 l0 -476 q-1 -52 -34 -65 q-33 -13 -82 -11 l0 -36 l370 0 l0 36 q-49 -2 -82 10 q-33 12 -34 66 l0 243 q3 -2 11 -4 q8 -2 19 -4 l213 -347 l212 0 l0 38 q-30 -1 -58 13 q-28 13 -50 46 l0 0 ZM284 595 q0 29 16 48 q15 18 45 19 l12 0 q1 0 1 0 l19 0 q61 -1 91 -33 q30 -32 30 -90 q0 -69 -27 -111 q-28 -42 -88 -43 q-18 0 -46 5 q-29 6 -53 14 l0 191 ZM295 -229 l10 0 l144 184 l-106 12 l-48 -196 Z" /><glyph glyph-name="" unicode="S" d="M261 -10 q115 -1 184 46 q68 47 72 162 q1 59 -27 99 q-28 40 -75 68 q-50 30 -93 54 q-43 24 -86 48 q-41 23 -66 49 q-24 25 -25 54 q-1 40 26 67 q27 26 87 27 q67 1 110 -38 q43 -38 53 -123 l36 0 l0 183 q-6 2 -70 13 q-63 11 -113 11 q-104 1 -166 -41 q-62 -41 -63 -143 q1 -47 28 -86 q27 -38 73 -65 q46 -26 94 -53 q48 -27 100 -58 q34 -20 55 -45 q21 -25 22 -61 q1 -56 -35 -88 q-36 -33 -117 -34 q-78 -4 -127 27 q-48 31 -54 148 l-37 0 l0 -190 q4 -2 70 -16 q66 -14 144 -15 l0 0 Z" /><glyph glyph-name="" unicode="&#x15a;" d="M258 752 l24 0 l150 178 l-117 0 l-57 -178 ZM261 -10 q115 -1 184 46 q68 47 72 162 q1 59 -27 99 q-28 40 -75 68 q-50 30 -93 54 q-43 24 -86 48 q-41 23 -66 49 q-24 25 -25 54 q-1 40 26 67 q27 26 87 27 q67 1 110 -38 q43 -38 53 -123 l36 0 l0 183 q-6 2 -70 13 q-63 11 -113 11 q-104 1 -166 -41 q-62 -41 -63 -143 q1 -47 28 -86 q27 -38 73 -65 q46 -26 94 -53 q48 -27 100 -58 q34 -20 55 -45 q21 -25 22 -61 q1 -56 -35 -88 q-36 -33 -117 -34 q-78 -4 -127 27 q-48 31 -54 148 l-37 0 l0 -190 q4 -2 70 -16 q66 -14 144 -15 l0 0 Z" /><glyph glyph-name="" unicode="&#x160;" d="M261 768 l68 0 l100 149 l-24 0 l-110 -77 l-111 77 l-23 0 l100 -149 ZM261 -10 q115 -1 184 46 q68 47 72 162 q1 59 -27 99 q-28 40 -75 68 q-50 30 -93 54 q-43 24 -86 48 q-41 23 -66 49 q-24 25 -25 54 q-1 40 26 67 q27 26 87 27 q67 1 110 -38 q43 -38 53 -123 l36 0 l0 183 q-6 2 -70 13 q-63 11 -113 11 q-104 1 -166 -41 q-62 -41 -63 -143 q1 -47 28 -86 q27 -38 73 -65 q46 -26 94 -53 q48 -27 100 -58 q34 -20 55 -45 q21 -25 22 -61 q1 -56 -35 -88 q-36 -33 -117 -34 q-78 -4 -127 27 q-48 31 -54 148 l-37 0 l0 -190 q4 -2 70 -16 q66 -14 144 -15 l0 0 Z" /><glyph glyph-name="" unicode="&#x15e;" d="M415 365 q-50 30 -93 54 q-43 24 -86 48 q-41 23 -66 49 q-24 25 -25 54 q-1 40 26 67 q27 26 87 27 q67 1 110 -38 q43 -38 53 -123 l36 0 l0 183 q-6 2 -70 13 q-63 11 -113 11 q-104 1 -166 -41 q-62 -41 -63 -143 q1 -47 28 -86 q27 -38 73 -65 q46 -26 94 -53 q48 -27 100 -58 q34 -20 55 -45 q21 -25 22 -61 q1 -56 -35 -88 q-36 -33 -117 -34 q-78 -4 -127 27 q-48 31 -54 148 l-37 0 l0 -190 q3 -1 58 -13 q56 -12 127 -17 l-50 -80 q37 -1 57 -13 q21 -11 21 -34 q0 -22 -10 -35 q-10 -14 -25 -14 q-19 1 -32 8 q-14 6 -15 7 l0 -14 q1 -1 28 -10 q26 -10 63 -11 q38 0 58 17 q20 16 20 44 q0 31 -25 48 q-25 16 -74 18 l-14 -2 l11 70 l16 0 q115 -1 184 46 q68 47 72 162 q1 59 -27 99 q-28 40 -75 68 l0 0 Z" /><glyph glyph-name="" unicode="&#x218;" d="M261 -10 q115 -1 184 46 q68 47 72 162 q1 59 -27 99 q-28 40 -75 68 q-50 30 -93 54 q-43 24 -86 48 q-41 23 -66 49 q-24 25 -25 54 q-1 40 26 67 q27 26 87 27 q67 1 110 -38 q43 -38 53 -123 l36 0 l0 183 q-6 2 -70 13 q-63 11 -113 11 q-104 1 -166 -41 q-62 -41 -63 -143 q1 -47 28 -86 q27 -38 73 -65 q46 -26 94 -53 q48 -27 100 -58 q34 -20 55 -45 q21 -25 22 -61 q1 -56 -35 -88 q-36 -33 -117 -34 q-78 -4 -127 27 q-48 31 -54 148 l-37 0 l0 -190 q4 -2 70 -16 q66 -14 144 -15 l0 0 ZM137 -233 l10 0 l144 184 l-106 12 l-48 -196 Z" /><glyph glyph-name="" unicode="T" d="M151 0 l369 0 l0 36 q-49 -2 -82 12 q-33 13 -34 64 l0 543 l70 0 q81 -1 101 -42 q19 -41 19 -110 l34 0 l0 197 l-586 0 l0 -197 l36 0 q0 69 21 110 q20 41 99 42 l69 0 l0 -543 q-1 -52 -34 -65 q-33 -13 -82 -11 l0 -36 Z" /><glyph glyph-name="" unicode="&#x166;" d="M196 796 l266 0 l0 36 l-266 0 l0 -36 ZM151 0 l369 0 l0 36 q-49 -2 -82 12 q-33 13 -34 64 l0 543 l70 0 q81 -1 101 -42 q19 -41 19 -110 l34 0 l0 197 l-586 0 l0 -197 l36 0 q0 69 21 110 q20 41 99 42 l69 0 l0 -543 q-1 -52 -34 -65 q-33 -13 -82 -11 l0 -36 Z" /><glyph glyph-name="" unicode="&#x164;" d="M319 768 l68 0 l100 149 l-24 0 l-110 -77 l-111 77 l-23 0 l100 -149 ZM151 0 l369 0 l0 36 q-49 -2 -82 12 q-33 13 -34 64 l0 543 l70 0 q81 -1 101 -42 q19 -41 19 -110 l34 0 l0 197 l-586 0 l0 -197 l36 0 q0 69 21 110 q20 41 99 42 l69 0 l0 -543 q-1 -52 -34 -65 q-33 -13 -82 -11 l0 -36 Z" /><glyph glyph-name="" unicode="&#x162;" d="M42 700 l0 -197 l36 0 q0 69 21 110 q20 41 99 42 l69 0 l0 -543 q-1 -52 -34 -65 q-33 -13 -82 -11 l0 -36 l184 0 l-49 -79 q37 -1 57 -13 q21 -11 21 -34 q0 -22 -10 -35 q-10 -14 -25 -14 q-19 1 -32 8 q-14 6 -15 7 l0 -14 q1 -1 28 -10 q26 -10 63 -11 q38 0 58 17 q20 16 20 44 q0 31 -25 48 q-25 16 -74 18 l-14 -2 l11 70 l171 0 l0 36 q-49 -2 -82 12 q-33 13 -34 64 l0 543 l70 0 q81 -1 101 -42 q19 -41 19 -110 l34 0 l0 197 l-586 0 Z" /><glyph glyph-name="" unicode="&#x21a;" d="M151 0 l369 0 l0 36 q-49 -2 -82 12 q-33 13 -34 64 l0 543 l70 0 q81 -1 101 -42 q19 -41 19 -110 l34 0 l0 197 l-586 0 l0 -197 l36 0 q0 69 21 110 q20 41 99 42 l69 0 l0 -543 q-1 -52 -34 -65 q-33 -13 -82 -11 l0 -36 ZM241 -223 l10 0 l144 184 l-106 12 l-48 -196 Z" /><glyph glyph-name="" unicode="U" d="M413 -10 q183 3 232 85 q50 81 43 201 l0 311 q0 48 24 63 q25 15 74 14 l0 36 l-249 0 l0 -36 q53 1 78 -16 q24 -16 24 -61 l0 -315 q3 -119 -37 -178 q-41 -59 -161 -59 q-115 3 -146 74 q-31 72 -27 180 l0 299 q1 52 35 65 q33 13 83 11 l0 36 l-371 0 l0 -36 q49 2 82 -10 q33 -13 34 -66 l0 -324 q-5 -125 51 -198 q55 -74 231 -76 l0 0 Z" /><glyph glyph-name="" unicode="Ú" d="M435 752 l24 0 l150 178 l-117 0 l-57 -178 ZM413 -10 q183 3 232 85 q50 81 43 201 l0 311 q0 48 24 63 q25 15 74 14 l0 36 l-249 0 l0 -36 q53 1 78 -16 q24 -16 24 -61 l0 -315 q3 -119 -37 -178 q-41 -59 -161 -59 q-115 3 -146 74 q-31 72 -27 180 l0 299 q1 52 35 65 q33 13 83 11 l0 36 l-371 0 l0 -36 q49 2 82 -10 q33 -13 34 -66 l0 -324 q-5 -125 51 -198 q55 -74 231 -76 l0 0 Z" /><glyph glyph-name="" unicode="&#x1d3;" d="M438 768 l68 0 l100 149 l-24 0 l-110 -77 l-111 77 l-23 0 l100 -149 ZM413 -10 q183 3 232 85 q50 81 43 201 l0 311 q0 48 24 63 q25 15 74 14 l0 36 l-249 0 l0 -36 q53 1 78 -16 q24 -16 24 -61 l0 -315 q3 -119 -37 -178 q-41 -59 -161 -59 q-115 3 -146 74 q-31 72 -27 180 l0 299 q1 52 35 65 q33 13 83 11 l0 36 l-371 0 l0 -36 q49 2 82 -10 q33 -13 34 -66 l0 -324 q-5 -125 51 -198 q55 -74 231 -76 l0 0 Z" /><glyph glyph-name="" unicode="Û" d="M327 743 l38 0 l96 86 l96 -86 l38 0 l-100 145 l-68 0 l-100 -145 ZM413 -10 q183 3 232 85 q50 81 43 201 l0 311 q0 48 24 63 q25 15 74 14 l0 36 l-249 0 l0 -36 q53 1 78 -16 q24 -16 24 -61 l0 -315 q3 -119 -37 -178 q-41 -59 -161 -59 q-115 3 -146 74 q-31 72 -27 180 l0 299 q1 52 35 65 q33 13 83 11 l0 36 l-371 0 l0 -36 q49 2 82 -10 q33 -13 34 -66 l0 -324 q-5 -125 51 -198 q55 -74 231 -76 l0 0 Z" /><glyph glyph-name="" unicode="Ü" d="M363 766 q27 1 45 18 q17 18 18 42 q-1 26 -18 44 q-18 18 -45 19 q-26 -1 -41 -19 q-16 -18 -16 -44 q0 -24 16 -42 q15 -17 41 -18 l0 0 ZM556 766 q27 1 45 18 q18 18 19 42 q-1 26 -19 44 q-18 18 -45 19 q-25 -1 -40 -19 q-16 -18 -16 -44 q0 -24 16 -42 q15 -17 40 -18 l0 0 ZM413 -10 q183 3 232 85 q50 81 43 201 l0 311 q0 48 24 63 q25 15 74 14 l0 36 l-249 0 l0 -36 q53 1 78 -16 q24 -16 24 -61 l0 -315 q3 -119 -37 -178 q-41 -59 -161 -59 q-115 3 -146 74 q-31 72 -27 180 l0 299 q1 52 35 65 q33 13 83 11 l0 36 l-371 0 l0 -36 q49 2 82 -10 q33 -13 34 -66 l0 -324 q-5 -125 51 -198 q55 -74 231 -76 l0 0 Z" /><glyph glyph-name="" unicode="&#x1d7;" d="M428 894 l24 0 l150 178 l-117 0 l-57 -178 ZM353 766 q27 1 45 18 q17 18 18 42 q-1 26 -18 44 q-18 18 -45 19 q-26 -1 -41 -19 q-16 -18 -16 -44 q0 -24 16 -42 q15 -17 41 -18 l0 0 ZM546 766 q27 1 45 18 q18 18 19 42 q-1 26 -19 44 q-18 18 -45 19 q-25 -1 -40 -19 q-16 -18 -16 -44 q0 -24 16 -42 q15 -17 40 -18 l0 0 ZM413 -10 q183 3 232 85 q50 81 43 201 l0 311 q0 48 24 63 q25 15 74 14 l0 36 l-249 0 l0 -36 q53 1 78 -16 q24 -16 24 -61 l0 -315 q3 -119 -37 -178 q-41 -59 -161 -59 q-115 3 -146 74 q-31 72 -27 180 l0 299 q1 52 35 65 q33 13 83 11 l0 36 l-371 0 l0 -36 q49 2 82 -10 q33 -13 34 -66 l0 -324 q-5 -125 51 -198 q55 -74 231 -76 l0 0 Z" /><glyph glyph-name="" unicode="&#x1d9;" d="M423 910 l68 0 l100 149 l-24 0 l-110 -77 l-111 77 l-23 0 l100 -149 ZM353 766 q27 1 45 18 q17 18 18 42 q-1 26 -18 44 q-18 18 -45 19 q-26 -1 -41 -19 q-16 -18 -16 -44 q0 -24 16 -42 q15 -17 41 -18 l0 0 ZM546 766 q27 1 45 18 q18 18 19 42 q-1 26 -19 44 q-18 18 -45 19 q-25 -1 -40 -19 q-16 -18 -16 -44 q0 -24 16 -42 q15 -17 40 -18 l0 0 ZM413 -10 q183 3 232 85 q50 81 43 201 l0 311 q0 48 24 63 q25 15 74 14 l0 36 l-249 0 l0 -36 q53 1 78 -16 q24 -16 24 -61 l0 -315 q3 -119 -37 -178 q-41 -59 -161 -59 q-115 3 -146 74 q-31 72 -27 180 l0 299 q1 52 35 65 q33 13 83 11 l0 36 l-371 0 l0 -36 q49 2 82 -10 q33 -13 34 -66 l0 -324 q-5 -125 51 -198 q55 -74 231 -76 l0 0 Z" /><glyph glyph-name="" unicode="&#x1db;" d="M454 893 l38 0 l-59 176 l-115 0 l136 -176 ZM353 766 q27 1 45 18 q17 18 18 42 q-1 26 -18 44 q-18 18 -45 19 q-26 -1 -41 -19 q-16 -18 -16 -44 q0 -24 16 -42 q15 -17 41 -18 l0 0 ZM546 766 q27 1 45 18 q18 18 19 42 q-1 26 -19 44 q-18 18 -45 19 q-25 -1 -40 -19 q-16 -18 -16 -44 q0 -24 16 -42 q15 -17 40 -18 l0 0 ZM413 -10 q183 3 232 85 q50 81 43 201 l0 311 q0 48 24 63 q25 15 74 14 l0 36 l-249 0 l0 -36 q53 1 78 -16 q24 -16 24 -61 l0 -315 q3 -119 -37 -178 q-41 -59 -161 -59 q-115 3 -146 74 q-31 72 -27 180 l0 299 q1 52 35 65 q33 13 83 11 l0 36 l-371 0 l0 -36 q49 2 82 -10 q33 -13 34 -66 l0 -324 q-5 -125 51 -198 q55 -74 231 -76 l0 0 Z" /><glyph glyph-name="" unicode="&#x1d5;" d="M317 938 l266 0 l0 36 l-266 0 l0 -36 ZM353 766 q27 1 45 18 q17 18 18 42 q-1 26 -18 44 q-18 18 -45 19 q-26 -1 -41 -19 q-16 -18 -16 -44 q0 -24 16 -42 q15 -17 41 -18 l0 0 ZM546 766 q27 1 45 18 q18 18 19 42 q-1 26 -19 44 q-18 18 -45 19 q-25 -1 -40 -19 q-16 -18 -16 -44 q0 -24 16 -42 q15 -17 40 -18 l0 0 ZM413 -10 q183 3 232 85 q50 81 43 201 l0 311 q0 48 24 63 q25 15 74 14 l0 36 l-249 0 l0 -36 q53 1 78 -16 q24 -16 24 -61 l0 -315 q3 -119 -37 -178 q-41 -59 -161 -59 q-115 3 -146 74 q-31 72 -27 180 l0 299 q1 52 35 65 q33 13 83 11 l0 36 l-371 0 l0 -36 q49 2 82 -10 q33 -13 34 -66 l0 -324 q-5 -125 51 -198 q55 -74 231 -76 l0 0 Z" /><glyph glyph-name="" unicode="&#x1ee4;" d="M413 -10 q183 3 232 85 q50 81 43 201 l0 311 q0 48 24 63 q25 15 74 14 l0 36 l-249 0 l0 -36 q53 1 78 -16 q24 -16 24 -61 l0 -315 q3 -119 -37 -178 q-41 -59 -161 -59 q-115 3 -146 74 q-31 72 -27 180 l0 299 q1 52 35 65 q33 13 83 11 l0 36 l-371 0 l0 -36 q49 2 82 -10 q33 -13 34 -66 l0 -324 q-5 -125 51 -198 q55 -74 231 -76 l0 0 ZM431 -200 q28 1 47 20 q19 19 20 47 q-1 27 -20 45 q-19 18 -47 19 q-28 -1 -47 -19 q-19 -18 -20 -45 q1 -28 20 -47 q19 -19 47 -20 l0 0 Z" /><glyph glyph-name="" unicode="Ù" d="M456 752 l38 0 l-59 176 l-115 0 l136 -176 ZM413 -10 q183 3 232 85 q50 81 43 201 l0 311 q0 48 24 63 q25 15 74 14 l0 36 l-249 0 l0 -36 q53 1 78 -16 q24 -16 24 -61 l0 -315 q3 -119 -37 -178 q-41 -59 -161 -59 q-115 3 -146 74 q-31 72 -27 180 l0 299 q1 52 35 65 q33 13 83 11 l0 36 l-371 0 l0 -36 q49 2 82 -10 q33 -13 34 -66 l0 -324 q-5 -125 51 -198 q55 -74 231 -76 l0 0 Z" /><glyph glyph-name="" unicode="&#x1ee6;" d="M450 740 q19 6 56 42 q38 35 42 78 q0 29 -22 50 q-21 20 -62 21 q-55 -5 -85 -43 q-31 -38 -31 -43 l4 -5 q7 7 26 18 q19 10 43 11 q31 -2 42 -20 q12 -19 11 -36 q-1 -25 -10 -42 q-10 -16 -19 -26 l5 -5 ZM413 -10 q183 3 232 85 q50 81 43 201 l0 311 q0 48 24 63 q25 15 74 14 l0 36 l-249 0 l0 -36 q53 1 78 -16 q24 -16 24 -61 l0 -315 q3 -119 -37 -178 q-41 -59 -161 -59 q-115 3 -146 74 q-31 72 -27 180 l0 299 q1 52 35 65 q33 13 83 11 l0 36 l-371 0 l0 -36 q49 2 82 -10 q33 -13 34 -66 l0 -324 q-5 -125 51 -198 q55 -74 231 -76 l0 0 Z" /><glyph glyph-name="" unicode="&#x170;" d="M368 752 l24 0 l150 178 l-117 0 l-57 -178 ZM521 752 l24 0 l150 178 l-117 0 l-57 -178 ZM413 -10 q183 3 232 85 q50 81 43 201 l0 311 q0 48 24 63 q25 15 74 14 l0 36 l-249 0 l0 -36 q53 1 78 -16 q24 -16 24 -61 l0 -315 q3 -119 -37 -178 q-41 -59 -161 -59 q-115 3 -146 74 q-31 72 -27 180 l0 299 q1 52 35 65 q33 13 83 11 l0 36 l-371 0 l0 -36 q49 2 82 -10 q33 -13 34 -66 l0 -324 q-5 -125 51 -198 q55 -74 231 -76 l0 0 Z" /><glyph glyph-name="" unicode="&#x16a;" d="M315 796 l266 0 l0 36 l-266 0 l0 -36 ZM413 -10 q183 3 232 85 q50 81 43 201 l0 311 q0 48 24 63 q25 15 74 14 l0 36 l-249 0 l0 -36 q53 1 78 -16 q24 -16 24 -61 l0 -315 q3 -119 -37 -178 q-41 -59 -161 -59 q-115 3 -146 74 q-31 72 -27 180 l0 299 q1 52 35 65 q33 13 83 11 l0 36 l-371 0 l0 -36 q49 2 82 -10 q33 -13 34 -66 l0 -324 q-5 -125 51 -198 q55 -74 231 -76 l0 0 Z" /><glyph glyph-name="" unicode="&#x172;" d="M537 700 l0 -36 q53 1 78 -16 q24 -16 24 -61 l0 -315 q3 -119 -37 -178 q-41 -59 -161 -59 q-115 3 -146 74 q-31 72 -27 180 l0 299 q1 52 35 65 q33 13 83 11 l0 36 l-371 0 l0 -36 q49 2 82 -10 q33 -13 34 -66 l0 -324 q-5 -125 50 -198 q56 -74 230 -76 q-32 -26 -54 -53 q-22 -27 -23 -53 q1 -28 18 -41 q18 -14 45 -14 q48 1 80 11 q33 9 34 10 l0 22 q-1 0 -14 0 q-14 -1 -33 -1 q-18 0 -26 12 q-7 11 -6 29 q0 15 7 36 q7 20 19 43 q153 14 194 93 q41 80 36 192 l0 311 q0 48 24 63 q25 15 74 14 l0 36 l-249 0 Z" /><glyph glyph-name="" unicode="&#x16e;" d="M452 753 q44 1 73 23 q29 22 30 53 q-1 34 -30 57 q-29 22 -73 23 q-44 -1 -73 -23 q-29 -23 -30 -57 q1 -31 30 -53 q29 -22 73 -23 l0 0 ZM452 796 q-15 0 -25 10 q-10 10 -10 24 q0 14 10 24 q10 10 25 10 q15 0 26 -10 q10 -10 10 -24 q0 -14 -10 -24 q-11 -10 -26 -10 l0 0 ZM413 -10 q183 3 232 85 q50 81 43 201 l0 311 q0 48 24 63 q25 15 74 14 l0 36 l-249 0 l0 -36 q53 1 78 -16 q24 -16 24 -61 l0 -315 q3 -119 -37 -178 q-41 -59 -161 -59 q-115 3 -146 74 q-31 72 -27 180 l0 299 q1 52 35 65 q33 13 83 11 l0 36 l-371 0 l0 -36 q49 2 82 -10 q33 -13 34 -66 l0 -324 q-5 -125 51 -198 q55 -74 231 -76 l0 0 Z" /><glyph glyph-name="" unicode="&#x168;" d="M507 764 q31 4 46 44 q15 41 20 73 l-13 0 q1 -2 -10 -17 q-10 -16 -40 -18 q-32 2 -61 18 q-29 16 -64 18 q-31 -4 -45 -44 q-14 -41 -21 -73 l13 0 q-1 2 10 18 q10 15 40 17 q29 -2 60 -18 q31 -16 65 -18 l0 0 ZM413 -10 q183 3 232 85 q50 81 43 201 l0 311 q0 48 24 63 q25 15 74 14 l0 36 l-249 0 l0 -36 q53 1 78 -16 q24 -16 24 -61 l0 -315 q3 -119 -37 -178 q-41 -59 -161 -59 q-115 3 -146 74 q-31 72 -27 180 l0 299 q1 52 35 65 q33 13 83 11 l0 36 l-371 0 l0 -36 q49 2 82 -10 q33 -13 34 -66 l0 -324 q-5 -125 51 -198 q55 -74 231 -76 l0 0 Z" /><glyph glyph-name="" unicode="V" d="M310 -14 l65 0 q11 30 97 270 q85 239 115 323 q18 52 44 69 q27 17 73 16 l0 36 l-263 0 l0 -36 l54 0 q33 0 45 -17 q11 -17 -1 -51 l-150 -427 q-7 21 -60 190 q-54 168 -76 237 q-15 48 14 59 q28 11 77 9 l26 0 l0 36 l-380 0 l0 -36 q55 1 75 -16 q19 -17 35 -69 l210 -593 Z" /><glyph glyph-name="" unicode="W" d="M302 -14 l55 0 l165 509 l191 -509 l68 0 l155 593 q14 52 42 69 q28 17 76 16 l0 36 l-263 0 l0 -36 l47 0 q32 0 45 -17 q13 -17 5 -51 q-31 -131 -48 -194 q-18 -64 -57 -209 l-193 521 l-59 0 l-152 -491 q-6 17 -52 163 q-46 145 -64 210 q-11 48 16 59 q27 11 75 9 l26 0 l0 36 l-380 0 l0 -36 q60 1 82 -16 q23 -17 37 -69 l183 -593 Z" /><glyph glyph-name="" unicode="&#x1e82;" d="M553 751 l24 0 l150 178 l-117 0 l-57 -178 ZM302 -14 l55 0 l165 509 l191 -509 l68 0 l155 593 q14 52 42 69 q28 17 76 16 l0 36 l-263 0 l0 -36 l47 0 q32 0 45 -17 q13 -17 5 -51 q-31 -131 -48 -194 q-18 -64 -57 -209 l-193 521 l-59 0 l-152 -491 q-6 17 -52 163 q-46 145 -64 210 q-11 48 16 59 q27 11 75 9 l26 0 l0 36 l-380 0 l0 -36 q60 1 82 -16 q23 -17 37 -69 l183 -593 Z" /><glyph glyph-name="" unicode="&#x174;" d="M445 742 l38 0 l96 86 l96 -86 l38 0 l-100 145 l-68 0 l-100 -145 ZM302 -14 l55 0 l165 509 l191 -509 l68 0 l155 593 q14 52 42 69 q28 17 76 16 l0 36 l-263 0 l0 -36 l47 0 q32 0 45 -17 q13 -17 5 -51 q-31 -131 -48 -194 q-18 -64 -57 -209 l-193 521 l-59 0 l-152 -491 q-6 17 -52 163 q-46 145 -64 210 q-11 48 16 59 q27 11 75 9 l26 0 l0 36 l-380 0 l0 -36 q60 1 82 -16 q23 -17 37 -69 l183 -593 Z" /><glyph glyph-name="" unicode="&#x1e84;" d="M481 765 q27 1 45 18 q17 18 18 42 q-1 26 -18 44 q-18 18 -45 19 q-26 -1 -41 -19 q-16 -18 -16 -44 q0 -24 16 -42 q15 -17 41 -18 l0 0 ZM674 765 q27 1 45 18 q18 18 19 42 q-1 26 -19 44 q-18 18 -45 19 q-25 -1 -40 -19 q-16 -18 -16 -44 q0 -24 16 -42 q15 -17 40 -18 l0 0 ZM302 -14 l55 0 l165 509 l191 -509 l68 0 l155 593 q14 52 42 69 q28 17 76 16 l0 36 l-263 0 l0 -36 l47 0 q32 0 45 -17 q13 -17 5 -51 q-31 -131 -48 -194 q-18 -64 -57 -209 l-193 521 l-59 0 l-152 -491 q-6 17 -52 163 q-46 145 -64 210 q-11 48 16 59 q27 11 75 9 l26 0 l0 36 l-380 0 l0 -36 q60 1 82 -16 q23 -17 37 -69 l183 -593 Z" /><glyph glyph-name="" unicode="&#x1e80;" d="M574 751 l38 0 l-59 176 l-115 0 l136 -176 ZM302 -14 l55 0 l165 509 l191 -509 l68 0 l155 593 q14 52 42 69 q28 17 76 16 l0 36 l-263 0 l0 -36 l47 0 q32 0 45 -17 q13 -17 5 -51 q-31 -131 -48 -194 q-18 -64 -57 -209 l-193 521 l-59 0 l-152 -491 q-6 17 -52 163 q-46 145 -64 210 q-11 48 16 59 q27 11 75 9 l26 0 l0 36 l-380 0 l0 -36 q60 1 82 -16 q23 -17 37 -69 l183 -593 Z" /><glyph glyph-name="" unicode="X" d="M649 95 q-72 107 -121 179 q-49 72 -100 152 q26 37 53 73 q27 36 53 73 q28 46 52 69 q23 23 87 23 l0 36 l-248 0 q0 -3 0 -18 q0 -16 0 -18 l56 0 q34 0 38 -15 q4 -15 -18 -46 q-23 -33 -47 -65 q-24 -33 -50 -66 q-34 55 -52 83 q-18 28 -30 48 q-19 31 -10 46 q9 15 46 15 q8 0 24 0 q15 0 23 0 l0 36 l-370 0 l0 -36 q48 2 71 -10 q23 -11 52 -56 q43 -62 75 -110 q32 -49 72 -111 q-59 -91 -105 -162 q-46 -71 -58 -87 q-31 -44 -59 -68 q-29 -24 -93 -24 l0 -36 l260 0 q0 3 0 18 q0 16 0 18 l-26 0 q-43 0 -55 15 q-12 15 8 46 q25 39 66 102 q40 62 95 141 q50 -83 91 -146 q40 -63 61 -97 q19 -31 3 -46 q-17 -15 -70 -15 q-2 0 -13 0 q-12 0 -14 0 l0 -36 l386 0 l0 36 q-53 -2 -79 7 q-27 10 -54 52 l0 0 Z" /><glyph glyph-name="" unicode="Y" d="M136 0 l370 0 l0 35 q-49 -2 -82 10 q-33 12 -34 63 l0 222 q43 77 80 139 q38 63 62 103 q25 47 49 70 q25 22 88 22 l0 36 l-246 0 l0 -36 l56 0 q25 0 29 -15 q3 -15 -15 -46 q-21 -37 -48 -84 q-27 -47 -86 -143 q-49 82 -84 138 q-35 55 -55 89 q-19 31 -10 46 q10 15 47 15 l57 0 l0 36 l-384 0 l0 -36 q53 2 79 -8 q26 -10 55 -51 q22 -30 73 -105 q51 -75 115 -175 l0 -217 q-1 -49 -34 -62 q-33 -13 -82 -11 l0 -35 Z" /><glyph glyph-name="" unicode="Ý" d="M313 752 l24 0 l150 178 l-117 0 l-57 -178 ZM136 0 l370 0 l0 35 q-49 -2 -82 10 q-33 12 -34 63 l0 222 q43 77 80 139 q38 63 62 103 q25 47 49 70 q25 22 88 22 l0 36 l-246 0 l0 -36 l56 0 q25 0 29 -15 q3 -15 -15 -46 q-21 -37 -48 -84 q-27 -47 -86 -143 q-49 82 -84 138 q-35 55 -55 89 q-19 31 -10 46 q10 15 47 15 l57 0 l0 36 l-384 0 l0 -36 q53 2 79 -8 q26 -10 55 -51 q22 -30 73 -105 q51 -75 115 -175 l0 -217 q-1 -49 -34 -62 q-33 -13 -82 -11 l0 -35 Z" /><glyph glyph-name="" unicode="&#x176;" d="M205 743 l38 0 l96 86 l96 -86 l38 0 l-100 145 l-68 0 l-100 -145 ZM136 0 l370 0 l0 35 q-49 -2 -82 10 q-33 12 -34 63 l0 222 q43 77 80 139 q38 63 62 103 q25 47 49 70 q25 22 88 22 l0 36 l-246 0 l0 -36 l56 0 q25 0 29 -15 q3 -15 -15 -46 q-21 -37 -48 -84 q-27 -47 -86 -143 q-49 82 -84 138 q-35 55 -55 89 q-19 31 -10 46 q10 15 47 15 l57 0 l0 36 l-384 0 l0 -36 q53 2 79 -8 q26 -10 55 -51 q22 -30 73 -105 q51 -75 115 -175 l0 -217 q-1 -49 -34 -62 q-33 -13 -82 -11 l0 -35 Z" /><glyph glyph-name="" unicode="&#x178;" d="M241 766 q27 1 45 18 q17 18 18 42 q-1 26 -18 44 q-18 18 -45 19 q-26 -1 -41 -19 q-16 -18 -16 -44 q0 -24 16 -42 q15 -17 41 -18 l0 0 ZM434 766 q27 1 45 18 q18 18 19 42 q-1 26 -19 44 q-18 18 -45 19 q-25 -1 -40 -19 q-16 -18 -16 -44 q0 -24 16 -42 q15 -17 40 -18 l0 0 ZM136 0 l370 0 l0 35 q-49 -2 -82 10 q-33 12 -34 63 l0 222 q43 77 80 139 q38 63 62 103 q25 47 49 70 q25 22 88 22 l0 36 l-246 0 l0 -36 l56 0 q25 0 29 -15 q3 -15 -15 -46 q-21 -37 -48 -84 q-27 -47 -86 -143 q-49 82 -84 138 q-35 55 -55 89 q-19 31 -10 46 q10 15 47 15 l57 0 l0 36 l-384 0 l0 -36 q53 2 79 -8 q26 -10 55 -51 q22 -30 73 -105 q51 -75 115 -175 l0 -217 q-1 -49 -34 -62 q-33 -13 -82 -11 l0 -35 Z" /><glyph glyph-name="" unicode="&#x1ef4;" d="M136 0 l370 0 l0 35 q-49 -2 -82 10 q-33 12 -34 63 l0 222 q43 77 80 139 q38 63 62 103 q25 47 49 70 q25 22 88 22 l0 36 l-246 0 l0 -36 l56 0 q25 0 29 -15 q3 -15 -15 -46 q-21 -37 -48 -84 q-27 -47 -86 -143 q-49 82 -84 138 q-35 55 -55 89 q-19 31 -10 46 q10 15 47 15 l57 0 l0 36 l-384 0 l0 -36 q53 2 79 -8 q26 -10 55 -51 q22 -30 73 -105 q51 -75 115 -175 l0 -217 q-1 -49 -34 -62 q-33 -13 -82 -11 l0 -35 ZM327 -200 q28 1 47 20 q19 19 20 47 q-1 27 -20 45 q-19 18 -47 19 q-28 -1 -47 -19 q-19 -18 -20 -45 q1 -28 20 -47 q19 -19 47 -20 l0 0 Z" /><glyph glyph-name="" unicode="&#x1ef2;" d="M334 752 l38 0 l-59 176 l-115 0 l136 -176 ZM136 0 l370 0 l0 35 q-49 -2 -82 10 q-33 12 -34 63 l0 222 q43 77 80 139 q38 63 62 103 q25 47 49 70 q25 22 88 22 l0 36 l-246 0 l0 -36 l56 0 q25 0 29 -15 q3 -15 -15 -46 q-21 -37 -48 -84 q-27 -47 -86 -143 q-49 82 -84 138 q-35 55 -55 89 q-19 31 -10 46 q10 15 47 15 l57 0 l0 36 l-384 0 l0 -36 q53 2 79 -8 q26 -10 55 -51 q22 -30 73 -105 q51 -75 115 -175 l0 -217 q-1 -49 -34 -62 q-33 -13 -82 -11 l0 -35 Z" /><glyph glyph-name="" unicode="&#x1ef6;" d="M328 740 q19 6 56 42 q38 35 42 78 q0 29 -22 50 q-21 20 -62 21 q-55 -5 -85 -43 q-31 -38 -31 -43 l4 -5 q7 7 26 18 q19 10 43 11 q31 -2 42 -20 q12 -19 11 -36 q-1 -25 -10 -42 q-10 -16 -19 -26 l5 -5 ZM136 0 l370 0 l0 35 q-49 -2 -82 10 q-33 12 -34 63 l0 222 q43 77 80 139 q38 63 62 103 q25 47 49 70 q25 22 88 22 l0 36 l-246 0 l0 -36 l56 0 q25 0 29 -15 q3 -15 -15 -46 q-21 -37 -48 -84 q-27 -47 -86 -143 q-49 82 -84 138 q-35 55 -55 89 q-19 31 -10 46 q10 15 47 15 l57 0 l0 36 l-384 0 l0 -36 q53 2 79 -8 q26 -10 55 -51 q22 -30 73 -105 q51 -75 115 -175 l0 -217 q-1 -49 -34 -62 q-33 -13 -82 -11 l0 -35 Z" /><glyph glyph-name="" unicode="&#x1ef8;" d="M385 764 q31 4 46 44 q15 41 20 73 l-13 0 q1 -2 -10 -17 q-10 -16 -40 -18 q-32 2 -61 18 q-29 16 -64 18 q-31 -4 -45 -44 q-14 -41 -21 -73 l13 0 q-1 2 10 18 q10 15 40 17 q29 -2 60 -18 q31 -16 65 -18 l0 0 ZM136 0 l370 0 l0 35 q-49 -2 -82 10 q-33 12 -34 63 l0 222 q43 77 80 139 q38 63 62 103 q25 47 49 70 q25 22 88 22 l0 36 l-246 0 l0 -36 l56 0 q25 0 29 -15 q3 -15 -15 -46 q-21 -37 -48 -84 q-27 -47 -86 -143 q-49 82 -84 138 q-35 55 -55 89 q-19 31 -10 46 q10 15 47 15 l57 0 l0 36 l-384 0 l0 -36 q53 2 79 -8 q26 -10 55 -51 q22 -30 73 -105 q51 -75 115 -175 l0 -217 q-1 -49 -34 -62 q-33 -13 -82 -11 l0 -35 Z" /><glyph glyph-name="" unicode="Z" d="M50 0 l564 0 l0 225 l-36 0 q-8 -97 -29 -139 q-21 -42 -91 -41 l-230 0 l410 639 l0 16 l-534 0 l0 -197 l36 0 q6 81 30 117 q23 36 90 35 l200 0 l-410 -637 l0 -18 Z" /><glyph glyph-name="" unicode="&#x179;" d="M344 752 l24 0 l150 178 l-117 0 l-57 -178 ZM50 0 l564 0 l0 225 l-36 0 q-8 -97 -29 -139 q-21 -42 -91 -41 l-230 0 l410 639 l0 16 l-534 0 l0 -197 l36 0 q6 81 30 117 q23 36 90 35 l200 0 l-410 -637 l0 -18 Z" /><glyph glyph-name="" unicode="&#x17d;" d="M347 768 l68 0 l100 149 l-24 0 l-110 -77 l-111 77 l-23 0 l100 -149 ZM50 0 l564 0 l0 225 l-36 0 q-8 -97 -29 -139 q-21 -42 -91 -41 l-230 0 l410 639 l0 16 l-534 0 l0 -197 l36 0 q6 81 30 117 q23 36 90 35 l200 0 l-410 -637 l0 -18 Z" /><glyph glyph-name="" unicode="&#x17b;" d="M372 757 q28 1 47 20 q19 19 20 47 q-1 27 -20 45 q-19 18 -47 19 q-28 -1 -47 -19 q-19 -18 -20 -45 q1 -28 20 -47 q19 -19 47 -20 l0 0 ZM50 0 l564 0 l0 225 l-36 0 q-8 -97 -29 -139 q-21 -42 -91 -41 l-230 0 l410 639 l0 16 l-534 0 l0 -197 l36 0 q6 81 30 117 q23 36 90 35 l200 0 l-410 -637 l0 -18 Z" /><glyph glyph-name="" unicode="a" d="M146 -8 q37 -1 79 17 q43 18 67 67 l0 -76 l206 0 l0 36 q-42 -2 -63 13 q-21 15 -21 69 l0 194 q-2 64 -50 91 q-49 27 -116 26 q-88 -2 -142 -16 q-54 -15 -55 -17 l30 -121 l33 0 q-2 50 22 80 q23 30 75 31 q38 0 55 -27 q16 -28 16 -83 l0 -41 q-108 0 -174 -36 q-66 -36 -68 -106 q1 -46 29 -73 q28 -27 77 -28 l0 0 ZM215 57 q-24 0 -37 14 q-13 14 -13 42 q1 44 35 65 q34 21 85 21 l0 -68 q-9 -28 -27 -50 q-17 -23 -43 -24 l0 0 Z" /><glyph glyph-name="" unicode="á" d="M230 479 l24 0 l150 178 l-117 0 l-57 -178 ZM146 -8 q37 -1 79 17 q43 18 67 67 l0 -76 l206 0 l0 36 q-42 -2 -63 13 q-21 15 -21 69 l0 194 q-2 64 -50 91 q-49 27 -116 26 q-88 -2 -142 -16 q-54 -15 -55 -17 l30 -121 l33 0 q-2 50 22 80 q23 30 75 31 q38 0 55 -27 q16 -28 16 -83 l0 -41 q-108 0 -174 -36 q-66 -36 -68 -106 q1 -46 29 -73 q28 -27 77 -28 l0 0 ZM215 57 q-24 0 -37 14 q-13 14 -13 42 q1 44 35 65 q34 21 85 21 l0 -68 q-9 -28 -27 -50 q-17 -23 -43 -24 l0 0 Z" /><glyph glyph-name="" unicode="&#x103;" d="M247 482 q87 9 114 69 q27 60 24 69 l-8 0 q2 -3 -26 -23 q-29 -21 -105 -24 q-76 3 -104 24 q-28 20 -26 23 l-7 0 q-3 -9 24 -69 q26 -60 114 -69 l0 0 ZM146 -8 q37 -1 79 17 q43 18 67 67 l0 -76 l206 0 l0 36 q-42 -2 -63 13 q-21 15 -21 69 l0 194 q-2 64 -50 91 q-49 27 -116 26 q-88 -2 -142 -16 q-54 -15 -55 -17 l30 -121 l33 0 q-2 50 22 80 q23 30 75 31 q38 0 55 -27 q16 -28 16 -83 l0 -41 q-108 0 -174 -36 q-66 -36 -68 -106 q1 -46 29 -73 q28 -27 77 -28 l0 0 ZM215 57 q-24 0 -37 14 q-13 14 -13 42 q1 44 35 65 q34 21 85 21 l0 -68 q-9 -28 -27 -50 q-17 -23 -43 -24 l0 0 Z" /><glyph glyph-name="" unicode="&#x1eb7;" d="M247 482 q87 9 114 69 q27 60 24 69 l-8 0 q2 -3 -26 -23 q-29 -21 -105 -24 q-76 3 -104 24 q-28 20 -26 23 l-7 0 q-3 -9 24 -69 q26 -60 114 -69 l0 0 ZM146 -8 q37 -1 79 17 q43 18 67 67 l0 -76 l206 0 l0 36 q-42 -2 -63 13 q-21 15 -21 69 l0 194 q-2 64 -50 91 q-49 27 -116 26 q-88 -2 -142 -16 q-54 -15 -55 -17 l30 -121 l33 0 q-2 50 22 80 q23 30 75 31 q38 0 55 -27 q16 -28 16 -83 l0 -41 q-108 0 -174 -36 q-66 -36 -68 -106 q1 -46 29 -73 q28 -27 77 -28 l0 0 ZM215 57 q-24 0 -37 14 q-13 14 -13 42 q1 44 35 65 q34 21 85 21 l0 -68 q-9 -28 -27 -50 q-17 -23 -43 -24 l0 0 ZM233 -200 q28 1 47 20 q19 19 20 47 q-1 27 -20 45 q-19 18 -47 19 q-28 -1 -47 -19 q-19 -18 -20 -45 q1 -28 20 -47 q19 -19 47 -20 l0 0 Z" /><glyph glyph-name="" unicode="&#x1ce;" d="M233 495 l68 0 l100 149 l-24 0 l-110 -77 l-111 77 l-23 0 l100 -149 ZM146 -8 q37 -1 79 17 q43 18 67 67 l0 -76 l206 0 l0 36 q-42 -2 -63 13 q-21 15 -21 69 l0 194 q-2 64 -50 91 q-49 27 -116 26 q-88 -2 -142 -16 q-54 -15 -55 -17 l30 -121 l33 0 q-2 50 22 80 q23 30 75 31 q38 0 55 -27 q16 -28 16 -83 l0 -41 q-108 0 -174 -36 q-66 -36 -68 -106 q1 -46 29 -73 q28 -27 77 -28 l0 0 ZM215 57 q-24 0 -37 14 q-13 14 -13 42 q1 44 35 65 q34 21 85 21 l0 -68 q-9 -28 -27 -50 q-17 -23 -43 -24 l0 0 Z" /><glyph glyph-name="" unicode="â" d="M122 470 l38 0 l96 86 l96 -86 l38 0 l-100 145 l-68 0 l-100 -145 ZM146 -8 q37 -1 79 17 q43 18 67 67 l0 -76 l206 0 l0 36 q-42 -2 -63 13 q-21 15 -21 69 l0 194 q-2 64 -50 91 q-49 27 -116 26 q-88 -2 -142 -16 q-54 -15 -55 -17 l30 -121 l33 0 q-2 50 22 80 q23 30 75 31 q38 0 55 -27 q16 -28 16 -83 l0 -41 q-108 0 -174 -36 q-66 -36 -68 -106 q1 -46 29 -73 q28 -27 77 -28 l0 0 ZM215 57 q-24 0 -37 14 q-13 14 -13 42 q1 44 35 65 q34 21 85 21 l0 -68 q-9 -28 -27 -50 q-17 -23 -43 -24 l0 0 Z" /><glyph glyph-name="" unicode="&#x1ead;" d="M122 470 l38 0 l96 86 l96 -86 l38 0 l-100 145 l-68 0 l-100 -145 ZM146 -8 q37 -1 79 17 q43 18 67 67 l0 -76 l206 0 l0 36 q-42 -2 -63 13 q-21 15 -21 69 l0 194 q-2 64 -50 91 q-49 27 -116 26 q-88 -2 -142 -16 q-54 -15 -55 -17 l30 -121 l33 0 q-2 50 22 80 q23 30 75 31 q38 0 55 -27 q16 -28 16 -83 l0 -41 q-108 0 -174 -36 q-66 -36 -68 -106 q1 -46 29 -73 q28 -27 77 -28 l0 0 ZM215 57 q-24 0 -37 14 q-13 14 -13 42 q1 44 35 65 q34 21 85 21 l0 -68 q-9 -28 -27 -50 q-17 -23 -43 -24 l0 0 ZM233 -200 q28 1 47 20 q19 19 20 47 q-1 27 -20 45 q-19 18 -47 19 q-28 -1 -47 -19 q-19 -18 -20 -45 q1 -28 20 -47 q19 -19 47 -20 l0 0 Z" /><glyph glyph-name="" unicode="ä" d="M158 493 q27 1 45 18 q17 18 18 42 q-1 26 -18 44 q-18 18 -45 19 q-26 -1 -41 -19 q-16 -18 -16 -44 q0 -24 16 -42 q15 -17 41 -18 l0 0 ZM351 493 q27 1 45 18 q18 18 19 42 q-1 26 -19 44 q-18 18 -45 19 q-25 -1 -40 -19 q-16 -18 -16 -44 q0 -24 16 -42 q15 -17 40 -18 l0 0 ZM146 -8 q37 -1 79 17 q43 18 67 67 l0 -76 l206 0 l0 36 q-42 -2 -63 13 q-21 15 -21 69 l0 194 q-2 64 -50 91 q-49 27 -116 26 q-88 -2 -142 -16 q-54 -15 -55 -17 l30 -121 l33 0 q-2 50 22 80 q23 30 75 31 q38 0 55 -27 q16 -28 16 -83 l0 -41 q-108 0 -174 -36 q-66 -36 -68 -106 q1 -46 29 -73 q28 -27 77 -28 l0 0 ZM215 57 q-24 0 -37 14 q-13 14 -13 42 q1 44 35 65 q34 21 85 21 l0 -68 q-9 -28 -27 -50 q-17 -23 -43 -24 l0 0 Z" /><glyph glyph-name="" unicode="&#x1ea1;" d="M146 -8 q37 -1 79 17 q43 18 67 67 l0 -76 l206 0 l0 36 q-42 -2 -63 13 q-21 15 -21 69 l0 194 q-2 64 -50 91 q-49 27 -116 26 q-88 -2 -142 -16 q-54 -15 -55 -17 l30 -121 l33 0 q-2 50 22 80 q23 30 75 31 q38 0 55 -27 q16 -28 16 -83 l0 -41 q-108 0 -174 -36 q-66 -36 -68 -106 q1 -46 29 -73 q28 -27 77 -28 l0 0 ZM215 57 q-24 0 -37 14 q-13 14 -13 42 q1 44 35 65 q34 21 85 21 l0 -68 q-9 -28 -27 -50 q-17 -23 -43 -24 l0 0 ZM233 -200 q28 1 47 20 q19 19 20 47 q-1 27 -20 45 q-19 18 -47 19 q-28 -1 -47 -19 q-19 -18 -20 -45 q1 -28 20 -47 q19 -19 47 -20 l0 0 Z" /><glyph glyph-name="" unicode="à" d="M251 479 l38 0 l-59 176 l-115 0 l136 -176 ZM146 -8 q37 -1 79 17 q43 18 67 67 l0 -76 l206 0 l0 36 q-42 -2 -63 13 q-21 15 -21 69 l0 194 q-2 64 -50 91 q-49 27 -116 26 q-88 -2 -142 -16 q-54 -15 -55 -17 l30 -121 l33 0 q-2 50 22 80 q23 30 75 31 q38 0 55 -27 q16 -28 16 -83 l0 -41 q-108 0 -174 -36 q-66 -36 -68 -106 q1 -46 29 -73 q28 -27 77 -28 l0 0 ZM215 57 q-24 0 -37 14 q-13 14 -13 42 q1 44 35 65 q34 21 85 21 l0 -68 q-9 -28 -27 -50 q-17 -23 -43 -24 l0 0 Z" /><glyph glyph-name="" unicode="&#x1ea3;" d="M245 467 q19 6 56 42 q38 35 42 78 q0 29 -22 50 q-21 20 -62 21 q-55 -5 -85 -43 q-31 -38 -31 -43 l4 -5 q7 7 26 18 q19 10 43 11 q31 -2 42 -20 q12 -19 11 -36 q-1 -25 -10 -42 q-10 -16 -19 -26 l5 -5 ZM146 -8 q37 -1 79 17 q43 18 67 67 l0 -76 l206 0 l0 36 q-42 -2 -63 13 q-21 15 -21 69 l0 194 q-2 64 -50 91 q-49 27 -116 26 q-88 -2 -142 -16 q-54 -15 -55 -17 l30 -121 l33 0 q-2 50 22 80 q23 30 75 31 q38 0 55 -27 q16 -28 16 -83 l0 -41 q-108 0 -174 -36 q-66 -36 -68 -106 q1 -46 29 -73 q28 -27 77 -28 l0 0 ZM215 57 q-24 0 -37 14 q-13 14 -13 42 q1 44 35 65 q34 21 85 21 l0 -68 q-9 -28 -27 -50 q-17 -23 -43 -24 l0 0 Z" /><glyph glyph-name="" unicode="&#x101;" d="M110 523 l266 0 l0 36 l-266 0 l0 -36 ZM146 -8 q37 -1 79 17 q43 18 67 67 l0 -76 l206 0 l0 36 q-42 -2 -63 13 q-21 15 -21 69 l0 194 q-2 64 -50 91 q-49 27 -116 26 q-88 -2 -142 -16 q-54 -15 -55 -17 l30 -121 l33 0 q-2 50 22 80 q23 30 75 31 q38 0 55 -27 q16 -28 16 -83 l0 -41 q-108 0 -174 -36 q-66 -36 -68 -106 q1 -46 29 -73 q28 -27 77 -28 l0 0 ZM215 57 q-24 0 -37 14 q-13 14 -13 42 q1 44 35 65 q34 21 85 21 l0 -68 q-9 -28 -27 -50 q-17 -23 -43 -24 l0 0 Z" /><glyph glyph-name="" unicode="&#x105;" d="M485 -146 q-18 0 -26 12 q-7 11 -6 29 q0 19 11 47 q11 28 29 58 l5 0 l0 36 q-42 -2 -63 13 q-21 15 -21 69 l0 194 q-2 64 -50 91 q-49 27 -116 26 q-88 -2 -142 -16 q-54 -15 -55 -17 l30 -121 l33 0 q-2 50 22 80 q23 30 75 31 q38 0 55 -27 q16 -28 16 -83 l0 -41 q-108 0 -174 -36 q-66 -36 -68 -106 q1 -46 29 -73 q28 -27 77 -28 q37 -1 79 17 q43 18 67 67 l0 -76 l175 0 q-42 -30 -76 -65 q-34 -35 -36 -68 q1 -28 18 -41 q18 -14 45 -14 q48 1 80 11 q33 9 34 10 l0 22 q-1 0 -14 0 q-14 -1 -33 -1 l0 0 ZM285 131 q-9 -28 -27 -50 q-17 -23 -43 -24 q-24 0 -37 14 q-13 14 -13 42 q1 44 35 65 q34 21 85 21 l0 -68 Z" /><glyph glyph-name="" unicode="å" d="M247 480 q44 1 73 23 q29 22 30 53 q-1 34 -30 57 q-29 22 -73 23 q-44 -1 -73 -23 q-29 -23 -30 -57 q1 -31 30 -53 q29 -22 73 -23 l0 0 ZM247 523 q-15 0 -25 10 q-10 10 -10 24 q0 14 10 24 q10 10 25 10 q15 0 26 -10 q10 -10 10 -24 q0 -14 -10 -24 q-11 -10 -26 -10 l0 0 ZM146 -8 q37 -1 79 17 q43 18 67 67 l0 -76 l206 0 l0 36 q-42 -2 -63 13 q-21 15 -21 69 l0 194 q-2 64 -50 91 q-49 27 -116 26 q-88 -2 -142 -16 q-54 -15 -55 -17 l30 -121 l33 0 q-2 50 22 80 q23 30 75 31 q38 0 55 -27 q16 -28 16 -83 l0 -41 q-108 0 -174 -36 q-66 -36 -68 -106 q1 -46 29 -73 q28 -27 77 -28 l0 0 ZM215 57 q-24 0 -37 14 q-13 14 -13 42 q1 44 35 65 q34 21 85 21 l0 -68 q-9 -28 -27 -50 q-17 -23 -43 -24 l0 0 Z" /><glyph glyph-name="" unicode="ã" d="M302 491 q31 4 46 44 q15 41 20 73 l-13 0 q1 -2 -10 -17 q-10 -16 -40 -18 q-32 2 -61 18 q-29 16 -64 18 q-31 -4 -45 -44 q-14 -41 -21 -73 l13 0 q-1 2 10 18 q10 15 40 17 q29 -2 60 -18 q31 -16 65 -18 l0 0 ZM146 -8 q37 -1 79 17 q43 18 67 67 l0 -76 l206 0 l0 36 q-42 -2 -63 13 q-21 15 -21 69 l0 194 q-2 64 -50 91 q-49 27 -116 26 q-88 -2 -142 -16 q-54 -15 -55 -17 l30 -121 l33 0 q-2 50 22 80 q23 30 75 31 q38 0 55 -27 q16 -28 16 -83 l0 -41 q-108 0 -174 -36 q-66 -36 -68 -106 q1 -46 29 -73 q28 -27 77 -28 l0 0 ZM215 57 q-24 0 -37 14 q-13 14 -13 42 q1 44 35 65 q34 21 85 21 l0 -68 q-9 -28 -27 -50 q-17 -23 -43 -24 l0 0 Z" /><glyph glyph-name="" unicode="æ" d="M146 -8 q56 -1 92 23 q37 24 74 82 q29 -52 84 -78 q55 -27 128 -27 q76 5 113 44 q37 38 37 43 l-7 36 q0 -4 -32 -34 q-33 -31 -99 -35 q-68 4 -95 57 q-28 53 -28 107 q0 5 1 11 q0 5 1 8 l263 0 l0 33 q3 47 -29 107 q-32 59 -137 64 q-34 0 -69 -9 q-35 -10 -64 -32 q-24 20 -58 29 q-34 8 -73 8 q-74 -2 -124 -16 q-51 -15 -53 -17 l30 -121 l33 0 q-1 50 19 80 q21 30 58 31 q38 0 55 -27 q16 -28 16 -83 l0 -41 q-108 0 -174 -36 q-66 -36 -68 -106 q1 -46 29 -73 q28 -27 77 -28 l0 0 ZM416 279 q5 42 22 77 q17 35 55 37 q58 -5 67 -47 q9 -43 7 -67 l-151 0 ZM215 57 q-24 0 -37 14 q-13 14 -13 42 q1 44 35 65 q34 21 85 21 l0 -68 q-9 -28 -27 -50 q-17 -23 -43 -24 l0 0 Z" /><glyph glyph-name="" unicode="b" d="M83 -28 l36 0 l89 78 q16 -25 48 -41 q31 -16 77 -17 q124 6 170 81 q46 75 43 148 q1 85 -52 146 q-52 60 -166 63 q-35 0 -65 -12 q-30 -12 -49 -31 l0 327 l-209 -19 l0 -35 q44 0 61 -12 q18 -13 17 -42 l0 -634 ZM319 33 q-31 -4 -66 28 q-35 32 -38 148 q1 101 27 141 q27 41 72 39 q59 -3 81 -52 q21 -50 20 -116 q1 -66 -19 -125 q-21 -59 -77 -63 l0 0 Z" /><glyph glyph-name="" unicode="c" d="M247 -8 q82 5 121 43 q39 38 39 43 l-6 35 q0 -4 -32 -33 q-32 -29 -97 -33 q-44 -1 -76 36 q-32 38 -34 129 q1 91 33 135 q32 45 78 45 q47 -1 67 -31 q19 -30 17 -80 l33 0 l30 121 q-2 2 -47 16 q-44 13 -110 15 q-94 0 -162 -53 q-68 -53 -71 -166 q4 -122 69 -173 q66 -51 148 -49 l0 0 Z" /><glyph glyph-name="" unicode="&#x107;" d="M203 479 l24 0 l150 178 l-117 0 l-57 -178 ZM247 -8 q82 5 121 43 q39 38 39 43 l-6 35 q0 -4 -32 -33 q-32 -29 -97 -33 q-44 -1 -76 36 q-32 38 -34 129 q1 91 33 135 q32 45 78 45 q47 -1 67 -31 q19 -30 17 -80 l33 0 l30 121 q-2 2 -47 16 q-44 13 -110 15 q-94 0 -162 -53 q-68 -53 -71 -166 q4 -122 69 -173 q66 -51 148 -49 l0 0 Z" /><glyph glyph-name="" unicode="&#x10d;" d="M206 495 l68 0 l100 149 l-24 0 l-110 -77 l-111 77 l-23 0 l100 -149 ZM247 -8 q82 5 121 43 q39 38 39 43 l-6 35 q0 -4 -32 -33 q-32 -29 -97 -33 q-44 -1 -76 36 q-32 38 -34 129 q1 91 33 135 q32 45 78 45 q47 -1 67 -31 q19 -30 17 -80 l33 0 l30 121 q-2 2 -47 16 q-44 13 -110 15 q-94 0 -162 -53 q-68 -53 -71 -166 q4 -122 69 -173 q66 -51 148 -49 l0 0 Z" /><glyph glyph-name="" unicode="ç" d="M272 47 q-44 -1 -76 36 q-32 38 -34 129 q1 91 33 135 q32 45 78 45 q47 -1 67 -31 q19 -30 17 -80 l33 0 l30 121 q-2 2 -47 16 q-44 13 -110 15 q-94 0 -162 -53 q-68 -53 -71 -166 q2 -107 54 -158 q51 -52 122 -61 l-50 -80 q37 -1 57 -13 q21 -11 21 -34 q0 -22 -10 -35 q-10 -14 -25 -14 q-19 1 -32 8 q-14 6 -15 7 l0 -14 q1 -1 28 -10 q26 -10 63 -11 q38 0 58 17 q20 16 20 44 q0 31 -25 48 q-25 16 -74 18 l-14 -2 l11 69 q7 -1 14 -1 q7 0 14 0 q82 5 121 43 q39 38 39 43 l-6 35 q0 -4 -32 -33 q-32 -29 -97 -33 l0 0 Z" /><glyph glyph-name="" unicode="&#x10b;" d="M231 484 q28 1 47 20 q19 19 20 47 q-1 27 -20 45 q-19 18 -47 19 q-28 -1 -47 -19 q-19 -18 -20 -45 q1 -28 20 -47 q19 -19 47 -20 l0 0 ZM247 -8 q82 5 121 43 q39 38 39 43 l-6 35 q0 -4 -32 -33 q-32 -29 -97 -33 q-44 -1 -76 36 q-32 38 -34 129 q1 91 33 135 q32 45 78 45 q47 -1 67 -31 q19 -30 17 -80 l33 0 l30 121 q-2 2 -47 16 q-44 13 -110 15 q-94 0 -162 -53 q-68 -53 -71 -166 q4 -122 69 -173 q66 -51 148 -49 l0 0 Z" /><glyph glyph-name="" unicode="d" d="M243 -8 q66 1 93 30 q26 30 37 72 l0 -94 l162 0 l0 38 q-29 -1 -36 8 q-7 10 -6 44 l0 624 l-210 -17 l0 -37 q44 0 61 -12 q18 -13 17 -42 l0 -219 q-20 19 -52 31 q-32 12 -66 12 q-101 -1 -157 -62 q-55 -61 -56 -171 q1 -97 56 -151 q56 -53 157 -54 l0 0 ZM256 33 q-55 3 -75 56 q-19 52 -18 118 q-2 65 17 122 q18 56 76 60 q48 2 77 -35 q28 -38 29 -142 q1 -65 -22 -120 q-24 -55 -84 -59 l0 0 Z" /><glyph glyph-name="" unicode="ð" d="M271 -8 q114 2 178 64 q64 62 65 155 q-3 136 -72 236 q-69 100 -162 164 l89 49 l-13 21 l-99 -53 q-53 34 -101 56 q-48 22 -82 32 l0 -37 q38 -14 71 -30 q33 -16 66 -45 l-96 -50 l12 -23 l103 55 q35 -34 67 -75 q33 -42 54 -94 q-10 2 -35 7 q-24 5 -45 6 q-112 -2 -176 -64 q-64 -62 -65 -155 q1 -93 65 -155 q64 -62 176 -64 l0 0 ZM271 35 q-56 2 -82 54 q-26 51 -26 122 q0 71 26 123 q26 51 82 53 q62 -2 88 -53 q26 -51 25 -123 q0 -72 -26 -123 q-27 -51 -87 -53 l0 0 Z" /><glyph glyph-name="" unicode="&#x10f;" d="M243 -8 q66 1 93 30 q26 30 37 72 l0 -94 l162 0 l0 38 q-29 -1 -36 8 q-7 10 -6 44 l0 624 l-210 -17 l0 -37 q44 0 61 -12 q18 -13 17 -42 l0 -219 q-20 19 -52 31 q-32 12 -66 12 q-101 -1 -157 -62 q-55 -61 -56 -171 q1 -97 56 -151 q56 -53 157 -54 l0 0 ZM529 482 q9 -1 69 24 q59 25 68 92 q-8 67 -66 92 q-58 25 -66 24 l-7 -5 q18 -20 30 -49 q12 -30 12 -62 q-1 -31 -14 -61 q-14 -29 -33 -50 l7 -5 ZM256 33 q-55 3 -75 56 q-19 52 -18 118 q-2 65 17 122 q18 56 76 60 q48 2 77 -35 q28 -38 29 -142 q1 -65 -22 -120 q-24 -55 -84 -59 l0 0 Z" /><glyph glyph-name="" unicode="&#x111;" d="M559 516 l0 58 l-66 0 l0 140 l-210 -17 l0 -37 q44 0 61 -12 q18 -13 17 -42 l0 -32 l-133 0 l0 -58 l133 0 l0 -129 q-20 19 -52 31 q-32 12 -66 12 q-101 -1 -157 -62 q-55 -61 -56 -171 q1 -97 56 -151 q56 -53 157 -54 q66 1 93 30 q26 30 37 72 l0 -94 l162 0 l0 38 q-29 -1 -36 8 q-7 10 -6 44 l0 426 l66 0 ZM256 33 q-55 3 -75 56 q-19 52 -18 118 q-2 65 17 122 q18 56 76 60 q48 2 77 -35 q28 -38 29 -142 q1 -65 -22 -120 q-24 -55 -84 -59 l0 0 Z" /><glyph glyph-name="" unicode="e" d="M453 229 l0 33 q2 47 -37 107 q-39 59 -149 64 q-110 -1 -173 -60 q-63 -59 -64 -163 q2 -107 73 -163 q71 -55 186 -55 q76 5 113 44 q37 38 37 43 l-7 36 q0 -4 -32 -34 q-33 -31 -99 -35 q-76 2 -109 50 q-33 47 -34 114 l0 19 l295 0 ZM264 393 q53 -4 66 -45 q13 -40 12 -69 l-179 0 q8 51 32 82 q24 31 69 32 l0 0 Z" /><glyph glyph-name="" unicode="é" d="M408 657 l-117 0 l-57 -178 l24 0 l150 178 ZM453 229 l0 33 q2 47 -37 107 q-39 59 -149 64 q-110 -1 -173 -60 q-63 -59 -64 -163 q2 -107 73 -163 q71 -55 186 -55 q76 5 113 44 q37 38 37 43 l-7 36 q0 -4 -32 -34 q-33 -31 -99 -35 q-76 2 -109 50 q-33 47 -34 114 l0 19 l295 0 ZM264 393 q53 -4 66 -45 q13 -40 12 -69 l-179 0 q8 51 32 82 q24 31 69 32 l0 0 Z" /><glyph glyph-name="" unicode="&#x11b;" d="M305 495 l100 149 l-24 0 l-110 -77 l-111 77 l-23 0 l100 -149 l68 0 ZM453 229 l0 33 q2 47 -37 107 q-39 59 -149 64 q-110 -1 -173 -60 q-63 -59 -64 -163 q2 -107 73 -163 q71 -55 186 -55 q76 5 113 44 q37 38 37 43 l-7 36 q0 -4 -32 -34 q-33 -31 -99 -35 q-76 2 -109 50 q-33 47 -34 114 l0 19 l295 0 ZM264 393 q53 -4 66 -45 q13 -40 12 -69 l-179 0 q8 51 32 82 q24 31 69 32 l0 0 Z" /><glyph glyph-name="" unicode="ê" d="M260 556 l96 -86 l38 0 l-100 145 l-68 0 l-100 -145 l38 0 l96 86 ZM453 229 l0 33 q2 47 -37 107 q-39 59 -149 64 q-110 -1 -173 -60 q-63 -59 -64 -163 q2 -107 73 -163 q71 -55 186 -55 q76 5 113 44 q37 38 37 43 l-7 36 q0 -4 -32 -34 q-33 -31 -99 -35 q-76 2 -109 50 q-33 47 -34 114 l0 19 l295 0 ZM264 393 q53 -4 66 -45 q13 -40 12 -69 l-179 0 q8 51 32 82 q24 31 69 32 l0 0 Z" /><glyph glyph-name="" unicode="&#x1ec7;" d="M260 556 l96 -86 l38 0 l-100 145 l-68 0 l-100 -145 l38 0 l96 86 ZM453 229 l0 33 q2 47 -37 107 q-39 59 -149 64 q-110 -1 -173 -60 q-63 -59 -64 -163 q2 -107 73 -163 q71 -55 186 -55 q76 5 113 44 q37 38 37 43 l-7 36 q0 -4 -32 -34 q-33 -31 -99 -35 q-76 2 -109 50 q-33 47 -34 114 l0 19 l295 0 ZM264 393 q53 -4 66 -45 q13 -40 12 -69 l-179 0 q8 51 32 82 q24 31 69 32 l0 0 ZM286 -69 q-28 -1 -47 -19 q-19 -18 -20 -45 q1 -28 20 -47 q19 -19 47 -20 q28 1 47 20 q19 19 20 47 q-1 27 -20 45 q-19 18 -47 19 l0 0 Z" /><glyph glyph-name="" unicode="ë" d="M162 493 q27 1 45 18 q17 18 18 42 q-1 26 -18 44 q-18 18 -45 19 q-26 -1 -41 -19 q-16 -18 -16 -44 q0 -24 16 -42 q15 -17 41 -18 l0 0 ZM355 493 q27 1 45 18 q18 18 19 42 q-1 26 -19 44 q-18 18 -45 19 q-25 -1 -40 -19 q-16 -18 -16 -44 q0 -24 16 -42 q15 -17 40 -18 l0 0 ZM453 229 l0 33 q2 47 -37 107 q-39 59 -149 64 q-110 -1 -173 -60 q-63 -59 -64 -163 q2 -107 73 -163 q71 -55 186 -55 q76 5 113 44 q37 38 37 43 l-7 36 q0 -4 -32 -34 q-33 -31 -99 -35 q-76 2 -109 50 q-33 47 -34 114 l0 19 l295 0 ZM264 393 q53 -4 66 -45 q13 -40 12 -69 l-179 0 q8 51 32 82 q24 31 69 32 l0 0 Z" /><glyph glyph-name="" unicode="&#x117;" d="M262 484 q28 1 47 20 q19 19 20 47 q-1 27 -20 45 q-19 18 -47 19 q-28 -1 -47 -19 q-19 -18 -20 -45 q1 -28 20 -47 q19 -19 47 -20 l0 0 ZM453 229 l0 33 q2 47 -37 107 q-39 59 -149 64 q-110 -1 -173 -60 q-63 -59 -64 -163 q2 -107 73 -163 q71 -55 186 -55 q76 5 113 44 q37 38 37 43 l-7 36 q0 -4 -32 -34 q-33 -31 -99 -35 q-76 2 -109 50 q-33 47 -34 114 l0 19 l295 0 ZM264 393 q53 -4 66 -45 q13 -40 12 -69 l-179 0 q8 51 32 82 q24 31 69 32 l0 0 Z" /><glyph glyph-name="" unicode="&#x1eb9;" d="M453 229 l0 33 q2 47 -37 107 q-39 59 -149 64 q-110 -1 -173 -60 q-63 -59 -64 -163 q2 -107 73 -163 q71 -55 186 -55 q76 5 113 44 q37 38 37 43 l-7 36 q0 -4 -32 -34 q-33 -31 -99 -35 q-76 2 -109 50 q-33 47 -34 114 l0 19 l295 0 ZM264 393 q53 -4 66 -45 q13 -40 12 -69 l-179 0 q8 51 32 82 q24 31 69 32 l0 0 ZM286 -69 q-28 -1 -47 -19 q-19 -18 -20 -45 q1 -28 20 -47 q19 -19 47 -20 q28 1 47 20 q19 19 20 47 q-1 27 -20 45 q-19 18 -47 19 l0 0 Z" /><glyph glyph-name="" unicode="è" d="M293 479 l-59 176 l-115 0 l136 -176 l38 0 ZM453 229 l0 33 q2 47 -37 107 q-39 59 -149 64 q-110 -1 -173 -60 q-63 -59 -64 -163 q2 -107 73 -163 q71 -55 186 -55 q76 5 113 44 q37 38 37 43 l-7 36 q0 -4 -32 -34 q-33 -31 -99 -35 q-76 2 -109 50 q-33 47 -34 114 l0 19 l295 0 ZM264 393 q53 -4 66 -45 q13 -40 12 -69 l-179 0 q8 51 32 82 q24 31 69 32 l0 0 Z" /><glyph glyph-name="" unicode="&#x1ebb;" d="M220 596 q31 -2 42 -20 q12 -19 11 -36 q-1 -25 -10 -42 q-10 -16 -19 -26 l5 -5 q19 6 56 42 q38 35 42 78 q0 29 -22 50 q-21 20 -62 21 q-55 -5 -85 -43 q-31 -38 -31 -43 l4 -5 q7 7 26 18 q19 10 43 11 l0 0 ZM453 229 l0 33 q2 47 -37 107 q-39 59 -149 64 q-110 -1 -173 -60 q-63 -59 -64 -163 q2 -107 73 -163 q71 -55 186 -55 q76 5 113 44 q37 38 37 43 l-7 36 q0 -4 -32 -34 q-33 -31 -99 -35 q-76 2 -109 50 q-33 47 -34 114 l0 19 l295 0 ZM264 393 q53 -4 66 -45 q13 -40 12 -69 l-179 0 q8 51 32 82 q24 31 69 32 l0 0 Z" /><glyph glyph-name="" unicode="&#x113;" d="M380 559 l-266 0 l0 -36 l266 0 l0 36 ZM453 229 l0 33 q2 47 -37 107 q-39 59 -149 64 q-110 -1 -173 -60 q-63 -59 -64 -163 q2 -107 73 -163 q71 -55 186 -55 q76 5 113 44 q37 38 37 43 l-7 36 q0 -4 -32 -34 q-33 -31 -99 -35 q-76 2 -109 50 q-33 47 -34 114 l0 19 l295 0 ZM264 393 q53 -4 66 -45 q13 -40 12 -69 l-179 0 q8 51 32 82 q24 31 69 32 l0 0 Z" /><glyph glyph-name="" unicode="&#x119;" d="M426 -67 q-18 0 -26 12 q-7 11 -6 29 q0 15 7 36 q7 20 19 43 q10 11 14 19 q5 7 5 7 l-1 6 q0 1 1 1 q0 0 0 1 l-2 0 l-5 28 q0 -4 -32 -34 q-33 -31 -99 -35 q-76 2 -109 50 q-33 47 -34 114 l0 19 l295 0 l0 33 q2 47 -37 107 q-39 59 -149 64 q-110 -1 -173 -60 q-63 -59 -64 -163 q2 -107 73 -163 q71 -55 186 -55 q14 0 26 2 q-9 -12 -14 -24 q-5 -13 -5 -24 q1 -28 18 -41 q18 -14 45 -14 q48 1 80 11 q33 9 34 10 l0 22 q-1 0 -14 0 q-14 -1 -33 -1 l0 0 ZM264 393 q53 -4 66 -45 q13 -40 12 -69 l-179 0 q8 51 32 82 q24 31 69 32 l0 0 Z" /><glyph glyph-name="" unicode="&#x1ebd;" d="M181 527 q29 -2 60 -18 q31 -16 65 -18 q31 4 46 44 q15 41 20 73 l-13 0 q1 -2 -10 -17 q-10 -16 -40 -18 q-32 2 -61 18 q-29 16 -64 18 q-31 -4 -45 -44 q-14 -41 -21 -73 l13 0 q-1 2 10 18 q10 15 40 17 l0 0 ZM453 229 l0 33 q2 47 -37 107 q-39 59 -149 64 q-110 -1 -173 -60 q-63 -59 -64 -163 q2 -107 73 -163 q71 -55 186 -55 q76 5 113 44 q37 38 37 43 l-7 36 q0 -4 -32 -34 q-33 -31 -99 -35 q-76 2 -109 50 q-33 47 -34 114 l0 19 l295 0 ZM264 393 q53 -4 66 -45 q13 -40 12 -69 l-179 0 q8 51 32 82 q24 31 69 32 l0 0 Z" /><glyph glyph-name="" unicode="f" d="M30 0 l313 0 l0 38 q-51 -1 -74 10 q-24 11 -24 44 l0 270 l143 0 l0 52 l-143 0 l0 164 q-1 35 20 63 q20 28 71 30 q40 -1 58 -31 q18 -30 16 -80 l33 0 l30 121 q1 2 -26 17 q-27 14 -98 16 q-116 -4 -175 -83 q-60 -79 -60 -187 l0 -30 l-80 0 l0 -52 l80 0 l0 -272 q-1 -34 -27 -44 q-25 -9 -57 -8 l0 -38 Z" /><glyph glyph-name="" unicode="g" d="M305 15 q-35 -1 -60 -5 q-25 -4 -33 -5 q-19 30 2 75 q21 45 71 55 q86 0 139 35 q53 35 54 105 q-1 39 -18 68 q-18 30 -46 47 l86 -10 l0 54 q-58 -1 -114 0 q-57 0 -115 0 q-87 1 -146 -37 q-60 -39 -62 -122 q2 -68 42 -101 q40 -33 99 -46 l-114 -91 l75 -38 q-66 -18 -100 -52 q-35 -35 -35 -82 q2 -68 66 -101 q64 -32 165 -32 q103 1 187 42 q83 42 88 117 q-2 71 -66 98 q-64 27 -165 26 l0 0 ZM192 284 q-1 32 17 69 q17 37 62 40 q45 -3 62 -40 q18 -37 17 -69 q1 -34 -17 -70 q-17 -36 -62 -39 q-45 3 -62 39 q-18 36 -17 70 l0 0 ZM275 -227 q-66 3 -92 35 q-26 32 -25 63 q-1 37 27 69 q28 32 102 34 q65 -2 93 -33 q28 -31 27 -61 q2 -34 -25 -69 q-27 -35 -107 -38 l0 0 Z" /><glyph glyph-name="" unicode="&#x11f;" d="M268 482 q87 9 114 69 q27 60 24 69 l-8 0 q2 -3 -26 -23 q-29 -21 -105 -24 q-76 3 -104 24 q-28 20 -26 23 l-7 0 q-3 -9 24 -69 q26 -60 114 -69 l0 0 ZM305 15 q-35 -1 -60 -5 q-25 -4 -33 -5 q-19 30 2 75 q21 45 71 55 q86 0 139 35 q53 35 54 105 q-1 39 -18 68 q-18 30 -46 47 l86 -10 l0 54 q-58 -1 -114 0 q-57 0 -115 0 q-87 1 -146 -37 q-60 -39 -62 -122 q2 -68 42 -101 q40 -33 99 -46 l-114 -91 l75 -38 q-66 -18 -100 -52 q-35 -35 -35 -82 q2 -68 66 -101 q64 -32 165 -32 q103 1 187 42 q83 42 88 117 q-2 71 -66 98 q-64 27 -165 26 l0 0 ZM192 284 q-1 32 17 69 q17 37 62 40 q45 -3 62 -40 q18 -37 17 -69 q1 -34 -17 -70 q-17 -36 -62 -39 q-45 3 -62 39 q-18 36 -17 70 l0 0 ZM275 -227 q-66 3 -92 35 q-26 32 -25 63 q-1 37 27 69 q28 32 102 34 q65 -2 93 -33 q28 -31 27 -61 q2 -34 -25 -69 q-27 -35 -107 -38 l0 0 Z" /><glyph glyph-name="" unicode="&#x123;" d="M425 657 l-117 0 l-57 -178 l24 0 l150 178 ZM305 15 q-35 -1 -60 -5 q-25 -4 -33 -5 q-19 30 2 75 q21 45 71 55 q86 0 139 35 q53 35 54 105 q-1 39 -18 68 q-18 30 -46 47 l86 -10 l0 54 q-58 -1 -114 0 q-57 0 -115 0 q-87 1 -146 -37 q-60 -39 -62 -122 q2 -68 42 -101 q40 -33 99 -46 l-114 -91 l75 -38 q-66 -18 -100 -52 q-35 -35 -35 -82 q2 -68 66 -101 q64 -32 165 -32 q103 1 187 42 q83 42 88 117 q-2 71 -66 98 q-64 27 -165 26 l0 0 ZM192 284 q-1 32 17 69 q17 37 62 40 q45 -3 62 -40 q18 -37 17 -69 q1 -34 -17 -70 q-17 -36 -62 -39 q-45 3 -62 39 q-18 36 -17 70 l0 0 ZM275 -227 q-66 3 -92 35 q-26 32 -25 63 q-1 37 27 69 q28 32 102 34 q65 -2 93 -33 q28 -31 27 -61 q2 -34 -25 -69 q-27 -35 -107 -38 l0 0 Z" /><glyph glyph-name="" unicode="&#x121;" d="M279 484 q28 1 47 20 q19 19 20 47 q-1 27 -20 45 q-19 18 -47 19 q-28 -1 -47 -19 q-19 -18 -20 -45 q1 -28 20 -47 q19 -19 47 -20 l0 0 ZM305 15 q-35 -1 -60 -5 q-25 -4 -33 -5 q-19 30 2 75 q21 45 71 55 q86 0 139 35 q53 35 54 105 q-1 39 -18 68 q-18 30 -46 47 l86 -10 l0 54 q-58 -1 -114 0 q-57 0 -115 0 q-87 1 -146 -37 q-60 -39 -62 -122 q2 -68 42 -101 q40 -33 99 -46 l-114 -91 l75 -38 q-66 -18 -100 -52 q-35 -35 -35 -82 q2 -68 66 -101 q64 -32 165 -32 q103 1 187 42 q83 42 88 117 q-2 71 -66 98 q-64 27 -165 26 l0 0 ZM192 284 q-1 32 17 69 q17 37 62 40 q45 -3 62 -40 q18 -37 17 -69 q1 -34 -17 -70 q-17 -36 -62 -39 q-45 3 -62 39 q-18 36 -17 70 l0 0 ZM275 -227 q-66 3 -92 35 q-26 32 -25 63 q-1 37 27 69 q28 32 102 34 q65 -2 93 -33 q28 -31 27 -61 q2 -34 -25 -69 q-27 -35 -107 -38 l0 0 Z" /><glyph glyph-name="" unicode="h" d="M10 0 l272 0 l0 36 q-30 -1 -44 10 q-13 11 -13 44 l0 193 q6 17 38 57 q32 40 79 45 q18 0 26 -12 q7 -11 7 -33 l0 -250 q0 -36 -12 -45 q-13 -10 -44 -9 l0 -36 l271 0 l0 36 q-33 -1 -58 10 q-25 11 -26 44 l0 236 q0 49 -27 78 q-28 28 -88 29 q-57 0 -98 -21 q-41 -20 -69 -63 l0 365 l-208 -19 l0 -35 q44 0 61 -12 q18 -13 17 -42 l0 -516 q-1 -36 -26 -45 q-25 -10 -58 -9 l0 -36 Z" /><glyph glyph-name="" unicode="&#x127;" d="M27 0 l272 0 l0 36 q-30 -1 -44 10 q-13 11 -13 44 l0 193 q6 17 38 57 q32 40 79 45 q18 0 26 -12 q7 -11 7 -33 l0 -250 q0 -36 -12 -45 q-13 -10 -44 -9 l0 -36 l271 0 l0 36 q-33 -1 -58 10 q-25 11 -26 44 l0 236 q0 49 -27 78 q-28 28 -88 29 q-57 0 -98 -21 q-41 -20 -69 -63 l0 156 l161 0 l0 37 l-161 0 l0 172 l-208 -19 l0 -35 q44 0 61 -12 q18 -13 17 -42 l0 -64 l-82 0 l0 -37 l82 0 l0 -415 q-1 -36 -26 -45 q-25 -10 -58 -9 l0 -36 Z" /><glyph glyph-name="" unicode="i" d="M178 487 q33 1 55 23 q22 22 23 54 q-1 32 -23 55 q-22 22 -55 23 q-33 -1 -53 -23 q-20 -23 -21 -55 q1 -32 21 -54 q20 -22 53 -23 l0 0 ZM30 0 l299 0 l0 38 q-32 -1 -57 11 q-26 11 -27 44 l0 337 l-209 -16 l0 -34 q44 0 61 -12 q18 -12 17 -42 l0 -235 q-1 -34 -27 -44 q-25 -10 -57 -9 l0 -38 Z" /><glyph glyph-name="" unicode="&#x131;" d="M32 0 l299 0 l0 35 q-32 -1 -57 11 q-26 11 -27 44 l0 340 l-209 -16 l0 -34 q44 0 61 -12 q18 -12 17 -42 l0 -238 q-1 -34 -27 -44 q-25 -10 -57 -9 l0 -35 Z" /><glyph glyph-name="" unicode="í" d="M151 479 l24 0 l150 178 l-117 0 l-57 -178 ZM32 0 l299 0 l0 35 q-32 -1 -57 11 q-26 11 -27 44 l0 340 l-209 -16 l0 -34 q44 0 61 -12 q18 -12 17 -42 l0 -238 q-1 -34 -27 -44 q-25 -10 -57 -9 l0 -35 Z" /><glyph glyph-name="" unicode="&#x1d0;" d="M154 495 l68 0 l100 149 l-24 0 l-110 -77 l-111 77 l-23 0 l100 -149 ZM32 0 l299 0 l0 35 q-32 -1 -57 11 q-26 11 -27 44 l0 340 l-209 -16 l0 -34 q44 0 61 -12 q18 -12 17 -42 l0 -238 q-1 -34 -27 -44 q-25 -10 -57 -9 l0 -35 Z" /><glyph glyph-name="" unicode="î" d="M43 470 l38 0 l96 86 l96 -86 l38 0 l-100 145 l-68 0 l-100 -145 ZM32 0 l299 0 l0 35 q-32 -1 -57 11 q-26 11 -27 44 l0 340 l-209 -16 l0 -34 q44 0 61 -12 q18 -12 17 -42 l0 -238 q-1 -34 -27 -44 q-25 -10 -57 -9 l0 -35 Z" /><glyph glyph-name="" unicode="ï" d="M79 493 q27 1 45 18 q17 18 18 42 q-1 26 -18 44 q-18 18 -45 19 q-26 -1 -41 -19 q-16 -18 -16 -44 q0 -24 16 -42 q15 -17 41 -18 l0 0 ZM272 493 q27 1 45 18 q18 18 19 42 q-1 26 -19 44 q-18 18 -45 19 q-25 -1 -40 -19 q-16 -18 -16 -44 q0 -24 16 -42 q15 -17 40 -18 l0 0 ZM32 0 l299 0 l0 35 q-32 -1 -57 11 q-26 11 -27 44 l0 340 l-209 -16 l0 -34 q44 0 61 -12 q18 -12 17 -42 l0 -238 q-1 -34 -27 -44 q-25 -10 -57 -9 l0 -35 Z" /><glyph glyph-name="" unicode="&#x1ecb;" d="M178 487 q33 1 55 23 q22 22 23 54 q-1 32 -23 55 q-22 22 -55 23 q-33 -1 -53 -23 q-20 -23 -21 -55 q1 -32 21 -54 q20 -22 53 -23 l0 0 ZM30 0 l299 0 l0 38 q-32 -1 -57 11 q-26 11 -27 44 l0 337 l-209 -16 l0 -34 q44 0 61 -12 q18 -12 17 -42 l0 -235 q-1 -34 -27 -44 q-25 -10 -57 -9 l0 -38 ZM179 -185 q28 1 47 20 q19 19 20 47 q-1 27 -20 45 q-19 18 -47 19 q-28 -1 -47 -19 q-19 -18 -20 -45 q1 -28 20 -47 q19 -19 47 -20 l0 0 Z" /><glyph glyph-name="" unicode="ì" d="M172 479 l38 0 l-59 176 l-115 0 l136 -176 ZM32 0 l299 0 l0 35 q-32 -1 -57 11 q-26 11 -27 44 l0 340 l-209 -16 l0 -34 q44 0 61 -12 q18 -12 17 -42 l0 -238 q-1 -34 -27 -44 q-25 -10 -57 -9 l0 -35 Z" /><glyph glyph-name="" unicode="&#x1ec9;" d="M166 467 q19 6 56 42 q38 35 42 78 q0 29 -22 50 q-21 20 -62 21 q-55 -5 -85 -43 q-31 -38 -31 -43 l4 -5 q7 7 26 18 q19 10 43 11 q31 -2 42 -20 q12 -19 11 -36 q-1 -25 -10 -42 q-10 -16 -19 -26 l5 -5 ZM32 0 l299 0 l0 35 q-32 -1 -57 11 q-26 11 -27 44 l0 340 l-209 -16 l0 -34 q44 0 61 -12 q18 -12 17 -42 l0 -238 q-1 -34 -27 -44 q-25 -10 -57 -9 l0 -35 Z" /><glyph glyph-name="" unicode="&#x133;" d="M178 487 q33 1 55 23 q22 22 23 54 q-1 32 -23 55 q-22 22 -55 23 q-33 -1 -53 -23 q-20 -23 -21 -55 q1 -32 21 -54 q20 -22 53 -23 l0 0 ZM469 486 q33 1 55 23 q22 22 23 54 q-1 32 -23 54 q-22 22 -55 23 q-33 -1 -53 -23 q-20 -22 -21 -54 q1 -32 21 -54 q20 -22 53 -23 l0 0 ZM30 0 l299 0 l0 38 q-32 -1 -57 11 q-26 11 -27 44 l0 337 l-209 -16 l0 -34 q44 0 61 -12 q18 -12 17 -42 l0 -235 q-1 -34 -27 -44 q-25 -10 -57 -9 l0 -38 ZM407 -269 q70 1 102 27 q32 27 31 70 l0 602 l-210 -19 l0 -35 q44 0 61 -12 q18 -12 17 -42 l0 -466 q1 -37 -6 -55 q-7 -18 -35 -18 q-32 2 -56 16 q-25 13 -26 9 l-6 -25 q2 -3 39 -26 q37 -23 89 -26 l0 0 Z" /><glyph glyph-name="" unicode="&#x12b;" d="M31 523 l266 0 l0 36 l-266 0 l0 -36 ZM32 0 l299 0 l0 35 q-32 -1 -57 11 q-26 11 -27 44 l0 340 l-209 -16 l0 -34 q44 0 61 -12 q18 -12 17 -42 l0 -238 q-1 -34 -27 -44 q-25 -10 -57 -9 l0 -35 Z" /><glyph glyph-name="" unicode="&#x12f;" d="M178 487 q33 1 55 23 q22 22 23 54 q-1 32 -23 55 q-22 22 -55 23 q-33 -1 -53 -23 q-20 -23 -21 -55 q1 -32 21 -54 q20 -22 53 -23 l0 0 ZM316 -146 q-18 0 -26 12 q-7 11 -6 29 q0 19 11 47 q11 28 29 58 l5 0 l0 38 q-32 -1 -57 11 q-26 11 -27 44 l0 337 l-209 -16 l0 -34 q44 0 61 -12 q18 -12 17 -42 l0 -235 q-1 -34 -27 -44 q-25 -10 -57 -9 l0 -38 l268 0 q-42 -30 -76 -65 q-34 -35 -36 -68 q1 -28 18 -41 q18 -14 45 -14 q48 1 80 11 q33 9 34 10 l0 22 q-1 0 -14 0 q-14 -1 -33 -1 l0 0 Z" /><glyph glyph-name="" unicode="&#x129;" d="M223 491 q31 4 46 44 q15 41 20 73 l-13 0 q1 -2 -10 -17 q-10 -16 -40 -18 q-32 2 -61 18 q-29 16 -64 18 q-31 -4 -45 -44 q-14 -41 -21 -73 l13 0 q-1 2 10 18 q10 15 40 17 q29 -2 60 -18 q31 -16 65 -18 l0 0 ZM32 0 l299 0 l0 35 q-32 -1 -57 11 q-26 11 -27 44 l0 340 l-209 -16 l0 -34 q44 0 61 -12 q18 -12 17 -42 l0 -238 q-1 -34 -27 -44 q-25 -10 -57 -9 l0 -35 Z" /><glyph glyph-name="" unicode="j" d="M220 486 q33 1 55 23 q22 22 23 54 q-1 32 -23 54 q-22 22 -55 23 q-33 -1 -53 -23 q-20 -22 -21 -54 q1 -32 21 -54 q20 -22 53 -23 l0 0 ZM158 -269 q70 1 102 27 q32 27 31 70 l0 602 l-210 -19 l0 -35 q44 0 61 -12 q18 -12 17 -42 l0 -466 q1 -37 -6 -55 q-7 -18 -35 -18 q-32 2 -56 16 q-25 13 -26 9 l-6 -25 q2 -3 39 -26 q37 -23 89 -26 l0 0 Z" /><glyph glyph-name="" unicode="&#x237;" d="M158 -269 q70 1 102 27 q32 27 31 70 l0 602 l-210 -19 l0 -35 q44 0 61 -12 q18 -12 17 -42 l0 -466 q1 -37 -6 -55 q-7 -18 -35 -18 q-31 1 -53 11 q-22 10 -29 14 l-6 -25 q2 -3 39 -26 q37 -23 89 -26 l0 0 Z" /><glyph glyph-name="" unicode="k" d="M523 69 q-19 23 -76 90 q-56 67 -90 109 l166 106 l-115 85 l-183 -250 l0 505 l-209 -17 l0 -35 q44 0 61 -12 q18 -13 17 -42 l0 -520 q-1 -34 -27 -44 q-25 -9 -57 -8 l0 -36 l299 0 l0 36 q-33 -1 -58 10 q-25 11 -26 44 l0 93 l38 24 q24 -27 63 -68 q39 -42 60 -66 q19 -24 6 -31 q-13 -7 -40 -6 l0 -36 l256 0 l0 36 q-23 0 -45 6 q-23 7 -40 27 l0 0 Z" /><glyph glyph-name="" unicode="&#x137;" d="M523 69 q-19 23 -76 90 q-56 67 -90 109 l166 106 l-115 85 l-183 -250 l0 505 l-209 -17 l0 -35 q44 0 61 -12 q18 -13 17 -42 l0 -520 q-1 -34 -27 -44 q-25 -9 -57 -8 l0 -36 l299 0 l0 36 q-33 -1 -58 10 q-25 11 -26 44 l0 93 l38 24 q24 -27 63 -68 q39 -42 60 -66 q19 -24 6 -31 q-13 -7 -40 -6 l0 -36 l256 0 l0 36 q-23 0 -45 6 q-23 7 -40 27 l0 0 ZM165 -229 l10 0 l144 184 l-106 12 l-48 -196 Z" /><glyph glyph-name="" unicode="l" d="M10 0 l299 0 l0 38 q-33 -1 -58 10 q-25 11 -26 44 l0 622 l-209 -19 l0 -35 q44 0 61 -12 q18 -13 17 -42 l0 -516 q-1 -34 -27 -44 q-25 -9 -57 -8 l0 -38 Z" /><glyph glyph-name="" unicode="&#x13a;" d="M113 742 l24 0 l164 146 l-117 0 l-71 -146 ZM10 0 l299 0 l0 38 q-33 -1 -58 10 q-25 11 -26 44 l0 622 l-209 -19 l0 -35 q44 0 61 -12 q18 -13 17 -42 l0 -516 q-1 -34 -27 -44 q-25 -9 -57 -8 l0 -38 Z" /><glyph glyph-name="" unicode="&#x13e;" d="M10 0 l299 0 l0 18 q-33 -1 -58 10 q-25 11 -26 44 l0 642 l-209 -19 l0 -15 q44 0 61 -12 q18 -13 17 -42 l0 -556 q-1 -34 -26 -44 q-26 -9 -58 -8 l0 -18 ZM269 482 q9 -1 69 24 q59 25 68 92 q-8 67 -66 92 q-58 25 -66 24 l-7 -5 q18 -20 31 -49 q12 -30 12 -62 q-1 -31 -15 -61 q-14 -29 -33 -50 l7 -5 Z" /><glyph glyph-name="" unicode="&#x13c;" d="M10 0 l299 0 l0 38 q-33 -1 -58 10 q-25 11 -26 44 l0 622 l-209 -19 l0 -35 q44 0 61 -12 q18 -13 17 -42 l0 -516 q-1 -34 -27 -44 q-25 -9 -57 -8 l0 -38 ZM24 -229 l10 0 l144 184 l-106 12 l-48 -196 Z" /><glyph glyph-name="" unicode="&#x140;" d="M10 0 l299 0 l0 18 q-33 -1 -58 10 q-25 11 -26 44 l0 642 l-209 -19 l0 -15 q44 0 61 -12 q18 -13 17 -42 l0 -556 q-1 -34 -26 -44 q-26 -9 -58 -8 l0 -18 ZM338 263 q30 1 51 20 q21 19 22 48 q-1 29 -22 49 q-21 20 -51 21 q-29 -1 -49 -21 q-20 -20 -21 -49 q1 -29 21 -48 q20 -19 49 -20 l0 0 Z" /><glyph glyph-name="" unicode="&#x142;" d="M225 70 l0 342 l62 25 l0 19 l-62 -25 l0 283 l-209 -17 l0 -15 q44 0 61 -12 q18 -13 17 -42 l0 -249 l-84 -33 l0 -19 l84 33 l0 -292 q-1 -34 -26 -44 q-26 -9 -58 -8 l0 -16 l299 0 l0 16 q-33 -1 -58 10 q-25 11 -26 44 l0 0 Z" /><glyph glyph-name="" unicode="m" d="M30 0 l267 0 l0 36 q-30 -1 -41 10 q-12 11 -11 44 l0 203 q5 16 29 52 q23 36 71 40 q24 -1 29 -16 q5 -15 4 -37 l0 -242 q1 -36 -10 -45 q-11 -10 -42 -9 l0 -36 l234 0 l0 36 q-31 -1 -41 10 q-10 11 -9 44 l0 212 q8 22 31 51 q24 29 66 32 q24 -1 29 -16 q5 -15 4 -37 l0 -242 q1 -36 -10 -45 q-11 -10 -42 -9 l0 -36 l267 0 l0 36 q-33 -1 -58 10 q-25 11 -26 44 l0 220 q2 62 -25 92 q-26 31 -106 31 q-56 -3 -91 -32 q-35 -30 -42 -51 q-10 47 -44 66 q-35 18 -84 17 q-58 -3 -94 -33 q-35 -30 -41 -51 l0 84 l-209 -19 l0 -35 q44 0 62 -12 q18 -13 17 -42 l0 -235 q-1 -36 -26 -45 q-25 -10 -58 -9 l0 -36 Z" /><glyph glyph-name="" unicode="n" d="M30 0 l272 0 l0 36 q-30 -1 -44 10 q-13 11 -13 44 l0 208 q5 15 35 49 q29 34 82 38 q18 0 26 -12 q7 -11 7 -33 l0 -250 q0 -36 -12 -45 q-13 -10 -44 -9 l0 -36 l271 0 l0 36 q-33 -1 -58 10 q-25 11 -26 44 l0 236 q0 49 -27 78 q-28 28 -88 29 q-57 0 -98 -21 q-41 -20 -69 -63 l0 83 l-208 -20 l0 -35 q44 0 61 -12 q18 -13 17 -41 l0 -234 q-1 -36 -26 -45 q-25 -10 -58 -9 l0 -36 Z" /><glyph glyph-name="" unicode="&#x144;" d="M300 479 l24 0 l150 178 l-117 0 l-57 -178 ZM30 0 l272 0 l0 36 q-30 -1 -44 10 q-13 11 -13 44 l0 208 q5 15 35 49 q29 34 82 38 q18 0 26 -12 q7 -11 7 -33 l0 -250 q0 -36 -12 -45 q-13 -10 -44 -9 l0 -36 l271 0 l0 36 q-33 -1 -58 10 q-25 11 -26 44 l0 236 q0 49 -27 78 q-28 28 -88 29 q-57 0 -98 -21 q-41 -20 -69 -63 l0 83 l-208 -20 l0 -35 q44 0 61 -12 q18 -13 17 -41 l0 -234 q-1 -36 -26 -45 q-25 -10 -58 -9 l0 -36 Z" /><glyph glyph-name="" unicode="&#x148;" d="M303 495 l68 0 l100 149 l-24 0 l-110 -77 l-111 77 l-23 0 l100 -149 ZM30 0 l272 0 l0 36 q-30 -1 -44 10 q-13 11 -13 44 l0 208 q5 15 35 49 q29 34 82 38 q18 0 26 -12 q7 -11 7 -33 l0 -250 q0 -36 -12 -45 q-13 -10 -44 -9 l0 -36 l271 0 l0 36 q-33 -1 -58 10 q-25 11 -26 44 l0 236 q0 49 -27 78 q-28 28 -88 29 q-57 0 -98 -21 q-41 -20 -69 -63 l0 83 l-208 -20 l0 -35 q44 0 61 -12 q18 -13 17 -41 l0 -234 q-1 -36 -26 -45 q-25 -10 -58 -9 l0 -36 Z" /><glyph glyph-name="" unicode="&#x146;" d="M30 0 l272 0 l0 36 q-30 -1 -44 10 q-13 11 -13 44 l0 208 q5 15 35 49 q29 34 82 38 q18 0 26 -12 q7 -11 7 -33 l0 -250 q0 -36 -12 -45 q-13 -10 -44 -9 l0 -36 l271 0 l0 36 q-33 -1 -58 10 q-25 11 -26 44 l0 236 q0 49 -27 78 q-28 28 -88 29 q-57 0 -98 -21 q-41 -20 -69 -63 l0 83 l-208 -20 l0 -35 q44 0 61 -12 q18 -13 17 -41 l0 -234 q-1 -36 -26 -45 q-25 -10 -58 -9 l0 -36 ZM219 -229 l10 0 l144 184 l-106 12 l-48 -196 Z" /><glyph glyph-name="" unicode="&#x14b;" d="M439 -181 q63 1 88 36 q26 35 25 85 l0 554 q0 37 21 51 q20 14 65 13 l0 30 l-231 0 l0 -30 q42 2 70 -9 q28 -10 29 -55 l0 -279 l-248 373 l-222 0 l0 -30 q45 1 66 -13 q20 -14 20 -51 l0 -417 q0 -39 -20 -52 q-21 -13 -66 -12 l0 -13 l232 0 l0 13 q-42 -2 -71 10 q-28 11 -29 54 l0 430 l338 -510 l0 -47 q2 -40 -11 -69 q-12 -29 -62 -30 q-36 3 -68 33 q-32 30 -56 57 l-34 -101 q4 -1 57 -10 q53 -10 107 -11 l0 0 Z" /><glyph glyph-name="" unicode="ñ" d="M372 491 q31 4 46 44 q15 41 20 73 l-13 0 q1 -2 -10 -17 q-10 -16 -40 -18 q-32 2 -61 18 q-29 16 -64 18 q-31 -4 -45 -44 q-14 -41 -21 -73 l13 0 q-1 2 10 18 q10 15 40 17 q29 -2 60 -18 q31 -16 65 -18 l0 0 ZM30 0 l272 0 l0 36 q-30 -1 -44 10 q-13 11 -13 44 l0 208 q5 15 35 49 q29 34 82 38 q18 0 26 -12 q7 -11 7 -33 l0 -250 q0 -36 -12 -45 q-13 -10 -44 -9 l0 -36 l271 0 l0 36 q-33 -1 -58 10 q-25 11 -26 44 l0 236 q0 49 -27 78 q-28 28 -88 29 q-57 0 -98 -21 q-41 -20 -69 -63 l0 83 l-208 -20 l0 -35 q44 0 61 -12 q18 -13 17 -41 l0 -234 q-1 -36 -26 -45 q-25 -10 -58 -9 l0 -36 Z" /><glyph glyph-name="" unicode="o" d="M271 -8 q114 2 178 64 q64 62 65 155 q-1 93 -65 155 q-64 62 -178 64 q-112 -2 -176 -64 q-64 -62 -65 -155 q1 -93 65 -155 q64 -62 176 -64 l0 0 ZM271 35 q-56 2 -82 54 q-26 51 -26 122 q0 71 26 123 q26 51 82 53 q60 -2 87 -53 q26 -52 26 -123 q0 -71 -26 -122 q-27 -52 -87 -54 l0 0 Z" /><glyph glyph-name="" unicode="ó" d="M239 479 l24 0 l150 178 l-117 0 l-57 -178 ZM271 -8 q114 2 178 64 q64 62 65 155 q-1 93 -65 155 q-64 62 -178 64 q-112 -2 -176 -64 q-64 -62 -65 -155 q1 -93 65 -155 q64 -62 176 -64 l0 0 ZM271 35 q-56 2 -82 54 q-26 51 -26 122 q0 71 26 123 q26 51 82 53 q60 -2 87 -53 q26 -52 26 -123 q0 -71 -26 -122 q-27 -52 -87 -54 l0 0 Z" /><glyph glyph-name="" unicode="&#x1d2;" d="M242 495 l68 0 l100 149 l-24 0 l-110 -77 l-111 77 l-23 0 l100 -149 ZM271 -8 q114 2 178 64 q64 62 65 155 q-1 93 -65 155 q-64 62 -178 64 q-112 -2 -176 -64 q-64 -62 -65 -155 q1 -93 65 -155 q64 -62 176 -64 l0 0 ZM271 35 q-56 2 -82 54 q-26 51 -26 122 q0 71 26 123 q26 51 82 53 q60 -2 87 -53 q26 -52 26 -123 q0 -71 -26 -122 q-27 -52 -87 -54 l0 0 Z" /><glyph glyph-name="" unicode="ô" d="M131 470 l38 0 l96 86 l96 -86 l38 0 l-100 145 l-68 0 l-100 -145 ZM271 -8 q114 2 178 64 q64 62 65 155 q-1 93 -65 155 q-64 62 -178 64 q-112 -2 -176 -64 q-64 -62 -65 -155 q1 -93 65 -155 q64 -62 176 -64 l0 0 ZM271 35 q-56 2 -82 54 q-26 51 -26 122 q0 71 26 123 q26 51 82 53 q60 -2 87 -53 q26 -52 26 -123 q0 -71 -26 -122 q-27 -52 -87 -54 l0 0 Z" /><glyph glyph-name="" unicode="&#x1ed9;" d="M131 470 l38 0 l96 86 l96 -86 l38 0 l-100 145 l-68 0 l-100 -145 ZM271 -8 q114 2 178 64 q64 62 65 155 q-1 93 -65 155 q-64 62 -178 64 q-112 -2 -176 -64 q-64 -62 -65 -155 q1 -93 65 -155 q64 -62 176 -64 l0 0 ZM271 35 q-56 2 -82 54 q-26 51 -26 122 q0 71 26 123 q26 51 82 53 q60 -2 87 -53 q26 -52 26 -123 q0 -71 -26 -122 q-27 -52 -87 -54 l0 0 ZM274 -185 q28 1 47 20 q19 19 20 47 q-1 27 -20 45 q-19 18 -47 19 q-28 -1 -47 -19 q-19 -18 -20 -45 q1 -28 20 -47 q19 -19 47 -20 l0 0 Z" /><glyph glyph-name="" unicode="ö" d="M167 493 q27 1 45 18 q17 18 18 42 q-1 26 -18 44 q-18 18 -45 19 q-26 -1 -41 -19 q-16 -18 -16 -44 q0 -24 16 -42 q15 -17 41 -18 l0 0 ZM360 493 q27 1 45 18 q18 18 19 42 q-1 26 -19 44 q-18 18 -45 19 q-25 -1 -40 -19 q-16 -18 -16 -44 q0 -24 16 -42 q15 -17 40 -18 l0 0 ZM271 -8 q114 2 178 64 q64 62 65 155 q-1 93 -65 155 q-64 62 -178 64 q-112 -2 -176 -64 q-64 -62 -65 -155 q1 -93 65 -155 q64 -62 176 -64 l0 0 ZM271 35 q-56 2 -82 54 q-26 51 -26 122 q0 71 26 123 q26 51 82 53 q60 -2 87 -53 q26 -52 26 -123 q0 -71 -26 -122 q-27 -52 -87 -54 l0 0 Z" /><glyph glyph-name="" unicode="ò" d="M260 479 l38 0 l-59 176 l-115 0 l136 -176 ZM271 -8 q114 2 178 64 q64 62 65 155 q-1 93 -65 155 q-64 62 -178 64 q-112 -2 -176 -64 q-64 -62 -65 -155 q1 -93 65 -155 q64 -62 176 -64 l0 0 ZM271 35 q-56 2 -82 54 q-26 51 -26 122 q0 71 26 123 q26 51 82 53 q60 -2 87 -53 q26 -52 26 -123 q0 -71 -26 -122 q-27 -52 -87 -54 l0 0 Z" /><glyph glyph-name="" unicode="&#x151;" d="M172 479 l24 0 l150 178 l-117 0 l-57 -178 ZM325 479 l24 0 l150 178 l-117 0 l-57 -178 ZM271 -8 q114 2 178 64 q64 62 65 155 q-1 93 -65 155 q-64 62 -178 64 q-112 -2 -176 -64 q-64 -62 -65 -155 q1 -93 65 -155 q64 -62 176 -64 l0 0 ZM271 35 q-56 2 -82 54 q-26 51 -26 122 q0 71 26 123 q26 51 82 53 q60 -2 87 -53 q26 -52 26 -123 q0 -71 -26 -122 q-27 -52 -87 -54 l0 0 Z" /><glyph glyph-name="" unicode="&#x14d;" d="M119 523 l266 0 l0 36 l-266 0 l0 -36 ZM271 -8 q114 2 178 64 q64 62 65 155 q-1 93 -65 155 q-64 62 -178 64 q-112 -2 -176 -64 q-64 -62 -65 -155 q1 -93 65 -155 q64 -62 176 -64 l0 0 ZM271 35 q-56 2 -82 54 q-26 51 -26 122 q0 71 26 123 q26 51 82 53 q60 -2 87 -53 q26 -52 26 -123 q0 -71 -26 -122 q-27 -52 -87 -54 l0 0 Z" /><glyph glyph-name="" unicode="ø" d="M102 -30 l31 0 q17 22 32 46 q26 -11 55 -18 q30 -6 63 -6 q114 2 178 64 q64 62 65 155 q0 57 -25 104 q-24 46 -71 77 q8 12 17 24 q8 11 16 24 l-31 0 q-11 -18 -26 -36 q-26 12 -57 19 q-31 7 -66 7 q-112 -2 -176 -64 q-64 -62 -65 -155 q0 -58 27 -105 q26 -48 74 -77 q-10 -16 -20 -30 q-11 -14 -21 -29 l0 0 ZM190 94 q-7 25 -11 54 q-4 30 -4 63 q0 86 26 140 q26 54 82 56 q31 0 52 -14 q21 -15 34 -42 l-179 -257 ZM283 15 q-28 0 -48 14 q-21 14 -34 38 l180 257 q8 -24 12 -53 q3 -28 3 -60 q0 -86 -26 -140 q-27 -54 -87 -56 l0 0 Z" /><glyph glyph-name="" unicode="õ" d="M324 491 q31 4 46 44 q15 41 20 73 l-13 0 q1 -2 -10 -17 q-10 -16 -40 -18 q-32 2 -61 18 q-29 16 -64 18 q-31 -4 -45 -44 q-14 -41 -21 -73 l13 0 q-1 2 10 18 q10 15 40 17 q29 -2 60 -18 q31 -16 65 -18 l0 0 ZM271 -8 q114 2 178 64 q64 62 65 155 q-1 93 -65 155 q-64 62 -178 64 q-112 -2 -176 -64 q-64 -62 -65 -155 q1 -93 65 -155 q64 -62 176 -64 l0 0 ZM271 35 q-56 2 -82 54 q-26 51 -26 122 q0 71 26 123 q26 51 82 53 q60 -2 87 -53 q26 -52 26 -123 q0 -71 -26 -122 q-27 -52 -87 -54 l0 0 Z" /><glyph glyph-name="" unicode="&#x153;" d="M271 -8 q55 0 99 16 q44 16 75 45 q32 -30 78 -45 q45 -16 101 -16 q76 5 113 44 q37 38 37 43 l-7 36 q0 -4 -32 -34 q-33 -31 -99 -35 q-70 1 -96 51 q-26 49 -25 132 l263 0 l0 33 q3 47 -29 107 q-32 59 -137 64 q-52 0 -94 -16 q-43 -17 -73 -47 q-32 28 -75 44 q-44 16 -99 16 q-112 -2 -176 -64 q-64 -62 -65 -155 q1 -93 65 -155 q64 -62 176 -64 l0 0 ZM516 279 q5 42 22 77 q17 35 55 37 q58 -5 67 -47 q9 -43 7 -67 l-151 0 ZM271 35 q-56 2 -82 54 q-26 51 -26 122 q0 71 26 123 q26 51 82 53 q60 -2 87 -53 q26 -52 26 -123 q0 -71 -26 -122 q-27 -52 -87 -54 l0 0 Z" /><glyph glyph-name="" unicode="p" d="M30 -262 l328 0 l0 35 q-60 -1 -86 11 q-27 11 -27 43 l0 231 q21 -36 50 -51 q28 -15 70 -15 q123 6 169 81 q45 75 42 150 q0 79 -53 141 q-54 63 -167 66 q-35 -1 -65 -12 q-30 -11 -46 -25 l0 40 q-52 -4 -104 -8 q-52 -4 -104 -8 l0 -35 q44 1 61 -10 q17 -11 16 -40 l0 -506 q-1 -34 -27 -44 q-25 -10 -57 -9 l0 -35 ZM351 35 q-32 -3 -66 33 q-34 37 -38 147 q-1 101 24 137 q25 37 74 35 q61 -4 81 -57 q20 -53 18 -107 q1 -54 -18 -118 q-20 -64 -75 -70 l0 0 Z" /><glyph glyph-name="" unicode="þ" d="M-10 -262 l328 0 l0 35 q-60 -1 -86 11 q-27 11 -27 43 l0 231 q21 -36 50 -51 q28 -15 70 -15 q123 6 169 81 q45 75 42 150 q0 79 -53 141 q-54 63 -167 66 q-35 -1 -65 -12 q-30 -11 -46 -25 l0 321 l-208 -16 l0 -35 q44 1 61 -10 q17 -11 16 -40 l0 -787 q-1 -34 -27 -44 q-25 -10 -57 -9 l0 -35 ZM311 35 q-32 -3 -66 33 q-34 37 -38 147 q-1 101 24 137 q25 37 74 35 q61 -4 81 -57 q20 -53 18 -107 q1 -54 -18 -118 q-20 -64 -75 -70 l0 0 Z" /><glyph glyph-name="" unicode="q" d="M252 -265 l329 0 l0 38 q-33 -1 -57 9 q-25 10 -27 44 l0 619 l-4 0 q-31 -16 -62 -31 q-31 -15 -61 -31 q-21 20 -55 33 q-34 14 -70 14 q-128 -5 -173 -78 q-45 -72 -42 -145 q-1 -72 51 -141 q52 -69 162 -74 q56 1 82 22 q26 21 39 54 l0 -241 q0 -32 -26 -43 q-27 -12 -86 -11 l0 -38 ZM256 35 q-55 5 -75 62 q-20 57 -19 110 q-2 52 18 113 q19 62 78 67 q48 2 76 -34 q27 -37 28 -141 q1 -65 -23 -119 q-23 -55 -83 -58 l0 0 Z" /><glyph glyph-name="" unicode="r" d="M30 0 l294 0 l0 36 q-33 -1 -58 10 q-25 11 -26 44 l0 206 l141 -1 l0 142 l-7 0 l-136 -118 l0 111 l-201 -16 l0 -35 q32 0 54 -12 q22 -13 23 -43 l0 -234 q-1 -36 -26 -45 q-25 -10 -58 -9 l0 -36 Z" /><glyph glyph-name="" unicode="&#x155;" d="M137 480 l24 0 l150 178 l-117 0 l-57 -178 ZM30 0 l294 0 l0 36 q-33 -1 -58 10 q-25 11 -26 44 l0 206 l141 -1 l0 142 l-7 0 l-136 -118 l0 111 l-201 -16 l0 -35 q32 0 54 -12 q22 -13 23 -43 l0 -234 q-1 -36 -26 -45 q-25 -10 -58 -9 l0 -36 Z" /><glyph glyph-name="" unicode="&#x159;" d="M140 496 l68 0 l100 149 l-24 0 l-110 -77 l-111 77 l-23 0 l100 -149 ZM30 0 l294 0 l0 36 q-33 -1 -58 10 q-25 11 -26 44 l0 206 l141 -1 l0 142 l-7 0 l-136 -118 l0 111 l-201 -16 l0 -35 q32 0 54 -12 q22 -13 23 -43 l0 -234 q-1 -36 -26 -45 q-25 -10 -58 -9 l0 -36 Z" /><glyph glyph-name="" unicode="&#x157;" d="M30 0 l294 0 l0 36 q-33 -1 -58 10 q-25 11 -26 44 l0 206 l141 -1 l0 142 l-7 0 l-136 -118 l0 111 l-201 -16 l0 -35 q32 0 54 -12 q22 -13 23 -43 l0 -234 q-1 -36 -26 -45 q-25 -10 -58 -9 l0 -36 ZM65 -229 l10 0 l144 184 l-106 12 l-48 -196 Z" /><glyph glyph-name="" unicode="s" d="M193 -8 q79 0 126 29 q46 28 48 93 q1 34 -17 65 q-17 30 -59 54 q-16 9 -30 18 q-15 8 -42 25 q-24 14 -38 31 q-14 17 -14 37 q0 21 14 33 q14 12 46 12 q42 0 59 -19 q17 -18 15 -53 l35 0 l20 92 q-3 1 -45 11 q-41 9 -85 10 q-78 1 -124 -28 q-46 -29 -47 -95 q0 -32 12 -58 q13 -26 42 -44 q36 -21 96 -58 q24 -14 37 -30 q14 -16 14 -34 q0 -23 -16 -36 q-17 -14 -55 -14 q-50 1 -70 31 q-21 30 -20 77 l-35 0 l-20 -116 q2 -2 48 -17 q45 -15 105 -16 l0 0 Z" /><glyph glyph-name="" unicode="&#x15b;" d="M171 479 l24 0 l150 178 l-117 0 l-57 -178 ZM193 -8 q79 0 126 29 q46 28 48 93 q1 34 -17 65 q-17 30 -59 54 q-16 9 -30 18 q-15 8 -42 25 q-24 14 -38 31 q-14 17 -14 37 q0 21 14 33 q14 12 46 12 q42 0 59 -19 q17 -18 15 -53 l35 0 l20 92 q-3 1 -45 11 q-41 9 -85 10 q-78 1 -124 -28 q-46 -29 -47 -95 q0 -32 12 -58 q13 -26 42 -44 q36 -21 96 -58 q24 -14 37 -30 q14 -16 14 -34 q0 -23 -16 -36 q-17 -14 -55 -14 q-50 1 -70 31 q-21 30 -20 77 l-35 0 l-20 -116 q2 -2 48 -17 q45 -15 105 -16 l0 0 Z" /><glyph glyph-name="" unicode="&#x161;" d="M174 495 l68 0 l100 149 l-24 0 l-110 -77 l-111 77 l-23 0 l100 -149 ZM193 -8 q79 0 126 29 q46 28 48 93 q1 34 -17 65 q-17 30 -59 54 q-16 9 -30 18 q-15 8 -42 25 q-24 14 -38 31 q-14 17 -14 37 q0 21 14 33 q14 12 46 12 q42 0 59 -19 q17 -18 15 -53 l35 0 l20 92 q-3 1 -45 11 q-41 9 -85 10 q-78 1 -124 -28 q-46 -29 -47 -95 q0 -32 12 -58 q13 -26 42 -44 q36 -21 96 -58 q24 -14 37 -30 q14 -16 14 -34 q0 -23 -16 -36 q-17 -14 -55 -14 q-50 1 -70 31 q-21 30 -20 77 l-35 0 l-20 -116 q2 -2 48 -17 q45 -15 105 -16 l0 0 Z" /><glyph glyph-name="" unicode="&#x15f;" d="M291 233 q-16 9 -30 18 q-15 8 -42 25 q-24 14 -38 31 q-14 17 -14 37 q0 21 14 33 q14 12 46 12 q42 0 59 -19 q17 -18 15 -53 l35 0 l20 92 q-3 1 -45 11 q-41 9 -85 10 q-78 1 -124 -28 q-46 -29 -47 -95 q0 -32 12 -58 q13 -26 42 -44 q36 -21 96 -58 q24 -14 37 -30 q14 -16 14 -34 q0 -23 -16 -36 q-17 -14 -55 -14 q-50 1 -70 31 q-21 30 -20 77 l-35 0 l-20 -116 q2 -2 48 -17 q45 -15 105 -16 l8 0 l-48 -77 q37 -1 57 -13 q21 -11 21 -34 q0 -22 -10 -35 q-10 -14 -25 -14 q-19 1 -32 8 q-14 6 -15 7 l0 -14 q1 -1 28 -10 q26 -10 63 -11 q38 0 58 17 q20 16 20 44 q0 31 -25 48 q-25 16 -74 18 l-14 -2 l11 69 q69 3 109 32 q40 29 42 89 q1 34 -17 65 q-17 30 -59 54 l0 0 Z" /><glyph glyph-name="" unicode="&#x219;" d="M193 -8 q79 0 126 29 q46 28 48 93 q1 34 -17 65 q-17 30 -59 54 q-16 9 -30 18 q-15 8 -42 25 q-24 14 -38 31 q-14 17 -14 37 q0 21 14 33 q14 12 46 12 q42 0 59 -19 q17 -18 15 -53 l35 0 l20 92 q-3 1 -45 11 q-41 9 -85 10 q-78 1 -124 -28 q-46 -29 -47 -95 q0 -32 12 -58 q13 -26 42 -44 q36 -21 96 -58 q24 -14 37 -30 q14 -16 14 -34 q0 -23 -16 -36 q-17 -14 -55 -14 q-50 1 -70 31 q-21 30 -20 77 l-35 0 l-20 -116 q2 -2 48 -17 q45 -15 105 -16 l0 0 ZM108 -229 l10 0 l144 184 l-106 12 l-48 -196 Z" /><glyph glyph-name="" unicode="ß" d="M381 -8 q90 0 142 25 q52 24 54 89 q2 24 -15 53 q-16 29 -66 69 q-15 12 -31 25 q-17 13 -32 26 q-25 21 -38 39 q-13 18 -13 40 q0 32 11 54 q11 22 29 39 q35 29 68 58 q34 29 36 83 q-1 59 -50 90 q-50 32 -132 32 q-123 -4 -191 -68 q-68 -65 -69 -142 l0 -414 q-1 -34 -27 -44 q-25 -9 -57 -8 l0 -38 l217 0 l0 611 q3 45 44 64 q40 19 77 19 q51 -2 70 -34 q20 -32 19 -73 q-1 -33 -16 -56 q-16 -23 -39 -41 q-36 -26 -67 -59 q-31 -33 -33 -94 q0 -30 10 -54 q10 -24 35 -45 q11 -10 29 -25 q18 -15 36 -29 q36 -27 57 -48 q21 -22 21 -49 q1 -20 -17 -37 q-18 -16 -67 -17 q-50 1 -71 24 q-21 23 -20 60 l-35 0 l0 -112 q3 -1 44 -7 q41 -6 87 -6 l0 0 Z" /><glyph glyph-name="" unicode="t" d="M190 -8 q74 4 112 33 q37 29 37 33 l-9 31 q-1 -2 -25 -20 q-24 -17 -52 -20 q-12 -1 -27 12 q-14 13 -15 49 l0 252 l128 0 l0 52 l-128 0 l0 155 l-42 0 q-17 -93 -66 -130 q-48 -37 -103 -36 l0 -41 l80 0 l0 -273 q1 -56 30 -77 q29 -21 80 -20 l0 0 Z" /><glyph glyph-name="" unicode="&#x167;" d="M359 389 l0 27 l-148 0 l0 153 l-22 0 q-18 -80 -76 -122 q-57 -42 -113 -42 l0 -16 l80 0 l0 -81 l-67 0 l0 -27 l67 0 l0 -206 q2 -55 34 -70 q32 -15 76 -13 q97 5 125 41 q27 35 24 40 l-6 26 q0 -4 -19 -30 q-19 -26 -61 -30 q-12 -1 -27 7 q-14 9 -15 44 l0 191 l144 0 l0 27 l-144 0 l0 81 l148 0 Z" /><glyph glyph-name="" unicode="&#x165;" d="M236 482 q9 -1 69 24 q59 25 68 92 q-8 67 -66 92 q-58 25 -66 24 l-7 -5 q18 -20 30 -49 q12 -30 12 -62 q-1 -31 -14 -61 q-14 -29 -33 -50 l7 -5 ZM190 -8 q97 5 125 41 q27 35 24 40 l-6 26 q0 -4 -19 -30 q-19 -26 -61 -30 q-12 -1 -27 7 q-14 9 -15 44 l0 293 l148 0 l0 27 l-148 0 l0 159 l-22 0 q-18 -67 -76 -117 q-57 -50 -113 -53 l0 -16 l80 0 l0 -308 q2 -55 34 -70 q32 -15 76 -13 l0 0 Z" /><glyph glyph-name="" unicode="&#x163;" d="M339 362 l0 52 l-128 0 l0 155 l-42 0 q-17 -93 -66 -130 q-48 -37 -103 -36 l0 -41 l80 0 l0 -273 q1 -56 30 -77 q29 -21 80 -20 l1 0 l-48 -77 q37 -1 57 -13 q21 -11 21 -34 q0 -22 -10 -35 q-10 -14 -25 -14 q-19 1 -32 8 q-14 6 -15 7 l0 -14 q1 -1 28 -10 q26 -10 63 -11 q38 0 58 17 q20 16 20 44 q0 31 -25 48 q-25 16 -74 18 l-14 -2 l11 69 q66 8 100 35 q33 27 33 30 l-9 31 q-1 -2 -25 -20 q-24 -17 -52 -20 q-12 -1 -27 12 q-14 13 -15 49 l0 252 l128 0 Z" /><glyph glyph-name="" unicode="&#x21b;" d="M190 -8 q74 4 112 33 q37 29 37 33 l-9 31 q-1 -2 -25 -20 q-24 -17 -52 -20 q-12 -1 -27 12 q-14 13 -15 49 l0 252 l128 0 l0 52 l-128 0 l0 155 l-42 0 q-17 -93 -66 -130 q-48 -37 -103 -36 l0 -41 l80 0 l0 -273 q1 -56 30 -77 q29 -21 80 -20 l0 0 ZM98 -229 l10 0 l144 184 l-106 12 l-48 -196 Z" /><glyph glyph-name="" unicode="u" d="M234 -8 q74 3 103 31 q29 28 39 52 l0 -80 l207 16 l0 36 q-41 0 -60 12 q-18 12 -18 42 l0 329 l-208 -16 l0 -35 q44 1 61 -10 q17 -11 16 -40 l0 -175 q-5 -29 -28 -68 q-23 -39 -62 -43 q-23 -1 -34 13 q-11 14 -11 52 l0 322 l-209 -16 l0 -35 q44 1 61 -10 q18 -11 17 -40 l0 -234 q1 -64 37 -84 q36 -21 89 -19 l0 0 Z" /><glyph glyph-name="" unicode="ú" d="M262 479 l24 0 l150 178 l-117 0 l-57 -178 ZM234 -8 q74 3 103 31 q29 28 39 52 l0 -80 l207 16 l0 36 q-41 0 -60 12 q-18 12 -18 42 l0 329 l-208 -16 l0 -35 q44 1 61 -10 q17 -11 16 -40 l0 -175 q-5 -29 -28 -68 q-23 -39 -62 -43 q-23 -1 -34 13 q-11 14 -11 52 l0 322 l-209 -16 l0 -35 q44 1 61 -10 q18 -11 17 -40 l0 -234 q1 -64 37 -84 q36 -21 89 -19 l0 0 Z" /><glyph glyph-name="" unicode="&#x1d4;" d="M265 495 l68 0 l100 149 l-24 0 l-110 -77 l-111 77 l-23 0 l100 -149 ZM234 -8 q74 3 103 31 q29 28 39 52 l0 -80 l207 16 l0 36 q-41 0 -60 12 q-18 12 -18 42 l0 329 l-208 -16 l0 -35 q44 1 61 -10 q17 -11 16 -40 l0 -175 q-5 -29 -28 -68 q-23 -39 -62 -43 q-23 -1 -34 13 q-11 14 -11 52 l0 322 l-209 -16 l0 -35 q44 1 61 -10 q18 -11 17 -40 l0 -234 q1 -64 37 -84 q36 -21 89 -19 l0 0 Z" /><glyph glyph-name="" unicode="û" d="M154 470 l38 0 l96 86 l96 -86 l38 0 l-100 145 l-68 0 l-100 -145 ZM234 -8 q74 3 103 31 q29 28 39 52 l0 -80 l207 16 l0 36 q-41 0 -60 12 q-18 12 -18 42 l0 329 l-208 -16 l0 -35 q44 1 61 -10 q17 -11 16 -40 l0 -175 q-5 -29 -28 -68 q-23 -39 -62 -43 q-23 -1 -34 13 q-11 14 -11 52 l0 322 l-209 -16 l0 -35 q44 1 61 -10 q18 -11 17 -40 l0 -234 q1 -64 37 -84 q36 -21 89 -19 l0 0 Z" /><glyph glyph-name="" unicode="ü" d="M190 493 q27 1 45 18 q17 18 18 42 q-1 26 -18 44 q-18 18 -45 19 q-26 -1 -41 -19 q-16 -18 -16 -44 q0 -24 16 -42 q15 -17 41 -18 l0 0 ZM383 493 q27 1 45 18 q18 18 19 42 q-1 26 -19 44 q-18 18 -45 19 q-25 -1 -40 -19 q-16 -18 -16 -44 q0 -24 16 -42 q15 -17 40 -18 l0 0 ZM234 -8 q74 3 103 31 q29 28 39 52 l0 -80 l207 16 l0 36 q-41 0 -60 12 q-18 12 -18 42 l0 329 l-208 -16 l0 -35 q44 1 61 -10 q17 -11 16 -40 l0 -175 q-5 -29 -28 -68 q-23 -39 -62 -43 q-23 -1 -34 13 q-11 14 -11 52 l0 322 l-209 -16 l0 -35 q44 1 61 -10 q18 -11 17 -40 l0 -234 q1 -64 37 -84 q36 -21 89 -19 l0 0 Z" /><glyph glyph-name="" unicode="&#x1d8;" d="M255 621 l24 0 l150 178 l-117 0 l-57 -178 ZM180 493 q27 1 45 18 q17 18 18 42 q-1 26 -18 44 q-18 18 -45 19 q-26 -1 -41 -19 q-16 -18 -16 -44 q0 -24 16 -42 q15 -17 41 -18 l0 0 ZM373 493 q27 1 45 18 q18 18 19 42 q-1 26 -19 44 q-18 18 -45 19 q-25 -1 -40 -19 q-16 -18 -16 -44 q0 -24 16 -42 q15 -17 40 -18 l0 0 ZM234 -8 q74 3 103 31 q29 28 39 52 l0 -80 l207 16 l0 36 q-41 0 -60 12 q-18 12 -18 42 l0 329 l-208 -16 l0 -35 q44 1 61 -10 q17 -11 16 -40 l0 -175 q-5 -29 -28 -68 q-23 -39 -62 -43 q-23 -1 -34 13 q-11 14 -11 52 l0 322 l-209 -16 l0 -35 q44 1 61 -10 q18 -11 17 -40 l0 -234 q1 -64 37 -84 q36 -21 89 -19 l0 0 Z" /><glyph glyph-name="" unicode="&#x1da;" d="M250 637 l68 0 l100 149 l-24 0 l-110 -77 l-111 77 l-23 0 l100 -149 ZM180 493 q27 1 45 18 q17 18 18 42 q-1 26 -18 44 q-18 18 -45 19 q-26 -1 -41 -19 q-16 -18 -16 -44 q0 -24 16 -42 q15 -17 41 -18 l0 0 ZM373 493 q27 1 45 18 q18 18 19 42 q-1 26 -19 44 q-18 18 -45 19 q-25 -1 -40 -19 q-16 -18 -16 -44 q0 -24 16 -42 q15 -17 40 -18 l0 0 ZM234 -8 q74 3 103 31 q29 28 39 52 l0 -80 l207 16 l0 36 q-41 0 -60 12 q-18 12 -18 42 l0 329 l-208 -16 l0 -35 q44 1 61 -10 q17 -11 16 -40 l0 -175 q-5 -29 -28 -68 q-23 -39 -62 -43 q-23 -1 -34 13 q-11 14 -11 52 l0 322 l-209 -16 l0 -35 q44 1 61 -10 q18 -11 17 -40 l0 -234 q1 -64 37 -84 q36 -21 89 -19 l0 0 Z" /><glyph glyph-name="" unicode="&#x1dc;" d="M281 620 l38 0 l-59 176 l-115 0 l136 -176 ZM180 493 q27 1 45 18 q17 18 18 42 q-1 26 -18 44 q-18 18 -45 19 q-26 -1 -41 -19 q-16 -18 -16 -44 q0 -24 16 -42 q15 -17 41 -18 l0 0 ZM373 493 q27 1 45 18 q18 18 19 42 q-1 26 -19 44 q-18 18 -45 19 q-25 -1 -40 -19 q-16 -18 -16 -44 q0 -24 16 -42 q15 -17 40 -18 l0 0 ZM234 -8 q74 3 103 31 q29 28 39 52 l0 -80 l207 16 l0 36 q-41 0 -60 12 q-18 12 -18 42 l0 329 l-208 -16 l0 -35 q44 1 61 -10 q17 -11 16 -40 l0 -175 q-5 -29 -28 -68 q-23 -39 -62 -43 q-23 -1 -34 13 q-11 14 -11 52 l0 322 l-209 -16 l0 -35 q44 1 61 -10 q18 -11 17 -40 l0 -234 q1 -64 37 -84 q36 -21 89 -19 l0 0 Z" /><glyph glyph-name="" unicode="&#x1d6;" d="M144 665 l266 0 l0 36 l-266 0 l0 -36 ZM180 493 q27 1 45 18 q17 18 18 42 q-1 26 -18 44 q-18 18 -45 19 q-26 -1 -41 -19 q-16 -18 -16 -44 q0 -24 16 -42 q15 -17 41 -18 l0 0 ZM373 493 q27 1 45 18 q18 18 19 42 q-1 26 -19 44 q-18 18 -45 19 q-25 -1 -40 -19 q-16 -18 -16 -44 q0 -24 16 -42 q15 -17 40 -18 l0 0 ZM234 -8 q74 3 103 31 q29 28 39 52 l0 -80 l207 16 l0 36 q-41 0 -60 12 q-18 12 -18 42 l0 329 l-208 -16 l0 -35 q44 1 61 -10 q17 -11 16 -40 l0 -175 q-5 -29 -28 -68 q-23 -39 -62 -43 q-23 -1 -34 13 q-11 14 -11 52 l0 322 l-209 -16 l0 -35 q44 1 61 -10 q18 -11 17 -40 l0 -234 q1 -64 37 -84 q36 -21 89 -19 l0 0 Z" /><glyph glyph-name="" unicode="&#x1ee5;" d="M234 -8 q74 3 103 31 q29 28 39 52 l0 -80 l207 16 l0 36 q-41 0 -60 12 q-18 12 -18 42 l0 329 l-208 -16 l0 -35 q44 1 61 -10 q17 -11 16 -40 l0 -175 q-5 -29 -28 -68 q-23 -39 -62 -43 q-23 -1 -34 13 q-11 14 -11 52 l0 322 l-209 -16 l0 -35 q44 1 61 -10 q18 -11 17 -40 l0 -234 q1 -64 37 -84 q36 -21 89 -19 l0 0 ZM305 -185 q28 1 47 20 q19 19 20 47 q-1 27 -20 45 q-19 18 -47 19 q-28 -1 -47 -19 q-19 -18 -20 -45 q1 -28 20 -47 q19 -19 47 -20 l0 0 Z" /><glyph glyph-name="" unicode="ù" d="M283 479 l38 0 l-59 176 l-115 0 l136 -176 ZM234 -8 q74 3 103 31 q29 28 39 52 l0 -80 l207 16 l0 36 q-41 0 -60 12 q-18 12 -18 42 l0 329 l-208 -16 l0 -35 q44 1 61 -10 q17 -11 16 -40 l0 -175 q-5 -29 -28 -68 q-23 -39 -62 -43 q-23 -1 -34 13 q-11 14 -11 52 l0 322 l-209 -16 l0 -35 q44 1 61 -10 q18 -11 17 -40 l0 -234 q1 -64 37 -84 q36 -21 89 -19 l0 0 Z" /><glyph glyph-name="" unicode="&#x1ee7;" d="M277 467 q19 6 56 42 q38 35 42 78 q0 29 -22 50 q-21 20 -62 21 q-55 -5 -85 -43 q-31 -38 -31 -43 l4 -5 q7 7 26 18 q19 10 43 11 q31 -2 42 -20 q12 -19 11 -36 q-1 -25 -10 -42 q-10 -16 -19 -26 l5 -5 ZM234 -8 q74 3 103 31 q29 28 39 52 l0 -80 l207 16 l0 36 q-41 0 -60 12 q-18 12 -18 42 l0 329 l-208 -16 l0 -35 q44 1 61 -10 q17 -11 16 -40 l0 -175 q-5 -29 -28 -68 q-23 -39 -62 -43 q-23 -1 -34 13 q-11 14 -11 52 l0 322 l-209 -16 l0 -35 q44 1 61 -10 q18 -11 17 -40 l0 -234 q1 -64 37 -84 q36 -21 89 -19 l0 0 Z" /><glyph glyph-name="" unicode="&#x171;" d="M195 479 l24 0 l150 178 l-117 0 l-57 -178 ZM348 479 l24 0 l150 178 l-117 0 l-57 -178 ZM234 -8 q74 3 103 31 q29 28 39 52 l0 -80 l207 16 l0 36 q-41 0 -60 12 q-18 12 -18 42 l0 329 l-208 -16 l0 -35 q44 1 61 -10 q17 -11 16 -40 l0 -175 q-5 -29 -28 -68 q-23 -39 -62 -43 q-23 -1 -34 13 q-11 14 -11 52 l0 322 l-209 -16 l0 -35 q44 1 61 -10 q18 -11 17 -40 l0 -234 q1 -64 37 -84 q36 -21 89 -19 l0 0 Z" /><glyph glyph-name="" unicode="&#x16b;" d="M142 523 l266 0 l0 36 l-266 0 l0 -36 ZM234 -8 q74 3 103 31 q29 28 39 52 l0 -80 l207 16 l0 36 q-41 0 -60 12 q-18 12 -18 42 l0 329 l-208 -16 l0 -35 q44 1 61 -10 q17 -11 16 -40 l0 -175 q-5 -29 -28 -68 q-23 -39 -62 -43 q-23 -1 -34 13 q-11 14 -11 52 l0 322 l-209 -16 l0 -35 q44 1 61 -10 q18 -11 17 -40 l0 -234 q1 -64 37 -84 q36 -21 89 -19 l0 0 Z" /><glyph glyph-name="" unicode="&#x173;" d="M570 -135 q-18 0 -26 12 q-7 11 -6 29 q0 19 11 47 q11 28 29 58 l5 0 l0 36 q-41 0 -60 12 q-18 12 -18 42 l0 329 l-208 -16 l0 -35 q44 1 61 -10 q17 -11 16 -40 l0 -175 q-5 -29 -28 -68 q-23 -39 -62 -43 q-23 -1 -34 13 q-11 14 -11 52 l0 322 l-209 -16 l0 -35 q44 1 61 -10 q18 -11 17 -40 l0 -234 q1 -64 37 -84 q36 -21 89 -19 q74 3 103 31 q29 28 39 52 l0 -80 l172 13 q-41 -29 -73 -63 q-33 -35 -35 -67 q1 -28 18 -41 q18 -14 45 -14 q48 1 80 11 q33 9 34 10 l0 22 q-1 0 -14 0 q-14 -1 -33 -1 l0 0 Z" /><glyph glyph-name="" unicode="&#x16f;" d="M279 480 q44 1 73 23 q29 22 30 53 q-1 34 -30 57 q-29 22 -73 23 q-44 -1 -73 -23 q-29 -23 -30 -57 q1 -31 30 -53 q29 -22 73 -23 l0 0 ZM279 523 q-15 0 -25 10 q-10 10 -10 24 q0 14 10 24 q10 10 25 10 q15 0 26 -10 q10 -10 10 -24 q0 -14 -10 -24 q-11 -10 -26 -10 l0 0 ZM234 -8 q74 3 103 31 q29 28 39 52 l0 -80 l207 16 l0 36 q-41 0 -60 12 q-18 12 -18 42 l0 329 l-208 -16 l0 -35 q44 1 61 -10 q17 -11 16 -40 l0 -175 q-5 -29 -28 -68 q-23 -39 -62 -43 q-23 -1 -34 13 q-11 14 -11 52 l0 322 l-209 -16 l0 -35 q44 1 61 -10 q18 -11 17 -40 l0 -234 q1 -64 37 -84 q36 -21 89 -19 l0 0 Z" /><glyph glyph-name="" unicode="&#x169;" d="M334 491 q31 4 46 44 q15 41 20 73 l-13 0 q1 -2 -10 -17 q-10 -16 -40 -18 q-32 2 -61 18 q-29 16 -64 18 q-31 -4 -45 -44 q-14 -41 -21 -73 l13 0 q-1 2 10 18 q10 15 40 17 q29 -2 60 -18 q31 -16 65 -18 l0 0 ZM234 -8 q74 3 103 31 q29 28 39 52 l0 -80 l207 16 l0 36 q-41 0 -60 12 q-18 12 -18 42 l0 329 l-208 -16 l0 -35 q44 1 61 -10 q17 -11 16 -40 l0 -175 q-5 -29 -28 -68 q-23 -39 -62 -43 q-23 -1 -34 13 q-11 14 -11 52 l0 322 l-209 -16 l0 -35 q44 1 61 -10 q18 -11 17 -40 l0 -234 q1 -64 37 -84 q36 -21 89 -19 l0 0 Z" /><glyph glyph-name="" unicode="v" d="M216 2 l70 0 q6 16 55 148 q50 131 67 180 q11 29 33 40 q21 11 53 10 l0 34 l-176 0 l0 -34 q50 0 58 -11 q9 -12 -2 -40 l-76 -201 q-4 8 -41 82 q-38 74 -54 117 q-12 30 1 42 q13 11 64 11 l0 34 l-288 0 l0 -34 q31 0 52 -11 q20 -12 33 -39 l151 -328 Z" /><glyph glyph-name="" unicode="w" d="M519 414 l0 -34 q50 0 59 -11 q9 -12 -3 -40 q-9 -27 -28 -76 q-19 -50 -43 -110 l-97 237 q18 0 30 0 q12 0 21 0 l0 34 l-173 0 l0 -34 q49 0 55 -9 q7 -8 0 -22 q-12 -36 -37 -115 q-25 -80 -28 -89 l-70 182 q-13 31 0 42 q14 12 65 11 l0 34 l-290 0 l0 -34 q32 0 53 -11 q22 -12 33 -39 l134 -330 l70 0 l68 226 l86 -226 l60 0 l133 330 q12 29 34 40 q21 11 52 10 l0 34 l-184 0 Z" /><glyph glyph-name="" unicode="&#x1e83;" d="M503 657 l-117 0 l-57 -178 l24 0 l150 178 ZM519 414 l0 -34 q50 0 59 -11 q9 -12 -3 -40 q-9 -27 -28 -76 q-19 -50 -43 -110 l-97 237 q18 0 30 0 q12 0 21 0 l0 34 l-173 0 l0 -34 q49 0 55 -9 q7 -8 0 -22 q-12 -36 -37 -115 q-25 -80 -28 -89 l-70 182 q-13 31 0 42 q14 12 65 11 l0 34 l-290 0 l0 -34 q32 0 53 -11 q22 -12 33 -39 l134 -330 l70 0 l68 226 l86 -226 l60 0 l133 330 q12 29 34 40 q21 11 52 10 l0 34 l-184 0 Z" /><glyph glyph-name="" unicode="&#x175;" d="M355 556 l96 -86 l38 0 l-100 145 l-68 0 l-100 -145 l38 0 l96 86 ZM519 414 l0 -34 q50 0 59 -11 q9 -12 -3 -40 q-9 -27 -28 -76 q-19 -50 -43 -110 l-97 237 q18 0 30 0 q12 0 21 0 l0 34 l-173 0 l0 -34 q49 0 55 -9 q7 -8 0 -22 q-12 -36 -37 -115 q-25 -80 -28 -89 l-70 182 q-13 31 0 42 q14 12 65 11 l0 34 l-290 0 l0 -34 q32 0 53 -11 q22 -12 33 -39 l134 -330 l70 0 l68 226 l86 -226 l60 0 l133 330 q12 29 34 40 q21 11 52 10 l0 34 l-184 0 Z" /><glyph glyph-name="" unicode="&#x1e85;" d="M257 493 q27 1 45 18 q17 18 18 42 q-1 26 -18 44 q-18 18 -45 19 q-26 -1 -41 -19 q-16 -18 -16 -44 q0 -24 16 -42 q15 -17 41 -18 l0 0 ZM450 493 q27 1 45 18 q18 18 19 42 q-1 26 -19 44 q-18 18 -45 19 q-25 -1 -40 -19 q-16 -18 -16 -44 q0 -24 16 -42 q15 -17 40 -18 l0 0 ZM519 414 l0 -34 q50 0 59 -11 q9 -12 -3 -40 q-9 -27 -28 -76 q-19 -50 -43 -110 l-97 237 q18 0 30 0 q12 0 21 0 l0 34 l-173 0 l0 -34 q49 0 55 -9 q7 -8 0 -22 q-12 -36 -37 -115 q-25 -80 -28 -89 l-70 182 q-13 31 0 42 q14 12 65 11 l0 34 l-290 0 l0 -34 q32 0 53 -11 q22 -12 33 -39 l134 -330 l70 0 l68 226 l86 -226 l60 0 l133 330 q12 29 34 40 q21 11 52 10 l0 34 l-184 0 Z" /><glyph glyph-name="" unicode="&#x1e81;" d="M388 479 l-59 176 l-115 0 l136 -176 l38 0 ZM519 414 l0 -34 q50 0 59 -11 q9 -12 -3 -40 q-9 -27 -28 -76 q-19 -50 -43 -110 l-97 237 q18 0 30 0 q12 0 21 0 l0 34 l-173 0 l0 -34 q49 0 55 -9 q7 -8 0 -22 q-12 -36 -37 -115 q-25 -80 -28 -89 l-70 182 q-13 31 0 42 q14 12 65 11 l0 34 l-290 0 l0 -34 q32 0 53 -11 q22 -12 33 -39 l134 -330 l70 0 l68 226 l86 -226 l60 0 l133 330 q12 29 34 40 q21 11 52 10 l0 34 l-184 0 Z" /><glyph glyph-name="" unicode="x" d="M0 1 l182 0 l0 35 q-41 1 -52 15 q-10 15 5 36 l55 68 q25 -36 31 -45 q6 -10 14 -22 q19 -28 15 -40 q-4 -12 -37 -12 l0 -35 l247 0 l0 35 q-31 0 -49 13 q-19 12 -35 36 l-106 167 l55 75 q17 24 33 39 q16 14 46 14 l0 34 l-143 0 l0 -34 q31 0 34 -14 q3 -14 -18 -42 l-29 -36 l-21 36 q-16 24 -17 40 q-2 15 26 16 l0 34 l-231 0 l0 -34 q30 0 47 -14 q17 -14 33 -39 l86 -142 l-80 -100 q-21 -25 -41 -37 q-20 -12 -50 -12 l0 -35 Z" /><glyph glyph-name="" unicode="y" d="M47 -196 l131 -73 l209 599 q11 29 35 40 q23 11 55 10 l0 34 l-182 0 l0 -34 q50 0 58 -12 q7 -12 -3 -39 l-61 -173 l-94 171 q-15 28 -5 41 q10 12 60 12 l0 34 l-270 0 l1 -41 q38 -1 51 -14 q14 -13 21 -29 l194 -330 l-200 -196 Z" /><glyph glyph-name="" unicode="ý" d="M236 479 l24 0 l150 178 l-117 0 l-57 -178 ZM47 -196 l131 -73 l209 599 q11 29 35 40 q23 11 55 10 l0 34 l-182 0 l0 -34 q50 0 58 -12 q7 -12 -3 -39 l-61 -173 l-94 171 q-15 28 -5 41 q10 12 60 12 l0 34 l-270 0 l1 -41 q38 -1 51 -14 q14 -13 21 -29 l194 -330 l-200 -196 Z" /><glyph glyph-name="" unicode="&#x177;" d="M128 470 l38 0 l96 86 l96 -86 l38 0 l-100 145 l-68 0 l-100 -145 ZM47 -196 l131 -73 l209 599 q11 29 35 40 q23 11 55 10 l0 34 l-182 0 l0 -34 q50 0 58 -12 q7 -12 -3 -39 l-61 -173 l-94 171 q-15 28 -5 41 q10 12 60 12 l0 34 l-270 0 l1 -41 q38 -1 51 -14 q14 -13 21 -29 l194 -330 l-200 -196 Z" /><glyph glyph-name="" unicode="ÿ" d="M164 493 q27 1 45 18 q17 18 18 42 q-1 26 -18 44 q-18 18 -45 19 q-26 -1 -41 -19 q-16 -18 -16 -44 q0 -24 16 -42 q15 -17 41 -18 l0 0 ZM357 493 q27 1 45 18 q18 18 19 42 q-1 26 -19 44 q-18 18 -45 19 q-25 -1 -40 -19 q-16 -18 -16 -44 q0 -24 16 -42 q15 -17 40 -18 l0 0 ZM47 -196 l131 -73 l209 599 q11 29 35 40 q23 11 55 10 l0 34 l-182 0 l0 -34 q50 0 58 -12 q7 -12 -3 -39 l-61 -173 l-94 171 q-15 28 -5 41 q10 12 60 12 l0 34 l-270 0 l1 -41 q38 -1 51 -14 q14 -13 21 -29 l194 -330 l-200 -196 Z" /><glyph glyph-name="" unicode="&#x1ef5;" d="M47 -196 l131 -73 l209 599 q11 29 35 40 q23 11 55 10 l0 34 l-182 0 l0 -34 q50 0 58 -12 q7 -12 -3 -39 l-61 -173 l-94 171 q-15 28 -5 41 q10 12 60 12 l0 34 l-270 0 l1 -41 q38 -1 51 -14 q14 -13 21 -29 l194 -330 l-200 -196 ZM224 -435 q28 1 47 20 q19 19 20 47 q-1 27 -20 45 q-19 18 -47 19 q-28 -1 -47 -19 q-19 -18 -20 -45 q1 -28 20 -47 q19 -19 47 -20 l0 0 Z" /><glyph glyph-name="" unicode="&#x1ef3;" d="M257 479 l38 0 l-59 176 l-115 0 l136 -176 ZM47 -196 l131 -73 l209 599 q11 29 35 40 q23 11 55 10 l0 34 l-182 0 l0 -34 q50 0 58 -12 q7 -12 -3 -39 l-61 -173 l-94 171 q-15 28 -5 41 q10 12 60 12 l0 34 l-270 0 l1 -41 q38 -1 51 -14 q14 -13 21 -29 l194 -330 l-200 -196 Z" /><glyph glyph-name="" unicode="&#x1ef7;" d="M251 467 q19 6 56 42 q38 35 42 78 q0 29 -22 50 q-21 20 -62 21 q-55 -5 -85 -43 q-31 -38 -31 -43 l4 -5 q7 7 26 18 q19 10 43 11 q31 -2 42 -20 q12 -19 11 -36 q-1 -25 -10 -42 q-10 -16 -19 -26 l5 -5 ZM47 -196 l131 -73 l209 599 q11 29 35 40 q23 11 55 10 l0 34 l-182 0 l0 -34 q50 0 58 -12 q7 -12 -3 -39 l-61 -173 l-94 171 q-15 28 -5 41 q10 12 60 12 l0 34 l-270 0 l1 -41 q38 -1 51 -14 q14 -13 21 -29 l194 -330 l-200 -196 Z" /><glyph glyph-name="" unicode="&#x1ef9;" d="M308 491 q31 4 46 44 q15 41 20 73 l-13 0 q1 -2 -10 -17 q-10 -16 -40 -18 q-32 2 -61 18 q-29 16 -64 18 q-31 -4 -45 -44 q-14 -41 -21 -73 l13 0 q-1 2 10 18 q10 15 40 17 q29 -2 60 -18 q31 -16 65 -18 l0 0 ZM47 -196 l131 -73 l209 599 q11 29 35 40 q23 11 55 10 l0 34 l-182 0 l0 -34 q50 0 58 -12 q7 -12 -3 -39 l-61 -173 l-94 171 q-15 28 -5 41 q10 12 60 12 l0 34 l-270 0 l1 -41 q38 -1 51 -14 q14 -13 21 -29 l194 -330 l-200 -196 Z" /><glyph glyph-name="" unicode="z" d="M30 0 l338 0 l0 138 l-15 0 q-13 -55 -35 -74 q-21 -18 -75 -17 l-56 0 l201 364 l-325 0 l0 -122 l15 0 q10 41 28 58 q19 17 69 16 q20 0 40 1 q20 0 22 0 l-207 -364 Z" /><glyph glyph-name="" unicode="&#x17a;" d="M194 475 l24 0 l150 178 l-117 0 l-57 -178 ZM30 0 l338 0 l0 138 l-15 0 q-13 -55 -35 -74 q-21 -18 -75 -17 l-56 0 l201 364 l-325 0 l0 -122 l15 0 q10 41 28 58 q19 17 69 16 q20 0 40 1 q20 0 22 0 l-207 -364 Z" /><glyph glyph-name="" unicode="&#x17e;" d="M197 491 l68 0 l100 149 l-24 0 l-110 -77 l-111 77 l-23 0 l100 -149 ZM30 0 l338 0 l0 138 l-15 0 q-13 -55 -35 -74 q-21 -18 -75 -17 l-56 0 l201 364 l-325 0 l0 -122 l15 0 q10 41 28 58 q19 17 69 16 q20 0 40 1 q20 0 22 0 l-207 -364 Z" /><glyph glyph-name="" unicode="&#x17c;" d="M222 480 q28 1 47 20 q19 19 20 47 q-1 27 -20 45 q-19 18 -47 19 q-28 -1 -47 -19 q-19 -18 -20 -45 q1 -28 20 -47 q19 -19 47 -20 l0 0 ZM30 0 l338 0 l0 138 l-15 0 q-13 -55 -35 -74 q-21 -18 -75 -17 l-56 0 l201 364 l-325 0 l0 -122 l15 0 q10 41 28 58 q19 17 69 16 q20 0 40 1 q20 0 22 0 l-207 -364 Z" /><glyph glyph-name="" unicode="&#xfb01;" d="M578 90 l0 340 l-7 -1 l102 150 q1 8 -63 67 q-65 59 -214 68 q-141 -4 -211 -83 q-71 -79 -71 -187 l0 -30 l-80 0 l0 -52 l80 0 l0 -272 q-1 -34 -27 -44 q-25 -9 -57 -8 l0 -38 l313 0 l0 38 q-51 -1 -74 10 q-24 11 -24 44 l0 270 l192 0 q10 -12 10 -36 l0 -238 q-1 -34 -27 -44 q-25 -10 -57 -9 l0 -35 l299 0 l0 35 q-32 -1 -57 11 q-26 11 -27 44 l0 0 ZM245 414 l0 124 q-1 51 32 91 q33 40 119 42 q115 -4 148 -76 q33 -72 -8 -168 l-174 -13 l-117 0 Z" /><glyph glyph-name="" unicode="&#xfb02;" d="M573 93 l0 568 q-3 3 -61 27 q-58 23 -133 26 q-131 -4 -198 -83 q-67 -79 -67 -187 l0 -30 l-80 0 l0 -52 l80 0 l0 -272 q-1 -34 -27 -44 q-25 -9 -57 -8 l0 -38 l313 0 l0 38 q-51 -1 -74 10 q-24 11 -24 44 l0 270 l143 0 l0 52 l-143 0 l0 144 q0 50 25 81 q25 31 77 32 q55 -1 74 -27 q19 -26 20 -65 l0 -488 q-1 -34 -27 -44 q-25 -9 -57 -8 l0 -39 l300 0 l0 39 q-33 -1 -58 10 q-25 11 -26 44 l0 0 Z" /><glyph glyph-name="" unicode="ª" d="M139 371 q26 -1 50 12 q23 13 31 48 l0 -56 l145 0 l0 12 q-24 -1 -36 10 q-13 11 -13 50 l0 167 q-3 46 -42 66 q-39 20 -79 20 q-53 -2 -94 -12 q-42 -11 -44 -13 l26 -98 l25 0 q-3 27 9 57 q12 30 48 32 q31 0 41 -21 q10 -22 9 -61 l0 -41 q-84 0 -125 -26 q-41 -26 -41 -76 q0 -40 24 -56 q23 -15 66 -14 l0 0 ZM181 417 q-15 0 -26 12 q-11 12 -11 32 q1 29 21 42 q21 13 51 13 l0 -44 q0 -21 -7 -38 q-8 -16 -28 -17 l0 0 Z" /><glyph glyph-name="" unicode="º" d="M198 369 q83 2 126 49 q44 46 44 114 q0 70 -44 116 q-43 46 -126 48 q-83 -2 -126 -48 q-42 -46 -42 -116 q0 -68 42 -114 q43 -47 126 -49 l0 0 ZM198 390 q-34 1 -52 39 q-19 38 -19 103 q0 65 19 104 q18 39 52 40 q35 -1 55 -40 q19 -39 19 -104 q0 -65 -19 -103 q-20 -38 -55 -39 l0 0 Z" /><glyph glyph-name="" unicode="&#x394;" d="M43 0 l691 0 l-277 700 l-137 0 l-277 -700 ZM220 64 l169 461 l168 -461 l-337 0 Z" /><glyph glyph-name="" unicode="&#x3a9;" d="M80 0 l307 0 l0 37 q-51 16 -110 87 q-58 71 -63 236 q-1 126 60 214 q60 87 189 91 q129 -4 188 -91 q60 -88 59 -214 q-5 -165 -62 -235 q-58 -71 -109 -88 l0 -37 l306 0 l0 37 l-239 0 q92 34 171 106 q78 72 83 217 q-6 159 -122 253 q-116 95 -275 97 q-159 -2 -275 -97 q-117 -94 -123 -253 q5 -145 84 -217 q79 -72 171 -106 l-240 0 l0 -37 Z" /><glyph glyph-name="" unicode="&#x3bc;" d="M100 -256 l124 0 l0 266 q20 -20 50 -20 q30 0 22 2 q46 3 57 36 q11 33 15 57 l0 -90 l207 16 l0 36 q-41 0 -60 12 q-18 12 -18 42 l0 329 l-208 -16 l0 -35 q44 1 61 -10 q17 -11 16 -40 l0 -180 q0 -21 -10 -62 q-9 -42 -59 -47 q-42 1 -54 32 q-13 32 -12 80 l0 278 l-209 -16 l0 -35 q44 1 61 -10 q18 -11 17 -40 l0 -585 Z" /><glyph glyph-name="" unicode="&#x3c0;" d="M604 -15 l0 8 q-1 0 -9 13 q-9 12 -25 42 q-21 44 -28 142 q-6 98 4 178 l87 0 l0 46 l-590 0 l0 -46 l85 0 q12 -89 6 -187 q-5 -98 -23 -180 l135 0 q16 84 20 181 q5 98 -7 186 l154 0 q-10 -72 -5 -167 q4 -95 28 -145 q25 -43 69 -58 q44 -14 99 -13 l0 0 Z" /><glyph glyph-name="" unicode="0" d="M317 -10 q115 -1 189 87 q74 88 76 273 q-2 185 -76 273 q-74 89 -189 88 q-116 1 -190 -88 q-74 -88 -77 -273 q3 -185 77 -273 q74 -88 190 -87 l0 0 ZM317 28 q-82 7 -102 109 q-20 102 -17 213 q-3 112 17 214 q20 102 102 109 q82 -7 102 -109 q21 -102 18 -214 q3 -111 -18 -213 q-20 -102 -102 -109 l0 0 Z" /><glyph glyph-name="" unicode="1" d="M50 0 l448 0 l0 36 q-59 -2 -100 10 q-42 13 -44 67 l0 599 l-284 -121 l0 -35 l146 48 l0 -491 q-2 -52 -51 -65 q-49 -14 -115 -12 l0 -36 Z" /><glyph glyph-name="" unicode="2" d="M50 -1 l483 0 l0 1 l1 -1 l0 208 l-35 0 q-15 -52 -36 -68 q-21 -16 -54 -14 l-210 0 q177 155 240 251 q63 95 59 185 q1 82 -41 116 q-43 34 -146 34 q-79 -1 -147 -15 q-69 -14 -73 -16 l0 -183 l37 0 q10 85 45 127 q35 41 81 41 q64 -2 89 -34 q25 -32 24 -75 q9 -67 -43 -195 q-52 -128 -274 -347 l0 -15 Z" /><glyph glyph-name="" unicode="3" d="M222 -3 q126 3 205 64 q79 62 81 147 q-2 107 -65 158 q-63 51 -163 55 q33 10 99 47 q66 36 74 107 q-2 77 -61 107 q-59 30 -150 29 q-72 -2 -117 -19 q-44 -17 -45 -19 l0 -156 l35 0 q1 93 32 122 q31 29 76 26 q39 0 64 -20 q25 -21 26 -68 q5 -57 -26 -107 q-30 -49 -152 -72 l6 -52 q1 2 30 13 q28 12 68 14 q80 -2 104 -51 q24 -49 22 -119 q1 -70 -30 -115 q-32 -45 -111 -46 q-62 0 -94 32 q-33 32 -33 101 l-37 0 l0 -149 q3 -2 51 -14 q48 -13 111 -15 l0 0 Z" /><glyph glyph-name="" unicode="4" d="M189 0 l386 0 l0 36 q-49 -2 -82 10 q-33 13 -34 67 l0 76 l103 0 l0 44 l-103 0 l0 246 l-139 0 l0 -246 l-216 0 l363 503 l-162 0 l-255 -523 l0 -24 l270 0 l0 -76 q-2 -52 -41 -65 q-40 -14 -90 -12 l0 -36 Z" /><glyph glyph-name="" unicode="5" d="M126 434 l59 161 l102 0 q33 2 54 -14 q21 -15 35 -67 l36 0 l0 186 l-269 0 l-53 -301 q128 5 192 -33 q64 -39 64 -135 q-5 -126 -54 -161 q-49 -34 -80 -30 q-62 -3 -94 24 q-33 27 -33 118 l-35 0 l0 -163 q2 -1 50 -11 q47 -10 111 -11 q124 3 200 65 q76 61 78 146 q-2 130 -99 185 q-98 54 -264 41 l0 0 Z" /><glyph glyph-name="" unicode="6" d="M317 -10 q108 1 181 52 q72 51 75 145 q-1 64 -50 118 q-50 55 -141 58 q-61 -2 -97 -19 q-36 -18 -48 -30 l0 -38 q13 11 36 20 q23 9 57 9 q44 -1 70 -35 q26 -34 27 -93 q0 -60 -27 -104 q-27 -43 -83 -45 q-75 0 -97 56 q-21 56 -19 174 q2 174 79 284 q77 110 205 160 l0 37 q-110 -25 -265 -141 q-155 -117 -170 -340 q4 -126 82 -196 q78 -71 185 -72 l0 0 Z" /><glyph glyph-name="" unicode="7" d="M54 -35 l162 0 l278 727 l0 8 l-444 0 l0 -168 l32 0 q7 48 37 68 q30 20 103 26 l203 20 l-371 -681 Z" /><glyph glyph-name="" unicode="8" d="M287 -10 q116 0 187 46 q70 45 72 136 q-1 77 -48 125 q-47 49 -130 93 q49 16 88 66 q38 50 40 108 q-1 80 -54 115 q-53 34 -150 33 q-101 0 -161 -40 q-61 -39 -63 -112 q0 -60 39 -106 q38 -47 109 -91 q-50 -12 -105 -60 q-56 -47 -61 -123 q-1 -87 57 -138 q58 -51 180 -52 l0 0 ZM333 409 q-58 37 -97 71 q-38 34 -40 88 q0 53 26 76 q25 22 70 21 q32 1 57 -21 q26 -23 27 -76 q-1 -77 -15 -111 q-14 -34 -28 -48 l0 0 ZM287 37 q-44 -4 -78 21 q-33 24 -35 122 q2 83 27 117 q25 33 46 44 q71 -45 120 -87 q49 -42 51 -85 q-2 -75 -41 -104 q-38 -29 -90 -28 l0 0 Z" /><glyph glyph-name="" unicode="9" d="M138 -35 q110 25 265 142 q155 116 170 339 q-4 126 -82 196 q-78 71 -185 72 q-108 -1 -180 -52 q-73 -51 -76 -145 q1 -63 51 -118 q49 -54 140 -58 q61 2 97 19 q36 18 48 30 l0 38 q-13 -11 -36 -20 q-23 -8 -57 -9 q-44 1 -70 35 q-26 34 -27 93 q0 61 27 104 q27 43 83 45 q75 0 97 -56 q21 -56 19 -174 q-2 -174 -79 -284 q-77 -110 -205 -160 l0 -37 Z" /><glyph glyph-name="" unicode="&#x2070;" d="M202 295 q68 -2 112 48 q44 49 46 167 q-2 119 -46 168 q-44 50 -112 48 q-69 2 -113 -48 q-44 -49 -46 -168 q2 -118 46 -167 q44 -50 113 -48 l0 0 ZM202 324 q-50 3 -62 57 q-13 55 -11 129 q-2 75 11 130 q12 54 62 57 q50 -3 63 -57 q13 -55 11 -130 q2 -74 -11 -129 q-13 -54 -63 -57 l0 0 Z" /><glyph glyph-name="" unicode="¹" d="M224 375 l0 362 l-169 -73 l0 -26 l88 28 l0 -291 q-2 -33 -31 -41 q-30 -8 -69 -7 l0 -27 l267 0 l0 27 q-36 -1 -60 7 q-25 8 -26 41 l0 0 Z" /><glyph glyph-name="" unicode="²" d="M28 298 l288 0 l0 123 l-28 0 q-8 -31 -21 -40 q-13 -10 -33 -9 l-120 0 q106 93 145 152 q38 59 36 113 q1 49 -25 69 q-26 19 -87 20 q-47 -1 -87 -10 q-40 -9 -43 -10 l0 -94 l28 0 q9 50 25 66 q16 15 43 14 q39 -1 55 -17 q16 -16 15 -41 q5 -41 -26 -119 q-32 -78 -165 -209 l0 -8 Z" /><glyph glyph-name="" unicode="³" d="M143 299 q75 2 122 39 q48 36 49 87 q-1 64 -39 95 q-39 30 -100 33 q18 5 60 27 q41 21 46 65 q-1 46 -37 64 q-35 18 -89 17 q-48 -1 -72 -11 q-24 -11 -24 -12 l0 -91 l27 0 q8 55 20 69 q12 13 37 11 q28 0 42 -11 q14 -11 14 -35 q3 -34 -16 -64 q-18 -30 -91 -45 l4 -36 q1 1 17 8 q17 7 40 8 q49 -1 64 -27 q14 -27 13 -68 q1 -42 -19 -66 q-19 -24 -67 -25 q-36 -1 -53 16 q-16 16 -16 57 l-28 0 l0 -87 q2 -1 30 -9 q29 -8 66 -9 l0 0 Z" /><glyph glyph-name="" unicode="&#x2074;" d="M280 375 l0 39 l62 0 l0 33 l-62 0 q1 56 2 97 q2 41 -2 42 l-81 -20 l0 -119 l-119 0 l204 298 l-94 0 l-153 -317 l0 -14 l162 0 l0 -39 q-1 -33 -25 -41 q-23 -8 -53 -7 l0 -27 l229 0 l0 27 q-29 -1 -49 7 q-20 8 -21 41 l0 0 Z" /><glyph glyph-name="" unicode="&#x2075;" d="M141 297 q74 2 119 38 q46 36 47 87 q-1 78 -60 112 q-58 33 -158 25 l36 103 l54 0 q19 1 32 -8 q12 -9 21 -40 l29 0 l0 107 l-159 0 l-32 -189 q77 3 115 -17 q38 -21 38 -79 q-3 -76 -33 -93 q-29 -18 -48 -15 q-36 -2 -53 10 q-16 13 -16 67 l-27 0 l0 -95 q2 -1 30 -6 q27 -6 65 -7 l0 0 Z" /><glyph glyph-name="" unicode="&#x2076;" d="M208 295 q64 0 108 31 q43 30 45 86 q0 38 -30 71 q-30 32 -84 34 q-39 -1 -58 -11 q-20 -10 -28 -18 l0 -29 q4 6 17 11 q13 6 38 6 q27 0 43 -17 q17 -18 17 -53 q0 -36 -17 -59 q-17 -22 -51 -23 q-46 -1 -59 30 q-13 30 -11 101 q1 104 47 167 q46 62 123 91 l0 29 q-67 -16 -158 -85 q-92 -70 -101 -202 q2 -75 49 -117 q47 -42 110 -43 l0 0 Z" /><glyph glyph-name="" unicode="&#x2077;" d="M62 276 l84 0 l167 439 l0 4 l-264 0 l0 -99 l27 0 q8 46 25 54 q17 8 60 6 l93 0 l-192 -404 Z" /><glyph glyph-name="" unicode="&#x2078;" d="M236 540 q31 8 56 36 q24 27 25 62 q0 48 -32 68 q-31 21 -90 20 q-59 0 -96 -24 q-36 -23 -37 -66 q0 -36 24 -64 q24 -28 67 -55 q-29 -5 -64 -31 q-34 -26 -37 -78 q0 -51 34 -82 q34 -30 106 -31 q69 0 112 27 q42 28 43 81 q-1 51 -31 81 q-30 30 -80 56 l0 0 ZM142 641 q1 31 16 42 q15 10 37 9 q20 1 33 -9 q13 -10 13 -42 q-1 -37 -8 -58 q-7 -22 -9 -29 q-31 18 -56 36 q-25 17 -26 51 l0 0 ZM192 328 q-26 -3 -44 9 q-17 12 -18 71 q2 49 16 72 q15 22 24 26 q5 -3 5 -3 q0 0 3 -1 q34 -19 62 -41 q27 -23 29 -60 q-1 -44 -23 -59 q-22 -15 -54 -14 l0 0 Z" /><glyph glyph-name="" unicode="&#x2079;" d="M90 271 q67 16 158 89 q92 73 101 207 q-2 74 -49 118 q-47 44 -110 45 q-64 0 -108 -32 q-43 -32 -45 -90 q0 -38 30 -70 q30 -32 84 -34 q39 1 58 11 q20 10 28 19 l0 27 q-4 -5 -17 -11 q-13 -5 -38 -6 q-27 0 -43 18 q-17 17 -17 52 q0 36 17 62 q17 25 51 26 q46 0 59 -32 q13 -33 11 -103 q-1 -106 -47 -172 q-46 -67 -123 -97 l0 -27 Z" /><glyph glyph-name="" unicode="&#x2044;" d="M-110 -3 l46 0 l335 706 l-45 0 l-336 -706 Z" /><glyph glyph-name="" unicode="½" d="M310 327 q-36 -1 -60 7 q-25 8 -26 41 l0 362 l-169 -73 l0 -26 l88 28 l0 -291 q-2 -33 -31 -41 q-30 -8 -69 -7 l0 -27 l267 0 l0 27 ZM573 703 l-336 -706 l46 0 l335 706 l-45 0 ZM796 121 q-8 -31 -21 -40 q-13 -10 -33 -9 l-120 0 q106 93 145 152 q38 59 36 113 q1 49 -25 69 q-26 19 -87 20 q-47 -1 -87 -10 q-40 -9 -43 -10 l0 -94 l28 0 q9 50 25 66 q16 15 43 14 q39 -1 55 -17 q16 -16 15 -41 q5 -41 -26 -119 q-32 -78 -165 -209 l0 -8 l288 0 l0 123 l-28 0 Z" /><glyph glyph-name="" unicode="¼" d="M310 327 q-36 -1 -60 7 q-25 8 -26 41 l0 362 l-169 -73 l0 -26 l88 28 l0 -291 q-2 -33 -31 -41 q-30 -8 -69 -7 l0 -27 l267 0 l0 27 ZM573 703 l-336 -706 l46 0 l335 706 l-45 0 ZM788 75 l0 39 l62 0 l0 33 l-62 0 q1 56 2 97 q2 41 -2 42 l-81 -20 l0 -119 l-119 0 l204 298 l-94 0 l-153 -317 l0 -14 l162 0 l0 -39 q-1 -33 -25 -41 q-23 -8 -53 -7 l0 -27 l229 0 l0 27 q-29 -1 -49 7 q-20 8 -21 41 l0 0 Z" /><glyph glyph-name="" unicode="¾" d="M314 425 q-1 64 -39 95 q-39 30 -100 33 q18 5 60 27 q41 21 46 65 q-1 46 -37 64 q-35 18 -89 17 q-48 -1 -72 -11 q-24 -11 -24 -12 l0 -91 l27 0 q8 55 20 69 q12 13 37 11 q28 0 42 -11 q14 -11 14 -35 q3 -34 -16 -64 q-18 -30 -91 -45 l4 -36 q1 1 17 8 q17 7 40 8 q49 -1 64 -27 q14 -27 13 -68 q1 -42 -19 -66 q-19 -24 -67 -25 q-36 -1 -53 16 q-16 16 -16 57 l-28 0 l0 -87 q2 -1 30 -9 q29 -8 66 -9 q75 2 122 39 q48 36 49 87 l0 0 ZM580 703 l-336 -706 l46 0 l335 706 l-45 0 ZM795 75 l0 39 l62 0 l0 33 l-62 0 q1 56 2 97 q2 41 -2 42 l-81 -20 l0 -119 l-119 0 l204 298 l-94 0 l-153 -317 l0 -14 l162 0 l0 -39 q-1 -33 -25 -41 q-23 -8 -53 -7 l0 -27 l229 0 l0 27 q-29 -1 -49 7 q-20 8 -21 41 l0 0 Z" /><glyph glyph-name="" unicode="&#x215b;" d="M310 327 q-36 -1 -60 7 q-25 8 -26 41 l0 362 l-169 -73 l0 -26 l88 28 l0 -291 q-2 -33 -31 -41 q-30 -8 -69 -7 l0 -27 l267 0 l0 27 ZM573 703 l-336 -706 l46 0 l335 706 l-45 0 ZM744 240 q31 8 56 36 q24 27 25 62 q0 48 -32 68 q-31 21 -90 20 q-59 0 -96 -24 q-36 -23 -37 -66 q0 -36 24 -64 q24 -28 67 -55 q-29 -5 -64 -31 q-34 -26 -37 -78 q0 -51 34 -82 q34 -30 106 -31 q69 0 112 27 q42 28 43 81 q-1 51 -31 81 q-30 30 -80 56 l0 0 ZM650 341 q1 31 16 42 q15 10 37 9 q20 1 33 -9 q13 -10 13 -42 q-1 -37 -8 -58 q-7 -22 -9 -29 q-31 18 -56 36 q-25 17 -26 51 l0 0 ZM700 28 q-26 -3 -44 9 q-17 12 -18 71 q2 49 16 72 q15 22 24 26 q5 -3 5 -3 q0 0 3 -1 q34 -19 62 -41 q27 -23 29 -60 q-1 -44 -23 -59 q-22 -15 -54 -14 l0 0 Z" /><glyph glyph-name="" unicode="&#x215c;" d="M143 299 q75 2 122 39 q48 36 49 87 q-1 64 -39 95 q-39 30 -100 33 q18 5 60 27 q41 21 46 65 q-1 46 -37 64 q-35 18 -89 17 q-48 -1 -72 -11 q-24 -11 -24 -12 l0 -91 l27 0 q8 55 20 69 q12 13 37 11 q28 0 42 -11 q14 -11 14 -35 q3 -34 -16 -64 q-18 -30 -91 -45 l4 -36 q1 1 17 8 q17 7 40 8 q49 -1 64 -27 q14 -27 13 -68 q1 -42 -19 -66 q-19 -24 -67 -25 q-36 -1 -53 16 q-16 16 -16 57 l-28 0 l0 -87 q2 -1 30 -9 q29 -8 66 -9 l0 0 ZM244 -3 l46 0 l335 706 l-45 0 l-336 -706 ZM751 240 q31 8 56 36 q24 27 25 62 q0 48 -32 68 q-31 21 -90 20 q-59 0 -96 -24 q-36 -23 -37 -66 q0 -36 24 -64 q24 -28 67 -55 q-29 -5 -64 -31 q-34 -26 -37 -78 q0 -51 34 -82 q34 -30 106 -31 q69 0 112 27 q42 28 43 81 q-1 51 -31 81 q-30 30 -80 56 l0 0 ZM657 341 q1 31 16 42 q15 10 37 9 q20 1 33 -9 q13 -10 13 -42 q-1 -37 -8 -58 q-7 -22 -9 -29 q-31 18 -56 36 q-25 17 -26 51 l0 0 ZM707 28 q-26 -3 -44 9 q-17 12 -18 71 q2 49 16 72 q15 22 24 26 q5 -3 5 -3 q0 0 3 -1 q34 -19 62 -41 q27 -23 29 -60 q-1 -44 -23 -59 q-22 -15 -54 -14 l0 0 Z" /><glyph glyph-name="" unicode="&#x215d;" d="M141 297 q74 2 119 38 q46 36 47 87 q-1 78 -60 112 q-58 33 -158 25 l36 103 l54 0 q19 1 32 -8 q12 -9 21 -40 l29 0 l0 107 l-159 0 l-32 -189 q77 3 115 -17 q38 -21 38 -79 q-3 -76 -33 -93 q-29 -18 -48 -15 q-36 -2 -53 10 q-16 13 -16 67 l-27 0 l0 -95 q2 -1 30 -6 q27 -6 65 -7 l0 0 ZM249 -3 l46 0 l335 706 l-45 0 l-336 -706 ZM756 240 q31 8 56 36 q24 27 25 62 q0 48 -32 68 q-31 21 -90 20 q-59 0 -96 -24 q-36 -23 -37 -66 q0 -36 24 -64 q24 -28 67 -55 q-29 -5 -64 -31 q-34 -26 -37 -78 q0 -51 34 -82 q34 -30 106 -31 q69 0 112 27 q42 28 43 81 q-1 51 -31 81 q-30 30 -80 56 l0 0 ZM662 341 q1 31 16 42 q15 10 37 9 q20 1 33 -9 q13 -10 13 -42 q-1 -37 -8 -58 q-7 -22 -9 -29 q-31 18 -56 36 q-25 17 -26 51 l0 0 ZM712 28 q-26 -3 -44 9 q-17 12 -18 71 q2 49 16 72 q15 22 24 26 q5 -3 5 -3 q0 0 3 -1 q34 -19 62 -41 q27 -23 29 -60 q-1 -44 -23 -59 q-22 -15 -54 -14 l0 0 Z" /><glyph glyph-name="" unicode="&#x215e;" d="M62 276 l84 0 l167 439 l0 4 l-264 0 l0 -99 l27 0 q8 46 25 54 q17 8 60 6 l93 0 l-192 -404 ZM235 -3 l46 0 l335 706 l-45 0 l-336 -706 ZM742 240 q31 8 56 36 q24 27 25 62 q0 48 -32 68 q-31 21 -90 20 q-59 0 -96 -24 q-36 -23 -37 -66 q0 -36 24 -64 q24 -28 67 -55 q-29 -5 -64 -31 q-34 -26 -37 -78 q0 -51 34 -82 q34 -30 106 -31 q69 0 112 27 q42 28 43 81 q-1 51 -31 81 q-30 30 -80 56 l0 0 ZM648 341 q1 31 16 42 q15 10 37 9 q20 1 33 -9 q13 -10 13 -42 q-1 -37 -8 -58 q-7 -22 -9 -29 q-31 18 -56 36 q-25 17 -26 51 l0 0 ZM698 28 q-26 -3 -44 9 q-17 12 -18 71 q2 49 16 72 q15 22 24 26 q5 -3 5 -3 q0 0 3 -1 q34 -19 62 -41 q27 -23 29 -60 q-1 -44 -23 -59 q-22 -15 -54 -14 l0 0 Z" /><glyph glyph-name="" unicode="." d="M139 -8 q34 1 59 23 q24 21 25 55 q-1 34 -25 57 q-25 23 -59 24 q-35 -1 -58 -24 q-23 -23 -24 -57 q1 -34 24 -55 q23 -22 58 -23 l0 0 Z" /><glyph glyph-name="" unicode="," d="M63 -134 q77 12 123 54 q46 42 47 124 q0 43 -22 73 q-23 29 -67 30 q-40 0 -63 -21 q-23 -21 -24 -57 q1 -34 24 -55 q23 -22 53 -23 l31 0 q1 -37 -20 -63 q-21 -26 -82 -44 l0 -18 Z" /><glyph glyph-name="" unicode=":" d="M139 263 q34 1 59 23 q24 21 25 55 q-1 34 -25 57 q-25 23 -59 24 q-35 -1 -58 -24 q-23 -23 -24 -57 q1 -34 24 -55 q23 -22 58 -23 l0 0 ZM139 -8 q34 1 59 23 q24 21 25 55 q-1 34 -25 57 q-25 23 -59 24 q-35 -1 -58 -24 q-23 -23 -24 -57 q1 -34 24 -55 q23 -22 58 -23 l0 0 Z" /><glyph glyph-name="" unicode=";" d="M153 263 q34 1 59 23 q24 21 25 55 q-1 34 -25 57 q-25 23 -59 24 q-35 -1 -58 -24 q-23 -23 -24 -57 q1 -34 24 -55 q23 -22 58 -23 l0 0 ZM63 -132 q77 12 123 54 q46 42 47 124 q0 43 -22 73 q-23 29 -67 30 q-40 0 -63 -21 q-23 -21 -24 -57 q1 -34 24 -55 q23 -22 53 -23 l31 0 q1 -37 -20 -63 q-21 -26 -82 -44 l0 -18 Z" /><glyph glyph-name="" unicode="&#x2026;" d="M148 -9 q30 1 51 20 q21 19 22 48 q-1 29 -22 49 q-21 20 -51 21 q-30 -1 -50 -21 q-20 -20 -21 -49 q1 -29 21 -48 q20 -19 50 -20 l0 0 ZM383 -9 q30 1 51 20 q21 19 22 48 q-1 29 -22 49 q-21 20 -51 21 q-29 -1 -50 -21 q-20 -20 -21 -49 q1 -29 21 -48 q21 -19 50 -20 l0 0 ZM623 -9 q29 1 50 20 q21 19 22 48 q-1 29 -22 49 q-21 20 -50 21 q-30 -1 -51 -21 q-20 -20 -21 -49 q1 -29 21 -48 q21 -19 51 -20 l0 0 Z" /><glyph glyph-name="" unicode="!" d="M134 184 l49 0 l44 401 l3 115 l-143 0 l3 -115 l44 -401 ZM158 -20 q30 1 51 20 q21 19 22 48 q-1 29 -22 49 q-21 20 -51 21 q-30 -1 -50 -21 q-20 -20 -21 -49 q1 -29 21 -48 q20 -19 50 -20 l0 0 Z" /><glyph glyph-name="" unicode="¡" d="M159 294 q30 1 51 21 q20 20 21 49 q-1 29 -21 48 q-21 19 -51 20 q-29 -1 -50 -20 q-21 -19 -22 -48 q1 -29 22 -49 q21 -20 50 -21 l0 0 ZM88 -288 l142 0 l-3 115 l-44 401 l-49 0 l-43 -401 l-3 -115 Z" /><glyph glyph-name="" unicode="?" d="M190 182 l33 6 q-22 26 -29 76 q-6 49 67 120 q37 31 68 70 q30 39 32 86 q-1 73 -45 121 q-45 48 -127 50 q-38 -2 -61 -13 q-24 -11 -25 -13 l0 -74 q2 2 31 16 q28 14 66 16 q29 1 47 -11 q18 -11 19 -43 q-3 -54 -47 -95 q-43 -41 -95 -90 q-69 -90 -9 -154 q60 -65 75 -68 l0 0 ZM178 -6 q30 1 51 20 q21 19 22 48 q-1 29 -22 49 q-21 20 -51 21 q-29 -1 -49 -21 q-20 -20 -21 -49 q1 -29 21 -48 q20 -19 49 -20 l0 0 Z" /><glyph glyph-name="" unicode="¿" d="M249 293 q30 1 50 21 q20 20 21 49 q-1 29 -21 48 q-20 19 -50 20 q-29 -1 -50 -20 q-21 -19 -22 -48 q1 -29 22 -49 q21 -20 50 -21 l0 0 ZM239 -286 q38 2 61 13 q24 11 25 13 l0 74 q-2 -2 -30 -16 q-29 -14 -67 -16 q-29 -1 -47 11 q-18 11 -19 43 q2 49 42 88 q41 40 96 94 q70 91 11 156 q-59 66 -73 69 l-33 -6 q22 -27 28 -77 q6 -51 -65 -120 q-36 -30 -67 -70 q-32 -40 -34 -85 q1 -73 45 -121 q45 -48 127 -50 l0 0 Z" /><glyph glyph-name="" unicode="·" d="M123 263 q30 1 51 20 q21 19 22 48 q-1 29 -22 49 q-21 20 -51 21 q-30 -1 -50 -21 q-20 -20 -21 -49 q1 -29 21 -48 q20 -19 50 -20 l0 0 Z" /><glyph glyph-name="" unicode="&#x2022;" d="M201 191 q71 2 116 48 q45 45 47 116 q-2 69 -47 115 q-45 47 -116 49 q-71 -2 -116 -49 q-46 -46 -48 -115 q2 -71 48 -116 q45 -46 116 -48 l0 0 Z" /><glyph glyph-name="" unicode="*" d="M230 330 q6 0 12 2 q5 3 9 7 q4 4 5 8 q1 5 0 11 q-2 16 -9 70 q-8 55 -11 79 q20 -15 63 -51 q44 -36 56 -45 q8 -6 16 -6 q8 0 13 4 q6 5 9 10 q4 5 5 11 q1 6 -1 11 q-3 11 -14 15 q-15 6 -66 29 q-52 22 -74 33 q23 9 76 28 q53 18 68 24 q11 5 15 14 q1 5 1 12 q-1 6 -3 11 q-3 6 -9 10 q-6 5 -14 5 q-7 0 -15 -5 q-13 -10 -60 -42 q-46 -33 -66 -46 l21 149 q0 12 -7 19 q-3 5 -8 7 q-6 2 -12 2 q-6 0 -12 -2 q-5 -2 -9 -7 q-4 -4 -5 -9 q-1 -5 0 -10 q2 -16 9 -70 q8 -54 11 -78 q-20 15 -63 51 q-44 35 -56 45 q-4 3 -8 4 q-4 1 -8 1 q-8 0 -13 -4 q-6 -4 -9 -9 q-4 -5 -5 -11 q-1 -7 1 -12 q3 -9 14 -14 q15 -7 66 -29 q52 -23 74 -33 q-23 -9 -76 -28 q-53 -19 -68 -25 q-10 -5 -15 -14 q-1 -5 -1 -11 q1 -6 3 -11 q3 -6 9 -10 q6 -5 14 -5 q8 0 15 4 l126 89 q-3 -24 -11 -79 q-8 -55 -10 -71 q0 -12 6 -20 q4 -4 9 -6 q6 -2 12 -2 l0 0 Z" /><glyph glyph-name="" unicode="#" d="M39 0 l123 0 l60 252 l107 0 l-60 -252 l119 0 l60 252 l117 0 l0 28 l-111 0 l38 160 l103 0 l0 28 l-96 0 l55 232 l-119 0 l-55 -232 l-107 0 l55 232 l-123 0 l-55 -232 l-93 0 l0 -28 l86 0 l-38 -160 l-78 0 l0 -28 l72 0 l-60 -252 ZM228 280 l38 160 l107 0 l-38 -160 l-107 0 Z" /><glyph glyph-name="" unicode="/" d="M10 -50 l65 0 l176 790 l-65 0 l-176 -790 Z" /><glyph glyph-name="" unicode="\" d="M193 -50 l65 0 l-176 790 l-65 0 l176 -790 Z" /><glyph glyph-name="" unicode="(" d="M292 -156 l23 7 q-7 4 -58 129 q-52 125 -59 320 q8 193 57 303 q49 109 46 111 l-9 9 q-14 -3 -113 -119 q-100 -116 -114 -302 q14 -189 114 -321 q99 -131 113 -137 l0 0 Z" /><glyph glyph-name="" unicode=")" d="M55 -156 q14 6 114 137 q99 132 113 321 q-14 186 -113 302 q-100 116 -114 119 l-9 -9 q-3 -2 46 -111 q49 -110 57 -303 q-7 -195 -58 -320 q-52 -125 -59 -129 l23 -7 Z" /><glyph glyph-name="" unicode="{" d="M273 -180 l23 0 l0 36 q-21 15 -25 41 q-4 26 -2 41 q2 43 5 158 q4 114 4 128 q0 33 -21 51 q-21 18 -51 22 q30 3 51 21 q21 18 21 51 q0 12 -4 112 q-4 100 -5 141 q-2 15 2 41 q4 26 25 41 l0 35 l-23 0 q-40 0 -84 -22 q-44 -22 -46 -63 q2 -43 5 -144 q4 -101 4 -128 q0 -24 -13 -36 q-14 -13 -46 -26 l-16 -7 l0 -37 l16 -4 q31 -7 46 -23 q14 -16 13 -47 q-1 -28 -4 -141 q-3 -112 -5 -156 q2 -41 46 -63 q44 -22 84 -22 l0 0 Z" /><glyph glyph-name="" unicode="}" d="M76 -180 l23 0 q40 0 84 22 q44 22 46 63 q-2 44 -5 156 q-3 113 -4 141 q-1 31 13 47 q15 16 46 23 l16 4 l0 37 l-16 7 q-33 13 -46 26 q-13 12 -13 36 q0 27 4 128 q3 101 5 144 q-2 41 -46 63 q-44 22 -84 22 l-23 0 l0 -35 q21 -15 25 -41 q4 -26 2 -41 q-1 -41 -5 -141 q-4 -100 -4 -112 q0 -33 21 -51 q21 -18 51 -21 q-30 -4 -51 -22 q-21 -18 -21 -51 q0 -14 4 -128 q3 -115 5 -158 q2 -15 -2 -41 q-4 -26 -25 -41 l0 -36 Z" /><glyph glyph-name="" unicode="[" d="M97 -180 l204 0 l0 38 l-75 9 l0 826 l75 7 l0 40 l-204 0 l0 -920 Z" /><glyph glyph-name="" unicode="]" d="M27 -180 l204 0 l0 920 l-204 0 l0 -40 l74 -7 l0 -826 l-74 -7 l0 -40 Z" /><glyph glyph-name="" unicode="-" d="M40 246 l243 0 l0 26 l-243 0 l0 -26 Z" /><glyph glyph-name="" unicode="­" d="M40 246 l243 0 l0 26 l-243 0 l0 -26 Z" /><glyph glyph-name="" unicode="&#x2013;" d="M22 246 l363 0 l0 26 l-363 0 l0 -26 Z" /><glyph glyph-name="" unicode="&#x2014;" d="M22 246 l523 0 l0 26 l-523 0 l0 -26 Z" /><glyph glyph-name="" unicode="_" d="M22 -55 l363 0 l0 28 l-363 0 l0 -28 Z" /><glyph glyph-name="" unicode="&#x201a;" d="M63 -134 q77 12 123 54 q46 42 47 124 q0 43 -22 73 q-23 29 -67 30 q-40 0 -63 -21 q-23 -21 -24 -57 q1 -34 24 -55 q23 -22 53 -23 l31 0 q1 -37 -20 -63 q-21 -26 -82 -44 l0 -18 Z" /><glyph glyph-name="" unicode="&#x201e;" d="M61 -133 q77 12 123 54 q46 42 47 124 q0 43 -22 73 q-23 29 -67 30 q-40 0 -63 -21 q-23 -21 -24 -57 q1 -34 24 -55 q23 -22 53 -23 l31 0 q1 -37 -20 -63 q-21 -26 -82 -44 l0 -18 ZM263 -133 q77 12 123 54 q46 42 47 124 q0 43 -22 73 q-23 29 -67 30 q-40 0 -63 -21 q-23 -21 -24 -57 q1 -34 24 -55 q23 -22 53 -23 l31 0 q1 -37 -20 -63 q-21 -26 -82 -44 l0 -18 Z" /><glyph glyph-name="" unicode="&#x201c;" d="M225 718 q-77 -12 -123 -54 q-46 -42 -47 -124 q0 -43 22 -72 q23 -30 67 -31 q40 0 63 21 q23 21 24 57 q-1 34 -24 56 q-23 21 -53 22 l-31 0 q-1 37 20 63 q21 26 82 44 l0 18 ZM427 718 q-77 -12 -123 -54 q-46 -42 -47 -124 q0 -43 22 -72 q23 -30 67 -31 q40 0 63 21 q23 21 24 57 q-1 34 -24 56 q-23 21 -53 22 l-31 0 q-1 37 20 63 q21 26 82 44 l0 18 Z" /><glyph glyph-name="" unicode="&#x201d;" d="M61 429 q77 12 123 54 q46 42 47 124 q0 43 -22 73 q-23 29 -67 30 q-40 0 -63 -21 q-23 -21 -24 -57 q1 -34 24 -55 q23 -22 53 -23 l31 0 q1 -37 -20 -63 q-21 -26 -82 -44 l0 -18 ZM263 429 q77 12 123 54 q46 42 47 124 q0 43 -22 73 q-23 29 -67 30 q-40 0 -63 -21 q-23 -21 -24 -57 q1 -34 24 -55 q23 -22 53 -23 l31 0 q1 -37 -20 -63 q-21 -26 -82 -44 l0 -18 Z" /><glyph glyph-name="" unicode="&#x2018;" d="M225 429 l0 18 q-61 18 -82 44 q-21 26 -20 63 l31 0 q30 1 53 23 q23 21 24 55 q-1 36 -24 57 q-23 21 -63 21 q-44 -1 -67 -30 q-22 -30 -22 -73 q1 -82 47 -124 q46 -42 123 -54 l0 0 Z" /><glyph glyph-name="" unicode="&#x2019;" d="M61 429 q77 12 123 54 q46 42 47 124 q0 43 -22 73 q-23 29 -67 30 q-40 0 -63 -21 q-23 -21 -24 -57 q1 -34 24 -55 q23 -22 53 -23 l31 0 q1 -37 -20 -63 q-21 -26 -82 -44 l0 -18 Z" /><glyph glyph-name="" unicode="«" d="M182 20 l33 5 l-76 199 l75 183 l-32 5 l-135 -188 l135 -204 ZM344 20 l33 5 l-77 199 l76 183 l-32 5 l-135 -188 l135 -204 Z" /><glyph glyph-name="" unicode="»" d="M80 19 l134 206 l-135 186 l-32 -5 l76 -181 l-76 -201 l33 -5 ZM242 19 l134 207 l-135 185 l-32 -5 l75 -180 l-75 -202 l33 -5 Z" /><glyph glyph-name="" unicode="&#x2039;" d="M184 20 l32 5 l-76 199 l75 183 l-31 5 l-137 -188 l137 -204 Z" /><glyph glyph-name="" unicode="&#x203a;" d="M79 21 l165 198 l-161 194 l-33 -5 l102 -189 l-105 -193 l32 -5 Z" /><glyph glyph-name="" unicode="&quot;" d="M61 429 q77 12 123 54 q46 42 47 124 q0 43 -22 73 q-23 29 -67 30 q-40 0 -63 -21 q-23 -21 -24 -57 q1 -34 24 -55 q23 -22 53 -23 l31 0 q1 -37 -20 -63 q-21 -26 -82 -44 l0 -18 ZM263 429 q77 12 123 54 q46 42 47 124 q0 43 -22 73 q-23 29 -67 30 q-40 0 -63 -21 q-23 -21 -24 -57 q1 -34 24 -55 q23 -22 53 -23 l31 0 q1 -37 -20 -63 q-21 -26 -82 -44 l0 -18 Z" /><glyph glyph-name="" unicode="&#39;" d="M61 429 q77 12 123 54 q46 42 47 124 q0 43 -22 73 q-23 29 -67 30 q-40 0 -63 -21 q-23 -21 -24 -57 q1 -34 24 -55 q23 -22 53 -23 l31 0 q1 -37 -20 -63 q-21 -26 -82 -44 l0 -18 Z" /><glyph glyph-name="" unicode="&#x2009;" d="" /><glyph glyph-name="" unicode="¢" d="M218 0 l56 0 l0 100 q25 1 56 3 q32 2 35 2 l0 115 l-7 0 q-5 -29 -29 -55 q-25 -26 -68 -28 q-30 -2 -59 31 q-28 32 -30 121 q2 88 30 121 q29 32 59 30 q43 -2 68 -27 q24 -25 29 -52 l7 0 l0 111 q-3 0 -35 2 q-31 2 -56 3 l0 87 l-56 0 l0 -90 q-63 -10 -109 -53 q-47 -43 -49 -132 q2 -88 49 -132 q46 -44 109 -54 l0 -103 Z" /><glyph glyph-name="" unicode="¤" d="M416 308 q0 30 -11 57 q-10 27 -30 48 l61 61 l-33 33 l-64 -64 q-20 12 -42 19 q-23 6 -49 6 q-26 0 -49 -6 q-23 -7 -42 -19 l-64 64 l-33 -33 l60 -60 q-19 -22 -29 -49 q-11 -27 -11 -57 q0 -31 11 -58 q10 -27 30 -49 l-59 -59 l31 -31 l62 62 q20 -12 43 -18 q24 -7 50 -7 q26 0 49 7 q23 6 43 19 l63 -63 l31 31 l-60 60 q20 21 31 48 q11 27 11 58 l0 0 ZM248 185 q-37 3 -50 42 q-14 40 -13 81 q-1 41 13 79 q13 37 50 40 q37 -3 51 -40 q13 -38 12 -79 q1 -41 -12 -81 q-14 -39 -51 -42 l0 0 Z" /><glyph glyph-name="" unicode="$" d="M387 379 l-80 55 l0 228 q38 -6 59 -37 q20 -31 33 -102 l36 0 l0 163 q-3 1 -44 11 q-41 10 -84 13 l0 53 l-62 0 l0 -56 q-101 -16 -141 -66 q-41 -50 -39 -95 q1 -54 19 -90 q19 -37 49 -63 q17 -16 46 -38 q30 -23 66 -50 l0 -269 q-65 -2 -99 31 q-35 33 -46 144 l-32 0 l0 -190 q3 -2 57 -15 q54 -13 120 -16 l0 -71 l62 0 l0 76 q82 15 131 66 q49 52 50 127 q2 68 -23 110 q-26 42 -78 81 l0 0 ZM158 590 q0 34 23 51 q23 18 64 22 l0 -185 q-40 26 -63 50 q-24 24 -24 62 l0 0 ZM307 40 l0 221 q36 -24 61 -54 q26 -29 27 -69 q1 -39 -20 -64 q-20 -26 -68 -34 l0 0 Z" /><glyph glyph-name="" unicode="&#x20ac;" d="M457 -16 q77 1 112 11 q34 9 33 10 l0 123 l-15 0 q-16 -72 -53 -87 q-37 -15 -79 -12 q-103 6 -135 82 q-32 75 -31 171 l175 0 l20 50 l-197 0 l0 13 q0 20 1 39 l176 0 l20 50 l-194 0 q2 89 35 156 q34 66 130 71 q38 0 66 -22 q27 -23 32 -73 l15 0 l34 118 q1 1 -33 12 q-35 10 -112 11 q-102 2 -194 -59 q-92 -61 -121 -214 l-77 0 l0 -50 l69 0 q1 -8 0 -18 q0 -10 0 -21 l0 -13 l-69 0 l0 -50 l73 0 q24 -168 118 -234 q95 -67 201 -64 l0 0 Z" /><glyph glyph-name="" unicode="&#x192;" d="M500 714 q-67 -4 -139 -67 q-73 -64 -89 -143 q-3 -21 -7 -50 q-3 -28 -7 -61 l-127 0 l0 -37 l123 0 q-9 -76 -14 -127 q-5 -51 -3 -35 l-21 -174 q-6 -45 -31 -64 q-25 -19 -65 -19 q-50 4 -72 36 q-21 31 -21 35 l-7 -108 q1 -11 23 -19 q22 -8 54 -8 q66 4 139 66 q72 63 88 139 q1 13 11 96 q9 82 21 182 l148 0 l0 37 l-144 0 q9 72 15 122 q6 49 6 52 q10 43 33 63 q24 20 63 20 q50 -4 72 -35 q21 -32 21 -36 l7 108 q-1 11 -23 19 q-22 8 -54 8 l0 0 ZM325 81 q0 0 0 2 l0 -2 ZM325 81 q0 -1 -1 -3 q0 -1 1 3 l0 0 Z" /><glyph glyph-name="" unicode="£" d="M530 212 l-36 0 q-8 -97 -30 -136 q-21 -39 -90 -38 q-55 1 -106 12 q-52 11 -95 20 q32 58 63 132 q31 75 46 153 l128 0 l4 37 l-126 0 q1 11 1 22 q1 10 1 21 q-5 117 2 177 q7 59 90 59 q48 0 72 -28 q24 -28 25 -81 l28 0 l20 124 q-3 2 -48 12 q-44 10 -90 11 q-132 -6 -185 -96 q-52 -90 -50 -202 l0 -19 l-109 0 l0 -37 l109 0 q3 -78 2 -147 q-1 -69 -21 -132 q-7 1 -13 1 q-34 -1 -51 -17 q-17 -16 -17 -34 q1 -16 11 -34 q10 -18 11 -20 l39 0 q8 11 23 36 q3 1 6 1 q4 1 8 1 q29 1 95 -4 q66 -5 128 -6 l156 0 l-1 212 Z" /><glyph glyph-name="" unicode="¥" d="M749 664 l0 36 l-269 0 q0 -2 0 -18 q0 -15 0 -18 l26 0 q51 0 65 -14 q14 -14 -1 -47 q-14 -33 -32 -77 q-19 -45 -71 -176 q-47 111 -70 167 q-23 56 -38 89 q-15 33 6 46 q22 13 72 12 q3 0 14 0 q10 0 13 0 l0 36 l-406 0 l0 -36 q52 3 85 -3 q32 -7 59 -58 q12 -24 40 -86 q29 -62 79 -167 l-170 0 l0 -46 l192 0 l11 -23 l0 -36 l-203 0 l0 -46 l203 0 l0 -91 q-1 -49 -34 -62 q-33 -13 -82 -11 l0 -35 l371 0 l0 35 q-49 -2 -82 10 q-33 12 -34 63 l0 91 l201 0 l0 46 l-201 0 l0 41 q3 9 7 18 l194 0 l0 46 l-177 0 q30 80 53 135 q24 56 38 87 q19 47 47 70 q28 22 94 22 l0 0 Z" /><glyph glyph-name="" unicode="+" d="M277 0 l68 0 l0 239 l234 0 l0 67 l-234 0 l0 238 l-68 0 l0 -238 l-234 0 l0 -67 l234 0 l0 -239 Z" /><glyph glyph-name="" unicode="&#x2212;" d="M43 239 l445 0 l0 67 l-445 0 l0 -67 Z" /><glyph glyph-name="" unicode="×" d="M172 60 l139 149 l141 -149 l57 52 l-146 153 l145 155 l-60 53 l-140 -150 l-142 150 l-56 -53 l146 -153 l-144 -155 l60 -52 Z" /><glyph glyph-name="" unicode="÷" d="M312 381 q19 0 32 13 q12 13 13 32 q-1 19 -13 32 q-13 13 -32 14 q-20 -1 -33 -14 q-13 -13 -13 -32 q0 -19 13 -32 q13 -13 33 -13 l0 0 ZM43 239 l536 0 l0 67 l-536 0 l0 -67 ZM312 63 q19 1 32 14 q12 12 13 31 q-1 20 -13 33 q-13 13 -32 13 q-20 0 -33 -13 q-13 -13 -13 -33 q0 -19 13 -31 q13 -13 33 -14 l0 0 Z" /><glyph glyph-name="" unicode="=" d="M43 328 l479 0 l0 56 l-479 0 l0 -56 ZM43 145 l479 0 l0 57 l-479 0 l0 -57 Z" /><glyph glyph-name="" unicode="&#x2260;" d="M522 328 l0 56 l-166 0 l31 136 l-69 0 l-31 -136 l-244 0 l0 -56 l231 0 l-29 -126 l-202 0 l0 -57 l189 0 l-40 -175 l69 0 l40 175 l221 0 l0 57 l-208 0 l29 126 l179 0 Z" /><glyph glyph-name="" unicode="&gt;" d="M43 -1 l462 270 l-462 270 l0 -55 l380 -215 l-380 -215 l0 -55 Z" /><glyph glyph-name="" unicode="&lt;" d="M503 -1 l0 55 l-380 215 l380 215 l0 55 l-462 -270 l462 -270 Z" /><glyph glyph-name="" unicode="&#x2265;" d="M43 109 l457 230 l-457 210 l0 -47 l358 -165 l-358 -174 l0 -54 ZM43 0 l440 0 l0 40 l-440 0 l0 -40 Z" /><glyph glyph-name="" unicode="&#x2264;" d="M500 109 l0 54 l-358 174 l358 165 l0 47 l-457 -210 l457 -230 ZM60 0 l440 0 l0 40 l-440 0 l0 -40 Z" /><glyph glyph-name="" unicode="±" d="M241 108 l69 0 l0 195 l198 0 l0 67 l-198 0 l0 194 l-69 0 l0 -194 l-198 0 l0 -67 l198 0 l0 -195 ZM43 -2 l465 0 l0 57 l-465 0 l0 -57 Z" /><glyph glyph-name="" unicode="&#x2248;" d="M442 272 q53 4 79 45 q25 42 30 74 l-26 0 q2 -5 -13 -36 q-15 -32 -67 -37 q-64 5 -140 41 q-76 36 -143 41 q-54 -4 -83 -49 q-29 -45 -36 -78 l26 0 q-1 5 18 41 q20 35 72 40 q62 -5 139 -41 q78 -36 144 -41 l0 0 ZM442 122 q53 4 79 45 q25 42 30 74 l-26 0 q2 -5 -13 -36 q-15 -32 -67 -37 q-64 5 -140 41 q-76 36 -143 41 q-54 -4 -83 -49 q-29 -45 -36 -78 l26 0 q-1 5 18 41 q20 35 72 40 q62 -5 139 -41 q78 -36 144 -41 l0 0 Z" /><glyph glyph-name="" unicode="~" d="M442 222 q53 4 79 45 q25 42 30 74 l-26 0 q2 -5 -13 -36 q-15 -32 -67 -37 q-64 5 -140 41 q-76 36 -143 41 q-54 -4 -83 -49 q-29 -45 -36 -78 l26 0 q-1 5 18 41 q20 35 72 40 q62 -5 139 -41 q78 -36 144 -41 l0 0 Z" /><glyph glyph-name="" unicode="¬" d="M419 169 l69 0 l0 236 l-445 0 l0 -67 l376 0 l0 -169 Z" /><glyph glyph-name="" unicode="^" d="M43 240 l49 0 l160 364 l160 -364 l49 0 l-209 461 l-209 -461 Z" /><glyph glyph-name="" unicode="&#x2205;" d="M314 -8 q115 3 191 80 q77 76 80 191 q0 52 -18 98 q-18 46 -51 83 l52 59 l-36 26 l-48 -55 q-35 28 -79 44 q-43 16 -91 16 q-115 -3 -192 -79 q-76 -77 -79 -192 q0 -59 23 -109 q23 -51 63 -89 l-48 -55 l35 -27 l48 55 q32 -23 71 -34 q38 -12 79 -12 l0 0 ZM159 99 q-34 31 -51 73 q-18 43 -18 91 q2 96 62 160 q61 64 162 66 q42 0 78 -13 q35 -13 62 -36 l-295 -341 ZM314 38 q-35 0 -66 9 q-30 9 -55 25 l294 338 q24 -31 37 -68 q13 -38 13 -79 q-2 -95 -62 -159 q-60 -63 -161 -66 l0 0 Z" /><glyph glyph-name="" unicode="&#x221e;" d="M176 116 q54 3 94 41 q39 38 58 68 q19 -30 58 -68 q40 -38 94 -41 q54 1 93 35 q38 34 40 93 q-2 59 -40 93 q-39 34 -93 35 q-55 -3 -95 -41 q-39 -37 -57 -67 q-18 30 -57 67 q-40 38 -95 41 q-55 -1 -93 -35 q-38 -34 -40 -93 q2 -59 40 -93 q38 -34 93 -35 l0 0 ZM174 154 q-37 1 -63 27 q-27 25 -28 63 q1 38 28 63 q26 25 63 26 q52 -6 87 -44 q36 -39 37 -45 q-2 -6 -38 -45 q-36 -39 -86 -45 l0 0 ZM482 154 q-50 6 -86 45 q-36 39 -38 45 q1 6 37 45 q35 38 87 44 q38 -1 64 -26 q26 -25 27 -63 q-1 -38 -27 -63 q-26 -26 -64 -27 l0 0 Z" /><glyph glyph-name="" unicode="&#x222b;" d="M92 -60 q46 0 80 30 q35 30 43 89 l67 569 q8 58 22 78 q13 20 37 19 q5 1 26 -2 q20 -4 37 -26 l0 38 q-11 6 -30 9 q-18 3 -33 3 q-44 0 -72 -30 q-27 -30 -35 -89 l-67 -569 q-9 -58 -29 -78 q-20 -20 -46 -19 q-4 -1 -19 2 q-14 4 -30 26 l0 -38 q22 -12 49 -12 l0 0 Z" /><glyph glyph-name="" unicode="&#x220f;" d="M141 -85 l69 0 l0 668 l211 0 l0 -668 l69 0 l0 668 l108 0 l0 67 l-555 0 l0 -67 l98 0 l0 -668 Z" /><glyph glyph-name="" unicode="&#x2211;" d="M43 -85 l473 0 l0 67 l-387 0 l303 300 l-303 301 l387 0 l0 67 l-473 0 l0 -67 l303 -301 l-303 -300 l0 -67 Z" /><glyph glyph-name="" unicode="&#x221a;" d="M257 -85 l69 0 l192 925 l-55 0 l-177 -850 l-118 333 l-125 -43 l23 -61 l68 26 l123 -330 Z" /><glyph glyph-name="" unicode="&#x2202;" d="M281 -8 q114 2 186 64 q71 62 84 155 q14 225 -106 352 q-120 127 -224 153 l-1 -37 q80 -33 122 -93 q43 -60 70 -169 q-10 2 -33 7 q-24 5 -45 6 q-112 -2 -183 -64 q-72 -62 -84 -155 q-10 -93 46 -155 q57 -62 168 -64 l0 0 ZM284 35 q-56 1 -75 46 q-20 46 -9 130 q10 85 43 130 q33 46 89 46 q61 -1 80 -50 q19 -49 6 -137 q-13 -94 -48 -130 q-35 -37 -86 -35 l0 0 Z" /><glyph glyph-name="" unicode="µ" d="M505 101 l0 329 l-208 -16 l0 -35 q44 1 61 -10 q17 -11 16 -40 l0 -175 q-5 -29 -28 -68 q-23 -39 -62 -43 q-23 -1 -34 13 q-11 14 -11 52 l0 322 l-209 -16 l0 -35 q44 1 61 -10 q18 -11 17 -40 l0 -7 l-14 0 l0 -587 l131 0 l0 257 l9 0 q74 3 103 31 q29 28 39 52 l0 -80 l207 16 l0 36 q-41 0 -60 12 q-18 12 -18 42 l0 0 Z" /><glyph glyph-name="" unicode="%" d="M80 -50 l52 0 l459 790 l-51 0 l-460 -790 ZM212 435 q92 2 140 43 q48 42 48 105 q0 62 -48 104 q-48 41 -140 43 q-93 -2 -141 -43 q-49 -42 -49 -104 q0 -63 49 -105 q48 -41 141 -43 l0 0 ZM212 459 q-42 4 -48 48 q-6 43 -4 74 q-2 31 4 75 q6 43 48 47 q42 -4 47 -47 q5 -44 3 -75 q2 -31 -3 -74 q-5 -44 -47 -48 l0 0 ZM481 -4 q92 2 140 43 q48 42 48 104 q0 63 -48 105 q-48 41 -140 43 q-93 -2 -141 -43 q-49 -42 -49 -105 q0 -62 49 -104 q48 -41 141 -43 l0 0 ZM481 20 q-42 4 -48 48 q-5 43 -3 74 q-2 31 3 75 q6 43 48 47 q42 -4 47 -47 q5 -44 3 -75 q2 -31 -3 -74 q-5 -44 -47 -48 l0 0 Z" /><glyph glyph-name="" unicode="&#x2030;" d="M80 -50 l52 0 l459 790 l-51 0 l-460 -790 ZM212 435 q92 2 140 43 q48 42 48 105 q0 62 -48 104 q-48 41 -140 43 q-93 -2 -141 -43 q-49 -42 -49 -104 q0 -63 49 -105 q48 -41 141 -43 l0 0 ZM212 459 q-42 4 -48 48 q-6 43 -4 74 q-2 31 4 75 q6 43 48 47 q42 -4 47 -47 q5 -44 3 -75 q2 -31 -3 -74 q-5 -44 -47 -48 l0 0 ZM481 -4 q92 2 140 43 q48 42 48 104 q0 63 -48 105 q-48 41 -140 43 q-93 -2 -141 -43 q-49 -42 -49 -105 q0 -62 49 -104 q48 -41 141 -43 l0 0 ZM887 -4 q93 2 141 43 q48 42 48 104 q0 63 -48 105 q-48 41 -141 43 q-93 -2 -141 -43 q-49 -42 -49 -105 q0 -62 49 -104 q48 -41 141 -43 l0 0 ZM481 20 q-42 4 -48 48 q-5 43 -3 74 q-2 31 3 75 q6 43 48 47 q42 -4 47 -47 q5 -44 3 -75 q2 -31 -3 -74 q-5 -44 -47 -48 l0 0 ZM887 20 q-42 4 -47 48 q-5 43 -3 74 q-2 31 3 75 q5 43 47 47 q42 -4 47 -47 q5 -44 3 -75 q2 -31 -3 -74 q-5 -44 -47 -48 l0 0 Z" /><glyph glyph-name="" unicode="&#x25ca;" d="M233 0 l46 0 l170 350 l-170 349 l-46 0 l-170 -349 l170 -350 ZM257 47 l-148 303 l148 302 l146 -302 l-146 -303 Z" /><glyph glyph-name="" unicode="@" d="M372 -136 q51 0 101 12 q50 12 102 42 l-3 33 q-23 -12 -73 -25 q-51 -12 -98 -13 q-146 4 -199 83 q-52 79 -49 182 q1 142 77 228 q76 85 217 87 q103 0 160 -54 q56 -53 57 -157 q1 -100 -21 -140 q-21 -41 -71 -41 q-18 -2 -21 12 q-3 14 5 53 l46 237 l-145 0 q-102 -3 -167 -65 q-65 -61 -81 -138 q-17 -88 13 -128 q30 -40 100 -39 q46 3 80 48 q35 45 61 90 l-16 -66 q-7 -31 2 -51 q8 -19 47 -20 q105 3 184 73 q80 70 84 175 q-3 107 -89 180 q-86 74 -223 77 q-152 -1 -277 -98 q-125 -96 -133 -273 q6 -152 106 -228 q100 -76 224 -76 l0 0 ZM333 113 q-37 0 -19 87 q16 68 48 109 q32 40 63 41 q21 0 38 -4 q18 -4 16 -6 l-19 -84 q-17 -71 -52 -107 q-36 -36 -75 -36 l0 0 Z" /><glyph glyph-name="" unicode="&amp;" d="M767 -77 l-233 208 l123 264 l-158 0 l0 -233 l-236 210 q0 2 -1 57 q-2 55 -2 139 q0 53 23 75 q23 21 62 20 q38 1 61 -20 q23 -22 24 -75 q0 -45 -10 -84 q-10 -39 -27 -58 l6 -11 q39 19 84 58 q45 38 49 101 q-1 66 -50 102 q-49 36 -138 36 q-93 -1 -150 -45 q-58 -44 -60 -124 q-1 -45 23 -88 q23 -44 85 -92 q-56 -15 -114 -56 q-58 -42 -63 -122 q2 -98 77 -147 q74 -48 190 -48 q44 0 89 13 q45 12 81 37 q22 -26 46 -55 q24 -29 51 -62 l168 0 ZM342 38 q-69 1 -105 38 q-36 38 -36 107 q4 77 31 112 q27 35 31 34 l211 -256 q-22 -17 -55 -26 q-33 -9 -77 -9 l0 0 Z" /><glyph glyph-name="" unicode="¶" d="M312 0 l125 0 l0 684 l50 0 l0 -684 l83 0 l0 610 q1 53 34 66 q33 12 82 10 l0 14 l-416 0 q-100 -1 -152 -45 q-53 -44 -53 -121 q0 -78 52 -122 q52 -44 153 -45 l42 0 l0 -367 Z" /><glyph glyph-name="" unicode="§" d="M321 246 q37 11 68 38 q31 26 33 73 q-1 71 -60 113 q-60 42 -147 83 q-24 13 -42 30 q-18 17 -19 45 q2 25 29 33 q28 9 59 8 q63 1 91 -24 q28 -25 28 -89 l36 0 l0 133 q-4 1 -49 11 q-45 10 -95 11 q-68 0 -127 -23 q-60 -23 -64 -90 q3 -52 40 -83 q38 -32 81 -51 q-43 -2 -80 -30 q-38 -28 -40 -79 q2 -56 43 -90 q42 -34 97 -57 q90 -44 113 -74 q23 -31 20 -56 q-1 -21 -30 -32 q-29 -11 -74 -11 q-71 -1 -108 27 q-37 27 -45 101 l-35 0 l-1 -154 q80 -12 123 -15 q43 -4 59 -4 q80 0 140 30 q60 31 64 95 q-1 51 -35 82 q-33 32 -73 49 l0 0 ZM276 271 q-80 33 -100 50 q-20 18 -17 44 q0 29 16 52 q16 24 53 25 q50 -8 73 -38 q23 -31 23 -48 q-2 -46 -21 -65 q-19 -18 -27 -20 l0 0 Z" /><glyph glyph-name="" unicode="©" d="M63 213 q6 -153 117 -237 q112 -84 246 -85 q136 1 247 85 q111 84 118 237 q-7 155 -118 238 q-111 84 -247 85 q-134 -1 -246 -85 q-111 -83 -117 -238 l0 0 ZM160 213 q1 125 71 202 q69 77 195 79 q126 -2 196 -79 q70 -77 71 -202 q-1 -124 -71 -200 q-70 -76 -196 -78 q-126 2 -195 78 q-70 76 -71 200 l0 0 ZM443 39 q61 5 96 39 q34 33 35 38 l-4 34 q0 -4 -27 -31 q-27 -28 -80 -32 q-37 -3 -68 24 q-32 27 -34 114 q3 88 38 120 q35 31 66 29 q41 -2 59 -28 q17 -26 21 -53 l8 0 l0 113 q-3 0 -36 3 q-32 2 -52 2 q-77 1 -143 -43 q-66 -44 -70 -141 q4 -103 64 -146 q59 -43 127 -42 l0 0 Z" /><glyph glyph-name="" unicode="®" d="M405 536 q-134 -1 -246 -85 q-111 -83 -117 -238 q6 -153 117 -237 q112 -84 246 -85 q136 1 247 85 q111 84 118 237 q-7 155 -118 238 q-111 84 -247 85 l0 0 ZM405 -85 q-126 3 -195 88 q-70 84 -71 210 q1 126 71 212 q69 85 195 89 q126 -4 196 -89 q70 -86 71 -212 q-1 -126 -71 -210 q-70 -85 -196 -88 l0 0 ZM544 106 q-26 34 -48 71 q-23 36 -32 53 q44 7 74 31 q30 24 31 65 q-1 47 -37 68 q-35 21 -97 21 l-227 0 l0 -28 q26 1 43 -5 q16 -7 17 -35 l0 -238 q-1 -28 -17 -35 q-17 -7 -43 -6 l0 -29 l213 0 l0 29 q-28 -1 -45 6 q-18 6 -19 35 l0 126 q2 -1 6 -2 q5 -1 12 -2 l-2 0 q59 -96 116 -192 q32 0 66 0 q33 0 65 0 l-4 30 q-17 0 -37 10 q-21 9 -35 27 l0 0 ZM357 342 q0 15 8 26 q7 10 25 11 l21 0 q35 1 50 -8 q15 -8 15 -41 q0 -33 -15 -51 q-16 -18 -46 -18 q-12 0 -29 2 q-18 3 -29 7 l0 72 Z" /><glyph glyph-name="" unicode="&#x2122;" d="M100 328 l222 0 l0 25 q-25 -1 -43 7 q-17 8 -18 34 l0 274 l36 0 q42 1 49 -12 q6 -13 9 -48 l25 0 l0 92 l-338 0 l0 -92 l26 0 q3 35 10 48 q6 13 47 12 l37 0 l0 -274 q-1 -27 -18 -34 q-18 -8 -44 -7 l0 -25 ZM395 330 l166 0 l0 25 q-28 -1 -51 7 q-23 8 -23 34 l13 252 l120 -318 l76 0 l116 304 l13 -238 q1 -26 -18 -34 q-19 -8 -46 -7 l0 -25 l216 0 l0 25 q-25 -1 -38 7 q-14 8 -16 34 q-7 77 -11 114 q-5 36 -13 124 q-1 25 16 34 q16 10 38 9 l0 21 l-147 0 q-30 -79 -55 -147 q-26 -67 -57 -147 q-30 80 -56 147 q-27 68 -57 147 l-170 0 l0 -24 q25 0 39 -9 q14 -9 14 -31 l-14 -238 q-2 -25 -16 -33 q-14 -9 -39 -8 l0 -25 Z" /><glyph glyph-name="" unicode="°" d="M168 461 q54 1 89 36 q35 35 36 89 q-1 54 -36 89 q-35 35 -89 36 q-54 -1 -89 -36 q-35 -35 -36 -89 q1 -54 36 -89 q35 -35 89 -36 l0 0 ZM168 510 q-31 1 -49 23 q-19 21 -19 53 q0 32 19 53 q18 21 49 22 q31 -1 49 -22 q19 -21 19 -53 q0 -32 -19 -53 q-18 -22 -49 -23 l0 0 Z" /><glyph glyph-name="" unicode="|" d="M250 -50 l61 0 l0 788 l-61 0 l0 -788 Z" /><glyph glyph-name="" unicode="¦" d="M250 436 l61 0 l0 302 l-61 0 l0 -302 ZM250 -53 l61 0 l0 302 l-61 0 l0 -302 Z" /><glyph glyph-name="" unicode="&#x2020;" d="M218 -130 l60 0 l0 520 l178 0 l0 42 l-178 0 l0 278 l-60 0 l0 -278 l-176 0 l0 -42 l176 0 l0 -520 Z" /><glyph glyph-name="" unicode="&#x2021;" d="M218 -130 l60 0 l0 264 l178 0 l0 43 l-178 0 l0 212 l178 0 l0 43 l-178 0 l0 278 l-60 0 l0 -278 l-176 0 l0 -43 l176 0 l0 -212 l-176 0 l0 -43 l176 0 l0 -264 Z" /><glyph glyph-name="" unicode="&#x308;" d="M-279 505 q27 1 45 18 q17 18 18 42 q-1 26 -18 44 q-18 18 -45 19 q-26 -1 -41 -19 q-16 -18 -16 -44 q0 -24 16 -42 q15 -17 41 -18 l0 0 ZM-86 505 q27 1 45 18 q18 18 19 42 q-1 26 -19 44 q-18 18 -45 19 q-25 -1 -40 -19 q-16 -18 -16 -44 q0 -24 16 -42 q15 -17 40 -18 l0 0 Z" /><glyph glyph-name="" unicode="&#x307;" d="M-89 480 q28 1 47 20 q19 19 20 47 q-1 27 -20 45 q-19 18 -47 19 q-28 -1 -47 -19 q-19 -18 -20 -45 q1 -28 20 -47 q19 -19 47 -20 l0 0 Z" /><glyph glyph-name="" unicode="&#x300;" d="M-60 494 l38 0 l-59 176 l-115 0 l136 -176 Z" /><glyph glyph-name="" unicode="&#x301;" d="M-196 495 l24 0 l150 178 l-117 0 l-57 -178 Z" /><glyph glyph-name="" unicode="&#x30b;" d="M-349 495 l24 0 l150 178 l-117 0 l-57 -178 ZM-196 495 l24 0 l150 178 l-117 0 l-57 -178 Z" /><glyph glyph-name="" unicode="&#x302;" d="M-290 486 l38 0 l96 86 l96 -86 l38 0 l-100 145 l-68 0 l-100 -145 Z" /><glyph glyph-name="" unicode="&#x30c;" d="M-190 511 l68 0 l100 149 l-24 0 l-110 -77 l-111 77 l-23 0 l100 -149 Z" /><glyph glyph-name="" unicode="&#x306;" d="M-160 522 q87 9 114 69 q27 60 24 69 l-8 0 q2 -4 -26 -28 q-29 -25 -105 -29 q-76 4 -104 29 q-28 24 -26 28 l-7 0 q-3 -9 24 -69 q26 -60 114 -69 l0 0 Z" /><glyph glyph-name="" unicode="&#x30a;" d="M-120 507 q44 1 73 23 q29 22 30 53 q-1 34 -30 57 q-29 22 -73 23 q-44 -1 -73 -23 q-29 -23 -30 -57 q1 -31 30 -53 q29 -22 73 -23 l0 0 ZM-120 550 q-15 0 -25 10 q-10 10 -10 24 q0 14 10 24 q10 10 25 10 q15 0 26 -10 q10 -10 10 -24 q0 -14 -10 -24 q-11 -10 -26 -10 l0 0 Z" /><glyph glyph-name="" unicode="&#x303;" d="M-88 511 q31 4 46 44 q15 41 20 73 l-13 0 q1 -2 -10 -17 q-10 -16 -40 -18 q-32 2 -61 18 q-29 16 -64 18 q-31 -4 -45 -44 q-14 -41 -21 -73 l13 0 q-1 2 10 18 q10 15 40 17 q29 -2 60 -18 q31 -16 65 -18 l0 0 Z" /><glyph glyph-name="" unicode="&#x304;" d="M-288 539 l266 0 l0 36 l-266 0 l0 -36 Z" /><glyph glyph-name="" unicode="&#x309;" d="M-120 527 q19 6 56 42 q38 35 42 78 q0 29 -22 50 q-21 20 -62 21 q-55 -5 -85 -43 q-31 -38 -31 -43 l4 -5 q7 7 26 18 q19 10 43 11 q31 -2 42 -20 q12 -19 11 -36 q-1 -25 -10 -42 q-10 -16 -19 -26 l5 -5 Z" /><glyph glyph-name="" unicode="&#x312;" d="M-176 504 l10 0 l144 184 l-106 12 l-48 -196 Z" /><glyph glyph-name="" unicode="&#x31b;" d="M-213 555 q79 7 114 38 q35 30 34 67 q0 8 -2 15 q-1 8 -3 14 l-68 -3 q16 -39 21 -64 q4 -26 -46 -32 l-49 -5 l-1 -30 Z" /><glyph glyph-name="" unicode="&#x323;" d="M-89 -175 q28 1 47 20 q19 19 20 47 q-1 27 -20 45 q-19 18 -47 19 q-28 -1 -47 -19 q-19 -18 -20 -45 q1 -28 20 -47 q19 -19 47 -20 l0 0 Z" /><glyph glyph-name="" unicode="&#x326;" d="M-176 -229 l10 0 l144 184 l-106 12 l-48 -196 Z" /><glyph glyph-name="" unicode="&#x327;" d="M-112 -69 l-14 -2 l11 71 l-13 0 l-50 -80 q37 -1 57 -13 q21 -11 21 -34 q0 -22 -10 -35 q-10 -14 -25 -14 q-19 1 -32 8 q-14 6 -15 7 l0 -14 q1 -1 28 -10 q26 -10 63 -11 q38 0 58 17 q20 16 20 44 q0 31 -25 48 q-25 16 -74 18 l0 0 Z" /><glyph glyph-name="" unicode="&#x328;" d="M-136 -196 q48 1 80 11 q33 9 34 10 l0 22 q-1 0 -14 0 q-14 -1 -33 -1 q-18 0 -26 12 q-7 11 -6 29 q0 21 13 51 q12 31 32 62 l-20 0 q-44 -31 -82 -68 q-39 -38 -41 -73 q1 -28 18 -41 q18 -14 45 -14 l0 0 Z" /><glyph glyph-name="" unicode="&#x335;" d="M-394 526 l331 0 l0 38 l-331 0 l0 -38 Z" /><glyph glyph-name="" unicode="&#x336;" d="M-725 495 l725 0 l0 44 l-725 0 l0 -44 Z" /><glyph glyph-name="" unicode="&#x337;" d="M-293 327 l277 110 l0 19 l-277 -110 l0 -19 Z" /><glyph glyph-name="" unicode="&#x338;" d="M-495 -50 l35 0 l460 770 l-35 0 l-460 -770 Z" /><glyph glyph-name="" unicode="´" d="M22 495 l24 0 l150 178 l-117 0 l-57 -178 Z" /><glyph glyph-name="" unicode="&#x2d8;" d="M160 522 q87 9 114 69 q27 60 24 69 l-8 0 q2 -3 -26 -23 q-29 -21 -105 -24 q-76 3 -104 24 q-28 20 -26 23 l-7 0 q-3 -9 24 -69 q26 -60 114 -69 l0 0 Z" /><glyph glyph-name="" unicode="&#x2c7;" d="M122 511 l68 0 l100 149 l-24 0 l-110 -77 l-111 77 l-23 0 l100 -149 Z" /><glyph glyph-name="" unicode="¸" d="M82 -69 l-14 -2 l11 71 l-13 0 l-50 -80 q37 -1 57 -13 q21 -11 21 -34 q0 -22 -10 -35 q-10 -14 -25 -14 q-19 1 -32 8 q-14 6 -15 7 l0 -14 q1 -1 28 -10 q26 -10 63 -11 q38 0 58 17 q20 16 20 44 q0 31 -25 48 q-25 16 -74 18 l0 0 Z" /><glyph glyph-name="" unicode="&#x2c6;" d="M22 486 l38 0 l96 86 l96 -86 l38 0 l-100 145 l-68 0 l-100 -145 Z" /><glyph glyph-name="" unicode="¨" d="M79 505 q27 1 45 18 q17 18 18 42 q-1 26 -18 44 q-18 18 -45 19 q-26 -1 -41 -19 q-16 -18 -16 -44 q0 -24 16 -42 q15 -17 41 -18 l0 0 ZM272 505 q27 1 45 18 q18 18 19 42 q-1 26 -19 44 q-18 18 -45 19 q-25 -1 -40 -19 q-16 -18 -16 -44 q0 -24 16 -42 q15 -17 40 -18 l0 0 Z" /><glyph glyph-name="" unicode="&#x2d9;" d="M89 480 q28 1 47 20 q19 19 20 47 q-1 27 -20 45 q-19 18 -47 19 q-28 -1 -47 -19 q-19 -18 -20 -45 q1 -28 20 -47 q19 -19 47 -20 l0 0 Z" /><glyph glyph-name="" unicode="`" d="M158 494 l38 0 l-59 176 l-115 0 l136 -176 Z" /><glyph glyph-name="" unicode="&#x2dd;" d="M22 495 l24 0 l150 178 l-117 0 l-57 -178 ZM175 495 l24 0 l150 178 l-117 0 l-57 -178 Z" /><glyph glyph-name="" unicode="¯" d="M22 539 l266 0 l0 36 l-266 0 l0 -36 Z" /><glyph glyph-name="" unicode="&#x2db;" d="M76 -196 q48 1 80 11 q33 9 34 10 l0 22 q-1 0 -14 0 q-14 -1 -33 -1 q-18 0 -26 12 q-7 11 -6 29 q0 21 13 51 q12 31 32 62 l-20 0 q-44 -31 -82 -68 q-39 -38 -41 -73 q1 -28 18 -41 q18 -14 45 -14 l0 0 Z" /><glyph glyph-name="" unicode="&#x2da;" d="M120 507 q44 1 73 23 q29 22 30 53 q-1 34 -30 57 q-29 22 -73 23 q-44 -1 -73 -23 q-29 -23 -30 -57 q1 -31 30 -53 q29 -22 73 -23 l0 0 ZM120 550 q-15 0 -25 10 q-10 10 -10 24 q0 14 10 24 q10 10 25 10 q15 0 26 -10 q10 -10 10 -24 q0 -14 -10 -24 q-11 -10 -26 -10 l0 0 Z" /><glyph glyph-name="" unicode="&#x2dc;" d="M210 511 q31 4 46 44 q15 41 20 73 l-13 0 q1 -2 -10 -17 q-10 -16 -40 -18 q-32 2 -61 18 q-29 16 -64 18 q-31 -4 -45 -44 q-14 -41 -21 -73 l13 0 q-1 2 10 18 q10 15 40 17 q29 -2 60 -18 q31 -16 65 -18 l0 0 Z" /></font>
</defs>
</svg>
