<?xml version="1.0" standalone="no"?><!DOCTYPE svg PUBLIC "-//W3C//DTD SVG 1.1//EN" "http://www.w3.org/Graphics/SVG/1.1/DTD/svg11.dtd" ><svg xmlns="http://www.w3.org/2000/svg"><metadata></metadata><defs><font id="1.001;UKWN;Bota-Bold" horiz-adv-x="1074"><font-face font-family="Bota" font-weight="700" font-stretch="normal" units-per-em="1000" panose-1="0 0 8 0 0 0 0 0 0 0" ascent="910" descent="-290" x-height="0" bbox="-714 -429 1052 1070" underline-thickness="32" underline-position="-100" unicode-range="U+0020-fb02" /><missing-glyph horiz-adv-x="510" d="M418 730 l-323 0 l0 -1020 l323 0 l0 1020 ZM340 662 l0 -34 l-68 0 l0 -38 l68 0 l0 -33 l-170 0 l0 33 l68 0 l0 38 l-67 0 l0 34 l169 0 ZM272 530 l0 -71 l68 0 l0 -35 l-170 0 l0 106 l102 0 ZM238 495 l-34 0 l0 -36 l34 0 l0 36 ZM340 396 l0 -33 l-68 0 l0 -72 l-102 0 l0 34 l68 0 l0 38 l-68 0 l0 33 l170 0 ZM340 335 l0 -102 l-170 0 l0 35 l136 0 l0 67 l34 0 ZM340 211 l0 -115 l-170 0 l0 115 l34 0 l0 -82 l102 0 l0 48 l-34 0 l0 -23 l-34 0 l0 57 l102 0 ZM340 34 l0 -115 l-170 0 l0 115 l170 0 ZM306 1 l-102 0 l0 -48 l102 0 l0 48 ZM340 -104 l0 -34 l-33 0 l-71 -48 l104 0 l0 -34 l-170 0 l0 34 l72 48 l-72 0 l0 34 l170 0 Z" /><glyph glyph-name="" unicode=" " d="" /><glyph glyph-name="" unicode="A" d="M615 116 q-31 85 -116 326 q-85 241 -95 272 l-46 0 q-12 -31 -108 -272 q-95 -241 -130 -326 q-18 -51 -41 -68 q-22 -17 -79 -16 l0 -32 l263 0 q0 2 0 16 q0 13 0 16 l-34 0 q-37 -2 -61 9 q-23 11 -6 59 q6 15 23 57 q16 42 38 98 l210 0 q18 -54 32 -95 q13 -42 19 -60 q15 -48 -14 -59 q-28 -11 -77 -9 q-2 0 -13 0 q-10 0 -13 0 l0 -32 l366 0 l0 32 q-56 -1 -78 16 q-23 17 -40 68 l0 0 ZM239 295 q37 94 67 170 q29 75 31 79 l83 -249 l-181 0 Z" /><glyph glyph-name="" unicode="Á" d="M518 939 l-109 0 l-59 -178 l22 0 l146 178 ZM615 116 q-31 85 -116 326 q-85 241 -95 272 l-46 0 q-12 -31 -108 -272 q-95 -241 -130 -326 q-18 -51 -41 -68 q-22 -17 -79 -16 l0 -32 l263 0 q0 2 0 16 q0 13 0 16 l-34 0 q-37 -2 -61 9 q-23 11 -6 59 q6 15 23 57 q16 42 38 98 l210 0 q18 -54 32 -95 q13 -42 19 -60 q15 -48 -14 -59 q-28 -11 -77 -9 q-2 0 -13 0 q-10 0 -13 0 l0 -32 l366 0 l0 32 q-56 -1 -78 16 q-23 17 -40 68 l0 0 ZM239 295 q37 94 67 170 q29 75 31 79 l83 -249 l-181 0 Z" /><glyph glyph-name="" unicode="&#x102;" d="M369 764 q86 9 113 69 q27 60 25 69 l-8 0 q1 -3 -27 -27 q-29 -25 -104 -28 q-75 3 -103 28 q-28 24 -27 27 l-7 0 q-3 -9 24 -69 q27 -60 114 -69 l0 0 ZM615 116 q-31 85 -116 326 q-85 241 -95 272 l-46 0 q-12 -31 -108 -272 q-95 -241 -130 -326 q-18 -51 -41 -68 q-22 -17 -79 -16 l0 -32 l263 0 q0 2 0 16 q0 13 0 16 l-34 0 q-37 -2 -61 9 q-23 11 -6 59 q6 15 23 57 q16 42 38 98 l210 0 q18 -54 32 -95 q13 -42 19 -60 q15 -48 -14 -59 q-28 -11 -77 -9 q-2 0 -13 0 q-10 0 -13 0 l0 -32 l366 0 l0 32 q-56 -1 -78 16 q-23 17 -40 68 l0 0 ZM239 295 q37 94 67 170 q29 75 31 79 l83 -249 l-181 0 Z" /><glyph glyph-name="" unicode="&#x1eb6;" d="M369 764 q86 9 113 69 q27 60 25 69 l-8 0 q1 -3 -27 -27 q-29 -25 -104 -28 q-75 3 -103 28 q-28 24 -27 27 l-7 0 q-3 -9 24 -69 q27 -60 114 -69 l0 0 ZM615 116 q-31 85 -116 326 q-85 241 -95 272 l-46 0 q-12 -31 -108 -272 q-95 -241 -130 -326 q-18 -51 -41 -68 q-22 -17 -79 -16 l0 -32 l263 0 q0 2 0 16 q0 13 0 16 l-34 0 q-37 -2 -61 9 q-23 11 -6 59 q6 15 23 57 q16 42 38 98 l210 0 q18 -54 32 -95 q13 -42 19 -60 q15 -48 -14 -59 q-28 -11 -77 -9 q-2 0 -13 0 q-10 0 -13 0 l0 -32 l366 0 l0 32 q-56 -1 -78 16 q-23 17 -40 68 l0 0 ZM239 295 q37 94 67 170 q29 75 31 79 l83 -249 l-181 0 ZM374 -69 q-28 -1 -45 -18 q-18 -18 -19 -43 q1 -27 19 -45 q17 -18 45 -19 q27 1 45 19 q17 18 18 45 q-1 25 -18 43 q-18 17 -45 18 l0 0 Z" /><glyph glyph-name="" unicode="&#x1cd;" d="M417 778 l103 148 l-22 0 l-112 -80 l-113 80 l-21 0 l103 -148 l62 0 ZM615 116 q-31 85 -116 326 q-85 241 -95 272 l-46 0 q-12 -31 -108 -272 q-95 -241 -130 -326 q-18 -51 -41 -68 q-22 -17 -79 -16 l0 -32 l263 0 q0 2 0 16 q0 13 0 16 l-34 0 q-37 -2 -61 9 q-23 11 -6 59 q6 15 23 57 q16 42 38 98 l210 0 q18 -54 32 -95 q13 -42 19 -60 q15 -48 -14 -59 q-28 -11 -77 -9 q-2 0 -13 0 q-10 0 -13 0 l0 -32 l366 0 l0 32 q-56 -1 -78 16 q-23 17 -40 68 l0 0 ZM239 295 q37 94 67 170 q29 75 31 79 l83 -249 l-181 0 Z" /><glyph glyph-name="" unicode="Â" d="M377 839 l101 -87 l33 0 l-103 145 l-62 0 l-103 -145 l33 0 l101 87 ZM615 116 q-31 85 -116 326 q-85 241 -95 272 l-46 0 q-12 -31 -108 -272 q-95 -241 -130 -326 q-18 -51 -41 -68 q-22 -17 -79 -16 l0 -32 l263 0 q0 2 0 16 q0 13 0 16 l-34 0 q-37 -2 -61 9 q-23 11 -6 59 q6 15 23 57 q16 42 38 98 l210 0 q18 -54 32 -95 q13 -42 19 -60 q15 -48 -14 -59 q-28 -11 -77 -9 q-2 0 -13 0 q-10 0 -13 0 l0 -32 l366 0 l0 32 q-56 -1 -78 16 q-23 17 -40 68 l0 0 ZM239 295 q37 94 67 170 q29 75 31 79 l83 -249 l-181 0 Z" /><glyph glyph-name="" unicode="&#x1eac;" d="M377 839 l101 -87 l33 0 l-103 145 l-62 0 l-103 -145 l33 0 l101 87 ZM615 116 q-31 85 -116 326 q-85 241 -95 272 l-46 0 q-12 -31 -108 -272 q-95 -241 -130 -326 q-18 -51 -41 -68 q-22 -17 -79 -16 l0 -32 l263 0 q0 2 0 16 q0 13 0 16 l-34 0 q-37 -2 -61 9 q-23 11 -6 59 q6 15 23 57 q16 42 38 98 l210 0 q18 -54 32 -95 q13 -42 19 -60 q15 -48 -14 -59 q-28 -11 -77 -9 q-2 0 -13 0 q-10 0 -13 0 l0 -32 l366 0 l0 32 q-56 -1 -78 16 q-23 17 -40 68 l0 0 ZM239 295 q37 94 67 170 q29 75 31 79 l83 -249 l-181 0 ZM374 -69 q-28 -1 -45 -18 q-18 -18 -19 -43 q1 -27 19 -45 q17 -18 45 -19 q27 1 45 19 q17 18 18 45 q-1 25 -18 43 q-18 17 -45 18 l0 0 Z" /><glyph glyph-name="" unicode="Ä" d="M285 778 q25 1 42 17 q16 16 17 39 q-1 25 -17 42 q-17 16 -42 17 q-24 -1 -39 -17 q-15 -17 -15 -42 q0 -23 15 -39 q15 -16 39 -17 l0 0 ZM468 778 q25 1 42 17 q17 16 18 39 q-1 25 -18 42 q-17 16 -42 17 q-24 -1 -38 -17 q-15 -17 -15 -42 q0 -23 15 -39 q14 -16 38 -17 l0 0 ZM615 116 q-31 85 -116 326 q-85 241 -95 272 l-46 0 q-12 -31 -108 -272 q-95 -241 -130 -326 q-18 -51 -41 -68 q-22 -17 -79 -16 l0 -32 l263 0 q0 2 0 16 q0 13 0 16 l-34 0 q-37 -2 -61 9 q-23 11 -6 59 q6 15 23 57 q16 42 38 98 l210 0 q18 -54 32 -95 q13 -42 19 -60 q15 -48 -14 -59 q-28 -11 -77 -9 q-2 0 -13 0 q-10 0 -13 0 l0 -32 l366 0 l0 32 q-56 -1 -78 16 q-23 17 -40 68 l0 0 ZM239 295 q37 94 67 170 q29 75 31 79 l83 -249 l-181 0 Z" /><glyph glyph-name="" unicode="&#x1ea0;" d="M615 116 q-31 85 -116 326 q-85 241 -95 272 l-46 0 q-12 -31 -108 -272 q-95 -241 -130 -326 q-18 -51 -41 -68 q-22 -17 -79 -16 l0 -32 l263 0 q0 2 0 16 q0 13 0 16 l-34 0 q-37 -2 -61 9 q-23 11 -6 59 q6 15 23 57 q16 42 38 98 l210 0 q18 -54 32 -95 q13 -42 19 -60 q15 -48 -14 -59 q-28 -11 -77 -9 q-2 0 -13 0 q-10 0 -13 0 l0 -32 l366 0 l0 32 q-56 -1 -78 16 q-23 17 -40 68 l0 0 ZM239 295 q37 94 67 170 q29 75 31 79 l83 -249 l-181 0 ZM374 -69 q-28 -1 -45 -18 q-18 -18 -19 -43 q1 -27 19 -45 q17 -18 45 -19 q27 1 45 19 q17 18 18 45 q-1 25 -18 43 q-18 17 -45 18 l0 0 Z" /><glyph glyph-name="" unicode="À" d="M407 761 l-61 176 l-107 0 l135 -176 l33 0 ZM615 116 q-31 85 -116 326 q-85 241 -95 272 l-46 0 q-12 -31 -108 -272 q-95 -241 -130 -326 q-18 -51 -41 -68 q-22 -17 -79 -16 l0 -32 l263 0 q0 2 0 16 q0 13 0 16 l-34 0 q-37 -2 -61 9 q-23 11 -6 59 q6 15 23 57 q16 42 38 98 l210 0 q18 -54 32 -95 q13 -42 19 -60 q15 -48 -14 -59 q-28 -11 -77 -9 q-2 0 -13 0 q-10 0 -13 0 l0 -32 l366 0 l0 32 q-56 -1 -78 16 q-23 17 -40 68 l0 0 ZM239 295 q37 94 67 170 q29 75 31 79 l83 -249 l-181 0 Z" /><glyph glyph-name="" unicode="&#x1ea2;" d="M335 881 q31 -2 42 -20 q12 -19 11 -36 q-1 -25 -10 -42 q-10 -16 -19 -26 l5 -5 q18 6 54 40 q35 34 39 75 q0 29 -22 50 q-21 20 -62 21 q-53 -5 -82 -40 q-29 -36 -29 -41 l4 -5 q7 7 26 18 q19 10 43 11 l0 0 ZM615 116 q-31 85 -116 326 q-85 241 -95 272 l-46 0 q-12 -31 -108 -272 q-95 -241 -130 -326 q-18 -51 -41 -68 q-22 -17 -79 -16 l0 -32 l263 0 q0 2 0 16 q0 13 0 16 l-34 0 q-37 -2 -61 9 q-23 11 -6 59 q6 15 23 57 q16 42 38 98 l210 0 q18 -54 32 -95 q13 -42 19 -60 q15 -48 -14 -59 q-28 -11 -77 -9 q-2 0 -13 0 q-10 0 -13 0 l0 -32 l366 0 l0 32 q-56 -1 -78 16 q-23 17 -40 68 l0 0 ZM239 295 q37 94 67 170 q29 75 31 79 l83 -249 l-181 0 Z" /><glyph glyph-name="" unicode="&#x100;" d="M494 839 l-257 0 l0 -34 l257 0 l0 34 ZM615 116 q-31 85 -116 326 q-85 241 -95 272 l-46 0 q-12 -31 -108 -272 q-95 -241 -130 -326 q-18 -51 -41 -68 q-22 -17 -79 -16 l0 -32 l263 0 q0 2 0 16 q0 13 0 16 l-34 0 q-37 -2 -61 9 q-23 11 -6 59 q6 15 23 57 q16 42 38 98 l210 0 q18 -54 32 -95 q13 -42 19 -60 q15 -48 -14 -59 q-28 -11 -77 -9 q-2 0 -13 0 q-10 0 -13 0 l0 -32 l366 0 l0 32 q-56 -1 -78 16 q-23 17 -40 68 l0 0 ZM239 295 q37 94 67 170 q29 75 31 79 l83 -249 l-181 0 Z" /><glyph glyph-name="" unicode="&#x104;" d="M720 -149 q-18 0 -26 12 q-7 11 -6 29 q0 20 12 49 q11 29 29 59 l4 0 l0 32 q-56 -1 -78 16 q-23 17 -40 68 q-31 85 -116 326 q-85 241 -95 272 l-46 0 q-12 -31 -108 -272 q-95 -241 -130 -326 q-18 -51 -41 -68 q-22 -17 -79 -16 l0 -32 l263 0 q0 2 0 16 q0 13 0 16 l-34 0 q-37 -2 -61 9 q-23 11 -6 59 q6 15 23 57 q16 42 38 98 l210 0 q18 -54 32 -95 q13 -42 19 -60 q15 -48 -14 -59 q-28 -11 -77 -9 q-2 0 -13 0 q-10 0 -13 0 l0 -32 l338 0 q-39 -30 -72 -65 q-32 -36 -34 -69 q1 -28 18 -41 q18 -14 45 -14 q45 1 74 11 q30 9 31 10 l0 22 q-1 0 -14 -1 q-14 -2 -33 -2 l0 0 ZM239 295 q37 94 67 170 q29 75 31 79 l83 -249 l-181 0 Z" /><glyph glyph-name="" unicode="Å" d="M369 764 q42 1 70 22 q28 21 29 50 q-1 32 -29 54 q-28 22 -70 23 q-42 -1 -70 -23 q-27 -22 -28 -54 q1 -29 28 -50 q28 -21 70 -22 l0 0 ZM369 871 q15 0 26 -10 q10 -10 10 -24 q0 -14 -10 -24 q-11 -10 -26 -10 q-15 0 -25 10 q-10 10 -10 24 q0 14 10 24 q10 10 25 10 l0 0 ZM615 116 q-31 85 -116 326 q-85 241 -95 272 l-46 0 q-12 -31 -108 -272 q-95 -241 -130 -326 q-18 -51 -41 -68 q-22 -17 -79 -16 l0 -32 l263 0 q0 2 0 16 q0 13 0 16 l-34 0 q-37 -2 -61 9 q-23 11 -6 59 q6 15 23 57 q16 42 38 98 l210 0 q18 -54 32 -95 q13 -42 19 -60 q15 -48 -14 -59 q-28 -11 -77 -9 q-2 0 -13 0 q-10 0 -13 0 l0 -32 l366 0 l0 32 q-56 -1 -78 16 q-23 17 -40 68 l0 0 ZM239 295 q37 94 67 170 q29 75 31 79 l83 -249 l-181 0 Z" /><glyph glyph-name="" unicode="Ã" d="M301 812 q29 -2 60 -18 q31 -16 65 -18 q31 3 45 41 q15 38 20 70 l-12 0 q1 -2 -10 -17 q-10 -16 -40 -18 q-32 2 -61 18 q-29 16 -64 18 q-31 -3 -44 -41 q-14 -38 -21 -70 l12 0 q-1 2 10 18 q10 15 40 17 l0 0 ZM615 116 q-31 85 -116 326 q-85 241 -95 272 l-46 0 q-12 -31 -108 -272 q-95 -241 -130 -326 q-18 -51 -41 -68 q-22 -17 -79 -16 l0 -32 l263 0 q0 2 0 16 q0 13 0 16 l-34 0 q-37 -2 -61 9 q-23 11 -6 59 q6 15 23 57 q16 42 38 98 l210 0 q18 -54 32 -95 q13 -42 19 -60 q15 -48 -14 -59 q-28 -11 -77 -9 q-2 0 -13 0 q-10 0 -13 0 l0 -32 l366 0 l0 32 q-56 -1 -78 16 q-23 17 -40 68 l0 0 ZM239 295 q37 94 67 170 q29 75 31 79 l83 -249 l-181 0 Z" /><glyph glyph-name="" unicode="Æ" d="M-3 0 l272 0 l0 33 l-42 0 q-38 -1 -59 12 q-21 12 4 56 q30 51 54 90 q23 39 49 81 l233 0 l0 -164 q-1 -53 -34 -73 q-34 -21 -83 -20 l0 -15 l597 0 l0 221 l-25 0 q-10 -97 -32 -139 q-22 -42 -91 -41 l-138 0 q-35 -1 -52 13 q-17 14 -17 54 l0 250 l143 0 q55 2 75 -23 q21 -26 27 -102 l25 0 l0 290 l-25 0 q-5 -77 -27 -102 q-21 -25 -75 -23 l-143 0 l0 194 q0 40 17 54 q17 14 52 13 l123 0 q67 1 91 -35 q24 -36 32 -117 l26 0 l0 193 l-486 0 q7 10 -62 -105 q-69 -115 -293 -478 q-26 -45 -53 -65 q-26 -19 -83 -19 l0 -33 ZM296 311 q65 107 123 200 q57 94 89 146 l0 -346 l-212 0 Z" /><glyph glyph-name="" unicode="B" d="M30 0 l328 0 q96 -3 176 38 q80 41 85 158 q-4 87 -64 127 q-60 41 -134 49 q51 1 105 42 q55 41 59 120 q-2 86 -72 126 q-70 40 -185 40 l-298 0 l0 -32 q40 1 69 -14 q30 -16 31 -66 l0 -470 q-1 -55 -31 -71 q-29 -17 -69 -15 l0 -32 ZM342 385 q-37 1 -60 5 q-23 5 -24 4 l0 199 q-1 28 13 47 q14 18 61 19 l12 0 q65 -1 88 -36 q22 -34 21 -91 q0 -66 -27 -106 q-28 -40 -84 -41 l0 0 ZM317 41 q-36 1 -48 19 q-12 18 -11 47 l0 246 q1 -1 24 -5 q23 -4 58 -5 q11 0 19 0 q7 1 19 2 q66 -11 87 -58 q21 -47 19 -94 q2 -49 -22 -98 q-25 -50 -104 -54 l-41 0 Z" /><glyph glyph-name="" unicode="C" d="M416 -10 q70 2 148 15 q78 13 85 15 l0 207 l-31 0 q-3 -113 -54 -155 q-52 -43 -148 -41 q-119 1 -177 83 q-57 82 -57 236 q0 154 57 236 q58 82 177 83 q94 0 138 -42 q45 -41 53 -119 l25 0 l6 179 q-2 2 -60 12 q-59 10 -148 11 q-174 -5 -280 -106 q-107 -100 -110 -254 q1 -154 99 -255 q97 -101 277 -105 l0 0 Z" /><glyph glyph-name="" unicode="&#x106;" d="M373 751 l22 0 l146 178 l-109 0 l-59 -178 ZM416 -10 q70 2 148 15 q78 13 85 15 l0 207 l-31 0 q-3 -113 -54 -155 q-52 -43 -148 -41 q-119 1 -177 83 q-57 82 -57 236 q0 154 57 236 q58 82 177 83 q94 0 138 -42 q45 -41 53 -119 l25 0 l6 179 q-2 2 -60 12 q-59 10 -148 11 q-174 -5 -280 -106 q-107 -100 -110 -254 q1 -154 99 -255 q97 -101 277 -105 l0 0 Z" /><glyph glyph-name="" unicode="&#x10c;" d="M379 768 l62 0 l103 148 l-22 0 l-112 -80 l-113 80 l-21 0 l103 -148 ZM416 -10 q70 2 148 15 q78 13 85 15 l0 207 l-31 0 q-3 -113 -54 -155 q-52 -43 -148 -41 q-119 1 -177 83 q-57 82 -57 236 q0 154 57 236 q58 82 177 83 q94 0 138 -42 q45 -41 53 -119 l25 0 l6 179 q-2 2 -60 12 q-59 10 -148 11 q-174 -5 -280 -106 q-107 -100 -110 -254 q1 -154 99 -255 q97 -101 277 -105 l0 0 Z" /><glyph glyph-name="" unicode="Ç" d="M416 -10 q70 2 148 15 q78 13 85 15 l0 207 l-31 0 q-3 -113 -54 -155 q-52 -43 -148 -41 q-119 1 -177 83 q-57 82 -57 236 q0 154 57 236 q58 82 177 83 q94 0 138 -42 q45 -41 53 -119 l25 0 l6 179 q-2 2 -60 12 q-59 10 -148 11 q-174 -5 -280 -106 q-107 -100 -110 -254 q1 -147 90 -246 q90 -100 255 -113 l-47 -76 q37 -1 57 -13 q21 -11 21 -34 q0 -22 -10 -35 q-10 -14 -27 -14 q-18 1 -31 8 q-13 6 -14 7 l0 -14 q1 -1 26 -10 q24 -10 60 -11 q36 0 56 17 q19 16 19 44 q0 31 -25 48 q-25 16 -74 18 l-8 -2 l11 66 l17 0 Z" /><glyph glyph-name="" unicode="&#x10a;" d="M404 759 q27 1 45 19 q17 18 18 45 q-1 25 -18 43 q-18 17 -45 18 q-28 -1 -45 -18 q-18 -18 -19 -43 q1 -27 19 -45 q17 -18 45 -19 l0 0 ZM416 -10 q70 2 148 15 q78 13 85 15 l0 207 l-31 0 q-3 -113 -54 -155 q-52 -43 -148 -41 q-119 1 -177 83 q-57 82 -57 236 q0 154 57 236 q58 82 177 83 q94 0 138 -42 q45 -41 53 -119 l25 0 l6 179 q-2 2 -60 12 q-59 10 -148 11 q-174 -5 -280 -106 q-107 -100 -110 -254 q1 -154 99 -255 q97 -101 277 -105 l0 0 Z" /><glyph glyph-name="" unicode="D" d="M30 0 l377 0 q175 3 277 100 q101 98 103 250 q-2 152 -103 250 q-102 97 -277 100 l-377 0 l0 -32 q49 2 82 -10 q33 -13 34 -66 l0 -484 q-1 -52 -34 -65 q-33 -13 -82 -11 l0 -32 ZM387 41 q-49 -3 -82 5 q-34 9 -35 62 l0 484 q1 51 35 61 q33 9 82 6 l20 0 q129 -3 185 -90 q56 -87 55 -219 q1 -132 -55 -219 q-56 -87 -185 -90 l-20 0 Z" /><glyph glyph-name="" unicode="Ð" d="M407 700 l-377 0 l0 -32 q49 2 82 -10 q33 -13 34 -66 l0 -222 l-60 0 l0 -42 l60 0 l0 -220 q-1 -52 -34 -65 q-33 -13 -82 -11 l0 -32 l377 0 q175 3 277 100 q101 98 103 250 q-2 152 -103 250 q-102 97 -277 100 l0 0 ZM407 41 l-20 0 q-49 -3 -82 5 q-34 9 -35 62 l0 220 l124 0 l0 42 l-124 0 l0 222 q1 51 35 61 q33 9 82 6 l20 0 q129 -3 185 -90 q56 -87 55 -219 q1 -132 -55 -219 q-56 -87 -185 -90 l0 0 Z" /><glyph glyph-name="" unicode="&#x10e;" d="M334 769 l62 0 l103 148 l-22 0 l-112 -80 l-113 80 l-21 0 l103 -148 ZM30 0 l377 0 q175 3 277 100 q101 98 103 250 q-2 152 -103 250 q-102 97 -277 100 l-377 0 l0 -32 q49 2 82 -10 q33 -13 34 -66 l0 -484 q-1 -52 -34 -65 q-33 -13 -82 -11 l0 -32 ZM387 41 q-49 -3 -82 5 q-34 9 -35 62 l0 484 q1 51 35 61 q33 9 82 6 l20 0 q129 -3 185 -90 q56 -87 55 -219 q1 -132 -55 -219 q-56 -87 -185 -90 l-20 0 Z" /><glyph glyph-name="" unicode="&#x110;" d="M407 700 l-377 0 l0 -32 q49 2 82 -10 q33 -13 34 -66 l0 -189 l-91 0 l0 -42 l91 0 l0 -253 q-1 -52 -34 -65 q-33 -13 -82 -11 l0 -32 l377 0 q175 3 277 100 q101 98 103 250 q-2 152 -103 250 q-102 97 -277 100 l0 0 ZM407 41 l-20 0 q-49 -3 -82 5 q-34 9 -35 62 l0 253 l192 0 l0 42 l-192 0 l0 189 q1 51 35 61 q33 9 82 6 l20 0 q129 -3 185 -90 q56 -87 55 -219 q1 -132 -55 -219 q-56 -87 -185 -90 l0 0 Z" /><glyph glyph-name="" unicode="E" d="M30 0 l563 0 l0 204 l-31 0 q-10 -86 -32 -125 q-22 -39 -91 -38 l-99 0 q-35 -1 -52 13 q-17 14 -17 54 l0 250 l104 0 q62 0 80 -29 q18 -30 22 -96 l31 0 l0 290 l-31 0 q-4 -66 -22 -95 q-19 -30 -80 -30 l-104 0 l0 194 q0 40 17 54 q17 14 52 13 l84 0 q67 1 92 -31 q25 -32 31 -104 l32 0 l3 176 l-552 0 l0 -32 q49 2 83 -11 q33 -14 34 -65 l0 -484 q-1 -52 -34 -65 q-34 -13 -83 -11 l0 -32 Z" /><glyph glyph-name="" unicode="É" d="M312 752 l22 0 l146 178 l-109 0 l-59 -178 ZM30 0 l563 0 l0 204 l-31 0 q-10 -86 -32 -125 q-22 -39 -91 -38 l-99 0 q-35 -1 -52 13 q-17 14 -17 54 l0 250 l104 0 q62 0 80 -29 q18 -30 22 -96 l31 0 l0 290 l-31 0 q-4 -66 -22 -95 q-19 -30 -80 -30 l-104 0 l0 194 q0 40 17 54 q17 14 52 13 l84 0 q67 1 92 -31 q25 -32 31 -104 l32 0 l3 176 l-552 0 l0 -32 q49 2 83 -11 q33 -14 34 -65 l0 -484 q-1 -52 -34 -65 q-34 -13 -83 -11 l0 -32 Z" /><glyph glyph-name="" unicode="&#x11a;" d="M318 769 l62 0 l103 148 l-22 0 l-112 -80 l-113 80 l-21 0 l103 -148 ZM30 0 l563 0 l0 204 l-31 0 q-10 -86 -32 -125 q-22 -39 -91 -38 l-99 0 q-35 -1 -52 13 q-17 14 -17 54 l0 250 l104 0 q62 0 80 -29 q18 -30 22 -96 l31 0 l0 290 l-31 0 q-4 -66 -22 -95 q-19 -30 -80 -30 l-104 0 l0 194 q0 40 17 54 q17 14 52 13 l84 0 q67 1 92 -31 q25 -32 31 -104 l32 0 l3 176 l-552 0 l0 -32 q49 2 83 -11 q33 -14 34 -65 l0 -484 q-1 -52 -34 -65 q-34 -13 -83 -11 l0 -32 Z" /><glyph glyph-name="" unicode="Ê" d="M206 743 l33 0 l101 87 l101 -87 l33 0 l-103 145 l-62 0 l-103 -145 ZM30 0 l563 0 l0 204 l-31 0 q-10 -86 -32 -125 q-22 -39 -91 -38 l-99 0 q-35 -1 -52 13 q-17 14 -17 54 l0 250 l104 0 q62 0 80 -29 q18 -30 22 -96 l31 0 l0 290 l-31 0 q-4 -66 -22 -95 q-19 -30 -80 -30 l-104 0 l0 194 q0 40 17 54 q17 14 52 13 l84 0 q67 1 92 -31 q25 -32 31 -104 l32 0 l3 176 l-552 0 l0 -32 q49 2 83 -11 q33 -14 34 -65 l0 -484 q-1 -52 -34 -65 q-34 -13 -83 -11 l0 -32 Z" /><glyph glyph-name="" unicode="&#x1ec6;" d="M206 743 l33 0 l101 87 l101 -87 l33 0 l-103 145 l-62 0 l-103 -145 ZM30 0 l563 0 l0 204 l-31 0 q-10 -86 -32 -125 q-22 -39 -91 -38 l-99 0 q-35 -1 -52 13 q-17 14 -17 54 l0 250 l104 0 q62 0 80 -29 q18 -30 22 -96 l31 0 l0 290 l-31 0 q-4 -66 -22 -95 q-19 -30 -80 -30 l-104 0 l0 194 q0 40 17 54 q17 14 52 13 l84 0 q67 1 92 -31 q25 -32 31 -104 l32 0 l3 176 l-552 0 l0 -32 q49 2 83 -11 q33 -14 34 -65 l0 -484 q-1 -52 -34 -65 q-34 -13 -83 -11 l0 -32 ZM359 -194 q27 1 45 19 q17 18 18 45 q-1 25 -18 43 q-18 17 -45 18 q-28 -1 -45 -18 q-18 -18 -19 -43 q1 -27 19 -45 q17 -18 45 -19 l0 0 Z" /><glyph glyph-name="" unicode="Ë" d="M248 769 q25 1 42 17 q16 16 17 39 q-1 25 -17 42 q-17 16 -42 17 q-24 -1 -39 -17 q-15 -17 -15 -42 q0 -23 15 -39 q15 -16 39 -17 l0 0 ZM431 769 q25 1 42 17 q17 16 18 39 q-1 25 -18 42 q-17 16 -42 17 q-24 -1 -38 -17 q-15 -17 -15 -42 q0 -23 15 -39 q14 -16 38 -17 l0 0 ZM30 0 l563 0 l0 204 l-31 0 q-10 -86 -32 -125 q-22 -39 -91 -38 l-99 0 q-35 -1 -52 13 q-17 14 -17 54 l0 250 l104 0 q62 0 80 -29 q18 -30 22 -96 l31 0 l0 290 l-31 0 q-4 -66 -22 -95 q-19 -30 -80 -30 l-104 0 l0 194 q0 40 17 54 q17 14 52 13 l84 0 q67 1 92 -31 q25 -32 31 -104 l32 0 l3 176 l-552 0 l0 -32 q49 2 83 -11 q33 -14 34 -65 l0 -484 q-1 -52 -34 -65 q-34 -13 -83 -11 l0 -32 Z" /><glyph glyph-name="" unicode="&#x116;" d="M343 760 q27 1 45 19 q17 18 18 45 q-1 25 -18 43 q-18 17 -45 18 q-28 -1 -45 -18 q-18 -18 -19 -43 q1 -27 19 -45 q17 -18 45 -19 l0 0 ZM30 0 l563 0 l0 204 l-31 0 q-10 -86 -32 -125 q-22 -39 -91 -38 l-99 0 q-35 -1 -52 13 q-17 14 -17 54 l0 250 l104 0 q62 0 80 -29 q18 -30 22 -96 l31 0 l0 290 l-31 0 q-4 -66 -22 -95 q-19 -30 -80 -30 l-104 0 l0 194 q0 40 17 54 q17 14 52 13 l84 0 q67 1 92 -31 q25 -32 31 -104 l32 0 l3 176 l-552 0 l0 -32 q49 2 83 -11 q33 -14 34 -65 l0 -484 q-1 -52 -34 -65 q-34 -13 -83 -11 l0 -32 Z" /><glyph glyph-name="" unicode="&#x1eb8;" d="M30 0 l563 0 l0 204 l-31 0 q-10 -86 -32 -125 q-22 -39 -91 -38 l-99 0 q-35 -1 -52 13 q-17 14 -17 54 l0 250 l104 0 q62 0 80 -29 q18 -30 22 -96 l31 0 l0 290 l-31 0 q-4 -66 -22 -95 q-19 -30 -80 -30 l-104 0 l0 194 q0 40 17 54 q17 14 52 13 l84 0 q67 1 92 -31 q25 -32 31 -104 l32 0 l3 176 l-552 0 l0 -32 q49 2 83 -11 q33 -14 34 -65 l0 -484 q-1 -52 -34 -65 q-34 -13 -83 -11 l0 -32 ZM359 -194 q27 1 45 19 q17 18 18 45 q-1 25 -18 43 q-18 17 -45 18 q-28 -1 -45 -18 q-18 -18 -19 -43 q1 -27 19 -45 q17 -18 45 -19 l0 0 Z" /><glyph glyph-name="" unicode="È" d="M337 753 l33 0 l-61 176 l-107 0 l135 -176 ZM30 0 l563 0 l0 204 l-31 0 q-10 -86 -32 -125 q-22 -39 -91 -38 l-99 0 q-35 -1 -52 13 q-17 14 -17 54 l0 250 l104 0 q62 0 80 -29 q18 -30 22 -96 l31 0 l0 290 l-31 0 q-4 -66 -22 -95 q-19 -30 -80 -30 l-104 0 l0 194 q0 40 17 54 q17 14 52 13 l84 0 q67 1 92 -31 q25 -32 31 -104 l32 0 l3 176 l-552 0 l0 -32 q49 2 83 -11 q33 -14 34 -65 l0 -484 q-1 -52 -34 -65 q-34 -13 -83 -11 l0 -32 Z" /><glyph glyph-name="" unicode="&#x1eba;" d="M327 743 q18 6 54 40 q35 34 39 75 q0 29 -22 50 q-21 20 -62 21 q-53 -5 -82 -40 q-29 -36 -29 -41 l4 -5 q7 7 26 18 q19 10 43 11 q31 -2 42 -20 q12 -19 11 -36 q-1 -25 -10 -42 q-10 -16 -19 -26 l5 -5 ZM30 0 l563 0 l0 204 l-31 0 q-10 -86 -32 -125 q-22 -39 -91 -38 l-99 0 q-35 -1 -52 13 q-17 14 -17 54 l0 250 l104 0 q62 0 80 -29 q18 -30 22 -96 l31 0 l0 290 l-31 0 q-4 -66 -22 -95 q-19 -30 -80 -30 l-104 0 l0 194 q0 40 17 54 q17 14 52 13 l84 0 q67 1 92 -31 q25 -32 31 -104 l32 0 l3 176 l-552 0 l0 -32 q49 2 83 -11 q33 -14 34 -65 l0 -484 q-1 -52 -34 -65 q-34 -13 -83 -11 l0 -32 Z" /><glyph glyph-name="" unicode="&#x112;" d="M200 796 l257 0 l0 34 l-257 0 l0 -34 ZM30 0 l563 0 l0 204 l-31 0 q-10 -86 -32 -125 q-22 -39 -91 -38 l-99 0 q-35 -1 -52 13 q-17 14 -17 54 l0 250 l104 0 q62 0 80 -29 q18 -30 22 -96 l31 0 l0 290 l-31 0 q-4 -66 -22 -95 q-19 -30 -80 -30 l-104 0 l0 194 q0 40 17 54 q17 14 52 13 l84 0 q67 1 92 -31 q25 -32 31 -104 l32 0 l3 176 l-552 0 l0 -32 q49 2 83 -11 q33 -14 34 -65 l0 -484 q-1 -52 -34 -65 q-34 -13 -83 -11 l0 -32 Z" /><glyph glyph-name="" unicode="&#x118;" d="M580 -149 q-18 0 -26 12 q-7 11 -6 29 q0 20 12 49 q11 29 29 59 l4 0 l0 204 l-31 0 q-10 -86 -32 -125 q-22 -39 -91 -38 l-99 0 q-35 -1 -52 13 q-17 14 -17 54 l0 250 l104 0 q62 0 80 -29 q18 -30 22 -96 l31 0 l0 290 l-31 0 q-4 -66 -22 -95 q-19 -30 -80 -30 l-104 0 l0 194 q0 40 17 54 q17 14 52 13 l84 0 q67 1 92 -31 q25 -32 31 -104 l32 0 l3 176 l-552 0 l0 -32 q49 2 83 -11 q33 -14 34 -65 l0 -484 q-1 -52 -34 -65 q-34 -13 -83 -11 l0 -32 l535 0 q-39 -30 -72 -65 q-32 -36 -34 -69 q1 -28 18 -41 q18 -14 45 -14 q45 1 74 11 q30 9 31 10 l0 22 q-1 0 -14 -1 q-14 -2 -33 -2 l0 0 Z" /><glyph glyph-name="" unicode="&#x1ebc;" d="M388 767 q31 3 45 41 q15 38 20 70 l-12 0 q1 -2 -10 -17 q-10 -16 -40 -18 q-32 2 -61 18 q-29 16 -64 18 q-31 -3 -44 -41 q-14 -38 -21 -70 l12 0 q-1 2 10 18 q10 15 40 17 q29 -2 60 -18 q31 -16 65 -18 l0 0 ZM30 0 l563 0 l0 204 l-31 0 q-10 -86 -32 -125 q-22 -39 -91 -38 l-99 0 q-35 -1 -52 13 q-17 14 -17 54 l0 250 l104 0 q62 0 80 -29 q18 -30 22 -96 l31 0 l0 290 l-31 0 q-4 -66 -22 -95 q-19 -30 -80 -30 l-104 0 l0 194 q0 40 17 54 q17 14 52 13 l84 0 q67 1 92 -31 q25 -32 31 -104 l32 0 l3 176 l-552 0 l0 -32 q49 2 83 -11 q33 -14 34 -65 l0 -484 q-1 -52 -34 -65 q-34 -13 -83 -11 l0 -32 Z" /><glyph glyph-name="" unicode="F" d="M30 0 l384 0 l0 32 q-71 -2 -108 10 q-37 13 -37 66 l0 250 l103 0 q55 1 76 -26 q20 -28 27 -99 l33 0 l-3 290 l-30 0 q-5 -71 -27 -99 q-21 -27 -76 -26 l-103 0 l0 194 q0 40 17 54 q18 14 52 13 l84 0 q67 1 92 -28 q25 -30 32 -107 l30 0 l3 176 l-549 0 l0 -32 q49 2 82 -11 q33 -14 34 -65 l0 -484 q-1 -51 -34 -65 q-33 -13 -82 -11 l0 -32 Z" /><glyph glyph-name="" unicode="G" d="M406 -10 q98 -2 183 21 q84 23 89 27 l0 203 q0 37 13 56 q12 20 48 20 l0 27 l-315 0 l0 -27 q63 2 97 -10 q34 -13 34 -66 l0 -160 q2 -3 -28 -25 q-31 -22 -121 -25 q-116 2 -170 89 q-55 87 -54 230 q0 143 62 229 q63 87 191 89 q79 0 138 -42 q58 -41 69 -119 l30 0 l0 180 q-9 1 -90 11 q-82 10 -133 12 q-199 -4 -303 -105 q-105 -101 -106 -255 q1 -152 95 -249 q95 -97 271 -111 l0 0 Z" /><glyph glyph-name="" unicode="&#x11e;" d="M383 764 q86 9 113 69 q27 60 25 69 l-8 0 q1 -3 -27 -27 q-29 -25 -104 -28 q-75 3 -103 28 q-28 24 -27 27 l-7 0 q-3 -9 24 -69 q27 -60 114 -69 l0 0 ZM406 -10 q98 -2 183 21 q84 23 89 27 l0 203 q0 37 13 56 q12 20 48 20 l0 27 l-315 0 l0 -27 q63 2 97 -10 q34 -13 34 -66 l0 -160 q2 -3 -28 -25 q-31 -22 -121 -25 q-116 2 -170 89 q-55 87 -54 230 q0 143 62 229 q63 87 191 89 q79 0 138 -42 q58 -41 69 -119 l30 0 l0 180 q-9 1 -90 11 q-82 10 -133 12 q-199 -4 -303 -105 q-105 -101 -106 -255 q1 -152 95 -249 q95 -97 271 -111 l0 0 Z" /><glyph glyph-name="" unicode="&#x122;" d="M406 -10 q98 -2 183 21 q84 23 89 27 l0 203 q0 37 13 56 q12 20 48 20 l0 27 l-315 0 l0 -27 q63 2 97 -10 q34 -13 34 -66 l0 -160 q2 -3 -28 -25 q-31 -22 -121 -25 q-116 2 -170 89 q-55 87 -54 230 q0 143 62 229 q63 87 191 89 q79 0 138 -42 q58 -41 69 -119 l30 0 l0 180 q-9 1 -90 11 q-82 10 -133 12 q-199 -4 -303 -105 q-105 -101 -106 -255 q1 -152 95 -249 q95 -97 271 -111 l0 0 ZM318 -229 l10 0 l136 184 l-98 12 l-48 -196 Z" /><glyph glyph-name="" unicode="&#x120;" d="M394 769 q27 1 45 19 q17 18 18 45 q-1 25 -18 43 q-18 17 -45 18 q-28 -1 -45 -18 q-18 -18 -19 -43 q1 -27 19 -45 q17 -18 45 -19 l0 0 ZM406 -10 q98 -2 183 21 q84 23 89 27 l0 203 q0 37 13 56 q12 20 48 20 l0 27 l-315 0 l0 -27 q63 2 97 -10 q34 -13 34 -66 l0 -160 q2 -3 -28 -25 q-31 -22 -121 -25 q-116 2 -170 89 q-55 87 -54 230 q0 143 62 229 q63 87 191 89 q79 0 138 -42 q58 -41 69 -119 l30 0 l0 180 q-9 1 -90 11 q-82 10 -133 12 q-199 -4 -303 -105 q-105 -101 -106 -255 q1 -152 95 -249 q95 -97 271 -111 l0 0 Z" /><glyph glyph-name="" unicode="H" d="M788 668 l0 32 l-342 0 l0 -32 q53 1 78 -14 q24 -16 24 -62 l0 -194 l-277 0 l0 194 q0 44 24 61 q25 16 78 15 l0 32 l-343 0 l0 -32 q49 2 83 -10 q33 -13 34 -66 l0 -484 q-1 -52 -34 -65 q-34 -13 -83 -11 l0 -32 l343 0 l0 32 q-53 -1 -78 14 q-24 16 -24 62 l0 250 l277 0 l0 -250 q0 -44 -24 -60 q-25 -17 -78 -16 l0 -32 l342 0 l0 32 q-49 -2 -82 10 q-33 12 -34 66 l0 484 q1 52 34 65 q33 13 82 11 l0 0 Z" /><glyph glyph-name="" unicode="&#x126;" d="M800 668 l0 32 l-342 0 l0 -32 q53 1 78 -14 q24 -16 24 -62 l0 -55 l-277 0 l0 55 q0 44 24 61 q25 16 78 15 l0 32 l-343 0 l0 -32 q49 2 83 -10 q33 -13 34 -66 l0 -55 l-94 0 l0 -39 l94 0 l0 -390 q-1 -52 -34 -65 q-34 -13 -83 -11 l0 -32 l343 0 l0 32 q-53 -1 -78 14 q-24 16 -24 62 l0 250 l277 0 l0 -250 q0 -44 -24 -60 q-25 -17 -78 -16 l0 -32 l342 0 l0 32 q-49 -2 -82 10 q-33 12 -34 66 l0 390 l94 0 l0 39 l-94 0 l0 55 q1 52 34 65 q33 13 82 11 l0 0 ZM560 398 l-277 0 l0 100 l277 0 l0 -100 Z" /><glyph glyph-name="" unicode="I" d="M30 0 l356 0 l0 32 q-49 -2 -82 10 q-33 12 -34 66 l0 484 q1 52 34 65 q33 13 82 11 l0 32 l-356 0 l0 -32 q49 2 83 -10 q33 -13 34 -66 l0 -484 q-1 -52 -34 -65 q-34 -13 -83 -11 l0 -32 Z" /><glyph glyph-name="" unicode="&#x132;" d="M30 0 l356 0 l0 32 q-49 -2 -82 10 q-33 12 -34 66 l0 484 q1 52 34 65 q33 13 82 11 l0 32 l-356 0 l0 -32 q49 2 83 -10 q33 -13 34 -66 l0 -484 q-1 -52 -34 -65 q-34 -13 -83 -11 l0 -32 ZM569 -10 q142 3 182 52 q40 48 35 114 l0 436 q1 52 34 65 q33 13 82 11 l0 32 l-385 0 l0 -32 q63 2 103 -10 q41 -13 42 -66 l0 -459 q0 -51 -23 -76 q-23 -26 -71 -26 q-50 -1 -80 38 q-30 38 -40 123 l-32 0 l0 -179 q3 -1 54 -11 q52 -10 99 -12 l0 0 Z" /><glyph glyph-name="" unicode="Í" d="M185 752 l22 0 l146 178 l-109 0 l-59 -178 ZM30 0 l356 0 l0 32 q-49 -2 -82 10 q-33 12 -34 66 l0 484 q1 52 34 65 q33 13 82 11 l0 32 l-356 0 l0 -32 q49 2 83 -10 q33 -13 34 -66 l0 -484 q-1 -52 -34 -65 q-34 -13 -83 -11 l0 -32 Z" /><glyph glyph-name="" unicode="&#x1cf;" d="M190 769 l62 0 l103 148 l-22 0 l-112 -80 l-113 80 l-21 0 l103 -148 ZM30 0 l356 0 l0 32 q-49 -2 -82 10 q-33 12 -34 66 l0 484 q1 52 34 65 q33 13 82 11 l0 32 l-356 0 l0 -32 q49 2 83 -10 q33 -13 34 -66 l0 -484 q-1 -52 -34 -65 q-34 -13 -83 -11 l0 -32 Z" /><glyph glyph-name="" unicode="Î" d="M78 743 l33 0 l101 87 l101 -87 l33 0 l-103 145 l-62 0 l-103 -145 ZM30 0 l356 0 l0 32 q-49 -2 -82 10 q-33 12 -34 66 l0 484 q1 52 34 65 q33 13 82 11 l0 32 l-356 0 l0 -32 q49 2 83 -10 q33 -13 34 -66 l0 -484 q-1 -52 -34 -65 q-34 -13 -83 -11 l0 -32 Z" /><glyph glyph-name="" unicode="Ï" d="M120 769 q25 1 42 17 q16 16 17 39 q-1 25 -17 42 q-17 16 -42 17 q-24 -1 -39 -17 q-15 -17 -15 -42 q0 -23 15 -39 q15 -16 39 -17 l0 0 ZM303 769 q25 1 42 17 q17 16 18 39 q-1 25 -18 42 q-17 16 -42 17 q-24 -1 -38 -17 q-15 -17 -15 -42 q0 -23 15 -39 q14 -16 38 -17 l0 0 ZM30 0 l356 0 l0 32 q-49 -2 -82 10 q-33 12 -34 66 l0 484 q1 52 34 65 q33 13 82 11 l0 32 l-356 0 l0 -32 q49 2 83 -10 q33 -13 34 -66 l0 -484 q-1 -52 -34 -65 q-34 -13 -83 -11 l0 -32 Z" /><glyph glyph-name="" unicode="&#x130;" d="M216 760 q27 1 45 19 q17 18 18 45 q-1 25 -18 43 q-18 17 -45 18 q-28 -1 -45 -18 q-18 -18 -19 -43 q1 -27 19 -45 q17 -18 45 -19 l0 0 ZM30 0 l356 0 l0 32 q-49 -2 -82 10 q-33 12 -34 66 l0 484 q1 52 34 65 q33 13 82 11 l0 32 l-356 0 l0 -32 q49 2 83 -10 q33 -13 34 -66 l0 -484 q-1 -52 -34 -65 q-34 -13 -83 -11 l0 -32 Z" /><glyph glyph-name="" unicode="&#x1eca;" d="M30 0 l356 0 l0 32 q-49 -2 -82 10 q-33 12 -34 66 l0 484 q1 52 34 65 q33 13 82 11 l0 32 l-356 0 l0 -32 q49 2 83 -10 q33 -13 34 -66 l0 -484 q-1 -52 -34 -65 q-34 -13 -83 -11 l0 -32 ZM219 -194 q27 1 45 19 q17 18 18 45 q-1 25 -18 43 q-18 17 -45 18 q-28 -1 -45 -18 q-18 -18 -19 -43 q1 -27 19 -45 q17 -18 45 -19 l0 0 Z" /><glyph glyph-name="" unicode="Ì" d="M209 753 l33 0 l-61 176 l-107 0 l135 -176 ZM30 0 l356 0 l0 32 q-49 -2 -82 10 q-33 12 -34 66 l0 484 q1 52 34 65 q33 13 82 11 l0 32 l-356 0 l0 -32 q49 2 83 -10 q33 -13 34 -66 l0 -484 q-1 -52 -34 -65 q-34 -13 -83 -11 l0 -32 Z" /><glyph glyph-name="" unicode="&#x1ec8;" d="M199 743 q18 6 54 40 q35 34 39 75 q0 29 -22 50 q-21 20 -62 21 q-53 -5 -82 -40 q-29 -36 -29 -41 l4 -5 q7 7 26 18 q19 10 43 11 q31 -2 42 -20 q12 -19 11 -36 q-1 -25 -10 -42 q-10 -16 -19 -26 l5 -5 ZM30 0 l356 0 l0 32 q-49 -2 -82 10 q-33 12 -34 66 l0 484 q1 52 34 65 q33 13 82 11 l0 32 l-356 0 l0 -32 q49 2 83 -10 q33 -13 34 -66 l0 -484 q-1 -52 -34 -65 q-34 -13 -83 -11 l0 -32 Z" /><glyph glyph-name="" unicode="&#x12a;" d="M72 796 l257 0 l0 34 l-257 0 l0 -34 ZM30 0 l356 0 l0 32 q-49 -2 -82 10 q-33 12 -34 66 l0 484 q1 52 34 65 q33 13 82 11 l0 32 l-356 0 l0 -32 q49 2 83 -10 q33 -13 34 -66 l0 -484 q-1 -52 -34 -65 q-34 -13 -83 -11 l0 -32 Z" /><glyph glyph-name="" unicode="&#x12e;" d="M373 -156 q-18 0 -26 12 q-7 11 -6 29 q0 21 13 52 q12 31 32 63 l0 32 q-49 -2 -82 10 q-33 12 -34 66 l0 484 q1 52 34 65 q33 13 82 11 l0 32 l-356 0 l0 -32 q49 2 83 -10 q33 -13 34 -66 l0 -484 q-1 -52 -34 -65 q-34 -13 -83 -11 l0 -32 l337 0 q-41 -31 -77 -68 q-36 -38 -38 -73 q1 -28 18 -41 q18 -14 45 -14 q45 1 74 11 q30 9 31 10 l0 22 q-1 0 -14 -1 q-14 -2 -33 -2 l0 0 Z" /><glyph glyph-name="" unicode="&#x128;" d="M261 767 q31 3 45 41 q15 38 20 70 l-12 0 q1 -2 -10 -17 q-10 -16 -40 -18 q-32 2 -61 18 q-29 16 -64 18 q-31 -3 -44 -41 q-14 -38 -21 -70 l12 0 q-1 2 10 18 q10 15 40 17 q29 -2 60 -18 q31 -16 65 -18 l0 0 ZM30 0 l356 0 l0 32 q-49 -2 -82 10 q-33 12 -34 66 l0 484 q1 52 34 65 q33 13 82 11 l0 32 l-356 0 l0 -32 q49 2 83 -10 q33 -13 34 -66 l0 -484 q-1 -52 -34 -65 q-34 -13 -83 -11 l0 -32 Z" /><glyph glyph-name="" unicode="J" d="M153 -10 q142 3 182 52 q40 48 35 114 l0 436 q1 52 34 65 q33 13 82 11 l0 32 l-385 0 l0 -32 q63 2 103 -10 q41 -13 42 -66 l0 -459 q0 -51 -23 -76 q-23 -26 -71 -26 q-50 -1 -80 38 q-30 38 -40 123 l-32 0 l0 -179 q3 -1 54 -11 q52 -10 99 -12 l0 0 Z" /><glyph glyph-name="" unicode="K" d="M30 0 l356 0 l0 32 q-51 -2 -83 11 q-32 13 -33 65 l0 182 l53 51 q39 -46 116 -138 q76 -92 97 -119 q21 -29 13 -41 q-9 -11 -54 -11 l0 -32 l294 0 l0 32 q-30 0 -60 19 q-30 19 -57 50 q-36 42 -135 159 q-99 117 -136 162 q37 40 94 97 q56 56 108 108 q34 33 62 38 q27 5 49 3 l0 32 l-209 0 l0 -32 l32 0 q21 0 26 -10 q6 -10 -16 -34 q-103 -108 -174 -178 q-72 -71 -103 -101 l0 247 q1 53 34 66 q33 12 82 10 l0 32 l-356 0 l0 -32 q49 2 82 -9 q33 -12 34 -67 l0 -484 q-1 -54 -34 -66 q-33 -12 -82 -10 l0 -32 Z" /><glyph glyph-name="" unicode="&#x136;" d="M30 0 l356 0 l0 32 q-51 -2 -83 11 q-32 13 -33 65 l0 182 l53 51 q39 -46 116 -138 q76 -92 97 -119 q21 -29 13 -41 q-9 -11 -54 -11 l0 -32 l294 0 l0 32 q-30 0 -60 19 q-30 19 -57 50 q-36 42 -135 159 q-99 117 -136 162 q37 40 94 97 q56 56 108 108 q34 33 62 38 q27 5 49 3 l0 32 l-209 0 l0 -32 l32 0 q21 0 26 -10 q6 -10 -16 -34 q-103 -108 -174 -178 q-72 -71 -103 -101 l0 247 q1 53 34 66 q33 12 82 10 l0 32 l-356 0 l0 -32 q49 2 82 -9 q33 -12 34 -67 l0 -484 q-1 -54 -34 -66 q-33 -12 -82 -10 l0 -32 ZM310 -229 l10 0 l136 184 l-98 12 l-48 -196 Z" /><glyph glyph-name="" unicode="L" d="M30 0 l590 0 l0 221 l-30 0 q-10 -97 -32 -139 q-22 -42 -92 -41 l-127 0 q-35 -1 -53 13 q-17 14 -17 54 l0 484 q1 52 35 65 q33 13 83 11 l0 32 l-357 0 l0 -32 q49 2 82 -10 q33 -13 34 -66 l0 -484 q-1 -52 -34 -65 q-33 -13 -82 -11 l0 -32 Z" /><glyph glyph-name="" unicode="&#x139;" d="M194 742 l22 0 l159 149 l-108 0 l-73 -149 ZM30 0 l590 0 l0 221 l-30 0 q-10 -97 -32 -139 q-22 -42 -92 -41 l-127 0 q-35 -1 -53 13 q-17 14 -17 54 l0 484 q1 52 35 65 q33 13 83 11 l0 32 l-357 0 l0 -32 q49 2 82 -10 q33 -13 34 -66 l0 -484 q-1 -52 -34 -65 q-33 -13 -82 -11 l0 -32 Z" /><glyph glyph-name="" unicode="&#x13d;" d="M446 482 q8 -1 64 25 q55 25 63 91 q-8 66 -61 91 q-53 26 -61 25 l-7 -5 q18 -20 30 -49 q11 -30 11 -62 q-1 -31 -14 -61 q-13 -29 -32 -50 l7 -5 ZM30 0 l590 0 l0 221 l-30 0 q-10 -97 -32 -139 q-22 -42 -92 -41 l-127 0 q-35 -1 -53 13 q-17 14 -17 54 l0 484 q1 52 35 65 q33 13 83 11 l0 32 l-357 0 l0 -32 q49 2 82 -10 q33 -13 34 -66 l0 -484 q-1 -52 -34 -65 q-33 -13 -82 -11 l0 -32 Z" /><glyph glyph-name="" unicode="&#x13b;" d="M30 0 l590 0 l0 221 l-30 0 q-10 -97 -32 -139 q-22 -42 -92 -41 l-127 0 q-35 -1 -53 13 q-17 14 -17 54 l0 484 q1 52 35 65 q33 13 83 11 l0 32 l-357 0 l0 -32 q49 2 82 -10 q33 -13 34 -66 l0 -484 q-1 -52 -34 -65 q-33 -13 -82 -11 l0 -32 ZM115 -229 l10 0 l136 184 l-98 12 l-48 -196 Z" /><glyph glyph-name="" unicode="&#x13f;" d="M30 0 l590 0 l0 221 l-30 0 q-10 -97 -32 -139 q-22 -42 -92 -41 l-127 0 q-35 -1 -53 13 q-17 14 -17 54 l0 484 q1 52 35 65 q33 13 83 11 l0 32 l-357 0 l0 -32 q49 2 82 -10 q33 -13 34 -66 l0 -484 q-1 -52 -34 -65 q-33 -13 -82 -11 l0 -32 ZM438 267 q28 1 48 19 q20 18 21 46 q-1 27 -21 46 q-20 19 -48 20 q-28 -1 -47 -20 q-19 -19 -20 -46 q1 -28 20 -46 q19 -18 47 -19 l0 0 Z" /><glyph glyph-name="" unicode="&#x141;" d="M42 0 l563 0 l0 221 l-33 0 q-9 -97 -31 -139 q-22 -42 -92 -41 l-98 0 q-35 -1 -53 13 q-17 14 -17 54 l0 255 l122 63 l0 44 l-122 -63 l0 185 q1 52 35 65 q33 13 83 11 l0 32 l-357 0 l0 -32 q49 2 82 -10 q33 -13 34 -66 l0 -249 l-87 -45 l0 -44 l87 45 l0 -191 q-1 -52 -34 -65 q-33 -13 -82 -11 l0 -32 Z" /><glyph glyph-name="" unicode="M" d="M20 0 l268 0 l0 14 q-49 -2 -81 13 q-33 14 -32 64 l25 522 l221 -613 l97 0 l213 597 q3 -61 13 -254 q11 -194 15 -252 q2 -49 -32 -64 q-35 -15 -84 -13 l0 -14 l345 0 l0 14 q-47 -1 -73 13 q-25 15 -29 64 l-37 500 q-3 49 24 67 q27 17 70 16 l0 26 l-220 0 l-214 -594 l-213 594 l-246 0 l0 -32 q48 1 75 -16 q27 -16 27 -61 q-1 -25 -13 -223 q-11 -199 -15 -277 q-3 -47 -30 -62 q-27 -16 -74 -15 l0 -14 Z" /><glyph glyph-name="" unicode="N" d="M30 0 l267 0 l0 15 q-49 -2 -82 11 q-34 13 -35 65 l0 520 l341 -611 l111 0 l0 592 q0 44 24 61 q25 16 78 15 l0 32 l-266 0 l0 -32 q49 2 82 -10 q33 -13 34 -66 l0 -446 l-310 554 l-244 0 l0 -32 q53 1 78 -15 q24 -17 24 -61 l0 -501 q0 -46 -24 -62 q-25 -15 -78 -14 l0 -15 Z" /><glyph glyph-name="" unicode="&#x143;" d="M351 752 l22 0 l146 178 l-109 0 l-59 -178 ZM30 0 l267 0 l0 15 q-49 -2 -82 11 q-34 13 -35 65 l0 520 l341 -611 l111 0 l0 592 q0 44 24 61 q25 16 78 15 l0 32 l-266 0 l0 -32 q49 2 82 -10 q33 -13 34 -66 l0 -446 l-310 554 l-244 0 l0 -32 q53 1 78 -15 q24 -17 24 -61 l0 -501 q0 -46 -24 -62 q-25 -15 -78 -14 l0 -15 Z" /><glyph glyph-name="" unicode="&#x147;" d="M357 769 l62 0 l103 148 l-22 0 l-112 -80 l-113 80 l-21 0 l103 -148 ZM30 0 l267 0 l0 15 q-49 -2 -82 11 q-34 13 -35 65 l0 520 l341 -611 l111 0 l0 592 q0 44 24 61 q25 16 78 15 l0 32 l-266 0 l0 -32 q49 2 82 -10 q33 -13 34 -66 l0 -446 l-310 554 l-244 0 l0 -32 q53 1 78 -15 q24 -17 24 -61 l0 -501 q0 -46 -24 -62 q-25 -15 -78 -14 l0 -15 Z" /><glyph glyph-name="" unicode="&#x145;" d="M30 0 l267 0 l0 15 q-49 -2 -82 11 q-34 13 -35 65 l0 520 l341 -611 l111 0 l0 592 q0 44 24 61 q25 16 78 15 l0 32 l-266 0 l0 -32 q49 2 82 -10 q33 -13 34 -66 l0 -446 l-310 554 l-244 0 l0 -32 q53 1 78 -15 q24 -17 24 -61 l0 -501 q0 -46 -24 -62 q-25 -15 -78 -14 l0 -15 ZM271 -229 l10 0 l136 184 l-98 12 l-48 -196 Z" /><glyph glyph-name="" unicode="&#x14a;" d="M512 -215 q74 2 104 43 q29 41 28 100 l0 665 q0 44 24 61 q25 16 78 15 l0 31 l-266 0 l0 -31 q49 2 82 -10 q33 -13 34 -66 l0 -360 l-310 467 l-244 0 l0 -31 q53 1 78 -15 q24 -17 24 -61 l0 -502 q0 -46 -24 -62 q-25 -15 -78 -14 l0 -15 l267 0 l0 15 q-49 -2 -82 11 q-34 13 -35 65 l0 520 l404 -614 l0 -56 q2 -49 -14 -84 q-15 -35 -74 -37 q-38 2 -78 36 q-40 33 -69 68 l-38 -114 q5 -2 65 -12 q61 -11 124 -13 l0 0 Z" /><glyph glyph-name="" unicode="Ñ" d="M427 767 q31 3 45 41 q15 38 20 70 l-12 0 q1 -2 -10 -17 q-10 -16 -40 -18 q-32 2 -61 18 q-29 16 -64 18 q-31 -3 -44 -41 q-14 -38 -21 -70 l12 0 q-1 2 10 18 q10 15 40 17 q29 -2 60 -18 q31 -16 65 -18 l0 0 ZM30 0 l267 0 l0 15 q-49 -2 -82 11 q-34 13 -35 65 l0 520 l341 -611 l111 0 l0 592 q0 44 24 61 q25 16 78 15 l0 32 l-266 0 l0 -32 q49 2 82 -10 q33 -13 34 -66 l0 -446 l-310 554 l-244 0 l0 -32 q53 1 78 -15 q24 -17 24 -61 l0 -501 q0 -46 -24 -62 q-25 -15 -78 -14 l0 -15 Z" /><glyph glyph-name="" unicode="O" d="M421 -10 q175 4 277 105 q102 102 104 255 q-2 153 -104 255 q-102 101 -277 105 q-175 -4 -277 -105 q-102 -102 -104 -255 q2 -153 104 -255 q102 -101 277 -105 l0 0 ZM421 31 q-128 4 -184 95 q-56 91 -55 224 q-1 133 55 224 q56 90 184 94 q129 -4 184 -94 q55 -91 54 -224 q1 -133 -54 -224 q-55 -91 -184 -95 l0 0 Z" /><glyph glyph-name="" unicode="Ó" d="M402 752 l22 0 l146 178 l-109 0 l-59 -178 ZM421 -10 q175 4 277 105 q102 102 104 255 q-2 153 -104 255 q-102 101 -277 105 q-175 -4 -277 -105 q-102 -102 -104 -255 q2 -153 104 -255 q102 -101 277 -105 l0 0 ZM421 31 q-128 4 -184 95 q-56 91 -55 224 q-1 133 55 224 q56 90 184 94 q129 -4 184 -94 q55 -91 54 -224 q1 -133 -54 -224 q-55 -91 -184 -95 l0 0 Z" /><glyph glyph-name="" unicode="&#x1d1;" d="M407 769 l62 0 l103 148 l-22 0 l-112 -80 l-113 80 l-21 0 l103 -148 ZM421 -10 q175 4 277 105 q102 102 104 255 q-2 153 -104 255 q-102 101 -277 105 q-175 -4 -277 -105 q-102 -102 -104 -255 q2 -153 104 -255 q102 -101 277 -105 l0 0 ZM421 31 q-128 4 -184 95 q-56 91 -55 224 q-1 133 55 224 q56 90 184 94 q129 -4 184 -94 q55 -91 54 -224 q1 -133 -54 -224 q-55 -91 -184 -95 l0 0 Z" /><glyph glyph-name="" unicode="Ô" d="M295 743 l33 0 l101 87 l101 -87 l33 0 l-103 145 l-62 0 l-103 -145 ZM421 -10 q175 4 277 105 q102 102 104 255 q-2 153 -104 255 q-102 101 -277 105 q-175 -4 -277 -105 q-102 -102 -104 -255 q2 -153 104 -255 q102 -101 277 -105 l0 0 ZM421 31 q-128 4 -184 95 q-56 91 -55 224 q-1 133 55 224 q56 90 184 94 q129 -4 184 -94 q55 -91 54 -224 q1 -133 -54 -224 q-55 -91 -184 -95 l0 0 Z" /><glyph glyph-name="" unicode="&#x1ed8;" d="M295 743 l33 0 l101 87 l101 -87 l33 0 l-103 145 l-62 0 l-103 -145 ZM421 -10 q175 4 277 105 q102 102 104 255 q-2 153 -104 255 q-102 101 -277 105 q-175 -4 -277 -105 q-102 -102 -104 -255 q2 -153 104 -255 q102 -101 277 -105 l0 0 ZM421 31 q-128 4 -184 95 q-56 91 -55 224 q-1 133 55 224 q56 90 184 94 q129 -4 184 -94 q55 -91 54 -224 q1 -133 -54 -224 q-55 -91 -184 -95 l0 0 ZM425 -194 q27 1 45 19 q17 18 18 45 q-1 25 -18 43 q-18 17 -45 18 q-28 -1 -45 -18 q-18 -18 -19 -43 q1 -27 19 -45 q17 -18 45 -19 l0 0 Z" /><glyph glyph-name="" unicode="Ö" d="M337 769 q25 1 42 17 q16 16 17 39 q-1 25 -17 42 q-17 16 -42 17 q-24 -1 -39 -17 q-15 -17 -15 -42 q0 -23 15 -39 q15 -16 39 -17 l0 0 ZM520 769 q25 1 42 17 q17 16 18 39 q-1 25 -18 42 q-17 16 -42 17 q-24 -1 -38 -17 q-15 -17 -15 -42 q0 -23 15 -39 q14 -16 38 -17 l0 0 ZM421 -10 q175 4 277 105 q102 102 104 255 q-2 153 -104 255 q-102 101 -277 105 q-175 -4 -277 -105 q-102 -102 -104 -255 q2 -153 104 -255 q102 -101 277 -105 l0 0 ZM421 31 q-128 4 -184 95 q-56 91 -55 224 q-1 133 55 224 q56 90 184 94 q129 -4 184 -94 q55 -91 54 -224 q1 -133 -54 -224 q-55 -91 -184 -95 l0 0 Z" /><glyph glyph-name="" unicode="&#x1ecc;" d="M421 -10 q175 4 277 105 q102 102 104 255 q-2 153 -104 255 q-102 101 -277 105 q-175 -4 -277 -105 q-102 -102 -104 -255 q2 -153 104 -255 q102 -101 277 -105 l0 0 ZM421 31 q-128 4 -184 95 q-56 91 -55 224 q-1 133 55 224 q56 90 184 94 q129 -4 184 -94 q55 -91 54 -224 q1 -133 -54 -224 q-55 -91 -184 -95 l0 0 ZM425 -194 q27 1 45 19 q17 18 18 45 q-1 25 -18 43 q-18 17 -45 18 q-28 -1 -45 -18 q-18 -18 -19 -43 q1 -27 19 -45 q17 -18 45 -19 l0 0 Z" /><glyph glyph-name="" unicode="Ò" d="M426 753 l33 0 l-61 176 l-107 0 l135 -176 ZM421 -10 q175 4 277 105 q102 102 104 255 q-2 153 -104 255 q-102 101 -277 105 q-175 -4 -277 -105 q-102 -102 -104 -255 q2 -153 104 -255 q102 -101 277 -105 l0 0 ZM421 31 q-128 4 -184 95 q-56 91 -55 224 q-1 133 55 224 q56 90 184 94 q129 -4 184 -94 q55 -91 54 -224 q1 -133 -54 -224 q-55 -91 -184 -95 l0 0 Z" /><glyph glyph-name="" unicode="&#x1ece;" d="M416 743 q18 6 54 40 q35 34 39 75 q0 29 -22 50 q-21 20 -62 21 q-53 -5 -82 -40 q-29 -36 -29 -41 l4 -5 q7 7 26 18 q19 10 43 11 q31 -2 42 -20 q12 -19 11 -36 q-1 -25 -10 -42 q-10 -16 -19 -26 l5 -5 ZM421 -10 q175 4 277 105 q102 102 104 255 q-2 153 -104 255 q-102 101 -277 105 q-175 -4 -277 -105 q-102 -102 -104 -255 q2 -153 104 -255 q102 -101 277 -105 l0 0 ZM421 31 q-128 4 -184 95 q-56 91 -55 224 q-1 133 55 224 q56 90 184 94 q129 -4 184 -94 q55 -91 54 -224 q1 -133 -54 -224 q-55 -91 -184 -95 l0 0 Z" /><glyph glyph-name="" unicode="&#x150;" d="M337 752 l22 0 l146 178 l-109 0 l-59 -178 ZM483 752 l21 0 l147 178 l-109 0 l-59 -178 ZM421 -10 q175 4 277 105 q102 102 104 255 q-2 153 -104 255 q-102 101 -277 105 q-175 -4 -277 -105 q-102 -102 -104 -255 q2 -153 104 -255 q102 -101 277 -105 l0 0 ZM421 31 q-128 4 -184 95 q-56 91 -55 224 q-1 133 55 224 q56 90 184 94 q129 -4 184 -94 q55 -91 54 -224 q1 -133 -54 -224 q-55 -91 -184 -95 l0 0 Z" /><glyph glyph-name="" unicode="&#x14c;" d="M289 796 l257 0 l0 34 l-257 0 l0 -34 ZM421 -10 q175 4 277 105 q102 102 104 255 q-2 153 -104 255 q-102 101 -277 105 q-175 -4 -277 -105 q-102 -102 -104 -255 q2 -153 104 -255 q102 -101 277 -105 l0 0 ZM421 31 q-128 4 -184 95 q-56 91 -55 224 q-1 133 55 224 q56 90 184 94 q129 -4 184 -94 q55 -91 54 -224 q1 -133 -54 -224 q-55 -91 -184 -95 l0 0 Z" /><glyph glyph-name="" unicode="Ø" d="M210 -50 l60 0 l36 62 q32 -11 67 -16 q35 -6 73 -6 q175 4 277 105 q102 102 104 255 q0 93 -41 170 q-40 77 -115 127 l42 73 l-60 0 l-27 -48 q-40 19 -84 28 q-45 10 -96 10 q-175 -4 -277 -105 q-102 -102 -104 -255 q1 -105 51 -187 q51 -83 142 -131 l-48 -82 ZM290 89 q-41 46 -63 111 q-21 66 -21 150 q-1 144 55 230 q56 87 185 89 q49 0 84 -11 q34 -12 62 -38 l-302 -531 ZM446 32 q-35 0 -62 8 q-26 8 -50 24 l300 523 q28 -46 40 -107 q12 -61 12 -130 q1 -144 -55 -230 q-56 -86 -185 -88 l0 0 Z" /><glyph glyph-name="" unicode="Õ" d="M488 767 q31 3 45 41 q15 38 20 70 l-12 0 q1 -2 -10 -17 q-10 -16 -40 -18 q-32 2 -61 18 q-29 16 -64 18 q-31 -3 -44 -41 q-14 -38 -21 -70 l12 0 q-1 2 10 18 q10 15 40 17 q29 -2 60 -18 q31 -16 65 -18 l0 0 ZM421 -10 q175 4 277 105 q102 102 104 255 q-2 153 -104 255 q-102 101 -277 105 q-175 -4 -277 -105 q-102 -102 -104 -255 q2 -153 104 -255 q102 -101 277 -105 l0 0 ZM421 31 q-128 4 -184 95 q-56 91 -55 224 q-1 133 55 224 q56 90 184 94 q129 -4 184 -94 q55 -91 54 -224 q1 -133 -54 -224 q-55 -91 -184 -95 l0 0 Z" /><glyph glyph-name="" unicode="&#x152;" d="M974 204 q-10 -85 -32 -124 q-22 -39 -91 -39 l-98 0 q-35 -1 -52 13 q-17 14 -17 54 l0 242 l103 0 q55 3 75 -15 q21 -18 27 -93 l30 0 l0 273 l-30 0 q-5 -76 -27 -94 q-21 -18 -75 -15 l-103 0 l0 186 q0 40 17 54 q17 14 52 13 l83 0 q67 1 91 -35 q24 -36 32 -117 l31 0 l0 193 l-396 0 q-34 0 -73 5 q-38 4 -75 5 q-175 -4 -277 -105 q-102 -102 -104 -255 q2 -153 104 -255 q102 -101 277 -105 q51 0 97 10 l461 0 l0 204 l-30 0 ZM437 31 q-123 7 -178 98 q-54 91 -53 221 q-1 132 55 223 q56 91 183 95 q27 -1 61 -2 q34 -1 53 -4 l0 -614 q-4 -2 -38 -8 q-34 -7 -83 -9 l0 0 Z" /><glyph glyph-name="" unicode="P" d="M30 0 l356 0 l0 32 q-49 -2 -82 10 q-33 12 -34 66 l0 222 q7 -3 31 -9 q24 -6 65 -7 q116 1 190 56 q74 56 76 160 q-2 89 -69 130 q-67 41 -171 40 l-362 0 l0 -30 q49 2 82 -10 q33 -13 34 -66 l0 -486 q-1 -52 -34 -65 q-33 -13 -82 -11 l0 -32 ZM367 356 q-27 0 -50 5 q-24 6 -47 14 l0 223 q0 29 16 48 q15 18 45 19 l44 0 q71 -1 98 -37 q27 -37 26 -103 q2 -78 -25 -123 q-28 -45 -107 -46 l0 0 Z" /><glyph glyph-name="" unicode="Þ" d="M30 0 l356 0 l0 32 q-49 -2 -82 10 q-33 12 -34 66 l0 63 q17 -3 41 -4 q24 -2 58 -2 q123 2 192 60 q68 57 69 144 q-2 89 -65 130 q-63 41 -163 40 l-132 0 l0 53 q1 52 34 65 q33 13 82 11 l0 32 l-356 0 l0 -32 q49 2 82 -10 q33 -12 34 -66 l0 -484 q-1 -52 -34 -65 q-33 -13 -82 -11 l0 -32 ZM351 205 q-17 0 -38 3 q-21 2 -43 6 l0 284 l91 0 q72 0 104 -34 q33 -35 32 -100 q1 -72 -33 -115 q-34 -43 -113 -44 l0 0 Z" /><glyph glyph-name="" unicode="Q" d="M707 -219 l0 37 l-176 185 q127 34 198 128 q71 93 72 219 q-2 153 -103 255 q-102 101 -277 105 q-175 -4 -277 -105 q-102 -102 -104 -255 q2 -142 91 -241 q89 -98 242 -116 l334 -212 ZM421 31 q-129 4 -185 95 q-55 91 -54 224 q-1 133 54 224 q56 90 185 94 q129 -4 185 -94 q56 -91 55 -224 q1 -133 -55 -224 q-56 -91 -185 -95 l0 0 Z" /><glyph glyph-name="" unicode="R" d="M622 94 q-43 67 -94 144 q-52 78 -75 113 q96 21 138 74 q41 54 40 119 q-1 82 -62 119 q-62 38 -177 37 l-362 0 l0 -32 q49 2 82 -10 q33 -13 34 -66 l0 -484 q-1 -52 -34 -65 q-33 -13 -82 -11 l0 -32 l356 0 l0 32 q-49 -2 -82 10 q-33 12 -34 66 l0 250 q5 -2 17 -5 q12 -4 28 -6 l215 -347 l199 0 l0 33 q-30 0 -57 14 q-27 14 -50 47 l0 0 ZM270 598 q0 29 16 48 q15 18 45 19 l44 0 q63 0 93 -33 q30 -33 30 -93 q0 -70 -31 -112 q-31 -43 -94 -44 q-20 0 -49 5 q-30 6 -54 14 l0 196 Z" /><glyph glyph-name="" unicode="&#x154;" d="M501 930 l-109 0 l-59 -178 l22 0 l146 178 ZM622 94 q-43 67 -94 144 q-52 78 -75 113 q96 21 138 74 q41 54 40 119 q-1 82 -62 119 q-62 38 -177 37 l-362 0 l0 -32 q49 2 82 -10 q33 -13 34 -66 l0 -484 q-1 -52 -34 -65 q-33 -13 -82 -11 l0 -32 l356 0 l0 32 q-49 -2 -82 10 q-33 12 -34 66 l0 250 q5 -2 17 -5 q12 -4 28 -6 l215 -347 l199 0 l0 33 q-30 0 -57 14 q-27 14 -50 47 l0 0 ZM270 598 q0 29 16 48 q15 18 45 19 l44 0 q63 0 93 -33 q30 -33 30 -93 q0 -70 -31 -112 q-31 -43 -94 -44 q-20 0 -49 5 q-30 6 -54 14 l0 196 Z" /><glyph glyph-name="" unicode="&#x158;" d="M400 769 l103 148 l-22 0 l-112 -80 l-113 80 l-21 0 l103 -148 l62 0 ZM622 94 q-43 67 -94 144 q-52 78 -75 113 q96 21 138 74 q41 54 40 119 q-1 82 -62 119 q-62 38 -177 37 l-362 0 l0 -32 q49 2 82 -10 q33 -13 34 -66 l0 -484 q-1 -52 -34 -65 q-33 -13 -82 -11 l0 -32 l356 0 l0 32 q-49 -2 -82 10 q-33 12 -34 66 l0 250 q5 -2 17 -5 q12 -4 28 -6 l215 -347 l199 0 l0 33 q-30 0 -57 14 q-27 14 -50 47 l0 0 ZM270 598 q0 29 16 48 q15 18 45 19 l44 0 q63 0 93 -33 q30 -33 30 -93 q0 -70 -31 -112 q-31 -43 -94 -44 q-20 0 -49 5 q-30 6 -54 14 l0 196 Z" /><glyph glyph-name="" unicode="&#x156;" d="M622 94 q-43 67 -94 144 q-52 78 -75 113 q96 21 138 74 q41 54 40 119 q-1 82 -62 119 q-62 38 -177 37 l-362 0 l0 -32 q49 2 82 -10 q33 -13 34 -66 l0 -484 q-1 -52 -34 -65 q-33 -13 -82 -11 l0 -32 l356 0 l0 32 q-49 -2 -82 10 q-33 12 -34 66 l0 250 q5 -2 17 -5 q12 -4 28 -6 l215 -347 l199 0 l0 33 q-30 0 -57 14 q-27 14 -50 47 l0 0 ZM270 598 q0 29 16 48 q15 18 45 19 l44 0 q63 0 93 -33 q30 -33 30 -93 q0 -70 -31 -112 q-31 -43 -94 -44 q-20 0 -49 5 q-30 6 -54 14 l0 196 ZM290 -229 l10 0 l136 184 l-98 12 l-48 -196 Z" /><glyph glyph-name="" unicode="S" d="M260 -10 q111 -1 179 46 q67 47 72 157 q1 59 -28 100 q-29 40 -78 70 q-47 29 -89 53 q-41 23 -83 47 q-42 24 -67 50 q-24 25 -25 58 q-1 42 27 69 q28 27 92 28 q68 1 110 -38 q42 -38 53 -123 l31 0 l0 179 q-6 2 -67 13 q-62 11 -111 11 q-107 0 -167 -42 q-60 -42 -61 -136 q1 -49 28 -87 q27 -39 75 -67 q42 -25 89 -51 q46 -27 97 -58 q37 -21 59 -48 q21 -27 22 -65 q1 -54 -36 -89 q-37 -34 -118 -35 q-81 -4 -130 28 q-49 33 -55 150 l-32 0 l0 -189 q4 -2 71 -16 q66 -14 142 -15 l0 0 Z" /><glyph glyph-name="" unicode="&#x15a;" d="M255 752 l22 0 l146 178 l-109 0 l-59 -178 ZM260 -10 q111 -1 179 46 q67 47 72 157 q1 59 -28 100 q-29 40 -78 70 q-47 29 -89 53 q-41 23 -83 47 q-42 24 -67 50 q-24 25 -25 58 q-1 42 27 69 q28 27 92 28 q68 1 110 -38 q42 -38 53 -123 l31 0 l0 179 q-6 2 -67 13 q-62 11 -111 11 q-107 0 -167 -42 q-60 -42 -61 -136 q1 -49 28 -87 q27 -39 75 -67 q42 -25 89 -51 q46 -27 97 -58 q37 -21 59 -48 q21 -27 22 -65 q1 -54 -36 -89 q-37 -34 -118 -35 q-81 -4 -130 28 q-49 33 -55 150 l-32 0 l0 -189 q4 -2 71 -16 q66 -14 142 -15 l0 0 Z" /><glyph glyph-name="" unicode="&#x160;" d="M261 769 l62 0 l103 148 l-22 0 l-112 -80 l-113 80 l-21 0 l103 -148 ZM260 -10 q111 -1 179 46 q67 47 72 157 q1 59 -28 100 q-29 40 -78 70 q-47 29 -89 53 q-41 23 -83 47 q-42 24 -67 50 q-24 25 -25 58 q-1 42 27 69 q28 27 92 28 q68 1 110 -38 q42 -38 53 -123 l31 0 l0 179 q-6 2 -67 13 q-62 11 -111 11 q-107 0 -167 -42 q-60 -42 -61 -136 q1 -49 28 -87 q27 -39 75 -67 q42 -25 89 -51 q46 -27 97 -58 q37 -21 59 -48 q21 -27 22 -65 q1 -54 -36 -89 q-37 -34 -118 -35 q-81 -4 -130 28 q-49 33 -55 150 l-32 0 l0 -189 q4 -2 71 -16 q66 -14 142 -15 l0 0 Z" /><glyph glyph-name="" unicode="&#x15e;" d="M405 363 q-47 29 -89 53 q-41 23 -83 47 q-42 24 -67 50 q-24 25 -25 58 q-1 42 27 69 q28 27 92 28 q68 1 110 -38 q42 -38 53 -123 l31 0 l0 179 q-6 2 -67 13 q-62 11 -111 11 q-107 0 -167 -42 q-60 -42 -61 -136 q1 -49 28 -87 q27 -39 75 -67 q42 -25 89 -51 q46 -27 97 -58 q37 -21 59 -48 q21 -27 22 -65 q1 -54 -36 -89 q-37 -34 -118 -35 q-81 -4 -130 28 q-49 33 -55 150 l-32 0 l0 -189 q3 -2 60 -14 q57 -12 129 -17 l-50 -79 q37 -1 57 -13 q21 -11 21 -34 q0 -22 -10 -35 q-10 -14 -27 -14 q-18 1 -31 8 q-13 6 -14 7 l0 -14 q1 -1 26 -10 q24 -10 60 -11 q36 0 56 17 q19 16 19 44 q0 31 -25 48 q-25 16 -74 18 l-8 -2 l12 70 l12 0 q111 -1 179 46 q67 47 72 157 q1 59 -28 100 q-29 40 -78 70 l0 0 Z" /><glyph glyph-name="" unicode="&#x218;" d="M260 -10 q111 -1 179 46 q67 47 72 157 q1 59 -28 100 q-29 40 -78 70 q-47 29 -89 53 q-41 23 -83 47 q-42 24 -67 50 q-24 25 -25 58 q-1 42 27 69 q28 27 92 28 q68 1 110 -38 q42 -38 53 -123 l31 0 l0 179 q-6 2 -67 13 q-62 11 -111 11 q-107 0 -167 -42 q-60 -42 -61 -136 q1 -49 28 -87 q27 -39 75 -67 q42 -25 89 -51 q46 -27 97 -58 q37 -21 59 -48 q21 -27 22 -65 q1 -54 -36 -89 q-37 -34 -118 -35 q-81 -4 -130 28 q-49 33 -55 150 l-32 0 l0 -189 q4 -2 71 -16 q66 -14 142 -15 l0 0 ZM143 -233 l10 0 l136 184 l-98 12 l-48 -196 Z" /><glyph glyph-name="" unicode="T" d="M151 0 l355 0 l0 32 q-49 -2 -82 12 q-33 13 -34 64 l0 551 l71 0 q80 -1 101 -42 q22 -41 23 -110 l29 0 l0 193 l-572 0 l0 -193 l32 0 q1 69 23 110 q22 41 100 42 l70 0 l0 -551 q-1 -52 -34 -65 q-33 -13 -82 -11 l0 -32 Z" /><glyph glyph-name="" unicode="&#x166;" d="M194 796 l257 0 l0 34 l-257 0 l0 -34 ZM151 0 l355 0 l0 32 q-49 -2 -82 12 q-33 13 -34 64 l0 551 l71 0 q80 -1 101 -42 q22 -41 23 -110 l29 0 l0 193 l-572 0 l0 -193 l32 0 q1 69 23 110 q22 41 100 42 l70 0 l0 -551 q-1 -52 -34 -65 q-33 -13 -82 -11 l0 -32 Z" /><glyph glyph-name="" unicode="&#x164;" d="M312 769 l62 0 l103 148 l-22 0 l-112 -80 l-113 80 l-21 0 l103 -148 ZM151 0 l355 0 l0 32 q-49 -2 -82 12 q-33 13 -34 64 l0 551 l71 0 q80 -1 101 -42 q22 -41 23 -110 l29 0 l0 193 l-572 0 l0 -193 l32 0 q1 69 23 110 q22 41 100 42 l70 0 l0 -551 q-1 -52 -34 -65 q-33 -13 -82 -11 l0 -32 Z" /><glyph glyph-name="" unicode="&#x162;" d="M42 700 l0 -193 l32 0 q1 69 23 110 q22 41 100 42 l70 0 l0 -551 q-1 -52 -34 -65 q-33 -13 -82 -11 l0 -32 l179 0 l-49 -79 q37 -1 57 -13 q21 -11 21 -34 q0 -22 -10 -35 q-10 -14 -27 -14 q-18 1 -31 8 q-13 6 -14 7 l0 -14 q1 -1 26 -10 q24 -10 60 -11 q36 0 56 17 q19 16 19 44 q0 31 -25 48 q-25 16 -74 18 l-8 -2 l12 70 l163 0 l0 32 q-49 -2 -82 12 q-33 13 -34 64 l0 551 l71 0 q80 -1 101 -42 q22 -41 23 -110 l29 0 l0 193 l-572 0 Z" /><glyph glyph-name="" unicode="&#x21a;" d="M151 0 l355 0 l0 32 q-49 -2 -82 12 q-33 13 -34 64 l0 551 l71 0 q80 -1 101 -42 q22 -41 23 -110 l29 0 l0 193 l-572 0 l0 -193 l32 0 q1 69 23 110 q22 41 100 42 l70 0 l0 -551 q-1 -52 -34 -65 q-33 -13 -82 -11 l0 -32 ZM237 -223 l10 0 l136 184 l-98 12 l-48 -196 Z" /><glyph glyph-name="" unicode="U" d="M407 -10 q176 3 225 85 q49 81 43 198 l0 319 q0 47 23 63 q24 15 73 14 l0 31 l-242 0 l0 -31 q53 1 78 -16 q24 -16 24 -61 l0 -322 q3 -117 -38 -178 q-42 -61 -162 -61 q-115 3 -148 76 q-33 74 -29 178 l0 307 q1 51 33 65 q32 14 83 12 l0 31 l-355 0 l0 -31 q49 2 82 -10 q33 -13 34 -67 l0 -328 q-5 -122 50 -197 q54 -75 226 -77 l0 0 Z" /><glyph glyph-name="" unicode="Ú" d="M422 752 l22 0 l146 178 l-109 0 l-59 -178 ZM407 -10 q176 3 225 85 q49 81 43 198 l0 319 q0 47 23 63 q24 15 73 14 l0 31 l-242 0 l0 -31 q53 1 78 -16 q24 -16 24 -61 l0 -322 q3 -117 -38 -178 q-42 -61 -162 -61 q-115 3 -148 76 q-33 74 -29 178 l0 307 q1 51 33 65 q32 14 83 12 l0 31 l-355 0 l0 -31 q49 2 82 -10 q33 -13 34 -67 l0 -328 q-5 -122 50 -197 q54 -75 226 -77 l0 0 Z" /><glyph glyph-name="" unicode="&#x1d3;" d="M428 769 l62 0 l103 148 l-22 0 l-112 -80 l-113 80 l-21 0 l103 -148 ZM407 -10 q176 3 225 85 q49 81 43 198 l0 319 q0 47 23 63 q24 15 73 14 l0 31 l-242 0 l0 -31 q53 1 78 -16 q24 -16 24 -61 l0 -322 q3 -117 -38 -178 q-42 -61 -162 -61 q-115 3 -148 76 q-33 74 -29 178 l0 307 q1 51 33 65 q32 14 83 12 l0 31 l-355 0 l0 -31 q49 2 82 -10 q33 -13 34 -67 l0 -328 q-5 -122 50 -197 q54 -75 226 -77 l0 0 Z" /><glyph glyph-name="" unicode="Û" d="M316 743 l33 0 l101 87 l101 -87 l33 0 l-103 145 l-62 0 l-103 -145 ZM407 -10 q176 3 225 85 q49 81 43 198 l0 319 q0 47 23 63 q24 15 73 14 l0 31 l-242 0 l0 -31 q53 1 78 -16 q24 -16 24 -61 l0 -322 q3 -117 -38 -178 q-42 -61 -162 -61 q-115 3 -148 76 q-33 74 -29 178 l0 307 q1 51 33 65 q32 14 83 12 l0 31 l-355 0 l0 -31 q49 2 82 -10 q33 -13 34 -67 l0 -328 q-5 -122 50 -197 q54 -75 226 -77 l0 0 Z" /><glyph glyph-name="" unicode="Ü" d="M357 769 q25 1 42 17 q16 16 17 39 q-1 25 -17 42 q-17 16 -42 17 q-24 -1 -39 -17 q-15 -17 -15 -42 q0 -23 15 -39 q15 -16 39 -17 l0 0 ZM540 769 q25 1 42 17 q17 16 18 39 q-1 25 -18 42 q-17 16 -42 17 q-24 -1 -38 -17 q-15 -17 -15 -42 q0 -23 15 -39 q14 -16 38 -17 l0 0 ZM407 -10 q176 3 225 85 q49 81 43 198 l0 319 q0 47 23 63 q24 15 73 14 l0 31 l-242 0 l0 -31 q53 1 78 -16 q24 -16 24 -61 l0 -322 q3 -117 -38 -178 q-42 -61 -162 -61 q-115 3 -148 76 q-33 74 -29 178 l0 307 q1 51 33 65 q32 14 83 12 l0 31 l-355 0 l0 -31 q49 2 82 -10 q33 -13 34 -67 l0 -328 q-5 -122 50 -197 q54 -75 226 -77 l0 0 Z" /><glyph glyph-name="" unicode="&#x1d7;" d="M420 892 l22 0 l146 178 l-109 0 l-59 -178 ZM349 769 q25 1 42 17 q16 16 17 39 q-1 25 -17 42 q-17 16 -42 17 q-24 -1 -39 -17 q-15 -17 -15 -42 q0 -23 15 -39 q15 -16 39 -17 l0 0 ZM532 769 q25 1 42 17 q17 16 18 39 q-1 25 -18 42 q-17 16 -42 17 q-24 -1 -38 -17 q-15 -17 -15 -42 q0 -23 15 -39 q14 -16 38 -17 l0 0 ZM407 -10 q176 3 225 85 q49 81 43 198 l0 319 q0 47 23 63 q24 15 73 14 l0 31 l-242 0 l0 -31 q53 1 78 -16 q24 -16 24 -61 l0 -322 q3 -117 -38 -178 q-42 -61 -162 -61 q-115 3 -148 76 q-33 74 -29 178 l0 307 q1 51 33 65 q32 14 83 12 l0 31 l-355 0 l0 -31 q49 2 82 -10 q33 -13 34 -67 l0 -328 q-5 -122 50 -197 q54 -75 226 -77 l0 0 Z" /><glyph glyph-name="" unicode="&#x1d9;" d="M415 901 l62 0 l103 148 l-22 0 l-112 -80 l-113 80 l-21 0 l103 -148 ZM349 769 q25 1 42 17 q16 16 17 39 q-1 25 -17 42 q-17 16 -42 17 q-24 -1 -39 -17 q-15 -17 -15 -42 q0 -23 15 -39 q15 -16 39 -17 l0 0 ZM532 769 q25 1 42 17 q17 16 18 39 q-1 25 -18 42 q-17 16 -42 17 q-24 -1 -38 -17 q-15 -17 -15 -42 q0 -23 15 -39 q14 -16 38 -17 l0 0 ZM407 -10 q176 3 225 85 q49 81 43 198 l0 319 q0 47 23 63 q24 15 73 14 l0 31 l-242 0 l0 -31 q53 1 78 -16 q24 -16 24 -61 l0 -322 q3 -117 -38 -178 q-42 -61 -162 -61 q-115 3 -148 76 q-33 74 -29 178 l0 307 q1 51 33 65 q32 14 83 12 l0 31 l-355 0 l0 -31 q49 2 82 -10 q33 -13 34 -67 l0 -328 q-5 -122 50 -197 q54 -75 226 -77 l0 0 Z" /><glyph glyph-name="" unicode="&#x1db;" d="M445 884 l33 0 l-61 176 l-107 0 l135 -176 ZM349 769 q25 1 42 17 q16 16 17 39 q-1 25 -17 42 q-17 16 -42 17 q-24 -1 -39 -17 q-15 -17 -15 -42 q0 -23 15 -39 q15 -16 39 -17 l0 0 ZM532 769 q25 1 42 17 q17 16 18 39 q-1 25 -18 42 q-17 16 -42 17 q-24 -1 -38 -17 q-15 -17 -15 -42 q0 -23 15 -39 q14 -16 38 -17 l0 0 ZM407 -10 q176 3 225 85 q49 81 43 198 l0 319 q0 47 23 63 q24 15 73 14 l0 31 l-242 0 l0 -31 q53 1 78 -16 q24 -16 24 -61 l0 -322 q3 -117 -38 -178 q-42 -61 -162 -61 q-115 3 -148 76 q-33 74 -29 178 l0 307 q1 51 33 65 q32 14 83 12 l0 31 l-355 0 l0 -31 q49 2 82 -10 q33 -13 34 -67 l0 -328 q-5 -122 50 -197 q54 -75 226 -77 l0 0 Z" /><glyph glyph-name="" unicode="&#x1d5;" d="M311 931 l257 0 l0 34 l-257 0 l0 -34 ZM349 769 q25 1 42 17 q16 16 17 39 q-1 25 -17 42 q-17 16 -42 17 q-24 -1 -39 -17 q-15 -17 -15 -42 q0 -23 15 -39 q15 -16 39 -17 l0 0 ZM532 769 q25 1 42 17 q17 16 18 39 q-1 25 -18 42 q-17 16 -42 17 q-24 -1 -38 -17 q-15 -17 -15 -42 q0 -23 15 -39 q14 -16 38 -17 l0 0 ZM407 -10 q176 3 225 85 q49 81 43 198 l0 319 q0 47 23 63 q24 15 73 14 l0 31 l-242 0 l0 -31 q53 1 78 -16 q24 -16 24 -61 l0 -322 q3 -117 -38 -178 q-42 -61 -162 -61 q-115 3 -148 76 q-33 74 -29 178 l0 307 q1 51 33 65 q32 14 83 12 l0 31 l-355 0 l0 -31 q49 2 82 -10 q33 -13 34 -67 l0 -328 q-5 -122 50 -197 q54 -75 226 -77 l0 0 Z" /><glyph glyph-name="" unicode="&#x1ee4;" d="M407 -10 q176 3 225 85 q49 81 43 198 l0 319 q0 47 23 63 q24 15 73 14 l0 31 l-242 0 l0 -31 q53 1 78 -16 q24 -16 24 -61 l0 -322 q3 -117 -38 -178 q-42 -61 -162 -61 q-115 3 -148 76 q-33 74 -29 178 l0 307 q1 51 33 65 q32 14 83 12 l0 31 l-355 0 l0 -31 q49 2 82 -10 q33 -13 34 -67 l0 -328 q-5 -122 50 -197 q54 -75 226 -77 l0 0 ZM423 -194 q27 1 45 19 q17 18 18 45 q-1 25 -18 43 q-18 17 -45 18 q-28 -1 -45 -18 q-18 -18 -19 -43 q1 -27 19 -45 q17 -18 45 -19 l0 0 Z" /><glyph glyph-name="" unicode="Ù" d="M447 753 l33 0 l-61 176 l-107 0 l135 -176 ZM407 -10 q176 3 225 85 q49 81 43 198 l0 319 q0 47 23 63 q24 15 73 14 l0 31 l-242 0 l0 -31 q53 1 78 -16 q24 -16 24 -61 l0 -322 q3 -117 -38 -178 q-42 -61 -162 -61 q-115 3 -148 76 q-33 74 -29 178 l0 307 q1 51 33 65 q32 14 83 12 l0 31 l-355 0 l0 -31 q49 2 82 -10 q33 -13 34 -67 l0 -328 q-5 -122 50 -197 q54 -75 226 -77 l0 0 Z" /><glyph glyph-name="" unicode="&#x1ee6;" d="M437 743 q18 6 54 40 q35 34 39 75 q0 29 -22 50 q-21 20 -62 21 q-53 -5 -82 -40 q-29 -36 -29 -41 l4 -5 q7 7 26 18 q19 10 43 11 q31 -2 42 -20 q12 -19 11 -36 q-1 -25 -10 -42 q-10 -16 -19 -26 l5 -5 ZM407 -10 q176 3 225 85 q49 81 43 198 l0 319 q0 47 23 63 q24 15 73 14 l0 31 l-242 0 l0 -31 q53 1 78 -16 q24 -16 24 -61 l0 -322 q3 -117 -38 -178 q-42 -61 -162 -61 q-115 3 -148 76 q-33 74 -29 178 l0 307 q1 51 33 65 q32 14 83 12 l0 31 l-355 0 l0 -31 q49 2 82 -10 q33 -13 34 -67 l0 -328 q-5 -122 50 -197 q54 -75 226 -77 l0 0 Z" /><glyph glyph-name="" unicode="&#x170;" d="M358 752 l22 0 l146 178 l-109 0 l-59 -178 ZM504 752 l21 0 l147 178 l-109 0 l-59 -178 ZM407 -10 q176 3 225 85 q49 81 43 198 l0 319 q0 47 23 63 q24 15 73 14 l0 31 l-242 0 l0 -31 q53 1 78 -16 q24 -16 24 -61 l0 -322 q3 -117 -38 -178 q-42 -61 -162 -61 q-115 3 -148 76 q-33 74 -29 178 l0 307 q1 51 33 65 q32 14 83 12 l0 31 l-355 0 l0 -31 q49 2 82 -10 q33 -13 34 -67 l0 -328 q-5 -122 50 -197 q54 -75 226 -77 l0 0 Z" /><glyph glyph-name="" unicode="&#x16a;" d="M309 796 l257 0 l0 34 l-257 0 l0 -34 ZM407 -10 q176 3 225 85 q49 81 43 198 l0 319 q0 47 23 63 q24 15 73 14 l0 31 l-242 0 l0 -31 q53 1 78 -16 q24 -16 24 -61 l0 -322 q3 -117 -38 -178 q-42 -61 -162 -61 q-115 3 -148 76 q-33 74 -29 178 l0 307 q1 51 33 65 q32 14 83 12 l0 31 l-355 0 l0 -31 q49 2 82 -10 q33 -13 34 -67 l0 -328 q-5 -122 50 -197 q54 -75 226 -77 l0 0 Z" /><glyph glyph-name="" unicode="&#x172;" d="M529 700 l0 -31 q53 1 78 -16 q24 -16 24 -61 l0 -322 q3 -117 -38 -178 q-42 -61 -162 -61 q-115 3 -148 76 q-33 74 -29 178 l0 307 q1 51 33 65 q32 14 83 12 l0 31 l-355 0 l0 -31 q49 2 82 -10 q33 -13 34 -67 l0 -328 q-5 -122 50 -197 q54 -75 226 -77 l2 0 q-31 -26 -53 -54 q-22 -28 -23 -55 q1 -28 18 -41 q18 -14 45 -14 q45 1 74 11 q30 9 31 10 l0 22 q-1 0 -14 -1 q-14 -2 -33 -2 q-18 0 -26 12 q-7 11 -6 29 q0 15 8 38 q7 22 19 46 q148 14 190 93 q41 79 36 189 l0 319 q0 47 23 63 q24 15 73 14 l0 31 l-242 0 Z" /><glyph glyph-name="" unicode="&#x16e;" d="M442 755 q42 1 70 22 q28 21 29 50 q-1 32 -29 54 q-28 22 -70 23 q-42 -1 -70 -23 q-27 -22 -28 -54 q1 -29 28 -50 q28 -21 70 -22 l0 0 ZM442 794 q-15 0 -25 10 q-10 10 -10 24 q0 14 10 24 q10 10 25 10 q15 0 26 -10 q10 -10 10 -24 q0 -14 -10 -24 q-11 -10 -26 -10 l0 0 ZM407 -10 q176 3 225 85 q49 81 43 198 l0 319 q0 47 23 63 q24 15 73 14 l0 31 l-242 0 l0 -31 q53 1 78 -16 q24 -16 24 -61 l0 -322 q3 -117 -38 -178 q-42 -61 -162 -61 q-115 3 -148 76 q-33 74 -29 178 l0 307 q1 51 33 65 q32 14 83 12 l0 31 l-355 0 l0 -31 q49 2 82 -10 q33 -13 34 -67 l0 -328 q-5 -122 50 -197 q54 -75 226 -77 l0 0 Z" /><glyph glyph-name="" unicode="&#x168;" d="M498 767 q31 3 45 41 q15 38 20 70 l-12 0 q1 -2 -10 -17 q-10 -16 -40 -18 q-32 2 -61 18 q-29 16 -64 18 q-31 -3 -44 -41 q-14 -38 -21 -70 l12 0 q-1 2 10 18 q10 15 40 17 q29 -2 60 -18 q31 -16 65 -18 l0 0 ZM407 -10 q176 3 225 85 q49 81 43 198 l0 319 q0 47 23 63 q24 15 73 14 l0 31 l-242 0 l0 -31 q53 1 78 -16 q24 -16 24 -61 l0 -322 q3 -117 -38 -178 q-42 -61 -162 -61 q-115 3 -148 76 q-33 74 -29 178 l0 307 q1 51 33 65 q32 14 83 12 l0 31 l-355 0 l0 -31 q49 2 82 -10 q33 -13 34 -67 l0 -328 q-5 -122 50 -197 q54 -75 226 -77 l0 0 Z" /><glyph glyph-name="" unicode="V" d="M311 -14 l57 0 q11 31 97 272 q85 240 115 325 q18 52 44 69 q27 17 73 16 l0 32 l-261 0 l0 -32 l51 0 q34 0 49 -16 q14 -16 2 -52 l-155 -446 q-7 22 -64 199 q-57 177 -80 247 q-15 48 14 59 q28 11 77 9 l26 0 l0 32 l-366 0 l0 -32 q56 1 75 -16 q20 -17 36 -69 l210 -597 Z" /><glyph glyph-name="" unicode="W" d="M302 -14 l48 0 l170 528 l190 -528 l59 0 q8 31 73 272 q64 240 87 325 q15 52 43 69 q28 17 75 16 l0 32 l-261 0 l0 -32 l45 0 q34 0 49 -16 q16 -16 7 -52 q-30 -120 -54 -208 q-25 -89 -59 -215 l-191 537 l-52 0 l-160 -514 q-6 19 -55 176 q-48 158 -67 224 q-12 48 16 59 q27 11 75 9 l26 0 l0 32 l-366 0 l0 -32 q60 1 82 -16 q22 -17 37 -69 l183 -597 Z" /><glyph glyph-name="" unicode="&#x1e82;" d="M545 751 l22 0 l146 178 l-109 0 l-59 -178 ZM302 -14 l48 0 l170 528 l190 -528 l59 0 q8 31 73 272 q64 240 87 325 q15 52 43 69 q28 17 75 16 l0 32 l-261 0 l0 -32 l45 0 q34 0 49 -16 q16 -16 7 -52 q-30 -120 -54 -208 q-25 -89 -59 -215 l-191 537 l-52 0 l-160 -514 q-6 19 -55 176 q-48 158 -67 224 q-12 48 16 59 q27 11 75 9 l26 0 l0 32 l-366 0 l0 -32 q60 1 82 -16 q22 -17 37 -69 l183 -597 Z" /><glyph glyph-name="" unicode="&#x174;" d="M438 742 l33 0 l101 87 l101 -87 l33 0 l-103 145 l-62 0 l-103 -145 ZM302 -14 l48 0 l170 528 l190 -528 l59 0 q8 31 73 272 q64 240 87 325 q15 52 43 69 q28 17 75 16 l0 32 l-261 0 l0 -32 l45 0 q34 0 49 -16 q16 -16 7 -52 q-30 -120 -54 -208 q-25 -89 -59 -215 l-191 537 l-52 0 l-160 -514 q-6 19 -55 176 q-48 158 -67 224 q-12 48 16 59 q27 11 75 9 l26 0 l0 32 l-366 0 l0 -32 q60 1 82 -16 q22 -17 37 -69 l183 -597 Z" /><glyph glyph-name="" unicode="&#x1e84;" d="M480 768 q25 1 42 17 q16 16 17 39 q-1 25 -17 42 q-17 16 -42 17 q-24 -1 -39 -17 q-15 -17 -15 -42 q0 -23 15 -39 q15 -16 39 -17 l0 0 ZM663 768 q25 1 42 17 q17 16 18 39 q-1 25 -18 42 q-17 16 -42 17 q-24 -1 -38 -17 q-15 -17 -15 -42 q0 -23 15 -39 q14 -16 38 -17 l0 0 ZM302 -14 l48 0 l170 528 l190 -528 l59 0 q8 31 73 272 q64 240 87 325 q15 52 43 69 q28 17 75 16 l0 32 l-261 0 l0 -32 l45 0 q34 0 49 -16 q16 -16 7 -52 q-30 -120 -54 -208 q-25 -89 -59 -215 l-191 537 l-52 0 l-160 -514 q-6 19 -55 176 q-48 158 -67 224 q-12 48 16 59 q27 11 75 9 l26 0 l0 32 l-366 0 l0 -32 q60 1 82 -16 q22 -17 37 -69 l183 -597 Z" /><glyph glyph-name="" unicode="&#x1e80;" d="M569 752 l33 0 l-61 176 l-107 0 l135 -176 ZM302 -14 l48 0 l170 528 l190 -528 l59 0 q8 31 73 272 q64 240 87 325 q15 52 43 69 q28 17 75 16 l0 32 l-261 0 l0 -32 l45 0 q34 0 49 -16 q16 -16 7 -52 q-30 -120 -54 -208 q-25 -89 -59 -215 l-191 537 l-52 0 l-160 -514 q-6 19 -55 176 q-48 158 -67 224 q-12 48 16 59 q27 11 75 9 l26 0 l0 32 l-366 0 l0 -32 q60 1 82 -16 q22 -17 37 -69 l183 -597 Z" /><glyph glyph-name="" unicode="X" d="M-10 0 l258 0 q0 2 0 16 q0 13 0 16 l-26 0 q-45 0 -58 14 q-14 14 7 47 q26 39 67 103 q42 64 97 143 q50 -83 91 -147 q41 -64 62 -99 q19 -33 2 -47 q-17 -14 -69 -14 q-4 0 -15 0 q-11 0 -12 0 l0 -32 l372 0 l0 32 q-53 -2 -79 7 q-27 10 -54 52 q-64 95 -114 170 q-49 75 -102 159 q30 43 59 83 q29 40 53 73 q29 46 53 69 q25 23 89 23 l0 32 l-248 0 q0 -2 0 -16 q0 -13 0 -16 l51 0 q36 0 43 -14 q7 -14 -15 -47 q-26 -37 -52 -73 q-27 -37 -55 -74 q-35 59 -57 93 q-21 33 -34 54 q-19 34 -9 48 q11 14 50 13 q8 0 22 0 q14 0 22 0 l0 32 l-356 0 l0 -32 q48 2 71 -9 q23 -12 52 -57 q42 -63 76 -115 q34 -52 74 -115 q-60 -91 -106 -161 q-47 -71 -58 -87 q-30 -45 -59 -68 q-29 -24 -93 -24 l0 -32 Z" /><glyph glyph-name="" unicode="Y" d="M136 0 l356 0 l0 31 q-49 -2 -82 10 q-33 12 -34 63 l0 226 q44 77 83 141 q39 64 63 105 q25 47 51 70 q25 22 89 22 l0 32 l-246 0 l0 -32 l51 0 q29 0 36 -14 q6 -14 -13 -47 q-21 -38 -51 -88 q-30 -51 -89 -147 q-50 83 -87 142 q-36 58 -57 93 q-19 34 -8 48 q11 14 50 13 l52 0 l0 32 l-370 0 l0 -32 q53 2 79 -8 q26 -9 55 -51 q22 -30 73 -107 q51 -77 115 -177 l0 -221 q-1 -49 -34 -62 q-33 -13 -82 -11 l0 -31 Z" /><glyph glyph-name="" unicode="Ý" d="M301 752 l22 0 l146 178 l-109 0 l-59 -178 ZM136 0 l356 0 l0 31 q-49 -2 -82 10 q-33 12 -34 63 l0 226 q44 77 83 141 q39 64 63 105 q25 47 51 70 q25 22 89 22 l0 32 l-246 0 l0 -32 l51 0 q29 0 36 -14 q6 -14 -13 -47 q-21 -38 -51 -88 q-30 -51 -89 -147 q-50 83 -87 142 q-36 58 -57 93 q-19 34 -8 48 q11 14 50 13 l52 0 l0 32 l-370 0 l0 -32 q53 2 79 -8 q26 -9 55 -51 q22 -30 73 -107 q51 -77 115 -177 l0 -221 q-1 -49 -34 -62 q-33 -13 -82 -11 l0 -31 Z" /><glyph glyph-name="" unicode="&#x176;" d="M194 743 l33 0 l101 87 l101 -87 l33 0 l-103 145 l-62 0 l-103 -145 ZM136 0 l356 0 l0 31 q-49 -2 -82 10 q-33 12 -34 63 l0 226 q44 77 83 141 q39 64 63 105 q25 47 51 70 q25 22 89 22 l0 32 l-246 0 l0 -32 l51 0 q29 0 36 -14 q6 -14 -13 -47 q-21 -38 -51 -88 q-30 -51 -89 -147 q-50 83 -87 142 q-36 58 -57 93 q-19 34 -8 48 q11 14 50 13 l52 0 l0 32 l-370 0 l0 -32 q53 2 79 -8 q26 -9 55 -51 q22 -30 73 -107 q51 -77 115 -177 l0 -221 q-1 -49 -34 -62 q-33 -13 -82 -11 l0 -31 Z" /><glyph glyph-name="" unicode="&#x178;" d="M236 769 q25 1 42 17 q16 16 17 39 q-1 25 -17 42 q-17 16 -42 17 q-24 -1 -39 -17 q-15 -17 -15 -42 q0 -23 15 -39 q15 -16 39 -17 l0 0 ZM419 769 q25 1 42 17 q17 16 18 39 q-1 25 -18 42 q-17 16 -42 17 q-24 -1 -38 -17 q-15 -17 -15 -42 q0 -23 15 -39 q14 -16 38 -17 l0 0 ZM136 0 l356 0 l0 31 q-49 -2 -82 10 q-33 12 -34 63 l0 226 q44 77 83 141 q39 64 63 105 q25 47 51 70 q25 22 89 22 l0 32 l-246 0 l0 -32 l51 0 q29 0 36 -14 q6 -14 -13 -47 q-21 -38 -51 -88 q-30 -51 -89 -147 q-50 83 -87 142 q-36 58 -57 93 q-19 34 -8 48 q11 14 50 13 l52 0 l0 32 l-370 0 l0 -32 q53 2 79 -8 q26 -9 55 -51 q22 -30 73 -107 q51 -77 115 -177 l0 -221 q-1 -49 -34 -62 q-33 -13 -82 -11 l0 -31 Z" /><glyph glyph-name="" unicode="&#x1ef4;" d="M136 0 l356 0 l0 31 q-49 -2 -82 10 q-33 12 -34 63 l0 226 q44 77 83 141 q39 64 63 105 q25 47 51 70 q25 22 89 22 l0 32 l-246 0 l0 -32 l51 0 q29 0 36 -14 q6 -14 -13 -47 q-21 -38 -51 -88 q-30 -51 -89 -147 q-50 83 -87 142 q-36 58 -57 93 q-19 34 -8 48 q11 14 50 13 l52 0 l0 32 l-370 0 l0 -32 q53 2 79 -8 q26 -9 55 -51 q22 -30 73 -107 q51 -77 115 -177 l0 -221 q-1 -49 -34 -62 q-33 -13 -82 -11 l0 -31 ZM320 -194 q27 1 45 19 q17 18 18 45 q-1 25 -18 43 q-18 17 -45 18 q-28 -1 -45 -18 q-18 -18 -19 -43 q1 -27 19 -45 q17 -18 45 -19 l0 0 Z" /><glyph glyph-name="" unicode="&#x1ef2;" d="M325 753 l33 0 l-61 176 l-107 0 l135 -176 ZM136 0 l356 0 l0 31 q-49 -2 -82 10 q-33 12 -34 63 l0 226 q44 77 83 141 q39 64 63 105 q25 47 51 70 q25 22 89 22 l0 32 l-246 0 l0 -32 l51 0 q29 0 36 -14 q6 -14 -13 -47 q-21 -38 -51 -88 q-30 -51 -89 -147 q-50 83 -87 142 q-36 58 -57 93 q-19 34 -8 48 q11 14 50 13 l52 0 l0 32 l-370 0 l0 -32 q53 2 79 -8 q26 -9 55 -51 q22 -30 73 -107 q51 -77 115 -177 l0 -221 q-1 -49 -34 -62 q-33 -13 -82 -11 l0 -31 Z" /><glyph glyph-name="" unicode="&#x1ef6;" d="M315 743 q18 6 54 40 q35 34 39 75 q0 29 -22 50 q-21 20 -62 21 q-53 -5 -82 -40 q-29 -36 -29 -41 l4 -5 q7 7 26 18 q19 10 43 11 q31 -2 42 -20 q12 -19 11 -36 q-1 -25 -10 -42 q-10 -16 -19 -26 l5 -5 ZM136 0 l356 0 l0 31 q-49 -2 -82 10 q-33 12 -34 63 l0 226 q44 77 83 141 q39 64 63 105 q25 47 51 70 q25 22 89 22 l0 32 l-246 0 l0 -32 l51 0 q29 0 36 -14 q6 -14 -13 -47 q-21 -38 -51 -88 q-30 -51 -89 -147 q-50 83 -87 142 q-36 58 -57 93 q-19 34 -8 48 q11 14 50 13 l52 0 l0 32 l-370 0 l0 -32 q53 2 79 -8 q26 -9 55 -51 q22 -30 73 -107 q51 -77 115 -177 l0 -221 q-1 -49 -34 -62 q-33 -13 -82 -11 l0 -31 Z" /><glyph glyph-name="" unicode="&#x1ef8;" d="M377 767 q31 3 45 41 q15 38 20 70 l-12 0 q1 -2 -10 -17 q-10 -16 -40 -18 q-32 2 -61 18 q-29 16 -64 18 q-31 -3 -44 -41 q-14 -38 -21 -70 l12 0 q-1 2 10 18 q10 15 40 17 q29 -2 60 -18 q31 -16 65 -18 l0 0 ZM136 0 l356 0 l0 31 q-49 -2 -82 10 q-33 12 -34 63 l0 226 q44 77 83 141 q39 64 63 105 q25 47 51 70 q25 22 89 22 l0 32 l-246 0 l0 -32 l51 0 q29 0 36 -14 q6 -14 -13 -47 q-21 -38 -51 -88 q-30 -51 -89 -147 q-50 83 -87 142 q-36 58 -57 93 q-19 34 -8 48 q11 14 50 13 l52 0 l0 32 l-370 0 l0 -32 q53 2 79 -8 q26 -9 55 -51 q22 -30 73 -107 q51 -77 115 -177 l0 -221 q-1 -49 -34 -62 q-33 -13 -82 -11 l0 -31 Z" /><glyph glyph-name="" unicode="Z" d="M50 0 l556 0 l0 221 l-32 0 q-9 -97 -31 -139 q-22 -42 -92 -41 l-240 0 l413 644 l0 15 l-524 0 l0 -193 l32 0 q7 81 32 117 q24 36 91 35 l208 0 l-413 -642 l0 -17 Z" /><glyph glyph-name="" unicode="&#x179;" d="M337 752 l22 0 l146 178 l-109 0 l-59 -178 ZM50 0 l556 0 l0 221 l-32 0 q-9 -97 -31 -139 q-22 -42 -92 -41 l-240 0 l413 644 l0 15 l-524 0 l0 -193 l32 0 q7 81 32 117 q24 36 91 35 l208 0 l-413 -642 l0 -17 Z" /><glyph glyph-name="" unicode="&#x17d;" d="M342 769 l62 0 l103 148 l-22 0 l-112 -80 l-113 80 l-21 0 l103 -148 ZM50 0 l556 0 l0 221 l-32 0 q-9 -97 -31 -139 q-22 -42 -92 -41 l-240 0 l413 644 l0 15 l-524 0 l0 -193 l32 0 q7 81 32 117 q24 36 91 35 l208 0 l-413 -642 l0 -17 Z" /><glyph glyph-name="" unicode="&#x17b;" d="M368 760 q27 1 45 19 q17 18 18 45 q-1 25 -18 43 q-18 17 -45 18 q-28 -1 -45 -18 q-18 -18 -19 -43 q1 -27 19 -45 q17 -18 45 -19 l0 0 ZM50 0 l556 0 l0 221 l-32 0 q-9 -97 -31 -139 q-22 -42 -92 -41 l-240 0 l413 644 l0 15 l-524 0 l0 -193 l32 0 q7 81 32 117 q24 36 91 35 l208 0 l-413 -642 l0 -17 Z" /><glyph glyph-name="" unicode="a" d="M145 -8 q40 0 84 20 q43 20 65 65 l0 -77 l194 0 l0 32 q-40 -2 -62 13 q-22 14 -22 64 l0 202 q-2 64 -49 92 q-47 27 -114 26 q-83 -2 -135 -16 q-53 -15 -55 -17 l32 -117 l28 0 q-2 48 22 79 q23 31 76 32 q40 0 59 -28 q18 -27 18 -83 l0 -44 q-110 0 -177 -37 q-67 -36 -69 -106 q0 -44 27 -71 q27 -28 78 -29 l0 0 ZM209 50 q-27 0 -40 16 q-14 15 -14 44 q1 46 36 69 q36 23 97 24 l0 -76 q-9 -28 -30 -52 q-21 -24 -49 -25 l0 0 Z" /><glyph glyph-name="" unicode="á" d="M223 479 l22 0 l146 178 l-109 0 l-59 -178 ZM145 -8 q40 0 84 20 q43 20 65 65 l0 -77 l194 0 l0 32 q-40 -2 -62 13 q-22 14 -22 64 l0 202 q-2 64 -49 92 q-47 27 -114 26 q-83 -2 -135 -16 q-53 -15 -55 -17 l32 -117 l28 0 q-2 48 22 79 q23 31 76 32 q40 0 59 -28 q18 -27 18 -83 l0 -44 q-110 0 -177 -37 q-67 -36 -69 -106 q0 -44 27 -71 q27 -28 78 -29 l0 0 ZM209 50 q-27 0 -40 16 q-14 15 -14 44 q1 46 36 69 q36 23 97 24 l0 -76 q-9 -28 -30 -52 q-21 -24 -49 -25 l0 0 Z" /><glyph glyph-name="" unicode="&#x103;" d="M242 482 q86 9 113 69 q27 60 25 69 l-8 0 q1 -3 -27 -27 q-29 -25 -104 -28 q-75 3 -103 28 q-28 24 -27 27 l-7 0 q-3 -9 24 -69 q27 -60 114 -69 l0 0 ZM145 -8 q40 0 84 20 q43 20 65 65 l0 -77 l194 0 l0 32 q-40 -2 -62 13 q-22 14 -22 64 l0 202 q-2 64 -49 92 q-47 27 -114 26 q-83 -2 -135 -16 q-53 -15 -55 -17 l32 -117 l28 0 q-2 48 22 79 q23 31 76 32 q40 0 59 -28 q18 -27 18 -83 l0 -44 q-110 0 -177 -37 q-67 -36 -69 -106 q0 -44 27 -71 q27 -28 78 -29 l0 0 ZM209 50 q-27 0 -40 16 q-14 15 -14 44 q1 46 36 69 q36 23 97 24 l0 -76 q-9 -28 -30 -52 q-21 -24 -49 -25 l0 0 Z" /><glyph glyph-name="" unicode="&#x1eb7;" d="M242 482 q86 9 113 69 q27 60 25 69 l-8 0 q1 -3 -27 -27 q-29 -25 -104 -28 q-75 3 -103 28 q-28 24 -27 27 l-7 0 q-3 -9 24 -69 q27 -60 114 -69 l0 0 ZM145 -8 q40 0 84 20 q43 20 65 65 l0 -77 l194 0 l0 32 q-40 -2 -62 13 q-22 14 -22 64 l0 202 q-2 64 -49 92 q-47 27 -114 26 q-83 -2 -135 -16 q-53 -15 -55 -17 l32 -117 l28 0 q-2 48 22 79 q23 31 76 32 q40 0 59 -28 q18 -27 18 -83 l0 -44 q-110 0 -177 -37 q-67 -36 -69 -106 q0 -44 27 -71 q27 -28 78 -29 l0 0 ZM209 50 q-27 0 -40 16 q-14 15 -14 44 q1 46 36 69 q36 23 97 24 l0 -76 q-9 -28 -30 -52 q-21 -24 -49 -25 l0 0 ZM234 -194 q27 1 45 19 q17 18 18 45 q-1 25 -18 43 q-18 17 -45 18 q-28 -1 -45 -18 q-18 -18 -19 -43 q1 -27 19 -45 q17 -18 45 -19 l0 0 Z" /><glyph glyph-name="" unicode="&#x1ce;" d="M228 496 l62 0 l103 148 l-22 0 l-112 -80 l-113 80 l-21 0 l103 -148 ZM145 -8 q40 0 84 20 q43 20 65 65 l0 -77 l194 0 l0 32 q-40 -2 -62 13 q-22 14 -22 64 l0 202 q-2 64 -49 92 q-47 27 -114 26 q-83 -2 -135 -16 q-53 -15 -55 -17 l32 -117 l28 0 q-2 48 22 79 q23 31 76 32 q40 0 59 -28 q18 -27 18 -83 l0 -44 q-110 0 -177 -37 q-67 -36 -69 -106 q0 -44 27 -71 q27 -28 78 -29 l0 0 ZM209 50 q-27 0 -40 16 q-14 15 -14 44 q1 46 36 69 q36 23 97 24 l0 -76 q-9 -28 -30 -52 q-21 -24 -49 -25 l0 0 Z" /><glyph glyph-name="" unicode="â" d="M116 470 l33 0 l101 87 l101 -87 l33 0 l-103 145 l-62 0 l-103 -145 ZM145 -8 q40 0 84 20 q43 20 65 65 l0 -77 l194 0 l0 32 q-40 -2 -62 13 q-22 14 -22 64 l0 202 q-2 64 -49 92 q-47 27 -114 26 q-83 -2 -135 -16 q-53 -15 -55 -17 l32 -117 l28 0 q-2 48 22 79 q23 31 76 32 q40 0 59 -28 q18 -27 18 -83 l0 -44 q-110 0 -177 -37 q-67 -36 -69 -106 q0 -44 27 -71 q27 -28 78 -29 l0 0 ZM209 50 q-27 0 -40 16 q-14 15 -14 44 q1 46 36 69 q36 23 97 24 l0 -76 q-9 -28 -30 -52 q-21 -24 -49 -25 l0 0 Z" /><glyph glyph-name="" unicode="&#x1ead;" d="M116 470 l33 0 l101 87 l101 -87 l33 0 l-103 145 l-62 0 l-103 -145 ZM145 -8 q40 0 84 20 q43 20 65 65 l0 -77 l194 0 l0 32 q-40 -2 -62 13 q-22 14 -22 64 l0 202 q-2 64 -49 92 q-47 27 -114 26 q-83 -2 -135 -16 q-53 -15 -55 -17 l32 -117 l28 0 q-2 48 22 79 q23 31 76 32 q40 0 59 -28 q18 -27 18 -83 l0 -44 q-110 0 -177 -37 q-67 -36 -69 -106 q0 -44 27 -71 q27 -28 78 -29 l0 0 ZM209 50 q-27 0 -40 16 q-14 15 -14 44 q1 46 36 69 q36 23 97 24 l0 -76 q-9 -28 -30 -52 q-21 -24 -49 -25 l0 0 ZM234 -194 q27 1 45 19 q17 18 18 45 q-1 25 -18 43 q-18 17 -45 18 q-28 -1 -45 -18 q-18 -18 -19 -43 q1 -27 19 -45 q17 -18 45 -19 l0 0 Z" /><glyph glyph-name="" unicode="ä" d="M158 496 q25 1 42 17 q16 16 17 39 q-1 25 -17 42 q-17 16 -42 17 q-24 -1 -39 -17 q-15 -17 -15 -42 q0 -23 15 -39 q15 -16 39 -17 l0 0 ZM341 496 q25 1 42 17 q17 16 18 39 q-1 25 -18 42 q-17 16 -42 17 q-24 -1 -38 -17 q-15 -17 -15 -42 q0 -23 15 -39 q14 -16 38 -17 l0 0 ZM145 -8 q40 0 84 20 q43 20 65 65 l0 -77 l194 0 l0 32 q-40 -2 -62 13 q-22 14 -22 64 l0 202 q-2 64 -49 92 q-47 27 -114 26 q-83 -2 -135 -16 q-53 -15 -55 -17 l32 -117 l28 0 q-2 48 22 79 q23 31 76 32 q40 0 59 -28 q18 -27 18 -83 l0 -44 q-110 0 -177 -37 q-67 -36 -69 -106 q0 -44 27 -71 q27 -28 78 -29 l0 0 ZM209 50 q-27 0 -40 16 q-14 15 -14 44 q1 46 36 69 q36 23 97 24 l0 -76 q-9 -28 -30 -52 q-21 -24 -49 -25 l0 0 Z" /><glyph glyph-name="" unicode="&#x1ea1;" d="M145 -8 q40 0 84 20 q43 20 65 65 l0 -77 l194 0 l0 32 q-40 -2 -62 13 q-22 14 -22 64 l0 202 q-2 64 -49 92 q-47 27 -114 26 q-83 -2 -135 -16 q-53 -15 -55 -17 l32 -117 l28 0 q-2 48 22 79 q23 31 76 32 q40 0 59 -28 q18 -27 18 -83 l0 -44 q-110 0 -177 -37 q-67 -36 -69 -106 q0 -44 27 -71 q27 -28 78 -29 l0 0 ZM209 50 q-27 0 -40 16 q-14 15 -14 44 q1 46 36 69 q36 23 97 24 l0 -76 q-9 -28 -30 -52 q-21 -24 -49 -25 l0 0 ZM234 -194 q27 1 45 19 q17 18 18 45 q-1 25 -18 43 q-18 17 -45 18 q-28 -1 -45 -18 q-18 -18 -19 -43 q1 -27 19 -45 q17 -18 45 -19 l0 0 Z" /><glyph glyph-name="" unicode="à" d="M247 480 l33 0 l-61 176 l-107 0 l135 -176 ZM145 -8 q40 0 84 20 q43 20 65 65 l0 -77 l194 0 l0 32 q-40 -2 -62 13 q-22 14 -22 64 l0 202 q-2 64 -49 92 q-47 27 -114 26 q-83 -2 -135 -16 q-53 -15 -55 -17 l32 -117 l28 0 q-2 48 22 79 q23 31 76 32 q40 0 59 -28 q18 -27 18 -83 l0 -44 q-110 0 -177 -37 q-67 -36 -69 -106 q0 -44 27 -71 q27 -28 78 -29 l0 0 ZM209 50 q-27 0 -40 16 q-14 15 -14 44 q1 46 36 69 q36 23 97 24 l0 -76 q-9 -28 -30 -52 q-21 -24 -49 -25 l0 0 Z" /><glyph glyph-name="" unicode="&#x1ea3;" d="M237 470 q18 6 54 40 q35 34 39 75 q0 29 -22 50 q-21 20 -62 21 q-53 -5 -82 -40 q-29 -36 -29 -41 l4 -5 q7 7 26 18 q19 10 43 11 q31 -2 42 -20 q12 -19 11 -36 q-1 -25 -10 -42 q-10 -16 -19 -26 l5 -5 ZM145 -8 q40 0 84 20 q43 20 65 65 l0 -77 l194 0 l0 32 q-40 -2 -62 13 q-22 14 -22 64 l0 202 q-2 64 -49 92 q-47 27 -114 26 q-83 -2 -135 -16 q-53 -15 -55 -17 l32 -117 l28 0 q-2 48 22 79 q23 31 76 32 q40 0 59 -28 q18 -27 18 -83 l0 -44 q-110 0 -177 -37 q-67 -36 -69 -106 q0 -44 27 -71 q27 -28 78 -29 l0 0 ZM209 50 q-27 0 -40 16 q-14 15 -14 44 q1 46 36 69 q36 23 97 24 l0 -76 q-9 -28 -30 -52 q-21 -24 -49 -25 l0 0 Z" /><glyph glyph-name="" unicode="&#x101;" d="M110 523 l257 0 l0 34 l-257 0 l0 -34 ZM145 -8 q40 0 84 20 q43 20 65 65 l0 -77 l194 0 l0 32 q-40 -2 -62 13 q-22 14 -22 64 l0 202 q-2 64 -49 92 q-47 27 -114 26 q-83 -2 -135 -16 q-53 -15 -55 -17 l32 -117 l28 0 q-2 48 22 79 q23 31 76 32 q40 0 59 -28 q18 -27 18 -83 l0 -44 q-110 0 -177 -37 q-67 -36 -69 -106 q0 -44 27 -71 q27 -28 78 -29 l0 0 ZM209 50 q-27 0 -40 16 q-14 15 -14 44 q1 46 36 69 q36 23 97 24 l0 -76 q-9 -28 -30 -52 q-21 -24 -49 -25 l0 0 Z" /><glyph glyph-name="" unicode="&#x105;" d="M476 -149 q-18 0 -26 12 q-7 11 -6 29 q0 20 12 49 q11 29 29 59 l3 0 l0 5 q0 1 1 1 q0 0 0 1 l-1 0 l0 25 q-40 -2 -62 13 q-22 14 -22 64 l0 202 q-2 64 -49 92 q-47 27 -114 26 q-83 -2 -135 -16 q-53 -15 -55 -17 l32 -117 l28 0 q-2 48 22 79 q23 31 76 32 q40 0 59 -28 q18 -27 18 -83 l0 -44 q-110 0 -177 -37 q-67 -36 -69 -106 q0 -44 27 -71 q27 -28 78 -29 q40 0 84 20 q43 20 65 65 l0 -77 l167 0 q-39 -30 -72 -65 q-32 -36 -34 -69 q1 -28 18 -41 q18 -14 45 -14 q45 1 74 11 q30 9 31 10 l0 22 q-1 0 -14 -1 q-14 -2 -33 -2 l0 0 ZM288 127 q-9 -28 -30 -52 q-21 -24 -49 -25 q-27 0 -40 16 q-14 15 -14 44 q1 46 36 69 q36 23 97 24 l0 -76 Z" /><glyph glyph-name="" unicode="å" d="M242 482 q42 1 70 22 q28 21 29 50 q-1 32 -29 54 q-28 22 -70 23 q-42 -1 -70 -23 q-27 -22 -28 -54 q1 -29 28 -50 q28 -21 70 -22 l0 0 ZM242 521 q-15 0 -25 10 q-10 10 -10 24 q0 14 10 24 q10 10 25 10 q15 0 26 -10 q10 -10 10 -24 q0 -14 -10 -24 q-11 -10 -26 -10 l0 0 ZM145 -8 q40 0 84 20 q43 20 65 65 l0 -77 l194 0 l0 32 q-40 -2 -62 13 q-22 14 -22 64 l0 202 q-2 64 -49 92 q-47 27 -114 26 q-83 -2 -135 -16 q-53 -15 -55 -17 l32 -117 l28 0 q-2 48 22 79 q23 31 76 32 q40 0 59 -28 q18 -27 18 -83 l0 -44 q-110 0 -177 -37 q-67 -36 -69 -106 q0 -44 27 -71 q27 -28 78 -29 l0 0 ZM209 50 q-27 0 -40 16 q-14 15 -14 44 q1 46 36 69 q36 23 97 24 l0 -76 q-9 -28 -30 -52 q-21 -24 -49 -25 l0 0 Z" /><glyph glyph-name="" unicode="ã" d="M299 494 q31 3 45 41 q15 38 20 70 l-12 0 q1 -2 -10 -17 q-10 -16 -40 -18 q-32 2 -61 18 q-29 16 -64 18 q-31 -3 -44 -41 q-14 -38 -21 -70 l12 0 q-1 2 10 18 q10 15 40 17 q29 -2 60 -18 q31 -16 65 -18 l0 0 ZM145 -8 q40 0 84 20 q43 20 65 65 l0 -77 l194 0 l0 32 q-40 -2 -62 13 q-22 14 -22 64 l0 202 q-2 64 -49 92 q-47 27 -114 26 q-83 -2 -135 -16 q-53 -15 -55 -17 l32 -117 l28 0 q-2 48 22 79 q23 31 76 32 q40 0 59 -28 q18 -27 18 -83 l0 -44 q-110 0 -177 -37 q-67 -36 -69 -106 q0 -44 27 -71 q27 -28 78 -29 l0 0 ZM209 50 q-27 0 -40 16 q-14 15 -14 44 q1 46 36 69 q36 23 97 24 l0 -76 q-9 -28 -30 -52 q-21 -24 -49 -25 l0 0 Z" /><glyph glyph-name="" unicode="æ" d="M145 -8 q56 -1 94 24 q37 24 74 81 q27 -51 78 -78 q52 -27 123 -27 q76 5 112 43 q37 38 37 43 l-7 31 q0 -4 -32 -34 q-32 -30 -96 -34 q-68 4 -96 58 q-28 55 -28 111 q0 9 1 16 q0 6 1 9 l261 0 l0 31 q3 49 -30 106 q-32 56 -132 61 q-35 0 -70 -12 q-35 -11 -63 -36 q-22 24 -56 34 q-35 10 -75 10 q-71 -2 -119 -16 q-49 -15 -51 -17 l25 -117 l29 0 q0 48 21 79 q21 31 62 32 q41 0 59 -28 q17 -27 17 -83 l0 -44 q-108 0 -175 -37 q-67 -37 -69 -107 q0 -44 27 -71 q27 -27 78 -28 l0 0 ZM408 280 q5 42 23 78 q18 37 59 39 q57 -4 67 -47 q10 -43 7 -70 l-156 0 ZM209 50 q-27 0 -40 15 q-14 15 -14 44 q1 46 36 70 q36 23 96 24 l0 -76 q-9 -28 -30 -52 q-20 -24 -48 -25 l0 0 Z" /><glyph glyph-name="" unicode="b" d="M83 -26 l31 0 l81 81 q17 -26 50 -44 q32 -18 78 -19 q119 5 166 78 q48 73 46 152 q0 88 -52 147 q-53 59 -162 61 q-36 0 -69 -14 q-32 -13 -52 -39 l0 337 l-195 -19 l0 -30 q44 0 61 -12 q18 -13 17 -42 l0 -637 ZM311 29 q-39 -3 -73 33 q-35 37 -37 149 q1 99 29 141 q29 42 79 41 q61 -2 84 -51 q23 -50 22 -120 q1 -71 -22 -130 q-22 -59 -82 -63 l0 0 Z" /><glyph glyph-name="" unicode="c" d="M244 -8 q80 5 119 42 q38 36 38 41 l-6 31 q0 -4 -31 -32 q-32 -28 -95 -32 q-50 -1 -84 39 q-34 40 -35 131 q1 92 33 138 q32 46 83 46 q52 -1 71 -34 q18 -32 15 -80 l29 0 l33 118 q-2 2 -46 17 q-44 14 -110 16 q-94 0 -159 -54 q-66 -55 -69 -166 q3 -117 66 -169 q62 -53 148 -52 l0 0 Z" /><glyph glyph-name="" unicode="&#x107;" d="M204 479 l22 0 l146 178 l-109 0 l-59 -178 ZM244 -8 q80 5 119 42 q38 36 38 41 l-6 31 q0 -4 -31 -32 q-32 -28 -95 -32 q-50 -1 -84 39 q-34 40 -35 131 q1 92 33 138 q32 46 83 46 q52 -1 71 -34 q18 -32 15 -80 l29 0 l33 118 q-2 2 -46 17 q-44 14 -110 16 q-94 0 -159 -54 q-66 -55 -69 -166 q3 -117 66 -169 q62 -53 148 -52 l0 0 Z" /><glyph glyph-name="" unicode="&#x10d;" d="M209 496 l62 0 l103 148 l-22 0 l-112 -80 l-113 80 l-21 0 l103 -148 ZM244 -8 q80 5 119 42 q38 36 38 41 l-6 31 q0 -4 -31 -32 q-32 -28 -95 -32 q-50 -1 -84 39 q-34 40 -35 131 q1 92 33 138 q32 46 83 46 q52 -1 71 -34 q18 -32 15 -80 l29 0 l33 118 q-2 2 -46 17 q-44 14 -110 16 q-94 0 -159 -54 q-66 -55 -69 -166 q3 -117 66 -169 q62 -53 148 -52 l0 0 Z" /><glyph glyph-name="" unicode="ç" d="M269 42 q-50 -1 -84 39 q-34 40 -35 131 q1 92 33 138 q32 46 83 46 q52 -1 71 -34 q18 -32 15 -80 l29 0 l33 118 q-2 2 -46 17 q-44 14 -110 16 q-94 0 -159 -54 q-66 -55 -69 -166 q2 -104 54 -157 q51 -53 125 -62 l-50 -79 q37 -1 57 -13 q21 -11 21 -34 q0 -22 -10 -35 q-10 -14 -27 -14 q-18 1 -31 8 q-13 6 -14 7 l0 -14 q1 -1 26 -10 q24 -10 60 -11 q36 0 56 17 q19 16 19 44 q0 31 -25 48 q-25 16 -74 18 l-8 -2 l12 69 q11 -1 23 -1 q80 5 119 42 q38 36 38 41 l-6 31 q0 -4 -31 -32 q-32 -28 -95 -32 l0 0 Z" /><glyph glyph-name="" unicode="&#x10b;" d="M235 487 q27 1 45 19 q17 18 18 45 q-1 25 -18 43 q-18 17 -45 18 q-28 -1 -45 -18 q-18 -18 -19 -43 q1 -27 19 -45 q17 -18 45 -19 l0 0 ZM244 -8 q80 5 119 42 q38 36 38 41 l-6 31 q0 -4 -31 -32 q-32 -28 -95 -32 q-50 -1 -84 39 q-34 40 -35 131 q1 92 33 138 q32 46 83 46 q52 -1 71 -34 q18 -32 15 -80 l29 0 l33 118 q-2 2 -46 17 q-44 14 -110 16 q-94 0 -159 -54 q-66 -55 -69 -166 q3 -117 66 -169 q62 -53 148 -52 l0 0 Z" /><glyph glyph-name="" unicode="d" d="M242 -8 q62 1 91 30 q28 28 40 70 l0 -92 l157 0 l0 33 q-30 -1 -39 8 q-9 10 -9 44 l0 629 l-197 -17 l0 -32 q44 0 61 -12 q18 -13 17 -42 l0 -234 q-20 25 -53 39 q-33 14 -68 14 q-99 -1 -155 -61 q-56 -60 -57 -170 q1 -98 57 -152 q55 -54 155 -55 l0 0 ZM252 29 q-58 3 -80 55 q-22 53 -21 124 q-1 70 20 126 q21 56 81 59 q52 2 82 -38 q29 -40 30 -142 q1 -69 -24 -125 q-25 -56 -88 -59 l0 0 Z" /><glyph glyph-name="" unicode="ð" d="M264 -8 q111 2 173 64 q62 62 63 155 q-3 136 -68 236 q-66 99 -156 163 l93 51 l-13 20 l-102 -54 q-52 34 -99 56 q-47 22 -81 33 l0 -33 q37 -14 70 -32 q34 -17 67 -47 l-95 -50 l12 -22 l101 55 q35 -36 68 -80 q33 -43 54 -96 q-13 6 -38 12 q-26 6 -49 7 q-108 -2 -170 -64 q-63 -62 -64 -155 q1 -93 64 -155 q62 -62 170 -64 l0 0 ZM264 30 q-60 2 -86 55 q-27 52 -27 126 q0 74 27 126 q26 53 86 55 q63 -2 91 -54 q28 -53 27 -127 q1 -74 -27 -126 q-28 -53 -91 -55 l0 0 Z" /><glyph glyph-name="" unicode="&#x10f;" d="M242 -8 q62 1 91 30 q28 28 40 70 l0 -92 l157 0 l0 33 q-30 -1 -39 8 q-9 10 -9 44 l0 629 l-197 -17 l0 -32 q44 0 61 -12 q18 -13 17 -42 l0 -234 q-20 25 -53 39 q-33 14 -68 14 q-99 -1 -155 -61 q-56 -60 -57 -170 q1 -98 57 -152 q55 -54 155 -55 l0 0 ZM520 482 q8 -1 64 25 q55 25 63 91 q-8 66 -61 91 q-53 26 -61 25 l-7 -5 q18 -20 30 -49 q11 -30 11 -62 q-1 -31 -14 -61 q-13 -29 -32 -50 l7 -5 ZM252 29 q-58 3 -80 55 q-22 53 -21 124 q-1 70 20 126 q21 56 81 59 q52 2 82 -38 q29 -40 30 -142 q1 -69 -24 -125 q-25 -56 -88 -59 l0 0 Z" /><glyph glyph-name="" unicode="&#x111;" d="M554 517 l0 52 l-72 0 l0 145 l-197 -17 l0 -32 q44 0 61 -12 q18 -13 17 -42 l0 -42 l-136 0 l0 -52 l136 0 l0 -140 q-20 25 -53 39 q-33 14 -68 14 q-99 -1 -155 -61 q-56 -60 -57 -170 q1 -98 57 -152 q55 -54 155 -55 q62 1 91 30 q28 28 40 70 l0 -92 l157 0 l0 33 q-30 -1 -39 8 q-9 10 -9 44 l0 432 l72 0 ZM252 29 q-58 3 -80 55 q-22 53 -21 124 q-1 70 20 126 q21 56 81 59 q52 2 82 -38 q29 -40 30 -142 q1 -69 -24 -125 q-25 -56 -88 -59 l0 0 Z" /><glyph glyph-name="" unicode="e" d="M441 235 l0 28 q2 53 -37 109 q-39 56 -144 61 q-106 -1 -167 -61 q-62 -59 -63 -163 q2 -105 70 -161 q68 -56 179 -56 q76 5 112 42 q37 37 37 42 l-7 32 q0 -4 -32 -33 q-32 -29 -96 -33 q-75 2 -110 50 q-35 48 -36 118 q0 13 1 25 l293 0 ZM257 397 q54 -3 68 -43 q15 -40 14 -74 l-186 0 q9 53 34 85 q25 31 70 32 l0 0 Z" /><glyph glyph-name="" unicode="é" d="M398 657 l-109 0 l-59 -178 l22 0 l146 178 ZM441 235 l0 28 q2 53 -37 109 q-39 56 -144 61 q-106 -1 -167 -61 q-62 -59 -63 -163 q2 -105 70 -161 q68 -56 179 -56 q76 5 112 42 q37 37 37 42 l-7 32 q0 -4 -32 -33 q-32 -29 -96 -33 q-75 2 -110 50 q-35 48 -36 118 q0 13 1 25 l293 0 ZM257 397 q54 -3 68 -43 q15 -40 14 -74 l-186 0 q9 53 34 85 q25 31 70 32 l0 0 Z" /><glyph glyph-name="" unicode="&#x11b;" d="M297 496 l103 148 l-22 0 l-112 -80 l-113 80 l-21 0 l103 -148 l62 0 ZM441 235 l0 28 q2 53 -37 109 q-39 56 -144 61 q-106 -1 -167 -61 q-62 -59 -63 -163 q2 -105 70 -161 q68 -56 179 -56 q76 5 112 42 q37 37 37 42 l-7 32 q0 -4 -32 -33 q-32 -29 -96 -33 q-75 2 -110 50 q-35 48 -36 118 q0 13 1 25 l293 0 ZM257 397 q54 -3 68 -43 q15 -40 14 -74 l-186 0 q9 53 34 85 q25 31 70 32 l0 0 Z" /><glyph glyph-name="" unicode="ê" d="M257 557 l101 -87 l33 0 l-103 145 l-62 0 l-103 -145 l33 0 l101 87 ZM441 235 l0 28 q2 53 -37 109 q-39 56 -144 61 q-106 -1 -167 -61 q-62 -59 -63 -163 q2 -105 70 -161 q68 -56 179 -56 q76 5 112 42 q37 37 37 42 l-7 32 q0 -4 -32 -33 q-32 -29 -96 -33 q-75 2 -110 50 q-35 48 -36 118 q0 13 1 25 l293 0 ZM257 397 q54 -3 68 -43 q15 -40 14 -74 l-186 0 q9 53 34 85 q25 31 70 32 l0 0 Z" /><glyph glyph-name="" unicode="&#x1ec7;" d="M257 557 l101 -87 l33 0 l-103 145 l-62 0 l-103 -145 l33 0 l101 87 ZM441 235 l0 28 q2 53 -37 109 q-39 56 -144 61 q-106 -1 -167 -61 q-62 -59 -63 -163 q2 -105 70 -161 q68 -56 179 -56 q76 5 112 42 q37 37 37 42 l-7 32 q0 -4 -32 -33 q-32 -29 -96 -33 q-75 2 -110 50 q-35 48 -36 118 q0 13 1 25 l293 0 ZM257 397 q54 -3 68 -43 q15 -40 14 -74 l-186 0 q9 53 34 85 q25 31 70 32 l0 0 ZM276 -69 q-28 -1 -45 -18 q-18 -18 -19 -43 q1 -27 19 -45 q17 -18 45 -19 q27 1 45 19 q17 18 18 45 q-1 25 -18 43 q-18 17 -45 18 l0 0 Z" /><glyph glyph-name="" unicode="ë" d="M165 496 q25 1 42 17 q16 16 17 39 q-1 25 -17 42 q-17 16 -42 17 q-24 -1 -39 -17 q-15 -17 -15 -42 q0 -23 15 -39 q15 -16 39 -17 l0 0 ZM348 496 q25 1 42 17 q17 16 18 39 q-1 25 -18 42 q-17 16 -42 17 q-24 -1 -38 -17 q-15 -17 -15 -42 q0 -23 15 -39 q14 -16 38 -17 l0 0 ZM441 235 l0 28 q2 53 -37 109 q-39 56 -144 61 q-106 -1 -167 -61 q-62 -59 -63 -163 q2 -105 70 -161 q68 -56 179 -56 q76 5 112 42 q37 37 37 42 l-7 32 q0 -4 -32 -33 q-32 -29 -96 -33 q-75 2 -110 50 q-35 48 -36 118 q0 13 1 25 l293 0 ZM257 397 q54 -3 68 -43 q15 -40 14 -74 l-186 0 q9 53 34 85 q25 31 70 32 l0 0 Z" /><glyph glyph-name="" unicode="&#x117;" d="M261 487 q27 1 45 19 q17 18 18 45 q-1 25 -18 43 q-18 17 -45 18 q-28 -1 -45 -18 q-18 -18 -19 -43 q1 -27 19 -45 q17 -18 45 -19 l0 0 ZM441 235 l0 28 q2 53 -37 109 q-39 56 -144 61 q-106 -1 -167 -61 q-62 -59 -63 -163 q2 -105 70 -161 q68 -56 179 -56 q76 5 112 42 q37 37 37 42 l-7 32 q0 -4 -32 -33 q-32 -29 -96 -33 q-75 2 -110 50 q-35 48 -36 118 q0 13 1 25 l293 0 ZM257 397 q54 -3 68 -43 q15 -40 14 -74 l-186 0 q9 53 34 85 q25 31 70 32 l0 0 Z" /><glyph glyph-name="" unicode="&#x1eb9;" d="M441 235 l0 28 q2 53 -37 109 q-39 56 -144 61 q-106 -1 -167 -61 q-62 -59 -63 -163 q2 -105 70 -161 q68 -56 179 -56 q76 5 112 42 q37 37 37 42 l-7 32 q0 -4 -32 -33 q-32 -29 -96 -33 q-75 2 -110 50 q-35 48 -36 118 q0 13 1 25 l293 0 ZM257 397 q54 -3 68 -43 q15 -40 14 -74 l-186 0 q9 53 34 85 q25 31 70 32 l0 0 ZM276 -69 q-28 -1 -45 -18 q-18 -18 -19 -43 q1 -27 19 -45 q17 -18 45 -19 q27 1 45 19 q17 18 18 45 q-1 25 -18 43 q-18 17 -45 18 l0 0 Z" /><glyph glyph-name="" unicode="è" d="M287 480 l-61 176 l-107 0 l135 -176 l33 0 ZM441 235 l0 28 q2 53 -37 109 q-39 56 -144 61 q-106 -1 -167 -61 q-62 -59 -63 -163 q2 -105 70 -161 q68 -56 179 -56 q76 5 112 42 q37 37 37 42 l-7 32 q0 -4 -32 -33 q-32 -29 -96 -33 q-75 2 -110 50 q-35 48 -36 118 q0 13 1 25 l293 0 ZM257 397 q54 -3 68 -43 q15 -40 14 -74 l-186 0 q9 53 34 85 q25 31 70 32 l0 0 Z" /><glyph glyph-name="" unicode="&#x1ebb;" d="M215 599 q31 -2 42 -20 q12 -19 11 -36 q-1 -25 -10 -42 q-10 -16 -19 -26 l5 -5 q18 6 54 40 q35 34 39 75 q0 29 -22 50 q-21 20 -62 21 q-53 -5 -82 -40 q-29 -36 -29 -41 l4 -5 q7 7 26 18 q19 10 43 11 l0 0 ZM441 235 l0 28 q2 53 -37 109 q-39 56 -144 61 q-106 -1 -167 -61 q-62 -59 -63 -163 q2 -105 70 -161 q68 -56 179 -56 q76 5 112 42 q37 37 37 42 l-7 32 q0 -4 -32 -33 q-32 -29 -96 -33 q-75 2 -110 50 q-35 48 -36 118 q0 13 1 25 l293 0 ZM257 397 q54 -3 68 -43 q15 -40 14 -74 l-186 0 q9 53 34 85 q25 31 70 32 l0 0 Z" /><glyph glyph-name="" unicode="&#x113;" d="M374 557 l-257 0 l0 -34 l257 0 l0 34 ZM441 235 l0 28 q2 53 -37 109 q-39 56 -144 61 q-106 -1 -167 -61 q-62 -59 -63 -163 q2 -105 70 -161 q68 -56 179 -56 q76 5 112 42 q37 37 37 42 l-7 32 q0 -4 -32 -33 q-32 -29 -96 -33 q-75 2 -110 50 q-35 48 -36 118 q0 13 1 25 l293 0 ZM257 397 q54 -3 68 -43 q15 -40 14 -74 l-186 0 q9 53 34 85 q25 31 70 32 l0 0 Z" /><glyph glyph-name="" unicode="&#x119;" d="M417 -73 q-18 0 -26 12 q-7 11 -6 29 q0 17 9 41 q8 24 22 50 q6 8 9 12 q3 5 3 5 l-1 3 l3 4 l-4 0 l-5 25 q0 -4 -32 -33 q-32 -29 -96 -33 q-75 2 -110 50 q-35 48 -36 118 q0 13 1 25 l293 0 l0 28 q2 53 -37 109 q-39 56 -144 61 q-106 -1 -167 -61 q-62 -59 -63 -163 q2 -105 70 -161 q68 -56 179 -56 q11 0 21 1 q10 2 19 4 q-11 -14 -17 -28 q-6 -14 -6 -27 q1 -28 18 -41 q18 -14 45 -14 q45 1 74 11 q30 9 31 10 l0 22 q-1 0 -14 -1 q-14 -2 -33 -2 l0 0 ZM257 397 q54 -3 68 -43 q15 -40 14 -74 l-186 0 q9 53 34 85 q25 31 70 32 l0 0 Z" /><glyph glyph-name="" unicode="&#x1ebd;" d="M180 530 q29 -2 60 -18 q31 -16 65 -18 q31 3 45 41 q15 38 20 70 l-12 0 q1 -2 -10 -17 q-10 -16 -40 -18 q-32 2 -61 18 q-29 16 -64 18 q-31 -3 -44 -41 q-14 -38 -21 -70 l12 0 q-1 2 10 18 q10 15 40 17 l0 0 ZM441 235 l0 28 q2 53 -37 109 q-39 56 -144 61 q-106 -1 -167 -61 q-62 -59 -63 -163 q2 -105 70 -161 q68 -56 179 -56 q76 5 112 42 q37 37 37 42 l-7 32 q0 -4 -32 -33 q-32 -29 -96 -33 q-75 2 -110 50 q-35 48 -36 118 q0 13 1 25 l293 0 ZM257 397 q54 -3 68 -43 q15 -40 14 -74 l-186 0 q9 53 34 85 q25 31 70 32 l0 0 Z" /><glyph glyph-name="" unicode="f" d="M30 0 l299 0 l0 33 q-51 -1 -74 10 q-24 11 -24 44 l0 280 l145 0 l0 47 l-145 0 l0 165 q-1 37 20 66 q21 28 71 29 q42 -1 60 -32 q17 -30 15 -78 l29 0 l30 117 q1 2 -26 17 q-27 14 -94 16 q-110 -4 -166 -80 q-56 -77 -56 -180 l0 -40 l-80 0 l0 -47 l80 0 l0 -282 q-1 -34 -27 -44 q-25 -9 -57 -8 l0 -33 Z" /><glyph glyph-name="" unicode="g" d="M295 15 q-34 -1 -60 -5 q-25 -5 -36 -7 q-18 33 4 78 q22 45 72 54 q86 0 136 37 q51 37 52 104 q-1 40 -20 71 q-20 30 -50 48 l93 -10 l0 49 q-56 -1 -111 0 q-56 0 -112 0 q-87 0 -143 -40 q-56 -40 -58 -118 q1 -64 39 -98 q38 -34 97 -48 q-57 -48 -114 -92 l74 -41 q-63 -18 -95 -52 q-33 -35 -33 -80 q2 -65 63 -99 q60 -34 161 -34 q103 1 183 43 q80 41 84 114 q-2 72 -66 99 q-64 28 -160 27 l0 0 ZM179 284 q-1 35 18 72 q18 38 66 41 q49 -3 67 -41 q18 -37 17 -72 q1 -36 -17 -73 q-18 -38 -67 -41 q-48 3 -66 41 q-19 37 -18 73 l0 0 ZM268 -232 q-69 3 -95 36 q-27 33 -26 67 q-1 39 29 72 q29 33 103 35 q65 -2 95 -32 q29 -31 29 -66 q2 -37 -26 -73 q-28 -36 -109 -39 l0 0 Z" /><glyph glyph-name="" unicode="&#x11f;" d="M261 482 q86 9 113 69 q27 60 25 69 l-8 0 q1 -3 -27 -27 q-29 -25 -104 -28 q-75 3 -103 28 q-28 24 -27 27 l-7 0 q-3 -9 24 -69 q27 -60 114 -69 l0 0 ZM295 15 q-34 -1 -60 -5 q-25 -5 -36 -7 q-18 33 4 78 q22 45 72 54 q86 0 136 37 q51 37 52 104 q-1 40 -20 71 q-20 30 -50 48 l93 -10 l0 49 q-56 -1 -111 0 q-56 0 -112 0 q-87 0 -143 -40 q-56 -40 -58 -118 q1 -64 39 -98 q38 -34 97 -48 q-57 -48 -114 -92 l74 -41 q-63 -18 -95 -52 q-33 -35 -33 -80 q2 -65 63 -99 q60 -34 161 -34 q103 1 183 43 q80 41 84 114 q-2 72 -66 99 q-64 28 -160 27 l0 0 ZM179 284 q-1 35 18 72 q18 38 66 41 q49 -3 67 -41 q18 -37 17 -72 q1 -36 -17 -73 q-18 -38 -67 -41 q-48 3 -66 41 q-19 37 -18 73 l0 0 ZM268 -232 q-69 3 -95 36 q-27 33 -26 67 q-1 39 29 72 q29 33 103 35 q65 -2 95 -32 q29 -31 29 -66 q2 -37 -26 -73 q-28 -36 -109 -39 l0 0 Z" /><glyph glyph-name="" unicode="&#x123;" d="M409 657 l-109 0 l-59 -178 l22 0 l146 178 ZM295 15 q-34 -1 -60 -5 q-25 -5 -36 -7 q-18 33 4 78 q22 45 72 54 q86 0 136 37 q51 37 52 104 q-1 40 -20 71 q-20 30 -50 48 l93 -10 l0 49 q-56 -1 -111 0 q-56 0 -112 0 q-87 0 -143 -40 q-56 -40 -58 -118 q1 -64 39 -98 q38 -34 97 -48 q-57 -48 -114 -92 l74 -41 q-63 -18 -95 -52 q-33 -35 -33 -80 q2 -65 63 -99 q60 -34 161 -34 q103 1 183 43 q80 41 84 114 q-2 72 -66 99 q-64 28 -160 27 l0 0 ZM179 284 q-1 35 18 72 q18 38 66 41 q49 -3 67 -41 q18 -37 17 -72 q1 -36 -17 -73 q-18 -38 -67 -41 q-48 3 -66 41 q-19 37 -18 73 l0 0 ZM268 -232 q-69 3 -95 36 q-27 33 -26 67 q-1 39 29 72 q29 33 103 35 q65 -2 95 -32 q29 -31 29 -66 q2 -37 -26 -73 q-28 -36 -109 -39 l0 0 Z" /><glyph glyph-name="" unicode="&#x121;" d="M272 487 q27 1 45 19 q17 18 18 45 q-1 25 -18 43 q-18 17 -45 18 q-28 -1 -45 -18 q-18 -18 -19 -43 q1 -27 19 -45 q17 -18 45 -19 l0 0 ZM295 15 q-34 -1 -60 -5 q-25 -5 -36 -7 q-18 33 4 78 q22 45 72 54 q86 0 136 37 q51 37 52 104 q-1 40 -20 71 q-20 30 -50 48 l93 -10 l0 49 q-56 -1 -111 0 q-56 0 -112 0 q-87 0 -143 -40 q-56 -40 -58 -118 q1 -64 39 -98 q38 -34 97 -48 q-57 -48 -114 -92 l74 -41 q-63 -18 -95 -52 q-33 -35 -33 -80 q2 -65 63 -99 q60 -34 161 -34 q103 1 183 43 q80 41 84 114 q-2 72 -66 99 q-64 28 -160 27 l0 0 ZM179 284 q-1 35 18 72 q18 38 66 41 q49 -3 67 -41 q18 -37 17 -72 q1 -36 -17 -73 q-18 -38 -67 -41 q-48 3 -66 41 q-19 37 -18 73 l0 0 ZM268 -232 q-69 3 -95 36 q-27 33 -26 67 q-1 39 29 72 q29 33 103 35 q65 -2 95 -32 q29 -31 29 -66 q2 -37 -26 -73 q-28 -36 -109 -39 l0 0 Z" /><glyph glyph-name="" unicode="h" d="M10 0 l263 0 l0 32 q-31 -1 -46 10 q-16 11 -16 44 l0 202 q6 18 39 57 q33 40 84 45 q22 0 32 -14 q9 -15 9 -42 l0 -248 q0 -36 -15 -45 q-15 -10 -46 -9 l0 -32 l262 0 l0 32 q-33 -1 -58 10 q-25 11 -26 44 l0 237 q0 53 -28 81 q-28 29 -88 29 q-59 -1 -100 -23 q-41 -23 -66 -62 l0 366 l-194 -19 l0 -30 q42 0 60 -12 q18 -13 18 -42 l0 -525 q-1 -36 -26 -45 q-25 -10 -58 -9 l0 -32 Z" /><glyph glyph-name="" unicode="&#x127;" d="M27 0 l263 0 l0 32 q-31 -1 -46 10 q-16 11 -16 44 l0 202 q6 18 39 57 q33 40 84 45 q22 0 32 -14 q9 -15 9 -42 l0 -248 q0 -36 -15 -45 q-15 -10 -46 -9 l0 -32 l262 0 l0 32 q-33 -1 -58 10 q-25 11 -26 44 l0 237 q0 53 -28 81 q-28 29 -88 29 q-59 -1 -100 -23 q-41 -23 -66 -62 l0 157 l164 0 l0 34 l-164 0 l0 175 l-194 -19 l0 -30 q42 0 60 -12 q18 -13 18 -42 l0 -72 l-82 0 l0 -34 l82 0 l0 -419 q-1 -36 -26 -45 q-25 -10 -58 -9 l0 -32 Z" /><glyph glyph-name="" unicode="i" d="M170 494 q30 1 50 21 q20 20 21 49 q-1 30 -21 51 q-20 20 -50 21 q-31 -1 -49 -21 q-19 -21 -19 -51 q0 -29 19 -49 q18 -20 49 -21 l0 0 ZM30 0 l285 0 l0 33 q-32 -1 -57 11 q-26 11 -27 44 l0 342 l-195 -16 l0 -30 q44 0 61 -12 q18 -12 17 -42 l0 -244 q-1 -34 -27 -44 q-25 -10 -57 -9 l0 -33 Z" /><glyph glyph-name="" unicode="&#x131;" d="M32 0 l285 0 l0 31 q-32 -1 -57 11 q-26 11 -27 44 l0 344 l-195 -16 l0 -30 q44 0 61 -12 q18 -12 17 -42 l0 -246 q-1 -34 -27 -44 q-25 -10 -57 -9 l0 -31 Z" /><glyph glyph-name="" unicode="í" d="M143 479 l22 0 l146 178 l-109 0 l-59 -178 ZM32 0 l285 0 l0 31 q-32 -1 -57 11 q-26 11 -27 44 l0 344 l-195 -16 l0 -30 q44 0 61 -12 q18 -12 17 -42 l0 -246 q-1 -34 -27 -44 q-25 -10 -57 -9 l0 -31 Z" /><glyph glyph-name="" unicode="&#x1d0;" d="M149 496 l62 0 l103 148 l-22 0 l-112 -80 l-113 80 l-21 0 l103 -148 ZM32 0 l285 0 l0 31 q-32 -1 -57 11 q-26 11 -27 44 l0 344 l-195 -16 l0 -30 q44 0 61 -12 q18 -12 17 -42 l0 -246 q-1 -34 -27 -44 q-25 -10 -57 -9 l0 -31 Z" /><glyph glyph-name="" unicode="î" d="M37 470 l33 0 l101 87 l101 -87 l33 0 l-103 145 l-62 0 l-103 -145 ZM32 0 l285 0 l0 31 q-32 -1 -57 11 q-26 11 -27 44 l0 344 l-195 -16 l0 -30 q44 0 61 -12 q18 -12 17 -42 l0 -246 q-1 -34 -27 -44 q-25 -10 -57 -9 l0 -31 Z" /><glyph glyph-name="" unicode="ï" d="M78 496 q25 1 42 17 q16 16 17 39 q-1 25 -17 42 q-17 16 -42 17 q-24 -1 -39 -17 q-15 -17 -15 -42 q0 -23 15 -39 q15 -16 39 -17 l0 0 ZM261 496 q25 1 42 17 q17 16 18 39 q-1 25 -18 42 q-17 16 -42 17 q-24 -1 -38 -17 q-15 -17 -15 -42 q0 -23 15 -39 q14 -16 38 -17 l0 0 ZM32 0 l285 0 l0 31 q-32 -1 -57 11 q-26 11 -27 44 l0 344 l-195 -16 l0 -30 q44 0 61 -12 q18 -12 17 -42 l0 -246 q-1 -34 -27 -44 q-25 -10 -57 -9 l0 -31 Z" /><glyph glyph-name="" unicode="&#x1ecb;" d="M170 494 q30 1 50 21 q20 20 21 49 q-1 30 -21 51 q-20 20 -50 21 q-31 -1 -49 -21 q-19 -21 -19 -51 q0 -29 19 -49 q18 -20 49 -21 l0 0 ZM30 0 l285 0 l0 33 q-32 -1 -57 11 q-26 11 -27 44 l0 342 l-195 -16 l0 -30 q44 0 61 -12 q18 -12 17 -42 l0 -244 q-1 -34 -27 -44 q-25 -10 -57 -9 l0 -33 ZM173 -179 q27 1 45 19 q17 18 18 45 q-1 25 -18 43 q-18 17 -45 18 q-28 -1 -45 -18 q-18 -18 -19 -43 q1 -27 19 -45 q17 -18 45 -19 l0 0 Z" /><glyph glyph-name="" unicode="ì" d="M168 480 l33 0 l-61 176 l-107 0 l135 -176 ZM32 0 l285 0 l0 31 q-32 -1 -57 11 q-26 11 -27 44 l0 344 l-195 -16 l0 -30 q44 0 61 -12 q18 -12 17 -42 l0 -246 q-1 -34 -27 -44 q-25 -10 -57 -9 l0 -31 Z" /><glyph glyph-name="" unicode="&#x1ec9;" d="M158 470 q18 6 54 40 q35 34 39 75 q0 29 -22 50 q-21 20 -62 21 q-53 -5 -82 -40 q-29 -36 -29 -41 l4 -5 q7 7 26 18 q19 10 43 11 q31 -2 42 -20 q12 -19 11 -36 q-1 -25 -10 -42 q-10 -16 -19 -26 l5 -5 ZM32 0 l285 0 l0 31 q-32 -1 -57 11 q-26 11 -27 44 l0 344 l-195 -16 l0 -30 q44 0 61 -12 q18 -12 17 -42 l0 -246 q-1 -34 -27 -44 q-25 -10 -57 -9 l0 -31 Z" /><glyph glyph-name="" unicode="&#x133;" d="M170 494 q30 1 50 21 q20 20 21 49 q-1 30 -21 51 q-20 20 -50 21 q-31 -1 -49 -21 q-19 -21 -19 -51 q0 -29 19 -49 q18 -20 49 -21 l0 0 ZM451 493 q30 1 50 21 q20 20 21 50 q-1 29 -21 49 q-20 20 -50 21 q-31 -1 -49 -21 q-19 -20 -19 -49 q0 -30 19 -50 q18 -20 49 -21 l0 0 ZM30 0 l285 0 l0 33 q-32 -1 -57 11 q-26 11 -27 44 l0 342 l-195 -16 l0 -30 q44 0 61 -12 q18 -12 17 -42 l0 -244 q-1 -34 -27 -44 q-25 -10 -57 -9 l0 -33 ZM390 -269 q66 1 96 26 q30 26 30 69 l0 604 l-196 -19 l0 -30 q44 0 61 -12 q18 -12 17 -42 l0 -475 q1 -37 -8 -55 q-8 -18 -36 -18 q-32 2 -58 16 q-26 13 -28 10 l-6 -22 q2 -3 39 -26 q37 -23 89 -26 l0 0 Z" /><glyph glyph-name="" unicode="&#x12b;" d="M31 523 l257 0 l0 34 l-257 0 l0 -34 ZM32 0 l285 0 l0 31 q-32 -1 -57 11 q-26 11 -27 44 l0 344 l-195 -16 l0 -30 q44 0 61 -12 q18 -12 17 -42 l0 -246 q-1 -34 -27 -44 q-25 -10 -57 -9 l0 -31 Z" /><glyph glyph-name="" unicode="&#x12f;" d="M170 494 q30 1 50 21 q20 20 21 49 q-1 30 -21 51 q-20 20 -50 21 q-31 -1 -49 -21 q-19 -21 -19 -51 q0 -29 19 -49 q18 -20 49 -21 l0 0 ZM303 -149 q-18 0 -26 12 q-7 11 -6 29 q0 20 12 49 q11 29 29 59 l3 0 l0 5 q0 1 1 1 q0 0 0 1 l-1 0 l0 26 q-32 -1 -57 11 q-26 11 -27 44 l0 342 l-195 -16 l0 -30 q44 0 61 -12 q18 -12 17 -42 l0 -244 q-1 -34 -27 -44 q-25 -10 -57 -9 l0 -33 l258 0 q-39 -30 -72 -65 q-32 -36 -34 -69 q1 -28 18 -41 q18 -14 45 -14 q45 1 74 11 q30 9 31 10 l0 22 q-1 0 -14 -1 q-14 -2 -33 -2 l0 0 Z" /><glyph glyph-name="" unicode="&#x129;" d="M219 494 q31 3 45 41 q15 38 20 70 l-12 0 q1 -2 -10 -17 q-10 -16 -40 -18 q-32 2 -61 18 q-29 16 -64 18 q-31 -3 -44 -41 q-14 -38 -21 -70 l12 0 q-1 2 10 18 q10 15 40 17 q29 -2 60 -18 q31 -16 65 -18 l0 0 ZM32 0 l285 0 l0 31 q-32 -1 -57 11 q-26 11 -27 44 l0 344 l-195 -16 l0 -30 q44 0 61 -12 q18 -12 17 -42 l0 -246 q-1 -34 -27 -44 q-25 -10 -57 -9 l0 -31 Z" /><glyph glyph-name="" unicode="j" d="M200 493 q31 1 51 21 q20 20 21 50 q-1 29 -21 49 q-20 20 -51 21 q-30 -1 -48 -21 q-19 -20 -19 -49 q0 -30 19 -50 q18 -20 48 -21 l0 0 ZM140 -269 q66 1 96 26 q30 26 30 69 l0 604 l-196 -19 l0 -30 q44 0 61 -12 q18 -12 17 -42 l0 -475 q1 -37 -8 -55 q-9 -18 -37 -18 q-32 2 -58 16 q-26 13 -27 10 l-6 -22 q2 -3 39 -26 q37 -23 89 -26 l0 0 Z" /><glyph glyph-name="" unicode="&#x237;" d="M140 -269 q66 1 96 26 q30 26 30 69 l0 604 l-196 -19 l0 -30 q44 0 61 -12 q18 -12 17 -42 l0 -475 q1 -37 -8 -55 q-9 -18 -37 -18 q-31 1 -55 12 q-23 10 -30 14 l-6 -22 q2 -3 39 -26 q37 -23 89 -26 l0 0 Z" /><glyph glyph-name="" unicode="k" d="M504 65 q-20 23 -77 93 q-58 69 -90 110 l171 113 l-108 74 l-189 -246 l0 505 l-195 -17 l0 -31 q44 0 61 -12 q18 -13 17 -42 l0 -528 q-1 -34 -27 -44 q-25 -9 -57 -8 l0 -32 l285 0 l0 32 q-33 -1 -58 10 q-25 11 -26 44 l0 100 l42 27 q24 -28 65 -73 q40 -45 61 -71 q19 -25 6 -31 q-13 -7 -40 -6 l0 -32 l243 0 l0 32 q-23 -1 -45 6 q-22 7 -39 27 l0 0 Z" /><glyph glyph-name="" unicode="&#x137;" d="M504 65 q-20 23 -77 93 q-58 69 -90 110 l171 113 l-108 74 l-189 -246 l0 505 l-195 -17 l0 -31 q44 0 61 -12 q18 -13 17 -42 l0 -528 q-1 -34 -27 -44 q-25 -9 -57 -8 l0 -32 l285 0 l0 32 q-33 -1 -58 10 q-25 11 -26 44 l0 100 l42 27 q24 -28 65 -73 q40 -45 61 -71 q19 -25 6 -31 q-13 -7 -40 -6 l0 -32 l243 0 l0 32 q-23 -1 -45 6 q-22 7 -39 27 l0 0 ZM165 -229 l10 0 l136 184 l-98 12 l-48 -196 Z" /><glyph glyph-name="" unicode="l" d="M10 0 l285 0 l0 33 q-33 -1 -58 10 q-25 11 -26 44 l0 627 l-195 -19 l0 -30 q44 0 61 -12 q18 -13 17 -42 l0 -526 q-1 -34 -27 -44 q-25 -9 -57 -8 l0 -33 Z" /><glyph glyph-name="" unicode="&#x13a;" d="M113 742 l21 0 l159 146 l-109 0 l-71 -146 ZM10 0 l285 0 l0 33 q-33 -1 -58 10 q-25 11 -26 44 l0 627 l-195 -19 l0 -30 q44 0 61 -12 q18 -13 17 -42 l0 -526 q-1 -34 -27 -44 q-25 -9 -57 -8 l0 -33 Z" /><glyph glyph-name="" unicode="&#x13e;" d="M10 0 l285 0 l0 17 q-33 -1 -58 10 q-25 11 -26 44 l0 643 l-195 -19 l0 -14 q44 0 61 -12 q18 -13 17 -42 l0 -558 q-1 -34 -26 -44 q-26 -9 -58 -8 l0 -17 ZM257 482 q8 -1 64 25 q55 25 63 91 q-8 66 -61 91 q-53 26 -61 25 l-7 -5 q18 -20 30 -49 q11 -30 11 -62 q-1 -31 -14 -61 q-13 -29 -32 -50 l7 -5 Z" /><glyph glyph-name="" unicode="&#x13c;" d="M10 0 l285 0 l0 33 q-33 -1 -58 10 q-25 11 -26 44 l0 627 l-195 -19 l0 -30 q44 0 61 -12 q18 -13 17 -42 l0 -526 q-1 -34 -27 -44 q-25 -9 -57 -8 l0 -33 ZM28 -229 l10 0 l136 184 l-98 12 l-48 -196 Z" /><glyph glyph-name="" unicode="&#x140;" d="M10 0 l285 0 l0 17 q-33 -1 -58 10 q-25 11 -26 44 l0 643 l-195 -19 l0 -14 q44 0 61 -12 q18 -13 17 -42 l0 -558 q-1 -34 -26 -44 q-26 -9 -58 -8 l0 -17 ZM324 267 q28 1 48 19 q20 18 21 46 q-1 27 -21 46 q-20 19 -48 20 q-28 -1 -46 -20 q-19 -19 -20 -46 q1 -28 20 -46 q18 -18 46 -19 l0 0 Z" /><glyph glyph-name="" unicode="&#x142;" d="M212 69 l0 340 l64 26 l0 19 l-64 -26 l0 286 l-196 -17 l0 -14 q44 0 61 -12 q18 -13 17 -42 l0 -248 l-84 -33 l0 -19 l84 33 l0 -295 q-1 -34 -26 -44 q-26 -9 -58 -8 l0 -15 l286 0 l0 15 q-33 -1 -58 10 q-25 11 -26 44 l0 0 Z" /><glyph glyph-name="" unicode="m" d="M30 0 l257 0 l0 32 q-31 -1 -43 10 q-12 11 -12 44 l0 210 q4 17 29 53 q25 37 75 41 q28 -1 35 -18 q6 -18 5 -45 l0 -241 q1 -36 -12 -45 q-12 -10 -43 -9 l0 -32 l227 0 l0 32 q-31 -1 -42 10 q-12 11 -11 44 l0 218 q6 22 31 52 q25 31 71 34 q27 -1 34 -18 q7 -18 6 -45 l0 -241 q1 -36 -12 -45 q-12 -10 -43 -9 l0 -32 l256 0 l0 32 q-33 -1 -58 10 q-25 11 -26 44 l0 224 q2 63 -25 93 q-27 30 -104 30 q-56 -3 -91 -33 q-35 -30 -42 -52 q-10 49 -43 67 q-33 19 -83 18 q-59 -3 -95 -33 q-35 -31 -41 -52 l0 85 l-195 -19 l0 -31 q42 0 61 -12 q18 -13 18 -42 l0 -243 q-1 -36 -26 -45 q-25 -10 -58 -9 l0 -32 Z" /><glyph glyph-name="" unicode="n" d="M30 0 l263 0 l0 32 q-31 -1 -46 10 q-16 11 -16 44 l0 214 q5 16 36 51 q31 35 87 39 q22 0 32 -14 q9 -15 9 -42 l0 -248 q0 -36 -15 -45 q-15 -10 -46 -9 l0 -32 l262 0 l0 32 q-33 -1 -58 10 q-25 11 -26 44 l0 237 q0 53 -28 81 q-28 29 -88 29 q-59 -1 -100 -23 q-41 -23 -66 -62 l0 84 l-194 -20 l0 -30 q42 0 60 -12 q18 -13 18 -42 l0 -242 q-1 -36 -26 -45 q-25 -10 -58 -9 l0 -32 Z" /><glyph glyph-name="" unicode="&#x144;" d="M290 479 l22 0 l146 178 l-109 0 l-59 -178 ZM30 0 l263 0 l0 32 q-31 -1 -46 10 q-16 11 -16 44 l0 214 q5 16 36 51 q31 35 87 39 q22 0 32 -14 q9 -15 9 -42 l0 -248 q0 -36 -15 -45 q-15 -10 -46 -9 l0 -32 l262 0 l0 32 q-33 -1 -58 10 q-25 11 -26 44 l0 237 q0 53 -28 81 q-28 29 -88 29 q-59 -1 -100 -23 q-41 -23 -66 -62 l0 84 l-194 -20 l0 -30 q42 0 60 -12 q18 -13 18 -42 l0 -242 q-1 -36 -26 -45 q-25 -10 -58 -9 l0 -32 Z" /><glyph glyph-name="" unicode="&#x148;" d="M295 496 l62 0 l103 148 l-22 0 l-112 -80 l-113 80 l-21 0 l103 -148 ZM30 0 l263 0 l0 32 q-31 -1 -46 10 q-16 11 -16 44 l0 214 q5 16 36 51 q31 35 87 39 q22 0 32 -14 q9 -15 9 -42 l0 -248 q0 -36 -15 -45 q-15 -10 -46 -9 l0 -32 l262 0 l0 32 q-33 -1 -58 10 q-25 11 -26 44 l0 237 q0 53 -28 81 q-28 29 -88 29 q-59 -1 -100 -23 q-41 -23 -66 -62 l0 84 l-194 -20 l0 -30 q42 0 60 -12 q18 -13 18 -42 l0 -242 q-1 -36 -26 -45 q-25 -10 -58 -9 l0 -32 Z" /><glyph glyph-name="" unicode="&#x146;" d="M30 0 l263 0 l0 32 q-31 -1 -46 10 q-16 11 -16 44 l0 214 q5 16 36 51 q31 35 87 39 q22 0 32 -14 q9 -15 9 -42 l0 -248 q0 -36 -15 -45 q-15 -10 -46 -9 l0 -32 l262 0 l0 32 q-33 -1 -58 10 q-25 11 -26 44 l0 237 q0 53 -28 81 q-28 29 -88 29 q-59 -1 -100 -23 q-41 -23 -66 -62 l0 84 l-194 -20 l0 -30 q42 0 60 -12 q18 -13 18 -42 l0 -242 q-1 -36 -26 -45 q-25 -10 -58 -9 l0 -32 ZM216 -229 l10 0 l136 184 l-98 12 l-48 -196 Z" /><glyph glyph-name="" unicode="&#x14b;" d="M436 -181 q63 1 88 36 q25 35 24 85 l0 558 q0 37 21 51 q20 14 65 13 l0 26 l-226 0 l0 -26 q42 2 70 -9 q28 -10 29 -55 l0 -303 l-264 393 l-207 0 l0 -26 q45 1 66 -13 q20 -14 20 -51 l0 -422 q0 -38 -20 -51 q-21 -13 -66 -12 l0 -13 l226 0 l0 13 q-42 -2 -70 9 q-28 11 -29 54 l0 437 l344 -515 l0 -48 q2 -41 -12 -70 q-14 -30 -63 -31 q-33 2 -67 30 q-33 27 -58 57 l-32 -96 q4 -1 55 -10 q52 -10 106 -11 l0 0 Z" /><glyph glyph-name="" unicode="ñ" d="M366 494 q31 3 45 41 q15 38 20 70 l-12 0 q1 -2 -10 -17 q-10 -16 -40 -18 q-32 2 -61 18 q-29 16 -64 18 q-31 -3 -44 -41 q-14 -38 -21 -70 l12 0 q-1 2 10 18 q10 15 40 17 q29 -2 60 -18 q31 -16 65 -18 l0 0 ZM30 0 l263 0 l0 32 q-31 -1 -46 10 q-16 11 -16 44 l0 214 q5 16 36 51 q31 35 87 39 q22 0 32 -14 q9 -15 9 -42 l0 -248 q0 -36 -15 -45 q-15 -10 -46 -9 l0 -32 l262 0 l0 32 q-33 -1 -58 10 q-25 11 -26 44 l0 237 q0 53 -28 81 q-28 29 -88 29 q-59 -1 -100 -23 q-41 -23 -66 -62 l0 84 l-194 -20 l0 -30 q42 0 60 -12 q18 -13 18 -42 l0 -242 q-1 -36 -26 -45 q-25 -10 -58 -9 l0 -32 Z" /><glyph glyph-name="" unicode="o" d="M264 -8 q111 2 173 64 q62 62 63 155 q-1 93 -63 155 q-62 62 -173 64 q-108 -2 -170 -64 q-63 -62 -64 -155 q1 -93 64 -155 q62 -62 170 -64 l0 0 ZM264 30 q-60 2 -86 55 q-27 52 -27 126 q0 74 27 126 q26 53 86 55 q62 -2 90 -55 q28 -52 27 -126 q1 -74 -27 -126 q-28 -53 -90 -55 l0 0 Z" /><glyph glyph-name="" unicode="ó" d="M232 479 l22 0 l146 178 l-109 0 l-59 -178 ZM264 -8 q111 2 173 64 q62 62 63 155 q-1 93 -63 155 q-62 62 -173 64 q-108 -2 -170 -64 q-63 -62 -64 -155 q1 -93 64 -155 q62 -62 170 -64 l0 0 ZM264 30 q-60 2 -86 55 q-27 52 -27 126 q0 74 27 126 q26 53 86 55 q62 -2 90 -55 q28 -52 27 -126 q1 -74 -27 -126 q-28 -53 -90 -55 l0 0 Z" /><glyph glyph-name="" unicode="&#x1d2;" d="M238 496 l62 0 l103 148 l-22 0 l-112 -80 l-113 80 l-21 0 l103 -148 ZM264 -8 q111 2 173 64 q62 62 63 155 q-1 93 -63 155 q-62 62 -173 64 q-108 -2 -170 -64 q-63 -62 -64 -155 q1 -93 64 -155 q62 -62 170 -64 l0 0 ZM264 30 q-60 2 -86 55 q-27 52 -27 126 q0 74 27 126 q26 53 86 55 q62 -2 90 -55 q28 -52 27 -126 q1 -74 -27 -126 q-28 -53 -90 -55 l0 0 Z" /><glyph glyph-name="" unicode="ô" d="M126 470 l33 0 l101 87 l101 -87 l33 0 l-103 145 l-62 0 l-103 -145 ZM264 -8 q111 2 173 64 q62 62 63 155 q-1 93 -63 155 q-62 62 -173 64 q-108 -2 -170 -64 q-63 -62 -64 -155 q1 -93 64 -155 q62 -62 170 -64 l0 0 ZM264 30 q-60 2 -86 55 q-27 52 -27 126 q0 74 27 126 q26 53 86 55 q62 -2 90 -55 q28 -52 27 -126 q1 -74 -27 -126 q-28 -53 -90 -55 l0 0 Z" /><glyph glyph-name="" unicode="&#x1ed9;" d="M126 470 l33 0 l101 87 l101 -87 l33 0 l-103 145 l-62 0 l-103 -145 ZM264 -8 q111 2 173 64 q62 62 63 155 q-1 93 -63 155 q-62 62 -173 64 q-108 -2 -170 -64 q-63 -62 -64 -155 q1 -93 64 -155 q62 -62 170 -64 l0 0 ZM264 30 q-60 2 -86 55 q-27 52 -27 126 q0 74 27 126 q26 53 86 55 q62 -2 90 -55 q28 -52 27 -126 q1 -74 -27 -126 q-28 -53 -90 -55 l0 0 ZM267 -179 q27 1 45 19 q17 18 18 45 q-1 25 -18 43 q-18 17 -45 18 q-28 -1 -45 -18 q-18 -18 -19 -43 q1 -27 19 -45 q17 -18 45 -19 l0 0 Z" /><glyph glyph-name="" unicode="ö" d="M167 496 q25 1 42 17 q16 16 17 39 q-1 25 -17 42 q-17 16 -42 17 q-24 -1 -39 -17 q-15 -17 -15 -42 q0 -23 15 -39 q15 -16 39 -17 l0 0 ZM350 496 q25 1 42 17 q17 16 18 39 q-1 25 -18 42 q-17 16 -42 17 q-24 -1 -38 -17 q-15 -17 -15 -42 q0 -23 15 -39 q14 -16 38 -17 l0 0 ZM264 -8 q111 2 173 64 q62 62 63 155 q-1 93 -63 155 q-62 62 -173 64 q-108 -2 -170 -64 q-63 -62 -64 -155 q1 -93 64 -155 q62 -62 170 -64 l0 0 ZM264 30 q-60 2 -86 55 q-27 52 -27 126 q0 74 27 126 q26 53 86 55 q62 -2 90 -55 q28 -52 27 -126 q1 -74 -27 -126 q-28 -53 -90 -55 l0 0 Z" /><glyph glyph-name="" unicode="ò" d="M257 480 l33 0 l-61 176 l-107 0 l135 -176 ZM264 -8 q111 2 173 64 q62 62 63 155 q-1 93 -63 155 q-62 62 -173 64 q-108 -2 -170 -64 q-63 -62 -64 -155 q1 -93 64 -155 q62 -62 170 -64 l0 0 ZM264 30 q-60 2 -86 55 q-27 52 -27 126 q0 74 27 126 q26 53 86 55 q62 -2 90 -55 q28 -52 27 -126 q1 -74 -27 -126 q-28 -53 -90 -55 l0 0 Z" /><glyph glyph-name="" unicode="&#x151;" d="M168 479 l22 0 l146 178 l-109 0 l-59 -178 ZM314 479 l21 0 l147 178 l-109 0 l-59 -178 ZM264 -8 q111 2 173 64 q62 62 63 155 q-1 93 -63 155 q-62 62 -173 64 q-108 -2 -170 -64 q-63 -62 -64 -155 q1 -93 64 -155 q62 -62 170 -64 l0 0 ZM264 30 q-60 2 -86 55 q-27 52 -27 126 q0 74 27 126 q26 53 86 55 q62 -2 90 -55 q28 -52 27 -126 q1 -74 -27 -126 q-28 -53 -90 -55 l0 0 Z" /><glyph glyph-name="" unicode="&#x14d;" d="M119 523 l257 0 l0 34 l-257 0 l0 -34 ZM264 -8 q111 2 173 64 q62 62 63 155 q-1 93 -63 155 q-62 62 -173 64 q-108 -2 -170 -64 q-63 -62 -64 -155 q1 -93 64 -155 q62 -62 170 -64 l0 0 ZM264 30 q-60 2 -86 55 q-27 52 -27 126 q0 74 27 126 q26 53 86 55 q62 -2 90 -55 q28 -52 27 -126 q1 -74 -27 -126 q-28 -53 -90 -55 l0 0 Z" /><glyph glyph-name="" unicode="ø" d="M95 -30 l31 0 q18 23 34 47 q25 -12 54 -18 q30 -7 62 -7 q111 2 173 64 q62 62 63 155 q0 56 -23 102 q-23 46 -67 76 q8 13 17 25 q9 13 17 26 l-31 0 q-6 -10 -12 -19 q-7 -9 -15 -19 q-25 13 -56 20 q-31 8 -66 8 q-108 -2 -170 -64 q-63 -62 -64 -155 q0 -57 25 -104 q25 -47 71 -76 q-11 -16 -21 -31 q-11 -14 -22 -30 l0 0 ZM180 90 q-8 26 -13 56 q-4 30 -4 65 q0 86 27 141 q26 55 86 57 q31 0 54 -14 q22 -15 35 -41 l-185 -264 ZM276 13 q-28 0 -49 14 q-21 13 -35 37 l185 264 q9 -25 13 -55 q4 -30 4 -62 q1 -86 -27 -141 q-28 -55 -91 -57 l0 0 Z" /><glyph glyph-name="" unicode="õ" d="M319 494 q31 3 45 41 q15 38 20 70 l-12 0 q1 -2 -10 -17 q-10 -16 -40 -18 q-32 2 -61 18 q-29 16 -64 18 q-31 -3 -44 -41 q-14 -38 -21 -70 l12 0 q-1 2 10 18 q10 15 40 17 q29 -2 60 -18 q31 -16 65 -18 l0 0 ZM264 -8 q111 2 173 64 q62 62 63 155 q-1 93 -63 155 q-62 62 -173 64 q-108 -2 -170 -64 q-63 -62 -64 -155 q1 -93 64 -155 q62 -62 170 -64 l0 0 ZM264 30 q-60 2 -86 55 q-27 52 -27 126 q0 74 27 126 q26 53 86 55 q62 -2 90 -55 q28 -52 27 -126 q1 -74 -27 -126 q-28 -53 -90 -55 l0 0 Z" /><glyph glyph-name="" unicode="&#x153;" d="M264 -8 q56 0 99 18 q44 17 74 48 q31 -32 75 -49 q43 -17 99 -17 q76 5 113 43 q37 38 37 43 l-7 31 q0 -4 -32 -34 q-32 -30 -97 -34 q-77 4 -101 63 q-24 59 -22 131 l262 0 l0 31 q3 49 -29 106 q-33 56 -132 61 q-52 0 -94 -18 q-42 -18 -71 -51 q-31 30 -75 48 q-43 18 -99 18 q-108 -2 -170 -64 q-63 -62 -64 -155 q1 -93 64 -155 q62 -62 170 -64 l0 0 ZM503 280 q5 42 24 78 q19 37 60 39 q58 -5 68 -48 q9 -44 7 -69 l-159 0 ZM264 30 q-60 2 -86 55 q-27 52 -27 126 q0 74 27 126 q26 53 86 55 q63 -2 91 -55 q28 -52 27 -126 q1 -74 -27 -126 q-28 -53 -91 -55 l0 0 Z" /><glyph glyph-name="" unicode="p" d="M30 -262 l314 0 l0 30 q-60 -1 -86 11 q-27 11 -27 43 l0 240 q21 -37 52 -53 q30 -17 72 -17 q118 5 165 78 q47 73 45 152 q0 83 -53 144 q-53 61 -161 64 q-36 0 -69 -14 q-32 -13 -51 -36 l0 53 q-48 -4 -97 -8 q-48 -4 -97 -8 l0 -31 q44 1 61 -10 q17 -11 16 -40 l0 -515 q-1 -34 -27 -44 q-25 -10 -57 -9 l0 -30 ZM343 30 q-39 -2 -73 38 q-34 39 -37 146 q0 98 27 139 q28 40 80 39 q62 -4 84 -57 q22 -53 21 -113 q1 -60 -21 -123 q-22 -64 -81 -69 l0 0 Z" /><glyph glyph-name="" unicode="þ" d="M-10 -262 l314 0 l0 30 q-60 -1 -86 11 q-27 11 -27 43 l0 240 q21 -37 52 -53 q30 -17 72 -17 q118 5 165 78 q47 73 45 152 q0 83 -53 144 q-53 61 -162 64 q-36 0 -68 -14 q-32 -13 -51 -36 l0 334 l-194 -16 l0 -31 q44 1 61 -10 q17 -11 16 -40 l0 -796 q-1 -34 -27 -44 q-25 -10 -57 -9 l0 -30 ZM303 30 q-39 -2 -73 38 q-34 39 -37 146 q0 98 27 139 q28 40 80 39 q62 -4 84 -57 q22 -53 21 -113 q1 -60 -21 -123 q-22 -64 -81 -69 l0 0 Z" /><glyph glyph-name="" unicode="q" d="M254 -265 l315 0 l0 33 q-33 -1 -57 9 q-25 10 -27 44 l0 624 l-5 0 q-27 -18 -55 -35 q-28 -18 -54 -36 q-21 26 -57 41 q-35 15 -72 15 q-120 -5 -167 -75 q-47 -69 -45 -147 q0 -78 52 -145 q52 -67 160 -71 q54 1 82 23 q27 21 42 55 l0 -248 q0 -32 -26 -43 q-27 -12 -86 -11 l0 -33 ZM252 30 q-58 4 -81 61 q-22 57 -21 117 q-1 59 20 119 q22 60 83 65 q51 2 81 -38 q29 -39 30 -141 q1 -69 -24 -124 q-25 -56 -88 -59 l0 0 Z" /><glyph glyph-name="" unicode="r" d="M30 0 l281 0 l0 32 q-33 -1 -58 10 q-25 11 -26 44 l0 222 l143 -1 l0 129 l-7 0 l-138 -107 l0 101 l-188 -16 l0 -31 q32 0 54 -12 q22 -13 23 -43 l0 -242 q-1 -36 -26 -45 q-25 -10 -58 -9 l0 -32 Z" /><glyph glyph-name="" unicode="&#x155;" d="M133 479 l22 0 l146 178 l-109 0 l-59 -178 ZM30 0 l281 0 l0 32 q-33 -1 -58 10 q-25 11 -26 44 l0 222 l143 -1 l0 129 l-7 0 l-138 -107 l0 101 l-188 -16 l0 -31 q32 0 54 -12 q22 -13 23 -43 l0 -242 q-1 -36 -26 -45 q-25 -10 -58 -9 l0 -32 Z" /><glyph glyph-name="" unicode="&#x159;" d="M138 496 l62 0 l103 148 l-22 0 l-112 -80 l-113 80 l-21 0 l103 -148 ZM30 0 l281 0 l0 32 q-33 -1 -58 10 q-25 11 -26 44 l0 222 l143 -1 l0 129 l-7 0 l-138 -107 l0 101 l-188 -16 l0 -31 q32 0 54 -12 q22 -13 23 -43 l0 -242 q-1 -36 -26 -45 q-25 -10 -58 -9 l0 -32 Z" /><glyph glyph-name="" unicode="&#x157;" d="M30 0 l281 0 l0 32 q-33 -1 -58 10 q-25 11 -26 44 l0 222 l143 -1 l0 129 l-7 0 l-138 -107 l0 101 l-188 -16 l0 -31 q32 0 54 -12 q22 -13 23 -43 l0 -242 q-1 -36 -26 -45 q-25 -10 -58 -9 l0 -32 ZM68 -229 l10 0 l136 184 l-98 12 l-48 -196 Z" /><glyph glyph-name="" unicode="s" d="M192 -8 q77 0 123 28 q45 29 47 91 q1 35 -16 65 q-17 31 -59 54 q-17 9 -35 19 q-18 10 -45 26 q-23 13 -37 30 q-14 17 -14 38 q0 22 15 36 q15 14 50 15 q44 0 62 -20 q19 -20 18 -55 l30 0 l20 91 q-3 1 -44 10 q-41 9 -84 10 q-77 0 -122 -29 q-45 -29 -46 -92 q0 -31 12 -57 q12 -25 42 -43 q20 -11 46 -26 q26 -15 55 -33 q24 -13 37 -30 q14 -17 14 -37 q1 -24 -17 -39 q-17 -15 -59 -15 q-51 1 -73 31 q-23 30 -23 76 l-31 0 l-18 -112 q2 -2 48 -16 q45 -15 104 -16 l0 0 Z" /><glyph glyph-name="" unicode="&#x15b;" d="M171 479 l22 0 l146 178 l-109 0 l-59 -178 ZM192 -8 q77 0 123 28 q45 29 47 91 q1 35 -16 65 q-17 31 -59 54 q-17 9 -35 19 q-18 10 -45 26 q-23 13 -37 30 q-14 17 -14 38 q0 22 15 36 q15 14 50 15 q44 0 62 -20 q19 -20 18 -55 l30 0 l20 91 q-3 1 -44 10 q-41 9 -84 10 q-77 0 -122 -29 q-45 -29 -46 -92 q0 -31 12 -57 q12 -25 42 -43 q20 -11 46 -26 q26 -15 55 -33 q24 -13 37 -30 q14 -17 14 -37 q1 -24 -17 -39 q-17 -15 -59 -15 q-51 1 -73 31 q-23 30 -23 76 l-31 0 l-18 -112 q2 -2 48 -16 q45 -15 104 -16 l0 0 Z" /><glyph glyph-name="" unicode="&#x161;" d="M176 496 l62 0 l103 148 l-22 0 l-112 -80 l-113 80 l-21 0 l103 -148 ZM192 -8 q77 0 123 28 q45 29 47 91 q1 35 -16 65 q-17 31 -59 54 q-17 9 -35 19 q-18 10 -45 26 q-23 13 -37 30 q-14 17 -14 38 q0 22 15 36 q15 14 50 15 q44 0 62 -20 q19 -20 18 -55 l30 0 l20 91 q-3 1 -44 10 q-41 9 -84 10 q-77 0 -122 -29 q-45 -29 -46 -92 q0 -31 12 -57 q12 -25 42 -43 q20 -11 46 -26 q26 -15 55 -33 q24 -13 37 -30 q14 -17 14 -37 q1 -24 -17 -39 q-17 -15 -59 -15 q-51 1 -73 31 q-23 30 -23 76 l-31 0 l-18 -112 q2 -2 48 -16 q45 -15 104 -16 l0 0 Z" /><glyph glyph-name="" unicode="&#x15f;" d="M287 230 q-17 9 -35 19 q-18 10 -45 26 q-23 13 -37 30 q-14 17 -14 38 q0 22 15 36 q15 14 50 15 q44 0 62 -20 q19 -20 18 -55 l30 0 l20 91 q-3 1 -44 10 q-41 9 -84 10 q-77 0 -122 -29 q-45 -29 -46 -92 q0 -31 12 -57 q12 -25 42 -43 q20 -11 46 -26 q26 -15 55 -33 q24 -13 37 -30 q14 -17 14 -37 q1 -24 -17 -39 q-17 -15 -59 -15 q-51 1 -73 31 q-23 30 -23 76 l-31 0 l-18 -112 q2 -2 48 -16 q45 -15 104 -16 l6 0 l-48 -77 q37 -1 57 -13 q21 -11 21 -34 q0 -22 -10 -35 q-10 -14 -27 -14 q-18 1 -31 8 q-13 6 -14 7 l0 -14 q1 -1 26 -10 q24 -10 60 -11 q36 0 56 17 q19 16 19 44 q0 31 -25 48 q-25 16 -74 18 l-8 -2 l12 69 q68 3 108 32 q40 28 42 86 q1 35 -16 65 q-17 31 -59 54 l0 0 Z" /><glyph glyph-name="" unicode="&#x219;" d="M192 -8 q77 0 123 28 q45 29 47 91 q1 35 -16 65 q-17 31 -59 54 q-17 9 -35 19 q-18 10 -45 26 q-23 13 -37 30 q-14 17 -14 38 q0 22 15 36 q15 14 50 15 q44 0 62 -20 q19 -20 18 -55 l30 0 l20 91 q-3 1 -44 10 q-41 9 -84 10 q-77 0 -122 -29 q-45 -29 -46 -92 q0 -31 12 -57 q12 -25 42 -43 q20 -11 46 -26 q26 -15 55 -33 q24 -13 37 -30 q14 -17 14 -37 q1 -24 -17 -39 q-17 -15 -59 -15 q-51 1 -73 31 q-23 30 -23 76 l-31 0 l-18 -112 q2 -2 48 -16 q45 -15 104 -16 l0 0 ZM107 -229 l10 0 l136 184 l-98 12 l-48 -196 Z" /><glyph glyph-name="" unicode="ß" d="M374 -8 q82 0 132 24 q50 24 53 88 q2 25 -16 54 q-18 30 -69 72 q-15 11 -31 24 q-16 13 -30 25 q-24 21 -37 39 q-13 19 -13 41 q0 32 12 55 q12 22 31 39 q35 29 68 57 q34 29 36 82 q-1 58 -50 90 q-48 32 -128 32 q-115 -4 -181 -67 q-66 -63 -67 -140 l0 -422 q-1 -34 -27 -44 q-25 -9 -57 -8 l0 -33 l203 0 l0 605 q3 45 43 67 q40 22 81 22 q52 -2 73 -34 q21 -32 20 -73 q-1 -34 -17 -57 q-16 -23 -40 -42 q-36 -26 -66 -59 q-31 -33 -33 -91 q0 -30 10 -55 q11 -24 37 -46 q11 -9 28 -24 q17 -14 34 -27 q38 -29 59 -52 q21 -22 21 -49 q1 -23 -17 -39 q-19 -16 -66 -17 q-50 1 -73 24 q-23 24 -23 60 l-31 0 l0 -108 q3 -1 44 -7 q41 -6 87 -6 l0 0 Z" /><glyph glyph-name="" unicode="t" d="M190 -8 q73 4 109 34 q35 29 35 33 l-9 27 q-1 -3 -24 -21 q-23 -18 -55 -21 q-15 -1 -30 13 q-14 14 -15 50 l0 260 l131 0 l0 47 l-131 0 l0 155 l-37 0 q-17 -91 -62 -129 q-46 -38 -102 -37 l0 -36 l83 0 l0 -280 q1 -54 29 -75 q28 -21 78 -20 l0 0 Z" /><glyph glyph-name="" unicode="&#x167;" d="M345 390 l0 26 l-148 0 l0 153 l-19 0 q-18 -80 -70 -122 q-53 -42 -108 -42 l0 -15 l80 0 l0 -82 l-67 0 l0 -26 l67 0 l0 -207 q1 -53 33 -69 q31 -16 74 -14 q94 5 121 41 q27 35 24 40 l-6 23 q0 -4 -19 -30 q-20 -26 -64 -30 q-15 -1 -30 9 q-15 9 -16 45 l0 192 l144 0 l0 26 l-144 0 l0 82 l148 0 Z" /><glyph glyph-name="" unicode="&#x165;" d="M227 482 q8 -1 64 25 q56 25 64 91 q-8 66 -61 91 q-54 26 -62 25 l-7 -5 q18 -20 30 -49 q11 -30 11 -62 q-1 -31 -14 -61 q-13 -29 -32 -50 l7 -5 ZM187 -8 q94 5 121 41 q27 35 24 40 l-6 23 q0 -4 -19 -30 q-20 -26 -64 -30 q-15 -1 -30 9 q-15 9 -16 45 l0 295 l148 0 l0 26 l-148 0 l0 158 l-19 0 q-18 -70 -70 -118 q-53 -49 -108 -51 l0 -15 l80 0 l0 -310 q1 -53 33 -69 q31 -16 74 -14 l0 0 Z" /><glyph glyph-name="" unicode="&#x163;" d="M334 59 l-9 27 q-1 -3 -24 -21 q-23 -18 -55 -21 q-15 -1 -30 13 q-14 14 -15 50 l0 260 l131 0 l0 47 l-131 0 l0 155 l-37 0 q-17 -91 -62 -129 q-46 -38 -102 -37 l0 -36 l83 0 l0 -280 q1 -54 29 -75 q28 -21 78 -20 l2 0 l-48 -77 q37 -1 57 -13 q21 -11 21 -34 q0 -22 -10 -35 q-10 -14 -27 -14 q-18 1 -31 8 q-13 6 -14 7 l0 -14 q1 -1 26 -10 q24 -10 60 -11 q36 0 56 17 q19 16 19 44 q0 31 -25 48 q-25 16 -74 18 l-8 -2 l12 69 q65 8 97 35 q31 27 31 31 l0 0 Z" /><glyph glyph-name="" unicode="&#x21b;" d="M190 -8 q73 4 109 34 q35 29 35 33 l-9 27 q-1 -3 -24 -21 q-23 -18 -55 -21 q-15 -1 -30 13 q-14 14 -15 50 l0 260 l131 0 l0 47 l-131 0 l0 155 l-37 0 q-17 -91 -62 -129 q-46 -38 -102 -37 l0 -36 l83 0 l0 -280 q1 -54 29 -75 q28 -21 78 -20 l0 0 ZM100 -229 l10 0 l136 184 l-98 12 l-48 -196 Z" /><glyph glyph-name="" unicode="u" d="M234 -8 q71 3 102 32 q30 29 40 53 l0 -82 l193 16 l0 32 q-39 0 -58 12 q-20 12 -20 42 l0 333 l-194 -16 l0 -31 q44 1 61 -10 q17 -11 16 -40 l0 -186 q-5 -27 -30 -66 q-25 -39 -67 -43 q-27 -1 -39 15 q-13 16 -13 57 l0 320 l-195 -16 l0 -31 q44 1 61 -10 q18 -11 17 -40 l0 -238 q1 -64 37 -84 q36 -21 89 -19 l0 0 Z" /><glyph glyph-name="" unicode="ú" d="M255 479 l22 0 l146 178 l-109 0 l-59 -178 ZM234 -8 q71 3 102 32 q30 29 40 53 l0 -82 l193 16 l0 32 q-39 0 -58 12 q-20 12 -20 42 l0 333 l-194 -16 l0 -31 q44 1 61 -10 q17 -11 16 -40 l0 -186 q-5 -27 -30 -66 q-25 -39 -67 -43 q-27 -1 -39 15 q-13 16 -13 57 l0 320 l-195 -16 l0 -31 q44 1 61 -10 q18 -11 17 -40 l0 -238 q1 -64 37 -84 q36 -21 89 -19 l0 0 Z" /><glyph glyph-name="" unicode="&#x1d4;" d="M261 496 l62 0 l103 148 l-22 0 l-112 -80 l-113 80 l-21 0 l103 -148 ZM234 -8 q71 3 102 32 q30 29 40 53 l0 -82 l193 16 l0 32 q-39 0 -58 12 q-20 12 -20 42 l0 333 l-194 -16 l0 -31 q44 1 61 -10 q17 -11 16 -40 l0 -186 q-5 -27 -30 -66 q-25 -39 -67 -43 q-27 -1 -39 15 q-13 16 -13 57 l0 320 l-195 -16 l0 -31 q44 1 61 -10 q18 -11 17 -40 l0 -238 q1 -64 37 -84 q36 -21 89 -19 l0 0 Z" /><glyph glyph-name="" unicode="û" d="M149 470 l33 0 l101 87 l101 -87 l33 0 l-103 145 l-62 0 l-103 -145 ZM234 -8 q71 3 102 32 q30 29 40 53 l0 -82 l193 16 l0 32 q-39 0 -58 12 q-20 12 -20 42 l0 333 l-194 -16 l0 -31 q44 1 61 -10 q17 -11 16 -40 l0 -186 q-5 -27 -30 -66 q-25 -39 -67 -43 q-27 -1 -39 15 q-13 16 -13 57 l0 320 l-195 -16 l0 -31 q44 1 61 -10 q18 -11 17 -40 l0 -238 q1 -64 37 -84 q36 -21 89 -19 l0 0 Z" /><glyph glyph-name="" unicode="ü" d="M190 496 q25 1 42 17 q16 16 17 39 q-1 25 -17 42 q-17 16 -42 17 q-24 -1 -39 -17 q-15 -17 -15 -42 q0 -23 15 -39 q15 -16 39 -17 l0 0 ZM373 496 q25 1 42 17 q17 16 18 39 q-1 25 -18 42 q-17 16 -42 17 q-24 -1 -38 -17 q-15 -17 -15 -42 q0 -23 15 -39 q14 -16 38 -17 l0 0 ZM234 -8 q71 3 102 32 q30 29 40 53 l0 -82 l193 16 l0 32 q-39 0 -58 12 q-20 12 -20 42 l0 333 l-194 -16 l0 -31 q44 1 61 -10 q17 -11 16 -40 l0 -186 q-5 -27 -30 -66 q-25 -39 -67 -43 q-27 -1 -39 15 q-13 16 -13 57 l0 320 l-195 -16 l0 -31 q44 1 61 -10 q18 -11 17 -40 l0 -238 q1 -64 37 -84 q36 -21 89 -19 l0 0 Z" /><glyph glyph-name="" unicode="&#x1d8;" d="M253 619 l22 0 l146 178 l-109 0 l-59 -178 ZM182 496 q25 1 42 17 q16 16 17 39 q-1 25 -17 42 q-17 16 -42 17 q-24 -1 -39 -17 q-15 -17 -15 -42 q0 -23 15 -39 q15 -16 39 -17 l0 0 ZM365 496 q25 1 42 17 q17 16 18 39 q-1 25 -18 42 q-17 16 -42 17 q-24 -1 -38 -17 q-15 -17 -15 -42 q0 -23 15 -39 q14 -16 38 -17 l0 0 ZM234 -8 q71 3 102 32 q30 29 40 53 l0 -82 l193 16 l0 32 q-39 0 -58 12 q-20 12 -20 42 l0 333 l-194 -16 l0 -31 q44 1 61 -10 q17 -11 16 -40 l0 -186 q-5 -27 -30 -66 q-25 -39 -67 -43 q-27 -1 -39 15 q-13 16 -13 57 l0 320 l-195 -16 l0 -31 q44 1 61 -10 q18 -11 17 -40 l0 -238 q1 -64 37 -84 q36 -21 89 -19 l0 0 Z" /><glyph glyph-name="" unicode="&#x1da;" d="M248 628 l62 0 l103 148 l-22 0 l-112 -80 l-113 80 l-21 0 l103 -148 ZM182 496 q25 1 42 17 q16 16 17 39 q-1 25 -17 42 q-17 16 -42 17 q-24 -1 -39 -17 q-15 -17 -15 -42 q0 -23 15 -39 q15 -16 39 -17 l0 0 ZM365 496 q25 1 42 17 q17 16 18 39 q-1 25 -18 42 q-17 16 -42 17 q-24 -1 -38 -17 q-15 -17 -15 -42 q0 -23 15 -39 q14 -16 38 -17 l0 0 ZM234 -8 q71 3 102 32 q30 29 40 53 l0 -82 l193 16 l0 32 q-39 0 -58 12 q-20 12 -20 42 l0 333 l-194 -16 l0 -31 q44 1 61 -10 q17 -11 16 -40 l0 -186 q-5 -27 -30 -66 q-25 -39 -67 -43 q-27 -1 -39 15 q-13 16 -13 57 l0 320 l-195 -16 l0 -31 q44 1 61 -10 q18 -11 17 -40 l0 -238 q1 -64 37 -84 q36 -21 89 -19 l0 0 Z" /><glyph glyph-name="" unicode="&#x1dc;" d="M278 611 l33 0 l-61 176 l-107 0 l135 -176 ZM182 496 q25 1 42 17 q16 16 17 39 q-1 25 -17 42 q-17 16 -42 17 q-24 -1 -39 -17 q-15 -17 -15 -42 q0 -23 15 -39 q15 -16 39 -17 l0 0 ZM365 496 q25 1 42 17 q17 16 18 39 q-1 25 -18 42 q-17 16 -42 17 q-24 -1 -38 -17 q-15 -17 -15 -42 q0 -23 15 -39 q14 -16 38 -17 l0 0 ZM234 -8 q71 3 102 32 q30 29 40 53 l0 -82 l193 16 l0 32 q-39 0 -58 12 q-20 12 -20 42 l0 333 l-194 -16 l0 -31 q44 1 61 -10 q17 -11 16 -40 l0 -186 q-5 -27 -30 -66 q-25 -39 -67 -43 q-27 -1 -39 15 q-13 16 -13 57 l0 320 l-195 -16 l0 -31 q44 1 61 -10 q18 -11 17 -40 l0 -238 q1 -64 37 -84 q36 -21 89 -19 l0 0 Z" /><glyph glyph-name="" unicode="&#x1d6;" d="M144 658 l257 0 l0 34 l-257 0 l0 -34 ZM182 496 q25 1 42 17 q16 16 17 39 q-1 25 -17 42 q-17 16 -42 17 q-24 -1 -39 -17 q-15 -17 -15 -42 q0 -23 15 -39 q15 -16 39 -17 l0 0 ZM365 496 q25 1 42 17 q17 16 18 39 q-1 25 -18 42 q-17 16 -42 17 q-24 -1 -38 -17 q-15 -17 -15 -42 q0 -23 15 -39 q14 -16 38 -17 l0 0 ZM234 -8 q71 3 102 32 q30 29 40 53 l0 -82 l193 16 l0 32 q-39 0 -58 12 q-20 12 -20 42 l0 333 l-194 -16 l0 -31 q44 1 61 -10 q17 -11 16 -40 l0 -186 q-5 -27 -30 -66 q-25 -39 -67 -43 q-27 -1 -39 15 q-13 16 -13 57 l0 320 l-195 -16 l0 -31 q44 1 61 -10 q18 -11 17 -40 l0 -238 q1 -64 37 -84 q36 -21 89 -19 l0 0 Z" /><glyph glyph-name="" unicode="&#x1ee5;" d="M234 -8 q71 3 102 32 q30 29 40 53 l0 -82 l193 16 l0 32 q-39 0 -58 12 q-20 12 -20 42 l0 333 l-194 -16 l0 -31 q44 1 61 -10 q17 -11 16 -40 l0 -186 q-5 -27 -30 -66 q-25 -39 -67 -43 q-27 -1 -39 15 q-13 16 -13 57 l0 320 l-195 -16 l0 -31 q44 1 61 -10 q18 -11 17 -40 l0 -238 q1 -64 37 -84 q36 -21 89 -19 l0 0 ZM300 -179 q27 1 45 19 q17 18 18 45 q-1 25 -18 43 q-18 17 -45 18 q-28 -1 -45 -18 q-18 -18 -19 -43 q1 -27 19 -45 q17 -18 45 -19 l0 0 Z" /><glyph glyph-name="" unicode="ù" d="M280 480 l33 0 l-61 176 l-107 0 l135 -176 ZM234 -8 q71 3 102 32 q30 29 40 53 l0 -82 l193 16 l0 32 q-39 0 -58 12 q-20 12 -20 42 l0 333 l-194 -16 l0 -31 q44 1 61 -10 q17 -11 16 -40 l0 -186 q-5 -27 -30 -66 q-25 -39 -67 -43 q-27 -1 -39 15 q-13 16 -13 57 l0 320 l-195 -16 l0 -31 q44 1 61 -10 q18 -11 17 -40 l0 -238 q1 -64 37 -84 q36 -21 89 -19 l0 0 Z" /><glyph glyph-name="" unicode="&#x1ee7;" d="M270 470 q18 6 54 40 q35 34 39 75 q0 29 -22 50 q-21 20 -62 21 q-53 -5 -82 -40 q-29 -36 -29 -41 l4 -5 q7 7 26 18 q19 10 43 11 q31 -2 42 -20 q12 -19 11 -36 q-1 -25 -10 -42 q-10 -16 -19 -26 l5 -5 ZM234 -8 q71 3 102 32 q30 29 40 53 l0 -82 l193 16 l0 32 q-39 0 -58 12 q-20 12 -20 42 l0 333 l-194 -16 l0 -31 q44 1 61 -10 q17 -11 16 -40 l0 -186 q-5 -27 -30 -66 q-25 -39 -67 -43 q-27 -1 -39 15 q-13 16 -13 57 l0 320 l-195 -16 l0 -31 q44 1 61 -10 q18 -11 17 -40 l0 -238 q1 -64 37 -84 q36 -21 89 -19 l0 0 Z" /><glyph glyph-name="" unicode="&#x171;" d="M191 479 l22 0 l146 178 l-109 0 l-59 -178 ZM337 479 l21 0 l147 178 l-109 0 l-59 -178 ZM234 -8 q71 3 102 32 q30 29 40 53 l0 -82 l193 16 l0 32 q-39 0 -58 12 q-20 12 -20 42 l0 333 l-194 -16 l0 -31 q44 1 61 -10 q17 -11 16 -40 l0 -186 q-5 -27 -30 -66 q-25 -39 -67 -43 q-27 -1 -39 15 q-13 16 -13 57 l0 320 l-195 -16 l0 -31 q44 1 61 -10 q18 -11 17 -40 l0 -238 q1 -64 37 -84 q36 -21 89 -19 l0 0 Z" /><glyph glyph-name="" unicode="&#x16b;" d="M142 523 l257 0 l0 34 l-257 0 l0 -34 ZM234 -8 q71 3 102 32 q30 29 40 53 l0 -82 l193 16 l0 32 q-39 0 -58 12 q-20 12 -20 42 l0 333 l-194 -16 l0 -31 q44 1 61 -10 q17 -11 16 -40 l0 -186 q-5 -27 -30 -66 q-25 -39 -67 -43 q-27 -1 -39 15 q-13 16 -13 57 l0 320 l-195 -16 l0 -31 q44 1 61 -10 q18 -11 17 -40 l0 -238 q1 -64 37 -84 q36 -21 89 -19 l0 0 Z" /><glyph glyph-name="" unicode="&#x173;" d="M557 -138 q-18 0 -26 12 q-7 11 -6 29 q0 20 11 49 q11 29 29 59 l4 0 l0 5 q0 1 1 1 q0 0 0 1 l-1 0 l0 25 q-39 0 -58 12 q-20 12 -20 42 l0 333 l-194 -16 l0 -31 q44 1 61 -10 q17 -11 16 -40 l0 -186 q-5 -27 -30 -66 q-25 -39 -67 -43 q-27 -1 -39 15 q-13 16 -13 57 l0 320 l-195 -16 l0 -31 q44 1 61 -10 q18 -11 17 -40 l0 -238 q1 -64 37 -84 q36 -21 89 -19 q71 3 102 32 q30 29 40 53 l0 -82 l163 13 q-39 -29 -70 -64 q-31 -35 -33 -67 q1 -28 18 -41 q18 -14 45 -14 q45 1 74 11 q30 9 31 10 l0 22 q-1 0 -14 -1 q-14 -2 -33 -2 l0 0 Z" /><glyph glyph-name="" unicode="&#x16f;" d="M275 482 q42 1 70 22 q28 21 29 50 q-1 32 -29 54 q-28 22 -70 23 q-42 -1 -70 -23 q-27 -22 -28 -54 q1 -29 28 -50 q28 -21 70 -22 l0 0 ZM275 521 q-15 0 -25 10 q-10 10 -10 24 q0 14 10 24 q10 10 25 10 q15 0 26 -10 q10 -10 10 -24 q0 -14 -10 -24 q-11 -10 -26 -10 l0 0 ZM234 -8 q71 3 102 32 q30 29 40 53 l0 -82 l193 16 l0 32 q-39 0 -58 12 q-20 12 -20 42 l0 333 l-194 -16 l0 -31 q44 1 61 -10 q17 -11 16 -40 l0 -186 q-5 -27 -30 -66 q-25 -39 -67 -43 q-27 -1 -39 15 q-13 16 -13 57 l0 320 l-195 -16 l0 -31 q44 1 61 -10 q18 -11 17 -40 l0 -238 q1 -64 37 -84 q36 -21 89 -19 l0 0 Z" /><glyph glyph-name="" unicode="&#x169;" d="M331 494 q31 3 45 41 q15 38 20 70 l-12 0 q1 -2 -10 -17 q-10 -16 -40 -18 q-32 2 -61 18 q-29 16 -64 18 q-31 -3 -44 -41 q-14 -38 -21 -70 l12 0 q-1 2 10 18 q10 15 40 17 q29 -2 60 -18 q31 -16 65 -18 l0 0 ZM234 -8 q71 3 102 32 q30 29 40 53 l0 -82 l193 16 l0 32 q-39 0 -58 12 q-20 12 -20 42 l0 333 l-194 -16 l0 -31 q44 1 61 -10 q17 -11 16 -40 l0 -186 q-5 -27 -30 -66 q-25 -39 -67 -43 q-27 -1 -39 15 q-13 16 -13 57 l0 320 l-195 -16 l0 -31 q44 1 61 -10 q18 -11 17 -40 l0 -238 q1 -64 37 -84 q36 -21 89 -19 l0 0 Z" /><glyph glyph-name="" unicode="v" d="M214 1 l61 0 q6 17 56 150 q50 133 68 183 q11 29 33 40 q21 11 53 10 l0 30 l-175 0 l0 -30 q50 0 59 -11 q9 -12 -2 -40 l-80 -216 q-5 9 -43 90 q-38 80 -55 124 q-12 30 1 42 q13 11 64 11 l0 30 l-274 0 l0 -30 q31 0 52 -11 q20 -12 33 -39 l149 -333 Z" /><glyph glyph-name="" unicode="w" d="M512 414 l0 -30 q50 0 59 -11 q10 -12 -1 -40 q-10 -29 -33 -89 q-23 -61 -44 -114 l-97 246 q17 4 30 6 q14 2 27 2 l0 30 l-173 0 l0 -30 q49 0 57 -9 q7 -9 0 -25 q-12 -37 -40 -122 q-28 -86 -31 -96 q-3 7 -30 79 q-27 72 -45 120 q-12 31 1 42 q13 12 64 11 l0 30 l-276 0 l0 -30 q32 0 53 -11 q22 -12 33 -39 l132 -334 l62 0 l74 236 l88 -236 l53 0 l133 334 q12 29 34 40 q21 11 52 10 l0 30 l-182 0 Z" /><glyph glyph-name="" unicode="&#x1e83;" d="M492 657 l-109 0 l-59 -178 l22 0 l146 178 ZM512 414 l0 -30 q50 0 59 -11 q10 -12 -1 -40 q-10 -29 -33 -89 q-23 -61 -44 -114 l-97 246 q17 4 30 6 q14 2 27 2 l0 30 l-173 0 l0 -30 q49 0 57 -9 q7 -9 0 -25 q-12 -37 -40 -122 q-28 -86 -31 -96 q-3 7 -30 79 q-27 72 -45 120 q-12 31 1 42 q13 12 64 11 l0 30 l-276 0 l0 -30 q32 0 53 -11 q22 -12 33 -39 l132 -334 l62 0 l74 236 l88 -236 l53 0 l133 334 q12 29 34 40 q21 11 52 10 l0 30 l-182 0 Z" /><glyph glyph-name="" unicode="&#x175;" d="M352 557 l101 -87 l33 0 l-103 145 l-62 0 l-103 -145 l33 0 l101 87 ZM512 414 l0 -30 q50 0 59 -11 q10 -12 -1 -40 q-10 -29 -33 -89 q-23 -61 -44 -114 l-97 246 q17 4 30 6 q14 2 27 2 l0 30 l-173 0 l0 -30 q49 0 57 -9 q7 -9 0 -25 q-12 -37 -40 -122 q-28 -86 -31 -96 q-3 7 -30 79 q-27 72 -45 120 q-12 31 1 42 q13 12 64 11 l0 30 l-276 0 l0 -30 q32 0 53 -11 q22 -12 33 -39 l132 -334 l62 0 l74 236 l88 -236 l53 0 l133 334 q12 29 34 40 q21 11 52 10 l0 30 l-182 0 Z" /><glyph glyph-name="" unicode="&#x1e85;" d="M260 496 q25 1 42 17 q16 16 17 39 q-1 25 -17 42 q-17 16 -42 17 q-24 -1 -39 -17 q-15 -17 -15 -42 q0 -23 15 -39 q15 -16 39 -17 l0 0 ZM443 496 q25 1 42 17 q17 16 18 39 q-1 25 -18 42 q-17 16 -42 17 q-24 -1 -38 -17 q-15 -17 -15 -42 q0 -23 15 -39 q14 -16 38 -17 l0 0 ZM512 414 l0 -30 q50 0 59 -11 q10 -12 -1 -40 q-10 -29 -33 -89 q-23 -61 -44 -114 l-97 246 q17 4 30 6 q14 2 27 2 l0 30 l-173 0 l0 -30 q49 0 57 -9 q7 -9 0 -25 q-12 -37 -40 -122 q-28 -86 -31 -96 q-3 7 -30 79 q-27 72 -45 120 q-12 31 1 42 q13 12 64 11 l0 30 l-276 0 l0 -30 q32 0 53 -11 q22 -12 33 -39 l132 -334 l62 0 l74 236 l88 -236 l53 0 l133 334 q12 29 34 40 q21 11 52 10 l0 30 l-182 0 Z" /><glyph glyph-name="" unicode="&#x1e81;" d="M382 480 l-61 176 l-107 0 l135 -176 l33 0 ZM512 414 l0 -30 q50 0 59 -11 q10 -12 -1 -40 q-10 -29 -33 -89 q-23 -61 -44 -114 l-97 246 q17 4 30 6 q14 2 27 2 l0 30 l-173 0 l0 -30 q49 0 57 -9 q7 -9 0 -25 q-12 -37 -40 -122 q-28 -86 -31 -96 q-3 7 -30 79 q-27 72 -45 120 q-12 31 1 42 q13 12 64 11 l0 30 l-276 0 l0 -30 q32 0 53 -11 q22 -12 33 -39 l132 -334 l62 0 l74 236 l88 -236 l53 0 l133 334 q12 29 34 40 q21 11 52 10 l0 30 l-182 0 Z" /><glyph glyph-name="" unicode="x" d="M0 1 l180 0 l0 31 q-44 1 -55 15 q-11 15 4 36 l61 80 q26 -38 35 -52 q9 -14 18 -27 q19 -28 14 -40 q-5 -12 -40 -12 l0 -31 l238 0 l0 31 q-31 0 -49 12 q-19 12 -35 37 l-108 170 l59 81 q17 24 33 38 q16 14 46 14 l0 30 l-143 0 l0 -30 q33 0 37 -14 q3 -13 -17 -41 l-35 -46 l-26 46 q-16 24 -17 39 q-2 15 29 16 l0 30 l-222 0 l0 -30 q31 0 48 -14 q17 -13 32 -38 l86 -142 l-84 -109 q-20 -25 -40 -37 q-19 -12 -49 -12 l0 -31 Z" /><glyph glyph-name="" unicode="y" d="M50 -206 l121 -61 l211 601 q10 29 34 40 q23 11 55 10 l0 30 l-180 0 l0 -30 q50 0 59 -12 q8 -12 -2 -39 l-67 -191 l-98 189 q-14 28 -4 41 q11 12 61 12 l0 30 l-260 0 l1 -36 q36 0 51 -13 q15 -12 23 -31 l186 -335 l-191 -205 Z" /><glyph glyph-name="" unicode="ý" d="M229 479 l22 0 l146 178 l-109 0 l-59 -178 ZM50 -206 l121 -61 l211 601 q10 29 34 40 q23 11 55 10 l0 30 l-180 0 l0 -30 q50 0 59 -12 q8 -12 -2 -39 l-67 -191 l-98 189 q-14 28 -4 41 q11 12 61 12 l0 30 l-260 0 l1 -36 q36 0 51 -13 q15 -12 23 -31 l186 -335 l-191 -205 Z" /><glyph glyph-name="" unicode="&#x177;" d="M123 470 l33 0 l101 87 l101 -87 l33 0 l-103 145 l-62 0 l-103 -145 ZM50 -206 l121 -61 l211 601 q10 29 34 40 q23 11 55 10 l0 30 l-180 0 l0 -30 q50 0 59 -12 q8 -12 -2 -39 l-67 -191 l-98 189 q-14 28 -4 41 q11 12 61 12 l0 30 l-260 0 l1 -36 q36 0 51 -13 q15 -12 23 -31 l186 -335 l-191 -205 Z" /><glyph glyph-name="" unicode="ÿ" d="M165 496 q25 1 42 17 q16 16 17 39 q-1 25 -17 42 q-17 16 -42 17 q-24 -1 -39 -17 q-15 -17 -15 -42 q0 -23 15 -39 q15 -16 39 -17 l0 0 ZM348 496 q25 1 42 17 q17 16 18 39 q-1 25 -18 42 q-17 16 -42 17 q-24 -1 -38 -17 q-15 -17 -15 -42 q0 -23 15 -39 q14 -16 38 -17 l0 0 ZM50 -206 l121 -61 l211 601 q10 29 34 40 q23 11 55 10 l0 30 l-180 0 l0 -30 q50 0 59 -12 q8 -12 -2 -39 l-67 -191 l-98 189 q-14 28 -4 41 q11 12 61 12 l0 30 l-260 0 l1 -36 q36 0 51 -13 q15 -12 23 -31 l186 -335 l-191 -205 Z" /><glyph glyph-name="" unicode="&#x1ef5;" d="M50 -206 l121 -61 l211 601 q10 29 34 40 q23 11 55 10 l0 30 l-180 0 l0 -30 q50 0 59 -12 q8 -12 -2 -39 l-67 -191 l-98 189 q-14 28 -4 41 q11 12 61 12 l0 30 l-260 0 l1 -36 q36 0 51 -13 q15 -12 23 -31 l186 -335 l-191 -205 ZM221 -429 q27 1 45 19 q17 18 18 45 q-1 25 -18 43 q-18 17 -45 18 q-28 -1 -45 -18 q-18 -18 -19 -43 q1 -27 19 -45 q17 -18 45 -19 l0 0 Z" /><glyph glyph-name="" unicode="&#x1ef3;" d="M254 480 l33 0 l-61 176 l-107 0 l135 -176 ZM50 -206 l121 -61 l211 601 q10 29 34 40 q23 11 55 10 l0 30 l-180 0 l0 -30 q50 0 59 -12 q8 -12 -2 -39 l-67 -191 l-98 189 q-14 28 -4 41 q11 12 61 12 l0 30 l-260 0 l1 -36 q36 0 51 -13 q15 -12 23 -31 l186 -335 l-191 -205 Z" /><glyph glyph-name="" unicode="&#x1ef7;" d="M244 470 q18 6 54 40 q35 34 39 75 q0 29 -22 50 q-21 20 -62 21 q-53 -5 -82 -40 q-29 -36 -29 -41 l4 -5 q7 7 26 18 q19 10 43 11 q31 -2 42 -20 q12 -19 11 -36 q-1 -25 -10 -42 q-10 -16 -19 -26 l5 -5 ZM50 -206 l121 -61 l211 601 q10 29 34 40 q23 11 55 10 l0 30 l-180 0 l0 -30 q50 0 59 -12 q8 -12 -2 -39 l-67 -191 l-98 189 q-14 28 -4 41 q11 12 61 12 l0 30 l-260 0 l1 -36 q36 0 51 -13 q15 -12 23 -31 l186 -335 l-191 -205 Z" /><glyph glyph-name="" unicode="&#x1ef9;" d="M305 494 q31 3 45 41 q15 38 20 70 l-12 0 q1 -2 -10 -17 q-10 -16 -40 -18 q-32 2 -61 18 q-29 16 -64 18 q-31 -3 -44 -41 q-14 -38 -21 -70 l12 0 q-1 2 10 18 q10 15 40 17 q29 -2 60 -18 q31 -16 65 -18 l0 0 ZM50 -206 l121 -61 l211 601 q10 29 34 40 q23 11 55 10 l0 30 l-180 0 l0 -30 q50 0 59 -12 q8 -12 -2 -39 l-67 -191 l-98 189 q-14 28 -4 41 q11 12 61 12 l0 30 l-260 0 l1 -36 q36 0 51 -13 q15 -12 23 -31 l186 -335 l-191 -205 Z" /><glyph glyph-name="" unicode="z" d="M30 0 l336 0 l-4 137 l-13 0 q-11 -54 -32 -75 q-21 -20 -74 -19 l-70 0 l209 370 l-323 0 l3 -121 l14 0 q8 42 26 60 q17 17 68 17 q24 0 48 1 q25 0 27 0 l-215 -370 Z" /><glyph glyph-name="" unicode="&#x17a;" d="M191 475 l22 0 l146 178 l-109 0 l-59 -178 ZM30 0 l336 0 l-4 137 l-13 0 q-11 -54 -32 -75 q-21 -20 -74 -19 l-70 0 l209 370 l-323 0 l3 -121 l14 0 q8 42 26 60 q17 17 68 17 q24 0 48 1 q25 0 27 0 l-215 -370 Z" /><glyph glyph-name="" unicode="&#x17e;" d="M197 492 l62 0 l103 148 l-22 0 l-112 -80 l-113 80 l-21 0 l103 -148 ZM30 0 l336 0 l-4 137 l-13 0 q-11 -54 -32 -75 q-21 -20 -74 -19 l-70 0 l209 370 l-323 0 l3 -121 l14 0 q8 42 26 60 q17 17 68 17 q24 0 48 1 q25 0 27 0 l-215 -370 Z" /><glyph glyph-name="" unicode="&#x17c;" d="M222 483 q27 1 45 19 q17 18 18 45 q-1 25 -18 43 q-18 17 -45 18 q-28 -1 -45 -18 q-18 -18 -19 -43 q1 -27 19 -45 q17 -18 45 -19 l0 0 ZM30 0 l336 0 l-4 137 l-13 0 q-11 -54 -32 -75 q-21 -20 -74 -19 l-70 0 l209 370 l-323 0 l3 -121 l14 0 q8 42 26 60 q17 17 68 17 q24 0 48 1 q25 0 27 0 l-215 -370 Z" /><glyph glyph-name="" unicode="&#xfb01;" d="M552 86 l0 344 l-6 -1 l96 145 q2 9 -57 70 q-60 61 -204 70 q-133 -4 -200 -80 q-67 -77 -67 -180 l0 -40 l-80 0 l0 -47 l80 0 l0 -282 q-1 -34 -27 -44 q-25 -9 -57 -8 l0 -33 l299 0 l0 33 q-51 -1 -74 10 q-24 11 -24 44 l0 280 l193 0 q6 -6 9 -15 q2 -10 2 -22 l0 -246 q-2 -34 -27 -44 q-25 -10 -57 -9 l0 -31 l285 0 l0 31 q-32 -1 -57 11 q-26 11 -27 44 l0 0 ZM231 414 l0 127 q-1 50 32 91 q34 40 118 42 q110 -3 142 -75 q32 -73 -8 -172 l-164 -13 l-120 0 Z" /><glyph glyph-name="" unicode="&#xfb02;" d="M548 88 l0 575 q-3 3 -57 26 q-55 22 -126 25 q-126 -4 -188 -80 q-63 -77 -63 -180 l0 -40 l-80 0 l0 -47 l80 0 l0 -282 q-1 -34 -27 -44 q-25 -9 -57 -8 l0 -33 l299 0 l0 33 q-51 -1 -74 10 q-24 11 -24 44 l0 280 l145 0 l0 47 l-145 0 l0 149 q0 49 27 80 q26 30 77 31 q55 -1 74 -28 q20 -26 20 -64 l0 -496 q-1 -34 -27 -44 q-25 -9 -57 -8 l0 -34 l287 0 l0 34 q-33 -1 -58 10 q-25 11 -26 44 l0 0 Z" /><glyph glyph-name="" unicode="ª" d="M137 371 q29 0 54 14 q25 14 33 47 l0 -57 l140 0 l0 11 q-24 -1 -38 9 q-14 11 -14 48 l0 170 q-3 46 -40 67 q-38 20 -80 20 q-51 -2 -91 -12 q-41 -11 -43 -13 l29 -95 l22 0 q-3 27 8 56 q11 30 49 32 q32 0 44 -21 q11 -22 10 -61 l0 -39 q-85 0 -128 -27 q-43 -27 -43 -78 q0 -38 22 -55 q22 -16 66 -16 l0 0 ZM177 414 q-18 0 -29 13 q-11 12 -11 33 q1 31 23 46 q23 14 61 15 l0 -50 q-1 -21 -11 -39 q-11 -17 -33 -18 l0 0 Z" /><glyph glyph-name="" unicode="º" d="M196 369 q80 2 123 49 q43 46 43 114 q0 71 -43 117 q-43 46 -123 48 q-81 -2 -123 -48 q-43 -46 -43 -117 q0 -68 43 -114 q42 -47 123 -49 l0 0 ZM196 389 q-38 1 -57 40 q-19 39 -19 103 q0 65 19 104 q19 40 57 41 q38 -1 58 -41 q20 -39 20 -104 q0 -64 -20 -103 q-20 -39 -58 -40 l0 0 Z" /><glyph glyph-name="" unicode="&#x394;" d="M43 0 l677 0 l-277 700 l-123 0 l-277 -700 ZM201 56 l181 486 l180 -486 l-361 0 Z" /><glyph glyph-name="" unicode="&#x3a9;" d="M80 0 l300 0 l0 34 q-52 16 -113 89 q-62 72 -67 237 q0 128 63 217 q63 88 193 92 q129 -4 192 -92 q62 -89 62 -217 q-5 -165 -66 -237 q-60 -72 -112 -89 l0 -34 l299 0 l0 34 l-236 0 q91 35 169 110 q77 75 82 216 q-5 159 -119 253 q-114 95 -271 97 q-157 -2 -271 -97 q-114 -94 -120 -253 q5 -141 83 -216 q78 -75 169 -110 l-237 0 l0 -34 Z" /><glyph glyph-name="" unicode="&#x3bc;" d="M100 -256 l111 0 l0 273 q19 -21 49 -23 q29 -3 29 -2 q46 3 60 36 q14 33 19 57 l0 -90 l193 16 l0 32 q-39 0 -58 12 q-20 12 -20 42 l0 333 l-194 -16 l0 -31 q44 1 61 -10 q17 -11 16 -40 l0 -190 q-1 -21 -13 -62 q-12 -41 -64 -46 q-44 2 -58 35 q-14 32 -14 76 l0 284 l-195 -16 l0 -31 q44 1 61 -10 q18 -11 17 -40 l0 -589 Z" /><glyph glyph-name="" unicode="&#x3c0;" d="M577 -15 l0 8 q-1 0 -9 13 q-9 12 -25 42 q-21 45 -28 145 q-6 100 4 180 l87 0 l0 41 l-563 0 l0 -41 l85 0 q12 -90 6 -190 q-5 -99 -23 -182 l121 0 q16 84 20 183 q5 100 -7 189 l155 0 q-11 -73 -6 -170 q4 -97 28 -147 q25 -43 67 -58 q41 -14 88 -13 l0 0 Z" /><glyph glyph-name="" unicode="0" d="M309 -10 q115 1 185 92 q71 92 73 268 q-2 176 -73 268 q-70 92 -185 93 q-115 -1 -187 -93 q-72 -92 -74 -268 q2 -176 74 -268 q72 -91 187 -92 l0 0 ZM309 25 q-83 7 -106 109 q-23 103 -20 216 q-3 114 20 217 q23 102 106 109 q82 -7 105 -109 q24 -103 21 -217 q3 -113 -21 -216 q-23 -102 -105 -109 l0 0 Z" /><glyph glyph-name="" unicode="1" d="M52 0 l434 0 l0 32 q-59 -2 -100 10 q-42 13 -44 67 l0 603 l-277 -121 l0 -30 l153 50 l0 -502 q-2 -52 -51 -65 q-49 -14 -115 -12 l0 -32 Z" /><glyph glyph-name="" unicode="2" d="M48 -1 l475 0 l0 1 l1 -1 l0 196 l-30 0 q-15 -52 -36 -68 q-21 -16 -54 -14 l-223 0 q176 154 245 256 q69 101 66 192 q1 79 -42 114 q-43 35 -147 36 q-74 -1 -141 -14 q-66 -14 -71 -16 l0 -178 l32 0 q11 85 46 126 q35 40 86 40 q67 -2 93 -36 q25 -34 24 -77 q9 -67 -46 -195 q-56 -128 -278 -347 l0 -15 Z" /><glyph glyph-name="" unicode="3" d="M221 -3 q125 3 202 64 q77 62 79 147 q-2 103 -63 155 q-61 52 -159 58 q33 10 96 47 q64 36 71 107 q-2 73 -58 105 q-57 32 -147 31 q-73 -2 -118 -18 q-45 -17 -46 -19 l0 -156 l31 0 q4 95 37 124 q33 30 80 27 q41 0 67 -22 q25 -23 26 -70 q4 -57 -29 -107 q-33 -49 -155 -72 l6 -48 q1 2 30 13 q28 12 68 14 q80 -2 107 -53 q27 -50 25 -121 q1 -71 -32 -117 q-34 -47 -116 -49 q-62 0 -97 34 q-34 34 -35 104 l-33 0 l0 -149 q3 -2 51 -14 q49 -13 112 -15 l0 0 Z" /><glyph glyph-name="" unicode="4" d="M194 0 l373 0 l0 32 q-49 -2 -82 10 q-33 13 -34 67 l0 80 l103 0 l0 40 l-103 0 l0 250 l-126 0 l0 -250 l-227 0 l361 507 l-149 0 l-262 -524 l0 -23 l277 0 l0 -80 q-2 -52 -41 -65 q-40 -14 -90 -12 l0 -32 Z" /><glyph glyph-name="" unicode="5" d="M121 434 l61 170 l105 0 q33 2 54 -14 q21 -15 35 -67 l32 0 l0 177 l-268 0 l-53 -298 q128 5 195 -37 q67 -41 67 -139 q-4 -117 -51 -155 q-47 -38 -89 -35 q-62 -2 -96 28 q-34 29 -34 117 l-31 0 l0 -161 q2 -1 49 -11 q47 -11 111 -12 q124 3 197 65 q72 61 74 146 q-3 130 -101 185 q-98 54 -257 41 l0 0 Z" /><glyph glyph-name="" unicode="6" d="M309 -10 q107 1 177 54 q70 52 72 143 q-1 64 -49 118 q-49 55 -140 58 q-62 -2 -99 -20 q-36 -19 -48 -31 l0 -34 q17 13 42 22 q25 9 58 9 q48 -1 76 -37 q27 -36 27 -95 q0 -61 -28 -105 q-28 -45 -88 -47 q-75 0 -100 57 q-25 58 -23 176 q2 175 83 286 q80 112 208 162 l0 33 q-109 -25 -262 -141 q-152 -117 -167 -340 q3 -126 79 -196 q76 -71 182 -72 l0 0 Z" /><glyph glyph-name="" unicode="7" d="M58 -35 l148 0 l285 727 l0 8 l-443 0 l0 -167 l28 0 q9 54 38 75 q30 22 102 27 l211 17 l-369 -687 Z" /><glyph glyph-name="" unicode="8" d="M281 -10 q111 0 180 46 q70 45 72 136 q-1 78 -49 127 q-48 49 -129 92 q49 16 89 66 q39 49 41 107 q-1 80 -54 115 q-53 34 -145 33 q-96 0 -155 -40 q-60 -39 -62 -112 q0 -60 39 -105 q38 -46 109 -90 q-50 -12 -107 -60 q-57 -47 -62 -125 q0 -87 58 -138 q57 -51 175 -52 l0 0 ZM323 409 q-57 36 -96 70 q-39 35 -41 89 q0 54 26 78 q25 23 74 23 q37 0 63 -23 q25 -24 26 -78 q-1 -73 -17 -108 q-17 -36 -35 -51 l0 0 ZM281 32 q-49 -2 -83 27 q-34 30 -35 121 q2 80 28 117 q27 36 55 48 q70 -44 119 -86 q49 -41 51 -90 q-2 -75 -40 -106 q-39 -32 -95 -31 l0 0 Z" /><glyph glyph-name="" unicode="9" d="M130 -37 q109 25 261 142 q152 117 167 340 q-3 126 -79 197 q-75 71 -181 72 q-107 -1 -177 -54 q-70 -52 -73 -144 q1 -63 50 -117 q48 -54 139 -58 q63 2 99 20 q36 18 48 31 l0 33 q-17 -13 -42 -22 q-25 -9 -57 -9 q-49 1 -76 37 q-28 36 -28 95 q0 61 28 106 q28 45 89 47 q75 0 100 -57 q24 -58 22 -177 q-2 -175 -82 -287 q-80 -112 -208 -162 l0 -33 Z" /><glyph glyph-name="" unicode="&#x2070;" d="M199 294 q68 -1 110 52 q43 52 44 164 q-1 112 -44 165 q-42 53 -110 52 q-69 1 -112 -52 q-43 -53 -44 -165 q1 -112 44 -164 q43 -53 112 -52 l0 0 ZM199 321 q-50 3 -64 59 q-14 56 -12 130 q-2 75 12 131 q14 56 64 59 q49 -3 64 -59 q15 -56 13 -131 q2 -74 -13 -130 q-15 -56 -64 -59 l0 0 Z" /><glyph glyph-name="" unicode="¹" d="M219 372 l0 365 l-166 -73 l0 -23 l92 29 l0 -298 q-2 -33 -31 -41 q-30 -8 -69 -7 l0 -24 l260 0 l0 24 q-36 -1 -60 7 q-25 8 -26 41 l0 0 Z" /><glyph glyph-name="" unicode="²" d="M28 298 l285 0 l0 117 l-25 0 q-9 -31 -21 -40 q-13 -10 -33 -9 l-127 0 q105 93 147 154 q42 62 40 117 q1 47 -25 68 q-27 21 -89 22 q-44 -1 -84 -10 q-39 -9 -42 -10 l0 -94 l25 0 q9 50 26 67 q16 16 46 15 q41 -1 57 -18 q16 -18 15 -43 q5 -41 -28 -118 q-33 -78 -167 -209 l0 -9 Z" /><glyph glyph-name="" unicode="³" d="M143 298 q75 2 121 39 q46 37 47 88 q-1 62 -38 93 q-36 31 -96 35 q19 6 58 27 q38 22 43 65 q-1 44 -35 63 q-34 19 -88 19 q-45 -1 -70 -11 q-26 -10 -26 -11 l0 -92 l24 0 q8 55 22 70 q13 14 39 12 q58 0 58 -49 q3 -34 -17 -64 q-20 -30 -94 -45 l5 -33 q1 1 17 8 q17 7 40 8 q49 -1 65 -29 q16 -27 15 -69 q1 -42 -19 -68 q-20 -25 -70 -26 q-37 0 -54 18 q-18 17 -18 59 l-25 0 l0 -89 q2 -1 30 -9 q29 -8 66 -9 l0 0 Z" /><glyph glyph-name="" unicode="&#x2074;" d="M277 372 l0 41 l62 0 l0 31 l-62 0 q0 56 2 98 q1 42 -2 45 l-74 -17 l0 -126 l-126 0 l205 301 l-88 0 l-157 -317 l0 -15 l166 0 l0 -41 q-1 -33 -25 -41 q-23 -8 -53 -7 l0 -24 l222 0 l0 24 q-29 -1 -49 7 q-20 8 -21 41 l0 0 Z" /><glyph glyph-name="" unicode="&#x2075;" d="M141 297 q74 2 118 38 q44 36 45 87 q-2 78 -61 112 q-59 34 -154 26 l36 106 l57 0 q20 1 32 -8 q12 -10 21 -41 l26 0 l0 104 l-159 0 l-33 -186 q77 3 117 -20 q40 -23 40 -81 q-2 -70 -30 -91 q-28 -20 -54 -18 q-37 -2 -54 13 q-18 15 -18 67 l-24 0 l0 -95 q2 -1 30 -6 q27 -6 65 -7 l0 0 Z" /><glyph glyph-name="" unicode="&#x2076;" d="M205 294 q64 1 106 32 q41 31 43 86 q0 38 -30 71 q-29 33 -83 35 q-40 -1 -60 -12 q-20 -10 -28 -19 l0 -27 q7 8 21 13 q15 6 39 6 q29 0 46 -19 q17 -19 17 -54 q0 -36 -17 -60 q-18 -24 -54 -25 q-46 -1 -61 31 q-14 32 -13 103 q1 105 49 169 q48 64 125 93 l0 26 q-66 -16 -156 -85 q-91 -70 -100 -203 q2 -75 47 -118 q45 -42 109 -43 l0 0 Z" /><glyph glyph-name="" unicode="&#x2077;" d="M65 276 l77 0 l172 439 l0 5 l-265 0 l0 -100 l24 0 q8 47 25 56 q17 10 60 8 l101 0 l-194 -408 Z" /><glyph glyph-name="" unicode="&#x2078;" d="M227 499 q35 7 62 35 q27 27 28 66 q-1 48 -32 70 q-31 22 -86 25 q-46 2 -72 -13 q-26 -14 -27 -46 q0 -22 14 -42 q15 -19 44 -42 q-31 -4 -66 -30 q-34 -26 -37 -77 q0 -49 32 -78 q32 -30 99 -34 q53 -1 83 16 q30 18 30 55 q0 34 -20 54 q-19 19 -52 41 l0 0 ZM151 626 q-5 29 4 41 q9 12 27 17 q17 6 30 1 q13 -6 20 -32 q5 -31 1 -52 q-3 -22 -5 -33 q-26 11 -49 21 q-23 11 -28 37 l0 0 ZM190 325 q-29 -2 -47 13 q-17 15 -18 70 q1 47 17 71 q15 23 29 29 q5 -3 5 -3 q0 0 3 -1 q34 -19 61 -42 q27 -24 29 -61 q-1 -44 -23 -60 q-22 -17 -56 -16 l0 0 Z" /><glyph glyph-name="" unicode="&#x2079;" d="M86 271 q66 15 157 88 q90 73 99 208 q-2 74 -47 118 q-45 44 -109 45 q-64 -1 -106 -34 q-41 -32 -43 -88 q0 -38 30 -70 q29 -33 83 -35 q40 1 60 12 q20 11 28 20 l0 25 q-7 -7 -21 -13 q-14 -6 -38 -6 q-30 0 -46 19 q-17 19 -17 54 q0 36 17 63 q17 26 53 27 q46 0 61 -33 q14 -34 13 -104 q-1 -106 -49 -174 q-48 -68 -125 -98 l0 -24 Z" /><glyph glyph-name="" unicode="&#x2044;" d="M-110 -3 l45 0 l335 706 l-44 0 l-336 -706 Z" /><glyph glyph-name="" unicode="½" d="M305 324 q-36 -1 -60 7 q-25 8 -26 41 l0 365 l-166 -73 l0 -23 l92 29 l0 -298 q-2 -33 -31 -41 q-30 -8 -69 -7 l0 -24 l260 0 l0 24 ZM568 703 l-336 -706 l45 0 l335 706 l-44 0 ZM790 115 q-9 -31 -21 -40 q-13 -10 -33 -9 l-127 0 q105 93 147 154 q42 62 40 117 q1 47 -25 68 q-27 21 -89 22 q-44 -1 -84 -10 q-39 -9 -42 -10 l0 -94 l25 0 q9 50 26 67 q16 16 46 15 q41 -1 57 -18 q16 -18 15 -43 q5 -41 -28 -118 q-33 -78 -167 -209 l0 -9 l285 0 l0 117 l-25 0 Z" /><glyph glyph-name="" unicode="¼" d="M305 324 q-36 -1 -60 7 q-25 8 -26 41 l0 365 l-166 -73 l0 -23 l92 29 l0 -298 q-2 -33 -31 -41 q-30 -8 -69 -7 l0 -24 l260 0 l0 24 ZM568 703 l-336 -706 l45 0 l335 706 l-44 0 ZM779 72 l0 41 l62 0 l0 31 l-62 0 q0 56 2 98 q1 42 -2 45 l-74 -17 l0 -126 l-126 0 l205 301 l-88 0 l-157 -317 l0 -15 l166 0 l0 -41 q-1 -33 -25 -41 q-23 -8 -53 -7 l0 -24 l222 0 l0 24 q-29 -1 -49 7 q-20 8 -21 41 l0 0 Z" /><glyph glyph-name="" unicode="¾" d="M311 425 q-1 62 -38 93 q-36 31 -96 35 q19 6 58 27 q38 22 43 65 q-1 44 -35 63 q-34 19 -88 19 q-45 -1 -70 -11 q-26 -10 -26 -11 l0 -92 l24 0 q8 55 22 70 q13 14 39 12 q58 0 58 -49 q3 -34 -17 -64 q-20 -30 -94 -45 l5 -33 q1 1 17 8 q17 7 40 8 q49 -1 65 -29 q16 -27 15 -69 q1 -42 -19 -68 q-20 -25 -70 -26 q-37 0 -54 18 q-18 17 -18 59 l-25 0 l0 -89 q2 -1 30 -9 q29 -8 66 -9 q75 2 121 39 q46 37 47 88 l0 0 ZM576 703 l-335 -706 l44 0 l335 706 l-44 0 ZM788 72 l0 41 l62 0 l0 31 l-62 0 q0 56 2 98 q1 42 -2 45 l-75 -17 l0 -126 l-125 0 l204 301 l-87 0 l-158 -317 l0 -15 l166 0 l0 -41 q-1 -33 -24 -41 q-24 -8 -54 -7 l0 -24 l223 0 l0 24 q-30 -1 -50 7 q-19 8 -20 41 l0 0 Z" /><glyph glyph-name="" unicode="&#x215b;" d="M305 324 q-36 -1 -60 7 q-25 8 -26 41 l0 365 l-166 -73 l0 -23 l92 29 l0 -298 q-2 -33 -31 -41 q-30 -8 -69 -7 l0 -24 l260 0 l0 24 ZM568 703 l-336 -706 l45 0 l335 706 l-44 0 ZM729 199 q34 7 61 35 q27 27 28 66 q0 48 -31 70 q-31 22 -86 25 q-46 2 -72 -13 q-27 -14 -28 -46 q0 -22 15 -42 q15 -19 44 -42 q-31 -4 -66 -30 q-34 -26 -37 -77 q0 -39 21 -67 q22 -27 66 -39 q-8 9 -13 25 q-4 17 -4 44 q1 47 17 71 q15 23 29 29 q5 -3 5 -3 q0 0 3 -1 q34 -19 61 -42 q27 -24 29 -61 q0 -23 -6 -38 q-7 -16 -18 -24 q26 8 40 24 q14 16 14 41 q0 34 -20 54 q-19 19 -52 41 l0 0 ZM653 326 q-5 29 4 41 q8 12 27 17 q17 6 30 1 q13 -6 20 -32 q5 -31 1 -52 q-3 -22 -5 -33 q-26 11 -49 21 q-23 11 -28 37 l0 0 ZM688 33 q-24 2 -44 6 q9 -9 21 -11 q12 -3 27 -3 q17 0 31 3 q13 4 24 11 q-26 -7 -59 -6 l0 0 Z" /><glyph glyph-name="" unicode="&#x215c;" d="M143 298 q75 2 121 39 q46 37 47 88 q-1 62 -38 93 q-36 31 -96 35 q19 6 58 27 q38 22 43 65 q-1 44 -35 63 q-34 19 -88 19 q-45 -1 -70 -11 q-26 -10 -26 -11 l0 -92 l24 0 q8 55 22 70 q13 14 39 12 q58 0 58 -49 q3 -34 -17 -64 q-20 -30 -94 -45 l5 -33 q1 1 17 8 q17 7 40 8 q49 -1 65 -29 q16 -27 15 -69 q1 -42 -19 -68 q-20 -25 -70 -26 q-37 0 -54 18 q-18 17 -18 59 l-25 0 l0 -89 q2 -1 30 -9 q29 -8 66 -9 l0 0 ZM241 -3 l44 0 l335 706 l-44 0 l-335 -706 ZM737 199 q35 7 62 35 q27 27 28 66 q-1 48 -32 70 q-31 22 -86 25 q-46 2 -72 -13 q-26 -14 -27 -46 q0 -22 14 -42 q15 -19 44 -42 q-31 -4 -66 -30 q-34 -26 -37 -77 q0 -49 32 -78 q32 -30 99 -34 q53 -1 83 16 q30 18 30 55 q0 34 -20 54 q-19 19 -52 41 l0 0 ZM661 326 q-5 29 4 41 q9 12 27 17 q17 6 30 1 q13 -6 20 -32 q5 -31 2 -52 q-3 -22 -5 -33 q-27 11 -50 21 q-23 11 -28 37 l0 0 ZM700 25 q-28 -2 -46 13 q-18 15 -19 70 q1 47 17 71 q16 23 29 29 q5 -3 5 -3 q0 0 3 -1 q34 -19 62 -42 q27 -24 29 -61 q-1 -44 -23 -60 q-22 -17 -57 -16 l0 0 Z" /><glyph glyph-name="" unicode="&#x215d;" d="M141 297 q74 2 118 38 q44 36 45 87 q-2 78 -61 112 q-59 34 -154 26 l36 106 l57 0 q20 1 32 -8 q12 -10 21 -41 l26 0 l0 104 l-159 0 l-33 -186 q77 3 117 -20 q40 -23 40 -81 q-2 -70 -30 -91 q-28 -20 -54 -18 q-37 -2 -54 13 q-18 15 -18 67 l-24 0 l0 -95 q2 -1 30 -6 q27 -6 65 -7 l0 0 ZM246 -3 l45 0 l335 706 l-44 0 l-336 -706 ZM742 199 q35 7 62 35 q27 27 28 66 q-1 48 -32 70 q-31 22 -86 25 q-46 2 -72 -13 q-26 -14 -27 -46 q0 -22 14 -42 q15 -19 44 -42 q-31 -4 -66 -30 q-34 -26 -37 -77 q0 -49 32 -78 q32 -30 99 -34 q53 -1 83 16 q30 18 30 55 q0 34 -20 54 q-19 19 -52 41 l0 0 ZM666 326 q-5 29 4 41 q9 12 27 17 q17 6 30 1 q13 -6 20 -32 q5 -31 1 -52 q-3 -22 -5 -33 q-26 11 -49 21 q-23 11 -28 37 l0 0 ZM705 25 q-29 -2 -47 13 q-17 15 -18 70 q1 47 17 71 q15 23 29 29 q5 -3 5 -3 q0 0 3 -1 q34 -19 61 -42 q27 -24 29 -61 q-1 -44 -23 -60 q-22 -17 -56 -16 l0 0 Z" /><glyph glyph-name="" unicode="&#x215e;" d="M65 276 l77 0 l172 439 l0 5 l-265 0 l0 -100 l24 0 q8 47 25 56 q17 10 60 8 l101 0 l-194 -408 ZM236 -3 l45 0 l334 706 l-44 0 l-335 -706 ZM732 199 q35 7 62 35 q27 27 28 66 q-1 48 -32 70 q-31 22 -86 25 q-46 2 -72 -13 q-26 -14 -27 -46 q0 -22 14 -42 q15 -19 44 -42 q-31 -4 -66 -30 q-34 -26 -37 -77 q0 -49 32 -78 q32 -30 99 -34 q53 -1 83 16 q30 18 30 55 q0 34 -20 54 q-19 19 -52 41 l0 0 ZM656 326 q-5 29 4 41 q9 12 27 17 q17 6 30 1 q13 -6 20 -32 q5 -31 2 -52 q-3 -22 -5 -33 q-27 11 -50 21 q-23 11 -28 37 l0 0 ZM695 25 q-28 -2 -46 13 q-18 15 -19 70 q1 47 17 71 q16 23 29 29 q5 -3 5 -3 q0 0 3 -1 q34 -19 62 -42 q27 -24 29 -61 q-1 -44 -23 -60 q-22 -17 -57 -16 l0 0 Z" /><glyph glyph-name="" unicode="." d="M133 -8 q32 1 54 21 q23 21 24 52 q-1 31 -24 53 q-22 21 -54 22 q-32 -1 -54 -22 q-21 -22 -22 -53 q1 -31 22 -52 q22 -20 54 -21 l0 0 Z" /><glyph glyph-name="" unicode="," d="M63 -130 q70 14 113 54 q43 41 44 117 q0 40 -20 68 q-21 27 -63 28 q-36 0 -58 -20 q-21 -20 -22 -53 q1 -31 22 -51 q22 -21 49 -22 l29 0 q1 -34 -18 -59 q-20 -26 -76 -45 l0 -17 Z" /><glyph glyph-name="" unicode=":" d="M133 271 q32 1 54 21 q23 20 24 51 q-1 32 -24 53 q-22 22 -54 23 q-32 -1 -54 -23 q-21 -21 -22 -53 q1 -31 22 -51 q22 -20 54 -21 l0 0 ZM133 -8 q32 1 54 21 q23 21 24 52 q-1 31 -24 53 q-22 21 -54 22 q-32 -1 -54 -22 q-21 -22 -22 -53 q1 -31 22 -52 q22 -20 54 -21 l0 0 Z" /><glyph glyph-name="" unicode=";" d="M145 271 q32 1 54 21 q23 20 24 51 q-1 32 -24 53 q-22 22 -54 23 q-32 -1 -54 -23 q-21 -21 -22 -53 q1 -31 22 -51 q22 -20 54 -21 l0 0 ZM63 -129 q71 13 113 54 q43 41 44 117 q0 40 -20 68 q-21 27 -62 28 q-37 0 -59 -20 q-22 -20 -22 -53 q1 -31 23 -52 q21 -20 49 -21 l28 0 q1 -35 -18 -60 q-20 -26 -76 -45 l0 -16 Z" /><glyph glyph-name="" unicode="&#x2026;" d="M144 -9 q28 1 48 19 q20 18 21 45 q-1 28 -21 47 q-20 18 -48 19 q-28 -1 -47 -19 q-19 -19 -20 -47 q1 -27 20 -45 q19 -18 47 -19 l0 0 ZM375 -9 q28 1 48 19 q19 18 20 45 q-1 28 -20 47 q-20 18 -48 19 q-28 -1 -47 -19 q-19 -19 -20 -47 q1 -27 20 -45 q19 -18 47 -19 l0 0 ZM610 -9 q27 1 47 19 q20 18 21 45 q-1 28 -21 47 q-20 18 -47 19 q-29 -1 -48 -19 q-19 -19 -20 -47 q1 -27 20 -45 q19 -18 48 -19 l0 0 Z" /><glyph glyph-name="" unicode="!" d="M132 184 l45 0 l39 401 l3 115 l-129 0 l3 -115 l39 -401 ZM154 -18 q28 1 48 19 q20 17 21 45 q-1 28 -21 47 q-20 18 -48 19 q-28 -1 -47 -19 q-19 -19 -20 -47 q1 -28 20 -45 q19 -18 47 -19 l0 0 Z" /><glyph glyph-name="" unicode="¡" d="M155 302 q29 1 48 20 q19 18 20 46 q-1 28 -20 46 q-19 17 -48 18 q-27 -1 -47 -18 q-20 -18 -21 -46 q1 -28 21 -46 q20 -19 47 -20 l0 0 ZM90 -286 l129 0 l-3 115 l-40 401 l-44 0 l-39 -401 l-3 -115 Z" /><glyph glyph-name="" unicode="?" d="M192 182 l28 6 q-22 26 -32 75 q-10 49 62 120 q37 32 70 72 q32 40 34 87 q0 73 -44 120 q-43 47 -124 49 q-38 -2 -61 -13 q-24 -11 -25 -13 l0 -72 q2 2 31 17 q28 15 66 17 q31 1 50 -12 q19 -13 20 -47 q-2 -53 -42 -92 q-41 -40 -97 -92 q-69 -89 -10 -154 q60 -65 74 -68 l0 0 ZM176 -6 q28 1 48 19 q19 17 20 45 q-1 28 -20 47 q-20 18 -48 19 q-28 -1 -46 -19 q-19 -19 -20 -47 q1 -28 20 -45 q18 -18 46 -19 l0 0 Z" /><glyph glyph-name="" unicode="¿" d="M244 301 q28 1 47 20 q19 18 20 46 q-1 28 -20 46 q-19 17 -47 18 q-27 -1 -47 -18 q-19 -18 -20 -46 q1 -28 20 -46 q20 -19 47 -20 l0 0 ZM234 -286 q38 2 61 13 q24 11 25 13 l0 71 q-2 -2 -30 -16 q-29 -15 -67 -17 q-30 -1 -49 12 q-19 13 -20 46 q2 52 41 90 q39 39 96 94 q70 89 11 155 q-59 65 -73 68 l-29 -6 q22 -26 33 -76 q10 -50 -62 -120 q-37 -31 -70 -71 q-32 -39 -34 -86 q1 -73 44 -121 q43 -47 123 -49 l0 0 Z" /><glyph glyph-name="" unicode="·" d="M119 267 q28 1 48 19 q20 18 21 46 q-1 27 -21 46 q-20 19 -48 20 q-28 -1 -47 -20 q-19 -19 -20 -46 q1 -28 20 -46 q19 -18 47 -19 l0 0 Z" /><glyph glyph-name="" unicode="&#x2022;" d="M194 199 q68 2 111 46 q44 43 45 111 q-1 66 -45 110 q-43 45 -111 47 q-68 -2 -111 -47 q-44 -44 -46 -110 q2 -68 46 -111 q43 -44 111 -46 l0 0 Z" /><glyph glyph-name="" unicode="*" d="M230 330 q6 0 12 2 q5 3 9 7 q4 4 5 8 q1 5 0 11 q-2 16 -9 70 q-8 55 -11 79 q20 -15 63 -51 q44 -36 56 -45 q8 -6 16 -6 q8 0 13 4 q6 5 9 10 q4 5 5 11 q1 6 -1 11 q-3 11 -14 15 q-15 6 -66 29 q-52 22 -74 33 q23 9 76 28 q53 18 68 24 q11 5 15 14 q1 5 1 12 q-1 6 -3 11 q-3 6 -9 10 q-6 5 -14 5 q-7 0 -15 -5 q-13 -10 -60 -42 q-46 -33 -66 -46 l21 149 q0 12 -7 19 q-3 5 -8 7 q-6 2 -12 2 q-6 0 -12 -2 q-5 -2 -9 -7 q-4 -4 -5 -9 q-1 -5 0 -10 q2 -16 9 -70 q8 -54 11 -78 q-20 15 -63 51 q-44 35 -56 45 q-4 3 -8 4 q-4 1 -8 1 q-8 0 -13 -4 q-6 -4 -9 -9 q-4 -5 -5 -11 q-1 -7 1 -12 q3 -9 14 -14 q15 -7 66 -29 q52 -23 74 -33 q-23 -9 -76 -28 q-53 -19 -68 -25 q-10 -5 -15 -14 q-1 -5 -1 -11 q1 -6 3 -11 q3 -6 9 -10 q6 -5 14 -5 q8 0 15 4 l126 89 q-3 -24 -11 -79 q-8 -55 -10 -71 q0 -12 6 -20 q4 -4 9 -6 q6 -2 12 -2 l0 0 Z" /><glyph glyph-name="" unicode="#" d="M39 0 l108 0 l60 252 l122 0 l-60 -252 l105 0 l60 252 l117 0 l0 28 l-111 0 l38 160 l103 0 l0 28 l-96 0 l55 232 l-105 0 l-55 -232 l-122 0 l55 232 l-108 0 l-55 -232 l-93 0 l0 -28 l86 0 l-38 -160 l-78 0 l0 -28 l72 0 l-60 -252 ZM213 280 l38 160 l122 0 l-38 -160 l-122 0 Z" /><glyph glyph-name="" unicode="/" d="M10 -50 l59 0 l179 790 l-60 0 l-178 -790 Z" /><glyph glyph-name="" unicode="\" d="M195 -50 l60 0 l-179 790 l-59 0 l178 -790 Z" /><glyph glyph-name="" unicode="(" d="M287 -154 l21 7 q-8 3 -60 125 q-53 122 -61 322 q8 197 59 305 q51 109 50 110 l-9 9 q-14 -3 -111 -117 q-97 -115 -111 -305 q14 -194 111 -322 q97 -129 111 -134 l0 0 Z" /><glyph glyph-name="" unicode=")" d="M53 -154 q14 5 111 134 q97 128 111 322 q-14 190 -111 305 q-97 114 -111 117 l-9 -9 q-1 -1 50 -110 q51 -108 59 -305 q-8 -200 -60 -322 q-53 -122 -61 -125 l21 -7 Z" /><glyph glyph-name="" unicode="{" d="M266 -180 l23 0 l0 32 q-26 15 -30 41 q-4 26 -2 41 q2 44 5 160 q4 116 4 130 q0 33 -21 51 q-21 18 -51 22 q30 3 51 21 q21 18 21 51 q0 12 -4 114 q-4 101 -5 143 q-2 15 2 41 q4 26 30 41 l0 31 l-23 0 q-40 0 -81 -22 q-40 -22 -42 -63 q2 -43 5 -145 q4 -102 4 -129 q0 -24 -13 -37 q-14 -13 -46 -25 l-16 -7 l0 -33 l16 -4 q31 -7 46 -23 q14 -16 13 -47 q-1 -29 -4 -142 q-3 -113 -5 -157 q2 -41 42 -63 q41 -22 81 -22 l0 0 Z" /><glyph glyph-name="" unicode="}" d="M76 -180 l23 0 q40 0 81 22 q40 22 42 63 q-2 44 -5 157 q-3 113 -4 142 q-1 31 13 47 q15 16 46 23 l16 4 l0 33 l-16 7 q-33 12 -46 25 q-13 13 -13 37 q0 27 4 129 q3 102 5 145 q-2 41 -42 63 q-41 22 -81 22 l-23 0 l0 -31 q26 -15 30 -41 q4 -26 2 -41 q-1 -46 -4 -141 q-4 -95 -5 -116 q0 -33 21 -51 q21 -18 51 -21 q-30 -4 -51 -22 q-21 -18 -21 -51 q1 -25 4 -133 q3 -108 5 -157 q2 -15 -2 -41 q-4 -26 -30 -41 l0 -32 Z" /><glyph glyph-name="" unicode="[" d="M97 -180 l197 0 l0 34 l-82 11 l0 830 l82 9 l0 36 l-197 0 l0 -920 Z" /><glyph glyph-name="" unicode="]" d="M27 -180 l197 0 l0 920 l-197 0 l0 -36 l81 -9 l0 -830 l-81 -9 l0 -36 Z" /><glyph glyph-name="" unicode="-" d="M40 246 l243 0 l0 25 l-243 0 l0 -25 Z" /><glyph glyph-name="" unicode="­" d="M40 246 l243 0 l0 25 l-243 0 l0 -25 Z" /><glyph glyph-name="" unicode="&#x2013;" d="M22 246 l363 0 l0 25 l-363 0 l0 -25 Z" /><glyph glyph-name="" unicode="&#x2014;" d="M22 246 l523 0 l0 25 l-523 0 l0 -25 Z" /><glyph glyph-name="" unicode="_" d="M22 -54 l363 0 l0 27 l-363 0 l0 -27 Z" /><glyph glyph-name="" unicode="&#x201a;" d="M63 -130 q70 14 113 54 q43 41 44 117 q0 40 -20 68 q-21 27 -63 28 q-36 0 -58 -20 q-21 -20 -22 -53 q1 -31 22 -51 q22 -21 49 -22 l29 0 q1 -34 -18 -59 q-20 -26 -76 -45 l0 -17 Z" /><glyph glyph-name="" unicode="&#x201e;" d="M61 -129 q70 14 113 54 q43 41 44 117 q0 40 -20 68 q-21 27 -63 28 q-36 0 -58 -20 q-21 -20 -22 -53 q1 -31 22 -51 q22 -21 49 -22 l29 0 q1 -34 -18 -59 q-20 -26 -76 -45 l0 -17 ZM252 -129 q70 14 113 54 q43 41 44 117 q0 40 -20 68 q-21 27 -62 28 q-37 0 -59 -20 q-22 -20 -22 -53 q1 -31 23 -51 q21 -21 49 -22 l28 0 q1 -34 -18 -59 q-20 -26 -76 -45 l0 -17 Z" /><glyph glyph-name="" unicode="&#x201c;" d="M212 716 q-70 -13 -113 -54 q-43 -41 -44 -117 q0 -40 20 -67 q21 -28 62 -29 q37 0 59 20 q22 20 22 53 q-1 31 -22 52 q-22 20 -49 21 l-29 0 q-1 35 19 60 q19 26 75 45 l0 16 ZM404 716 q-71 -13 -114 -54 q-43 -41 -44 -117 q0 -40 21 -67 q20 -28 62 -29 q37 0 58 20 q22 20 22 53 q-1 31 -22 52 q-22 20 -49 21 l-29 0 q-1 35 19 60 q20 26 76 45 l0 16 Z" /><glyph glyph-name="" unicode="&#x201d;" d="M61 443 q70 13 113 54 q43 41 44 117 q0 40 -20 68 q-21 27 -63 28 q-36 -1 -58 -20 q-21 -20 -22 -53 q1 -31 22 -52 q22 -20 49 -21 l29 0 q1 -35 -18 -60 q-20 -26 -76 -45 l0 -16 ZM252 443 q70 13 113 54 q43 41 44 117 q0 40 -20 68 q-21 27 -63 28 q-36 -1 -58 -20 q-21 -20 -22 -53 q1 -31 22 -52 q22 -20 49 -21 l29 0 q1 -35 -18 -60 q-20 -26 -76 -45 l0 -16 Z" /><glyph glyph-name="" unicode="&#x2018;" d="M212 443 l0 16 q-56 19 -75 45 q-20 25 -19 60 l29 0 q27 1 49 21 q21 21 22 52 q0 33 -22 53 q-22 19 -59 20 q-41 -1 -62 -28 q-20 -28 -20 -68 q1 -76 44 -117 q43 -41 113 -54 l0 0 Z" /><glyph glyph-name="" unicode="&#x2019;" d="M61 443 q70 13 113 54 q43 41 44 117 q0 40 -20 68 q-21 27 -63 28 q-36 -1 -58 -20 q-21 -20 -22 -53 q1 -31 22 -52 q22 -20 49 -21 l29 0 q1 -35 -18 -60 q-20 -26 -76 -45 l0 -16 Z" /><glyph glyph-name="" unicode="«" d="M183 20 l29 5 l-80 199 l79 183 l-28 5 l-136 -188 l136 -204 ZM338 20 l29 5 l-81 199 l80 183 l-28 5 l-136 -188 l136 -204 Z" /><glyph glyph-name="" unicode="»" d="M75 20 l136 204 l-136 187 l-28 -4 l80 -183 l-80 -199 l28 -5 ZM230 19 l136 206 l-136 186 l-27 -5 l78 -181 l-79 -201 l28 -5 Z" /><glyph glyph-name="" unicode="&#x2039;" d="M185 20 l27 5 l-79 199 l78 183 l-26 5 l-138 -188 l138 -204 Z" /><glyph glyph-name="" unicode="&#x203a;" d="M74 21 l162 198 l-158 194 l-28 -5 l101 -189 l-104 -193 l27 -5 Z" /><glyph glyph-name="" unicode="&quot;" d="M61 443 q70 13 113 54 q43 41 44 117 q0 40 -20 68 q-21 27 -63 28 q-36 -1 -58 -20 q-21 -20 -22 -53 q1 -31 22 -52 q22 -20 49 -21 l29 0 q1 -35 -18 -60 q-20 -26 -76 -45 l0 -16 ZM252 443 q70 13 113 54 q43 41 44 117 q0 40 -20 68 q-21 27 -63 28 q-36 -1 -58 -20 q-21 -20 -22 -53 q1 -31 22 -52 q22 -20 49 -21 l29 0 q1 -35 -18 -60 q-20 -26 -76 -45 l0 -16 Z" /><glyph glyph-name="" unicode="&#39;" d="M61 443 q70 13 113 54 q43 41 44 117 q0 40 -20 68 q-21 27 -63 28 q-36 -1 -58 -20 q-21 -20 -22 -53 q1 -31 22 -52 q22 -20 49 -21 l29 0 q1 -35 -18 -60 q-20 -26 -76 -45 l0 -16 Z" /><glyph glyph-name="" unicode="&#x2009;" d="" /><glyph glyph-name="" unicode="¢" d="M220 0 l52 0 l0 95 q26 2 57 5 q31 3 34 3 l0 112 l-8 0 q-5 -30 -28 -58 q-24 -27 -68 -29 q-37 -1 -66 35 q-28 36 -30 121 q2 85 30 121 q29 36 66 35 q44 -2 68 -28 q23 -27 28 -56 l8 0 l0 109 q-3 0 -34 3 q-31 3 -57 4 l0 85 l-52 0 l0 -87 q-66 -10 -112 -55 q-46 -45 -48 -131 q2 -85 48 -130 q46 -46 112 -56 l0 -98 Z" /><glyph glyph-name="" unicode="¤" d="M414 308 q0 31 -11 58 q-11 27 -31 48 l59 60 l-30 31 l-63 -63 q-20 13 -43 19 q-23 7 -49 7 q-26 0 -50 -7 q-23 -6 -43 -19 l-62 63 l-31 -31 l59 -59 q-20 -22 -30 -49 q-11 -27 -11 -58 q0 -31 11 -58 q11 -28 31 -50 l-58 -58 l29 -29 l61 61 q20 -12 44 -19 q24 -7 50 -7 q26 0 50 7 q23 7 43 20 l62 -62 l29 29 l-59 59 q20 21 32 49 q11 27 11 58 l0 0 ZM246 182 q-40 3 -56 42 q-17 40 -16 84 q-1 44 16 82 q16 38 56 41 q40 -3 56 -41 q17 -38 16 -82 q1 -44 -16 -84 q-16 -39 -56 -42 l0 0 Z" /><glyph glyph-name="" unicode="$" d="M382 374 l-78 55 l0 237 q43 -4 66 -36 q22 -33 35 -106 l31 0 l0 162 q-3 1 -46 11 q-43 10 -86 13 l0 53 l-56 0 l0 -56 q-101 -15 -141 -64 q-41 -50 -39 -95 q0 -50 19 -87 q19 -37 56 -68 q16 -14 43 -35 q27 -21 62 -47 l0 -279 q-69 -2 -105 32 q-37 33 -48 146 l-27 0 l0 -189 q4 -2 59 -15 q56 -13 121 -16 l0 -71 l56 0 l0 75 q82 14 131 63 q50 50 52 126 q1 68 -25 110 q-27 42 -80 81 l0 0 ZM155 588 q0 35 24 55 q24 19 69 24 l0 -198 q-45 31 -69 56 q-24 25 -24 63 l0 0 ZM304 35 l0 236 q38 -26 66 -57 q29 -32 30 -76 q0 -40 -22 -67 q-23 -27 -74 -36 l0 0 Z" /><glyph glyph-name="" unicode="&#x20ac;" d="M450 -15 q72 1 108 11 q36 9 36 10 l0 122 l-14 0 q-16 -73 -54 -89 q-37 -16 -79 -14 q-102 6 -137 84 q-34 77 -35 174 l187 0 l17 44 l-206 0 l0 19 q0 19 1 40 l190 0 l17 44 l-205 0 q4 92 39 162 q36 69 132 74 q40 1 68 -23 q27 -24 33 -78 l14 0 l32 119 q0 1 -36 12 q-36 10 -108 11 q-108 1 -196 -65 q-87 -66 -113 -212 l-76 0 l0 -44 l69 0 q0 -9 0 -19 q-1 -10 -1 -21 q0 -5 0 -9 q0 -5 1 -10 l-69 0 l0 -44 l72 0 q22 -158 112 -228 q89 -71 201 -70 l0 0 Z" /><glyph glyph-name="" unicode="&#x192;" d="M491 714 q-66 -4 -135 -67 q-69 -64 -84 -143 q-3 -22 -7 -51 q-3 -28 -7 -60 l-127 0 l0 -34 l123 0 q-8 -67 -13 -116 q-5 -50 -4 -50 l-21 -176 q-6 -45 -31 -64 q-25 -19 -65 -19 q-48 4 -71 33 q-22 29 -22 33 l-7 -100 q1 -10 23 -18 q22 -8 54 -9 q67 4 137 68 q70 65 83 142 q-1 -6 9 80 q9 86 22 196 l149 0 l0 34 l-145 0 l20 177 q10 44 33 64 q23 19 63 19 q49 -4 71 -33 q23 -29 23 -33 l6 100 q-1 10 -23 18 q-22 8 -54 9 l0 0 Z" /><glyph glyph-name="" unicode="£" d="M522 210 l-32 0 q-9 -97 -31 -137 q-23 -39 -92 -38 q-55 1 -106 12 q-52 12 -92 21 q31 57 60 133 q30 76 44 157 l135 0 l4 34 l-135 0 q1 11 1 22 q1 10 1 21 q-5 117 4 178 q9 61 92 61 q48 0 73 -27 q25 -28 27 -85 l25 0 l20 124 q-3 2 -48 12 q-44 10 -90 11 q-132 -6 -181 -96 q-50 -90 -47 -202 l0 -19 l-109 0 l0 -34 l109 0 q3 -79 0 -150 q-2 -71 -22 -134 l-10 0 q-34 -1 -51 -17 q-17 -16 -17 -34 q1 -16 11 -33 q10 -17 11 -18 l37 0 q7 11 22 36 q6 2 15 2 q29 1 93 -4 q63 -5 125 -6 l155 0 l-1 210 Z" /><glyph glyph-name="" unicode="¥" d="M723 668 l0 32 l-256 0 q0 -2 0 -16 q0 -13 0 -16 l26 0 q48 1 62 -13 q13 -14 -2 -48 q-15 -36 -38 -93 q-22 -56 -67 -168 q-40 95 -67 161 q-26 66 -42 102 q-15 34 4 47 q19 13 67 12 q3 0 14 0 q10 0 13 0 l0 32 l-379 0 l0 -32 q53 3 83 -4 q30 -7 55 -55 q13 -26 44 -97 q31 -70 75 -166 l-171 0 l0 -42 l191 0 q5 -10 10 -21 l0 -43 l-201 0 l0 -41 l201 0 l0 -95 q-1 -49 -34 -62 q-33 -13 -82 -11 l0 -31 l358 0 l0 31 q-49 -2 -82 10 q-33 12 -34 63 l0 95 l198 0 l0 41 l-198 0 l0 48 l6 16 l192 0 l0 42 l-177 0 q28 75 54 136 q25 61 39 94 q19 49 46 71 q27 21 92 21 l0 0 Z" /><glyph glyph-name="" unicode="+" d="M278 0 l61 0 l0 243 l235 0 l0 59 l-235 0 l0 242 l-61 0 l0 -242 l-235 0 l0 -59 l235 0 l0 -243 Z" /><glyph glyph-name="" unicode="&#x2212;" d="M43 243 l445 0 l0 59 l-445 0 l0 -59 Z" /><glyph glyph-name="" unicode="×" d="M164 62 l143 155 l145 -155 l49 45 l-149 158 l149 160 l-53 46 l-144 -155 l-145 155 l-49 -46 l149 -158 l-147 -160 l52 -45 Z" /><glyph glyph-name="" unicode="÷" d="M309 381 q19 0 32 13 q12 13 13 32 q-1 19 -13 31 q-13 13 -32 13 q-19 0 -31 -13 q-13 -12 -13 -31 q0 -19 13 -32 q12 -13 31 -13 l0 0 ZM43 243 l531 0 l0 59 l-531 0 l0 -59 ZM309 65 q19 1 32 13 q12 13 13 31 q-1 19 -13 32 q-13 13 -32 13 q-19 0 -31 -13 q-13 -13 -13 -32 q0 -18 13 -31 q12 -12 31 -13 l0 0 Z" /><glyph glyph-name="" unicode="=" d="M43 302 l477 0 l0 50 l-477 0 l0 -50 ZM43 180 l477 0 l0 50 l-477 0 l0 -50 Z" /><glyph glyph-name="" unicode="&#x2260;" d="M520 302 l0 50 l-178 0 l39 168 l-61 0 l-39 -168 l-238 0 l0 -50 l227 0 l-17 -72 l-210 0 l0 -50 l198 0 l-48 -210 l61 0 l48 210 l218 0 l0 50 l-206 0 l17 72 l189 0 Z" /><glyph glyph-name="" unicode="&gt;" d="M43 -1 l462 270 l-462 270 l0 -50 l388 -220 l-388 -220 l0 -50 Z" /><glyph glyph-name="" unicode="&lt;" d="M503 -1 l0 50 l-388 220 l388 220 l0 50 l-462 -270 l462 -270 Z" /><glyph glyph-name="" unicode="&#x2265;" d="M43 109 l457 230 l-457 210 l0 -43 l368 -169 l-368 -179 l0 -49 ZM43 0 l440 0 l0 37 l-440 0 l0 -37 Z" /><glyph glyph-name="" unicode="&#x2264;" d="M500 109 l0 49 l-368 179 l368 169 l0 43 l-457 -210 l457 -230 ZM60 0 l440 0 l0 37 l-440 0 l0 -37 Z" /><glyph glyph-name="" unicode="±" d="M245 103 l61 0 l0 202 l202 0 l0 59 l-202 0 l0 200 l-61 0 l0 -200 l-202 0 l0 -59 l202 0 l0 -202 ZM43 -2 l465 0 l0 51 l-465 0 l0 -51 Z" /><glyph glyph-name="" unicode="&#x2248;" d="M437 274 q53 4 79 44 q25 40 30 72 l-22 0 q1 -5 -15 -37 q-17 -32 -69 -37 q-64 5 -137 41 q-74 36 -141 41 q-54 -4 -83 -47 q-29 -43 -36 -76 l23 0 q-1 5 20 41 q21 35 73 40 q61 -5 137 -41 q75 -36 141 -41 l0 0 ZM437 124 q53 4 79 44 q25 40 30 72 l-22 0 q1 -5 -15 -37 q-17 -32 -69 -37 q-64 5 -137 41 q-74 36 -141 41 q-54 -4 -83 -47 q-29 -43 -36 -76 l23 0 q-1 5 20 41 q21 35 73 40 q61 -5 137 -41 q75 -36 141 -41 l0 0 Z" /><glyph glyph-name="" unicode="~" d="M437 222 q53 4 79 44 q25 41 30 73 l-22 0 q1 -5 -15 -37 q-17 -33 -69 -38 q-64 5 -137 41 q-74 36 -141 41 q-54 -4 -83 -47 q-29 -43 -36 -76 l23 0 q-1 5 20 41 q21 35 73 40 q61 -5 137 -41 q75 -36 141 -41 l0 0 Z" /><glyph glyph-name="" unicode="¬" d="M427 170 l61 0 l0 234 l-445 0 l0 -59 l384 0 l0 -175 Z" /><glyph glyph-name="" unicode="^" d="M43 240 l44 0 l165 373 l165 -373 l44 0 l-209 461 l-209 -461 Z" /><glyph glyph-name="" unicode="&#x2205;" d="M314 -8 q115 3 191 80 q77 76 80 191 q0 53 -19 100 q-19 47 -53 84 l52 58 l-33 24 l-48 -55 q-35 28 -79 44 q-43 16 -91 16 q-115 -3 -192 -79 q-76 -77 -79 -192 q0 -59 23 -109 q23 -51 63 -89 l-48 -55 l32 -25 l48 55 q32 -23 71 -36 q39 -12 82 -12 l0 0 ZM156 96 q-34 31 -52 75 q-18 43 -18 92 q2 97 64 162 q62 65 164 68 q42 0 78 -13 q36 -14 65 -37 l-301 -347 ZM314 34 q-37 0 -69 10 q-32 10 -58 28 l300 344 q26 -32 40 -70 q14 -39 14 -83 q-2 -96 -64 -161 q-62 -65 -163 -68 l0 0 Z" /><glyph glyph-name="" unicode="&#x221e;" d="M176 116 q54 3 94 41 q39 38 58 68 q19 -30 58 -68 q40 -38 94 -41 q54 1 93 35 q38 34 40 93 q-2 59 -40 93 q-39 34 -93 35 q-55 -3 -95 -41 q-39 -37 -57 -67 q-18 30 -57 67 q-40 38 -95 41 q-55 -1 -93 -35 q-38 -34 -40 -93 q2 -59 40 -93 q38 -34 93 -35 l0 0 ZM174 151 q-39 1 -66 27 q-27 26 -28 66 q1 40 28 66 q27 25 66 26 q54 -6 90 -46 q36 -40 37 -46 q-2 -6 -38 -46 q-36 -41 -89 -47 l0 0 ZM482 151 q-53 6 -89 47 q-36 40 -38 46 q1 6 37 46 q36 40 90 46 q39 -1 66 -26 q27 -26 28 -66 q-1 -40 -28 -66 q-27 -26 -66 -27 l0 0 Z" /><glyph glyph-name="" unicode="&#x222b;" d="M92 -60 q45 0 79 30 q33 30 41 89 l67 569 q9 59 23 80 q15 20 39 19 q5 1 25 -2 q20 -4 36 -26 l0 36 q-11 6 -29 9 q-17 3 -32 3 q-44 0 -72 -30 q-27 -30 -35 -89 l-67 -569 q-9 -59 -29 -80 q-20 -20 -46 -19 q-4 -1 -19 2 q-14 4 -30 26 l0 -36 q22 -12 49 -12 l0 0 Z" /><glyph glyph-name="" unicode="&#x220f;" d="M145 -85 l61 0 l0 676 l221 0 l0 -676 l61 0 l0 676 l110 0 l0 59 l-555 0 l0 -59 l102 0 l0 -676 Z" /><glyph glyph-name="" unicode="&#x2211;" d="M43 -85 l468 0 l0 59 l-391 0 l301 308 l-301 309 l391 0 l0 59 l-468 0 l0 -59 l302 -309 l-302 -308 l0 -59 Z" /><glyph glyph-name="" unicode="&#x221a;" d="M261 -85 l61 0 l192 925 l-49 0 l-178 -856 l-121 339 l-123 -43 l20 -54 l72 27 l126 -338 Z" /><glyph glyph-name="" unicode="&#x2202;" d="M274 -8 q111 2 181 64 q69 62 82 155 q15 225 -103 352 q-117 127 -221 153 l-1 -33 q80 -34 126 -99 q46 -65 73 -173 q-12 6 -36 12 q-25 6 -48 7 q-108 -2 -178 -64 q-70 -62 -82 -155 q-10 -93 45 -155 q54 -62 162 -64 l0 0 ZM277 30 q-59 1 -80 49 q-20 47 -9 132 q10 85 44 133 q34 47 94 48 q62 -1 83 -50 q20 -49 8 -136 q-11 -89 -46 -133 q-35 -43 -94 -43 l0 0 Z" /><glyph glyph-name="" unicode="µ" d="M491 97 l0 333 l-194 -16 l0 -31 q44 1 61 -10 q17 -11 16 -40 l0 -186 q-5 -27 -30 -66 q-25 -39 -67 -43 q-27 -1 -39 15 q-13 16 -13 57 l0 320 l-195 -16 l0 -31 q44 1 61 -10 q18 -11 17 -40 l0 -11 l-13 0 l0 -587 l117 0 l0 258 q5 -1 11 -1 q6 0 11 0 q71 3 102 32 q30 29 40 53 l0 -82 l193 16 l0 32 q-39 0 -58 12 q-20 12 -20 42 l0 0 Z" /><glyph glyph-name="" unicode="%" d="M73 -50 l50 0 l461 790 l-49 0 l-462 -790 ZM205 435 q87 2 134 43 q46 42 47 105 q-1 62 -47 104 q-47 41 -134 43 q-88 -2 -135 -43 q-48 -42 -48 -104 q0 -63 48 -105 q47 -41 135 -43 l0 0 ZM205 459 q-42 4 -52 46 q-9 41 -7 76 q-2 35 7 76 q10 42 52 46 q42 -4 51 -46 q8 -41 6 -76 q2 -35 -6 -76 q-9 -42 -51 -46 l0 0 ZM474 -4 q87 2 134 43 q46 42 47 104 q-1 63 -47 105 q-47 41 -134 43 q-88 -2 -135 -43 q-48 -42 -48 -105 q0 -62 48 -104 q47 -41 135 -43 l0 0 ZM474 20 q-42 4 -51 46 q-9 41 -7 76 q-2 35 7 76 q9 42 51 46 q42 -4 51 -46 q8 -41 6 -76 q2 -35 -6 -76 q-9 -42 -51 -46 l0 0 Z" /><glyph glyph-name="" unicode="&#x2030;" d="M73 -50 l50 0 l461 790 l-49 0 l-462 -790 ZM205 435 q87 2 134 43 q46 42 47 105 q-1 62 -47 104 q-47 41 -134 43 q-88 -2 -135 -43 q-48 -42 -48 -104 q0 -63 48 -105 q47 -41 135 -43 l0 0 ZM205 459 q-42 4 -52 46 q-9 41 -7 76 q-2 35 7 76 q10 42 52 46 q42 -4 51 -46 q8 -41 6 -76 q2 -35 -6 -76 q-9 -42 -51 -46 l0 0 ZM474 -4 q87 2 134 43 q46 42 47 104 q-1 63 -47 105 q-47 41 -134 43 q-88 -2 -135 -43 q-48 -42 -48 -105 q0 -62 48 -104 q47 -41 135 -43 l0 0 ZM870 -4 q88 2 135 43 q47 42 47 104 q0 63 -47 105 q-47 41 -135 43 q-88 -2 -135 -43 q-48 -42 -48 -105 q0 -62 48 -104 q47 -41 135 -43 l0 0 ZM474 20 q-42 4 -51 46 q-9 41 -7 76 q-2 35 7 76 q9 42 51 46 q42 -4 51 -46 q8 -41 6 -76 q2 -35 -6 -76 q-9 -42 -51 -46 l0 0 ZM870 20 q-42 4 -51 46 q-8 41 -6 76 q-2 35 6 76 q9 42 51 46 q42 -4 51 -46 q8 -41 6 -76 q2 -35 -6 -76 q-9 -42 -51 -46 l0 0 Z" /><glyph glyph-name="" unicode="&#x25ca;" d="M233 0 l42 0 l170 350 l-170 349 l-42 0 l-170 -349 l170 -350 ZM255 43 l-150 307 l150 306 l148 -306 l-148 -307 Z" /><glyph glyph-name="" unicode="@" d="M367 -136 q51 0 101 12 q50 12 102 42 l-3 28 q-23 -12 -73 -25 q-51 -12 -98 -13 q-146 5 -201 86 q-54 81 -51 184 q1 143 79 230 q78 88 219 90 q104 -1 161 -56 q58 -56 59 -160 q0 -100 -25 -144 q-26 -44 -76 -44 q-18 -2 -22 12 q-4 14 4 53 l48 244 l-139 0 q-98 -3 -162 -65 q-65 -61 -81 -138 q-17 -88 12 -128 q29 -40 96 -39 q46 3 80 48 q35 45 62 90 l-16 -66 q-7 -31 1 -51 q8 -19 47 -20 q104 3 181 73 q77 70 81 175 q-2 107 -86 180 q-83 74 -220 77 q-151 -1 -274 -98 q-123 -96 -131 -273 q6 -152 103 -228 q98 -76 222 -76 l0 0 ZM328 105 q-20 0 -26 24 q-7 24 3 71 q16 69 50 112 q35 43 68 44 q21 0 38 -4 q18 -4 18 -6 l-21 -96 q-20 -71 -55 -108 q-36 -37 -75 -37 l0 0 Z" /><glyph glyph-name="" unicode="&amp;" d="M750 -77 l-226 205 l113 267 l-145 0 l0 -238 l-234 213 q-1 2 -6 57 q-6 55 -7 141 q0 54 24 78 q23 23 66 23 q40 0 63 -23 q23 -24 24 -78 q0 -45 -12 -84 q-11 -40 -31 -59 l6 -10 q42 19 85 58 q44 39 47 99 q0 66 -48 103 q-47 36 -135 37 q-92 -1 -147 -44 q-56 -44 -58 -123 q-1 -45 24 -90 q25 -45 85 -94 q-52 -13 -110 -55 q-58 -42 -63 -124 q2 -95 73 -144 q70 -48 186 -48 q46 0 92 14 q45 13 80 39 q45 -52 100 -120 l154 0 ZM332 32 q-67 1 -104 39 q-38 39 -39 110 q4 80 35 115 q30 36 34 35 l212 -256 q-24 -20 -58 -32 q-35 -11 -80 -11 l0 0 Z" /><glyph glyph-name="" unicode="¶" d="M312 0 l114 0 l0 685 l50 0 l0 -685 l76 0 l0 611 q1 53 34 66 q33 12 82 10 l0 13 l-398 0 q-100 -1 -152 -45 q-53 -44 -53 -121 q0 -78 52 -122 q52 -44 153 -45 l42 0 l0 -367 Z" /><glyph glyph-name="" unicode="§" d="M307 247 q40 10 73 36 q32 26 34 74 q0 68 -56 109 q-56 41 -149 86 q-28 15 -45 32 q-17 17 -17 43 q2 27 29 37 q28 10 62 9 q61 1 89 -24 q28 -24 30 -87 l31 0 l0 128 q-4 1 -48 10 q-44 10 -91 11 q-67 0 -125 -24 q-58 -23 -62 -87 q3 -54 45 -86 q42 -31 85 -51 q-47 -2 -87 -30 q-39 -28 -42 -78 q2 -55 42 -88 q40 -34 95 -57 q90 -43 114 -73 q23 -30 20 -57 q-1 -23 -30 -36 q-30 -13 -76 -13 q-71 -2 -108 26 q-37 27 -45 101 l-31 0 l-1 -149 q68 -10 112 -14 q44 -5 66 -5 q73 -1 134 29 q60 29 65 94 q-2 53 -37 85 q-36 31 -76 49 l0 0 ZM205 456 q-4 2 -6 3 l6 -3 ZM268 268 q-74 32 -97 50 q-22 19 -20 47 q0 30 18 53 q18 22 57 23 q49 -6 74 -35 q24 -29 24 -52 q-3 -51 -28 -68 q-24 -17 -28 -18 l0 0 Z" /><glyph glyph-name="" unicode="©" d="M63 213 q6 -154 115 -237 q109 -84 243 -85 q135 1 243 85 q109 83 116 237 q-7 156 -116 239 q-108 83 -243 84 q-134 -1 -243 -84 q-109 -83 -115 -239 l0 0 ZM152 213 q1 126 72 205 q71 79 197 81 q125 -2 196 -81 q72 -79 73 -205 q-1 -125 -73 -203 q-71 -78 -196 -80 q-126 2 -197 80 q-71 78 -72 203 l0 0 ZM437 39 q63 5 98 39 q34 33 35 38 l-5 30 q0 -4 -27 -31 q-28 -27 -81 -31 q-41 -2 -73 28 q-32 29 -34 113 q2 85 36 120 q34 34 72 33 q42 -2 60 -29 q18 -27 22 -56 l9 0 l0 111 q-3 0 -36 4 q-32 3 -55 3 q-79 0 -142 -46 q-63 -46 -67 -139 q3 -96 60 -142 q57 -45 128 -45 l0 0 Z" /><glyph glyph-name="" unicode="®" d="M400 536 q-134 -1 -243 -84 q-109 -83 -115 -239 q6 -154 115 -237 q109 -84 243 -85 q135 1 243 85 q109 83 116 237 q-7 156 -116 239 q-108 83 -243 84 l0 0 ZM400 -87 q-126 3 -197 89 q-71 85 -72 211 q1 127 72 213 q71 87 197 90 q125 -3 196 -90 q72 -86 73 -213 q-1 -126 -73 -211 q-71 -86 -196 -89 l0 0 ZM539 102 q-26 35 -49 74 q-24 38 -34 55 q44 7 73 31 q29 24 30 64 q-1 45 -35 67 q-34 22 -94 22 l-223 0 l0 -25 q25 1 42 -5 q17 -7 18 -35 l0 -245 q-1 -28 -18 -35 q-17 -7 -42 -6 l0 -25 l206 0 l0 25 q-28 -1 -45 6 q-17 6 -18 35 l0 131 q2 -1 8 -2 q7 -1 16 -3 l-2 0 q58 -96 115 -192 q30 0 61 0 q31 0 61 0 l-1 26 q-16 0 -36 10 q-19 9 -33 27 l0 0 ZM350 346 q0 15 7 25 q8 11 25 11 l25 0 q34 1 50 -10 q16 -11 16 -43 q0 -35 -17 -53 q-17 -19 -50 -19 q-12 0 -28 3 q-17 2 -28 6 l0 80 Z" /><glyph glyph-name="" unicode="&#x2122;" d="M100 328 l213 0 l0 23 q-25 -1 -42 7 q-17 7 -18 34 l0 279 l36 0 q42 1 49 -14 q7 -14 11 -50 l22 0 l0 93 l-329 0 l0 -93 l23 0 q4 36 11 50 q7 15 48 14 l38 0 l0 -279 q-1 -27 -18 -35 q-18 -7 -44 -6 l0 -23 ZM390 330 l160 0 l0 23 q-27 -1 -49 7 q-22 7 -22 34 l13 258 l122 -322 l66 0 l117 310 q4 -75 7 -126 q3 -51 7 -120 q1 -27 -17 -34 q-19 -8 -45 -7 l0 -23 l206 0 l0 23 q-25 -1 -38 7 q-13 8 -16 34 q-6 71 -11 119 q-5 48 -13 123 q-1 25 16 34 q16 10 38 9 l0 19 l-140 0 q-29 -78 -55 -147 q-25 -68 -56 -147 q-30 79 -57 147 q-27 69 -56 147 l-161 0 l0 -22 q25 0 39 -9 q14 -9 14 -31 l-14 -242 q-2 -26 -16 -34 q-14 -8 -39 -7 l0 -23 Z" /><glyph glyph-name="" unicode="°" d="M168 461 q54 1 89 36 q35 35 36 89 q-1 54 -36 89 q-35 35 -89 36 q-54 -1 -89 -36 q-35 -35 -36 -89 q1 -54 36 -89 q35 -35 89 -36 l0 0 ZM168 507 q-33 1 -52 23 q-19 23 -19 56 q0 33 19 55 q19 22 52 23 q33 -1 52 -23 q19 -22 19 -55 q0 -33 -19 -56 q-19 -22 -52 -23 l0 0 Z" /><glyph glyph-name="" unicode="|" d="M250 -50 l56 0 l0 788 l-56 0 l0 -788 Z" /><glyph glyph-name="" unicode="¦" d="M250 436 l56 0 l0 302 l-56 0 l0 -302 ZM250 -53 l56 0 l0 302 l-56 0 l0 -302 Z" /><glyph glyph-name="" unicode="&#x2020;" d="M221 -130 l55 0 l0 524 l181 0 l0 38 l-181 0 l0 278 l-55 0 l0 -278 l-179 0 l0 -38 l179 0 l0 -524 Z" /><glyph glyph-name="" unicode="&#x2021;" d="M221 -130 l55 0 l0 267 l181 0 l0 39 l-181 0 l0 217 l181 0 l0 39 l-181 0 l0 278 l-55 0 l0 -278 l-179 0 l0 -39 l179 0 l0 -217 l-179 0 l0 -39 l179 0 l0 -267 Z" /><glyph glyph-name="" unicode="&#x308;" d="M-265 509 q25 1 42 17 q16 16 17 39 q-1 25 -17 42 q-17 16 -42 17 q-24 -1 -39 -17 q-15 -17 -15 -42 q0 -23 15 -39 q15 -16 39 -17 l0 0 ZM-82 509 q25 1 42 17 q17 16 18 39 q-1 25 -18 42 q-17 16 -42 17 q-24 -1 -38 -17 q-15 -17 -15 -42 q0 -23 15 -39 q14 -16 38 -17 l0 0 Z" /><glyph glyph-name="" unicode="&#x307;" d="M-85 483 q27 1 45 19 q17 18 18 45 q-1 25 -18 43 q-18 17 -45 18 q-28 -1 -45 -18 q-18 -18 -19 -43 q1 -27 19 -45 q17 -18 45 -19 l0 0 Z" /><glyph glyph-name="" unicode="&#x300;" d="M-55 495 l33 0 l-61 176 l-107 0 l135 -176 Z" /><glyph glyph-name="" unicode="&#x301;" d="M-190 495 l22 0 l146 178 l-109 0 l-59 -178 Z" /><glyph glyph-name="" unicode="&#x30b;" d="M-336 495 l22 0 l146 178 l-109 0 l-59 -178 ZM-190 495 l21 0 l147 178 l-109 0 l-59 -178 Z" /><glyph glyph-name="" unicode="&#x302;" d="M-290 486 l33 0 l101 87 l101 -87 l33 0 l-103 145 l-62 0 l-103 -145 Z" /><glyph glyph-name="" unicode="&#x30c;" d="M-187 512 l62 0 l103 148 l-22 0 l-112 -80 l-113 80 l-21 0 l103 -148 Z" /><glyph glyph-name="" unicode="&#x306;" d="M-160 522 q86 9 113 69 q27 60 25 69 l-8 0 q1 -4 -27 -32 q-29 -29 -104 -33 q-75 4 -103 33 q-28 28 -27 32 l-7 0 q-3 -9 24 -69 q27 -60 114 -69 l0 0 Z" /><glyph glyph-name="" unicode="&#x30a;" d="M-116 511 q42 1 70 22 q28 21 29 50 q-1 32 -29 54 q-28 22 -70 23 q-42 -1 -70 -23 q-27 -22 -28 -54 q1 -29 28 -50 q28 -21 70 -22 l0 0 ZM-116 550 q-15 0 -25 10 q-10 10 -10 24 q0 14 10 24 q10 10 25 10 q15 0 26 -10 q10 -10 10 -24 q0 -14 -10 -24 q-11 -10 -26 -10 l0 0 Z" /><glyph glyph-name="" unicode="&#x303;" d="M-87 514 q31 3 45 41 q15 38 20 70 l-12 0 q1 -2 -10 -17 q-10 -16 -40 -18 q-32 2 -61 18 q-29 16 -64 18 q-31 -3 -44 -41 q-14 -38 -21 -70 l12 0 q-1 2 10 18 q10 15 40 17 q29 -2 60 -18 q31 -16 65 -18 l0 0 Z" /><glyph glyph-name="" unicode="&#x304;" d="M-279 539 l257 0 l0 34 l-257 0 l0 -34 Z" /><glyph glyph-name="" unicode="&#x309;" d="M-115 527 q18 6 54 40 q35 34 39 75 q0 29 -22 50 q-21 20 -62 21 q-53 -5 -82 -40 q-29 -36 -29 -41 l4 -5 q7 7 26 18 q19 10 43 11 q31 -2 42 -20 q12 -19 11 -36 q-1 -25 -10 -42 q-10 -16 -19 -26 l5 -5 Z" /><glyph glyph-name="" unicode="&#x312;" d="M-168 504 l10 0 l136 184 l-98 12 l-48 -196 Z" /><glyph glyph-name="" unicode="&#x31b;" d="M-211 556 q77 6 112 35 q35 29 34 66 q0 8 -2 15 q-1 8 -3 14 l-64 -3 q16 -39 18 -64 q2 -26 -49 -32 l-45 -5 l-1 -26 Z" /><glyph glyph-name="" unicode="&#x323;" d="M-85 -169 q27 1 45 19 q17 18 18 45 q-1 25 -18 43 q-18 17 -45 18 q-28 -1 -45 -18 q-18 -18 -19 -43 q1 -27 19 -45 q17 -18 45 -19 l0 0 Z" /><glyph glyph-name="" unicode="&#x326;" d="M-168 -229 l10 0 l136 184 l-98 12 l-48 -196 Z" /><glyph glyph-name="" unicode="&#x327;" d="M-112 -69 l-8 -2 l12 71 l-12 0 l-50 -80 q37 -1 57 -13 q21 -11 21 -34 q0 -22 -10 -35 q-10 -14 -27 -14 q-18 1 -31 8 q-13 6 -14 7 l0 -14 q1 -1 26 -10 q24 -10 60 -11 q36 0 56 17 q19 16 19 44 q0 31 -25 48 q-25 16 -74 18 l0 0 Z" /><glyph glyph-name="" unicode="&#x328;" d="M-127 -196 q45 1 74 11 q30 9 31 10 l0 22 q-1 0 -14 -1 q-14 -2 -33 -2 q-18 0 -26 12 q-7 11 -6 29 q0 21 13 52 q12 31 32 63 l-20 0 q-41 -31 -76 -68 q-36 -38 -38 -73 q1 -28 18 -41 q18 -14 45 -14 l0 0 Z" /><glyph glyph-name="" unicode="&#x335;" d="M-389 526 l326 0 l0 35 l-326 0 l0 -35 Z" /><glyph glyph-name="" unicode="&#x336;" d="M-714 498 l714 0 l0 39 l-714 0 l0 -39 Z" /><glyph glyph-name="" unicode="&#x337;" d="M-282 329 l266 106 l0 19 l-266 -106 l0 -19 Z" /><glyph glyph-name="" unicode="&#x338;" d="M-495 -50 l35 0 l460 770 l-35 0 l-460 -770 Z" /><glyph glyph-name="" unicode="´" d="M22 495 l22 0 l146 178 l-109 0 l-59 -178 Z" /><glyph glyph-name="" unicode="&#x2d8;" d="M160 522 q86 9 113 69 q27 60 25 69 l-8 0 q1 -3 -27 -27 q-29 -25 -104 -28 q-75 3 -103 28 q-28 24 -27 27 l-7 0 q-3 -9 24 -69 q27 -60 114 -69 l0 0 Z" /><glyph glyph-name="" unicode="&#x2c7;" d="M125 512 l62 0 l103 148 l-22 0 l-112 -80 l-113 80 l-21 0 l103 -148 Z" /><glyph glyph-name="" unicode="¸" d="M74 -69 l-8 -2 l12 71 l-12 0 l-50 -80 q37 -1 57 -13 q21 -11 21 -34 q0 -22 -10 -35 q-10 -14 -27 -14 q-18 1 -31 8 q-13 6 -14 7 l0 -14 q1 -1 26 -10 q24 -10 60 -11 q36 0 56 17 q19 16 19 44 q0 31 -25 48 q-25 16 -74 18 l0 0 Z" /><glyph glyph-name="" unicode="&#x2c6;" d="M22 486 l33 0 l101 87 l101 -87 l33 0 l-103 145 l-62 0 l-103 -145 Z" /><glyph glyph-name="" unicode="¨" d="M76 509 q25 1 42 17 q16 16 17 39 q-1 25 -17 42 q-17 16 -42 17 q-24 -1 -39 -17 q-15 -17 -15 -42 q0 -23 15 -39 q15 -16 39 -17 l0 0 ZM259 509 q25 1 42 17 q17 16 18 39 q-1 25 -18 42 q-17 16 -42 17 q-24 -1 -38 -17 q-15 -17 -15 -42 q0 -23 15 -39 q14 -16 38 -17 l0 0 Z" /><glyph glyph-name="" unicode="&#x2d9;" d="M86 483 q27 1 45 19 q17 18 18 45 q-1 25 -18 43 q-18 17 -45 18 q-28 -1 -45 -18 q-18 -18 -19 -43 q1 -27 19 -45 q17 -18 45 -19 l0 0 Z" /><glyph glyph-name="" unicode="`" d="M157 495 l33 0 l-61 176 l-107 0 l135 -176 Z" /><glyph glyph-name="" unicode="&#x2dd;" d="M22 495 l22 0 l146 178 l-109 0 l-59 -178 ZM168 495 l21 0 l147 178 l-109 0 l-59 -178 Z" /><glyph glyph-name="" unicode="¯" d="M22 539 l257 0 l0 34 l-257 0 l0 -34 Z" /><glyph glyph-name="" unicode="&#x2db;" d="M76 -196 q45 1 74 11 q30 9 31 10 l0 22 q-1 0 -14 -1 q-14 -2 -33 -2 q-18 0 -26 12 q-7 11 -6 29 q0 21 13 52 q12 31 32 63 l-19 0 q-41 -31 -77 -68 q-36 -38 -38 -73 q1 -28 18 -41 q18 -14 45 -14 l0 0 Z" /><glyph glyph-name="" unicode="&#x2da;" d="M115 511 q42 1 70 22 q28 21 29 50 q-1 32 -29 54 q-28 22 -70 23 q-42 -1 -70 -23 q-27 -22 -28 -54 q1 -29 28 -50 q28 -21 70 -22 l0 0 ZM115 550 q-15 0 -25 10 q-10 10 -10 24 q0 14 10 24 q10 10 25 10 q15 0 26 -10 q10 -10 10 -24 q0 -14 -10 -24 q-11 -10 -26 -10 l0 0 Z" /><glyph glyph-name="" unicode="&#x2dc;" d="M209 514 q31 3 45 41 q15 38 20 70 l-12 0 q1 -2 -10 -17 q-10 -16 -40 -18 q-32 2 -61 18 q-29 16 -64 18 q-31 -3 -44 -41 q-14 -38 -21 -70 l12 0 q-1 2 10 18 q10 15 40 17 q29 -2 60 -18 q31 -16 65 -18 l0 0 Z" /></font>
</defs>
</svg>
