<?xml version="1.0" standalone="no"?><!DOCTYPE svg PUBLIC "-//W3C//DTD SVG 1.1//EN" "http://www.w3.org/Graphics/SVG/1.1/DTD/svg11.dtd" ><svg xmlns="http://www.w3.org/2000/svg"><metadata></metadata><defs><font id="1.001;UKWN;Bota-Italic" horiz-adv-x="1008"><font-face font-family="Bota" font-weight="400" font-stretch="normal" units-per-em="1000" panose-1="0 0 5 0 0 0 0 0 0 0" ascent="910" descent="-290" x-height="0" bbox="-551 -407 1115 1059" underline-thickness="19" underline-position="-105" unicode-range="U+0020-25ca" /><missing-glyph horiz-adv-x="510" d="M418 730 l-323 0 l0 -1020 l323 0 l0 1020 ZM340 662 l0 -34 l-68 0 l0 -38 l68 0 l0 -33 l-170 0 l0 33 l68 0 l0 38 l-67 0 l0 34 l169 0 ZM272 530 l0 -71 l68 0 l0 -35 l-170 0 l0 106 l102 0 ZM238 495 l-34 0 l0 -36 l34 0 l0 36 ZM340 396 l0 -33 l-68 0 l0 -72 l-102 0 l0 34 l68 0 l0 38 l-68 0 l0 33 l170 0 ZM340 335 l0 -102 l-170 0 l0 35 l136 0 l0 67 l34 0 ZM340 211 l0 -115 l-170 0 l0 115 l34 0 l0 -82 l102 0 l0 48 l-34 0 l0 -23 l-34 0 l0 57 l102 0 ZM340 34 l0 -115 l-170 0 l0 115 l170 0 ZM306 1 l-102 0 l0 -48 l102 0 l0 48 ZM340 -104 l0 -34 l-33 0 l-71 -48 l104 0 l0 -34 l-170 0 l0 34 l72 48 l-72 0 l0 34 l170 0 Z" /><glyph glyph-name="" unicode=" " d="" /><glyph glyph-name="" unicode="A" d="M550 98 l-68 616 l-21 1 l-372 -614 q-30 -51 -61 -69 q-32 -17 -88 -16 l0 -16 l263 0 l0 16 l-39 0 q-36 -2 -58 9 q-22 11 4 58 q9 16 39 68 q30 51 70 119 l233 0 q8 -80 17 -185 q3 -49 -30 -60 q-34 -11 -79 -9 l-27 0 l0 -16 l316 0 l0 15 q-59 0 -77 17 q-18 17 -22 66 l0 0 ZM233 293 q68 115 125 210 q56 95 61 101 q1 3 8 -65 q7 -68 23 -246 l-217 0 Z" /><glyph glyph-name="" unicode="Á" d="M630 933 l-78 0 l-101 -176 l16 0 l163 176 ZM550 98 l-68 616 l-21 1 l-372 -614 q-30 -51 -61 -69 q-32 -17 -88 -16 l0 -16 l263 0 l0 16 l-39 0 q-36 -2 -58 9 q-22 11 4 58 q9 16 39 68 q30 51 70 119 l233 0 q8 -80 17 -185 q3 -49 -30 -60 q-34 -11 -79 -9 l-27 0 l0 -16 l316 0 l0 15 q-59 0 -77 17 q-18 17 -22 66 l0 0 ZM233 293 q68 115 125 210 q56 95 61 101 q1 3 8 -65 q7 -68 23 -246 l-217 0 Z" /><glyph glyph-name="" unicode="&#x102;" d="M484 760 q73 9 113 69 q39 60 40 69 l-12 0 q-1 -5 -38 -42 q-37 -37 -104 -42 q-59 5 -74 42 q-16 37 -14 42 l-9 0 q-4 -9 10 -69 q14 -60 88 -69 l0 0 ZM550 98 l-68 616 l-21 1 l-372 -614 q-30 -51 -61 -69 q-32 -17 -88 -16 l0 -16 l263 0 l0 16 l-39 0 q-36 -2 -58 9 q-22 11 4 58 q9 16 39 68 q30 51 70 119 l233 0 q8 -80 17 -185 q3 -49 -30 -60 q-34 -11 -79 -9 l-27 0 l0 -16 l316 0 l0 15 q-59 0 -77 17 q-18 17 -22 66 l0 0 ZM233 293 q68 115 125 210 q56 95 61 101 q1 3 8 -65 q7 -68 23 -246 l-217 0 Z" /><glyph glyph-name="" unicode="&#x1eb6;" d="M484 760 q73 9 113 69 q39 60 40 69 l-12 0 q-1 -5 -38 -42 q-37 -37 -104 -42 q-59 5 -74 42 q-16 37 -14 42 l-9 0 q-4 -9 10 -69 q14 -60 88 -69 l0 0 ZM550 98 l-68 616 l-21 1 l-372 -614 q-30 -51 -61 -69 q-32 -17 -88 -16 l0 -16 l263 0 l0 16 l-39 0 q-36 -2 -58 9 q-22 11 4 58 q9 16 39 68 q30 51 70 119 l233 0 q8 -80 17 -185 q3 -49 -30 -60 q-34 -11 -79 -9 l-27 0 l0 -16 l316 0 l0 15 q-59 0 -77 17 q-18 17 -22 66 l0 0 ZM233 293 q68 115 125 210 q56 95 61 101 q1 3 8 -65 q7 -68 23 -246 l-217 0 ZM281 -71 q-18 -1 -33 -15 q-14 -14 -19 -34 q-5 -22 6 -36 q11 -15 35 -16 q17 1 33 15 q15 14 20 34 q5 22 -7 37 q-13 14 -35 15 l0 0 Z" /><glyph glyph-name="" unicode="&#x1cd;" d="M506 777 l136 145 l-14 0 l-130 -90 l-87 90 l-10 0 l70 -145 l35 0 ZM550 98 l-68 616 l-21 1 l-372 -614 q-30 -51 -61 -69 q-32 -17 -88 -16 l0 -16 l263 0 l0 16 l-39 0 q-36 -2 -58 9 q-22 11 4 58 q9 16 39 68 q30 51 70 119 l233 0 q8 -80 17 -185 q3 -49 -30 -60 q-34 -11 -79 -9 l-27 0 l0 -16 l316 0 l0 15 q-59 0 -77 17 q-18 17 -22 66 l0 0 ZM233 293 q68 115 125 210 q56 95 61 101 q1 3 8 -65 q7 -68 23 -246 l-217 0 Z" /><glyph glyph-name="" unicode="Â" d="M501 841 l82 -93 l14 0 l-70 145 l-35 0 l-136 -145 l19 0 l126 93 ZM550 98 l-68 616 l-21 1 l-372 -614 q-30 -51 -61 -69 q-32 -17 -88 -16 l0 -16 l263 0 l0 16 l-39 0 q-36 -2 -58 9 q-22 11 4 58 q9 16 39 68 q30 51 70 119 l233 0 q8 -80 17 -185 q3 -49 -30 -60 q-34 -11 -79 -9 l-27 0 l0 -16 l316 0 l0 15 q-59 0 -77 17 q-18 17 -22 66 l0 0 ZM233 293 q68 115 125 210 q56 95 61 101 q1 3 8 -65 q7 -68 23 -246 l-217 0 Z" /><glyph glyph-name="" unicode="&#x1eac;" d="M501 841 l82 -93 l14 0 l-70 145 l-35 0 l-136 -145 l19 0 l126 93 ZM550 98 l-68 616 l-21 1 l-372 -614 q-30 -51 -61 -69 q-32 -17 -88 -16 l0 -16 l263 0 l0 16 l-39 0 q-36 -2 -58 9 q-22 11 4 58 q9 16 39 68 q30 51 70 119 l233 0 q8 -80 17 -185 q3 -49 -30 -60 q-34 -11 -79 -9 l-27 0 l0 -16 l316 0 l0 15 q-59 0 -77 17 q-18 17 -22 66 l0 0 ZM233 293 q68 115 125 210 q56 95 61 101 q1 3 8 -65 q7 -68 23 -246 l-217 0 ZM281 -71 q-18 -1 -33 -15 q-14 -14 -19 -34 q-5 -22 6 -36 q11 -15 35 -16 q17 1 33 15 q15 14 20 34 q5 22 -7 37 q-13 14 -35 15 l0 0 Z" /><glyph glyph-name="" unicode="Ä" d="M426 786 q15 1 28 13 q13 12 17 30 q3 18 -7 31 q-10 12 -30 13 q-15 -1 -27 -13 q-12 -12 -16 -30 q-4 -18 6 -31 q9 -12 29 -13 l0 0 ZM564 786 q16 1 29 14 q12 12 16 28 q4 19 -6 32 q-10 12 -31 13 q-15 -1 -27 -13 q-12 -12 -16 -29 q-4 -19 6 -31 q9 -13 29 -14 l0 0 ZM550 98 l-68 616 l-21 1 l-372 -614 q-30 -51 -61 -69 q-32 -17 -88 -16 l0 -16 l263 0 l0 16 l-39 0 q-36 -2 -58 9 q-22 11 4 58 q9 16 39 68 q30 51 70 119 l233 0 q8 -80 17 -185 q3 -49 -30 -60 q-34 -11 -79 -9 l-27 0 l0 -16 l316 0 l0 15 q-59 0 -77 17 q-18 17 -22 66 l0 0 ZM233 293 q68 115 125 210 q56 95 61 101 q1 3 8 -65 q7 -68 23 -246 l-217 0 Z" /><glyph glyph-name="" unicode="&#x1ea0;" d="M550 98 l-68 616 l-21 1 l-372 -614 q-30 -51 -61 -69 q-32 -17 -88 -16 l0 -16 l263 0 l0 16 l-39 0 q-36 -2 -58 9 q-22 11 4 58 q9 16 39 68 q30 51 70 119 l233 0 q8 -80 17 -185 q3 -49 -30 -60 q-34 -11 -79 -9 l-27 0 l0 -16 l316 0 l0 15 q-59 0 -77 17 q-18 17 -22 66 l0 0 ZM233 293 q68 115 125 210 q56 95 61 101 q1 3 8 -65 q7 -68 23 -246 l-217 0 ZM281 -71 q-18 -1 -33 -15 q-14 -14 -19 -34 q-5 -22 6 -36 q11 -15 35 -16 q17 1 33 15 q15 14 20 34 q5 22 -7 37 q-13 14 -35 15 l0 0 Z" /><glyph glyph-name="" unicode="À" d="M500 757 l-19 176 l-74 0 l78 -176 l15 0 ZM550 98 l-68 616 l-21 1 l-372 -614 q-30 -51 -61 -69 q-32 -17 -88 -16 l0 -16 l263 0 l0 16 l-39 0 q-36 -2 -58 9 q-22 11 4 58 q9 16 39 68 q30 51 70 119 l233 0 q8 -80 17 -185 q3 -49 -30 -60 q-34 -11 -79 -9 l-27 0 l0 -16 l316 0 l0 15 q-59 0 -77 17 q-18 17 -22 66 l0 0 ZM233 293 q68 115 125 210 q56 95 61 101 q1 3 8 -65 q7 -68 23 -246 l-217 0 Z" /><glyph glyph-name="" unicode="&#x1ea2;" d="M447 891 q27 -1 37 -19 q11 -18 10 -35 q-1 -28 -11 -45 q-11 -18 -17 -25 l4 -5 q16 6 42 34 q27 28 30 62 q0 29 -19 48 q-19 20 -55 21 q-42 -4 -64 -30 q-23 -26 -23 -30 l3 -5 q7 7 24 18 q18 10 39 11 l0 0 ZM550 98 l-68 616 l-21 1 l-372 -614 q-30 -51 -61 -69 q-32 -17 -88 -16 l0 -16 l263 0 l0 16 l-39 0 q-36 -2 -58 9 q-22 11 4 58 q9 16 39 68 q30 51 70 119 l233 0 q8 -80 17 -185 q3 -49 -30 -60 q-34 -11 -79 -9 l-27 0 l0 -16 l316 0 l0 15 q-59 0 -77 17 q-18 17 -22 66 l0 0 ZM233 293 q68 115 125 210 q56 95 61 101 q1 3 8 -65 q7 -68 23 -246 l-217 0 Z" /><glyph glyph-name="" unicode="&#x100;" d="M593 829 l-205 0 l-7 -28 l205 0 l7 28 ZM550 98 l-68 616 l-21 1 l-372 -614 q-30 -51 -61 -69 q-32 -17 -88 -16 l0 -16 l263 0 l0 16 l-39 0 q-36 -2 -58 9 q-22 11 4 58 q9 16 39 68 q30 51 70 119 l233 0 q8 -80 17 -185 q3 -49 -30 -60 q-34 -11 -79 -9 l-27 0 l0 -16 l316 0 l0 15 q-59 0 -77 17 q-18 17 -22 66 l0 0 ZM233 293 q68 115 125 210 q56 95 61 101 q1 3 8 -65 q7 -68 23 -246 l-217 0 Z" /><glyph glyph-name="" unicode="&#x104;" d="M550 98 l-68 616 l-21 1 l-372 -614 q-30 -51 -61 -69 q-32 -17 -88 -16 l0 -16 l263 0 l0 16 l-39 0 q-36 -2 -58 9 q-22 11 4 58 q9 16 39 68 q30 51 70 119 l233 0 q8 -80 17 -185 q3 -49 -30 -60 q-34 -11 -79 -9 l-27 0 l0 -16 l296 0 q-33 -29 -66 -67 q-33 -38 -43 -73 q-5 -28 9 -42 q14 -14 41 -14 q28 1 47 11 q19 9 20 10 l2 22 q-1 -1 -15 -6 q-14 -5 -33 -6 q-14 0 -16 12 q-3 11 3 28 q5 22 25 58 q20 36 45 67 l1 0 l0 15 q-59 0 -77 17 q-18 17 -22 66 l0 0 ZM233 293 q68 115 125 210 q56 95 61 101 q1 3 8 -65 q7 -68 23 -246 l-217 0 Z" /><glyph glyph-name="" unicode="Å" d="M486 765 q30 1 53 18 q23 17 30 42 q5 26 -14 44 q-19 18 -54 19 q-30 -1 -53 -18 q-23 -18 -30 -44 q-5 -25 14 -42 q18 -18 54 -19 l0 0 ZM461 823 q4 16 18 26 q13 10 29 10 q11 0 16 -10 q5 -9 2 -24 q-4 -14 -17 -24 q-14 -10 -31 -10 q-11 1 -15 10 q-4 10 -2 22 l0 0 ZM550 98 l-68 616 l-21 1 l-372 -614 q-30 -51 -61 -69 q-32 -17 -88 -16 l0 -16 l263 0 l0 16 l-39 0 q-36 -2 -58 9 q-22 11 4 58 q9 16 39 68 q30 51 70 119 l233 0 q8 -80 17 -185 q3 -49 -30 -60 q-34 -11 -79 -9 l-27 0 l0 -16 l316 0 l0 15 q-59 0 -77 17 q-18 17 -22 66 l0 0 ZM233 293 q68 115 125 210 q56 95 61 101 q1 3 8 -65 q7 -68 23 -246 l-217 0 Z" /><glyph glyph-name="" unicode="Ã" d="M440 821 q23 -2 48 -18 q24 -16 56 -18 q25 2 41 28 q17 27 28 57 l-9 1 q0 -2 -14 -18 q-15 -16 -45 -18 q-25 2 -48 18 q-23 16 -56 18 q-26 -2 -41 -28 q-15 -27 -28 -57 l9 0 q0 2 15 18 q14 15 44 17 l0 0 ZM550 98 l-68 616 l-21 1 l-372 -614 q-30 -51 -61 -69 q-32 -17 -88 -16 l0 -16 l263 0 l0 16 l-39 0 q-36 -2 -58 9 q-22 11 4 58 q9 16 39 68 q30 51 70 119 l233 0 q8 -80 17 -185 q3 -49 -30 -60 q-34 -11 -79 -9 l-27 0 l0 -16 l316 0 l0 15 q-59 0 -77 17 q-18 17 -22 66 l0 0 ZM233 293 q68 115 125 210 q56 95 61 101 q1 3 8 -65 q7 -68 23 -246 l-217 0 Z" /><glyph glyph-name="" unicode="Æ" d="M-60 0 l237 0 l5 16 l-42 0 q-34 -1 -53 11 q-19 13 15 57 q22 27 54 72 q33 45 85 118 l202 0 l-42 -182 q-13 -52 -48 -67 q-34 -16 -79 -14 l2 -11 l478 0 l48 204 l-14 1 q-40 -107 -74 -145 q-35 -38 -91 -36 l-105 0 q-35 0 -44 16 q-8 16 1 51 l63 276 l113 0 q48 2 63 -22 q15 -25 6 -103 l12 0 l65 273 l-13 1 q-26 -77 -56 -102 q-30 -26 -78 -24 l-106 0 l49 218 q11 44 33 57 q22 12 49 11 l91 0 q60 1 76 -35 q15 -36 6 -117 l13 0 l42 176 l-372 0 q-12 -19 -157 -226 q-144 -207 -291 -375 q-40 -46 -66 -65 q-26 -19 -77 -18 l0 -16 ZM260 297 q53 71 143 194 q90 124 133 178 l-88 -371 l-188 -1 Z" /><glyph glyph-name="" unicode="B" d="M-16 0 l323 0 q93 0 168 47 q75 48 101 148 q14 72 -27 116 q-41 43 -109 56 q57 14 109 55 q53 42 71 111 q17 87 -37 127 q-54 40 -151 40 l-286 0 l0 -15 q40 1 64 -15 q24 -17 13 -69 l-116 -499 q-14 -55 -49 -72 q-34 -17 -74 -15 l0 -15 ZM348 374 q-41 1 -68 9 q-26 7 -27 8 l50 217 q7 29 28 48 q21 19 57 20 l53 0 q68 -1 91 -39 q22 -39 7 -104 q-15 -67 -63 -112 q-48 -45 -128 -47 l0 0 ZM225 24 q-32 1 -40 19 q-8 19 -1 48 l66 275 q2 -1 34 -8 q31 -7 70 -8 q19 0 50 3 q63 -10 82 -55 q19 -46 5 -104 q-16 -69 -63 -118 q-48 -50 -123 -52 l-80 0 Z" /><glyph glyph-name="" unicode="C" d="M362 -10 q67 2 145 15 q77 13 84 15 l44 190 l-14 1 q-35 -113 -102 -156 q-67 -43 -165 -41 q-117 2 -165 92 q-47 89 -12 244 q38 155 130 245 q93 89 216 91 q91 0 128 -42 q37 -41 32 -119 l12 0 l36 162 q-5 1 -72 12 q-67 10 -130 11 q-170 -4 -287 -105 q-117 -101 -154 -253 q-36 -155 29 -257 q65 -101 245 -105 l0 0 Z" /><glyph glyph-name="" unicode="&#x106;" d="M507 751 l16 0 l163 176 l-78 0 l-101 -176 ZM362 -10 q67 2 145 15 q77 13 84 15 l44 190 l-14 1 q-35 -113 -102 -156 q-67 -43 -165 -41 q-117 2 -165 92 q-47 89 -12 244 q38 155 130 245 q93 89 216 91 q91 0 128 -42 q37 -41 32 -119 l12 0 l36 162 q-5 1 -72 12 q-67 10 -130 11 q-170 -4 -287 -105 q-117 -101 -154 -253 q-36 -155 29 -257 q65 -101 245 -105 l0 0 Z" /><glyph glyph-name="" unicode="&#x10c;" d="M528 771 l35 0 l136 145 l-14 0 l-130 -90 l-87 90 l-10 0 l70 -145 ZM362 -10 q67 2 145 15 q77 13 84 15 l44 190 l-14 1 q-35 -113 -102 -156 q-67 -43 -165 -41 q-117 2 -165 92 q-47 89 -12 244 q38 155 130 245 q93 89 216 91 q91 0 128 -42 q37 -41 32 -119 l12 0 l36 162 q-5 1 -72 12 q-67 10 -130 11 q-170 -4 -287 -105 q-117 -101 -154 -253 q-36 -155 29 -257 q65 -101 245 -105 l0 0 Z" /><glyph glyph-name="" unicode="Ç" d="M529 710 q-170 -4 -287 -105 q-117 -101 -154 -253 q-35 -151 26 -252 q61 -101 229 -110 l-73 -74 l12 2 l-4 -2 q33 -1 43 -12 q11 -11 0 -33 q-9 -23 -30 -37 q-20 -14 -42 -14 q-8 1 -13 7 q-4 6 -4 7 l-2 -13 q0 -1 17 -10 q16 -10 46 -11 q23 0 42 16 q20 15 32 42 q12 30 -2 47 q-15 17 -51 21 l44 64 l4 0 q67 2 145 15 q77 13 84 15 l44 190 l-14 1 q-35 -113 -102 -156 q-67 -43 -165 -41 q-117 2 -165 92 q-47 89 -12 244 q38 155 130 245 q93 89 216 91 q91 0 128 -42 q37 -41 32 -119 l12 0 l36 162 q-5 1 -72 12 q-67 10 -130 11 l0 0 Z" /><glyph glyph-name="" unicode="&#x10a;" d="M554 772 q18 1 33 15 q14 14 20 35 q5 21 -7 36 q-13 14 -35 15 q-18 -1 -32 -15 q-15 -14 -21 -34 q-4 -22 7 -36 q11 -15 35 -16 l0 0 ZM362 -10 q67 2 145 15 q77 13 84 15 l44 190 l-14 1 q-35 -113 -102 -156 q-67 -43 -165 -41 q-117 2 -165 92 q-47 89 -12 244 q38 155 130 245 q93 89 216 91 q91 0 128 -42 q37 -41 32 -119 l12 0 l36 162 q-5 1 -72 12 q-67 10 -130 11 q-170 -4 -287 -105 q-117 -101 -154 -253 q-36 -155 29 -257 q65 -101 245 -105 l0 0 Z" /><glyph glyph-name="" unicode="D" d="M-16 0 l356 0 q174 3 286 100 q111 97 147 249 q34 153 -36 251 q-70 97 -243 100 l-348 0 l-1 -15 q49 2 78 -10 q29 -13 18 -66 l-120 -517 q-13 -51 -50 -65 q-36 -14 -87 -12 l0 -15 ZM294 24 q-50 -3 -80 5 q-30 9 -19 62 l120 517 q14 52 50 61 q37 10 86 7 l44 0 q130 -3 176 -93 q46 -91 14 -231 q-33 -143 -124 -234 q-90 -91 -223 -94 l-44 0 Z" /><glyph glyph-name="" unicode="Ð" d="M494 700 l-348 0 l-1 -15 q49 2 78 -10 q29 -13 18 -66 l-58 -248 l-109 0 l0 -25 l104 0 l-57 -244 q-13 -51 -50 -65 q-36 -14 -87 -12 l0 -15 l356 0 q174 3 286 100 q111 97 147 249 q34 153 -36 251 q-70 97 -243 100 l0 0 ZM685 352 q-33 -143 -124 -234 q-90 -91 -223 -94 l-44 0 q-50 -3 -80 5 q-30 9 -19 62 l57 245 l103 0 l0 25 l-97 0 l57 247 q14 52 50 61 q37 10 86 7 l44 0 q130 -3 176 -93 q46 -91 14 -231 l0 0 Z" /><glyph glyph-name="" unicode="&#x10e;" d="M471 772 l35 0 l136 145 l-14 0 l-130 -90 l-87 90 l-10 0 l70 -145 ZM-16 0 l356 0 q174 3 286 100 q111 97 147 249 q34 153 -36 251 q-70 97 -243 100 l-348 0 l-1 -15 q49 2 78 -10 q29 -13 18 -66 l-120 -517 q-13 -51 -50 -65 q-36 -14 -87 -12 l0 -15 ZM294 24 q-50 -3 -80 5 q-30 9 -19 62 l120 517 q14 52 50 61 q37 10 86 7 l44 0 q130 -3 176 -93 q46 -91 14 -231 q-33 -143 -124 -234 q-90 -91 -223 -94 l-44 0 Z" /><glyph glyph-name="" unicode="&#x110;" d="M494 700 l-348 0 l-1 -15 q49 2 78 -10 q29 -13 18 -66 l-50 -217 l-109 0 l-6 -24 l109 0 l-64 -276 q-13 -51 -50 -65 q-36 -14 -87 -12 l0 -15 l356 0 q174 3 286 100 q111 97 147 249 q34 153 -36 251 q-70 97 -243 100 l0 0 ZM685 352 q-33 -143 -124 -234 q-90 -91 -223 -94 l-44 0 q-50 -3 -80 5 q-30 9 -19 62 l64 277 l155 0 l5 24 l-154 0 l50 216 q14 52 50 61 q37 10 86 7 l44 0 q130 -3 176 -93 q46 -91 14 -231 l0 0 Z" /><glyph glyph-name="" unicode="E" d="M-16 0 l534 0 l46 200 l-15 0 q-37 -94 -73 -135 q-37 -42 -106 -41 l-123 0 q-39 0 -49 16 q-11 15 -2 51 l64 276 l132 0 q56 1 72 -25 q17 -27 11 -100 l13 0 l63 273 l-14 1 q-27 -74 -60 -101 q-33 -27 -87 -25 l-124 0 l50 218 q10 40 31 55 q22 14 57 13 l108 0 q67 1 86 -34 q19 -36 13 -113 l14 -1 l56 172 l-535 0 l0 -15 q53 2 80 -13 q26 -14 16 -63 l-120 -517 q-13 -51 -50 -65 q-36 -14 -88 -12 l0 -15 Z" /><glyph glyph-name="" unicode="É" d="M434 752 l16 0 l163 176 l-78 0 l-101 -176 ZM-16 0 l534 0 l46 200 l-15 0 q-37 -94 -73 -135 q-37 -42 -106 -41 l-123 0 q-39 0 -49 16 q-11 15 -2 51 l64 276 l132 0 q56 1 72 -25 q17 -27 11 -100 l13 0 l63 273 l-14 1 q-27 -74 -60 -101 q-33 -27 -87 -25 l-124 0 l50 218 q10 40 31 55 q22 14 57 13 l108 0 q67 1 86 -34 q19 -36 13 -113 l14 -1 l56 172 l-535 0 l0 -15 q53 2 80 -13 q26 -14 16 -63 l-120 -517 q-13 -51 -50 -65 q-36 -14 -88 -12 l0 -15 Z" /><glyph glyph-name="" unicode="&#x11a;" d="M455 772 l35 0 l136 145 l-14 0 l-130 -90 l-87 90 l-10 0 l70 -145 ZM-16 0 l534 0 l46 200 l-15 0 q-37 -94 -73 -135 q-37 -42 -106 -41 l-123 0 q-39 0 -49 16 q-11 15 -2 51 l64 276 l132 0 q56 1 72 -25 q17 -27 11 -100 l13 0 l63 273 l-14 1 q-27 -74 -60 -101 q-33 -27 -87 -25 l-124 0 l50 218 q10 40 31 55 q22 14 57 13 l108 0 q67 1 86 -34 q19 -36 13 -113 l14 -1 l56 172 l-535 0 l0 -15 q53 2 80 -13 q26 -14 16 -63 l-120 -517 q-13 -51 -50 -65 q-36 -14 -88 -12 l0 -15 Z" /><glyph glyph-name="" unicode="Ê" d="M339 743 l19 0 l126 93 l82 -93 l14 0 l-70 145 l-35 0 l-136 -145 ZM-16 0 l534 0 l46 200 l-15 0 q-37 -94 -73 -135 q-37 -42 -106 -41 l-123 0 q-39 0 -49 16 q-11 15 -2 51 l64 276 l132 0 q56 1 72 -25 q17 -27 11 -100 l13 0 l63 273 l-14 1 q-27 -74 -60 -101 q-33 -27 -87 -25 l-124 0 l50 218 q10 40 31 55 q22 14 57 13 l108 0 q67 1 86 -34 q19 -36 13 -113 l14 -1 l56 172 l-535 0 l0 -15 q53 2 80 -13 q26 -14 16 -63 l-120 -517 q-13 -51 -50 -65 q-36 -14 -88 -12 l0 -15 Z" /><glyph glyph-name="" unicode="&#x1ec6;" d="M339 743 l19 0 l126 93 l82 -93 l14 0 l-70 145 l-35 0 l-136 -145 ZM-16 0 l534 0 l46 200 l-15 0 q-37 -94 -73 -135 q-37 -42 -106 -41 l-123 0 q-39 0 -49 16 q-11 15 -2 51 l64 276 l132 0 q56 1 72 -25 q17 -27 11 -100 l13 0 l63 273 l-14 1 q-27 -74 -60 -101 q-33 -27 -87 -25 l-124 0 l50 218 q10 40 31 55 q22 14 57 13 l108 0 q67 1 86 -34 q19 -36 13 -113 l14 -1 l56 172 l-535 0 l0 -15 q53 2 80 -13 q26 -14 16 -63 l-120 -517 q-13 -51 -50 -65 q-36 -14 -88 -12 l0 -15 ZM270 -172 q17 1 33 15 q15 14 20 34 q5 22 -7 37 q-13 14 -35 15 q-18 -1 -33 -15 q-14 -14 -19 -34 q-5 -22 6 -36 q11 -15 35 -16 l0 0 Z" /><glyph glyph-name="" unicode="Ë" d="M409 781 q15 1 28 13 q13 12 17 30 q3 18 -7 31 q-10 12 -30 13 q-15 -1 -27 -13 q-12 -12 -16 -30 q-4 -18 6 -31 q9 -12 29 -13 l0 0 ZM547 781 q16 1 29 14 q12 12 16 28 q4 19 -6 32 q-10 12 -31 13 q-15 -1 -27 -13 q-12 -12 -16 -29 q-4 -19 6 -31 q9 -13 29 -14 l0 0 ZM-16 0 l534 0 l46 200 l-15 0 q-37 -94 -73 -135 q-37 -42 -106 -41 l-123 0 q-39 0 -49 16 q-11 15 -2 51 l64 276 l132 0 q56 1 72 -25 q17 -27 11 -100 l13 0 l63 273 l-14 1 q-27 -74 -60 -101 q-33 -27 -87 -25 l-124 0 l50 218 q10 40 31 55 q22 14 57 13 l108 0 q67 1 86 -34 q19 -36 13 -113 l14 -1 l56 172 l-535 0 l0 -15 q53 2 80 -13 q26 -14 16 -63 l-120 -517 q-13 -51 -50 -65 q-36 -14 -88 -12 l0 -15 Z" /><glyph glyph-name="" unicode="&#x116;" d="M481 773 q18 1 33 15 q14 14 20 35 q5 21 -7 36 q-13 14 -35 15 q-18 -1 -32 -15 q-15 -14 -21 -34 q-4 -22 7 -36 q11 -15 35 -16 l0 0 ZM-16 0 l534 0 l46 200 l-15 0 q-37 -94 -73 -135 q-37 -42 -106 -41 l-123 0 q-39 0 -49 16 q-11 15 -2 51 l64 276 l132 0 q56 1 72 -25 q17 -27 11 -100 l13 0 l63 273 l-14 1 q-27 -74 -60 -101 q-33 -27 -87 -25 l-124 0 l50 218 q10 40 31 55 q22 14 57 13 l108 0 q67 1 86 -34 q19 -36 13 -113 l14 -1 l56 172 l-535 0 l0 -15 q53 2 80 -13 q26 -14 16 -63 l-120 -517 q-13 -51 -50 -65 q-36 -14 -88 -12 l0 -15 Z" /><glyph glyph-name="" unicode="&#x1eb8;" d="M-16 0 l534 0 l46 200 l-15 0 q-37 -94 -73 -135 q-37 -42 -106 -41 l-123 0 q-39 0 -49 16 q-11 15 -2 51 l64 276 l132 0 q56 1 72 -25 q17 -27 11 -100 l13 0 l63 273 l-14 1 q-27 -74 -60 -101 q-33 -27 -87 -25 l-124 0 l50 218 q10 40 31 55 q22 14 57 13 l108 0 q67 1 86 -34 q19 -36 13 -113 l14 -1 l56 172 l-535 0 l0 -15 q53 2 80 -13 q26 -14 16 -63 l-120 -517 q-13 -51 -50 -65 q-36 -14 -88 -12 l0 -15 ZM270 -172 q17 1 33 15 q15 14 20 34 q5 22 -7 37 q-13 14 -35 15 q-18 -1 -33 -15 q-14 -14 -19 -34 q-5 -22 6 -36 q11 -15 35 -16 l0 0 Z" /><glyph glyph-name="" unicode="È" d="M468 753 l15 0 l-19 176 l-74 0 l78 -176 ZM-16 0 l534 0 l46 200 l-15 0 q-37 -94 -73 -135 q-37 -42 -106 -41 l-123 0 q-39 0 -49 16 q-11 15 -2 51 l64 276 l132 0 q56 1 72 -25 q17 -27 11 -100 l13 0 l63 273 l-14 1 q-27 -74 -60 -101 q-33 -27 -87 -25 l-124 0 l50 218 q10 40 31 55 q22 14 57 13 l108 0 q67 1 86 -34 q19 -36 13 -113 l14 -1 l56 172 l-535 0 l0 -15 q53 2 80 -13 q26 -14 16 -63 l-120 -517 q-13 -51 -50 -65 q-36 -14 -88 -12 l0 -15 Z" /><glyph glyph-name="" unicode="&#x1eba;" d="M453 757 q16 6 42 34 q27 28 30 62 q0 29 -19 48 q-19 20 -55 21 q-42 -4 -64 -30 q-23 -26 -23 -30 l3 -5 q7 7 24 18 q18 10 39 11 q27 -1 37 -19 q11 -18 10 -35 q-1 -28 -11 -45 q-11 -18 -17 -25 l4 -5 ZM-16 0 l534 0 l46 200 l-15 0 q-37 -94 -73 -135 q-37 -42 -106 -41 l-123 0 q-39 0 -49 16 q-11 15 -2 51 l64 276 l132 0 q56 1 72 -25 q17 -27 11 -100 l13 0 l63 273 l-14 1 q-27 -74 -60 -101 q-33 -27 -87 -25 l-124 0 l50 218 q10 40 31 55 q22 14 57 13 l108 0 q67 1 86 -34 q19 -36 13 -113 l14 -1 l56 172 l-535 0 l0 -15 q53 2 80 -13 q26 -14 16 -63 l-120 -517 q-13 -51 -50 -65 q-36 -14 -88 -12 l0 -15 Z" /><glyph glyph-name="" unicode="&#x112;" d="M364 796 l205 0 l7 28 l-205 0 l-7 -28 ZM-16 0 l534 0 l46 200 l-15 0 q-37 -94 -73 -135 q-37 -42 -106 -41 l-123 0 q-39 0 -49 16 q-11 15 -2 51 l64 276 l132 0 q56 1 72 -25 q17 -27 11 -100 l13 0 l63 273 l-14 1 q-27 -74 -60 -101 q-33 -27 -87 -25 l-124 0 l50 218 q10 40 31 55 q22 14 57 13 l108 0 q67 1 86 -34 q19 -36 13 -113 l14 -1 l56 172 l-535 0 l0 -15 q53 2 80 -13 q26 -14 16 -63 l-120 -517 q-13 -51 -50 -65 q-36 -14 -88 -12 l0 -15 Z" /><glyph glyph-name="" unicode="&#x118;" d="M146 700 l0 -15 q53 2 80 -13 q26 -14 16 -63 l-120 -517 q-13 -51 -50 -65 q-36 -14 -88 -12 l0 -15 l515 0 q-33 -29 -66 -67 q-33 -38 -43 -73 q-5 -28 9 -42 q14 -14 41 -14 q28 1 47 11 q19 9 20 10 l2 22 q-1 -1 -15 -6 q-14 -5 -33 -6 q-14 0 -16 12 q-3 11 3 28 q5 22 25 58 q20 36 45 67 l46 200 l-15 0 q-37 -94 -73 -135 q-37 -42 -106 -41 l-123 0 q-39 0 -49 16 q-11 15 -2 51 l64 276 l132 0 q56 1 72 -25 q17 -27 11 -100 l13 0 l63 273 l-14 1 q-27 -74 -60 -101 q-33 -27 -87 -25 l-124 0 l50 218 q10 40 31 55 q22 14 57 13 l108 0 q67 1 86 -34 q19 -36 13 -113 l14 -1 l56 172 l-535 0 Z" /><glyph glyph-name="" unicode="&#x1ebc;" d="M527 780 q25 2 41 28 q17 27 28 57 l-9 1 q0 -2 -14 -18 q-15 -16 -45 -18 q-25 2 -48 18 q-23 16 -56 18 q-26 -2 -41 -28 q-15 -27 -28 -57 l9 0 q0 2 15 18 q14 15 44 17 q23 -2 48 -18 q24 -16 56 -18 l0 0 ZM-16 0 l534 0 l46 200 l-15 0 q-37 -94 -73 -135 q-37 -42 -106 -41 l-123 0 q-39 0 -49 16 q-11 15 -2 51 l64 276 l132 0 q56 1 72 -25 q17 -27 11 -100 l13 0 l63 273 l-14 1 q-27 -74 -60 -101 q-33 -27 -87 -25 l-124 0 l50 218 q10 40 31 55 q22 14 57 13 l108 0 q67 1 86 -34 q19 -36 13 -113 l14 -1 l56 172 l-535 0 l0 -15 q53 2 80 -13 q26 -14 16 -63 l-120 -517 q-13 -51 -50 -65 q-36 -14 -88 -12 l0 -15 Z" /><glyph glyph-name="" unicode="F" d="M-16 0 l335 0 l0 15 q-71 -2 -104 10 q-33 13 -21 66 l64 276 l132 0 q56 2 72 -24 q17 -26 11 -101 l14 0 l62 273 l-14 1 q-28 -75 -60 -102 q-32 -26 -87 -24 l-124 0 l50 218 q10 40 32 55 q22 14 56 13 l109 0 q67 1 86 -34 q19 -34 13 -113 l13 -1 l56 172 l-533 0 l0 -15 q53 2 79 -13 q26 -14 16 -63 l-120 -517 q-12 -47 -47 -63 q-34 -15 -90 -14 l0 -15 Z" /><glyph glyph-name="" unicode="G" d="M352 -10 q95 1 170 17 q76 17 80 19 l52 227 q6 32 24 54 q18 22 58 23 l0 14 l-265 0 l0 -14 q73 1 98 -13 q25 -15 12 -63 l-46 -190 q0 -3 -48 -25 q-48 -22 -143 -25 q-114 2 -158 93 q-44 91 -9 243 q37 152 131 242 q94 91 220 93 q88 0 129 -41 q41 -41 36 -119 l13 -1 l35 163 q-7 1 -81 12 q-73 10 -126 11 q-177 -4 -293 -105 q-117 -101 -153 -253 q-36 -155 26 -255 q62 -100 238 -107 l0 0 Z" /><glyph glyph-name="" unicode="&#x11e;" d="M534 764 q73 9 113 69 q39 60 40 69 l-12 0 q-1 -5 -38 -42 q-37 -37 -104 -42 q-59 5 -74 42 q-16 37 -14 42 l-9 0 q-4 -9 10 -69 q14 -60 88 -69 l0 0 ZM352 -10 q95 1 170 17 q76 17 80 19 l52 227 q6 32 24 54 q18 22 58 23 l0 14 l-265 0 l0 -14 q73 1 98 -13 q25 -15 12 -63 l-46 -190 q0 -3 -48 -25 q-48 -22 -143 -25 q-114 2 -158 93 q-44 91 -9 243 q37 152 131 242 q94 91 220 93 q88 0 129 -41 q41 -41 36 -119 l13 -1 l35 163 q-7 1 -81 12 q-73 10 -126 11 q-177 -4 -293 -105 q-117 -101 -153 -253 q-36 -155 26 -255 q62 -100 238 -107 l0 0 Z" /><glyph glyph-name="" unicode="&#x122;" d="M352 -10 q95 1 170 17 q76 17 80 19 l52 227 q6 32 24 54 q18 22 58 23 l0 14 l-265 0 l0 -14 q73 1 98 -13 q25 -15 12 -63 l-46 -190 q0 -3 -48 -25 q-48 -22 -143 -25 q-114 2 -158 93 q-44 91 -9 243 q37 152 131 242 q94 91 220 93 q88 0 129 -41 q41 -41 36 -119 l13 -1 l35 163 q-7 1 -81 12 q-73 10 -126 11 q-177 -4 -293 -105 q-117 -101 -153 -253 q-36 -155 26 -255 q62 -100 238 -107 l0 0 ZM220 -229 l11 0 l140 184 l-63 12 l-88 -196 Z" /><glyph glyph-name="" unicode="&#x120;" d="M547 782 q18 1 33 15 q14 14 20 35 q5 21 -7 36 q-13 14 -35 15 q-18 -1 -32 -15 q-15 -14 -21 -34 q-4 -22 7 -36 q11 -15 35 -16 l0 0 ZM352 -10 q95 1 170 17 q76 17 80 19 l52 227 q6 32 24 54 q18 22 58 23 l0 14 l-265 0 l0 -14 q73 1 98 -13 q25 -15 12 -63 l-46 -190 q0 -3 -48 -25 q-48 -22 -143 -25 q-114 2 -158 93 q-44 91 -9 243 q37 152 131 242 q94 91 220 93 q88 0 129 -41 q41 -41 36 -119 l13 -1 l35 163 q-7 1 -81 12 q-73 10 -126 11 q-177 -4 -293 -105 q-117 -101 -153 -253 q-36 -155 26 -255 q62 -100 238 -107 l0 0 Z" /><glyph glyph-name="" unicode="H" d="M563 700 l0 -15 q53 1 72 -15 q19 -16 8 -61 l-51 -219 l-327 0 l51 218 q10 44 40 61 q31 17 85 16 l0 15 l-294 0 l0 -15 q52 2 79 -11 q27 -13 16 -65 l-120 -517 q-13 -51 -48 -65 q-35 -14 -87 -12 l0 -15 l292 0 l1 15 q-54 -1 -74 15 q-21 16 -10 61 l64 276 l327 0 l-64 -275 q-10 -43 -37 -60 q-28 -18 -83 -17 l0 -15 l291 0 l1 15 q-49 -2 -79 10 q-30 12 -19 66 l120 517 q13 51 49 65 q37 14 89 12 l0 15 l-292 0 Z" /><glyph glyph-name="" unicode="&#x126;" d="M855 685 l0 15 l-292 0 l0 -15 q53 1 72 -15 q19 -16 8 -61 l-18 -78 l-327 0 l18 77 q10 44 40 61 q31 17 85 16 l0 15 l-294 0 l0 -15 q52 2 79 -11 q27 -13 16 -65 l-18 -78 l-71 0 l-6 -23 l72 0 l-97 -416 q-13 -51 -48 -65 q-35 -14 -87 -12 l0 -15 l292 0 l1 15 q-54 -1 -74 15 q-21 16 -10 61 l64 276 l327 0 l-64 -275 q-10 -43 -37 -60 q-28 -18 -83 -17 l0 -15 l291 0 l1 15 q-49 -2 -79 10 q-30 12 -19 66 l97 417 l63 0 l5 23 l-63 0 l18 77 q13 51 49 65 q37 14 89 12 l0 0 ZM592 390 l-327 0 l28 118 l327 0 l-28 -118 Z" /><glyph glyph-name="" unicode="I" d="M-16 0 l307 0 l0 15 q-50 -2 -78 10 q-29 12 -18 66 l120 517 q13 51 49 65 q37 14 88 12 l0 15 l-306 0 l-1 -15 q54 2 81 -11 q27 -13 16 -65 l-120 -517 q-13 -51 -50 -65 q-36 -14 -88 -12 l0 -15 Z" /><glyph glyph-name="" unicode="&#x132;" d="M-16 0 l307 0 l0 15 q-50 -2 -78 10 q-29 12 -18 66 l120 517 q13 51 49 65 q37 14 88 12 l0 15 l-306 0 l-1 -15 q54 2 81 -11 q27 -13 16 -65 l-120 -517 q-13 -51 -50 -65 q-36 -14 -88 -12 l0 -15 ZM516 -10 q123 3 167 47 q44 45 52 99 l110 472 q13 51 49 65 q36 14 88 12 l0 15 l-336 0 l0 -15 q64 2 100 -10 q35 -13 24 -66 l-107 -466 q-9 -46 -39 -86 q-30 -40 -105 -43 q-59 -1 -83 38 q-23 38 -18 123 l-15 0 l-37 -162 q3 -1 51 -11 q48 -11 99 -12 l0 0 Z" /><glyph glyph-name="" unicode="Í" d="M282 752 l16 0 l163 176 l-78 0 l-101 -176 ZM-16 0 l307 0 l0 15 q-50 -2 -78 10 q-29 12 -18 66 l120 517 q13 51 49 65 q37 14 88 12 l0 15 l-306 0 l-1 -15 q54 2 81 -11 q27 -13 16 -65 l-120 -517 q-13 -51 -50 -65 q-36 -14 -88 -12 l0 -15 Z" /><glyph glyph-name="" unicode="&#x1cf;" d="M303 772 l35 0 l136 145 l-14 0 l-130 -90 l-87 90 l-10 0 l70 -145 ZM-16 0 l307 0 l0 15 q-50 -2 -78 10 q-29 12 -18 66 l120 517 q13 51 49 65 q37 14 88 12 l0 15 l-306 0 l-1 -15 q54 2 81 -11 q27 -13 16 -65 l-120 -517 q-13 -51 -50 -65 q-36 -14 -88 -12 l0 -15 Z" /><glyph glyph-name="" unicode="Î" d="M188 743 l19 0 l126 93 l82 -93 l14 0 l-70 145 l-35 0 l-136 -145 ZM-16 0 l307 0 l0 15 q-50 -2 -78 10 q-29 12 -18 66 l120 517 q13 51 49 65 q37 14 88 12 l0 15 l-306 0 l-1 -15 q54 2 81 -11 q27 -13 16 -65 l-120 -517 q-13 -51 -50 -65 q-36 -14 -88 -12 l0 -15 Z" /><glyph glyph-name="" unicode="Ï" d="M258 781 q15 1 28 13 q13 12 17 30 q3 18 -7 31 q-10 12 -30 13 q-15 -1 -27 -13 q-12 -12 -16 -30 q-4 -18 6 -31 q9 -12 29 -13 l0 0 ZM396 781 q16 1 29 14 q12 12 16 28 q4 19 -6 32 q-10 12 -31 13 q-15 -1 -27 -13 q-12 -12 -16 -29 q-4 -19 6 -31 q9 -13 29 -14 l0 0 ZM-16 0 l307 0 l0 15 q-50 -2 -78 10 q-29 12 -18 66 l120 517 q13 51 49 65 q37 14 88 12 l0 15 l-306 0 l-1 -15 q54 2 81 -11 q27 -13 16 -65 l-120 -517 q-13 -51 -50 -65 q-36 -14 -88 -12 l0 -15 Z" /><glyph glyph-name="" unicode="&#x130;" d="M330 773 q18 1 33 15 q14 14 20 35 q5 21 -7 36 q-13 14 -35 15 q-18 -1 -32 -15 q-15 -14 -21 -34 q-4 -22 7 -36 q11 -15 35 -16 l0 0 ZM-16 0 l307 0 l0 15 q-50 -2 -78 10 q-29 12 -18 66 l120 517 q13 51 49 65 q37 14 88 12 l0 15 l-306 0 l-1 -15 q54 2 81 -11 q27 -13 16 -65 l-120 -517 q-13 -51 -50 -65 q-36 -14 -88 -12 l0 -15 Z" /><glyph glyph-name="" unicode="&#x1eca;" d="M-16 0 l307 0 l0 15 q-50 -2 -78 10 q-29 12 -18 66 l120 517 q13 51 49 65 q37 14 88 12 l0 15 l-306 0 l-1 -15 q54 2 81 -11 q27 -13 16 -65 l-120 -517 q-13 -51 -50 -65 q-36 -14 -88 -12 l0 -15 ZM110 -172 q17 1 33 15 q15 14 20 34 q5 22 -7 37 q-13 14 -35 15 q-18 -1 -33 -15 q-14 -14 -19 -34 q-5 -22 6 -36 q11 -15 35 -16 l0 0 Z" /><glyph glyph-name="" unicode="Ì" d="M317 753 l15 0 l-19 176 l-74 0 l78 -176 ZM-16 0 l307 0 l0 15 q-50 -2 -78 10 q-29 12 -18 66 l120 517 q13 51 49 65 q37 14 88 12 l0 15 l-306 0 l-1 -15 q54 2 81 -11 q27 -13 16 -65 l-120 -517 q-13 -51 -50 -65 q-36 -14 -88 -12 l0 -15 Z" /><glyph glyph-name="" unicode="&#x1ec8;" d="M301 757 q16 6 42 34 q27 28 30 62 q0 29 -19 48 q-19 20 -55 21 q-42 -4 -64 -30 q-23 -26 -23 -30 l3 -5 q7 7 24 18 q18 10 39 11 q27 -1 37 -19 q11 -18 10 -35 q-1 -28 -11 -45 q-11 -18 -17 -25 l4 -5 ZM-16 0 l307 0 l0 15 q-50 -2 -78 10 q-29 12 -18 66 l120 517 q13 51 49 65 q37 14 88 12 l0 15 l-306 0 l-1 -15 q54 2 81 -11 q27 -13 16 -65 l-120 -517 q-13 -51 -50 -65 q-36 -14 -88 -12 l0 -15 Z" /><glyph glyph-name="" unicode="&#x12a;" d="M213 796 l205 0 l7 28 l-205 0 l-7 -28 ZM-16 0 l307 0 l0 15 q-50 -2 -78 10 q-29 12 -18 66 l120 517 q13 51 49 65 q37 14 88 12 l0 15 l-306 0 l-1 -15 q54 2 81 -11 q27 -13 16 -65 l-120 -517 q-13 -51 -50 -65 q-36 -14 -88 -12 l0 -15 Z" /><glyph glyph-name="" unicode="&#x12e;" d="M146 700 l-1 -15 q54 2 81 -11 q27 -13 16 -65 l-120 -517 q-13 -51 -50 -65 q-36 -14 -88 -12 l0 -15 l289 0 q-33 -29 -66 -67 q-33 -38 -43 -73 q-5 -28 9 -42 q14 -14 41 -14 q28 1 47 11 q19 9 20 10 l2 22 q-1 -1 -15 -6 q-14 -5 -33 -6 q-14 0 -16 12 q-3 11 3 28 q5 22 25 58 q20 36 45 67 l-1 0 l0 15 q-50 -2 -78 10 q-29 12 -18 66 l120 517 q13 51 49 65 q37 14 88 12 l0 15 l-306 0 Z" /><glyph glyph-name="" unicode="&#x128;" d="M375 780 q25 2 41 28 q17 27 28 57 l-9 1 q0 -2 -14 -18 q-15 -16 -45 -18 q-25 2 -48 18 q-23 16 -56 18 q-26 -2 -41 -28 q-15 -27 -28 -57 l9 0 q0 2 15 18 q14 15 44 17 q23 -2 48 -18 q24 -16 56 -18 l0 0 ZM-16 0 l307 0 l0 15 q-50 -2 -78 10 q-29 12 -18 66 l120 517 q13 51 49 65 q37 14 88 12 l0 15 l-306 0 l-1 -15 q54 2 81 -11 q27 -13 16 -65 l-120 -517 q-13 -51 -50 -65 q-36 -14 -88 -12 l0 -15 Z" /><glyph glyph-name="" unicode="J" d="M125 -10 q123 3 167 47 q44 45 52 99 l110 472 q13 51 49 65 q36 14 88 12 l0 15 l-336 0 l0 -15 q64 2 100 -10 q35 -13 24 -66 l-107 -466 q-9 -46 -39 -86 q-30 -40 -105 -43 q-59 -1 -83 38 q-23 38 -18 123 l-15 0 l-37 -162 q3 -1 51 -11 q48 -11 99 -12 l0 0 Z" /><glyph glyph-name="" unicode="K" d="M-16 0 l307 0 l0 15 q-53 -2 -80 12 q-26 13 -15 64 l50 207 q17 14 42 33 q24 20 56 44 q26 -48 89 -162 q63 -114 79 -145 q14 -29 -2 -41 q-16 -12 -61 -12 l0 -15 l245 0 l0 15 q-31 0 -56 19 q-26 19 -42 51 q-23 43 -95 171 q-72 127 -96 172 q67 53 139 109 q73 56 136 106 q44 33 72 39 q29 5 48 3 l0 15 l-196 0 l0 -15 l39 0 q19 0 18 -12 q-1 -11 -27 -33 q-125 -105 -233 -191 q-109 -86 -153 -122 l67 281 q12 49 47 64 q34 15 90 13 l0 15 l-306 0 l-1 -15 q49 2 78 -9 q30 -12 18 -67 l-120 -517 q-13 -53 -50 -66 q-36 -13 -87 -11 l0 -15 Z" /><glyph glyph-name="" unicode="&#x136;" d="M-16 0 l307 0 l0 15 q-53 -2 -80 12 q-26 13 -15 64 l50 207 q17 14 42 33 q24 20 56 44 q26 -48 89 -162 q63 -114 79 -145 q14 -29 -2 -41 q-16 -12 -61 -12 l0 -15 l245 0 l0 15 q-31 0 -56 19 q-26 19 -42 51 q-23 43 -95 171 q-72 127 -96 172 q67 53 139 109 q73 56 136 106 q44 33 72 39 q29 5 48 3 l0 15 l-196 0 l0 -15 l39 0 q19 0 18 -12 q-1 -11 -27 -33 q-125 -105 -233 -191 q-109 -86 -153 -122 l67 281 q12 49 47 64 q34 15 90 13 l0 15 l-306 0 l-1 -15 q49 2 78 -9 q30 -12 18 -67 l-120 -517 q-13 -53 -50 -66 q-36 -13 -87 -11 l0 -15 ZM229 -229 l11 0 l140 184 l-63 12 l-88 -196 Z" /><glyph glyph-name="" unicode="L" d="M-16 0 l541 0 l47 204 l-16 1 q-37 -97 -73 -140 q-37 -42 -107 -41 l-130 0 q-39 0 -50 15 q-11 15 -2 52 l120 517 q13 51 50 65 q37 14 89 12 l0 15 l-307 0 l-1 -15 q49 2 78 -10 q29 -13 18 -66 l-120 -517 q-13 -51 -50 -65 q-36 -14 -87 -12 l0 -15 Z" /><glyph glyph-name="" unicode="&#x139;" d="M278 725 l16 0 l163 176 l-78 0 l-101 -176 ZM-16 0 l541 0 l47 204 l-16 1 q-37 -97 -73 -140 q-37 -42 -107 -41 l-130 0 q-39 0 -50 15 q-11 15 -2 52 l120 517 q13 51 50 65 q37 14 89 12 l0 15 l-307 0 l-1 -15 q49 2 78 -10 q29 -13 18 -66 l-120 -517 q-13 -51 -50 -65 q-36 -14 -87 -12 l0 -15 Z" /><glyph glyph-name="" unicode="&#x13d;" d="M512 599 q-8 -32 -27 -62 q-19 -29 -43 -50 l6 -5 q6 0 53 28 q48 28 68 87 q9 60 -21 89 q-31 28 -36 28 l-9 -5 q13 -20 15 -49 q2 -30 -6 -61 l0 0 ZM376 24 l-130 0 q-39 0 -50 15 q-11 15 -2 52 l120 517 q13 51 50 65 q37 14 89 12 l0 15 l-307 0 l-1 -15 q49 2 78 -10 q29 -13 18 -66 l-120 -517 q-13 -51 -50 -65 q-36 -14 -87 -12 l0 -15 l541 0 l47 204 l-16 1 q-37 -97 -73 -140 q-37 -42 -107 -41 l0 0 Z" /><glyph glyph-name="" unicode="&#x13b;" d="M-16 0 l541 0 l47 204 l-16 1 q-37 -97 -73 -140 q-37 -42 -107 -41 l-130 0 q-39 0 -50 15 q-11 15 -2 52 l120 517 q13 51 50 65 q37 14 89 12 l0 15 l-307 0 l-1 -15 q49 2 78 -10 q29 -13 18 -66 l-120 -517 q-13 -51 -50 -65 q-36 -14 -87 -12 l0 -15 ZM89 -229 l11 0 l140 184 l-63 12 l-88 -196 Z" /><glyph glyph-name="" unicode="&#x13f;" d="M-16 0 l541 0 l47 204 l-16 1 q-37 -97 -73 -140 q-37 -42 -107 -41 l-130 0 q-39 0 -50 15 q-11 15 -2 52 l120 517 q13 51 50 65 q37 14 89 12 l0 15 l-307 0 l-1 -15 q49 2 78 -10 q29 -13 18 -66 l-120 -517 q-13 -51 -50 -65 q-36 -14 -87 -12 l0 -15 ZM431 283 q18 1 33 14 q15 14 21 35 q5 23 -7 38 q-13 15 -36 15 q-18 -1 -33 -15 q-16 -14 -21 -35 q-5 -22 7 -36 q12 -15 36 -16 l0 0 Z" /><glyph glyph-name="" unicode="&#x141;" d="M-20 0 l483 0 l48 204 l-17 1 q-40 -108 -74 -146 q-35 -38 -91 -35 l-107 0 q-31 -1 -42 13 q-11 14 -1 54 l61 265 l113 52 l5 26 l-114 -52 l52 226 q14 52 48 66 q34 13 80 11 l0 15 l-283 0 l-1 -15 q45 2 71 -10 q25 -13 14 -66 l-61 -262 l-92 -43 l-5 -27 l91 43 l-52 -228 q-12 -47 -43 -63 q-31 -15 -83 -14 l0 -15 Z" /><glyph glyph-name="" unicode="M" d="M-21 0 l246 0 l0 10 q-50 -2 -78 12 q-28 14 -15 64 l157 559 l114 -645 l47 0 l397 640 q-11 -60 -40 -238 q-30 -177 -52 -314 q-9 -50 -49 -65 q-40 -15 -88 -13 l0 -10 l295 0 l0 10 q-48 -2 -69 13 q-21 14 -13 63 l78 521 q9 49 43 65 q34 15 77 14 l0 14 l-174 0 l-388 -622 l-108 622 l-188 0 l0 -15 q47 1 69 -15 q22 -17 12 -61 q-8 -27 -68 -236 q-60 -210 -82 -285 q-14 -48 -45 -63 q-31 -16 -78 -15 l0 -10 Z" /><glyph glyph-name="" unicode="N" d="M-16 0 l243 0 l0 11 q-55 -2 -82 12 q-26 14 -15 63 l128 550 l269 -636 l43 0 l140 608 q10 44 40 61 q30 17 83 16 l0 15 l-244 0 l0 -15 q49 2 78 -10 q28 -13 17 -66 l-114 -488 l-244 579 l-180 0 l0 -15 q56 1 74 -17 q18 -17 7 -59 l-122 -522 q-11 -46 -40 -62 q-29 -15 -81 -14 l0 -11 Z" /><glyph glyph-name="" unicode="&#x143;" d="M473 752 l16 0 l163 176 l-78 0 l-101 -176 ZM-16 0 l243 0 l0 11 q-55 -2 -82 12 q-26 14 -15 63 l128 550 l269 -636 l43 0 l140 608 q10 44 40 61 q30 17 83 16 l0 15 l-244 0 l0 -15 q49 2 78 -10 q28 -13 17 -66 l-114 -488 l-244 579 l-180 0 l0 -15 q56 1 74 -17 q18 -17 7 -59 l-122 -522 q-11 -46 -40 -62 q-29 -15 -81 -14 l0 -11 Z" /><glyph glyph-name="" unicode="&#x147;" d="M494 772 l35 0 l136 145 l-14 0 l-130 -90 l-87 90 l-10 0 l70 -145 ZM-16 0 l243 0 l0 11 q-55 -2 -82 12 q-26 14 -15 63 l128 550 l269 -636 l43 0 l140 608 q10 44 40 61 q30 17 83 16 l0 15 l-244 0 l0 -15 q49 2 78 -10 q28 -13 17 -66 l-114 -488 l-244 579 l-180 0 l0 -15 q56 1 74 -17 q18 -17 7 -59 l-122 -522 q-11 -46 -40 -62 q-29 -15 -81 -14 l0 -11 Z" /><glyph glyph-name="" unicode="&#x145;" d="M-16 0 l243 0 l0 11 q-55 -2 -82 12 q-26 14 -15 63 l128 550 l269 -636 l43 0 l140 608 q10 44 40 61 q30 17 83 16 l0 15 l-244 0 l0 -15 q49 2 78 -10 q28 -13 17 -66 l-114 -488 l-244 579 l-180 0 l0 -15 q56 1 74 -17 q18 -17 7 -59 l-122 -522 q-11 -46 -40 -62 q-29 -15 -81 -14 l0 -11 ZM203 -229 l11 0 l140 184 l-63 12 l-88 -196 Z" /><glyph glyph-name="" unicode="&#x14a;" d="M349 -215 q64 2 98 43 q34 41 47 100 l157 681 q9 40 34 58 q25 18 79 18 l0 15 l-222 0 l-1 -15 q45 2 70 -10 q26 -12 15 -65 l-106 -464 l-208 554 l-171 0 l0 -15 q53 0 67 -18 q14 -18 4 -57 l-120 -522 q-9 -42 -34 -59 q-25 -18 -79 -18 l2 -11 l222 0 l-1 11 q-45 -2 -71 11 q-25 13 -14 65 l127 550 l242 -638 l-14 -58 q-11 -52 -40 -92 q-28 -39 -86 -41 q-22 0 -56 22 q-35 22 -54 70 l-43 -90 q3 -2 51 -12 q47 -11 105 -13 l0 0 Z" /><glyph glyph-name="" unicode="Ñ" d="M566 780 q25 2 41 28 q17 27 28 57 l-9 1 q0 -2 -14 -18 q-15 -16 -45 -18 q-25 2 -48 18 q-23 16 -56 18 q-26 -2 -41 -28 q-15 -27 -28 -57 l9 0 q0 2 15 18 q14 15 44 17 q23 -2 48 -18 q24 -16 56 -18 l0 0 ZM-16 0 l243 0 l0 11 q-55 -2 -82 12 q-26 14 -15 63 l128 550 l269 -636 l43 0 l140 608 q10 44 40 61 q30 17 83 16 l0 15 l-244 0 l0 -15 q49 2 78 -10 q28 -13 17 -66 l-114 -488 l-244 579 l-180 0 l0 -15 q56 1 74 -17 q18 -17 7 -59 l-122 -522 q-11 -46 -40 -62 q-29 -15 -81 -14 l0 -11 Z" /><glyph glyph-name="" unicode="O" d="M372 -10 q172 4 285 105 q113 102 149 254 q35 154 -35 256 q-71 101 -246 105 q-172 -4 -284 -105 q-112 -102 -148 -254 q-35 -154 35 -255 q69 -102 244 -106 l0 0 ZM364 14 q-126 4 -171 99 q-45 95 -12 237 q34 142 126 237 q93 94 226 98 q127 -4 172 -98 q45 -94 13 -235 q-33 -143 -126 -239 q-92 -95 -228 -99 l0 0 Z" /><glyph glyph-name="" unicode="Ó" d="M517 752 l16 0 l163 176 l-78 0 l-101 -176 ZM372 -10 q172 4 285 105 q113 102 149 254 q35 154 -35 256 q-71 101 -246 105 q-172 -4 -284 -105 q-112 -102 -148 -254 q-35 -154 35 -255 q69 -102 244 -106 l0 0 ZM364 14 q-126 4 -171 99 q-45 95 -12 237 q34 142 126 237 q93 94 226 98 q127 -4 172 -98 q45 -94 13 -235 q-33 -143 -126 -239 q-92 -95 -228 -99 l0 0 Z" /><glyph glyph-name="" unicode="&#x1d1;" d="M537 772 l35 0 l136 145 l-14 0 l-130 -90 l-87 90 l-10 0 l70 -145 ZM372 -10 q172 4 285 105 q113 102 149 254 q35 154 -35 256 q-71 101 -246 105 q-172 -4 -284 -105 q-112 -102 -148 -254 q-35 -154 35 -255 q69 -102 244 -106 l0 0 ZM364 14 q-126 4 -171 99 q-45 95 -12 237 q34 142 126 237 q93 94 226 98 q127 -4 172 -98 q45 -94 13 -235 q-33 -143 -126 -239 q-92 -95 -228 -99 l0 0 Z" /><glyph glyph-name="" unicode="Ô" d="M422 743 l19 0 l126 93 l82 -93 l14 0 l-70 145 l-35 0 l-136 -145 ZM372 -10 q172 4 285 105 q113 102 149 254 q35 154 -35 256 q-71 101 -246 105 q-172 -4 -284 -105 q-112 -102 -148 -254 q-35 -154 35 -255 q69 -102 244 -106 l0 0 ZM364 14 q-126 4 -171 99 q-45 95 -12 237 q34 142 126 237 q93 94 226 98 q127 -4 172 -98 q45 -94 13 -235 q-33 -143 -126 -239 q-92 -95 -228 -99 l0 0 Z" /><glyph glyph-name="" unicode="&#x1ed8;" d="M422 743 l19 0 l126 93 l82 -93 l14 0 l-70 145 l-35 0 l-136 -145 ZM372 -10 q172 4 285 105 q113 102 149 254 q35 154 -35 256 q-71 101 -246 105 q-172 -4 -284 -105 q-112 -102 -148 -254 q-35 -154 35 -255 q69 -102 244 -106 l0 0 ZM364 14 q-126 4 -171 99 q-45 95 -12 237 q34 142 126 237 q93 94 226 98 q127 -4 172 -98 q45 -94 13 -235 q-33 -143 -126 -239 q-92 -95 -228 -99 l0 0 ZM335 -172 q17 1 33 15 q15 14 20 34 q5 22 -7 37 q-13 14 -35 15 q-18 -1 -33 -15 q-14 -14 -19 -34 q-5 -22 6 -36 q11 -15 35 -16 l0 0 Z" /><glyph glyph-name="" unicode="Ö" d="M492 781 q15 1 28 13 q13 12 17 30 q3 18 -7 31 q-10 12 -30 13 q-15 -1 -27 -13 q-12 -12 -16 -30 q-4 -18 6 -31 q9 -12 29 -13 l0 0 ZM630 781 q16 1 29 14 q12 12 16 28 q4 19 -6 32 q-10 12 -31 13 q-15 -1 -27 -13 q-12 -12 -16 -29 q-4 -19 6 -31 q9 -13 29 -14 l0 0 ZM372 -10 q172 4 285 105 q113 102 149 254 q35 154 -35 256 q-71 101 -246 105 q-172 -4 -284 -105 q-112 -102 -148 -254 q-35 -154 35 -255 q69 -102 244 -106 l0 0 ZM364 14 q-126 4 -171 99 q-45 95 -12 237 q34 142 126 237 q93 94 226 98 q127 -4 172 -98 q45 -94 13 -235 q-33 -143 -126 -239 q-92 -95 -228 -99 l0 0 Z" /><glyph glyph-name="" unicode="&#x1ecc;" d="M372 -10 q172 4 285 105 q113 102 149 254 q35 154 -35 256 q-71 101 -246 105 q-172 -4 -284 -105 q-112 -102 -148 -254 q-35 -154 35 -255 q69 -102 244 -106 l0 0 ZM364 14 q-126 4 -171 99 q-45 95 -12 237 q34 142 126 237 q93 94 226 98 q127 -4 172 -98 q45 -94 13 -235 q-33 -143 -126 -239 q-92 -95 -228 -99 l0 0 ZM335 -172 q17 1 33 15 q15 14 20 34 q5 22 -7 37 q-13 14 -35 15 q-18 -1 -33 -15 q-14 -14 -19 -34 q-5 -22 6 -36 q11 -15 35 -16 l0 0 Z" /><glyph glyph-name="" unicode="Ò" d="M551 753 l15 0 l-19 176 l-74 0 l78 -176 ZM372 -10 q172 4 285 105 q113 102 149 254 q35 154 -35 256 q-71 101 -246 105 q-172 -4 -284 -105 q-112 -102 -148 -254 q-35 -154 35 -255 q69 -102 244 -106 l0 0 ZM364 14 q-126 4 -171 99 q-45 95 -12 237 q34 142 126 237 q93 94 226 98 q127 -4 172 -98 q45 -94 13 -235 q-33 -143 -126 -239 q-92 -95 -228 -99 l0 0 Z" /><glyph glyph-name="" unicode="&#x1ece;" d="M536 757 q16 6 42 34 q27 28 30 62 q0 29 -19 48 q-19 20 -55 21 q-42 -4 -64 -30 q-23 -26 -23 -30 l3 -5 q7 7 24 18 q18 10 39 11 q27 -1 37 -19 q11 -18 10 -35 q-1 -28 -11 -45 q-11 -18 -17 -25 l4 -5 ZM372 -10 q172 4 285 105 q113 102 149 254 q35 154 -35 256 q-71 101 -246 105 q-172 -4 -284 -105 q-112 -102 -148 -254 q-35 -154 35 -255 q69 -102 244 -106 l0 0 ZM364 14 q-126 4 -171 99 q-45 95 -12 237 q34 142 126 237 q93 94 226 98 q127 -4 172 -98 q45 -94 13 -235 q-33 -143 -126 -239 q-92 -95 -228 -99 l0 0 Z" /><glyph glyph-name="" unicode="&#x150;" d="M467 752 l16 0 l163 176 l-78 0 l-101 -176 ZM577 752 l15 0 l163 176 l-77 0 l-101 -176 ZM372 -10 q172 4 285 105 q113 102 149 254 q35 154 -35 256 q-71 101 -246 105 q-172 -4 -284 -105 q-112 -102 -148 -254 q-35 -154 35 -255 q69 -102 244 -106 l0 0 ZM364 14 q-126 4 -171 99 q-45 95 -12 237 q34 142 126 237 q93 94 226 98 q127 -4 172 -98 q45 -94 13 -235 q-33 -143 -126 -239 q-92 -95 -228 -99 l0 0 Z" /><glyph glyph-name="" unicode="&#x14c;" d="M447 796 l205 0 l7 28 l-205 0 l-7 -28 ZM372 -10 q172 4 285 105 q113 102 149 254 q35 154 -35 256 q-71 101 -246 105 q-172 -4 -284 -105 q-112 -102 -148 -254 q-35 -154 35 -255 q69 -102 244 -106 l0 0 ZM364 14 q-126 4 -171 99 q-45 95 -12 237 q34 142 126 237 q93 94 226 98 q127 -4 172 -98 q45 -94 13 -235 q-33 -143 -126 -239 q-92 -95 -228 -99 l0 0 Z" /><glyph glyph-name="" unicode="Ø" d="M114 -50 l41 0 l62 70 q29 -14 66 -22 q38 -8 84 -8 q172 4 285 105 q112 102 149 254 q22 94 2 172 q-19 77 -78 127 l64 72 l-42 0 l-47 -55 q-34 22 -78 33 q-44 12 -102 12 q-172 -4 -284 -105 q-113 -102 -148 -254 q-23 -104 2 -186 q26 -83 98 -130 l-74 -85 ZM214 75 q-37 46 -46 117 q-8 70 12 157 q34 146 124 240 q90 94 224 97 q48 0 84 -15 q35 -16 60 -45 l-458 -551 ZM359 15 q-37 0 -68 10 q-30 10 -53 30 l456 548 q26 -47 29 -112 q3 -64 -14 -140 q-34 -145 -125 -239 q-90 -94 -225 -97 l0 0 Z" /><glyph glyph-name="" unicode="Õ" d="M614 780 q25 2 41 28 q17 27 28 57 l-9 1 q0 -2 -14 -18 q-15 -16 -45 -18 q-25 2 -48 18 q-23 16 -56 18 q-26 -2 -41 -28 q-15 -27 -28 -57 l9 0 q0 2 15 18 q14 15 44 17 q23 -2 48 -18 q24 -16 56 -18 l0 0 ZM372 -10 q172 4 285 105 q113 102 149 254 q35 154 -35 256 q-71 101 -246 105 q-172 -4 -284 -105 q-112 -102 -148 -254 q-35 -154 35 -255 q69 -102 244 -106 l0 0 ZM364 14 q-126 4 -171 99 q-45 95 -12 237 q34 142 126 237 q93 94 226 98 q127 -4 172 -98 q45 -94 13 -235 q-33 -143 -126 -239 q-92 -95 -228 -99 l0 0 Z" /><glyph glyph-name="" unicode="&#x152;" d="M328 -10 q42 0 83 10 l379 0 l46 200 l-15 0 q-40 -105 -74 -142 q-34 -36 -90 -34 l-107 0 q-32 -1 -42 13 q-10 14 -1 54 l62 273 l116 0 q49 2 64 -20 q15 -23 6 -99 l15 -1 l62 269 l-15 0 q-26 -76 -55 -99 q-30 -23 -77 -21 l-108 0 l48 215 q11 44 33 57 q21 12 48 11 l94 0 q53 2 72 -29 q19 -31 11 -123 l15 0 l41 176 l-354 0 q-23 4 -49 7 q-26 3 -55 3 q-154 -4 -259 -105 q-105 -102 -141 -254 q-34 -154 28 -255 q61 -102 219 -106 l0 0 ZM318 14 q-112 5 -146 100 q-34 95 -2 235 q33 142 115 237 q82 95 202 99 q20 0 43 -3 q23 -3 40 -9 q-40 -162 -76 -319 q-36 -158 -75 -324 q-12 -5 -39 -10 q-28 -5 -62 -6 l0 0 Z" /><glyph glyph-name="" unicode="P" d="M-16 0 l307 0 l0 15 q-50 -2 -78 10 q-29 12 -17 66 l61 249 q6 -3 35 -10 q28 -6 79 -7 q113 2 189 58 q77 56 99 148 q19 90 -33 131 q-52 41 -147 40 l-333 0 l-1 -15 q50 2 78 -10 q29 -12 18 -65 l-120 -518 q-13 -51 -50 -65 q-36 -14 -87 -12 l0 -15 ZM359 347 q-25 0 -53 5 q-28 6 -50 14 l60 244 q7 29 28 48 q21 18 51 19 l85 0 q65 0 88 -38 q23 -38 6 -113 q-19 -83 -75 -130 q-56 -48 -140 -49 l0 0 Z" /><glyph glyph-name="" unicode="Þ" d="M-21 0 l283 0 l1 15 q-44 -2 -70 10 q-26 12 -13 66 l23 93 q10 -3 35 -8 q25 -5 66 -5 q103 2 173 59 q70 57 91 145 q18 87 -27 129 q-45 41 -131 41 l-127 0 l14 63 q13 52 48 66 q34 13 78 11 l1 15 l-283 0 l-1 -15 q44 2 70 -10 q26 -12 15 -66 l-119 -517 q-14 -51 -48 -65 q-34 -14 -78 -12 l-1 -15 ZM288 195 q-19 0 -42 5 q-23 4 -42 10 q20 78 38 157 q18 80 35 153 l124 0 q57 0 80 -36 q22 -37 5 -113 q-19 -81 -71 -128 q-52 -47 -127 -48 l0 0 Z" /><glyph glyph-name="" unicode="Q" d="M599 -219 l4 25 l-148 193 q138 29 226 124 q88 95 119 226 q35 154 -35 256 q-70 101 -245 105 q-172 -4 -284 -105 q-112 -102 -148 -254 q-34 -149 30 -249 q64 -101 225 -111 l256 -210 ZM359 14 q-127 4 -171 99 q-44 95 -11 237 q34 142 125 237 q92 94 226 98 q127 -4 172 -98 q44 -94 12 -235 q-33 -143 -125 -239 q-92 -95 -228 -99 l0 0 Z" /><glyph glyph-name="" unicode="R" d="M661 543 q17 83 -34 120 q-50 38 -148 37 l-335 0 l0 -15 q50 2 79 -10 q29 -13 18 -66 l-120 -517 q-14 -51 -51 -65 q-37 -14 -85 -12 l0 -15 l307 0 l0 15 q-50 -2 -79 10 q-29 12 -17 66 l67 277 q7 -3 31 -8 q25 -5 58 -8 l130 -352 l150 0 l0 15 q-31 1 -52 17 q-21 15 -35 49 q-25 63 -57 149 q-32 86 -46 126 q93 17 148 68 q56 52 71 119 l0 0 ZM576 540 q-18 -75 -74 -120 q-55 -44 -134 -45 q-23 0 -53 5 q-30 5 -53 13 l54 217 q7 29 29 48 q21 18 54 19 l80 0 q70 0 92 -34 q22 -35 5 -103 l0 0 Z" /><glyph glyph-name="" unicode="&#x154;" d="M608 928 l-78 0 l-101 -176 l16 0 l163 176 ZM661 543 q17 83 -34 120 q-50 38 -148 37 l-335 0 l0 -15 q50 2 79 -10 q29 -13 18 -66 l-120 -517 q-14 -51 -51 -65 q-37 -14 -85 -12 l0 -15 l307 0 l0 15 q-50 -2 -79 10 q-29 12 -17 66 l67 277 q7 -3 31 -8 q25 -5 58 -8 l130 -352 l150 0 l0 15 q-31 1 -52 17 q-21 15 -35 49 q-25 63 -57 149 q-32 86 -46 126 q93 17 148 68 q56 52 71 119 l0 0 ZM576 540 q-18 -75 -74 -120 q-55 -44 -134 -45 q-23 0 -53 5 q-30 5 -53 13 l54 217 q7 29 29 48 q21 18 54 19 l80 0 q70 0 92 -34 q22 -35 5 -103 l0 0 Z" /><glyph glyph-name="" unicode="&#x158;" d="M485 772 l136 145 l-14 0 l-130 -90 l-87 90 l-10 0 l70 -145 l35 0 ZM661 543 q17 83 -34 120 q-50 38 -148 37 l-335 0 l0 -15 q50 2 79 -10 q29 -13 18 -66 l-120 -517 q-14 -51 -51 -65 q-37 -14 -85 -12 l0 -15 l307 0 l0 15 q-50 -2 -79 10 q-29 12 -17 66 l67 277 q7 -3 31 -8 q25 -5 58 -8 l130 -352 l150 0 l0 15 q-31 1 -52 17 q-21 15 -35 49 q-25 63 -57 149 q-32 86 -46 126 q93 17 148 68 q56 52 71 119 l0 0 ZM576 540 q-18 -75 -74 -120 q-55 -44 -134 -45 q-23 0 -53 5 q-30 5 -53 13 l54 217 q7 29 29 48 q21 18 54 19 l80 0 q70 0 92 -34 q22 -35 5 -103 l0 0 Z" /><glyph glyph-name="" unicode="&#x156;" d="M661 543 q17 83 -34 120 q-50 38 -148 37 l-335 0 l0 -15 q50 2 79 -10 q29 -13 18 -66 l-120 -517 q-14 -51 -51 -65 q-37 -14 -85 -12 l0 -15 l307 0 l0 15 q-50 -2 -79 10 q-29 12 -17 66 l67 277 q7 -3 31 -8 q25 -5 58 -8 l130 -352 l150 0 l0 15 q-31 1 -52 17 q-21 15 -35 49 q-25 63 -57 149 q-32 86 -46 126 q93 17 148 68 q56 52 71 119 l0 0 ZM576 540 q-18 -75 -74 -120 q-55 -44 -134 -45 q-23 0 -53 5 q-30 5 -53 13 l54 217 q7 29 29 48 q21 18 54 19 l80 0 q70 0 92 -34 q22 -35 5 -103 l0 0 ZM178 -229 l11 0 l140 184 l-63 12 l-88 -196 Z" /><glyph glyph-name="" unicode="S" d="M211 -10 q93 1 169 46 q76 44 100 130 q16 64 -8 106 q-23 42 -78 84 l-110 88 q-55 44 -68 74 q-13 30 -3 61 q8 40 49 72 q41 32 121 34 q70 1 98 -38 q27 -38 22 -123 l14 0 l35 162 q-4 2 -58 12 q-53 11 -103 12 q-121 -6 -181 -54 q-61 -48 -71 -98 q-10 -39 4 -78 q14 -40 69 -87 q19 -16 48 -40 q30 -24 72 -58 q39 -29 62 -66 q22 -37 11 -90 q-12 -50 -63 -86 q-52 -36 -136 -38 q-88 -3 -126 37 q-39 40 -21 158 l-14 0 l-40 -184 q4 -2 67 -18 q62 -16 139 -18 l0 0 Z" /><glyph glyph-name="" unicode="&#x15a;" d="M373 752 l16 0 l163 176 l-78 0 l-101 -176 ZM211 -10 q93 1 169 46 q76 44 100 130 q16 64 -8 106 q-23 42 -78 84 l-110 88 q-55 44 -68 74 q-13 30 -3 61 q8 40 49 72 q41 32 121 34 q70 1 98 -38 q27 -38 22 -123 l14 0 l35 162 q-4 2 -58 12 q-53 11 -103 12 q-121 -6 -181 -54 q-61 -48 -71 -98 q-10 -39 4 -78 q14 -40 69 -87 q19 -16 48 -40 q30 -24 72 -58 q39 -29 62 -66 q22 -37 11 -90 q-12 -50 -63 -86 q-52 -36 -136 -38 q-88 -3 -126 37 q-39 40 -21 158 l-14 0 l-40 -184 q4 -2 67 -18 q62 -16 139 -18 l0 0 Z" /><glyph glyph-name="" unicode="&#x160;" d="M394 772 l35 0 l136 145 l-14 0 l-130 -90 l-87 90 l-10 0 l70 -145 ZM211 -10 q93 1 169 46 q76 44 100 130 q16 64 -8 106 q-23 42 -78 84 l-110 88 q-55 44 -68 74 q-13 30 -3 61 q8 40 49 72 q41 32 121 34 q70 1 98 -38 q27 -38 22 -123 l14 0 l35 162 q-4 2 -58 12 q-53 11 -103 12 q-121 -6 -181 -54 q-61 -48 -71 -98 q-10 -39 4 -78 q14 -40 69 -87 q19 -16 48 -40 q30 -24 72 -58 q39 -29 62 -66 q22 -37 11 -90 q-12 -50 -63 -86 q-52 -36 -136 -38 q-88 -3 -126 37 q-39 40 -21 158 l-14 0 l-40 -184 q4 -2 67 -18 q62 -16 139 -18 l0 0 Z" /><glyph glyph-name="" unicode="&#x15e;" d="M391 710 q-121 -6 -181 -54 q-61 -48 -71 -98 q-10 -39 4 -78 q14 -40 69 -87 q19 -16 48 -40 q30 -24 72 -58 q39 -29 62 -66 q22 -37 11 -90 q-12 -50 -63 -86 q-52 -36 -136 -38 q-88 -3 -126 37 q-39 40 -21 158 l-14 0 l-40 -184 q3 -2 63 -18 q60 -15 135 -18 l-8 0 l-79 -80 l12 2 l-4 -2 q33 -1 43 -12 q11 -11 0 -33 q-9 -23 -30 -37 q-20 -14 -42 -14 q-8 1 -13 7 q-4 6 -4 7 l-2 -13 q0 -1 17 -10 q16 -10 46 -11 q23 0 42 16 q20 15 32 42 q12 30 -2 47 q-15 17 -51 21 l48 70 l3 0 q93 1 169 46 q76 44 100 130 q16 64 -8 106 q-23 42 -78 84 l-110 88 q-55 44 -68 74 q-13 30 -3 61 q8 40 49 72 q41 32 121 34 q70 1 98 -38 q27 -38 22 -123 l14 0 l35 162 q-4 2 -58 12 q-53 11 -103 12 l0 0 Z" /><glyph glyph-name="" unicode="&#x218;" d="M211 -10 q93 1 169 46 q76 44 100 130 q16 64 -8 106 q-23 42 -78 84 l-110 88 q-55 44 -68 74 q-13 30 -3 61 q8 40 49 72 q41 32 121 34 q70 1 98 -38 q27 -38 22 -123 l14 0 l35 162 q-4 2 -58 12 q-53 11 -103 12 q-121 -6 -181 -54 q-61 -48 -71 -98 q-10 -39 4 -78 q14 -40 69 -87 q19 -16 48 -40 q30 -24 72 -58 q39 -29 62 -66 q22 -37 11 -90 q-12 -50 -63 -86 q-52 -36 -136 -38 q-88 -3 -126 37 q-39 40 -21 158 l-14 0 l-40 -184 q4 -2 67 -18 q62 -16 139 -18 l0 0 ZM67 -235 l11 0 l140 184 l-63 12 l-88 -196 Z" /><glyph glyph-name="" unicode="T" d="M93 0 l306 0 l0 15 q-57 -1 -82 14 q-24 16 -14 62 l135 585 l79 0 q75 -1 91 -42 q16 -41 6 -110 l13 0 l41 176 l-523 0 l-40 -176 l16 -1 q22 69 61 110 q39 42 116 43 l67 0 l-135 -584 q-12 -48 -47 -63 q-34 -15 -90 -14 l0 -15 Z" /><glyph glyph-name="" unicode="&#x166;" d="M321 796 l205 0 l7 28 l-205 0 l-7 -28 ZM93 0 l306 0 l0 15 q-57 -1 -82 14 q-24 16 -14 62 l135 585 l79 0 q75 -1 91 -42 q16 -41 6 -110 l13 0 l41 176 l-523 0 l-40 -176 l16 -1 q22 69 61 110 q39 42 116 43 l67 0 l-135 -584 q-12 -48 -47 -63 q-34 -15 -90 -14 l0 -15 Z" /><glyph glyph-name="" unicode="&#x164;" d="M412 772 l35 0 l136 145 l-14 0 l-130 -90 l-87 90 l-10 0 l70 -145 ZM93 0 l306 0 l0 15 q-57 -1 -82 14 q-24 16 -14 62 l135 585 l79 0 q75 -1 91 -42 q16 -41 6 -110 l13 0 l41 176 l-523 0 l-40 -176 l16 -1 q22 69 61 110 q39 42 116 43 l67 0 l-135 -584 q-12 -48 -47 -63 q-34 -15 -90 -14 l0 -15 Z" /><glyph glyph-name="" unicode="&#x162;" d="M145 700 l-40 -176 l16 -1 q22 69 61 110 q39 42 116 43 l67 0 l-135 -584 q-12 -48 -47 -63 q-34 -15 -90 -14 l0 -15 l154 0 l-77 -78 l12 2 l-4 -2 q33 -1 43 -12 q11 -11 0 -33 q-9 -23 -30 -37 q-20 -14 -42 -14 q-8 1 -13 7 q-4 6 -4 7 l-2 -13 q0 -1 17 -10 q16 -10 46 -11 q23 0 42 16 q20 15 32 42 q12 30 -2 47 q-15 17 -51 21 l47 68 l138 0 l0 15 q-57 -1 -82 14 q-24 16 -14 62 l135 585 l79 0 q75 -1 91 -42 q16 -41 6 -110 l13 0 l41 176 l-523 0 Z" /><glyph glyph-name="" unicode="&#x21a;" d="M93 0 l306 0 l0 15 q-57 -1 -82 14 q-24 16 -14 62 l135 585 l79 0 q75 -1 91 -42 q16 -41 6 -110 l13 0 l41 176 l-523 0 l-40 -176 l16 -1 q22 69 61 110 q39 42 116 43 l67 0 l-135 -584 q-12 -48 -47 -63 q-34 -15 -90 -14 l0 -15 ZM121 -223 l11 0 l140 184 l-63 12 l-88 -196 Z" /><glyph glyph-name="" unicode="U" d="M334 -10 q145 4 209 85 q65 81 85 187 l81 346 q10 45 35 61 q25 17 75 16 l0 15 l-218 0 l0 -15 q53 1 72 -15 q20 -16 9 -61 l-80 -346 q-22 -105 -84 -176 q-61 -70 -186 -73 q-113 5 -130 86 q-17 81 7 172 l78 336 q11 47 43 63 q32 15 85 14 l0 15 l-296 0 l0 -15 q48 2 77 -10 q29 -12 18 -66 l-80 -343 q-30 -110 3 -191 q34 -81 197 -85 l0 0 Z" /><glyph glyph-name="" unicode="Ú" d="M495 752 l16 0 l163 176 l-78 0 l-101 -176 ZM334 -10 q145 4 209 85 q65 81 85 187 l81 346 q10 45 35 61 q25 17 75 16 l0 15 l-218 0 l0 -15 q53 1 72 -15 q20 -16 9 -61 l-80 -346 q-22 -105 -84 -176 q-61 -70 -186 -73 q-113 5 -130 86 q-17 81 7 172 l78 336 q11 47 43 63 q32 15 85 14 l0 15 l-296 0 l0 -15 q48 2 77 -10 q29 -12 18 -66 l-80 -343 q-30 -110 3 -191 q34 -81 197 -85 l0 0 Z" /><glyph glyph-name="" unicode="&#x1d3;" d="M515 772 l35 0 l136 145 l-14 0 l-130 -90 l-87 90 l-10 0 l70 -145 ZM334 -10 q145 4 209 85 q65 81 85 187 l81 346 q10 45 35 61 q25 17 75 16 l0 15 l-218 0 l0 -15 q53 1 72 -15 q20 -16 9 -61 l-80 -346 q-22 -105 -84 -176 q-61 -70 -186 -73 q-113 5 -130 86 q-17 81 7 172 l78 336 q11 47 43 63 q32 15 85 14 l0 15 l-296 0 l0 -15 q48 2 77 -10 q29 -12 18 -66 l-80 -343 q-30 -110 3 -191 q34 -81 197 -85 l0 0 Z" /><glyph glyph-name="" unicode="Û" d="M400 743 l19 0 l126 93 l82 -93 l14 0 l-70 145 l-35 0 l-136 -145 ZM334 -10 q145 4 209 85 q65 81 85 187 l81 346 q10 45 35 61 q25 17 75 16 l0 15 l-218 0 l0 -15 q53 1 72 -15 q20 -16 9 -61 l-80 -346 q-22 -105 -84 -176 q-61 -70 -186 -73 q-113 5 -130 86 q-17 81 7 172 l78 336 q11 47 43 63 q32 15 85 14 l0 15 l-296 0 l0 -15 q48 2 77 -10 q29 -12 18 -66 l-80 -343 q-30 -110 3 -191 q34 -81 197 -85 l0 0 Z" /><glyph glyph-name="" unicode="Ü" d="M470 781 q15 1 28 13 q13 12 17 30 q3 18 -7 31 q-10 12 -30 13 q-15 -1 -27 -13 q-12 -12 -16 -30 q-4 -18 6 -31 q9 -12 29 -13 l0 0 ZM608 781 q16 1 29 14 q12 12 16 28 q4 19 -6 32 q-10 12 -31 13 q-15 -1 -27 -13 q-12 -12 -16 -29 q-4 -19 6 -31 q9 -13 29 -14 l0 0 ZM334 -10 q145 4 209 85 q65 81 85 187 l81 346 q10 45 35 61 q25 17 75 16 l0 15 l-218 0 l0 -15 q53 1 72 -15 q20 -16 9 -61 l-80 -346 q-22 -105 -84 -176 q-61 -70 -186 -73 q-113 5 -130 86 q-17 81 7 172 l78 336 q11 47 43 63 q32 15 85 14 l0 15 l-296 0 l0 -15 q48 2 77 -10 q29 -12 18 -66 l-80 -343 q-30 -110 3 -191 q34 -81 197 -85 l0 0 Z" /><glyph glyph-name="" unicode="&#x1d7;" d="M535 883 l16 0 l163 176 l-78 0 l-101 -176 ZM467 781 q15 1 28 13 q13 12 17 30 q3 18 -7 31 q-10 12 -30 13 q-15 -1 -27 -13 q-12 -12 -16 -30 q-4 -18 6 -31 q9 -12 29 -13 l0 0 ZM605 781 q16 1 29 14 q12 12 16 28 q4 19 -6 32 q-10 12 -31 13 q-15 -1 -27 -13 q-12 -12 -16 -29 q-4 -19 6 -31 q9 -13 29 -14 l0 0 ZM334 -10 q145 4 209 85 q65 81 85 187 l81 346 q10 45 35 61 q25 17 75 16 l0 15 l-218 0 l0 -15 q53 1 72 -15 q20 -16 9 -61 l-80 -346 q-22 -105 -84 -176 q-61 -70 -186 -73 q-113 5 -130 86 q-17 81 7 172 l78 336 q11 47 43 63 q32 15 85 14 l0 15 l-296 0 l0 -15 q48 2 77 -10 q29 -12 18 -66 l-80 -343 q-30 -110 3 -191 q34 -81 197 -85 l0 0 Z" /><glyph glyph-name="" unicode="&#x1d9;" d="M534 865 l35 0 l136 145 l-14 0 l-130 -90 l-87 90 l-10 0 l70 -145 ZM467 781 q15 1 28 13 q13 12 17 30 q3 18 -7 31 q-10 12 -30 13 q-15 -1 -27 -13 q-12 -12 -16 -30 q-4 -18 6 -31 q9 -12 29 -13 l0 0 ZM605 781 q16 1 29 14 q12 12 16 28 q4 19 -6 32 q-10 12 -31 13 q-15 -1 -27 -13 q-12 -12 -16 -29 q-4 -19 6 -31 q9 -13 29 -14 l0 0 ZM334 -10 q145 4 209 85 q65 81 85 187 l81 346 q10 45 35 61 q25 17 75 16 l0 15 l-218 0 l0 -15 q53 1 72 -15 q20 -16 9 -61 l-80 -346 q-22 -105 -84 -176 q-61 -70 -186 -73 q-113 5 -130 86 q-17 81 7 172 l78 336 q11 47 43 63 q32 15 85 14 l0 15 l-296 0 l0 -15 q48 2 77 -10 q29 -12 18 -66 l-80 -343 q-30 -110 3 -191 q34 -81 197 -85 l0 0 Z" /><glyph glyph-name="" unicode="&#x1db;" d="M550 847 l18 0 l-56 176 l-75 0 l113 -176 ZM467 781 q15 1 28 13 q13 12 17 30 q3 18 -7 31 q-10 12 -30 13 q-15 -1 -27 -13 q-12 -12 -16 -30 q-4 -18 6 -31 q9 -12 29 -13 l0 0 ZM605 781 q16 1 29 14 q12 12 16 28 q4 19 -6 32 q-10 12 -31 13 q-15 -1 -27 -13 q-12 -12 -16 -29 q-4 -19 6 -31 q9 -13 29 -14 l0 0 ZM334 -10 q145 4 209 85 q65 81 85 187 l81 346 q10 45 35 61 q25 17 75 16 l0 15 l-218 0 l0 -15 q53 1 72 -15 q20 -16 9 -61 l-80 -346 q-22 -105 -84 -176 q-61 -70 -186 -73 q-113 5 -130 86 q-17 81 7 172 l78 336 q11 47 43 63 q32 15 85 14 l0 15 l-296 0 l0 -15 q48 2 77 -10 q29 -12 18 -66 l-80 -343 q-30 -110 3 -191 q34 -81 197 -85 l0 0 Z" /><glyph glyph-name="" unicode="&#x1d5;" d="M450 905 l205 0 l7 28 l-205 0 l-7 -28 ZM467 781 q15 1 28 13 q13 12 17 30 q3 18 -7 31 q-10 12 -30 13 q-15 -1 -27 -13 q-12 -12 -16 -30 q-4 -18 6 -31 q9 -12 29 -13 l0 0 ZM605 781 q16 1 29 14 q12 12 16 28 q4 19 -6 32 q-10 12 -31 13 q-15 -1 -27 -13 q-12 -12 -16 -29 q-4 -19 6 -31 q9 -13 29 -14 l0 0 ZM334 -10 q145 4 209 85 q65 81 85 187 l81 346 q10 45 35 61 q25 17 75 16 l0 15 l-218 0 l0 -15 q53 1 72 -15 q20 -16 9 -61 l-80 -346 q-22 -105 -84 -176 q-61 -70 -186 -73 q-113 5 -130 86 q-17 81 7 172 l78 336 q11 47 43 63 q32 15 85 14 l0 15 l-296 0 l0 -15 q48 2 77 -10 q29 -12 18 -66 l-80 -343 q-30 -110 3 -191 q34 -81 197 -85 l0 0 Z" /><glyph glyph-name="" unicode="&#x1ee4;" d="M334 -10 q145 4 209 85 q65 81 85 187 l81 346 q10 45 35 61 q25 17 75 16 l0 15 l-218 0 l0 -15 q53 1 72 -15 q20 -16 9 -61 l-80 -346 q-22 -105 -84 -176 q-61 -70 -186 -73 q-113 5 -130 86 q-17 81 7 172 l78 336 q11 47 43 63 q32 15 85 14 l0 15 l-296 0 l0 -15 q48 2 77 -10 q29 -12 18 -66 l-80 -343 q-30 -110 3 -191 q34 -81 197 -85 l0 0 ZM300 -172 q17 1 33 15 q15 14 20 34 q5 22 -7 37 q-13 14 -35 15 q-18 -1 -33 -15 q-14 -14 -19 -34 q-5 -22 6 -36 q11 -15 35 -16 l0 0 Z" /><glyph glyph-name="" unicode="Ù" d="M529 753 l15 0 l-19 176 l-74 0 l78 -176 ZM334 -10 q145 4 209 85 q65 81 85 187 l81 346 q10 45 35 61 q25 17 75 16 l0 15 l-218 0 l0 -15 q53 1 72 -15 q20 -16 9 -61 l-80 -346 q-22 -105 -84 -176 q-61 -70 -186 -73 q-113 5 -130 86 q-17 81 7 172 l78 336 q11 47 43 63 q32 15 85 14 l0 15 l-296 0 l0 -15 q48 2 77 -10 q29 -12 18 -66 l-80 -343 q-30 -110 3 -191 q34 -81 197 -85 l0 0 Z" /><glyph glyph-name="" unicode="&#x1ee6;" d="M514 757 q16 6 42 34 q27 28 30 62 q0 29 -19 48 q-19 20 -55 21 q-42 -4 -64 -30 q-23 -26 -23 -30 l3 -5 q7 7 24 18 q18 10 39 11 q27 -1 37 -19 q11 -18 10 -35 q-1 -28 -11 -45 q-11 -18 -17 -25 l4 -5 ZM334 -10 q145 4 209 85 q65 81 85 187 l81 346 q10 45 35 61 q25 17 75 16 l0 15 l-218 0 l0 -15 q53 1 72 -15 q20 -16 9 -61 l-80 -346 q-22 -105 -84 -176 q-61 -70 -186 -73 q-113 5 -130 86 q-17 81 7 172 l78 336 q11 47 43 63 q32 15 85 14 l0 15 l-296 0 l0 -15 q48 2 77 -10 q29 -12 18 -66 l-80 -343 q-30 -110 3 -191 q34 -81 197 -85 l0 0 Z" /><glyph glyph-name="" unicode="&#x170;" d="M445 752 l16 0 l163 176 l-78 0 l-101 -176 ZM555 752 l15 0 l163 176 l-77 0 l-101 -176 ZM334 -10 q145 4 209 85 q65 81 85 187 l81 346 q10 45 35 61 q25 17 75 16 l0 15 l-218 0 l0 -15 q53 1 72 -15 q20 -16 9 -61 l-80 -346 q-22 -105 -84 -176 q-61 -70 -186 -73 q-113 5 -130 86 q-17 81 7 172 l78 336 q11 47 43 63 q32 15 85 14 l0 15 l-296 0 l0 -15 q48 2 77 -10 q29 -12 18 -66 l-80 -343 q-30 -110 3 -191 q34 -81 197 -85 l0 0 Z" /><glyph glyph-name="" unicode="&#x16a;" d="M425 796 l205 0 l7 28 l-205 0 l-7 -28 ZM334 -10 q145 4 209 85 q65 81 85 187 l81 346 q10 45 35 61 q25 17 75 16 l0 15 l-218 0 l0 -15 q53 1 72 -15 q20 -16 9 -61 l-80 -346 q-22 -105 -84 -176 q-61 -70 -186 -73 q-113 5 -130 86 q-17 81 7 172 l78 336 q11 47 43 63 q32 15 85 14 l0 15 l-296 0 l0 -15 q48 2 77 -10 q29 -12 18 -66 l-80 -343 q-30 -110 3 -191 q34 -81 197 -85 l0 0 Z" /><glyph glyph-name="" unicode="&#x172;" d="M601 700 l0 -15 q53 1 72 -15 q20 -16 9 -61 l-80 -346 q-22 -105 -84 -176 q-61 -70 -186 -73 q-113 5 -130 86 q-17 81 7 172 l78 336 q11 47 43 63 q32 15 85 14 l0 15 l-296 0 l0 -15 q48 2 77 -10 q29 -12 18 -66 l-80 -343 q-30 -110 3 -190 q33 -81 195 -86 q-30 -28 -55 -59 q-25 -32 -33 -61 q-5 -28 9 -42 q14 -14 41 -14 q28 1 47 11 q19 9 20 10 l2 22 q-1 -1 -15 -6 q-14 -5 -33 -6 q-14 0 -16 12 q-3 11 3 28 q4 19 20 48 q15 29 35 58 q132 11 191 91 q60 79 80 180 l81 346 q10 45 35 61 q25 17 75 16 l0 15 l-218 0 Z" /><glyph glyph-name="" unicode="&#x16e;" d="M530 760 q30 1 53 18 q23 17 30 42 q5 26 -14 44 q-19 18 -54 19 q-30 -1 -53 -18 q-23 -18 -30 -44 q-5 -25 14 -42 q18 -18 54 -19 l0 0 ZM522 786 q-11 1 -15 10 q-4 10 -2 22 q4 16 18 26 q13 10 29 10 q11 0 16 -10 q5 -9 2 -24 q-4 -14 -17 -24 q-14 -10 -31 -10 l0 0 ZM334 -10 q145 4 209 85 q65 81 85 187 l81 346 q10 45 35 61 q25 17 75 16 l0 15 l-218 0 l0 -15 q53 1 72 -15 q20 -16 9 -61 l-80 -346 q-22 -105 -84 -176 q-61 -70 -186 -73 q-113 5 -130 86 q-17 81 7 172 l78 336 q11 47 43 63 q32 15 85 14 l0 15 l-296 0 l0 -15 q48 2 77 -10 q29 -12 18 -66 l-80 -343 q-30 -110 3 -191 q34 -81 197 -85 l0 0 Z" /><glyph glyph-name="" unicode="&#x168;" d="M588 780 q25 2 41 28 q17 27 28 57 l-9 1 q0 -2 -14 -18 q-15 -16 -45 -18 q-25 2 -48 18 q-23 16 -56 18 q-26 -2 -41 -28 q-15 -27 -28 -57 l9 0 q0 2 15 18 q14 15 44 17 q23 -2 48 -18 q24 -16 56 -18 l0 0 ZM334 -10 q145 4 209 85 q65 81 85 187 l81 346 q10 45 35 61 q25 17 75 16 l0 15 l-218 0 l0 -15 q53 1 72 -15 q20 -16 9 -61 l-80 -346 q-22 -105 -84 -176 q-61 -70 -186 -73 q-113 5 -130 86 q-17 81 7 172 l78 336 q11 47 43 63 q32 15 85 14 l0 15 l-296 0 l0 -15 q48 2 77 -10 q29 -12 18 -66 l-80 -343 q-30 -110 3 -191 q34 -81 197 -85 l0 0 Z" /><glyph glyph-name="" unicode="V" d="M256 -14 l26 0 q19 31 161 277 q141 247 193 336 q28 50 59 69 q30 18 80 17 l0 15 l-252 0 l0 -15 l42 0 q37 1 54 -13 q18 -15 -4 -55 l-288 -518 q-3 27 -26 236 q-23 210 -30 281 q-2 50 32 60 q34 11 80 9 l27 0 l0 15 l-316 0 l0 -15 q60 1 75 -16 q15 -17 18 -69 l69 -614 Z" /><glyph glyph-name="" unicode="W" d="M860 700 l0 -15 l39 0 q34 2 56 -10 q22 -11 -1 -58 q-43 -86 -132 -262 q-88 -176 -120 -240 l-49 599 l-26 0 l-325 -598 q-4 67 -15 250 q-10 183 -16 250 q-2 50 34 60 q36 11 75 9 l29 0 l0 15 l-315 0 l0 -15 q58 1 75 -15 q17 -17 21 -67 q8 -84 22 -334 q13 -251 15 -283 l27 0 l328 598 l48 -598 l26 0 q16 31 143 278 q127 246 176 335 q29 52 61 70 q32 17 79 16 l0 15 l-255 0 Z" /><glyph glyph-name="" unicode="&#x1e82;" d="M800 927 l-78 0 l-101 -176 l16 0 l163 176 ZM860 700 l0 -15 l39 0 q34 2 56 -10 q22 -11 -1 -58 q-43 -86 -132 -262 q-88 -176 -120 -240 l-49 599 l-26 0 l-325 -598 q-4 67 -15 250 q-10 183 -16 250 q-2 50 34 60 q36 11 75 9 l29 0 l0 15 l-315 0 l0 -15 q58 1 75 -15 q17 -17 21 -67 q8 -84 22 -334 q13 -251 15 -283 l27 0 l328 598 l48 -598 l26 0 q16 31 143 278 q127 246 176 335 q29 52 61 70 q32 17 79 16 l0 15 l-255 0 Z" /><glyph glyph-name="" unicode="&#x174;" d="M672 835 l82 -93 l14 0 l-70 145 l-35 0 l-136 -145 l19 0 l126 93 ZM860 700 l0 -15 l39 0 q34 2 56 -10 q22 -11 -1 -58 q-43 -86 -132 -262 q-88 -176 -120 -240 l-49 599 l-26 0 l-325 -598 q-4 67 -15 250 q-10 183 -16 250 q-2 50 34 60 q36 11 75 9 l29 0 l0 15 l-315 0 l0 -15 q58 1 75 -15 q17 -17 21 -67 q8 -84 22 -334 q13 -251 15 -283 l27 0 l328 598 l48 -598 l26 0 q16 31 143 278 q127 246 176 335 q29 52 61 70 q32 17 79 16 l0 15 l-255 0 Z" /><glyph glyph-name="" unicode="&#x1e84;" d="M597 780 q15 1 28 13 q13 12 17 30 q3 18 -7 31 q-10 12 -30 13 q-15 -1 -27 -13 q-12 -12 -16 -30 q-4 -18 6 -31 q9 -12 29 -13 l0 0 ZM735 780 q16 1 29 14 q12 12 16 28 q4 19 -6 32 q-10 12 -31 13 q-15 -1 -27 -13 q-12 -12 -16 -29 q-4 -19 6 -31 q9 -13 29 -14 l0 0 ZM860 700 l0 -15 l39 0 q34 2 56 -10 q22 -11 -1 -58 q-43 -86 -132 -262 q-88 -176 -120 -240 l-49 599 l-26 0 l-325 -598 q-4 67 -15 250 q-10 183 -16 250 q-2 50 34 60 q36 11 75 9 l29 0 l0 15 l-315 0 l0 -15 q58 1 75 -15 q17 -17 21 -67 q8 -84 22 -334 q13 -251 15 -283 l27 0 l328 598 l48 -598 l26 0 q16 31 143 278 q127 246 176 335 q29 52 61 70 q32 17 79 16 l0 15 l-255 0 Z" /><glyph glyph-name="" unicode="&#x1e80;" d="M671 752 l-19 176 l-74 0 l78 -176 l15 0 ZM860 700 l0 -15 l39 0 q34 2 56 -10 q22 -11 -1 -58 q-43 -86 -132 -262 q-88 -176 -120 -240 l-49 599 l-26 0 l-325 -598 q-4 67 -15 250 q-10 183 -16 250 q-2 50 34 60 q36 11 75 9 l29 0 l0 15 l-315 0 l0 -15 q58 1 75 -15 q17 -17 21 -67 q8 -84 22 -334 q13 -251 15 -283 l27 0 l328 598 l48 -598 l26 0 q16 31 143 278 q127 246 176 335 q29 52 61 70 q32 17 79 16 l0 15 l-255 0 Z" /><glyph glyph-name="" unicode="X" d="M-48 0 l250 0 q0 3 0 8 q0 5 0 7 l-30 0 q-48 -1 -60 11 q-12 13 21 50 q39 43 96 107 q58 64 139 152 q31 -84 56 -154 q26 -69 38 -104 q12 -41 -13 -52 q-26 -11 -76 -10 q-5 0 -13 0 q-8 0 -9 1 l0 -16 l319 0 l0 15 q-54 -2 -79 8 q-24 10 -40 52 q-24 56 -55 140 q-32 85 -68 181 q152 166 217 229 q65 63 141 60 l0 15 l-250 0 q0 -3 0 -8 q0 -5 0 -7 l39 0 q73 2 26 -60 q-47 -63 -185 -208 q-25 72 -44 125 q-19 52 -29 82 q-13 40 11 51 q24 11 72 10 q6 0 15 0 q9 0 10 -1 l0 16 l-304 0 l1 -15 q48 2 69 -9 q21 -11 38 -57 q58 -152 67 -176 q10 -24 33 -88 q-85 -90 -149 -159 q-63 -69 -80 -88 q-41 -46 -76 -70 q-35 -23 -98 -23 l0 -15 Z" /><glyph glyph-name="" unicode="Y" d="M137 0 l307 0 l1 14 q-50 -2 -79 10 q-29 12 -18 63 l57 243 q149 184 232 270 q83 86 163 85 l0 15 l-246 0 l0 -15 l29 0 q80 0 18 -80 q-62 -81 -204 -246 q-31 84 -58 156 q-27 71 -40 107 q-14 41 10 53 q24 11 70 10 l35 0 l0 15 l-320 0 l0 -15 q53 2 77 -7 q24 -9 42 -51 q13 -30 49 -123 q36 -94 68 -179 l-56 -237 q-13 -48 -49 -62 q-37 -14 -87 -12 l-1 -14 Z" /><glyph glyph-name="" unicode="Ý" d="M434 752 l16 0 l163 176 l-78 0 l-101 -176 ZM137 0 l307 0 l1 14 q-50 -2 -79 10 q-29 12 -18 63 l57 243 q149 184 232 270 q83 86 163 85 l0 15 l-246 0 l0 -15 l29 0 q80 0 18 -80 q-62 -81 -204 -246 q-31 84 -58 156 q-27 71 -40 107 q-14 41 10 53 q24 11 70 10 l35 0 l0 15 l-320 0 l0 -15 q53 2 77 -7 q24 -9 42 -51 q13 -30 49 -123 q36 -94 68 -179 l-56 -237 q-13 -48 -49 -62 q-37 -14 -87 -12 l-1 -14 Z" /><glyph glyph-name="" unicode="&#x176;" d="M340 743 l19 0 l126 93 l82 -93 l14 0 l-70 145 l-35 0 l-136 -145 ZM137 0 l307 0 l1 14 q-50 -2 -79 10 q-29 12 -18 63 l57 243 q149 184 232 270 q83 86 163 85 l0 15 l-246 0 l0 -15 l29 0 q80 0 18 -80 q-62 -81 -204 -246 q-31 84 -58 156 q-27 71 -40 107 q-14 41 10 53 q24 11 70 10 l35 0 l0 15 l-320 0 l0 -15 q53 2 77 -7 q24 -9 42 -51 q13 -30 49 -123 q36 -94 68 -179 l-56 -237 q-13 -48 -49 -62 q-37 -14 -87 -12 l-1 -14 Z" /><glyph glyph-name="" unicode="&#x178;" d="M410 781 q15 1 28 13 q13 12 17 30 q3 18 -7 31 q-10 12 -30 13 q-15 -1 -27 -13 q-12 -12 -16 -30 q-4 -18 6 -31 q9 -12 29 -13 l0 0 ZM548 781 q16 1 29 14 q12 12 16 28 q4 19 -6 32 q-10 12 -31 13 q-15 -1 -27 -13 q-12 -12 -16 -29 q-4 -19 6 -31 q9 -13 29 -14 l0 0 ZM137 0 l307 0 l1 14 q-50 -2 -79 10 q-29 12 -18 63 l57 243 q149 184 232 270 q83 86 163 85 l0 15 l-246 0 l0 -15 l29 0 q80 0 18 -80 q-62 -81 -204 -246 q-31 84 -58 156 q-27 71 -40 107 q-14 41 10 53 q24 11 70 10 l35 0 l0 15 l-320 0 l0 -15 q53 2 77 -7 q24 -9 42 -51 q13 -30 49 -123 q36 -94 68 -179 l-56 -237 q-13 -48 -49 -62 q-37 -14 -87 -12 l-1 -14 Z" /><glyph glyph-name="" unicode="&#x1ef4;" d="M137 0 l307 0 l1 14 q-50 -2 -79 10 q-29 12 -18 63 l57 243 q149 184 232 270 q83 86 163 85 l0 15 l-246 0 l0 -15 l29 0 q80 0 18 -80 q-62 -81 -204 -246 q-31 84 -58 156 q-27 71 -40 107 q-14 41 10 53 q24 11 70 10 l35 0 l0 15 l-320 0 l0 -15 q53 2 77 -7 q24 -9 42 -51 q13 -30 49 -123 q36 -94 68 -179 l-56 -237 q-13 -48 -49 -62 q-37 -14 -87 -12 l-1 -14 ZM260 -172 q17 1 33 15 q15 14 20 34 q5 22 -7 37 q-13 14 -35 15 q-18 -1 -33 -15 q-14 -14 -19 -34 q-5 -22 6 -36 q11 -15 35 -16 l0 0 Z" /><glyph glyph-name="" unicode="&#x1ef2;" d="M469 753 l15 0 l-19 176 l-74 0 l78 -176 ZM137 0 l307 0 l1 14 q-50 -2 -79 10 q-29 12 -18 63 l57 243 q149 184 232 270 q83 86 163 85 l0 15 l-246 0 l0 -15 l29 0 q80 0 18 -80 q-62 -81 -204 -246 q-31 84 -58 156 q-27 71 -40 107 q-14 41 10 53 q24 11 70 10 l35 0 l0 15 l-320 0 l0 -15 q53 2 77 -7 q24 -9 42 -51 q13 -30 49 -123 q36 -94 68 -179 l-56 -237 q-13 -48 -49 -62 q-37 -14 -87 -12 l-1 -14 Z" /><glyph glyph-name="" unicode="&#x1ef6;" d="M453 757 q16 6 42 34 q27 28 30 62 q0 29 -19 48 q-19 20 -55 21 q-42 -4 -64 -30 q-23 -26 -23 -30 l3 -5 q7 7 24 18 q18 10 39 11 q27 -1 37 -19 q11 -18 10 -35 q-1 -28 -11 -45 q-11 -18 -17 -25 l4 -5 ZM137 0 l307 0 l1 14 q-50 -2 -79 10 q-29 12 -18 63 l57 243 q149 184 232 270 q83 86 163 85 l0 15 l-246 0 l0 -15 l29 0 q80 0 18 -80 q-62 -81 -204 -246 q-31 84 -58 156 q-27 71 -40 107 q-14 41 10 53 q24 11 70 10 l35 0 l0 15 l-320 0 l0 -15 q53 2 77 -7 q24 -9 42 -51 q13 -30 49 -123 q36 -94 68 -179 l-56 -237 q-13 -48 -49 -62 q-37 -14 -87 -12 l-1 -14 Z" /><glyph glyph-name="" unicode="&#x1ef8;" d="M527 780 q25 2 41 28 q17 27 28 57 l-9 1 q0 -2 -14 -18 q-15 -16 -45 -18 q-25 2 -48 18 q-23 16 -56 18 q-26 -2 -41 -28 q-15 -27 -28 -57 l9 0 q0 2 15 18 q14 15 44 17 q23 -2 48 -18 q24 -16 56 -18 l0 0 ZM137 0 l307 0 l1 14 q-50 -2 -79 10 q-29 12 -18 63 l57 243 q149 184 232 270 q83 86 163 85 l0 15 l-246 0 l0 -15 l29 0 q80 0 18 -80 q-62 -81 -204 -246 q-31 84 -58 156 q-27 71 -40 107 q-14 41 10 53 q24 11 70 10 l35 0 l0 15 l-320 0 l0 -15 q53 2 77 -7 q24 -9 42 -51 q13 -30 49 -123 q36 -94 68 -179 l-56 -237 q-13 -48 -49 -62 q-37 -14 -87 -12 l-1 -14 Z" /><glyph glyph-name="" unicode="Z" d="M-8 0 l527 0 l47 204 l-16 1 q-37 -97 -73 -140 q-37 -42 -107 -41 l-272 0 l580 665 l0 11 l-488 0 l-41 -176 l16 -1 q31 81 69 117 q37 37 104 36 l234 0 l-580 -665 l0 -11 Z" /><glyph glyph-name="" unicode="&#x179;" d="M430 752 l16 0 l163 176 l-78 0 l-101 -176 ZM-8 0 l527 0 l47 204 l-16 1 q-37 -97 -73 -140 q-37 -42 -107 -41 l-272 0 l580 665 l0 11 l-488 0 l-41 -176 l16 -1 q31 81 69 117 q37 37 104 36 l234 0 l-580 -665 l0 -11 Z" /><glyph glyph-name="" unicode="&#x17d;" d="M450 772 l35 0 l136 145 l-14 0 l-130 -90 l-87 90 l-10 0 l70 -145 ZM-8 0 l527 0 l47 204 l-16 1 q-37 -97 -73 -140 q-37 -42 -107 -41 l-272 0 l580 665 l0 11 l-488 0 l-41 -176 l16 -1 q31 81 69 117 q37 37 104 36 l234 0 l-580 -665 l0 -11 Z" /><glyph glyph-name="" unicode="&#x17b;" d="M477 773 q18 1 33 15 q14 14 20 35 q5 21 -7 36 q-13 14 -35 15 q-18 -1 -32 -15 q-15 -14 -21 -34 q-4 -22 7 -36 q11 -15 35 -16 l0 0 ZM-8 0 l527 0 l47 204 l-16 1 q-37 -97 -73 -140 q-37 -42 -107 -41 l-272 0 l580 665 l0 11 l-488 0 l-41 -176 l16 -1 q31 81 69 117 q37 37 104 36 l234 0 l-580 -665 l0 -11 Z" /><glyph glyph-name="" unicode="a" d="M407 37 q-2 -1 -24 -7 q-22 -7 -39 -8 q-10 0 -17 6 q-6 7 -2 23 l81 358 l-25 4 q1 1 1 1 q0 0 0 1 q-8 3 -39 9 q-32 5 -66 6 q-77 0 -147 -56 q-71 -56 -99 -163 q-24 -105 5 -162 q30 -56 106 -57 q37 0 67 21 q30 21 53 59 q-2 -10 -3 -16 q-1 -6 -2 -8 q-6 -25 6 -40 q11 -16 43 -16 q38 2 70 18 q32 16 34 18 l-3 9 ZM295 219 q-11 -59 -44 -129 q-33 -71 -95 -77 q-43 0 -57 50 q-15 50 6 148 q19 89 61 143 q42 55 104 56 q30 -1 46 -8 q15 -7 18 -10 q-7 -34 -15 -68 q-7 -35 -15 -69 l-9 -36 Z" /><glyph glyph-name="" unicode="á" d="M425 655 l-78 0 l-101 -176 l16 0 l163 176 ZM344 22 q-10 0 -17 6 q-6 7 -2 23 l81 358 l-25 4 q1 1 1 1 q0 0 0 1 q-8 3 -39 9 q-32 5 -66 6 q-77 0 -147 -56 q-71 -56 -99 -163 q-24 -105 5 -162 q30 -56 106 -57 q37 0 67 21 q30 21 53 59 q-2 -10 -3 -16 q-1 -6 -2 -8 q-6 -25 6 -40 q11 -16 43 -16 q38 2 70 18 q32 16 34 18 l-3 9 q-2 -1 -24 -7 q-22 -7 -39 -8 l0 0 ZM295 219 q-11 -59 -44 -129 q-33 -71 -95 -77 q-43 0 -57 50 q-15 50 6 148 q19 89 61 143 q42 55 104 56 q30 -1 46 -8 q15 -7 18 -10 q-7 -34 -15 -68 q-7 -35 -15 -69 l-9 -36 Z" /><glyph glyph-name="" unicode="&#x103;" d="M280 482 q73 9 113 69 q39 60 40 69 l-12 0 q-1 -5 -38 -42 q-37 -37 -104 -42 q-59 5 -74 42 q-16 37 -14 42 l-9 0 q-4 -9 10 -69 q14 -60 88 -69 l0 0 ZM344 22 q-10 0 -17 6 q-6 7 -2 23 l81 358 l-25 4 q1 1 1 1 q0 0 0 1 q-8 3 -39 9 q-32 5 -66 6 q-77 0 -147 -56 q-71 -56 -99 -163 q-24 -105 5 -162 q30 -56 106 -57 q37 0 67 21 q30 21 53 59 q-2 -10 -3 -16 q-1 -6 -2 -8 q-6 -25 6 -40 q11 -16 43 -16 q38 2 70 18 q32 16 34 18 l-3 9 q-2 -1 -24 -7 q-22 -7 -39 -8 l0 0 ZM295 219 q-11 -59 -44 -129 q-33 -71 -95 -77 q-43 0 -57 50 q-15 50 6 148 q19 89 61 143 q42 55 104 56 q30 -1 46 -8 q15 -7 18 -10 q-7 -34 -15 -68 q-7 -35 -15 -69 l-9 -36 Z" /><glyph glyph-name="" unicode="&#x1eb7;" d="M280 482 q73 9 113 69 q39 60 40 69 l-12 0 q-1 -5 -38 -42 q-37 -37 -104 -42 q-59 5 -74 42 q-16 37 -14 42 l-9 0 q-4 -9 10 -69 q14 -60 88 -69 l0 0 ZM344 22 q-10 0 -17 6 q-6 7 -2 23 l81 358 l-25 4 q1 1 1 1 q0 0 0 1 q-8 3 -39 9 q-32 5 -66 6 q-77 0 -147 -56 q-71 -56 -99 -163 q-24 -105 5 -162 q30 -56 106 -57 q37 0 67 21 q30 21 53 59 q-2 -10 -3 -16 q-1 -6 -2 -8 q-6 -25 6 -40 q11 -16 43 -16 q38 2 70 18 q32 16 34 18 l-3 9 q-2 -1 -24 -7 q-22 -7 -39 -8 l0 0 ZM295 219 q-11 -59 -44 -129 q-33 -71 -95 -77 q-43 0 -57 50 q-15 50 6 148 q19 89 61 143 q42 55 104 56 q30 -1 46 -8 q15 -7 18 -10 q-7 -34 -15 -68 q-7 -35 -15 -69 l-9 -36 ZM126 -86 q-18 -1 -33 -15 q-14 -14 -19 -34 q-5 -22 6 -36 q11 -15 35 -16 q17 1 33 15 q15 14 20 34 q5 22 -7 37 q-13 14 -35 15 l0 0 Z" /><glyph glyph-name="" unicode="&#x1ce;" d="M302 499 l136 145 l-14 0 l-130 -90 l-87 90 l-10 0 l70 -145 l35 0 ZM344 22 q-10 0 -17 6 q-6 7 -2 23 l81 358 l-25 4 q1 1 1 1 q0 0 0 1 q-8 3 -39 9 q-32 5 -66 6 q-77 0 -147 -56 q-71 -56 -99 -163 q-24 -105 5 -162 q30 -56 106 -57 q37 0 67 21 q30 21 53 59 q-2 -10 -3 -16 q-1 -6 -2 -8 q-6 -25 6 -40 q11 -16 43 -16 q38 2 70 18 q32 16 34 18 l-3 9 q-2 -1 -24 -7 q-22 -7 -39 -8 l0 0 ZM295 219 q-11 -59 -44 -129 q-33 -71 -95 -77 q-43 0 -57 50 q-15 50 6 148 q19 89 61 143 q42 55 104 56 q30 -1 46 -8 q15 -7 18 -10 q-7 -34 -15 -68 q-7 -35 -15 -69 l-9 -36 Z" /><glyph glyph-name="" unicode="â" d="M296 563 l82 -93 l14 0 l-70 145 l-35 0 l-136 -145 l19 0 l126 93 ZM407 37 q-2 -1 -24 -7 q-22 -7 -39 -8 q-10 0 -17 6 q-6 7 -2 23 l81 358 l-25 4 q1 1 1 1 q0 0 0 1 q-8 3 -39 9 q-32 5 -66 6 q-77 0 -147 -56 q-71 -56 -99 -163 q-24 -105 5 -162 q30 -56 106 -57 q37 0 67 21 q30 21 53 59 q-2 -10 -3 -16 q-1 -6 -2 -8 q-6 -25 6 -40 q11 -16 43 -16 q38 2 70 18 q32 16 34 18 l-3 9 ZM295 219 q-11 -59 -44 -129 q-33 -71 -95 -77 q-43 0 -57 50 q-15 50 6 148 q19 89 61 143 q42 55 104 56 q30 -1 46 -8 q15 -7 18 -10 q-7 -34 -15 -68 q-7 -35 -15 -69 l-9 -36 Z" /><glyph glyph-name="" unicode="&#x1ead;" d="M296 563 l82 -93 l14 0 l-70 145 l-35 0 l-136 -145 l19 0 l126 93 ZM407 37 q-2 -1 -24 -7 q-22 -7 -39 -8 q-10 0 -17 6 q-6 7 -2 23 l81 358 l-25 4 q1 1 1 1 q0 0 0 1 q-8 3 -39 9 q-32 5 -66 6 q-77 0 -147 -56 q-71 -56 -99 -163 q-24 -105 5 -162 q30 -56 106 -57 q37 0 67 21 q30 21 53 59 q-2 -10 -3 -16 q-1 -6 -2 -8 q-6 -25 6 -40 q11 -16 43 -16 q38 2 70 18 q32 16 34 18 l-3 9 ZM295 219 q-11 -59 -44 -129 q-33 -71 -95 -77 q-43 0 -57 50 q-15 50 6 148 q19 89 61 143 q42 55 104 56 q30 -1 46 -8 q15 -7 18 -10 q-7 -34 -15 -68 q-7 -35 -15 -69 l-9 -36 ZM126 -86 q-18 -1 -33 -15 q-14 -14 -19 -34 q-5 -22 6 -36 q11 -15 35 -16 q17 1 33 15 q15 14 20 34 q5 22 -7 37 q-13 14 -35 15 l0 0 Z" /><glyph glyph-name="" unicode="ä" d="M221 508 q15 1 28 13 q13 12 17 30 q3 18 -7 31 q-10 12 -30 13 q-15 -1 -27 -13 q-12 -12 -16 -30 q-4 -18 6 -31 q9 -12 29 -13 l0 0 ZM359 508 q16 1 29 14 q12 12 16 28 q4 19 -6 32 q-10 12 -31 13 q-15 -1 -27 -13 q-12 -12 -16 -29 q-4 -19 6 -31 q9 -13 29 -14 l0 0 ZM407 37 q-2 -1 -24 -7 q-22 -7 -39 -8 q-10 0 -17 6 q-6 7 -2 23 l81 358 l-25 4 q1 1 1 1 q0 0 0 1 q-8 3 -39 9 q-32 5 -66 6 q-77 0 -147 -56 q-71 -56 -99 -163 q-24 -105 5 -162 q30 -56 106 -57 q37 0 67 21 q30 21 53 59 q-2 -10 -3 -16 q-1 -6 -2 -8 q-6 -25 6 -40 q11 -16 43 -16 q38 2 70 18 q32 16 34 18 l-3 9 ZM295 219 q-11 -59 -44 -129 q-33 -71 -95 -77 q-43 0 -57 50 q-15 50 6 148 q19 89 61 143 q42 55 104 56 q30 -1 46 -8 q15 -7 18 -10 q-7 -34 -15 -68 q-7 -35 -15 -69 l-9 -36 Z" /><glyph glyph-name="" unicode="&#x1ea1;" d="M407 37 q-2 -1 -24 -7 q-22 -7 -39 -8 q-10 0 -17 6 q-6 7 -2 23 l81 358 l-25 4 q1 1 1 1 q0 0 0 1 q-8 3 -39 9 q-32 5 -66 6 q-77 0 -147 -56 q-71 -56 -99 -163 q-24 -105 5 -162 q30 -56 106 -57 q37 0 67 21 q30 21 53 59 q-2 -10 -3 -16 q-1 -6 -2 -8 q-6 -25 6 -40 q11 -16 43 -16 q38 2 70 18 q32 16 34 18 l-3 9 ZM295 219 q-11 -59 -44 -129 q-33 -71 -95 -77 q-43 0 -57 50 q-15 50 6 148 q19 89 61 143 q42 55 104 56 q30 -1 46 -8 q15 -7 18 -10 q-7 -34 -15 -68 q-7 -35 -15 -69 l-9 -36 ZM126 -86 q-18 -1 -33 -15 q-14 -14 -19 -34 q-5 -22 6 -36 q11 -15 35 -16 q17 1 33 15 q15 14 20 34 q5 22 -7 37 q-13 14 -35 15 l0 0 Z" /><glyph glyph-name="" unicode="à" d="M295 480 l-19 176 l-74 0 l78 -176 l15 0 ZM407 37 q-2 -1 -24 -7 q-22 -7 -39 -8 q-10 0 -17 6 q-6 7 -2 23 l81 358 l-25 4 q1 1 1 1 q0 0 0 1 q-8 3 -39 9 q-32 5 -66 6 q-77 0 -147 -56 q-71 -56 -99 -163 q-24 -105 5 -162 q30 -56 106 -57 q37 0 67 21 q30 21 53 59 q-2 -10 -3 -16 q-1 -6 -2 -8 q-6 -25 6 -40 q11 -16 43 -16 q38 2 70 18 q32 16 34 18 l-3 9 ZM295 219 q-11 -59 -44 -129 q-33 -71 -95 -77 q-43 0 -57 50 q-15 50 6 148 q19 89 61 143 q42 55 104 56 q30 -1 46 -8 q15 -7 18 -10 q-7 -34 -15 -68 q-7 -35 -15 -69 l-9 -36 Z" /><glyph glyph-name="" unicode="&#x1ea3;" d="M242 613 q27 -1 37 -19 q11 -18 10 -35 q-1 -28 -11 -45 q-11 -18 -17 -25 l4 -5 q16 6 42 34 q27 28 30 62 q0 29 -19 48 q-19 20 -55 21 q-42 -4 -64 -30 q-23 -26 -23 -30 l3 -5 q7 7 24 18 q18 10 39 11 l0 0 ZM407 37 q-2 -1 -24 -7 q-22 -7 -39 -8 q-10 0 -17 6 q-6 7 -2 23 l81 358 l-25 4 q1 1 1 1 q0 0 0 1 q-8 3 -39 9 q-32 5 -66 6 q-77 0 -147 -56 q-71 -56 -99 -163 q-24 -105 5 -162 q30 -56 106 -57 q37 0 67 21 q30 21 53 59 q-2 -10 -3 -16 q-1 -6 -2 -8 q-6 -25 6 -40 q11 -16 43 -16 q38 2 70 18 q32 16 34 18 l-3 9 ZM295 219 q-11 -59 -44 -129 q-33 -71 -95 -77 q-43 0 -57 50 q-15 50 6 148 q19 89 61 143 q42 55 104 56 q30 -1 46 -8 q15 -7 18 -10 q-7 -34 -15 -68 q-7 -35 -15 -69 l-9 -36 Z" /><glyph glyph-name="" unicode="&#x101;" d="M388 551 l-205 0 l-7 -28 l205 0 l7 28 ZM407 37 q-2 -1 -24 -7 q-22 -7 -39 -8 q-10 0 -17 6 q-6 7 -2 23 l81 358 l-25 4 q1 1 1 1 q0 0 0 1 q-8 3 -39 9 q-32 5 -66 6 q-77 0 -147 -56 q-71 -56 -99 -163 q-24 -105 5 -162 q30 -56 106 -57 q37 0 67 21 q30 21 53 59 q-2 -10 -3 -16 q-1 -6 -2 -8 q-6 -25 6 -40 q11 -16 43 -16 q38 2 70 18 q32 16 34 18 l-3 9 ZM295 219 q-11 -59 -44 -129 q-33 -71 -95 -77 q-43 0 -57 50 q-15 50 6 148 q19 89 61 143 q42 55 104 56 q30 -1 46 -8 q15 -7 18 -10 q-7 -34 -15 -68 q-7 -35 -15 -69 l-9 -36 Z" /><glyph glyph-name="" unicode="&#x105;" d="M341 -97 q5 22 25 58 q20 36 45 67 l-1 0 l-3 9 q-2 -1 -24 -7 q-22 -7 -39 -8 q-10 0 -17 6 q-6 7 -2 23 l81 358 l-25 4 q1 1 1 1 q0 0 0 1 q-8 3 -39 9 q-32 5 -66 6 q-77 0 -147 -56 q-71 -56 -99 -163 q-24 -105 5 -162 q30 -56 106 -57 q37 0 67 21 q30 21 53 59 q-2 -10 -3 -16 q-1 -6 -2 -8 q-6 -25 6 -40 q11 -16 43 -16 q17 0 33 5 q17 4 31 10 q-29 -27 -54 -59 q-25 -32 -33 -60 q-5 -28 9 -42 q14 -14 41 -14 q28 1 47 11 q19 9 20 10 l2 22 q-1 -1 -15 -6 q-14 -5 -33 -6 q-14 0 -16 12 q-3 11 3 28 l0 0 ZM295 219 q-11 -59 -44 -129 q-33 -71 -95 -77 q-43 0 -57 50 q-15 50 6 148 q19 89 61 143 q42 55 104 56 q30 -1 46 -8 q15 -7 18 -10 q-7 -34 -15 -68 q-7 -35 -15 -69 l-9 -36 Z" /><glyph glyph-name="" unicode="å" d="M281 487 q30 1 53 18 q23 17 30 42 q5 26 -14 44 q-19 18 -54 19 q-30 -1 -53 -18 q-23 -18 -30 -44 q-5 -25 14 -42 q18 -18 54 -19 l0 0 ZM256 545 q4 16 18 26 q13 10 29 10 q11 0 16 -10 q5 -9 2 -24 q-4 -14 -17 -24 q-14 -10 -31 -10 q-11 1 -15 10 q-4 10 -2 22 l0 0 ZM407 37 q-2 -1 -24 -7 q-22 -7 -39 -8 q-10 0 -17 6 q-6 7 -2 23 l81 358 l-25 4 q1 1 1 1 q0 0 0 1 q-8 3 -39 9 q-32 5 -66 6 q-77 0 -147 -56 q-71 -56 -99 -163 q-24 -105 5 -162 q30 -56 106 -57 q37 0 67 21 q30 21 53 59 q-2 -10 -3 -16 q-1 -6 -2 -8 q-6 -25 6 -40 q11 -16 43 -16 q38 2 70 18 q32 16 34 18 l-3 9 ZM295 219 q-11 -59 -44 -129 q-33 -71 -95 -77 q-43 0 -57 50 q-15 50 6 148 q19 89 61 143 q42 55 104 56 q30 -1 46 -8 q15 -7 18 -10 q-7 -34 -15 -68 q-7 -35 -15 -69 l-9 -36 Z" /><glyph glyph-name="" unicode="ã" d="M235 543 q23 -2 48 -18 q24 -16 56 -18 q25 2 41 28 q17 27 28 57 l-9 1 q0 -2 -14 -18 q-15 -16 -45 -18 q-25 2 -48 18 q-23 16 -56 18 q-26 -2 -41 -28 q-15 -27 -28 -57 l9 0 q0 2 15 18 q14 15 44 17 l0 0 ZM407 37 q-2 -1 -24 -7 q-22 -7 -39 -8 q-10 0 -17 6 q-6 7 -2 23 l81 358 l-25 4 q1 1 1 1 q0 0 0 1 q-8 3 -39 9 q-32 5 -66 6 q-77 0 -147 -56 q-71 -56 -99 -163 q-24 -105 5 -162 q30 -56 106 -57 q37 0 67 21 q30 21 53 59 q-2 -10 -3 -16 q-1 -6 -2 -8 q-6 -25 6 -40 q11 -16 43 -16 q38 2 70 18 q32 16 34 18 l-3 9 ZM295 219 q-11 -59 -44 -129 q-33 -71 -95 -77 q-43 0 -57 50 q-15 50 6 148 q19 89 61 143 q42 55 104 56 q30 -1 46 -8 q15 -7 18 -10 q-7 -34 -15 -68 q-7 -35 -15 -69 l-9 -36 Z" /><glyph glyph-name="" unicode="æ" d="M360 212 l2 -11 q112 28 162 71 q50 42 49 93 q0 29 -24 48 q-23 19 -69 20 q-45 0 -82 -20 q-38 -19 -67 -51 q-6 34 -35 50 q-28 17 -71 17 q-50 -2 -89 -16 q-40 -15 -42 -17 l-14 -100 l13 -1 q12 40 43 75 q31 35 83 37 q43 0 55 -30 q12 -31 -3 -85 l-14 -55 q-98 -1 -171 -41 q-73 -40 -91 -110 q-8 -35 12 -63 q20 -29 73 -31 q46 0 87 24 q42 23 82 70 q11 -45 44 -69 q33 -25 84 -25 q64 3 109 27 q44 24 46 27 l-4 9 q-2 -2 -35 -15 q-34 -14 -77 -16 q-66 1 -90 49 q-24 49 -1 139 q21 80 61 140 q40 59 94 62 q20 0 29 -12 q8 -12 8 -33 q2 -39 -30 -80 q-32 -40 -127 -77 l0 0 ZM224 106 q-14 -28 -46 -56 q-31 -28 -67 -30 q-32 1 -40 23 q-8 22 -1 53 q12 49 59 84 q47 35 124 37 l-29 -111 Z" /><glyph glyph-name="" unicode="b" d="M305 434 q-49 0 -83 -28 q-34 -27 -57 -76 l78 325 l14 54 l-4 4 l-151 -29 l1 -10 l62 0 q9 0 12 -5 q2 -5 0 -15 l-152 -641 q13 -5 55 -12 q42 -8 77 -9 q87 1 160 62 q72 61 100 164 q26 111 -8 164 q-34 52 -104 52 l0 0 ZM344 213 q-22 -96 -66 -147 q-44 -51 -110 -52 q-38 1 -56 9 q-18 8 -18 9 q1 4 15 59 q14 55 28 112 q13 59 50 130 q36 72 102 78 q45 0 61 -49 q15 -50 -6 -149 l0 0 Z" /><glyph glyph-name="" unicode="c" d="M156 -8 q64 3 109 27 q44 24 46 27 l-4 9 q-2 -2 -35 -15 q-34 -14 -77 -16 q-67 2 -89 54 q-23 51 -3 134 q20 83 62 140 q41 58 94 60 q33 1 45 -27 q11 -27 5 -92 l15 0 l30 124 q-1 1 -28 8 q-28 7 -67 8 q-90 -3 -148 -69 q-59 -65 -80 -151 q-23 -101 10 -160 q33 -60 115 -61 l0 0 Z" /><glyph glyph-name="" unicode="&#x107;" d="M244 479 l16 0 l163 176 l-78 0 l-101 -176 ZM156 -8 q64 3 109 27 q44 24 46 27 l-4 9 q-2 -2 -35 -15 q-34 -14 -77 -16 q-67 2 -89 54 q-23 51 -3 134 q20 83 62 140 q41 58 94 60 q33 1 45 -27 q11 -27 5 -92 l15 0 l30 124 q-1 1 -28 8 q-28 7 -67 8 q-90 -3 -148 -69 q-59 -65 -80 -151 q-23 -101 10 -160 q33 -60 115 -61 l0 0 Z" /><glyph glyph-name="" unicode="&#x10d;" d="M265 499 l35 0 l136 145 l-14 0 l-130 -90 l-87 90 l-10 0 l70 -145 ZM156 -8 q64 3 109 27 q44 24 46 27 l-4 9 q-2 -2 -35 -15 q-34 -14 -77 -16 q-67 2 -89 54 q-23 51 -3 134 q20 83 62 140 q41 58 94 60 q33 1 45 -27 q11 -27 5 -92 l15 0 l30 124 q-1 1 -28 8 q-28 7 -67 8 q-90 -3 -148 -69 q-59 -65 -80 -151 q-23 -101 10 -160 q33 -60 115 -61 l0 0 Z" /><glyph glyph-name="" unicode="ç" d="M324 293 l30 124 q-1 1 -28 8 q-28 7 -67 8 q-90 -3 -148 -69 q-59 -65 -80 -151 q-23 -100 9 -159 q32 -59 113 -62 l-75 -76 l12 2 l-4 -2 q33 -1 43 -12 q11 -11 0 -33 q-9 -23 -30 -37 q-20 -14 -42 -14 q-8 1 -13 7 q-4 6 -4 7 l-2 -13 q0 -1 17 -10 q16 -10 46 -11 q23 0 42 16 q20 15 32 42 q12 30 -2 47 q-15 17 -51 21 l45 66 q61 7 102 29 q40 22 42 25 l-4 9 q-2 -2 -35 -15 q-34 -14 -77 -16 q-67 2 -89 54 q-23 51 -3 134 q20 83 62 140 q41 58 94 60 q33 1 45 -27 q11 -27 5 -92 l15 0 Z" /><glyph glyph-name="" unicode="&#x10b;" d="M292 500 q18 1 33 15 q14 14 20 35 q5 21 -7 36 q-13 14 -35 15 q-18 -1 -32 -15 q-15 -14 -21 -34 q-4 -22 7 -36 q11 -15 35 -16 l0 0 ZM156 -8 q64 3 109 27 q44 24 46 27 l-4 9 q-2 -2 -35 -15 q-34 -14 -77 -16 q-67 2 -89 54 q-23 51 -3 134 q20 83 62 140 q41 58 94 60 q33 1 45 -27 q11 -27 5 -92 l15 0 l30 124 q-1 1 -28 8 q-28 7 -67 8 q-90 -3 -148 -69 q-59 -65 -80 -151 q-23 -101 10 -160 q33 -60 115 -61 l0 0 Z" /><glyph glyph-name="" unicode="d" d="M474 655 l14 53 l-3 4 l-152 -28 l1 -11 l63 0 q9 0 12 -5 q2 -4 0 -14 q-7 -31 -22 -93 q-15 -62 -33 -138 q-16 3 -34 5 q-18 2 -35 2 q-80 0 -151 -56 q-71 -56 -101 -163 q-24 -105 7 -162 q31 -56 105 -57 q39 0 70 22 q32 22 55 61 l-6 -26 q-6 -25 6 -40 q11 -16 43 -16 q38 2 70 18 q32 16 34 18 l-3 9 q-2 -1 -24 -7 q-22 -7 -39 -8 q-10 0 -17 6 q-6 7 -2 23 l142 603 ZM159 13 q-43 -1 -59 45 q-16 45 6 153 q21 89 65 143 q44 55 107 56 q35 -1 51 -9 q16 -9 16 -10 q-1 -4 -14 -60 q-12 -55 -26 -112 q-13 -59 -47 -130 q-34 -70 -99 -76 l0 0 Z" /><glyph glyph-name="" unicode="ð" d="M179 -8 q87 2 151 64 q64 62 86 156 q27 133 -2 232 q-29 99 -85 163 l109 58 l-7 16 l-115 -60 q-33 35 -69 59 q-35 23 -66 34 l4 -16 q57 -29 102 -95 l-95 -47 l6 -18 l99 51 q25 -42 42 -94 q17 -51 20 -106 q-14 19 -39 30 q-25 11 -53 11 q-86 -2 -150 -64 q-63 -62 -86 -154 q-20 -94 19 -156 q39 -62 129 -64 l0 0 ZM172 12 q-62 2 -74 59 q-12 57 7 140 q18 83 61 140 q43 57 109 59 q58 -3 72 -59 q13 -57 -6 -137 q-18 -83 -60 -141 q-42 -58 -109 -61 l0 0 Z" /><glyph glyph-name="" unicode="&#x10f;" d="M571 714 l-8 -5 q12 -20 13 -50 q1 -29 -7 -60 q-8 -31 -26 -61 q-17 -29 -39 -51 l4 -5 q6 0 51 28 q45 28 65 86 q9 61 -19 90 q-29 28 -34 28 l0 0 ZM333 684 l1 -11 l63 0 q9 0 12 -5 q2 -4 0 -14 q-7 -31 -22 -93 q-15 -62 -33 -138 q-16 3 -34 5 q-18 2 -35 2 q-80 0 -151 -56 q-71 -56 -101 -163 q-24 -105 7 -162 q31 -56 105 -57 q39 0 70 22 q32 22 55 61 l-6 -26 q-6 -25 6 -40 q11 -16 43 -16 q38 2 70 18 q32 16 34 18 l-3 9 q-2 -1 -24 -7 q-22 -7 -39 -8 q-10 0 -17 6 q-6 7 -2 23 l142 603 l14 53 l-3 4 l-152 -28 ZM159 13 q-43 -1 -59 45 q-16 45 6 153 q21 89 65 143 q44 55 107 56 q35 -1 51 -9 q16 -9 16 -10 q-1 -4 -14 -60 q-12 -55 -26 -112 q-13 -59 -47 -130 q-34 -70 -99 -76 l0 0 Z" /><glyph glyph-name="" unicode="&#x111;" d="M442 521 l58 0 l7 29 l-58 0 l25 105 l14 53 l-3 4 l-152 -28 l1 -11 l63 0 q9 0 12 -5 q2 -4 0 -14 l-25 -104 l-125 0 l-7 -29 l125 0 l-23 -98 q-16 3 -34 5 q-18 2 -35 2 q-80 0 -151 -56 q-71 -56 -101 -163 q-24 -105 7 -162 q31 -56 105 -57 q39 0 70 22 q32 22 55 61 l-6 -26 q-6 -25 6 -40 q11 -16 43 -16 q38 2 70 18 q32 16 34 18 l-3 9 q-2 -1 -24 -7 q-22 -7 -39 -8 q-10 0 -17 6 q-6 7 -2 23 l110 469 ZM159 13 q-43 -1 -59 45 q-16 45 6 153 q21 89 65 143 q44 55 107 56 q35 -1 51 -9 q16 -9 16 -10 q-1 -4 -14 -60 q-12 -55 -26 -112 q-13 -59 -47 -130 q-34 -70 -99 -76 l0 0 Z" /><glyph glyph-name="" unicode="e" d="M155 -8 q64 3 108 27 q44 24 46 27 l-4 9 q-2 -2 -35 -15 q-34 -14 -77 -16 q-65 1 -89 49 q-25 49 -2 139 q21 80 61 139 q41 58 95 61 q19 0 28 -11 q9 -12 9 -33 q2 -39 -30 -79 q-32 -41 -127 -77 l2 -11 q112 28 162 71 q49 42 48 93 q0 29 -23 48 q-24 19 -69 20 q-90 -4 -148 -70 q-59 -66 -80 -152 q-23 -100 10 -159 q33 -59 115 -60 l0 0 Z" /><glyph glyph-name="" unicode="é" d="M223 479 l16 0 l163 176 l-78 0 l-101 -176 ZM155 -8 q64 3 108 27 q44 24 46 27 l-4 9 q-2 -2 -35 -15 q-34 -14 -77 -16 q-65 1 -89 49 q-25 49 -2 139 q21 80 61 139 q41 58 95 61 q19 0 28 -11 q9 -12 9 -33 q2 -39 -30 -79 q-32 -41 -127 -77 l2 -11 q112 28 162 71 q49 42 48 93 q0 29 -23 48 q-24 19 -69 20 q-90 -4 -148 -70 q-59 -66 -80 -152 q-23 -100 10 -159 q33 -59 115 -60 l0 0 Z" /><glyph glyph-name="" unicode="&#x11b;" d="M244 499 l35 0 l136 145 l-14 0 l-130 -90 l-87 90 l-10 0 l70 -145 ZM155 -8 q64 3 108 27 q44 24 46 27 l-4 9 q-2 -2 -35 -15 q-34 -14 -77 -16 q-65 1 -89 49 q-25 49 -2 139 q21 80 61 139 q41 58 95 61 q19 0 28 -11 q9 -12 9 -33 q2 -39 -30 -79 q-32 -41 -127 -77 l2 -11 q112 28 162 71 q49 42 48 93 q0 29 -23 48 q-24 19 -69 20 q-90 -4 -148 -70 q-59 -66 -80 -152 q-23 -100 10 -159 q33 -59 115 -60 l0 0 Z" /><glyph glyph-name="" unicode="ê" d="M129 470 l19 0 l126 93 l82 -93 l14 0 l-70 145 l-35 0 l-136 -145 ZM155 -8 q64 3 108 27 q44 24 46 27 l-4 9 q-2 -2 -35 -15 q-34 -14 -77 -16 q-65 1 -89 49 q-25 49 -2 139 q21 80 61 139 q41 58 95 61 q19 0 28 -11 q9 -12 9 -33 q2 -39 -30 -79 q-32 -41 -127 -77 l2 -11 q112 28 162 71 q49 42 48 93 q0 29 -23 48 q-24 19 -69 20 q-90 -4 -148 -70 q-59 -66 -80 -152 q-23 -100 10 -159 q33 -59 115 -60 l0 0 Z" /><glyph glyph-name="" unicode="&#x1ec7;" d="M129 470 l19 0 l126 93 l82 -93 l14 0 l-70 145 l-35 0 l-136 -145 ZM155 -8 q64 3 108 27 q44 24 46 27 l-4 9 q-2 -2 -35 -15 q-34 -14 -77 -16 q-65 1 -89 49 q-25 49 -2 139 q21 80 61 139 q41 58 95 61 q19 0 28 -11 q9 -12 9 -33 q2 -39 -30 -79 q-32 -41 -127 -77 l2 -11 q112 28 162 71 q49 42 48 93 q0 29 -23 48 q-24 19 -69 20 q-90 -4 -148 -70 q-59 -66 -80 -152 q-23 -100 10 -159 q33 -59 115 -60 l0 0 ZM115 -187 q17 1 33 15 q15 14 20 34 q5 22 -7 37 q-13 14 -35 15 q-18 -1 -33 -15 q-14 -14 -19 -34 q-5 -22 6 -36 q11 -15 35 -16 l0 0 Z" /><glyph glyph-name="" unicode="ë" d="M199 508 q15 1 28 13 q13 12 17 30 q3 18 -7 31 q-10 12 -30 13 q-15 -1 -27 -13 q-12 -12 -16 -30 q-4 -18 6 -31 q9 -12 29 -13 l0 0 ZM337 508 q16 1 29 14 q12 12 16 28 q4 19 -6 32 q-10 12 -31 13 q-15 -1 -27 -13 q-12 -12 -16 -29 q-4 -19 6 -31 q9 -13 29 -14 l0 0 ZM155 -8 q64 3 108 27 q44 24 46 27 l-4 9 q-2 -2 -35 -15 q-34 -14 -77 -16 q-65 1 -89 49 q-25 49 -2 139 q21 80 61 139 q41 58 95 61 q19 0 28 -11 q9 -12 9 -33 q2 -39 -30 -79 q-32 -41 -127 -77 l2 -11 q112 28 162 71 q49 42 48 93 q0 29 -23 48 q-24 19 -69 20 q-90 -4 -148 -70 q-59 -66 -80 -152 q-23 -100 10 -159 q33 -59 115 -60 l0 0 Z" /><glyph glyph-name="" unicode="&#x117;" d="M270 500 q18 1 33 15 q14 14 20 35 q5 21 -7 36 q-13 14 -35 15 q-18 -1 -32 -15 q-15 -14 -21 -34 q-4 -22 7 -36 q11 -15 35 -16 l0 0 ZM155 -8 q64 3 108 27 q44 24 46 27 l-4 9 q-2 -2 -35 -15 q-34 -14 -77 -16 q-65 1 -89 49 q-25 49 -2 139 q21 80 61 139 q41 58 95 61 q19 0 28 -11 q9 -12 9 -33 q2 -39 -30 -79 q-32 -41 -127 -77 l2 -11 q112 28 162 71 q49 42 48 93 q0 29 -23 48 q-24 19 -69 20 q-90 -4 -148 -70 q-59 -66 -80 -152 q-23 -100 10 -159 q33 -59 115 -60 l0 0 Z" /><glyph glyph-name="" unicode="&#x1eb9;" d="M155 -8 q64 3 108 27 q44 24 46 27 l-4 9 q-2 -2 -35 -15 q-34 -14 -77 -16 q-65 1 -89 49 q-25 49 -2 139 q21 80 61 139 q41 58 95 61 q19 0 28 -11 q9 -12 9 -33 q2 -39 -30 -79 q-32 -41 -127 -77 l2 -11 q112 28 162 71 q49 42 48 93 q0 29 -23 48 q-24 19 -69 20 q-90 -4 -148 -70 q-59 -66 -80 -152 q-23 -100 10 -159 q33 -59 115 -60 l0 0 ZM115 -187 q17 1 33 15 q15 14 20 34 q5 22 -7 37 q-13 14 -35 15 q-18 -1 -33 -15 q-14 -14 -19 -34 q-5 -22 6 -36 q11 -15 35 -16 l0 0 Z" /><glyph glyph-name="" unicode="è" d="M258 480 l15 0 l-19 176 l-74 0 l78 -176 ZM155 -8 q64 3 108 27 q44 24 46 27 l-4 9 q-2 -2 -35 -15 q-34 -14 -77 -16 q-65 1 -89 49 q-25 49 -2 139 q21 80 61 139 q41 58 95 61 q19 0 28 -11 q9 -12 9 -33 q2 -39 -30 -79 q-32 -41 -127 -77 l2 -11 q112 28 162 71 q49 42 48 93 q0 29 -23 48 q-24 19 -69 20 q-90 -4 -148 -70 q-59 -66 -80 -152 q-23 -100 10 -159 q33 -59 115 -60 l0 0 Z" /><glyph glyph-name="" unicode="&#x1ebb;" d="M242 484 q16 6 42 34 q27 28 30 62 q0 29 -19 48 q-19 20 -55 21 q-42 -4 -64 -30 q-23 -26 -23 -30 l3 -5 q7 7 24 18 q18 10 39 11 q27 -1 37 -19 q11 -18 10 -35 q-1 -28 -11 -45 q-11 -18 -17 -25 l4 -5 ZM155 -8 q64 3 108 27 q44 24 46 27 l-4 9 q-2 -2 -35 -15 q-34 -14 -77 -16 q-65 1 -89 49 q-25 49 -2 139 q21 80 61 139 q41 58 95 61 q19 0 28 -11 q9 -12 9 -33 q2 -39 -30 -79 q-32 -41 -127 -77 l2 -11 q112 28 162 71 q49 42 48 93 q0 29 -23 48 q-24 19 -69 20 q-90 -4 -148 -70 q-59 -66 -80 -152 q-23 -100 10 -159 q33 -59 115 -60 l0 0 Z" /><glyph glyph-name="" unicode="&#x113;" d="M154 523 l205 0 l7 28 l-205 0 l-7 -28 ZM155 -8 q64 3 108 27 q44 24 46 27 l-4 9 q-2 -2 -35 -15 q-34 -14 -77 -16 q-65 1 -89 49 q-25 49 -2 139 q21 80 61 139 q41 58 95 61 q19 0 28 -11 q9 -12 9 -33 q2 -39 -30 -79 q-32 -41 -127 -77 l2 -11 q112 28 162 71 q49 42 48 93 q0 29 -23 48 q-24 19 -69 20 q-90 -4 -148 -70 q-59 -66 -80 -152 q-23 -100 10 -159 q33 -59 115 -60 l0 0 Z" /><glyph glyph-name="" unicode="&#x119;" d="M138 212 l2 -11 q112 28 162 71 q49 42 48 93 q0 29 -23 48 q-24 19 -69 20 q-90 -4 -148 -70 q-59 -66 -80 -152 q-23 -100 10 -159 q33 -59 115 -60 q31 0 58 8 q28 8 49 18 q-27 -26 -50 -56 q-22 -29 -30 -56 q-5 -28 9 -42 q14 -14 41 -14 q28 1 47 11 q19 9 20 10 l2 22 q-1 -1 -15 -6 q-14 -5 -33 -6 q-14 0 -16 12 q-3 11 3 28 q5 22 25 58 q20 36 45 67 l-1 0 l-4 9 q-2 -2 -35 -15 q-34 -14 -77 -16 q-65 1 -89 49 q-25 49 -2 139 q21 80 61 139 q41 58 95 61 q19 0 28 -11 q9 -12 9 -33 q2 -39 -30 -79 q-32 -41 -127 -77 l0 0 Z" /><glyph glyph-name="" unicode="&#x1ebd;" d="M316 507 q25 2 41 28 q17 27 28 57 l-9 1 q0 -2 -14 -18 q-15 -16 -45 -18 q-25 2 -48 18 q-23 16 -56 18 q-26 -2 -41 -28 q-15 -27 -28 -57 l9 0 q0 2 15 18 q14 15 44 17 q23 -2 48 -18 q24 -16 56 -18 l0 0 ZM155 -8 q64 3 108 27 q44 24 46 27 l-4 9 q-2 -2 -35 -15 q-34 -14 -77 -16 q-65 1 -89 49 q-25 49 -2 139 q21 80 61 139 q41 58 95 61 q19 0 28 -11 q9 -12 9 -33 q2 -39 -30 -79 q-32 -41 -127 -77 l2 -11 q112 28 162 71 q49 42 48 93 q0 29 -23 48 q-24 19 -69 20 q-90 -4 -148 -70 q-59 -66 -80 -152 q-23 -100 10 -159 q33 -59 115 -60 l0 0 Z" /><glyph glyph-name="" unicode="f" d="M340 714 q-83 -8 -142 -106 q-59 -98 -76 -194 l-70 0 l0 -23 l65 0 q-22 -103 -58 -268 q-36 -165 -47 -214 q-8 -47 -27 -87 q-18 -40 -72 -43 q-38 3 -62 22 q-24 18 -25 21 l-10 -60 q1 -2 22 -13 q20 -12 52 -14 q83 8 142 110 q58 102 76 202 l76 344 l132 0 l0 23 l-127 0 l28 126 q8 47 27 87 q19 40 73 43 q37 -3 60 -21 q23 -19 24 -22 l10 60 q-1 2 -20 14 q-20 11 -51 13 l0 0 Z" /><glyph glyph-name="" unicode="g" d="M455 432 l-176 0 q-96 -3 -149 -49 q-53 -47 -66 -101 q-11 -46 10 -86 q21 -40 76 -56 q-33 -27 -75 -50 q-43 -23 -73 -40 l78 -73 q1 1 32 10 q30 9 76 10 q61 -1 85 -33 q24 -33 11 -82 q-12 -53 -53 -94 q-42 -42 -117 -44 q-74 2 -96 40 q-22 38 -7 84 q4 14 17 35 q13 21 31 37 l-7 9 q-7 1 -53 -20 q-46 -21 -61 -71 q-10 -51 27 -89 q38 -37 132 -39 q100 3 176 49 q75 46 92 103 q13 58 -29 96 q-42 39 -131 40 q-31 0 -64 -4 q-32 -5 -59 -14 q-16 42 26 83 q41 40 96 48 l0 10 q-54 3 -67 47 q-12 44 1 94 q12 53 45 90 q33 37 91 39 q49 -2 62 -42 q13 -40 2 -87 q-12 -45 -39 -71 q-27 -26 -52 -31 l4 -10 q38 3 91 30 q53 27 70 82 q8 35 -6 68 q-14 34 -53 57 l102 0 l0 25 Z" /><glyph glyph-name="" unicode="&#x11f;" d="M286 482 q73 9 113 69 q39 60 40 69 l-12 0 q-1 -5 -38 -42 q-37 -37 -104 -42 q-59 5 -74 42 q-16 37 -14 42 l-9 0 q-4 -9 10 -69 q14 -60 88 -69 l0 0 ZM455 432 l-176 0 q-96 -3 -149 -49 q-53 -47 -66 -101 q-11 -46 10 -86 q21 -40 76 -56 q-33 -27 -75 -50 q-43 -23 -73 -40 l78 -73 q1 1 32 10 q30 9 76 10 q61 -1 85 -33 q24 -33 11 -82 q-12 -53 -53 -94 q-42 -42 -117 -44 q-74 2 -96 40 q-22 38 -7 84 q4 14 17 35 q13 21 31 37 l-7 9 q-7 1 -53 -20 q-46 -21 -61 -71 q-10 -51 27 -89 q38 -37 132 -39 q100 3 176 49 q75 46 92 103 q13 58 -29 96 q-42 39 -131 40 q-31 0 -64 -4 q-32 -5 -59 -14 q-16 42 26 83 q41 40 96 48 l0 10 q-54 3 -67 47 q-12 44 1 94 q12 53 45 90 q33 37 91 39 q49 -2 62 -42 q13 -40 2 -87 q-12 -45 -39 -71 q-27 -26 -52 -31 l4 -10 q38 3 91 30 q53 27 70 82 q8 35 -6 68 q-14 34 -53 57 l102 0 l0 25 Z" /><glyph glyph-name="" unicode="&#x123;" d="M431 655 l-78 0 l-101 -176 l16 0 l163 176 ZM455 432 l-176 0 q-96 -3 -149 -49 q-53 -47 -66 -101 q-11 -46 10 -86 q21 -40 76 -56 q-33 -27 -75 -50 q-43 -23 -73 -40 l78 -73 q1 1 32 10 q30 9 76 10 q61 -1 85 -33 q24 -33 11 -82 q-12 -53 -53 -94 q-42 -42 -117 -44 q-74 2 -96 40 q-22 38 -7 84 q4 14 17 35 q13 21 31 37 l-7 9 q-7 1 -53 -20 q-46 -21 -61 -71 q-10 -51 27 -89 q38 -37 132 -39 q100 3 176 49 q75 46 92 103 q13 58 -29 96 q-42 39 -131 40 q-31 0 -64 -4 q-32 -5 -59 -14 q-16 42 26 83 q41 40 96 48 l0 10 q-54 3 -67 47 q-12 44 1 94 q12 53 45 90 q33 37 91 39 q49 -2 62 -42 q13 -40 2 -87 q-12 -45 -39 -71 q-27 -26 -52 -31 l4 -10 q38 3 91 30 q53 27 70 82 q8 35 -6 68 q-14 34 -53 57 l102 0 l0 25 Z" /><glyph glyph-name="" unicode="&#x121;" d="M299 500 q18 1 33 15 q14 14 20 35 q5 21 -7 36 q-13 14 -35 15 q-18 -1 -32 -15 q-15 -14 -21 -34 q-4 -22 7 -36 q11 -15 35 -16 l0 0 ZM455 432 l-176 0 q-96 -3 -149 -49 q-53 -47 -66 -101 q-11 -46 10 -86 q21 -40 76 -56 q-33 -27 -75 -50 q-43 -23 -73 -40 l78 -73 q1 1 32 10 q30 9 76 10 q61 -1 85 -33 q24 -33 11 -82 q-12 -53 -53 -94 q-42 -42 -117 -44 q-74 2 -96 40 q-22 38 -7 84 q4 14 17 35 q13 21 31 37 l-7 9 q-7 1 -53 -20 q-46 -21 -61 -71 q-10 -51 27 -89 q38 -37 132 -39 q100 3 176 49 q75 46 92 103 q13 58 -29 96 q-42 39 -131 40 q-31 0 -64 -4 q-32 -5 -59 -14 q-16 42 26 83 q41 40 96 48 l0 10 q-54 3 -67 47 q-12 44 1 94 q12 53 45 90 q33 37 91 39 q49 -2 62 -42 q13 -40 2 -87 q-12 -45 -39 -71 q-27 -26 -52 -31 l4 -10 q38 3 91 30 q53 27 70 82 q8 35 -6 68 q-14 34 -53 57 l102 0 l0 25 Z" /><glyph glyph-name="" unicode="h" d="M430 38 q-2 -1 -24 -7 q-23 -7 -40 -8 q-10 0 -16 6 q-7 7 -3 23 q28 116 43 180 q16 63 19 74 q13 47 -2 85 q-15 38 -81 40 q-53 -2 -96 -43 q-43 -42 -73 -102 l86 368 l14 54 l-4 4 l-151 -28 l1 -11 l63 0 q9 0 12 -5 q2 -5 0 -15 l-154 -653 l66 0 l40 171 q23 85 72 160 q50 74 104 79 q39 -2 42 -38 q2 -35 -9 -76 l-59 -247 q-6 -25 6 -40 q11 -16 42 -16 q39 2 71 18 q32 16 34 18 l-3 9 Z" /><glyph glyph-name="" unicode="&#x127;" d="M430 38 q-2 -1 -24 -7 q-23 -7 -40 -8 q-10 0 -16 6 q-7 7 -3 23 q28 116 43 180 q16 63 19 74 q13 47 -2 85 q-15 38 -81 40 q-53 -2 -96 -43 q-43 -42 -73 -102 l51 218 l126 0 l-1 24 l-119 0 l29 126 l14 54 l-4 4 l-151 -28 l1 -11 l63 0 q9 0 12 -5 q2 -5 0 -15 l-29 -125 l-53 0 l0 -24 l47 0 l-119 -504 l66 0 l40 171 q23 85 72 160 q50 74 104 79 q39 -2 42 -38 q2 -35 -9 -76 l-59 -247 q-6 -25 6 -40 q11 -16 42 -16 q39 2 71 18 q32 16 34 18 l-3 9 Z" /><glyph glyph-name="" unicode="i" d="M177 613 q-19 -1 -33 -14 q-14 -13 -17 -32 q-4 -20 4 -33 q8 -13 25 -14 q20 1 36 14 q16 13 20 33 q3 19 -6 32 q-10 13 -29 14 l0 0 ZM180 370 l14 53 l-4 4 l-151 -28 l1 -11 l62 0 q18 1 12 -20 l-76 -320 q-6 -25 6 -40 q11 -16 43 -16 q38 2 70 18 q32 16 34 18 l-3 9 q-2 -1 -24 -7 q-22 -7 -39 -8 q-10 0 -17 6 q-6 7 -2 23 l74 319 Z" /><glyph glyph-name="" unicode="&#x131;" d="M125 22 q-10 0 -17 6 q-6 7 -2 23 l74 319 l14 53 l-4 4 l-151 -28 l1 -11 l62 0 q18 1 12 -20 l-76 -320 q-6 -25 6 -40 q11 -16 43 -16 q38 2 70 18 q32 16 34 18 l-3 9 q-2 -1 -24 -7 q-22 -7 -39 -8 l0 0 Z" /><glyph glyph-name="" unicode="í" d="M319 655 l-78 0 l-101 -176 l16 0 l163 176 ZM180 370 l14 53 l-4 4 l-151 -28 l1 -11 l62 0 q18 1 12 -20 l-76 -320 q-6 -25 6 -40 q11 -16 43 -16 q38 2 70 18 q32 16 34 18 l-3 9 q-2 -1 -24 -7 q-22 -7 -39 -8 q-10 0 -17 6 q-6 7 -2 23 l74 319 Z" /><glyph glyph-name="" unicode="&#x1d0;" d="M317 644 l-130 -90 l-87 90 l-10 0 l70 -145 l35 0 l136 145 l-14 0 ZM180 370 l14 53 l-4 4 l-151 -28 l1 -11 l62 0 q18 1 12 -20 l-76 -320 q-6 -25 6 -40 q11 -16 43 -16 q38 2 70 18 q32 16 34 18 l-3 9 q-2 -1 -24 -7 q-22 -7 -39 -8 q-10 0 -17 6 q-6 7 -2 23 l74 319 Z" /><glyph glyph-name="" unicode="î" d="M216 615 l-35 0 l-136 -145 l19 0 l126 93 l82 -93 l14 0 l-70 145 ZM180 370 l14 53 l-4 4 l-151 -28 l1 -11 l62 0 q18 1 12 -20 l-76 -320 q-6 -25 6 -40 q11 -16 43 -16 q38 2 70 18 q32 16 34 18 l-3 9 q-2 -1 -24 -7 q-22 -7 -39 -8 q-10 0 -17 6 q-6 7 -2 23 l74 319 Z" /><glyph glyph-name="" unicode="ï" d="M115 508 q15 1 28 13 q13 12 17 30 q3 18 -7 31 q-10 12 -30 13 q-15 -1 -27 -13 q-12 -12 -16 -30 q-4 -18 6 -31 q9 -12 29 -13 l0 0 ZM261 595 q-15 -1 -27 -13 q-12 -12 -16 -29 q-4 -19 6 -31 q9 -13 29 -14 q16 1 29 14 q12 12 16 28 q4 19 -6 32 q-10 12 -31 13 l0 0 ZM180 370 l14 53 l-4 4 l-151 -28 l1 -11 l62 0 q18 1 12 -20 l-76 -320 q-6 -25 6 -40 q11 -16 43 -16 q38 2 70 18 q32 16 34 18 l-3 9 q-2 -1 -24 -7 q-22 -7 -39 -8 q-10 0 -17 6 q-6 7 -2 23 l74 319 Z" /><glyph glyph-name="" unicode="&#x1ecb;" d="M177 613 q-19 -1 -33 -14 q-14 -13 -17 -32 q-4 -20 4 -33 q8 -13 25 -14 q20 1 36 14 q16 13 20 33 q3 19 -6 32 q-10 13 -29 14 l0 0 ZM180 370 l14 53 l-4 4 l-151 -28 l1 -11 l62 0 q18 1 12 -20 l-76 -320 q-6 -25 6 -40 q11 -16 43 -16 q38 2 70 18 q32 16 34 18 l-3 9 q-2 -1 -24 -7 q-22 -7 -39 -8 q-10 0 -17 6 q-6 7 -2 23 l74 319 ZM55 -86 q-18 -1 -33 -15 q-14 -14 -19 -34 q-5 -22 6 -36 q11 -15 35 -16 q17 1 33 15 q15 14 20 34 q5 22 -7 37 q-13 14 -35 15 l0 0 Z" /><glyph glyph-name="" unicode="ì" d="M189 480 l-19 176 l-74 0 l78 -176 l15 0 ZM125 22 q-10 0 -17 6 q-6 7 -2 23 l74 319 l14 53 l-4 4 l-151 -28 l1 -11 l62 0 q18 1 12 -20 l-76 -320 q-6 -25 6 -40 q11 -16 43 -16 q38 2 70 18 q32 16 34 18 l-3 9 q-2 -1 -24 -7 q-22 -7 -39 -8 l0 0 Z" /><glyph glyph-name="" unicode="&#x1ec9;" d="M157 649 q-42 -4 -64 -30 q-23 -26 -23 -30 l3 -5 q7 7 24 18 q18 10 39 11 q27 -1 37 -19 q11 -18 10 -35 q-1 -28 -11 -45 q-11 -18 -17 -25 l4 -5 q16 6 42 34 q27 28 30 62 q0 29 -19 48 q-19 20 -55 21 l0 0 ZM180 370 l14 53 l-4 4 l-151 -28 l1 -11 l62 0 q18 1 12 -20 l-76 -320 q-6 -25 6 -40 q11 -16 43 -16 q38 2 70 18 q32 16 34 18 l-3 9 q-2 -1 -24 -7 q-22 -7 -39 -8 q-10 0 -17 6 q-6 7 -2 23 l74 319 Z" /><glyph glyph-name="" unicode="&#x133;" d="M156 520 q20 1 36 14 q16 13 20 33 q3 19 -6 32 q-10 13 -29 14 q-19 -1 -33 -14 q-14 -13 -17 -32 q-4 -20 4 -33 q8 -13 25 -14 l0 0 ZM444 613 q-19 -1 -33 -14 q-15 -13 -18 -32 q-4 -20 4 -33 q7 -13 26 -14 q20 1 35 14 q15 13 19 33 q3 19 -6 32 q-9 13 -27 14 l0 0 ZM297 404 l1 -10 l63 0 q9 0 12 -5 q2 -5 0 -15 l-75 -320 q-7 -35 -16 -73 q-8 -37 -17 -73 q-8 -47 -29 -87 q-21 -39 -74 -42 q-38 3 -62 22 q-24 18 -25 21 l-10 -60 q1 -2 21 -13 q21 -12 52 -14 q83 8 144 109 q60 101 80 200 l9 36 l82 349 l-3 4 l-153 -29 ZM191 28 l-3 9 q-2 -1 -24 -7 q-22 -7 -39 -8 q-10 0 -17 6 q-6 7 -2 23 l74 319 l14 53 l-4 4 l-151 -28 l1 -11 l62 0 q18 1 12 -20 l-76 -320 q-6 -25 6 -40 q11 -16 43 -16 q38 2 70 18 q32 16 34 18 l0 0 Z" /><glyph glyph-name="" unicode="&#x12b;" d="M77 551 l-7 -28 l205 0 l7 28 l-205 0 ZM180 370 l14 53 l-4 4 l-151 -28 l1 -11 l62 0 q18 1 12 -20 l-76 -320 q-6 -25 6 -40 q11 -16 43 -16 q38 2 70 18 q32 16 34 18 l-3 9 q-2 -1 -24 -7 q-22 -7 -39 -8 q-10 0 -17 6 q-6 7 -2 23 l74 319 Z" /><glyph glyph-name="" unicode="&#x12f;" d="M177 613 q-19 -1 -33 -14 q-14 -13 -17 -32 q-4 -20 4 -33 q8 -13 25 -14 q20 1 36 14 q16 13 20 33 q3 19 -6 32 q-10 13 -29 14 l0 0 ZM180 370 l14 53 l-4 4 l-151 -28 l1 -11 l62 0 q18 1 12 -20 l-76 -320 q-6 -25 6 -40 q11 -16 43 -16 q17 0 33 5 q17 4 31 10 q-29 -27 -54 -59 q-25 -32 -33 -60 q-5 -28 9 -42 q14 -14 41 -14 q28 1 47 11 q19 9 20 10 l2 22 q-1 -1 -15 -6 q-14 -5 -33 -6 q-14 0 -16 12 q-3 11 3 28 q5 22 25 58 q20 36 45 67 l-1 0 l-3 9 q-2 -1 -24 -7 q-22 -7 -39 -8 q-10 0 -17 6 q-6 7 -2 23 l74 319 Z" /><glyph glyph-name="" unicode="&#x129;" d="M293 593 q0 -2 -14 -18 q-15 -16 -45 -18 q-25 2 -48 18 q-23 16 -56 18 q-26 -2 -41 -28 q-15 -27 -28 -57 l9 0 q0 2 15 18 q14 15 44 17 q23 -2 48 -18 q24 -16 56 -18 q25 2 41 28 q17 27 28 57 l-9 1 ZM180 370 l14 53 l-4 4 l-151 -28 l1 -11 l62 0 q18 1 12 -20 l-76 -320 q-6 -25 6 -40 q11 -16 43 -16 q38 2 70 18 q32 16 34 18 l-3 9 q-2 -1 -24 -7 q-22 -7 -39 -8 q-10 0 -17 6 q-6 7 -2 23 l74 319 Z" /><glyph glyph-name="" unicode="j" d="M193 613 q-19 -1 -33 -14 q-15 -13 -18 -32 q-4 -20 4 -33 q7 -13 26 -14 q20 1 35 14 q15 13 19 33 q3 19 -6 32 q-9 13 -27 14 l0 0 ZM46 404 l1 -10 l63 0 q9 0 12 -5 q2 -5 0 -15 l-75 -320 q-7 -35 -16 -73 q-8 -37 -17 -73 q-8 -47 -29 -87 q-21 -39 -74 -42 q-38 3 -62 22 q-24 18 -25 21 l-10 -60 q1 -2 21 -13 q21 -12 52 -14 q83 8 144 109 q60 101 80 200 l9 36 l82 349 l-3 4 l-153 -29 Z" /><glyph glyph-name="" unicode="&#x237;" d="M199 433 l-153 -29 l1 -10 l63 0 q9 0 12 -5 q2 -5 0 -15 l-75 -320 q-7 -35 -16 -73 q-8 -37 -17 -73 q-9 -47 -29 -87 q-21 -39 -74 -42 q-38 3 -62 22 q-24 18 -25 21 l-10 -60 q1 -2 21 -13 q21 -12 52 -14 q83 8 144 109 q60 101 80 200 l9 36 l82 349 l-3 4 Z" /><glyph glyph-name="" unicode="k" d="M431 30 q-1 -1 -16 -4 q-15 -4 -32 -5 q-14 0 -22 7 q-8 7 -14 19 q-10 18 -37 72 q-27 54 -50 104 q81 27 121 61 q40 34 40 78 q0 33 -23 52 q-23 19 -65 19 q-61 -2 -104 -41 q-43 -40 -71 -99 l99 417 l-4 3 l-151 -28 l1 -11 l62 0 q9 0 12 -5 q2 -4 0 -14 l-154 -655 l66 0 l44 184 q25 93 75 159 q50 66 103 69 q20 0 32 -13 q11 -13 11 -38 q2 -37 -31 -73 q-34 -37 -128 -76 l2 -5 q21 -41 46 -91 q25 -50 36 -72 q12 -26 27 -39 q14 -13 46 -13 q33 2 58 14 q25 12 26 14 l-5 10 Z" /><glyph glyph-name="" unicode="&#x137;" d="M431 30 q-1 -1 -16 -4 q-15 -4 -32 -5 q-14 0 -22 7 q-8 7 -14 19 q-10 18 -37 72 q-27 54 -50 104 q81 27 121 61 q40 34 40 78 q0 33 -23 52 q-23 19 -65 19 q-61 -2 -104 -41 q-43 -40 -71 -99 l99 417 l-4 3 l-151 -28 l1 -11 l62 0 q9 0 12 -5 q2 -4 0 -14 l-154 -655 l66 0 l44 184 q25 93 75 159 q50 66 103 69 q20 0 32 -13 q11 -13 11 -38 q2 -37 -31 -73 q-34 -37 -128 -76 l2 -5 q21 -41 46 -91 q25 -50 36 -72 q12 -26 27 -39 q14 -13 46 -13 q33 2 58 14 q25 12 26 14 l-5 10 ZM38 -229 l11 0 l140 184 l-63 12 l-88 -196 Z" /><glyph glyph-name="" unicode="l" d="M243 655 l14 54 l-4 4 l-151 -29 l1 -10 l63 0 q9 0 12 -5 q2 -5 0 -15 q-24 -104 -76 -327 q-53 -224 -66 -278 q-6 -25 5 -40 q11 -16 43 -16 q39 2 70 18 q32 16 34 18 l-2 12 q-2 -1 -24 -8 q-23 -7 -40 -8 q-10 0 -16 6 q-7 7 -3 23 l140 601 Z" /><glyph glyph-name="" unicode="&#x13a;" d="M377 901 l-78 0 l-101 -176 l16 0 l163 176 ZM102 684 l1 -10 l63 0 q9 0 12 -5 q2 -5 0 -15 q-24 -104 -76 -327 q-53 -224 -66 -278 q-6 -25 5 -40 q11 -16 43 -16 q39 2 70 18 q32 16 34 18 l-2 12 q-2 -1 -24 -8 q-23 -7 -40 -8 q-10 0 -16 6 q-7 7 -3 23 l140 601 l14 54 l-4 4 l-151 -29 Z" /><glyph glyph-name="" unicode="&#x13e;" d="M-51 0 l217 0 l-1 11 q-30 -1 -48 10 q-18 11 -12 44 l151 649 l-142 -17 l1 -10 q42 0 52 -13 q9 -14 2 -41 l-131 -569 q-9 -34 -36 -44 q-26 -10 -55 -9 l2 -11 ZM242 482 q5 0 51 27 q46 28 66 89 q9 59 -19 88 q-28 28 -33 28 l-9 -5 q12 -20 13 -49 q1 -29 -7 -60 q-8 -33 -26 -62 q-18 -30 -40 -51 l4 -5 Z" /><glyph glyph-name="" unicode="&#x13c;" d="M243 655 l14 54 l-4 4 l-151 -29 l1 -10 l63 0 q9 0 12 -5 q2 -5 0 -15 q-24 -104 -76 -327 q-53 -224 -66 -278 q-6 -25 5 -40 q11 -16 43 -16 q39 2 70 18 q32 16 34 18 l-2 12 q-2 -1 -24 -8 q-23 -7 -40 -8 q-10 0 -16 6 q-7 7 -3 23 l140 601 ZM-43 -229 l11 0 l140 184 l-63 12 l-88 -196 Z" /><glyph glyph-name="" unicode="&#x140;" d="M122 25 q-10 0 -16 6 q-7 7 -3 23 l140 601 l14 54 l-4 4 l-151 -29 l1 -10 l63 0 q9 0 12 -5 q2 -5 0 -15 q-24 -104 -76 -327 q-53 -224 -66 -278 q-6 -25 5 -40 q11 -16 43 -16 q39 2 70 18 q32 16 34 18 l-2 12 q-2 -1 -24 -8 q-23 -7 -40 -8 l0 0 ZM294 385 q-19 -1 -35 -15 q-16 -14 -21 -35 q-5 -22 9 -37 q13 -14 38 -15 q19 1 35 15 q16 14 22 35 q4 22 -10 37 q-13 14 -38 15 l0 0 Z" /><glyph glyph-name="" unicode="&#x142;" d="M183 395 l78 31 l4 19 l-78 -30 l56 240 l14 54 l-4 4 l-151 -29 l1 -10 l63 0 q9 0 12 -5 q2 -5 0 -15 q-8 -36 -25 -108 q-17 -72 -37 -159 l-82 -32 l-4 -19 l81 32 q-26 -115 -48 -207 q-22 -91 -27 -112 q-6 -25 5 -40 q11 -16 43 -16 q39 2 70 18 q32 16 34 18 l-2 12 q-2 -1 -24 -8 q-23 -7 -40 -8 q-10 0 -16 6 q-7 7 -3 23 l80 341 Z" /><glyph glyph-name="" unicode="m" d="M633 38 q-2 -1 -24 -7 q-23 -7 -40 -8 q-10 0 -16 6 q-7 7 -3 23 q28 117 43 180 q16 64 18 74 q12 46 -2 84 q-14 39 -78 41 q-46 -1 -80 -33 q-34 -31 -58 -79 q9 42 -8 76 q-16 34 -77 36 q-48 -1 -82 -35 q-35 -33 -59 -83 l13 57 l14 54 l-4 4 l-151 -28 l1 -11 l62 0 q9 0 12 -5 q2 -5 0 -15 l-87 -369 l66 0 l42 180 q22 83 63 154 q40 71 92 76 q37 -2 39 -38 q2 -35 -9 -76 l-70 -296 l67 0 q13 54 24 102 q12 48 21 88 q22 81 61 149 q38 67 88 71 q37 -2 39 -38 q2 -35 -9 -76 l-58 -247 q-6 -25 5 -40 q11 -16 43 -16 q39 2 70 18 q32 16 34 18 l-2 9 Z" /><glyph glyph-name="" unicode="n" d="M432 38 q-2 -1 -24 -7 q-23 -7 -40 -8 q-10 0 -16 6 q-6 7 -2 23 q27 117 42 181 q16 64 18 74 q13 47 -2 85 q-14 38 -80 40 q-54 -2 -96 -43 q-43 -42 -72 -102 l20 84 l14 54 l-4 4 l-151 -29 l1 -10 l62 0 q9 0 12 -5 q2 -5 0 -15 l-87 -369 l66 0 l42 177 q23 84 72 156 q48 72 101 77 q39 -2 41 -38 q2 -35 -9 -76 l-58 -248 q-6 -25 6 -40 q11 -16 42 -16 q39 2 71 18 q32 16 34 18 l-3 9 Z" /><glyph glyph-name="" unicode="&#x144;" d="M437 655 l-78 0 l-101 -176 l16 0 l163 176 ZM368 23 q-10 0 -16 6 q-6 7 -2 23 q27 117 42 181 q16 64 18 74 q13 47 -2 85 q-14 38 -80 40 q-54 -2 -96 -43 q-43 -42 -72 -102 l20 84 l14 54 l-4 4 l-151 -29 l1 -10 l62 0 q9 0 12 -5 q2 -5 0 -15 l-87 -369 l66 0 l42 177 q23 84 72 156 q48 72 101 77 q39 -2 41 -38 q2 -35 -9 -76 l-58 -248 q-6 -25 6 -40 q11 -16 42 -16 q39 2 71 18 q32 16 34 18 l-3 9 q-2 -1 -24 -7 q-23 -7 -40 -8 l0 0 Z" /><glyph glyph-name="" unicode="&#x148;" d="M314 499 l136 145 l-14 0 l-130 -90 l-87 90 l-10 0 l70 -145 l35 0 ZM368 23 q-10 0 -16 6 q-6 7 -2 23 q27 117 42 181 q16 64 18 74 q13 47 -2 85 q-14 38 -80 40 q-54 -2 -96 -43 q-43 -42 -72 -102 l20 84 l14 54 l-4 4 l-151 -29 l1 -10 l62 0 q9 0 12 -5 q2 -5 0 -15 l-87 -369 l66 0 l42 177 q23 84 72 156 q48 72 101 77 q39 -2 41 -38 q2 -35 -9 -76 l-58 -248 q-6 -25 6 -40 q11 -16 42 -16 q39 2 71 18 q32 16 34 18 l-3 9 q-2 -1 -24 -7 q-23 -7 -40 -8 l0 0 Z" /><glyph glyph-name="" unicode="&#x146;" d="M432 38 q-2 -1 -24 -7 q-23 -7 -40 -8 q-10 0 -16 6 q-6 7 -2 23 q27 117 42 181 q16 64 18 74 q13 47 -2 85 q-14 38 -80 40 q-54 -2 -96 -43 q-43 -42 -72 -102 l20 84 l14 54 l-4 4 l-151 -29 l1 -10 l62 0 q9 0 12 -5 q2 -5 0 -15 l-87 -369 l66 0 l42 177 q23 84 72 156 q48 72 101 77 q39 -2 41 -38 q2 -35 -9 -76 l-58 -248 q-6 -25 6 -40 q11 -16 42 -16 q39 2 71 18 q32 16 34 18 l-3 9 ZM48 -229 l11 0 l140 184 l-63 12 l-88 -196 Z" /><glyph glyph-name="" unicode="&#x14b;" d="M297 -181 q54 1 83 36 q29 34 40 84 l133 572 q7 34 29 49 q22 16 68 16 l-1 12 l-189 0 l0 -12 q38 2 60 -9 q21 -10 12 -55 l-90 -389 l-177 465 l-145 0 l-1 -12 q46 0 58 -15 q12 -15 3 -49 l-102 -438 q-7 -35 -29 -50 q-21 -14 -67 -14 l2 -10 l188 0 l0 10 q-39 -2 -60 9 q-22 11 -13 54 l109 462 l205 -536 l-12 -48 q-9 -44 -34 -77 q-24 -33 -73 -35 q-18 0 -48 18 q-29 19 -45 59 l-37 -76 q2 -1 43 -10 q40 -10 90 -11 l0 0 Z" /><glyph glyph-name="" unicode="ñ" d="M247 543 q23 -2 48 -18 q24 -16 56 -18 q25 2 41 28 q17 27 28 57 l-9 1 q0 -2 -14 -18 q-15 -16 -45 -18 q-25 2 -48 18 q-23 16 -56 18 q-26 -2 -41 -28 q-15 -27 -28 -57 l9 0 q0 2 15 18 q14 15 44 17 l0 0 ZM432 38 q-2 -1 -24 -7 q-23 -7 -40 -8 q-10 0 -16 6 q-6 7 -2 23 q27 117 42 181 q16 64 18 74 q13 47 -2 85 q-14 38 -80 40 q-54 -2 -96 -43 q-43 -42 -72 -102 l20 84 l14 54 l-4 4 l-151 -29 l1 -10 l62 0 q9 0 12 -5 q2 -5 0 -15 l-87 -369 l66 0 l42 177 q23 84 72 156 q48 72 101 77 q39 -2 41 -38 q2 -35 -9 -76 l-58 -248 q-6 -25 6 -40 q11 -16 42 -16 q39 2 71 18 q32 16 34 18 l-3 9 Z" /><glyph glyph-name="" unicode="o" d="M266 430 q-89 -2 -152 -64 q-64 -62 -83 -155 q-21 -93 12 -155 q34 -62 127 -64 q89 2 153 64 q63 62 83 155 q20 93 -17 155 q-37 62 -123 64 l0 0 ZM263 414 q57 -2 72 -58 q15 -56 -6 -145 q-16 -83 -54 -142 q-38 -58 -100 -61 q-59 2 -75 58 q-15 56 6 145 q16 83 54 142 q39 58 103 61 l0 0 Z" /><glyph glyph-name="" unicode="ó" d="M252 479 l16 0 l163 176 l-78 0 l-101 -176 ZM266 430 q-89 -2 -152 -64 q-64 -62 -83 -155 q-21 -93 12 -155 q34 -62 127 -64 q89 2 153 64 q63 62 83 155 q20 93 -17 155 q-37 62 -123 64 l0 0 ZM263 414 q57 -2 72 -58 q15 -56 -6 -145 q-16 -83 -54 -142 q-38 -58 -100 -61 q-59 2 -75 58 q-15 56 6 145 q16 83 54 142 q39 58 103 61 l0 0 Z" /><glyph glyph-name="" unicode="&#x1d2;" d="M273 499 l35 0 l136 145 l-14 0 l-130 -90 l-87 90 l-10 0 l70 -145 ZM266 430 q-89 -2 -152 -64 q-64 -62 -83 -155 q-21 -93 12 -155 q34 -62 127 -64 q89 2 153 64 q63 62 83 155 q20 93 -17 155 q-37 62 -123 64 l0 0 ZM263 414 q57 -2 72 -58 q15 -56 -6 -145 q-16 -83 -54 -142 q-38 -58 -100 -61 q-59 2 -75 58 q-15 56 6 145 q16 83 54 142 q39 58 103 61 l0 0 Z" /><glyph glyph-name="" unicode="ô" d="M157 470 l19 0 l126 93 l82 -93 l14 0 l-70 145 l-35 0 l-136 -145 ZM266 430 q-89 -2 -152 -64 q-64 -62 -83 -155 q-21 -93 12 -155 q34 -62 127 -64 q89 2 153 64 q63 62 83 155 q20 93 -17 155 q-37 62 -123 64 l0 0 ZM263 414 q57 -2 72 -58 q15 -56 -6 -145 q-16 -83 -54 -142 q-38 -58 -100 -61 q-59 2 -75 58 q-15 56 6 145 q16 83 54 142 q39 58 103 61 l0 0 Z" /><glyph glyph-name="" unicode="&#x1ed9;" d="M157 470 l19 0 l126 93 l82 -93 l14 0 l-70 145 l-35 0 l-136 -145 ZM266 430 q-89 -2 -152 -64 q-64 -62 -83 -155 q-21 -93 12 -155 q34 -62 127 -64 q89 2 153 64 q63 62 83 155 q20 93 -17 155 q-37 62 -123 64 l0 0 ZM263 414 q57 -2 72 -58 q15 -56 -6 -145 q-16 -83 -54 -142 q-38 -58 -100 -61 q-59 2 -75 58 q-15 56 6 145 q16 83 54 142 q39 58 103 61 l0 0 ZM132 -187 q17 1 33 15 q15 14 20 34 q5 22 -7 37 q-13 14 -35 15 q-18 -1 -33 -15 q-14 -14 -19 -34 q-5 -22 6 -36 q11 -15 35 -16 l0 0 Z" /><glyph glyph-name="" unicode="ö" d="M227 508 q15 1 28 13 q13 12 17 30 q3 18 -7 31 q-10 12 -30 13 q-15 -1 -27 -13 q-12 -12 -16 -30 q-4 -18 6 -31 q9 -12 29 -13 l0 0 ZM365 508 q16 1 29 14 q12 12 16 28 q4 19 -6 32 q-10 12 -31 13 q-15 -1 -27 -13 q-12 -12 -16 -29 q-4 -19 6 -31 q9 -13 29 -14 l0 0 ZM266 430 q-89 -2 -152 -64 q-64 -62 -83 -155 q-21 -93 12 -155 q34 -62 127 -64 q89 2 153 64 q63 62 83 155 q20 93 -17 155 q-37 62 -123 64 l0 0 ZM263 414 q57 -2 72 -58 q15 -56 -6 -145 q-16 -83 -54 -142 q-38 -58 -100 -61 q-59 2 -75 58 q-15 56 6 145 q16 83 54 142 q39 58 103 61 l0 0 Z" /><glyph glyph-name="" unicode="ò" d="M284 480 l18 0 l-56 176 l-75 0 l113 -176 ZM266 430 q-89 -2 -152 -64 q-64 -62 -83 -155 q-21 -93 12 -155 q34 -62 127 -64 q89 2 153 64 q63 62 83 155 q20 93 -17 155 q-37 62 -123 64 l0 0 ZM263 414 q57 -2 72 -58 q15 -56 -6 -145 q-16 -83 -54 -142 q-38 -58 -100 -61 q-59 2 -75 58 q-15 56 6 145 q16 83 54 142 q39 58 103 61 l0 0 Z" /><glyph glyph-name="" unicode="&#x151;" d="M202 479 l16 0 l163 176 l-78 0 l-101 -176 ZM312 479 l15 0 l163 176 l-77 0 l-101 -176 ZM266 430 q-89 -2 -152 -64 q-64 -62 -83 -155 q-21 -93 12 -155 q34 -62 127 -64 q89 2 153 64 q63 62 83 155 q20 93 -17 155 q-37 62 -123 64 l0 0 ZM263 414 q57 -2 72 -58 q15 -56 -6 -145 q-16 -83 -54 -142 q-38 -58 -100 -61 q-59 2 -75 58 q-15 56 6 145 q16 83 54 142 q39 58 103 61 l0 0 Z" /><glyph glyph-name="" unicode="&#x14d;" d="M182 523 l205 0 l7 28 l-205 0 l-7 -28 ZM266 430 q-89 -2 -152 -64 q-64 -62 -83 -155 q-21 -93 12 -155 q34 -62 127 -64 q89 2 153 64 q63 62 83 155 q20 93 -17 155 q-37 62 -123 64 l0 0 ZM263 414 q57 -2 72 -58 q15 -56 -6 -145 q-16 -83 -54 -142 q-38 -58 -100 -61 q-59 2 -75 58 q-15 56 6 145 q16 83 54 142 q39 58 103 61 l0 0 Z" /><glyph glyph-name="" unicode="ø" d="M0 -30 l32 0 q23 26 48 53 q18 -15 42 -23 q24 -8 55 -8 q86 2 149 62 q64 61 87 155 q12 54 4 97 q-9 43 -33 73 q9 9 25 28 q16 18 29 33 l-32 0 q-8 -10 -18 -21 q-11 -12 -22 -23 q-17 16 -43 25 q-26 9 -58 9 q-86 -2 -150 -64 q-64 -61 -86 -153 q-12 -54 -3 -99 q9 -44 35 -75 q-10 -11 -27 -30 q-18 -19 -34 -39 l0 0 ZM92 75 q-4 27 -1 62 q4 34 12 74 q20 88 63 145 q43 57 108 59 q28 0 45 -13 q17 -13 25 -36 l-252 -291 ZM168 7 q-25 0 -42 12 q-17 12 -26 32 l251 290 q3 -27 0 -60 q-4 -32 -12 -70 q-19 -84 -61 -142 q-43 -59 -110 -62 l0 0 Z" /><glyph glyph-name="" unicode="õ" d="M349 507 q25 2 41 28 q17 27 28 57 l-9 1 q0 -2 -14 -18 q-15 -16 -45 -18 q-25 2 -48 18 q-23 16 -56 18 q-26 -2 -41 -28 q-15 -27 -28 -57 l9 0 q0 2 15 18 q14 15 44 17 q23 -2 48 -18 q24 -16 56 -18 l0 0 ZM266 430 q-89 -2 -152 -64 q-64 -62 -83 -155 q-21 -93 12 -155 q34 -62 127 -64 q89 2 153 64 q63 62 83 155 q20 93 -17 155 q-37 62 -123 64 l0 0 ZM263 414 q57 -2 72 -58 q15 -56 -6 -145 q-16 -83 -54 -142 q-38 -58 -100 -61 q-59 2 -75 58 q-15 56 6 145 q16 83 54 142 q39 58 103 61 l0 0 Z" /><glyph glyph-name="" unicode="&#x153;" d="M443 212 l2 -11 q112 28 162 71 q49 42 48 93 q0 29 -23 48 q-24 19 -69 20 q-51 -1 -92 -24 q-42 -24 -72 -64 q-16 39 -50 62 q-33 23 -83 23 q-89 -2 -152 -64 q-64 -62 -83 -155 q-21 -93 12 -155 q34 -62 127 -64 q49 0 91 22 q43 21 75 57 q14 -38 46 -58 q31 -21 78 -21 q64 3 108 27 q44 24 46 27 l-4 9 q-2 -2 -35 -15 q-34 -14 -77 -16 q-65 1 -89 49 q-25 49 -2 139 q21 80 61 139 q41 58 95 61 q19 0 28 -11 q9 -12 9 -33 q2 -39 -30 -79 q-32 -41 -127 -77 l0 0 ZM175 8 q-59 2 -75 58 q-15 56 6 145 q16 83 54 142 q39 58 103 61 q57 -2 72 -58 q15 -56 -6 -145 q-16 -83 -54 -142 q-38 -58 -100 -61 l0 0 Z" /><glyph glyph-name="" unicode="p" d="M318 434 q-46 0 -79 -26 q-33 -26 -56 -72 l21 87 l-3 4 l-152 -29 l1 -10 l63 0 q9 0 12 -5 q2 -5 0 -15 l-136 -570 q-6 -25 5 -40 q11 -16 43 -16 q39 2 71 18 q32 16 34 18 l-3 9 q-2 -1 -24 -7 q-23 -7 -40 -8 q-10 0 -16 6 q-7 6 -3 21 l48 200 q14 -2 33 -5 q19 -2 36 -2 q87 1 159 62 q71 61 99 164 q26 111 -8 164 q-35 52 -105 52 l0 0 ZM358 213 q-22 -96 -65 -147 q-43 -51 -109 -52 q-36 1 -53 8 q-18 8 -20 10 l46 194 q16 59 51 120 q36 60 95 65 q45 0 61 -49 q15 -50 -6 -149 l0 0 Z" /><glyph glyph-name="" unicode="þ" d="M318 434 q-48 0 -81 -28 q-34 -28 -57 -77 l89 380 l-3 4 l-151 -28 l1 -11 l62 0 q9 0 12 -5 q2 -5 0 -15 l-201 -856 q-6 -25 5 -40 q11 -16 43 -16 q39 2 71 18 q32 16 34 18 l-3 9 q-2 -1 -24 -7 q-23 -7 -40 -8 q-10 0 -16 6 q-7 6 -3 21 l47 201 q15 -3 34 -5 q19 -3 36 -3 q87 1 159 62 q71 61 99 164 q26 111 -8 164 q-35 52 -105 52 l0 0 ZM358 213 q-22 -96 -65 -147 q-43 -51 -109 -52 q-38 1 -56 9 q-17 8 -17 9 q1 4 14 59 q12 55 26 112 q13 59 50 130 q36 72 102 78 q45 0 61 -49 q15 -50 -6 -149 l0 0 Z" /><glyph glyph-name="" unicode="q" d="M283 -228 q-10 0 -17 6 q-6 7 -2 23 l143 608 l-25 4 q1 1 1 1 q0 0 0 1 q-8 3 -39 9 q-31 5 -65 6 q-77 0 -148 -56 q-71 -56 -99 -163 q-24 -111 9 -165 q34 -54 104 -54 q35 0 64 20 q28 19 51 55 l-63 -269 q-6 -25 5 -40 q11 -16 43 -16 q38 2 70 18 q32 16 34 18 l-2 9 q-2 -1 -24 -7 q-23 -7 -40 -8 l0 0 ZM296 219 q-11 -59 -45 -129 q-34 -71 -97 -77 q-42 0 -55 50 q-14 50 7 148 q19 89 61 142 q42 54 103 55 q33 -1 49 -8 q17 -7 18 -9 l-37 -155 q-1 -5 -2 -9 q-1 -4 -2 -8 l0 0 Z" /><glyph glyph-name="" unicode="r" d="M156 279 l22 92 q4 18 8 36 q5 17 5 18 l-3 4 l-151 -29 l1 -10 l62 0 q9 0 12 -5 q2 -5 0 -15 l-87 -369 l66 0 l41 174 q27 100 73 146 q46 47 117 35 l19 76 q-62 1 -109 -45 q-46 -45 -76 -108 l0 0 Z" /><glyph glyph-name="" unicode="&#x155;" d="M332 651 l-78 0 l-101 -176 l16 0 l163 176 ZM156 279 l22 92 q4 18 8 36 q5 17 5 18 l-3 4 l-151 -29 l1 -10 l62 0 q9 0 12 -5 q2 -5 0 -15 l-87 -369 l66 0 l41 174 q27 100 73 146 q46 47 117 35 l19 76 q-62 1 -109 -45 q-46 -45 -76 -108 l0 0 Z" /><glyph glyph-name="" unicode="&#x159;" d="M209 495 l136 145 l-14 0 l-130 -90 l-87 90 l-10 0 l70 -145 l35 0 ZM156 279 l22 92 q4 18 8 36 q5 17 5 18 l-3 4 l-151 -29 l1 -10 l62 0 q9 0 12 -5 q2 -5 0 -15 l-87 -369 l66 0 l41 174 q27 100 73 146 q46 47 117 35 l19 76 q-62 1 -109 -45 q-46 -45 -76 -108 l0 0 Z" /><glyph glyph-name="" unicode="&#x157;" d="M156 279 l22 92 q4 18 8 36 q5 17 5 18 l-3 4 l-151 -29 l1 -10 l62 0 q9 0 12 -5 q2 -5 0 -15 l-87 -369 l66 0 l41 174 q27 100 73 146 q46 47 117 35 l19 76 q-62 1 -109 -45 q-46 -45 -76 -108 l0 0 ZM-60 -229 l11 0 l140 184 l-63 12 l-88 -196 Z" /><glyph glyph-name="" unicode="s" d="M117 -8 q73 2 111 35 q38 33 38 75 q0 23 -16 52 q-17 28 -49 72 q-28 33 -46 64 q-18 31 -19 58 q-1 24 16 45 q16 21 56 22 q50 -1 64 -30 q15 -29 12 -74 l11 0 l25 110 q-3 1 -37 6 q-34 5 -67 6 q-74 -1 -111 -32 q-36 -31 -36 -78 q0 -29 16 -57 q16 -28 45 -67 q34 -44 51 -71 q17 -27 17 -53 q0 -22 -19 -43 q-20 -21 -62 -22 q-65 2 -81 40 q-16 37 -8 84 l-14 0 l-26 -109 q1 -2 35 -17 q35 -15 94 -16 l0 0 Z" /><glyph glyph-name="" unicode="&#x15b;" d="M212 479 l16 0 l163 176 l-78 0 l-101 -176 ZM117 -8 q73 2 111 35 q38 33 38 75 q0 23 -16 52 q-17 28 -49 72 q-28 33 -46 64 q-18 31 -19 58 q-1 24 16 45 q16 21 56 22 q50 -1 64 -30 q15 -29 12 -74 l11 0 l25 110 q-3 1 -37 6 q-34 5 -67 6 q-74 -1 -111 -32 q-36 -31 -36 -78 q0 -29 16 -57 q16 -28 45 -67 q34 -44 51 -71 q17 -27 17 -53 q0 -22 -19 -43 q-20 -21 -62 -22 q-65 2 -81 40 q-16 37 -8 84 l-14 0 l-26 -109 q1 -2 35 -17 q35 -15 94 -16 l0 0 Z" /><glyph glyph-name="" unicode="&#x161;" d="M233 499 l35 0 l136 145 l-14 0 l-130 -90 l-87 90 l-10 0 l70 -145 ZM117 -8 q73 2 111 35 q38 33 38 75 q0 23 -16 52 q-17 28 -49 72 q-28 33 -46 64 q-18 31 -19 58 q-1 24 16 45 q16 21 56 22 q50 -1 64 -30 q15 -29 12 -74 l11 0 l25 110 q-3 1 -37 6 q-34 5 -67 6 q-74 -1 -111 -32 q-36 -31 -36 -78 q0 -29 16 -57 q16 -28 45 -67 q34 -44 51 -71 q17 -27 17 -53 q0 -22 -19 -43 q-20 -21 -62 -22 q-65 2 -81 40 q-16 37 -8 84 l-14 0 l-26 -109 q1 -2 35 -17 q35 -15 94 -16 l0 0 Z" /><glyph glyph-name="" unicode="&#x15f;" d="M216 433 q-74 -1 -111 -32 q-36 -31 -36 -78 q0 -29 16 -57 q16 -28 45 -67 q34 -44 51 -71 q17 -27 17 -53 q0 -22 -19 -43 q-20 -21 -62 -22 q-65 2 -81 40 q-16 37 -8 84 l-14 0 l-26 -109 q1 -2 33 -16 q33 -14 90 -17 l-75 -76 l12 2 l-4 -2 q33 -1 43 -12 q11 -11 0 -33 q-9 -23 -30 -37 q-20 -14 -42 -14 q-8 1 -13 7 q-4 6 -4 7 l-2 -13 q0 -1 17 -10 q16 -10 46 -11 q23 0 42 16 q20 15 32 42 q12 30 -2 47 q-15 17 -51 21 l45 66 q69 4 105 37 q36 32 36 73 q0 23 -16 52 q-17 28 -49 72 q-28 33 -46 64 q-18 31 -19 58 q-1 24 16 45 q16 21 56 22 q50 -1 64 -30 q15 -29 12 -74 l11 0 l25 110 q-3 1 -37 6 q-34 5 -67 6 l0 0 Z" /><glyph glyph-name="" unicode="&#x219;" d="M117 -8 q73 2 111 35 q38 33 38 75 q0 23 -16 52 q-17 28 -49 72 q-28 33 -46 64 q-18 31 -19 58 q-1 24 16 45 q16 21 56 22 q50 -1 64 -30 q15 -29 12 -74 l11 0 l25 110 q-3 1 -37 6 q-34 5 -67 6 q-74 -1 -111 -32 q-36 -31 -36 -78 q0 -29 16 -57 q16 -28 45 -67 q34 -44 51 -71 q17 -27 17 -53 q0 -22 -19 -43 q-20 -21 -62 -22 q-65 2 -81 40 q-16 37 -8 84 l-14 0 l-26 -109 q1 -2 35 -17 q35 -15 94 -16 l0 0 ZM-13 -229 l11 0 l140 184 l-63 12 l-88 -196 Z" /><glyph glyph-name="" unicode="ß" d="M376 457 q34 38 55 70 q21 31 28 62 q13 57 -16 91 q-29 33 -93 34 q-81 -3 -132 -62 q-52 -58 -70 -135 l-25 -103 l-71 0 l-6 -28 l70 0 l-13 -58 q-17 -81 -48 -225 q-32 -145 -43 -194 q-8 -47 -27 -87 q-18 -40 -72 -43 q-38 3 -62 22 q-24 18 -25 21 l-10 -60 q1 -2 22 -13 q20 -12 52 -14 q83 8 142 110 q58 102 76 202 l61 281 l60 256 q11 46 46 77 q34 30 81 31 q47 -2 57 -32 q10 -30 0 -70 q-6 -29 -25 -58 q-18 -30 -52 -65 q-37 -39 -60 -66 q-23 -28 -31 -57 q-9 -34 -1 -59 q7 -25 28 -50 q7 -9 16 -18 q8 -9 21 -24 q33 -37 43 -63 q10 -26 4 -53 q-7 -28 -30 -46 q-24 -18 -63 -19 q-34 1 -58 13 q-25 13 -32 25 l-9 -46 q5 -1 37 -7 q31 -5 69 -5 q50 0 95 22 q44 22 61 81 q8 31 -6 61 q-14 30 -57 79 q-9 11 -18 22 q-8 11 -18 22 q-16 20 -21 40 q-5 20 0 41 q4 22 19 40 q14 17 51 57 l0 0 Z" /><glyph glyph-name="" unicode="t" d="M195 391 l114 0 l0 23 l-111 0 l35 155 l-16 0 q-30 -89 -62 -128 q-32 -39 -95 -38 l-1 -12 l71 0 q-28 -118 -52 -215 q-24 -97 -27 -110 q-9 -34 6 -54 q14 -20 58 -20 q40 2 73 18 q33 16 35 18 l-2 12 q-20 -9 -38 -12 q-18 -4 -34 -4 q-20 0 -29 11 q-9 10 -3 34 l78 322 Z" /><glyph glyph-name="" unicode="&#x167;" d="M334 393 l5 21 l-133 0 l32 155 l-9 0 q-33 -82 -77 -124 q-43 -42 -89 -41 q2 -3 -1 -7 q-3 -4 -4 -4 l75 0 l-20 -87 l-62 0 l-4 -22 l61 0 l-48 -209 q-10 -45 12 -64 q22 -19 63 -19 q72 5 103 41 q32 35 31 40 l-2 10 q-1 -5 -31 -31 q-29 -25 -77 -29 q-19 0 -27 15 q-9 16 -1 52 l45 194 l127 0 l5 22 l-127 0 l20 87 l133 0 Z" /><glyph glyph-name="" unicode="&#x165;" d="M323 714 l-8 -5 q10 -18 12 -48 q1 -30 -6 -61 q-8 -31 -26 -61 q-19 -31 -41 -52 l5 -5 q5 0 51 27 q46 28 66 89 q9 59 -20 88 q-28 28 -33 28 l0 0 ZM241 569 l-12 0 q-32 -79 -77 -122 q-44 -44 -92 -45 l2 -11 l71 0 l-73 -316 q-10 -45 11 -64 q21 -19 64 -19 q72 5 103 41 q32 35 31 40 l-2 10 q-1 -5 -31 -31 q-29 -25 -77 -29 q-19 0 -27 15 q-9 16 -1 52 l69 301 l133 0 l5 22 l-134 0 l37 156 Z" /><glyph glyph-name="" unicode="&#x163;" d="M195 391 l114 0 l0 23 l-111 0 l35 155 l-16 0 q-30 -89 -62 -128 q-32 -39 -95 -38 l-1 -12 l71 0 q-28 -118 -52 -215 q-24 -97 -27 -110 q-9 -34 6 -54 q14 -20 58 -20 q4 0 7 0 q3 0 7 1 l-69 -70 l12 2 l-4 -2 q33 -1 43 -12 q11 -11 0 -33 q-9 -23 -30 -37 q-20 -14 -42 -14 q-8 1 -13 7 q-4 6 -4 7 l-2 -13 q0 -1 17 -10 q16 -10 46 -11 q23 0 42 16 q20 15 32 42 q12 30 -2 47 q-15 17 -51 21 l43 63 q31 9 53 20 q22 11 23 12 l-2 12 q-20 -9 -38 -12 q-18 -4 -34 -4 q-20 0 -29 11 q-9 10 -3 34 l78 322 Z" /><glyph glyph-name="" unicode="&#x21b;" d="M195 391 l114 0 l0 23 l-111 0 l35 155 l-16 0 q-30 -89 -62 -128 q-32 -39 -95 -38 l-1 -12 l71 0 q-28 -118 -52 -215 q-24 -97 -27 -110 q-9 -34 6 -54 q14 -20 58 -20 q40 2 73 18 q33 16 35 18 l-2 12 q-20 -9 -38 -12 q-18 -4 -34 -4 q-20 0 -29 11 q-9 10 -3 34 l78 322 ZM11 -222 l11 0 l140 184 l-63 12 l-88 -196 Z" /><glyph glyph-name="" unicode="u" d="M366 23 q-10 0 -16 6 q-7 7 -3 23 l87 371 l-66 0 l-42 -178 q-23 -84 -70 -156 q-47 -71 -100 -76 q-39 2 -41 38 q-2 36 8 77 l57 242 l14 53 l-4 4 l-151 -28 l1 -11 l62 0 q9 0 12 -5 q3 -5 1 -15 q-24 -102 -39 -163 q-15 -61 -20 -82 q-14 -50 0 -89 q13 -40 80 -42 q53 2 94 42 q41 41 70 100 l-20 -85 q-6 -25 5 -40 q11 -16 43 -16 q39 2 71 18 q32 16 34 18 l-3 9 q-2 -1 -24 -7 q-23 -7 -40 -8 l0 0 Z" /><glyph glyph-name="" unicode="ú" d="M424 655 l-78 0 l-101 -176 l16 0 l163 176 ZM366 23 q-10 0 -16 6 q-7 7 -3 23 l87 371 l-66 0 l-42 -178 q-23 -84 -70 -156 q-47 -71 -100 -76 q-39 2 -41 38 q-2 36 8 77 l57 242 l14 53 l-4 4 l-151 -28 l1 -11 l62 0 q9 0 12 -5 q3 -5 1 -15 q-24 -102 -39 -163 q-15 -61 -20 -82 q-14 -50 0 -89 q13 -40 80 -42 q53 2 94 42 q41 41 70 100 l-20 -85 q-6 -25 5 -40 q11 -16 43 -16 q39 2 71 18 q32 16 34 18 l-3 9 q-2 -1 -24 -7 q-23 -7 -40 -8 l0 0 Z" /><glyph glyph-name="" unicode="&#x1d4;" d="M301 499 l136 145 l-14 0 l-130 -90 l-87 90 l-10 0 l70 -145 l35 0 ZM434 423 l-66 0 l-42 -178 q-23 -84 -70 -156 q-47 -71 -100 -76 q-39 2 -41 38 q-2 36 8 77 l57 242 l14 53 l-4 4 l-151 -28 l1 -11 l62 0 q9 0 12 -5 q3 -5 1 -15 q-24 -102 -39 -163 q-15 -61 -20 -82 q-14 -50 0 -89 q13 -40 80 -42 q53 2 94 42 q41 41 70 100 l-20 -85 q-6 -25 5 -40 q11 -16 43 -16 q39 2 71 18 q32 16 34 18 l-3 9 q-2 -1 -24 -7 q-23 -7 -40 -8 q-10 0 -16 6 q-7 7 -3 23 l87 371 Z" /><glyph glyph-name="" unicode="û" d="M296 563 l82 -93 l14 0 l-70 145 l-35 0 l-136 -145 l19 0 l126 93 ZM366 23 q-10 0 -16 6 q-7 7 -3 23 l87 371 l-66 0 l-42 -178 q-23 -84 -70 -156 q-47 -71 -100 -76 q-39 2 -41 38 q-2 36 8 77 l57 242 l14 53 l-4 4 l-151 -28 l1 -11 l62 0 q9 0 12 -5 q3 -5 1 -15 q-24 -102 -39 -163 q-15 -61 -20 -82 q-14 -50 0 -89 q13 -40 80 -42 q53 2 94 42 q41 41 70 100 l-20 -85 q-6 -25 5 -40 q11 -16 43 -16 q39 2 71 18 q32 16 34 18 l-3 9 q-2 -1 -24 -7 q-23 -7 -40 -8 l0 0 Z" /><glyph glyph-name="" unicode="ü" d="M220 508 q15 1 28 13 q13 12 17 30 q3 18 -7 31 q-10 12 -30 13 q-15 -1 -27 -13 q-12 -12 -16 -30 q-4 -18 6 -31 q9 -12 29 -13 l0 0 ZM358 508 q16 1 29 14 q12 12 16 28 q4 19 -6 32 q-10 12 -31 13 q-15 -1 -27 -13 q-12 -12 -16 -29 q-4 -19 6 -31 q9 -13 29 -14 l0 0 ZM366 23 q-10 0 -16 6 q-7 7 -3 23 l87 371 l-66 0 l-42 -178 q-23 -84 -70 -156 q-47 -71 -100 -76 q-39 2 -41 38 q-2 36 8 77 l57 242 l14 53 l-4 4 l-151 -28 l1 -11 l62 0 q9 0 12 -5 q3 -5 1 -15 q-24 -102 -39 -163 q-15 -61 -20 -82 q-14 -50 0 -89 q13 -40 80 -42 q53 2 94 42 q41 41 70 100 l-20 -85 q-6 -25 5 -40 q11 -16 43 -16 q39 2 71 18 q32 16 34 18 l-3 9 q-2 -1 -24 -7 q-23 -7 -40 -8 l0 0 Z" /><glyph glyph-name="" unicode="&#x1ee5;" d="M366 23 q-10 0 -16 6 q-7 7 -3 23 l87 371 l-66 0 l-42 -178 q-23 -84 -70 -156 q-47 -71 -100 -76 q-39 2 -41 38 q-2 36 8 77 l57 242 l14 53 l-4 4 l-151 -28 l1 -11 l62 0 q9 0 12 -5 q3 -5 1 -15 q-24 -102 -39 -163 q-15 -61 -20 -82 q-14 -50 0 -89 q13 -40 80 -42 q53 2 94 42 q41 41 70 100 l-20 -85 q-6 -25 5 -40 q11 -16 43 -16 q39 2 71 18 q32 16 34 18 l-3 9 q-2 -1 -24 -7 q-23 -7 -40 -8 l0 0 ZM165 -86 q-18 -1 -33 -15 q-14 -14 -19 -34 q-5 -22 6 -36 q11 -15 35 -16 q17 1 33 15 q15 14 20 34 q5 22 -7 37 q-13 14 -35 15 l0 0 Z" /><glyph glyph-name="" unicode="ù" d="M295 480 l-19 176 l-74 0 l78 -176 l15 0 ZM366 23 q-10 0 -16 6 q-7 7 -3 23 l87 371 l-66 0 l-42 -178 q-23 -84 -70 -156 q-47 -71 -100 -76 q-39 2 -41 38 q-2 36 8 77 l57 242 l14 53 l-4 4 l-151 -28 l1 -11 l62 0 q9 0 12 -5 q3 -5 1 -15 q-24 -102 -39 -163 q-15 -61 -20 -82 q-14 -50 0 -89 q13 -40 80 -42 q53 2 94 42 q41 41 70 100 l-20 -85 q-6 -25 5 -40 q11 -16 43 -16 q39 2 71 18 q32 16 34 18 l-3 9 q-2 -1 -24 -7 q-23 -7 -40 -8 l0 0 Z" /><glyph glyph-name="" unicode="&#x1ee7;" d="M241 613 q27 -1 37 -19 q11 -18 10 -35 q-1 -28 -11 -45 q-11 -18 -17 -25 l4 -5 q16 6 42 34 q27 28 30 62 q0 29 -19 48 q-19 20 -55 21 q-42 -4 -64 -30 q-23 -26 -23 -30 l3 -5 q7 7 24 18 q18 10 39 11 l0 0 ZM366 23 q-10 0 -16 6 q-7 7 -3 23 l87 371 l-66 0 l-42 -178 q-23 -84 -70 -156 q-47 -71 -100 -76 q-39 2 -41 38 q-2 36 8 77 l57 242 l14 53 l-4 4 l-151 -28 l1 -11 l62 0 q9 0 12 -5 q3 -5 1 -15 q-24 -102 -39 -163 q-15 -61 -20 -82 q-14 -50 0 -89 q13 -40 80 -42 q53 2 94 42 q41 41 70 100 l-20 -85 q-6 -25 5 -40 q11 -16 43 -16 q39 2 71 18 q32 16 34 18 l-3 9 q-2 -1 -24 -7 q-23 -7 -40 -8 l0 0 Z" /><glyph glyph-name="" unicode="&#x171;" d="M374 655 l-78 0 l-101 -176 l16 0 l163 176 ZM320 479 l163 176 l-77 0 l-101 -176 l15 0 ZM434 423 l-66 0 l-42 -178 q-23 -84 -70 -156 q-47 -71 -100 -76 q-39 2 -41 38 q-2 36 8 77 l57 242 l14 53 l-4 4 l-151 -28 l1 -11 l62 0 q9 0 12 -5 q3 -5 1 -15 q-24 -102 -39 -163 q-15 -61 -20 -82 q-14 -50 0 -89 q13 -40 80 -42 q53 2 94 42 q41 41 70 100 l-20 -85 q-6 -25 5 -40 q11 -16 43 -16 q39 2 71 18 q32 16 34 18 l-3 9 q-2 -1 -24 -7 q-23 -7 -40 -8 q-10 0 -16 6 q-7 7 -3 23 l87 371 Z" /><glyph glyph-name="" unicode="&#x16b;" d="M388 551 l-205 0 l-7 -28 l205 0 l7 28 ZM366 23 q-10 0 -16 6 q-7 7 -3 23 l87 371 l-66 0 l-42 -178 q-23 -84 -70 -156 q-47 -71 -100 -76 q-39 2 -41 38 q-2 36 8 77 l57 242 l14 53 l-4 4 l-151 -28 l1 -11 l62 0 q9 0 12 -5 q3 -5 1 -15 q-24 -102 -39 -163 q-15 -61 -20 -82 q-14 -50 0 -89 q13 -40 80 -42 q53 2 94 42 q41 41 70 100 l-20 -85 q-6 -25 5 -40 q11 -16 43 -16 q39 2 71 18 q32 16 34 18 l-3 9 q-2 -1 -24 -7 q-23 -7 -40 -8 l0 0 Z" /><glyph glyph-name="" unicode="&#x173;" d="M433 29 l-3 9 q-2 -1 -24 -7 q-23 -7 -40 -8 q-10 0 -16 6 q-7 7 -3 23 l87 371 l-66 0 l-42 -178 q-23 -84 -70 -156 q-47 -71 -100 -76 q-39 2 -41 38 q-2 36 8 77 l57 242 l14 53 l-4 4 l-151 -28 l1 -11 l62 0 q9 0 12 -5 q3 -5 1 -15 q-24 -102 -39 -163 q-15 -61 -20 -82 q-14 -50 0 -89 q13 -40 80 -42 q53 2 94 42 q41 41 70 100 l-20 -85 q-6 -25 5 -40 q11 -16 43 -16 q16 0 32 5 q17 4 31 10 q-29 -28 -53 -59 q-25 -32 -33 -60 q-5 -28 9 -42 q14 -14 41 -14 q28 1 47 11 q19 9 20 10 l2 22 q-1 -1 -15 -6 q-14 -5 -33 -6 q-14 0 -16 12 q-3 11 3 28 q5 22 25 58 q20 36 45 67 l0 0 Z" /><glyph glyph-name="" unicode="&#x16f;" d="M280 487 q30 1 53 18 q23 17 30 42 q5 26 -14 44 q-19 18 -54 19 q-30 -1 -53 -18 q-23 -18 -30 -44 q-5 -25 14 -42 q18 -18 54 -19 l0 0 ZM255 545 q4 16 18 26 q13 10 29 10 q11 0 16 -10 q5 -9 2 -24 q-4 -14 -17 -24 q-14 -10 -31 -10 q-11 1 -15 10 q-4 10 -2 22 l0 0 ZM366 23 q-10 0 -16 6 q-7 7 -3 23 l87 371 l-66 0 l-42 -178 q-23 -84 -70 -156 q-47 -71 -100 -76 q-39 2 -41 38 q-2 36 8 77 l57 242 l14 53 l-4 4 l-151 -28 l1 -11 l62 0 q9 0 12 -5 q3 -5 1 -15 q-24 -102 -39 -163 q-15 -61 -20 -82 q-14 -50 0 -89 q13 -40 80 -42 q53 2 94 42 q41 41 70 100 l-20 -85 q-6 -25 5 -40 q11 -16 43 -16 q39 2 71 18 q32 16 34 18 l-3 9 q-2 -1 -24 -7 q-23 -7 -40 -8 l0 0 Z" /><glyph glyph-name="" unicode="&#x169;" d="M234 543 q23 -2 48 -18 q24 -16 56 -18 q25 2 41 28 q17 27 28 57 l-9 1 q0 -2 -14 -18 q-15 -16 -45 -18 q-25 2 -48 18 q-23 16 -56 18 q-26 -2 -41 -28 q-15 -27 -28 -57 l9 0 q0 2 15 18 q14 15 44 17 l0 0 ZM366 23 q-10 0 -16 6 q-7 7 -3 23 l87 371 l-66 0 l-42 -178 q-23 -84 -70 -156 q-47 -71 -100 -76 q-39 2 -41 38 q-2 36 8 77 l57 242 l14 53 l-4 4 l-151 -28 l1 -11 l62 0 q9 0 12 -5 q3 -5 1 -15 q-24 -102 -39 -163 q-15 -61 -20 -82 q-14 -50 0 -89 q13 -40 80 -42 q53 2 94 42 q41 41 70 100 l-20 -85 q-6 -25 5 -40 q11 -16 43 -16 q39 2 71 18 q32 16 34 18 l-3 9 q-2 -1 -24 -7 q-23 -7 -40 -8 l0 0 Z" /><glyph glyph-name="" unicode="v" d="M122 -8 q98 4 182 83 q84 79 92 192 q0 49 -17 95 q-18 45 -51 75 l-52 -50 q39 -17 63 -50 q23 -33 24 -92 q-4 -85 -70 -151 q-65 -66 -131 -70 q-32 0 -48 18 q-16 18 -16 48 q3 59 46 159 q42 99 84 174 l-4 4 l-167 -28 l-1 -11 l67 0 q9 0 12 -4 q3 -4 -2 -15 q-42 -83 -71 -156 q-30 -74 -33 -135 q0 -43 25 -64 q25 -22 68 -22 l0 0 Z" /><glyph glyph-name="" unicode="w" d="M527 437 l-51 -52 q49 -29 67 -65 q18 -36 17 -75 q-3 -91 -50 -155 q-47 -63 -96 -66 q-31 0 -45 18 q-15 19 -15 59 q2 79 26 175 q23 95 41 147 l-4 4 l-69 -9 l-13 -1 q-9 -127 -56 -253 q-48 -127 -127 -137 q-26 0 -40 16 q-14 16 -14 46 q5 65 51 172 q46 106 78 162 l-4 4 l-169 -25 l0 -7 l68 0 q9 0 13 -4 q3 -4 -2 -15 q-40 -83 -71 -159 q-31 -76 -34 -137 q0 -42 23 -65 q23 -23 63 -23 q64 1 109 46 q45 44 74 126 q-5 -27 -8 -49 q-3 -21 -3 -34 q-1 -41 21 -65 q22 -23 72 -24 q83 3 145 82 q62 79 67 193 q1 43 -14 91 q-16 49 -50 79 l0 0 Z" /><glyph glyph-name="" unicode="&#x1e83;" d="M514 655 l-78 0 l-101 -176 l16 0 l163 176 ZM527 437 l-51 -52 q49 -29 67 -65 q18 -36 17 -75 q-3 -91 -50 -155 q-47 -63 -96 -66 q-31 0 -45 18 q-15 19 -15 59 q2 79 26 175 q23 95 41 147 l-4 4 l-69 -9 l-13 -1 q-9 -127 -56 -253 q-48 -127 -127 -137 q-26 0 -40 16 q-14 16 -14 46 q5 65 51 172 q46 106 78 162 l-4 4 l-169 -25 l0 -7 l68 0 q9 0 13 -4 q3 -4 -2 -15 q-40 -83 -71 -159 q-31 -76 -34 -137 q0 -42 23 -65 q23 -23 63 -23 q64 1 109 46 q45 44 74 126 q-5 -27 -8 -49 q-3 -21 -3 -34 q-1 -41 21 -65 q22 -23 72 -24 q83 3 145 82 q62 79 67 193 q1 43 -14 91 q-16 49 -50 79 l0 0 Z" /><glyph glyph-name="" unicode="&#x175;" d="M385 563 l82 -93 l14 0 l-70 145 l-35 0 l-136 -145 l19 0 l126 93 ZM527 437 l-51 -52 q49 -29 67 -65 q18 -36 17 -75 q-3 -91 -50 -155 q-47 -63 -96 -66 q-31 0 -45 18 q-15 19 -15 59 q2 79 26 175 q23 95 41 147 l-4 4 l-69 -9 l-13 -1 q-9 -127 -56 -253 q-48 -127 -127 -137 q-26 0 -40 16 q-14 16 -14 46 q5 65 51 172 q46 106 78 162 l-4 4 l-169 -25 l0 -7 l68 0 q9 0 13 -4 q3 -4 -2 -15 q-40 -83 -71 -159 q-31 -76 -34 -137 q0 -42 23 -65 q23 -23 63 -23 q64 1 109 46 q45 44 74 126 q-5 -27 -8 -49 q-3 -21 -3 -34 q-1 -41 21 -65 q22 -23 72 -24 q83 3 145 82 q62 79 67 193 q1 43 -14 91 q-16 49 -50 79 l0 0 Z" /><glyph glyph-name="" unicode="&#x1e85;" d="M310 508 q15 1 28 13 q13 12 17 30 q3 18 -7 31 q-10 12 -30 13 q-15 -1 -27 -13 q-12 -12 -16 -30 q-4 -18 6 -31 q9 -12 29 -13 l0 0 ZM448 508 q16 1 29 14 q12 12 16 28 q4 19 -6 32 q-10 12 -31 13 q-15 -1 -27 -13 q-12 -12 -16 -29 q-4 -19 6 -31 q9 -13 29 -14 l0 0 ZM527 437 l-51 -52 q49 -29 67 -65 q18 -36 17 -75 q-3 -91 -50 -155 q-47 -63 -96 -66 q-31 0 -45 18 q-15 19 -15 59 q2 79 26 175 q23 95 41 147 l-4 4 l-69 -9 l-13 -1 q-9 -127 -56 -253 q-48 -127 -127 -137 q-26 0 -40 16 q-14 16 -14 46 q5 65 51 172 q46 106 78 162 l-4 4 l-169 -25 l0 -7 l68 0 q9 0 13 -4 q3 -4 -2 -15 q-40 -83 -71 -159 q-31 -76 -34 -137 q0 -42 23 -65 q23 -23 63 -23 q64 1 109 46 q45 44 74 126 q-5 -27 -8 -49 q-3 -21 -3 -34 q-1 -41 21 -65 q22 -23 72 -24 q83 3 145 82 q62 79 67 193 q1 43 -14 91 q-16 49 -50 79 l0 0 Z" /><glyph glyph-name="" unicode="&#x1e81;" d="M384 480 l-19 176 l-74 0 l78 -176 l15 0 ZM527 437 l-51 -52 q49 -29 67 -65 q18 -36 17 -75 q-3 -91 -50 -155 q-47 -63 -96 -66 q-31 0 -45 18 q-15 19 -15 59 q2 79 26 175 q23 95 41 147 l-4 4 l-69 -9 l-13 -1 q-9 -127 -56 -253 q-48 -127 -127 -137 q-26 0 -40 16 q-14 16 -14 46 q5 65 51 172 q46 106 78 162 l-4 4 l-169 -25 l0 -7 l68 0 q9 0 13 -4 q3 -4 -2 -15 q-40 -83 -71 -159 q-31 -76 -34 -137 q0 -42 23 -65 q23 -23 63 -23 q64 1 109 46 q45 44 74 126 q-5 -27 -8 -49 q-3 -21 -3 -34 q-1 -41 21 -65 q22 -23 72 -24 q83 3 145 82 q62 79 67 193 q1 43 -14 91 q-16 49 -50 79 l0 0 Z" /><glyph glyph-name="" unicode="x" d="M314 22 q-11 0 -17 6 q-7 6 -11 23 l-47 190 q41 54 89 100 q49 45 100 73 l-99 0 l-96 -150 l-27 109 q-5 28 -19 43 q-15 16 -41 16 q-37 -2 -65 -18 q-29 -16 -30 -18 l7 -10 q1 1 19 8 q17 6 33 7 q11 0 17 -6 q7 -6 11 -23 l43 -173 q-47 -61 -101 -110 q-54 -50 -118 -90 l99 0 l125 179 l34 -136 q7 -28 20 -39 q13 -11 38 -11 q40 2 65 18 q24 16 25 18 l-6 9 q-1 -1 -18 -7 q-16 -7 -30 -8 l0 0 Z" /><glyph glyph-name="" unicode="y" d="M357 437 l-52 -50 q42 -19 71 -61 q28 -42 29 -98 q-1 -68 -30 -130 q-30 -62 -81 -116 l-113 391 q-7 28 -18 43 q-11 16 -39 16 q-44 -2 -76 -18 q-32 -16 -34 -18 l7 -10 q2 1 24 8 q21 6 38 7 q11 0 17 -7 q6 -7 11 -22 l131 -439 q-58 -47 -124 -80 q-67 -33 -135 -49 l46 -65 q68 44 228 175 q160 132 179 341 q2 54 -17 102 q-18 47 -62 80 l0 0 Z" /><glyph glyph-name="" unicode="ý" d="M413 655 l-78 0 l-101 -176 l16 0 l163 176 ZM357 437 l-52 -50 q42 -19 71 -61 q28 -42 29 -98 q-1 -68 -30 -130 q-30 -62 -81 -116 l-113 391 q-7 28 -18 43 q-11 16 -39 16 q-44 -2 -76 -18 q-32 -16 -34 -18 l7 -10 q2 1 24 8 q21 6 38 7 q11 0 17 -7 q6 -7 11 -22 l131 -439 q-58 -47 -124 -80 q-67 -33 -135 -49 l46 -65 q68 44 228 175 q160 132 179 341 q2 54 -17 102 q-18 47 -62 80 l0 0 Z" /><glyph glyph-name="" unicode="&#x177;" d="M285 563 l82 -93 l14 0 l-70 145 l-35 0 l-136 -145 l19 0 l126 93 ZM357 437 l-52 -50 q42 -19 71 -61 q28 -42 29 -98 q-1 -68 -30 -130 q-30 -62 -81 -116 l-113 391 q-7 28 -18 43 q-11 16 -39 16 q-44 -2 -76 -18 q-32 -16 -34 -18 l7 -10 q2 1 24 8 q21 6 38 7 q11 0 17 -7 q6 -7 11 -22 l131 -439 q-58 -47 -124 -80 q-67 -33 -135 -49 l46 -65 q68 44 228 175 q160 132 179 341 q2 54 -17 102 q-18 47 -62 80 l0 0 Z" /><glyph glyph-name="" unicode="ÿ" d="M210 508 q15 1 28 13 q13 12 17 30 q3 18 -7 31 q-10 12 -30 13 q-15 -1 -27 -13 q-12 -12 -16 -30 q-4 -18 6 -31 q9 -12 29 -13 l0 0 ZM348 508 q16 1 29 14 q12 12 16 28 q4 19 -6 32 q-10 12 -31 13 q-15 -1 -27 -13 q-12 -12 -16 -29 q-4 -19 6 -31 q9 -13 29 -14 l0 0 ZM357 437 l-52 -50 q42 -19 71 -61 q28 -42 29 -98 q-1 -68 -30 -130 q-30 -62 -81 -116 l-113 391 q-7 28 -18 43 q-11 16 -39 16 q-44 -2 -76 -18 q-32 -16 -34 -18 l7 -10 q2 1 24 8 q21 6 38 7 q11 0 17 -7 q6 -7 11 -22 l131 -439 q-58 -47 -124 -80 q-67 -33 -135 -49 l46 -65 q68 44 228 175 q160 132 179 341 q2 54 -17 102 q-18 47 -62 80 l0 0 Z" /><glyph glyph-name="" unicode="&#x1ef5;" d="M357 437 l-52 -50 q42 -19 71 -61 q28 -42 29 -98 q-1 -68 -30 -130 q-30 -62 -81 -116 l-113 391 q-7 28 -18 43 q-11 16 -39 16 q-44 -2 -76 -18 q-32 -16 -34 -18 l7 -10 q2 1 24 8 q21 6 38 7 q11 0 17 -7 q6 -7 11 -22 l131 -439 q-58 -47 -124 -80 q-67 -33 -135 -49 l46 -65 q68 44 228 175 q160 132 179 341 q2 54 -17 102 q-18 47 -62 80 l0 0 ZM-27 -306 q-18 -1 -33 -15 q-14 -14 -19 -34 q-5 -22 6 -36 q11 -15 35 -16 q17 1 33 15 q15 14 20 34 q5 22 -7 37 q-13 14 -35 15 l0 0 Z" /><glyph glyph-name="" unicode="&#x1ef3;" d="M284 480 l-19 176 l-74 0 l78 -176 l15 0 ZM357 437 l-52 -50 q42 -19 71 -61 q28 -42 29 -98 q-1 -68 -30 -130 q-30 -62 -81 -116 l-113 391 q-7 28 -18 43 q-11 16 -39 16 q-44 -2 -76 -18 q-32 -16 -34 -18 l7 -10 q2 1 24 8 q21 6 38 7 q11 0 17 -7 q6 -7 11 -22 l131 -439 q-58 -47 -124 -80 q-67 -33 -135 -49 l46 -65 q68 44 228 175 q160 132 179 341 q2 54 -17 102 q-18 47 -62 80 l0 0 Z" /><glyph glyph-name="" unicode="&#x1ef7;" d="M230 613 q27 -1 37 -19 q11 -18 10 -35 q-1 -28 -11 -45 q-11 -18 -17 -25 l4 -5 q16 6 42 34 q27 28 30 62 q0 29 -19 48 q-19 20 -55 21 q-42 -4 -64 -30 q-23 -26 -23 -30 l3 -5 q7 7 24 18 q18 10 39 11 l0 0 ZM357 437 l-52 -50 q42 -19 71 -61 q28 -42 29 -98 q-1 -68 -30 -130 q-30 -62 -81 -116 l-113 391 q-7 28 -18 43 q-11 16 -39 16 q-44 -2 -76 -18 q-32 -16 -34 -18 l7 -10 q2 1 24 8 q21 6 38 7 q11 0 17 -7 q6 -7 11 -22 l131 -439 q-58 -47 -124 -80 q-67 -33 -135 -49 l46 -65 q68 44 228 175 q160 132 179 341 q2 54 -17 102 q-18 47 -62 80 l0 0 Z" /><glyph glyph-name="" unicode="&#x1ef9;" d="M223 543 q23 -2 48 -18 q24 -16 56 -18 q25 2 41 28 q17 27 28 57 l-9 1 q0 -2 -14 -18 q-15 -16 -45 -18 q-25 2 -48 18 q-23 16 -56 18 q-26 -2 -41 -28 q-15 -27 -28 -57 l9 0 q0 2 15 18 q14 15 44 17 l0 0 ZM357 437 l-52 -50 q42 -19 71 -61 q28 -42 29 -98 q-1 -68 -30 -130 q-30 -62 -81 -116 l-113 391 q-7 28 -18 43 q-11 16 -39 16 q-44 -2 -76 -18 q-32 -16 -34 -18 l7 -10 q2 1 24 8 q21 6 38 7 q11 0 17 -7 q6 -7 11 -22 l131 -439 q-58 -47 -124 -80 q-67 -33 -135 -49 l46 -65 q68 44 228 175 q160 132 179 341 q2 54 -17 102 q-18 47 -62 80 l0 0 Z" /><glyph glyph-name="" unicode="z" d="M191 69 q-55 2 -98 -15 l297 367 l-320 0 l-23 -98 l11 0 q18 41 39 58 q21 17 69 16 q46 0 87 1 q41 0 44 0 l-323 -398 l75 0 q19 17 51 30 q32 12 77 12 q74 0 128 -55 q54 -55 47 -167 l77 0 q5 95 -53 168 q-59 74 -185 81 l0 0 Z" /><glyph glyph-name="" unicode="&#x17a;" d="M415 651 l-78 0 l-101 -176 l16 0 l163 176 ZM191 69 q-55 2 -98 -15 l297 367 l-320 0 l-23 -98 l11 0 q18 41 39 58 q21 17 69 16 q46 0 87 1 q41 0 44 0 l-323 -398 l75 0 q19 17 51 30 q32 12 77 12 q74 0 128 -55 q54 -55 47 -167 l77 0 q5 95 -53 168 q-59 74 -185 81 l0 0 Z" /><glyph glyph-name="" unicode="&#x17e;" d="M292 495 l136 145 l-14 0 l-130 -90 l-87 90 l-10 0 l70 -145 l35 0 ZM191 69 q-55 2 -98 -15 l297 367 l-320 0 l-23 -98 l11 0 q18 41 39 58 q21 17 69 16 q46 0 87 1 q41 0 44 0 l-323 -398 l75 0 q19 17 51 30 q32 12 77 12 q74 0 128 -55 q54 -55 47 -167 l77 0 q5 95 -53 168 q-59 74 -185 81 l0 0 Z" /><glyph glyph-name="" unicode="&#x17c;" d="M283 496 q18 1 33 15 q14 14 20 35 q5 21 -7 36 q-13 14 -35 15 q-18 -1 -32 -15 q-15 -14 -21 -34 q-4 -22 7 -36 q11 -15 35 -16 l0 0 ZM191 69 q-55 2 -98 -15 l297 367 l-320 0 l-23 -98 l11 0 q18 41 39 58 q21 17 69 16 q46 0 87 1 q41 0 44 0 l-323 -398 l75 0 q19 17 51 30 q32 12 77 12 q74 0 128 -55 q54 -55 47 -167 l77 0 q5 95 -53 168 q-59 74 -185 81 l0 0 Z" /><glyph glyph-name="" unicode="ª" d="M128 369 q41 1 70 21 q30 20 39 46 l0 -61 l119 0 l0 8 q-25 -1 -42 8 q-18 9 -19 38 l0 178 q-1 48 -35 71 q-34 22 -83 22 q-43 -2 -79 -12 q-35 -11 -37 -13 l37 -85 l11 0 q-4 28 5 55 q9 27 52 29 q38 0 54 -20 q16 -21 16 -62 l0 -32 q-90 -1 -139 -31 q-49 -31 -50 -84 q-1 -27 18 -51 q18 -23 63 -25 l0 0 ZM161 403 q-28 1 -40 15 q-12 14 -12 36 q0 38 31 60 q30 23 96 24 l0 -71 q-5 -22 -25 -42 q-21 -21 -50 -22 l0 0 Z" /><glyph glyph-name="" unicode="º" d="M267 369 q72 2 113 48 q41 46 42 117 q-1 71 -42 117 q-41 46 -113 48 q-72 -2 -114 -48 q-42 -46 -43 -117 q1 -71 43 -117 q42 -46 114 -48 l0 0 ZM267 387 q-54 2 -75 44 q-21 41 -20 103 q-1 62 20 103 q21 41 75 42 q51 -1 73 -42 q22 -41 21 -103 q1 -62 -21 -103 q-22 -42 -73 -44 l0 0 Z" /><glyph glyph-name="" unicode="&#x394;" d="M43 0 l628 0 l-277 700 l-74 0 l-277 -700 ZM133 27 l224 579 l224 -579 l-448 0 Z" /><glyph glyph-name="" unicode="&#x3a9;" d="M80 0 l275 0 l0 22 q-53 17 -125 95 q-72 77 -79 243 q1 137 75 230 q74 92 205 96 q131 -4 204 -96 q74 -93 75 -230 q-7 -166 -78 -243 q-72 -77 -125 -95 l0 -22 l275 0 l0 22 l-226 0 q88 41 162 126 q74 84 79 212 q-5 159 -111 253 q-105 95 -255 97 q-150 -2 -255 -97 q-106 -94 -111 -253 q5 -128 79 -212 q74 -85 162 -126 l-226 0 l0 -22 Z" /><glyph glyph-name="" unicode="&#x3bc;" d="M100 -254 l65 0 l0 296 q15 -23 42 -37 q27 -13 54 -13 q31 3 65 37 q34 34 42 56 l0 -90 l144 16 l0 15 q-34 0 -56 12 q-21 12 -22 42 l0 350 l-145 -16 l0 -14 q44 1 61 -10 q17 -11 16 -40 l0 -229 q-2 -20 -25 -59 q-24 -40 -80 -44 q-53 4 -73 42 q-20 37 -20 63 l0 307 l-146 -16 l0 -14 q44 1 61 -10 q18 -11 17 -40 l0 -604 Z" /><glyph glyph-name="" unicode="&#x3c0;" d="M477 -15 l0 8 q-1 0 -9 13 q-9 12 -25 42 q-21 48 -28 155 q-7 108 5 187 l86 0 l0 24 l-463 0 l0 -24 l85 0 q12 -91 7 -197 q-5 -107 -24 -192 l72 0 q15 86 20 193 q4 106 -7 196 l155 0 q-11 -72 -7 -177 q4 -104 29 -157 q26 -42 57 -57 q32 -15 47 -14 l0 0 Z" /><glyph glyph-name="" unicode="0" d="M200 -10 q113 5 185 110 q73 105 106 248 q35 144 7 251 q-28 107 -144 112 q-114 -5 -186 -110 q-72 -105 -105 -250 q-36 -147 -7 -252 q29 -104 144 -109 l0 0 ZM193 13 q-83 7 -79 110 q4 104 36 227 q25 124 73 228 q48 104 139 110 q82 -6 79 -109 q-3 -104 -35 -229 q-25 -122 -73 -226 q-49 -104 -140 -111 l0 0 Z" /><glyph glyph-name="" unicode="1" d="M-3 0 l352 0 l1 15 q-54 -2 -87 10 q-33 13 -22 67 l143 622 l-258 -121 l-4 -15 l170 58 l-124 -543 q-12 -49 -58 -64 q-45 -15 -113 -14 l0 -15 Z" /><glyph glyph-name="" unicode="2" d="M-18 1 l405 0 l37 149 l-16 0 q-26 -52 -50 -68 q-24 -16 -53 -14 l-230 0 q190 151 296 275 q105 123 127 219 q16 66 -16 107 q-33 41 -133 42 q-59 -2 -117 -17 q-59 -15 -63 -17 l-24 -154 l16 -1 q31 85 74 125 q43 39 105 39 q66 -3 78 -44 q12 -41 1 -83 q-10 -70 -97 -197 q-87 -128 -339 -346 l-1 -15 Z" /><glyph glyph-name="" unicode="3" d="M142 -3 q109 3 181 64 q71 62 92 148 q20 89 -17 142 q-37 53 -114 70 q33 10 89 46 q55 37 77 108 q14 63 -22 99 q-37 36 -118 37 q-52 -2 -101 -17 q-50 -16 -54 -18 l-22 -148 l15 -1 q31 93 72 127 q41 34 89 32 q42 -1 58 -31 q16 -30 5 -79 q-11 -56 -61 -106 q-50 -51 -166 -74 l-2 -32 q2 2 34 14 q31 11 70 13 q70 -3 87 -60 q16 -56 -1 -127 q-16 -72 -63 -126 q-48 -55 -135 -58 q-53 1 -77 43 q-23 41 -8 112 l-17 0 l-42 -145 q2 -2 47 -16 q44 -15 104 -17 l0 0 Z" /><glyph glyph-name="" unicode="4" d="M134 0 l296 0 l-1 15 q-49 -2 -71 12 q-23 14 -12 65 l23 97 l92 0 l6 23 l-93 0 l62 267 l-75 0 l-61 -267 l-233 0 l437 524 l-98 0 l-377 -528 l-3 -19 l268 0 l-21 -96 q-14 -52 -54 -66 q-40 -14 -86 -12 l1 -15 Z" /><glyph glyph-name="" unicode="5" d="M222 700 l-110 -286 q134 3 193 -48 q58 -52 34 -155 q-21 -86 -71 -138 q-50 -53 -123 -54 q-54 0 -88 41 q-35 41 -20 116 l-15 1 l-32 -153 q3 -2 53 -13 q50 -12 110 -14 q110 3 179 65 q69 62 88 147 q25 129 -60 183 q-84 55 -226 42 l112 204 l125 0 q25 2 41 -10 q16 -13 19 -71 l12 0 l36 143 l-257 0 Z" /><glyph glyph-name="" unicode="6" d="M200 -10 q94 3 160 59 q65 57 85 136 q14 65 -16 120 q-31 55 -114 58 q-57 -2 -95 -24 q-38 -21 -53 -35 l1 -18 q30 21 62 31 q31 9 60 9 q54 -2 69 -45 q15 -43 1 -103 q-13 -62 -54 -112 q-41 -50 -113 -53 q-66 0 -80 63 q-14 63 14 183 q43 173 152 292 q108 120 238 171 l-3 17 q-101 -24 -255 -141 q-154 -117 -218 -339 q-27 -126 18 -197 q45 -71 141 -72 l0 0 Z" /><glyph glyph-name="" unicode="7" d="M2 -8 l97 0 l427 700 l1 8 l-383 0 l-39 -170 l14 -1 q31 80 66 110 q35 30 94 30 l196 5 l-473 -682 Z" /><glyph glyph-name="" unicode="8" d="M196 -10 q93 0 169 46 q76 45 100 136 q16 83 -22 135 q-39 52 -104 90 q53 16 107 63 q53 47 69 104 q16 80 -29 115 q-44 34 -119 33 q-78 0 -143 -40 q-65 -39 -84 -112 q-13 -59 15 -101 q29 -42 90 -85 q-53 -12 -125 -61 q-72 -49 -97 -133 q-19 -87 27 -138 q46 -51 146 -52 l0 0 ZM321 407 q-47 33 -80 69 q-33 36 -22 92 q12 55 46 86 q34 31 96 32 q55 -1 74 -32 q20 -31 7 -86 q-14 -56 -48 -99 q-34 -43 -73 -62 l0 0 ZM201 15 q-66 2 -90 49 q-24 47 -9 116 q17 70 61 116 q43 47 103 65 q58 -40 97 -82 q38 -42 24 -110 q-18 -76 -65 -115 q-47 -39 -121 -39 l0 0 Z" /><glyph glyph-name="" unicode="9" d="M19 -43 q103 25 257 144 q154 119 217 340 q28 127 -17 199 q-45 71 -141 72 q-94 -3 -160 -59 q-65 -57 -85 -138 q-14 -63 17 -118 q30 -54 113 -58 q57 2 95 23 q38 22 52 35 l0 19 q-31 -22 -62 -31 q-31 -9 -60 -9 q-55 2 -69 45 q-15 43 0 103 q13 61 53 111 q41 50 113 53 q67 0 81 -63 q14 -62 -14 -181 q-45 -177 -154 -298 q-110 -122 -238 -173 l2 -16 Z" /><glyph glyph-name="" unicode="&#x2070;" d="M185 292 q60 3 106 65 q45 63 67 152 q21 90 0 154 q-21 63 -85 66 q-61 -3 -106 -66 q-46 -63 -68 -152 q-21 -92 1 -154 q21 -62 85 -65 l0 0 ZM177 312 q-41 3 -42 63 q-1 60 17 135 q17 75 49 136 q33 60 80 63 q42 -4 43 -64 q1 -60 -17 -135 q-17 -75 -50 -135 q-33 -60 -80 -63 l0 0 Z" /><glyph glyph-name="" unicode="¹" d="M58 300 l215 0 q1 3 2 8 q0 5 -2 7 q-32 -1 -51 6 q-19 6 -13 38 q12 54 48 206 q36 153 41 172 l-160 -71 l-3 -14 l101 34 q-7 -32 -35 -156 q-29 -124 -39 -169 q-9 -31 -37 -39 q-28 -8 -65 -8 q2 -3 0 -7 q-2 -5 -2 -7 l0 0 Z" /><glyph glyph-name="" unicode="²" d="M36 300 l246 0 l23 94 l-14 0 q-18 -35 -32 -42 q-14 -8 -30 -7 l-129 -1 q112 91 174 164 q61 72 74 127 q11 42 -10 67 q-21 26 -83 27 q-27 -1 -61 -8 q-35 -8 -38 -9 l-21 -97 l14 0 q20 50 44 72 q24 21 62 20 q38 -1 44 -24 q6 -23 -1 -49 q-5 -38 -57 -114 q-52 -75 -205 -208 l0 -12 Z" /><glyph glyph-name="" unicode="³" d="M331 644 q8 38 -15 61 q-23 23 -74 24 q-29 0 -55 -8 q-26 -8 -28 -9 l-22 -97 l13 0 q22 56 44 75 q22 18 52 17 q25 0 33 -17 q8 -17 1 -45 q-6 -33 -37 -63 q-30 -29 -101 -43 l1 -24 q3 2 23 9 q20 6 42 7 q40 -2 50 -34 q10 -33 -1 -75 q-9 -42 -38 -73 q-29 -31 -81 -33 q-31 0 -43 25 q-11 24 -1 66 l-16 0 l-22 -93 q1 -1 27 -9 q26 -8 62 -9 q66 2 109 40 q43 37 56 90 q11 53 -11 85 q-22 32 -65 43 q22 7 53 29 q32 22 44 61 l0 0 Z" /><glyph glyph-name="" unicode="&#x2074;" d="M135 300 l180 0 q2 3 2 8 q1 5 -1 7 q-27 -1 -41 6 q-15 7 -9 38 l11 52 l56 0 l6 21 l-56 -1 q9 37 21 91 q12 54 13 67 l-46 -4 l-36 -153 l-130 0 l257 313 l-62 0 l-228 -319 l-2 -15 l160 0 l-11 -51 q-8 -30 -31 -38 q-23 -8 -51 -8 q2 -3 0 -7 q-2 -5 -2 -7 l0 0 Z" /><glyph glyph-name="" unicode="&#x2075;" d="M144 295 q63 2 105 39 q41 37 54 88 q16 79 -33 114 q-48 34 -123 26 l67 120 l61 0 q16 1 25 -7 q8 -9 9 -45 l13 0 l22 93 l-147 0 l-67 -179 q71 3 103 -27 q33 -29 19 -91 q-12 -50 -41 -80 q-30 -30 -75 -31 q-31 0 -43 23 q-12 23 -1 69 l-15 0 l-22 -95 q1 -1 27 -8 q26 -8 62 -9 l0 0 Z" /><glyph glyph-name="" unicode="&#x2076;" d="M190 292 q56 2 95 36 q39 35 51 83 q9 39 -11 73 q-20 34 -71 36 q-35 -1 -57 -15 q-23 -14 -31 -22 l0 -18 q18 14 37 20 q20 6 40 6 q31 -1 40 -25 q8 -24 0 -57 q-9 -39 -34 -67 q-24 -29 -67 -30 q-38 0 -46 35 q-8 36 9 106 q27 107 92 177 q65 70 143 100 l-3 16 q-61 -14 -155 -84 q-93 -70 -131 -206 q-16 -77 12 -120 q27 -43 87 -44 l0 0 Z" /><glyph glyph-name="" unicode="&#x2077;" d="M71 276 l54 0 l266 438 l1 8 l-239 0 l-24 -102 l14 0 q22 54 43 69 q21 14 53 12 l111 0 l-279 -425 Z" /><glyph glyph-name="" unicode="&#x2078;" d="M243 569 q-19 22 -30 41 q-10 18 0 43 q10 25 28 37 q17 13 45 5 q25 -9 31 -29 q6 -20 -1 -46 q-12 -18 -33 -33 q-21 -16 -40 -18 l0 0 ZM203 351 q48 2 90 30 q43 27 57 78 q10 51 -13 79 q-22 28 -61 43 q9 11 21 27 q12 17 16 30 q5 29 -12 39 q-17 9 -40 2 q-40 -2 -79 -26 q-39 -25 -52 -72 q-9 -39 10 -65 q19 -26 62 -44 q-9 -7 -29 -23 q-20 -17 -28 -42 q-6 -28 10 -45 q16 -17 48 -11 l0 0 ZM184 313 q-38 1 -52 28 q-13 26 -4 67 q10 40 35 68 q25 28 59 38 l6 -4 q29 -19 50 -45 q21 -27 14 -64 q-19 -88 -108 -88 l0 0 Z" /><glyph glyph-name="" unicode="&#x2079;" d="M74 269 q61 14 154 86 q93 73 132 210 q16 76 -11 120 q-28 44 -88 45 q-55 -2 -94 -37 q-40 -35 -52 -85 q-8 -38 11 -71 q20 -34 71 -36 q35 1 58 15 q23 13 31 22 l-1 17 q-17 -14 -37 -20 q-20 -6 -40 -6 q-30 1 -39 25 q-8 24 0 60 q8 36 33 65 q24 29 68 31 q38 0 46 -37 q7 -36 -9 -106 q-27 -106 -93 -179 q-67 -72 -144 -103 l4 -16 Z" /><glyph glyph-name="" unicode="&#x2044;" d="M-159 -3 l39 0 l464 706 l-38 0 l-465 -706 Z" /><glyph glyph-name="" unicode="½" d="M58 300 l215 0 q1 3 2 8 q0 5 -2 7 q-32 -1 -51 6 q-19 6 -13 38 q12 54 48 206 q36 153 41 172 l-160 -71 l-3 -14 l101 34 q-7 -32 -35 -156 q-29 -124 -39 -169 q-9 -31 -37 -39 q-28 -8 -65 -8 q2 -3 0 -7 q-2 -5 -2 -7 l0 0 ZM136 -3 l39 0 l464 706 l-38 0 l-465 -706 ZM402 0 l246 0 l22 94 l-13 0 q-17 -34 -32 -42 q-15 -8 -31 -7 l-128 -1 q110 89 172 162 q63 73 76 129 q11 42 -10 67 q-21 26 -83 27 q-27 -1 -61 -8 q-34 -8 -37 -9 l-22 -97 l13 0 q20 50 45 72 q24 21 61 20 q38 -1 45 -23 q7 -22 -1 -50 q-6 -41 -59 -117 q-54 -76 -203 -205 l0 -12 Z" /><glyph glyph-name="" unicode="¼" d="M58 300 l215 0 q1 3 2 8 q0 5 -2 7 q-32 -1 -51 6 q-19 6 -13 38 q12 54 48 206 q36 153 41 172 l-160 -71 l-3 -14 l101 34 q-7 -32 -35 -156 q-29 -124 -39 -169 q-9 -31 -37 -39 q-28 -8 -65 -8 q2 -3 0 -7 q-2 -5 -2 -7 l0 0 ZM136 -3 l39 0 l464 706 l-38 0 l-465 -706 ZM501 0 l180 0 q0 2 2 8 q1 5 -1 7 q-28 -1 -42 6 q-14 7 -8 38 l12 52 l56 0 l5 21 l-56 -1 q22 93 28 122 q6 29 7 36 l-47 -4 l-35 -153 l-131 0 l258 313 l-63 0 l-228 -319 l-2 -15 l161 0 l-12 -51 q-8 -30 -31 -38 q-23 -8 -51 -8 q2 -3 1 -7 q-2 -5 -3 -7 l0 0 Z" /><glyph glyph-name="" unicode="¾" d="M310 426 q11 53 -11 85 q-22 32 -65 43 q22 7 53 29 q32 22 44 61 q8 38 -15 61 q-23 23 -74 24 q-29 0 -55 -8 q-26 -8 -28 -9 l-22 -97 l13 0 q22 56 44 75 q22 18 52 17 q25 0 33 -17 q8 -17 1 -45 q-6 -33 -37 -63 q-30 -29 -101 -43 l1 -24 q3 2 23 9 q20 6 42 7 q40 -2 50 -34 q10 -33 -1 -75 q-9 -42 -38 -73 q-29 -31 -81 -33 q-31 0 -43 25 q-11 24 -1 66 l-16 0 l-22 -93 q1 -1 27 -9 q26 -8 62 -9 q66 2 109 40 q43 37 56 90 l0 0 ZM612 703 l-465 -706 l39 0 l464 706 l-38 0 ZM695 289 l-47 -4 l-35 -153 l-131 0 l258 313 l-63 0 l-228 -319 l-2 -15 l161 0 l-12 -51 q-8 -30 -31 -38 q-23 -8 -51 -8 q2 -3 1 -7 q-2 -5 -3 -7 l180 0 q0 2 2 8 q1 5 -1 7 q-28 -1 -42 6 q-14 7 -8 38 l12 52 l56 0 l5 21 l-56 -1 q22 93 28 122 q6 29 7 36 l0 0 Z" /><glyph glyph-name="" unicode="&#x215b;" d="M58 300 l215 0 q1 3 2 8 q0 5 -2 7 q-32 -1 -51 6 q-19 6 -13 38 q12 54 48 206 q36 153 41 172 l-160 -71 l-3 -14 l101 34 q-7 -32 -35 -156 q-29 -124 -39 -169 q-9 -31 -37 -39 q-28 -8 -65 -8 q2 -3 0 -7 q-2 -5 -2 -7 l0 0 ZM136 -3 l39 0 l464 706 l-38 0 l-465 -706 ZM609 269 q-19 22 -30 41 q-10 18 0 43 q10 25 28 37 q17 13 45 5 q25 -9 31 -29 q6 -20 -1 -46 q-12 -18 -33 -33 q-21 -16 -40 -18 l0 0 ZM569 51 q48 2 90 30 q43 27 57 78 q10 51 -13 79 q-22 28 -62 43 q9 11 21 27 q13 17 17 30 q5 29 -12 39 q-17 9 -40 2 q-40 -2 -79 -26 q-40 -25 -53 -72 q-9 -39 11 -65 q19 -26 62 -44 q-9 -7 -29 -23 q-20 -17 -28 -42 q-6 -28 10 -45 q16 -17 48 -11 l0 0 ZM550 13 q-39 1 -52 28 q-13 26 -4 67 q10 40 35 68 q25 28 59 38 q1 -1 2 -1 q0 -1 3 -3 q29 -19 51 -45 q21 -27 14 -64 q-10 -44 -37 -66 q-27 -22 -71 -22 l0 0 Z" /><glyph glyph-name="" unicode="&#x215c;" d="M310 426 q11 53 -11 85 q-22 32 -65 43 q22 7 53 29 q32 22 44 61 q8 38 -15 61 q-23 23 -74 24 q-29 0 -55 -8 q-26 -8 -28 -9 l-22 -97 l13 0 q22 56 44 75 q22 18 52 17 q25 0 33 -17 q8 -17 1 -45 q-6 -33 -37 -63 q-30 -29 -101 -43 l1 -24 q3 2 23 9 q20 6 42 7 q40 -2 50 -34 q10 -33 -1 -75 q-9 -42 -38 -73 q-29 -31 -81 -33 q-31 0 -43 25 q-11 24 -1 66 l-16 0 l-22 -93 q1 -1 27 -9 q26 -8 62 -9 q66 2 109 40 q43 37 56 90 l0 0 ZM612 703 l-465 -706 l39 0 l464 706 l-38 0 ZM690 338 q-4 -13 -17 -30 q-12 -16 -21 -27 q13 8 24 19 q10 10 17 20 q7 26 1 46 q-6 20 -31 29 q-22 6 -37 0 q-16 -7 -26 -23 q10 3 19 5 q10 2 19 2 q23 7 40 -2 q17 -10 12 -39 l0 0 ZM652 281 q-8 -5 -16 -9 q-8 -3 -16 -3 q-19 22 -30 41 q-10 18 0 43 q2 5 5 10 q2 5 5 9 q-32 -9 -58 -32 q-27 -23 -36 -59 q-7 -32 4 -55 q12 -23 40 -39 q11 9 23 16 q13 7 26 11 q1 -1 2 -1 q0 -1 3 -3 q29 -19 51 -45 q21 -27 14 -64 q-2 -7 -4 -14 q-2 -6 -4 -12 q24 14 41 35 q18 21 25 49 q10 51 -13 79 q-22 28 -62 43 l0 0 ZM522 107 q8 25 28 42 q20 16 29 23 q-16 8 -29 15 q-16 -15 -28 -35 q-12 -20 -17 -44 q-9 -41 4 -67 q13 -27 52 -28 q37 0 62 15 q25 16 38 47 q-19 -11 -40 -17 q-21 -6 -41 -7 q-32 -6 -48 11 q-16 17 -10 45 l0 0 Z" /><glyph glyph-name="" unicode="&#x215d;" d="M144 295 q63 2 105 39 q41 37 54 88 q16 79 -33 114 q-48 34 -123 26 l67 120 l61 0 q16 1 25 -7 q8 -9 9 -45 l13 0 l22 93 l-147 0 l-67 -179 q71 3 103 -27 q33 -29 19 -91 q-12 -50 -41 -80 q-30 -30 -75 -31 q-31 0 -43 23 q-12 23 -1 69 l-15 0 l-22 -95 q1 -1 27 -8 q26 -8 62 -9 l0 0 ZM151 -3 l39 0 l464 706 l-38 0 l-465 -706 ZM624 269 q-19 22 -30 41 q-10 18 0 43 q10 25 28 37 q17 13 45 5 q25 -9 31 -29 q6 -20 -1 -46 q-12 -18 -33 -33 q-21 -16 -40 -18 l0 0 ZM584 51 q48 2 90 30 q43 27 57 78 q10 51 -13 79 q-22 28 -62 43 q9 11 21 27 q13 17 17 30 q5 29 -12 39 q-17 9 -40 2 q-40 -2 -79 -26 q-40 -25 -53 -72 q-9 -39 11 -65 q19 -26 62 -44 q-9 -7 -29 -23 q-20 -17 -28 -42 q-6 -28 10 -45 q16 -17 48 -11 l0 0 ZM565 13 q-39 1 -52 28 q-13 26 -4 67 q10 40 35 68 q25 28 59 38 q1 -1 2 -1 q0 -1 3 -3 q29 -19 51 -45 q21 -27 14 -64 q-10 -44 -37 -66 q-27 -22 -71 -22 l0 0 Z" /><glyph glyph-name="" unicode="&#x215e;" d="M71 276 l54 0 l266 438 l1 8 l-239 0 l-24 -102 l14 0 q22 54 43 69 q21 14 53 12 l111 0 l-279 -425 ZM154 -3 l39 0 l464 706 l-38 0 l-465 -706 ZM627 269 q-19 22 -30 41 q-10 18 0 43 q10 25 28 37 q17 13 45 5 q25 -9 31 -29 q6 -20 -1 -46 q-12 -18 -33 -33 q-21 -16 -40 -18 l0 0 ZM587 51 q48 2 90 30 q43 27 57 78 q10 51 -13 79 q-22 28 -62 43 q9 11 21 27 q13 17 17 30 q5 29 -12 39 q-17 9 -40 2 q-40 -2 -79 -26 q-40 -25 -53 -72 q-9 -39 11 -65 q19 -26 62 -44 q-9 -7 -29 -23 q-20 -17 -28 -42 q-6 -28 10 -45 q16 -17 48 -11 l0 0 ZM568 13 q-39 1 -52 28 q-13 26 -4 67 q10 40 35 68 q25 28 59 38 q1 -1 2 -1 q0 -1 3 -3 q29 -19 51 -45 q21 -27 14 -64 q-10 -44 -37 -66 q-27 -22 -71 -22 l0 0 Z" /><glyph glyph-name="" unicode="." d="M50 -9 q19 1 36 16 q16 15 22 37 q5 22 -8 38 q-13 16 -38 17 q-19 -1 -35 -16 q-16 -15 -23 -37 q-5 -24 9 -39 q13 -15 37 -16 l0 0 Z" /><glyph glyph-name="" unicode="," d="M-25 -113 q49 18 85 54 q37 37 51 90 q7 30 -3 51 q-11 21 -42 22 q-24 -1 -39 -16 q-15 -15 -21 -37 q-5 -25 7 -40 q13 -16 34 -17 l16 0 q-8 -25 -29 -49 q-22 -24 -63 -46 l4 -12 Z" /><glyph glyph-name="" unicode=":" d="M120 299 q19 1 36 15 q17 15 23 38 q5 22 -9 38 q-13 15 -37 16 q-19 0 -35 -15 q-17 -15 -23 -38 q-5 -23 8 -38 q13 -15 37 -16 l0 0 ZM51 -9 q19 1 36 16 q16 15 22 37 q5 22 -8 38 q-13 16 -38 17 q-19 -1 -36 -16 q-16 -15 -22 -37 q-5 -24 8 -39 q13 -15 38 -16 l0 0 Z" /><glyph glyph-name="" unicode=";" d="M123 299 q19 1 36 15 q16 15 22 38 q5 22 -8 38 q-14 15 -37 16 q-19 -1 -36 -16 q-17 -15 -23 -37 q-5 -23 8 -38 q13 -15 38 -16 l0 0 ZM-31 -119 q49 18 86 54 q36 37 50 90 q7 30 -3 51 q-10 21 -42 22 q-24 -1 -39 -15 q-15 -15 -20 -37 q-6 -25 7 -41 q13 -16 33 -17 l16 0 q-8 -25 -29 -49 q-22 -24 -63 -46 l4 -12 Z" /><glyph glyph-name="" unicode="&#x2026;" d="M64 -9 q19 1 34 15 q16 14 21 36 q5 20 -7 35 q-13 15 -37 16 q-18 -1 -33 -15 q-15 -14 -21 -36 q-4 -20 8 -35 q11 -15 35 -16 l0 0 ZM260 -9 q19 1 35 15 q15 15 20 35 q5 22 -8 37 q-13 14 -36 15 q-17 -1 -32 -15 q-16 -14 -21 -33 q-5 -22 7 -38 q11 -15 35 -16 l0 0 ZM458 -9 q18 1 34 15 q16 15 21 35 q5 22 -8 37 q-12 14 -35 15 q-19 -1 -34 -15 q-15 -14 -21 -35 q-5 -23 8 -37 q13 -15 35 -15 l0 0 Z" /><glyph glyph-name="" unicode="!" d="M99 184 l27 0 l115 401 l29 115 l-78 0 l-23 -115 l-70 -401 ZM73 -12 q18 1 34 15 q15 15 21 37 q4 20 -8 35 q-13 15 -36 16 q-19 -1 -34 -15 q-15 -15 -20 -35 q-5 -22 8 -37 q12 -15 35 -16 l0 0 Z" /><glyph glyph-name="" unicode="¡" d="M152 331 q18 1 33 15 q15 14 21 36 q4 22 -8 37 q-12 14 -35 15 q-17 0 -33 -15 q-16 -14 -22 -37 q-4 -20 9 -35 q12 -15 35 -16 l0 0 ZM-35 -278 l77 0 l25 115 l70 401 l-27 0 l-115 -401 l-30 -115 Z" /><glyph glyph-name="" unicode="?" d="M159 182 l16 6 q-15 23 -21 71 q-7 47 73 120 q42 34 84 78 q42 43 55 89 q17 75 -10 119 q-26 45 -96 46 q-32 -2 -54 -13 q-22 -11 -23 -13 l-12 -64 q2 3 33 20 q31 18 67 20 q30 0 44 -18 q13 -18 5 -55 q-11 -53 -48 -85 q-36 -33 -114 -98 q-83 -88 -47 -154 q36 -66 48 -69 l0 0 ZM98 -8 q18 0 34 15 q16 14 21 37 q4 20 -8 34 q-13 15 -36 16 q-18 -1 -33 -15 q-15 -14 -20 -35 q-5 -22 8 -37 q12 -14 34 -15 l0 0 Z" /><glyph glyph-name="" unicode="¿" d="M230 330 q19 1 34 15 q15 14 20 36 q5 21 -8 36 q-12 14 -35 15 q-17 0 -33 -15 q-16 -14 -21 -36 q-5 -21 8 -36 q12 -14 35 -15 l0 0 ZM80 -288 q31 2 53 14 q22 11 23 13 l13 63 q-2 -2 -33 -20 q-31 -17 -67 -20 q-29 0 -43 17 q-14 18 -6 58 q14 58 54 93 q41 35 111 93 q85 88 46 151 q-38 64 -51 67 l-15 -5 q16 -26 23 -72 q7 -46 -78 -120 q-42 -32 -81 -71 q-40 -39 -54 -90 q-17 -74 9 -121 q26 -48 96 -50 l0 0 Z" /><glyph glyph-name="" unicode="·" d="M109 283 q18 1 33 14 q15 14 21 35 q5 23 -7 38 q-13 15 -36 15 q-18 -1 -33 -15 q-16 -14 -21 -35 q-5 -22 7 -36 q12 -15 36 -16 l0 0 Z" /><glyph glyph-name="" unicode="&#x2022;" d="M155 226 q50 1 91 38 q41 37 55 94 q12 56 -15 93 q-28 38 -82 39 q-52 -2 -92 -39 q-41 -38 -54 -92 q-12 -57 15 -94 q27 -38 82 -39 l0 0 Z" /><glyph glyph-name="" unicode="*" d="M231 330 q6 0 18 8 q3 4 4 9 q0 5 1 10 q3 16 9 71 q6 55 10 79 q15 -15 46 -51 q31 -36 41 -44 q1 -4 5 -5 q5 -2 11 -2 q4 0 9 4 q5 4 10 9 q3 6 4 11 q0 6 0 11 q0 5 -3 9 q-3 3 -9 7 q-9 5 -50 28 q-41 23 -56 34 q24 9 78 28 q53 18 67 24 q3 2 7 5 q3 4 7 8 q1 7 1 13 q0 6 -1 10 q-1 6 -6 11 q-5 5 -13 5 q0 0 -5 -1 q-5 -2 -11 -4 q-15 -11 -63 -43 q-49 -32 -68 -45 l56 149 q1 6 -1 10 q-1 4 -4 8 q0 5 -6 8 q-6 2 -14 2 q-3 0 -8 -2 q-4 -2 -9 -6 q-3 -4 -4 -9 q-1 -5 -1 -10 q-2 -16 -8 -71 q-7 -54 -12 -78 q-14 15 -47 52 q-33 36 -38 43 q-2 4 -6 5 q-4 1 -11 1 q-3 0 -9 -4 q-5 -3 -9 -8 q-4 -5 -5 -11 q-1 -6 -1 -12 q0 -5 4 -9 q4 -4 10 -6 q9 -7 50 -29 q40 -23 56 -33 q-26 -9 -80 -28 q-53 -20 -66 -25 q-4 -2 -8 -5 q-3 -4 -6 -8 q-2 -7 -1 -12 q0 -6 1 -10 q2 -7 7 -11 q5 -5 12 -5 q1 0 5 1 q4 1 8 3 l132 89 q-21 -55 -35 -97 q-14 -41 -19 -52 q-1 -6 1 -11 q1 -5 3 -9 q2 -4 7 -7 q6 -2 13 -2 l0 0 Z" /><glyph glyph-name="" unicode="#" d="M-24 0 l58 0 l112 252 l149 0 l-112 -252 l57 0 l112 252 l104 0 l6 28 l-98 0 l72 160 l90 0 l7 28 l-85 0 l103 232 l-57 0 l-103 -232 l-149 0 l104 232 l-59 0 l-103 -232 l-83 0 l-7 -28 l78 0 l-72 -160 l-70 0 l-6 -28 l64 0 l-112 -252 ZM159 280 l71 160 l149 0 l-72 -160 l-148 0 Z" /><glyph glyph-name="" unicode="/" d="M-61 -50 l39 0 l349 790 l-40 0 l-348 -790 Z" /><glyph glyph-name="" unicode="\" d="M113 -50 l37 0 l14 790 l-36 0 l-15 -790 Z" /><glyph glyph-name="" unicode="(" d="M147 298 q56 213 132 317 q75 103 80 103 l-3 9 q-13 -2 -120 -111 q-107 -109 -166 -315 q-36 -210 16 -328 q52 -118 63 -120 l14 7 q-8 0 -33 111 q-25 111 17 327 l0 0 Z" /><glyph glyph-name="" unicode=")" d="M-51 -147 q11 2 120 120 q109 117 168 326 q36 209 -18 318 q-55 109 -66 110 l-14 -9 q5 1 34 -102 q28 -103 -13 -318 q-57 -216 -137 -327 q-80 -111 -88 -111 l14 -7 Z" /><glyph glyph-name="" unicode="{" d="M124 -180 l17 0 l2 17 q-33 14 -31 40 q2 25 8 41 q11 43 43 166 q31 123 35 138 q8 33 -9 52 q-16 18 -39 21 q30 3 52 21 q22 18 29 51 l54 271 q2 17 14 43 q13 26 54 41 l0 17 l-24 0 q-34 0 -66 -22 q-32 -22 -41 -62 q-11 -56 -31 -157 q-21 -102 -26 -128 q-5 -24 -21 -38 q-17 -14 -52 -23 q-8 -3 -9 -4 q-1 -2 -1 -2 l-7 -17 q0 0 5 0 q6 -1 17 -4 q22 -6 31 -21 q8 -15 0 -46 q-9 -35 -39 -153 q-30 -119 -40 -157 q-9 -39 15 -62 q24 -22 60 -23 l0 0 Z" /><glyph glyph-name="" unicode="}" d="M-31 -180 l24 0 q36 1 67 23 q32 23 40 60 q9 45 33 162 q23 116 29 146 q7 32 26 48 q18 16 49 23 q9 2 10 3 q1 1 1 1 l1 18 q0 0 -2 0 q-3 0 -13 4 q-27 9 -34 23 q-7 14 0 38 q6 26 34 132 q27 106 39 151 q9 42 -15 65 q-25 22 -60 22 l-17 0 l-1 -16 q32 -15 30 -41 q-1 -26 -7 -40 q-17 -64 -37 -140 q-21 -76 -35 -134 q-8 -34 9 -51 q16 -18 39 -22 q-30 -4 -52 -21 q-22 -18 -28 -51 q-11 -60 -29 -146 q-19 -86 -33 -158 q-1 -15 -14 -41 q-13 -26 -53 -41 l-1 -17 Z" /><glyph glyph-name="" unicode="[" d="M-13 -180 l158 0 l5 19 l-88 18 l195 846 l96 18 l5 19 l-158 0 l-213 -920 Z" /><glyph glyph-name="" unicode="]" d="M-76 -180 l158 0 l213 920 l-158 0 l-5 -19 l88 -18 l-195 -846 l-96 -18 l-5 -19 Z" /><glyph glyph-name="" unicode="-" d="M35 248 l219 0 l5 21 l-219 0 l-5 -21 Z" /><glyph glyph-name="" unicode="­" d="M35 248 l219 0 l5 21 l-219 0 l-5 -21 Z" /><glyph glyph-name="" unicode="&#x2013;" d="M19 248 l327 0 l5 21 l-327 0 l-5 -21 Z" /><glyph glyph-name="" unicode="&#x2014;" d="M19 248 l471 0 l5 21 l-471 0 l-5 -21 Z" /><glyph glyph-name="" unicode="_" d="M-49 -48 l327 0 l5 21 l-327 0 l-5 -21 Z" /><glyph glyph-name="" unicode="&#x201a;" d="M-25 -113 q49 18 85 54 q37 37 51 90 q7 30 -3 51 q-11 21 -42 22 q-24 -1 -39 -16 q-15 -15 -21 -37 q-5 -25 7 -40 q13 -16 34 -17 l16 0 q-8 -25 -29 -49 q-22 -24 -63 -46 l4 -12 Z" /><glyph glyph-name="" unicode="&#x201e;" d="M-29 -113 q49 18 86 54 q36 37 50 90 q8 30 -3 51 q-10 21 -42 22 q-23 -1 -38 -16 q-16 -15 -21 -37 q-5 -25 7 -40 q13 -16 34 -17 l15 0 q-8 -25 -29 -49 q-22 -24 -63 -46 l4 -12 ZM113 -113 q49 18 86 54 q36 37 50 90 q7 30 -3 51 q-10 21 -42 22 q-24 -1 -39 -16 q-15 -15 -20 -37 q-5 -25 7 -40 q13 -16 33 -17 l16 0 q-8 -25 -29 -49 q-22 -24 -63 -46 l4 -12 Z" /><glyph glyph-name="" unicode="&#x201c;" d="M258 713 q-50 -17 -86 -54 q-36 -37 -50 -90 q-8 -29 3 -51 q10 -21 41 -22 q24 1 39 16 q16 15 21 37 q5 25 -7 41 q-13 16 -34 17 q-6 0 -15 -1 q8 25 30 49 q21 24 62 46 l-4 12 ZM399 713 q-49 -17 -85 -54 q-36 -37 -50 -90 q-8 -29 3 -51 q10 -21 41 -22 q24 1 39 16 q16 15 21 37 q5 25 -7 41 q-13 16 -34 17 q-6 0 -15 -1 q7 25 29 49 q21 24 63 46 l-5 12 Z" /><glyph glyph-name="" unicode="&#x201d;" d="M112 493 q49 18 85 54 q37 37 51 90 q7 30 -3 51 q-11 21 -42 22 q-24 -1 -39 -15 q-15 -15 -21 -37 q-5 -25 7 -41 q13 -16 34 -17 l16 0 q-8 -25 -30 -49 q-21 -24 -63 -46 l5 -12 ZM254 493 q49 18 85 54 q37 37 51 90 q7 30 -3 51 q-11 21 -42 22 q-24 -1 -39 -15 q-15 -15 -21 -37 q-5 -25 7 -41 q13 -16 34 -17 l16 0 q-8 -25 -30 -49 q-21 -24 -63 -46 l5 -12 Z" /><glyph glyph-name="" unicode="&#x2018;" d="M258 713 q-50 -17 -86 -54 q-36 -37 -50 -90 q-8 -29 3 -51 q10 -21 41 -22 q24 1 39 16 q16 15 21 37 q5 25 -7 41 q-13 16 -34 17 q-6 0 -15 -1 q8 25 30 49 q21 24 62 46 l-4 12 Z" /><glyph glyph-name="" unicode="&#x2019;" d="M112 493 q49 18 85 54 q37 37 51 90 q7 30 -3 51 q-11 21 -42 22 q-24 -1 -39 -15 q-15 -15 -21 -37 q-5 -25 7 -41 q13 -16 34 -17 l16 0 q-8 -25 -30 -49 q-21 -24 -63 -46 l5 -12 Z" /><glyph glyph-name="" unicode="«" d="M116 20 l12 5 l-35 199 l124 183 l-14 5 l-167 -188 l80 -204 ZM236 20 l12 5 l-35 199 l124 183 l-14 5 l-167 -188 l80 -204 Z" /><glyph glyph-name="" unicode="»" d="M3 22 l171 199 l-82 192 l-11 -4 l36 -187 l-127 -195 l13 -5 ZM123 21 l171 200 l-82 192 l-11 -5 l35 -187 l-126 -195 l13 -5 Z" /><glyph glyph-name="" unicode="&#x2039;" d="M117 20 l11 5 l-35 199 l124 183 l-13 5 l-168 -188 l81 -204 Z" /><glyph glyph-name="" unicode="&#x203a;" d="M3 21 l179 198 l-89 194 l-12 -5 l44 -189 l-135 -193 l13 -5 Z" /><glyph glyph-name="" unicode="&quot;" d="M112 493 q49 18 85 54 q37 37 51 90 q7 30 -3 51 q-11 21 -42 22 q-24 -1 -39 -15 q-15 -15 -21 -37 q-5 -25 7 -41 q13 -16 34 -17 l16 0 q-8 -25 -30 -49 q-21 -24 -63 -46 l5 -12 ZM254 493 q49 18 85 54 q37 37 51 90 q7 30 -3 51 q-11 21 -42 22 q-24 -1 -39 -15 q-15 -15 -21 -37 q-5 -25 7 -41 q13 -16 34 -17 l16 0 q-8 -25 -30 -49 q-21 -24 -63 -46 l5 -12 Z" /><glyph glyph-name="" unicode="&#39;" d="M112 493 q49 18 85 54 q37 37 51 90 q7 30 -3 51 q-11 21 -42 22 q-24 -1 -39 -15 q-15 -15 -21 -37 q-5 -25 7 -41 q13 -16 34 -17 l16 0 q-8 -25 -30 -49 q-21 -24 -63 -46 l5 -12 Z" /><glyph glyph-name="" unicode="&#x2009;" d="" /><glyph glyph-name="" unicode="¢" d="M146 0 l34 0 l22 79 q28 2 55 9 q26 6 28 7 l24 102 l-9 1 q-14 -36 -43 -67 q-29 -32 -73 -34 q-50 2 -64 49 q-14 47 4 120 q18 75 57 123 q38 47 94 49 q37 -2 49 -33 q12 -31 10 -66 l7 -1 l21 102 q-2 1 -27 7 q-25 6 -53 9 l21 76 l-34 0 l-20 -78 q-69 -8 -120 -59 q-52 -51 -71 -126 q-16 -74 14 -127 q30 -53 96 -62 l-22 -80 Z" /><glyph glyph-name="" unicode="¤" d="M427 474 l-18 22 l-65 -58 l2 -2 q-17 15 -39 24 q-22 8 -49 8 q-23 0 -45 -7 q-23 -7 -43 -20 l-40 55 l-25 -22 l39 -53 q-25 -22 -42 -51 q-17 -29 -25 -62 q-7 -32 -3 -60 q4 -28 19 -49 l-64 -57 l18 -22 l64 58 q16 -14 38 -22 q22 -8 48 -8 q23 0 46 7 q23 7 43 21 l40 -56 l24 22 l-39 53 q25 22 42 50 q17 28 25 60 q7 33 3 62 q-5 28 -19 50 l65 57 ZM318 309 q-13 -55 -47 -96 q-35 -40 -81 -42 q-41 2 -53 42 q-11 41 1 95 q13 54 47 94 q34 40 80 42 q41 -2 53 -41 q12 -40 0 -94 l0 0 Z" /><glyph glyph-name="" unicode="$" d="M372 710 l12 53 l-35 0 l-13 -54 q-92 -12 -139 -59 q-48 -47 -57 -93 q-10 -38 0 -77 q10 -40 54 -87 q25 -26 37 -39 q13 -13 19 -19 l-74 -320 q-74 -3 -102 35 q-29 37 -11 155 l-14 1 l-40 -185 q3 -2 52 -15 q50 -13 109 -16 l-16 -71 l35 0 l17 72 q73 8 131 52 q58 44 79 123 q16 68 -2 109 q-18 41 -62 82 l-50 50 l64 278 q51 -2 68 -39 q18 -36 14 -117 l12 0 l33 157 q-3 1 -41 11 q-39 10 -80 13 l0 0 ZM266 444 q-43 42 -56 71 q-13 30 -4 64 q9 37 40 67 q30 29 85 37 l-57 -247 l-8 8 ZM290 295 q32 -28 51 -65 q18 -37 7 -92 q-10 -42 -45 -76 q-34 -34 -91 -44 l67 288 l11 -11 Z" /><glyph glyph-name="" unicode="&#x20ac;" d="M330 -12 q48 1 85 12 q38 10 40 11 l26 115 l-9 1 q-32 -75 -73 -96 q-41 -21 -81 -19 q-84 6 -102 89 q-18 83 0 184 l203 1 l14 25 l-211 -1 q0 6 2 17 q2 10 4 20 q1 6 5 19 q3 12 7 25 l208 1 l15 25 l-215 -1 q29 99 88 181 q59 81 149 87 q39 1 57 -25 q18 -26 9 -96 l10 0 l46 123 q-1 1 -36 12 q-36 10 -88 11 q-113 -4 -196 -89 q-83 -84 -126 -203 l-65 0 l-6 -25 l60 0 q-2 -10 -5 -21 q-2 -11 -5 -22 q-4 -17 -7 -38 l-61 0 l-6 -25 l63 0 q-15 -122 34 -208 q49 -86 167 -90 l0 0 Z" /><glyph glyph-name="" unicode="&#x192;" d="M518 714 q-56 -4 -121 -68 q-65 -64 -94 -142 q-11 -34 -21 -61 q-9 -28 -17 -50 l-114 0 l-5 -22 l112 0 q-26 -77 -35 -105 q-9 -29 -23 -72 l-62 -189 q-15 -44 -44 -64 q-29 -19 -68 -19 q-36 3 -50 25 q-15 21 -15 24 l-22 -71 q0 -4 19 -15 q18 -11 48 -12 q57 4 123 68 q65 65 93 142 q14 50 40 127 q26 77 55 161 l139 0 l5 22 l-136 0 q19 55 35 103 q17 49 28 85 q15 46 45 65 q29 20 66 19 q36 -3 51 -24 q15 -22 15 -25 l21 71 q0 4 -19 15 q-18 11 -49 12 l0 0 Z" /><glyph glyph-name="" unicode="£" d="M423 709 q-116 -7 -170 -96 q-55 -89 -77 -200 q-2 -10 -5 -21 l-98 0 l-6 -22 l99 0 q-19 -86 -42 -164 q-23 -77 -59 -144 l-5 0 q-29 -1 -45 -17 q-17 -15 -22 -33 q-2 -15 3 -27 q4 -12 5 -13 l31 0 q5 5 11 14 q7 9 15 20 q9 3 22 4 q22 1 73 -4 q51 -5 107 -6 l130 0 l43 201 q-1 0 -8 0 q-7 0 -9 1 q-32 -97 -65 -139 q-34 -41 -99 -40 q-50 1 -88 13 q-39 13 -71 22 q37 56 79 137 q41 80 71 175 l147 0 l9 22 l-149 0 q3 11 6 22 q3 10 5 21 q24 118 55 184 q31 66 109 67 q40 1 58 -26 q17 -27 6 -98 l14 0 l43 124 q-2 2 -40 12 q-37 10 -83 11 l0 0 Z" /><glyph glyph-name="" unicode="¥" d="M554 700 l0 -15 l29 0 q80 0 18 -80 q-62 -81 -204 -246 q-31 84 -58 156 q-27 71 -40 107 q-14 41 10 53 q24 11 70 10 l35 0 l0 15 l-320 0 l0 -15 q53 2 77 -7 q24 -9 42 -51 q13 -30 49 -123 q36 -94 68 -179 l-5 -20 l-181 0 l-6 -24 l182 0 l-8 -32 l-181 0 l-6 -24 l181 0 l-32 -137 q-13 -48 -49 -62 q-37 -14 -87 -12 l-1 -14 l307 0 l1 14 q-50 -2 -79 10 q-29 12 -18 63 l32 138 l165 0 l6 24 l-165 0 l8 32 l165 0 l5 24 l-165 0 l6 25 q149 184 232 270 q83 86 163 85 l0 15 l-246 0 Z" /><glyph glyph-name="" unicode="+" d="M196 0 l33 0 l59 257 l215 0 l8 31 l-216 0 l59 256 l-33 0 l-58 -256 l-216 0 l-7 -31 l215 0 l-59 -257 Z" /><glyph glyph-name="" unicode="&#x2212;" d="M40 257 l401 0 l6 31 l-400 0 l-7 -31 Z" /><glyph glyph-name="" unicode="×" d="M84 71 l181 173 l101 -173 l26 19 l-103 176 l183 176 l-20 20 l-182 -174 l-102 174 l-26 -20 l103 -176 l-183 -176 l22 -19 Z" /><glyph glyph-name="" unicode="÷" d="M308 383 q12 0 24 11 q11 11 15 28 q4 18 -5 30 q-10 12 -29 12 q-14 0 -24 -12 q-11 -11 -15 -28 q-4 -18 6 -29 q10 -12 28 -12 l0 0 ZM40 257 l463 0 l8 31 l-464 0 l-7 -31 ZM236 71 q13 0 25 12 q11 11 15 28 q3 18 -7 29 q-10 12 -28 12 q-13 0 -24 -12 q-12 -11 -16 -28 q-3 -17 7 -29 q10 -11 28 -12 l0 0 Z" /><glyph glyph-name="" unicode="=" d="M47 306 l423 0 l7 28 l-422 0 l-8 -28 ZM31 206 l422 0 l8 27 l-423 0 l-7 -27 Z" /><glyph glyph-name="" unicode="&#x2260;" d="M470 306 l7 28 l-167 0 l82 184 l-34 0 l-82 -184 l-221 0 l-8 -28 l217 0 l-33 -73 l-193 0 l-7 -27 l188 0 l-105 -236 l34 0 l105 236 l200 0 l8 27 l-196 0 l33 73 l172 0 Z" /><glyph glyph-name="" unicode="&gt;" d="M-19 -1 l478 270 l-354 270 l-6 -30 l315 -240 l-427 -240 l-6 -30 Z" /><glyph glyph-name="" unicode="&lt;" d="M395 -1 l6 30 l-315 240 l426 240 l7 30 l-478 -270 l354 -270 Z" /><glyph glyph-name="" unicode="&#x2265;" d="M6 109 l464 230 l-363 210 l-5 -28 l316 -182 l-405 -200 l-7 -30 ZM-19 0 l396 0 l5 24 l-396 0 l-5 -24 Z" /><glyph glyph-name="" unicode="&#x2264;" d="M417 109 l7 30 l-313 200 l402 182 l5 28 l-459 -210 l358 -230 ZM-4 0 l396 0 l5 24 l-396 0 l-5 -24 Z" /><glyph glyph-name="" unicode="±" d="M194 87 l33 0 l51 224 l193 0 l7 30 l-192 0 l51 223 l-33 0 l-51 -223 l-193 0 l-7 -30 l193 0 l-52 -224 ZM-19 0 l419 0 l6 28 l-418 0 l-7 -28 Z" /><glyph glyph-name="" unicode="&#x2248;" d="M393 280 q47 3 76 39 q30 36 43 68 l-14 1 q0 -5 -29 -39 q-28 -35 -78 -40 q-53 5 -106 41 q-52 36 -113 41 q-46 -3 -80 -41 q-34 -37 -47 -69 l12 -1 q1 5 34 41 q33 36 84 41 q51 -5 105 -41 q54 -36 113 -41 l0 0 ZM359 130 q46 3 76 39 q29 36 42 68 l-13 1 q-1 -5 -29 -39 q-29 -35 -79 -40 q-53 5 -106 41 q-52 36 -113 41 q-46 -3 -80 -41 q-33 -37 -47 -69 l13 -1 q1 5 34 41 q33 36 84 41 q50 -5 105 -41 q54 -36 113 -41 l0 0 Z" /><glyph glyph-name="" unicode="~" d="M380 221 q47 3 76 40 q30 36 42 68 l-13 1 q0 -5 -29 -39 q-28 -35 -79 -40 q-53 5 -105 41 q-53 36 -114 41 q-46 -3 -80 -41 q-33 -37 -47 -69 l13 -1 q1 5 34 41 q33 35 84 40 q50 -5 105 -41 q54 -36 113 -41 l0 0 Z" /><glyph glyph-name="" unicode="¬" d="M388 172 l33 0 l52 230 l-400 0 l-8 -31 l368 0 l-45 -199 Z" /><glyph glyph-name="" unicode="^" d="M35 240 l29 0 l255 407 l68 -407 l24 0 l-82 461 l-294 -461 Z" /><glyph glyph-name="" unicode="&#x2205;" d="M230 -8 q98 2 183 77 q86 75 116 193 q12 57 4 107 q-9 50 -34 88 l60 57 l-18 15 l-58 -55 q-25 28 -60 44 q-36 16 -82 16 q-102 -3 -186 -79 q-84 -76 -113 -190 q-13 -60 -4 -111 q10 -51 37 -89 l-58 -55 l17 -16 l58 56 q24 -27 59 -42 q35 -16 79 -16 l0 0 ZM92 85 q-24 34 -30 79 q-7 46 5 97 q27 105 105 174 q78 69 176 72 q35 0 66 -13 q30 -14 54 -40 l-376 -369 ZM223 20 q-35 0 -64 13 q-30 13 -51 36 l374 368 q21 -34 26 -79 q5 -44 -6 -95 q-25 -102 -104 -171 q-79 -69 -175 -72 l0 0 Z" /><glyph glyph-name="" unicode="&#x221e;" d="M133 116 q46 3 91 41 q44 38 69 68 q8 -30 36 -68 q29 -38 78 -41 q46 1 87 35 q41 34 56 92 q12 60 -17 94 q-29 34 -80 35 q-48 -3 -91 -41 q-43 -37 -67 -67 q-8 30 -36 67 q-28 38 -79 41 q-47 -1 -88 -35 q-40 -34 -55 -92 q-12 -60 17 -94 q28 -34 79 -35 l0 0 ZM125 140 q-36 1 -54 28 q-19 28 -9 75 q12 48 47 76 q35 27 75 28 q51 -6 73 -52 q21 -45 19 -52 q-4 -6 -49 -51 q-45 -46 -102 -52 l0 0 ZM402 140 q-49 7 -71 53 q-22 45 -20 52 q4 6 49 51 q44 45 102 51 q37 0 55 -27 q18 -28 8 -76 q-12 -47 -47 -75 q-35 -28 -76 -29 l0 0 Z" /><glyph glyph-name="" unicode="&#x222b;" d="M18 -60 q37 0 70 30 q32 30 52 89 l192 569 q21 61 42 85 q22 24 48 23 q2 1 17 -2 q14 -4 23 -26 l2 27 q-8 6 -21 9 q-13 3 -28 3 q-37 0 -67 -30 q-30 -30 -50 -89 l-192 -569 q-23 -63 -47 -86 q-24 -23 -49 -22 q-2 -1 -14 2 q-13 4 -22 26 l-1 -27 q17 -12 45 -12 l0 0 Z" /><glyph glyph-name="" unicode="&#x220f;" d="M63 -85 l33 0 l162 705 l225 0 l-162 -705 l33 0 l161 705 l106 0 l9 30 l-500 0 l-8 -30 l102 0 l-161 -705 Z" /><glyph glyph-name="" unicode="&#x2211;" d="M-39 -85 l409 0 l8 30 l-365 0 l343 337 l-192 338 l367 0 l9 30 l-409 0 l-7 -30 l190 -338 l-345 -337 l-8 -30 Z" /><glyph glyph-name="" unicode="&#x221a;" d="M170 -85 l33 0 l386 925 l-31 0 l-366 -880 l-35 361 l-111 -41 l5 -28 l82 33 l37 -370 Z" /><glyph glyph-name="" unicode="&#x2202;" d="M174 -8 q88 2 159 64 q71 62 103 154 q66 224 -7 351 q-73 127 -159 153 l2 -16 q66 -36 98 -120 q31 -83 28 -189 q-12 20 -36 30 q-25 11 -52 11 q-87 -2 -157 -64 q-71 -61 -103 -154 q-31 -95 2 -156 q34 -62 122 -64 l0 0 ZM168 12 q-61 2 -66 57 q-6 55 24 142 q28 85 76 141 q48 56 116 58 q57 -1 66 -51 q9 -49 -17 -129 q-21 -68 -71 -140 q-49 -72 -128 -78 l0 0 Z" /><glyph glyph-name="" unicode="µ" d="M360 23 q-10 0 -16 6 q-7 7 -3 23 l87 371 l-66 0 l-42 -178 q-23 -84 -70 -156 q-47 -71 -100 -76 q-39 2 -41 38 q-2 36 8 77 l57 242 l14 53 l-4 4 l-151 -28 l1 -11 l62 0 q9 0 12 -5 q3 -5 1 -15 q-3 -12 -5 -23 q-3 -12 -6 -23 l-142 -587 l64 0 l64 265 q18 -8 46 -8 q53 2 94 42 q41 41 70 100 l-20 -85 q-6 -25 5 -40 q11 -16 43 -16 q39 2 71 18 q32 16 34 18 l-3 9 q-2 -1 -24 -7 q-23 -7 -40 -8 l0 0 Z" /><glyph glyph-name="" unicode="%" d="M-25 -50 l41 0 l604 790 l-40 0 l-605 -790 ZM213 435 q63 2 110 43 q46 41 62 103 q14 64 -17 106 q-32 41 -99 43 q-62 -1 -109 -41 q-48 -41 -64 -105 q-13 -62 18 -105 q31 -42 99 -44 l0 0 ZM206 459 q-36 2 -42 38 q-6 37 5 83 q10 46 37 83 q27 38 69 40 q37 -2 42 -39 q6 -38 -6 -84 q-9 -44 -36 -81 q-27 -38 -69 -40 l0 0 ZM355 -4 q63 2 109 43 q47 41 62 102 q14 65 -18 107 q-31 42 -99 43 q-62 -1 -109 -42 q-47 -40 -64 -106 q-13 -60 18 -103 q32 -42 101 -44 l0 0 ZM347 20 q-37 2 -42 40 q-4 37 6 81 q9 46 36 83 q27 38 69 40 q37 -2 42 -39 q4 -38 -6 -82 q-9 -46 -36 -83 q-27 -38 -69 -40 l0 0 Z" /><glyph glyph-name="" unicode="&#x2030;" d="M-25 -50 l41 0 l604 790 l-40 0 l-605 -790 ZM213 435 q63 2 110 43 q46 41 62 103 q14 64 -17 106 q-32 41 -99 43 q-62 -1 -109 -41 q-48 -41 -64 -105 q-13 -62 18 -105 q31 -42 99 -44 l0 0 ZM206 459 q-36 2 -42 38 q-6 37 5 83 q10 46 37 83 q27 38 69 40 q37 -2 42 -39 q6 -38 -6 -84 q-9 -44 -36 -81 q-27 -38 -69 -40 l0 0 ZM355 -4 q63 2 109 43 q47 41 62 102 q14 65 -18 107 q-31 42 -99 43 q-62 -1 -109 -42 q-47 -40 -64 -106 q-13 -60 18 -103 q32 -42 101 -44 l0 0 ZM682 -4 q64 2 110 43 q47 41 62 103 q13 64 -18 106 q-31 41 -98 43 q-64 -2 -111 -43 q-47 -42 -62 -105 q-13 -62 18 -104 q32 -41 99 -43 l0 0 ZM347 20 q-37 2 -42 40 q-4 37 6 81 q9 46 36 83 q27 38 69 40 q37 -2 42 -39 q4 -38 -6 -82 q-9 -46 -36 -83 q-27 -38 -69 -40 l0 0 ZM675 20 q-36 2 -42 39 q-5 37 6 83 q10 45 36 82 q27 38 69 40 q36 -2 42 -39 q5 -37 -5 -82 q-10 -45 -36 -83 q-27 -38 -70 -40 l0 0 Z" /><glyph glyph-name="" unicode="&#x25ca;" d="M153 0 l25 0 l233 350 l-74 349 l-25 0 l-232 -349 l73 -350 ZM170 27 l-65 323 l216 322 l65 -322 l-216 -323 Z" /><glyph glyph-name="" unicode="@" d="M235 -136 q43 0 90 12 q47 12 101 42 l-6 9 q-22 -12 -71 -24 q-49 -13 -95 -14 q-129 6 -161 95 q-33 89 -7 192 q36 145 135 241 q100 96 231 100 q91 -2 130 -66 q38 -63 15 -168 q-26 -103 -73 -159 q-47 -56 -97 -58 q-16 -1 -16 13 q0 15 15 52 l109 272 l-109 0 q-79 -4 -149 -64 q-69 -61 -101 -137 q-36 -89 -19 -129 q16 -41 72 -40 q39 3 79 47 q41 44 77 91 l-32 -66 q-13 -31 -9 -51 q5 -19 42 -20 q91 3 166 74 q74 70 100 171 q24 106 -26 181 q-51 76 -176 79 q-133 -1 -258 -97 q-126 -96 -173 -273 q-31 -153 36 -229 q67 -76 180 -76 l0 0 ZM236 76 q-23 1 -22 33 q0 32 23 90 q31 71 83 124 q51 52 89 55 q15 0 28 -3 q14 -4 19 -7 l-56 -137 q-41 -71 -83 -113 q-43 -41 -81 -42 l0 0 Z" /><glyph glyph-name="" unicode="&amp;" d="M552 395 l-96 0 l-58 -253 l-153 220 q-2 2 -8 58 q-6 57 13 149 q13 54 46 87 q33 32 85 33 q36 -1 49 -33 q14 -33 2 -86 q-11 -46 -36 -86 q-25 -40 -55 -61 l9 -8 q46 20 89 59 q43 39 56 91 q15 66 -14 106 q-29 40 -108 41 q-78 -1 -130 -43 q-53 -42 -71 -116 q-10 -46 6 -96 q15 -50 48 -104 q-41 -5 -101 -49 q-59 -43 -84 -130 q-20 -88 24 -135 q45 -48 150 -49 q48 0 92 18 q43 18 79 49 l69 -134 l95 0 l-134 194 l136 278 ZM210 12 q-51 0 -79 40 q-29 40 -13 119 q26 93 70 131 q44 37 49 36 q-3 7 20 -36 q23 -43 113 -215 q-66 -75 -160 -75 l0 0 Z" /><glyph glyph-name="" unicode="¶" d="M223 0 l70 0 l159 689 l45 0 l-159 -689 l50 0 l141 615 q14 53 48 66 q35 12 78 10 l-2 9 l-309 0 q-90 -1 -146 -45 q-56 -43 -74 -120 q-18 -79 20 -123 q38 -44 129 -45 l35 0 l-85 -367 Z" /><glyph glyph-name="" unicode="§" d="M133 -8 q44 -2 104 21 q60 22 82 93 q11 60 -21 92 q-32 33 -61 52 q48 6 86 33 q39 26 53 76 q15 53 -19 89 q-34 36 -122 101 q-28 22 -36 37 q-8 16 -3 37 q9 33 40 49 q32 16 72 16 q47 1 65 -22 q18 -23 12 -83 l16 0 l24 112 q-4 1 -41 8 q-37 8 -73 8 q-57 0 -108 -25 q-52 -24 -67 -76 q-8 -42 16 -69 q24 -27 56 -51 q16 -15 22 -22 q7 -7 10 -11 q-55 -2 -101 -27 q-47 -25 -60 -73 q-10 -51 17 -82 q27 -32 73 -59 q67 -41 83 -67 q16 -26 6 -61 q-8 -33 -43 -53 q-35 -20 -84 -21 q-60 -2 -85 23 q-26 25 -16 102 l-17 0 l-26 -128 q25 -4 67 -11 q41 -7 79 -8 l0 0 ZM211 266 q-40 22 -60 43 q-21 22 -13 58 q8 33 38 53 q30 19 71 19 q41 -1 59 -26 q18 -24 9 -64 q-12 -42 -45 -62 q-33 -20 -59 -21 l0 0 Z" /><glyph glyph-name="" unicode="©" d="M424 538 q-113 0 -223 -80 q-109 -81 -152 -243 q-32 -159 43 -241 q74 -83 195 -83 q117 0 226 82 q108 82 150 241 q31 159 -44 242 q-75 82 -195 82 l0 0 ZM606 215 q-32 -129 -122 -215 q-90 -86 -205 -89 q-110 3 -155 89 q-46 85 -18 216 q32 130 121 214 q90 85 204 88 q110 -3 157 -87 q46 -85 18 -216 l0 0 ZM211 224 q-18 -75 14 -128 q32 -53 109 -55 q59 5 98 39 q39 33 41 38 l-3 15 q-2 -6 -38 -32 q-35 -25 -84 -29 q-49 1 -68 43 q-19 41 -3 110 q17 72 57 119 q40 47 97 49 q38 -2 47 -33 q9 -31 6 -67 l8 0 l21 102 q-2 1 -31 8 q-29 7 -59 8 q-73 -2 -132 -55 q-60 -53 -80 -132 l0 0 Z" /><glyph glyph-name="" unicode="®" d="M405 538 q-113 0 -223 -80 q-109 -81 -152 -243 q-32 -159 43 -241 q74 -83 195 -83 q117 0 226 82 q108 82 150 241 q31 159 -44 242 q-75 82 -195 82 l0 0 ZM587 215 q-32 -129 -122 -217 q-91 -87 -206 -91 q-110 3 -155 91 q-45 87 -17 218 q32 130 122 216 q90 87 205 90 q108 -3 155 -88 q47 -85 18 -219 l0 0 ZM405 413 l-186 1 q0 -1 -1 -7 q-1 -5 1 -7 q25 1 38 -6 q12 -7 7 -33 l-62 -268 q-8 -28 -27 -36 q-19 -7 -39 -6 q2 -1 -2 -5 q-3 -4 -4 -5 l168 -1 q0 1 2 6 q2 4 0 5 q-24 -1 -37 5 q-13 7 -6 36 l36 146 q2 -1 11 -3 q9 -1 22 -3 q16 -48 32 -95 q15 -48 31 -96 l80 0 q-1 1 3 5 q3 4 2 5 q-14 1 -25 10 q-12 9 -20 28 q-12 35 -24 79 q-11 43 -17 64 q41 7 68 31 q27 24 36 63 q9 38 -13 62 q-23 24 -74 25 l0 0 ZM433 325 q-9 -39 -35 -60 q-26 -21 -66 -21 q-8 0 -19 3 q-11 2 -22 6 l27 106 q4 16 16 24 q11 8 25 8 l34 0 q28 0 38 -17 q10 -17 2 -49 l0 0 Z" /><glyph glyph-name="" unicode="&#x2122;" d="M108 328 l168 0 l0 15 q-23 -1 -36 6 q-12 7 -6 35 l68 296 l37 0 q38 0 41 -19 q3 -20 -2 -56 l13 0 l22 95 l-272 0 l-22 -95 l15 -1 q12 38 27 57 q14 19 51 19 l32 0 l-69 -295 q-7 -29 -26 -36 q-19 -7 -41 -6 l0 -15 ZM354 328 l128 0 l0 16 q-23 -1 -37 7 q-14 7 -7 33 q11 38 41 153 q30 115 34 130 l41 -339 l30 0 l185 334 q-7 -32 -22 -130 q-15 -97 -24 -146 q-6 -28 -25 -35 q-19 -8 -40 -7 l-1 -16 l160 0 l1 16 q-22 -1 -32 6 q-10 7 -6 34 q9 48 21 138 q13 89 18 119 q5 26 24 36 q18 9 38 8 l-1 15 l-107 0 q-43 -75 -84 -148 q-40 -73 -85 -149 q-12 109 -18 170 q-7 61 -15 126 l-118 1 l0 -16 q23 1 32 -8 q10 -9 4 -33 l-73 -258 q-8 -26 -23 -34 q-16 -8 -39 -7 l0 -16 Z" /><glyph glyph-name="" unicode="°" d="M206 461 q47 1 84 36 q38 35 51 89 q11 54 -14 89 q-26 35 -76 36 q-47 -1 -84 -36 q-37 -34 -51 -88 q-11 -55 14 -90 q25 -35 76 -36 l0 0 ZM202 498 q-30 1 -43 25 q-12 24 -4 62 q10 38 37 63 q27 25 63 26 q30 -1 43 -25 q12 -24 4 -61 q-10 -39 -37 -64 q-27 -25 -63 -26 l0 0 Z" /><glyph glyph-name="" unicode="|" d="M155 -50 l38 0 l182 788 l-38 0 l-182 -788 Z" /><glyph glyph-name="" unicode="¦" d="M267 434 l38 0 l70 304 l-38 0 l-70 -304 ZM155 -53 l38 0 l69 304 l-37 0 l-70 -304 Z" /><glyph glyph-name="" unicode="&#x2020;" d="M118 -130 l38 0 l124 539 l169 0 l5 23 l-168 0 l63 276 l-38 0 l-63 -276 l-169 0 l-5 -23 l169 0 l-125 -539 Z" /><glyph glyph-name="" unicode="&#x2021;" d="M119 -130 l37 0 l64 277 l169 0 l6 23 l-169 0 l55 239 l168 0 l6 23 l-169 0 l64 276 l-38 0 l-63 -276 l-169 0 l-6 -23 l169 0 l-55 -239 l-169 0 l-5 -23 l169 0 l-64 -277 Z" /><glyph glyph-name="" unicode="&#x308;" d="M-130 523 q15 1 28 13 q13 12 17 30 q3 18 -7 31 q-10 12 -30 13 q-15 -1 -27 -13 q-12 -12 -16 -30 q-4 -18 6 -31 q9 -12 29 -13 l0 0 ZM8 523 q16 1 29 14 q12 12 16 28 q4 19 -6 32 q-10 12 -31 13 q-15 -1 -27 -13 q-12 -12 -16 -29 q-4 -19 6 -31 q9 -13 29 -14 l0 0 Z" /><glyph glyph-name="" unicode="&#x307;" d="M-5 496 q18 1 33 15 q14 14 20 35 q5 21 -7 36 q-13 14 -35 15 q-18 -1 -32 -15 q-15 -14 -21 -34 q-4 -22 7 -36 q11 -15 35 -16 l0 0 Z" /><glyph glyph-name="" unicode="&#x300;" d="M-32 497 l18 0 l-56 176 l-75 0 l113 -176 Z" /><glyph glyph-name="" unicode="&#x301;" d="M-100 495 l16 0 l163 176 l-78 0 l-101 -176 Z" /><glyph glyph-name="" unicode="&#x30b;" d="M-209 495 l16 0 l163 176 l-78 0 l-101 -176 ZM-99 495 l15 0 l163 176 l-77 0 l-101 -176 Z" /><glyph glyph-name="" unicode="&#x302;" d="M-208 486 l19 0 l126 93 l82 -93 l14 0 l-70 145 l-35 0 l-136 -145 Z" /><glyph glyph-name="" unicode="&#x30c;" d="M-96 515 l35 0 l136 145 l-14 0 l-130 -90 l-87 90 l-10 0 l70 -145 Z" /><glyph glyph-name="" unicode="&#x306;" d="M-75 522 q73 9 113 69 q39 60 40 69 l-12 0 q-1 -6 -39 -46 q-38 -41 -105 -47 q-59 6 -73 47 q-15 40 -13 46 l-9 0 q-4 -9 10 -69 q14 -60 88 -69 l0 0 Z" /><glyph glyph-name="" unicode="&#x30a;" d="M-22 524 q30 1 53 18 q23 17 30 42 q5 26 -14 44 q-19 18 -54 19 q-30 -1 -53 -18 q-23 -18 -30 -44 q-5 -25 14 -42 q18 -18 54 -19 l0 0 ZM-30 550 q-11 1 -15 10 q-4 10 -2 22 q4 16 18 26 q13 10 29 10 q11 0 16 -10 q5 -9 2 -24 q-4 -14 -17 -24 q-14 -10 -31 -10 l0 0 Z" /><glyph glyph-name="" unicode="&#x303;" d="M-4 527 q25 2 41 28 q17 27 28 57 l-9 1 q0 -2 -14 -18 q-15 -16 -45 -18 q-25 2 -48 18 q-23 16 -56 18 q-26 -2 -41 -28 q-15 -27 -28 -57 l9 0 q0 2 15 18 q14 15 44 17 q23 -2 48 -18 q24 -16 56 -18 l0 0 Z" /><glyph glyph-name="" unicode="&#x304;" d="M-159 539 l205 0 l7 28 l-205 0 l-7 -28 Z" /><glyph glyph-name="" unicode="&#x309;" d="M-83 529 q16 6 42 34 q27 28 30 62 q0 29 -19 48 q-19 20 -55 21 q-42 -4 -64 -30 q-23 -26 -23 -30 l3 -5 q7 7 24 18 q18 10 39 11 q27 -1 37 -19 q11 -18 10 -35 q-1 -28 -11 -45 q-11 -18 -17 -25 l4 -5 Z" /><glyph glyph-name="" unicode="&#x312;" d="M-68 504 l10 0 l141 184 l-63 12 l-88 -196 Z" /><glyph glyph-name="" unicode="&#x31b;" d="M-175 558 q64 2 95 28 q31 25 31 61 q0 7 -1 14 q-1 7 -3 14 l-45 -3 q13 -38 8 -63 q-5 -25 -54 -34 l-31 -4 l0 -13 Z" /><glyph glyph-name="" unicode="&#x323;" d="M-154 -147 q17 1 33 15 q15 14 20 34 q5 22 -7 37 q-13 14 -35 15 q-18 -1 -33 -15 q-14 -14 -19 -34 q-5 -22 6 -36 q11 -15 35 -16 l0 0 Z" /><glyph glyph-name="" unicode="&#x326;" d="M-238 -229 l11 0 l140 184 l-63 12 l-88 -196 Z" /><glyph glyph-name="" unicode="&#x327;" d="M-182 -70 l48 70 l-13 0 l-79 -80 l12 2 l-4 -2 q33 -1 43 -12 q11 -11 0 -33 q-9 -23 -30 -37 q-20 -14 -42 -14 q-8 1 -13 7 q-4 6 -4 7 l-2 -13 q0 -1 17 -10 q16 -10 46 -11 q23 0 42 16 q20 15 32 42 q12 30 -2 47 q-15 17 -51 21 l0 0 Z" /><glyph glyph-name="" unicode="&#x328;" d="M-185 -196 q29 1 48 11 q19 9 20 10 l2 22 q-1 -1 -15 -6 q-15 -5 -33 -6 q-15 0 -17 12 q-2 11 4 28 q5 22 25 57 q20 35 45 68 l-22 0 q-33 -31 -65 -68 q-32 -37 -42 -72 q-5 -28 9 -42 q14 -14 41 -14 l0 0 Z" /><glyph glyph-name="" unicode="&#x335;" d="M-274 524 l281 0 l5 24 l-281 0 l-5 -24 Z" /><glyph glyph-name="" unicode="&#x336;" d="M-551 508 l610 0 l5 23 l-610 0 l-5 -23 Z" /><glyph glyph-name="" unicode="&#x337;" d="M-204 336 l231 90 l3 19 l-231 -90 l-3 -19 Z" /><glyph glyph-name="" unicode="&#x338;" d="M-452 -50 l32 0 l431 770 l-31 0 l-432 -770 Z" /><glyph glyph-name="" unicode="´" d="M75 495 l16 0 l163 176 l-78 0 l-101 -176 Z" /><glyph glyph-name="" unicode="&#x2d8;" d="M213 522 q73 9 113 69 q39 60 40 69 l-12 0 q-1 -5 -38 -42 q-37 -37 -104 -42 q-59 5 -74 42 q-16 37 -14 42 l-9 0 q-4 -9 10 -69 q14 -60 88 -69 l0 0 Z" /><glyph glyph-name="" unicode="&#x2c7;" d="M185 515 l35 0 l136 145 l-14 0 l-130 -90 l-87 90 l-10 0 l70 -145 Z" /><glyph glyph-name="" unicode="¸" d="M-37 -70 l48 70 l-13 0 l-79 -80 l12 2 l-4 -2 q33 -1 43 -12 q11 -11 0 -33 q-9 -23 -30 -37 q-20 -14 -42 -14 q-8 1 -13 7 q-4 6 -4 7 l-2 -13 q0 -1 17 -10 q16 -10 46 -11 q23 0 42 16 q20 15 32 42 q12 30 -2 47 q-15 17 -51 21 l0 0 Z" /><glyph glyph-name="" unicode="&#x2c6;" d="M73 486 l19 0 l126 93 l82 -93 l14 0 l-70 145 l-35 0 l-136 -145 Z" /><glyph glyph-name="" unicode="¨" d="M128 523 q15 1 28 13 q13 12 17 30 q3 18 -7 31 q-10 12 -30 13 q-15 -1 -27 -13 q-12 -12 -16 -30 q-4 -18 6 -31 q9 -12 29 -13 l0 0 ZM266 523 q16 1 29 14 q12 12 16 28 q4 19 -6 32 q-10 12 -31 13 q-15 -1 -27 -13 q-12 -12 -16 -29 q-4 -19 6 -31 q9 -13 29 -14 l0 0 Z" /><glyph glyph-name="" unicode="&#x2d9;" d="M130 496 q18 1 33 15 q14 14 20 35 q5 21 -7 36 q-13 14 -35 15 q-18 -1 -32 -15 q-15 -14 -21 -34 q-4 -22 7 -36 q11 -15 35 -16 l0 0 Z" /><glyph glyph-name="" unicode="`" d="M196 497 l15 0 l-19 176 l-74 0 l78 -176 Z" /><glyph glyph-name="" unicode="&#x2dd;" d="M75 495 l16 0 l163 176 l-78 0 l-101 -176 ZM185 495 l15 0 l163 176 l-77 0 l-101 -176 Z" /><glyph glyph-name="" unicode="¯" d="M86 539 l205 0 l7 28 l-205 0 l-7 -28 Z" /><glyph glyph-name="" unicode="&#x2db;" d="M-29 -196 q28 1 47 11 q19 9 20 10 l2 22 q-1 -1 -15 -6 q-14 -5 -33 -6 q-14 0 -16 12 q-3 11 3 28 q5 22 25 58 q20 36 45 67 l-19 0 q-33 -29 -66 -67 q-33 -38 -43 -73 q-5 -28 9 -42 q14 -14 41 -14 l0 0 Z" /><glyph glyph-name="" unicode="&#x2da;" d="M160 524 q30 1 53 18 q23 17 30 42 q5 26 -14 44 q-19 18 -54 19 q-30 -1 -53 -18 q-23 -18 -30 -44 q-5 -25 14 -42 q18 -18 54 -19 l0 0 ZM152 550 q-11 1 -15 10 q-4 10 -2 22 q4 16 18 26 q13 10 29 10 q11 0 16 -10 q5 -9 2 -24 q-4 -14 -17 -24 q-14 -10 -31 -10 l0 0 Z" /><glyph glyph-name="" unicode="&#x2dc;" d="M255 527 q25 2 41 28 q17 27 28 57 l-9 1 q0 -2 -14 -18 q-15 -16 -45 -18 q-25 2 -48 18 q-23 16 -56 18 q-26 -2 -41 -28 q-15 -27 -28 -57 l9 0 q0 2 15 18 q14 15 44 17 q23 -2 48 -18 q24 -16 56 -18 l0 0 Z" /></font>
</defs>
</svg>
