<?xml version="1.0" standalone="no"?><!DOCTYPE svg PUBLIC "-//W3C//DTD SVG 1.1//EN" "http://www.w3.org/Graphics/SVG/1.1/DTD/svg11.dtd" ><svg xmlns="http://www.w3.org/2000/svg"><metadata></metadata><defs><font id="1.001;UKWN;Bota-Light" horiz-adv-x="1011"><font-face font-family="Bota Light" font-weight="300" font-stretch="normal" units-per-em="1000" panose-1="0 0 4 0 0 0 0 0 0 0" ascent="910" descent="-290" x-height="0" bbox="-655 -398 1011 1056" underline-thickness="14" underline-position="-107" unicode-range="U+0020-fb02" /><missing-glyph horiz-adv-x="510" d="M418 730 l-323 0 l0 -1020 l323 0 l0 1020 ZM340 662 l0 -34 l-68 0 l0 -38 l68 0 l0 -33 l-170 0 l0 33 l68 0 l0 38 l-67 0 l0 34 l169 0 ZM272 530 l0 -71 l68 0 l0 -35 l-170 0 l0 106 l102 0 ZM238 495 l-34 0 l0 -36 l34 0 l0 36 ZM340 396 l0 -33 l-68 0 l0 -72 l-102 0 l0 34 l68 0 l0 38 l-68 0 l0 33 l170 0 ZM340 335 l0 -102 l-170 0 l0 35 l136 0 l0 67 l34 0 ZM340 211 l0 -115 l-170 0 l0 115 l34 0 l0 -82 l102 0 l0 48 l-34 0 l0 -23 l-34 0 l0 57 l102 0 ZM340 34 l0 -115 l-170 0 l0 115 l170 0 ZM306 1 l-102 0 l0 -48 l102 0 l0 48 ZM340 -104 l0 -34 l-33 0 l-71 -48 l104 0 l0 -34 l-170 0 l0 34 l72 48 l-72 0 l0 34 l170 0 Z" /><glyph glyph-name="" unicode=" " d="" /><glyph glyph-name="" unicode="A" d="M580 93 q-30 87 -114 338 q-84 251 -97 283 l-11 0 q-12 -32 -103 -283 q-92 -251 -123 -338 q-17 -51 -46 -68 q-28 -17 -86 -16 l0 -9 l263 0 q0 0 0 4 q0 4 0 5 l-34 0 q-38 -2 -68 9 q-30 11 -16 59 q6 17 25 71 q19 54 45 127 l240 0 q23 -71 41 -125 q17 -54 23 -73 q15 -48 -14 -59 q-28 -11 -77 -9 q-2 0 -13 0 q-10 0 -13 0 l0 -9 l296 0 l0 9 q-56 -1 -78 16 q-23 17 -40 68 l0 0 ZM221 292 l119 336 q2 -6 36 -109 q33 -104 73 -227 l-228 0 Z" /><glyph glyph-name="" unicode="Á" d="M467 931 l-68 0 l-71 -176 l10 0 l129 176 ZM580 93 q-30 87 -114 338 q-84 251 -97 283 l-11 0 q-12 -32 -103 -283 q-92 -251 -123 -338 q-17 -51 -46 -68 q-28 -17 -86 -16 l0 -9 l263 0 q0 0 0 4 q0 4 0 5 l-34 0 q-38 -2 -68 9 q-30 11 -16 59 q6 17 25 71 q19 54 45 127 l240 0 q23 -71 41 -125 q17 -54 23 -73 q15 -48 -14 -59 q-28 -11 -77 -9 q-2 0 -13 0 q-10 0 -13 0 l0 -9 l296 0 l0 9 q-56 -1 -78 16 q-23 17 -40 68 l0 0 ZM221 292 l119 336 q2 -6 36 -109 q33 -104 73 -227 l-228 0 Z" /><glyph glyph-name="" unicode="&#x102;" d="M361 758 q78 9 109 69 q30 60 29 69 l-8 0 q0 -6 -32 -48 q-32 -42 -99 -48 q-67 6 -99 48 q-31 42 -31 48 l-7 0 q-1 -9 29 -69 q30 -60 109 -69 l0 0 ZM580 93 q-30 87 -114 338 q-84 251 -97 283 l-11 0 q-12 -32 -103 -283 q-92 -251 -123 -338 q-17 -51 -46 -68 q-28 -17 -86 -16 l0 -9 l263 0 q0 0 0 4 q0 4 0 5 l-34 0 q-38 -2 -68 9 q-30 11 -16 59 q6 17 25 71 q19 54 45 127 l240 0 q23 -71 41 -125 q17 -54 23 -73 q15 -48 -14 -59 q-28 -11 -77 -9 q-2 0 -13 0 q-10 0 -13 0 l0 -9 l296 0 l0 9 q-56 -1 -78 16 q-23 17 -40 68 l0 0 ZM221 292 l119 336 q2 -6 36 -109 q33 -104 73 -227 l-228 0 Z" /><glyph glyph-name="" unicode="&#x1eb6;" d="M361 758 q78 9 109 69 q30 60 29 69 l-8 0 q0 -6 -32 -48 q-32 -42 -99 -48 q-67 6 -99 48 q-31 42 -31 48 l-7 0 q-1 -9 29 -69 q30 -60 109 -69 l0 0 ZM580 93 q-30 87 -114 338 q-84 251 -97 283 l-11 0 q-12 -32 -103 -283 q-92 -251 -123 -338 q-17 -51 -46 -68 q-28 -17 -86 -16 l0 -9 l263 0 q0 0 0 4 q0 4 0 5 l-34 0 q-38 -2 -68 9 q-30 11 -16 59 q6 17 25 71 q19 54 45 127 l240 0 q23 -71 41 -125 q17 -54 23 -73 q15 -48 -14 -59 q-28 -11 -77 -9 q-2 0 -13 0 q-10 0 -13 0 l0 -9 l296 0 l0 9 q-56 -1 -78 16 q-23 17 -40 68 l0 0 ZM221 292 l119 336 q2 -6 36 -109 q33 -104 73 -227 l-228 0 ZM362 -72 q-20 -1 -33 -13 q-13 -13 -13 -32 q0 -19 13 -32 q13 -13 33 -14 q19 1 32 14 q13 13 14 32 q-1 19 -14 32 q-13 12 -32 13 l0 0 Z" /><glyph glyph-name="" unicode="&#x1cd;" d="M375 776 l121 144 l-10 0 l-124 -94 l-125 94 l-9 0 l121 -144 l26 0 ZM580 93 q-30 87 -114 338 q-84 251 -97 283 l-11 0 q-12 -32 -103 -283 q-92 -251 -123 -338 q-17 -51 -46 -68 q-28 -17 -86 -16 l0 -9 l263 0 q0 0 0 4 q0 4 0 5 l-34 0 q-38 -2 -68 9 q-30 11 -16 59 q6 17 25 71 q19 54 45 127 l240 0 q23 -71 41 -125 q17 -54 23 -73 q15 -48 -14 -59 q-28 -11 -77 -9 q-2 0 -13 0 q-10 0 -13 0 l0 -9 l296 0 l0 9 q-56 -1 -78 16 q-23 17 -40 68 l0 0 ZM221 292 l119 336 q2 -6 36 -109 q33 -104 73 -227 l-228 0 Z" /><glyph glyph-name="" unicode="Â" d="M362 841 l124 -95 l10 0 l-121 145 l-26 0 l-121 -145 l10 0 l124 95 ZM580 93 q-30 87 -114 338 q-84 251 -97 283 l-11 0 q-12 -32 -103 -283 q-92 -251 -123 -338 q-17 -51 -46 -68 q-28 -17 -86 -16 l0 -9 l263 0 q0 0 0 4 q0 4 0 5 l-34 0 q-38 -2 -68 9 q-30 11 -16 59 q6 17 25 71 q19 54 45 127 l240 0 q23 -71 41 -125 q17 -54 23 -73 q15 -48 -14 -59 q-28 -11 -77 -9 q-2 0 -13 0 q-10 0 -13 0 l0 -9 l296 0 l0 9 q-56 -1 -78 16 q-23 17 -40 68 l0 0 ZM221 292 l119 336 q2 -6 36 -109 q33 -104 73 -227 l-228 0 Z" /><glyph glyph-name="" unicode="&#x1eac;" d="M362 841 l124 -95 l10 0 l-121 145 l-26 0 l-121 -145 l10 0 l124 95 ZM580 93 q-30 87 -114 338 q-84 251 -97 283 l-11 0 q-12 -32 -103 -283 q-92 -251 -123 -338 q-17 -51 -46 -68 q-28 -17 -86 -16 l0 -9 l263 0 q0 0 0 4 q0 4 0 5 l-34 0 q-38 -2 -68 9 q-30 11 -16 59 q6 17 25 71 q19 54 45 127 l240 0 q23 -71 41 -125 q17 -54 23 -73 q15 -48 -14 -59 q-28 -11 -77 -9 q-2 0 -13 0 q-10 0 -13 0 l0 -9 l296 0 l0 9 q-56 -1 -78 16 q-23 17 -40 68 l0 0 ZM221 292 l119 336 q2 -6 36 -109 q33 -104 73 -227 l-228 0 ZM362 -72 q-20 -1 -33 -13 q-13 -13 -13 -32 q0 -19 13 -32 q13 -13 33 -14 q19 1 32 14 q13 13 14 32 q-1 19 -14 32 q-13 12 -32 13 l0 0 Z" /><glyph glyph-name="" unicode="Ä" d="M298 789 q16 0 27 11 q11 11 11 27 q0 15 -11 26 q-11 11 -27 11 q-16 0 -26 -11 q-11 -11 -11 -26 q0 -16 11 -27 q10 -11 26 -11 l0 0 ZM432 789 q16 0 27 11 q11 11 11 27 q0 15 -11 26 q-11 11 -27 11 q-16 0 -26 -11 q-11 -11 -11 -26 q0 -16 11 -27 q10 -11 26 -11 l0 0 ZM580 93 q-30 87 -114 338 q-84 251 -97 283 l-11 0 q-12 -32 -103 -283 q-92 -251 -123 -338 q-17 -51 -46 -68 q-28 -17 -86 -16 l0 -9 l263 0 q0 0 0 4 q0 4 0 5 l-34 0 q-38 -2 -68 9 q-30 11 -16 59 q6 17 25 71 q19 54 45 127 l240 0 q23 -71 41 -125 q17 -54 23 -73 q15 -48 -14 -59 q-28 -11 -77 -9 q-2 0 -13 0 q-10 0 -13 0 l0 -9 l296 0 l0 9 q-56 -1 -78 16 q-23 17 -40 68 l0 0 ZM221 292 l119 336 q2 -6 36 -109 q33 -104 73 -227 l-228 0 Z" /><glyph glyph-name="" unicode="&#x1ea0;" d="M580 93 q-30 87 -114 338 q-84 251 -97 283 l-11 0 q-12 -32 -103 -283 q-92 -251 -123 -338 q-17 -51 -46 -68 q-28 -17 -86 -16 l0 -9 l263 0 q0 0 0 4 q0 4 0 5 l-34 0 q-38 -2 -68 9 q-30 11 -16 59 q6 17 25 71 q19 54 45 127 l240 0 q23 -71 41 -125 q17 -54 23 -73 q15 -48 -14 -59 q-28 -11 -77 -9 q-2 0 -13 0 q-10 0 -13 0 l0 -9 l296 0 l0 9 q-56 -1 -78 16 q-23 17 -40 68 l0 0 ZM221 292 l119 336 q2 -6 36 -109 q33 -104 73 -227 l-228 0 ZM362 -72 q-20 -1 -33 -13 q-13 -13 -13 -32 q0 -19 13 -32 q13 -13 33 -14 q19 1 32 14 q13 13 14 32 q-1 19 -14 32 q-13 12 -32 13 l0 0 Z" /><glyph glyph-name="" unicode="À" d="M380 756 l-71 176 l-68 0 l129 -176 l10 0 ZM580 93 q-30 87 -114 338 q-84 251 -97 283 l-11 0 q-12 -32 -103 -283 q-92 -251 -123 -338 q-17 -51 -46 -68 q-28 -17 -86 -16 l0 -9 l263 0 q0 0 0 4 q0 4 0 5 l-34 0 q-38 -2 -68 9 q-30 11 -16 59 q6 17 25 71 q19 54 45 127 l240 0 q23 -71 41 -125 q17 -54 23 -73 q15 -48 -14 -59 q-28 -11 -77 -9 q-2 0 -13 0 q-10 0 -13 0 l0 -9 l296 0 l0 9 q-56 -1 -78 16 q-23 17 -40 68 l0 0 ZM221 292 l119 336 q2 -6 36 -109 q33 -104 73 -227 l-228 0 Z" /><glyph glyph-name="" unicode="&#x1ea2;" d="M310 894 q31 -2 42 -20 q12 -19 11 -36 q-1 -25 -10 -42 q-10 -16 -19 -26 l5 -5 q17 6 41 32 q25 25 27 55 q0 29 -22 50 q-21 20 -62 21 q-42 -3 -64 -26 q-22 -24 -22 -27 l4 -5 q7 7 26 18 q19 10 43 11 l0 0 ZM580 93 q-30 87 -114 338 q-84 251 -97 283 l-11 0 q-12 -32 -103 -283 q-92 -251 -123 -338 q-17 -51 -46 -68 q-28 -17 -86 -16 l0 -9 l263 0 q0 0 0 4 q0 4 0 5 l-34 0 q-38 -2 -68 9 q-30 11 -16 59 q6 17 25 71 q19 54 45 127 l240 0 q23 -71 41 -125 q17 -54 23 -73 q15 -48 -14 -59 q-28 -11 -77 -9 q-2 0 -13 0 q-10 0 -13 0 l0 -9 l296 0 l0 9 q-56 -1 -78 16 q-23 17 -40 68 l0 0 ZM221 292 l119 336 q2 -6 36 -109 q33 -104 73 -227 l-228 0 Z" /><glyph glyph-name="" unicode="&#x100;" d="M462 824 l-210 0 l0 -25 l210 0 l0 25 ZM580 93 q-30 87 -114 338 q-84 251 -97 283 l-11 0 q-12 -32 -103 -283 q-92 -251 -123 -338 q-17 -51 -46 -68 q-28 -17 -86 -16 l0 -9 l263 0 q0 0 0 4 q0 4 0 5 l-34 0 q-38 -2 -68 9 q-30 11 -16 59 q6 17 25 71 q19 54 45 127 l240 0 q23 -71 41 -125 q17 -54 23 -73 q15 -48 -14 -59 q-28 -11 -77 -9 q-2 0 -13 0 q-10 0 -13 0 l0 -9 l296 0 l0 9 q-56 -1 -78 16 q-23 17 -40 68 l0 0 ZM221 292 l119 336 q2 -6 36 -109 q33 -104 73 -227 l-228 0 Z" /><glyph glyph-name="" unicode="&#x104;" d="M685 -168 q-18 0 -26 12 q-7 11 -6 29 q0 22 13 58 q12 37 32 69 l0 9 q-56 -1 -78 16 q-23 17 -40 68 q-30 87 -114 338 q-84 251 -97 283 l-11 0 q-12 -32 -103 -283 q-92 -251 -123 -338 q-17 -51 -46 -68 q-28 -17 -86 -16 l0 -9 l263 0 q0 0 0 4 q0 4 0 5 l-34 0 q-38 -2 -68 9 q-30 11 -16 59 q6 17 25 71 q19 54 45 127 l240 0 q23 -71 41 -125 q17 -54 23 -73 q15 -48 -14 -59 q-28 -11 -77 -9 q-2 0 -13 0 q-10 0 -13 0 l0 -9 l282 0 q-25 -31 -48 -68 q-22 -38 -24 -73 q1 -28 18 -41 q17 -14 44 -14 q27 1 43 11 q15 9 15 10 l0 22 q-1 -1 -14 -7 q-14 -7 -33 -8 l0 0 ZM221 292 l119 336 q2 -6 36 -109 q33 -104 73 -227 l-228 0 Z" /><glyph glyph-name="" unicode="Å" d="M362 765 q32 1 53 17 q21 16 22 39 q-1 24 -22 40 q-21 16 -53 17 q-32 -1 -53 -17 q-21 -16 -22 -40 q1 -23 22 -39 q21 -16 53 -17 l0 0 ZM362 854 q15 0 26 -10 q10 -10 10 -24 q0 -14 -10 -24 q-11 -10 -26 -10 q-15 0 -25 10 q-10 10 -10 24 q0 14 10 24 q10 10 25 10 l0 0 ZM580 93 q-30 87 -114 338 q-84 251 -97 283 l-11 0 q-12 -32 -103 -283 q-92 -251 -123 -338 q-17 -51 -46 -68 q-28 -17 -86 -16 l0 -9 l263 0 q0 0 0 4 q0 4 0 5 l-34 0 q-38 -2 -68 9 q-30 11 -16 59 q6 17 25 71 q19 54 45 127 l240 0 q23 -71 41 -125 q17 -54 23 -73 q15 -48 -14 -59 q-28 -11 -77 -9 q-2 0 -13 0 q-10 0 -13 0 l0 -9 l296 0 l0 9 q-56 -1 -78 16 q-23 17 -40 68 l0 0 ZM221 292 l119 336 q2 -6 36 -109 q33 -104 73 -227 l-228 0 Z" /><glyph glyph-name="" unicode="Ã" d="M298 824 q29 -2 60 -18 q31 -16 65 -18 q31 1 42 23 q12 22 17 52 l-6 0 q1 -2 -10 -17 q-10 -16 -40 -18 q-32 2 -61 18 q-29 16 -64 18 q-30 -1 -41 -23 q-12 -22 -18 -52 l6 0 q-1 2 10 18 q10 15 40 17 l0 0 ZM580 93 q-30 87 -114 338 q-84 251 -97 283 l-11 0 q-12 -32 -103 -283 q-92 -251 -123 -338 q-17 -51 -46 -68 q-28 -17 -86 -16 l0 -9 l263 0 q0 0 0 4 q0 4 0 5 l-34 0 q-38 -2 -68 9 q-30 11 -16 59 q6 17 25 71 q19 54 45 127 l240 0 q23 -71 41 -125 q17 -54 23 -73 q15 -48 -14 -59 q-28 -11 -77 -9 q-2 0 -13 0 q-10 0 -13 0 l0 -9 l296 0 l0 9 q-56 -1 -78 16 q-23 17 -40 68 l0 0 ZM221 292 l119 336 q2 -6 36 -109 q33 -104 73 -227 l-228 0 Z" /><glyph glyph-name="" unicode="Æ" d="M-3 0 l260 0 l0 9 l-42 0 q-39 -1 -69 12 q-29 12 -6 56 q11 19 41 73 q29 53 69 125 l223 0 l0 -190 q-1 -52 -34 -65 q-34 -13 -83 -11 l0 -9 l492 0 l0 198 l-8 0 q-17 -97 -44 -139 q-27 -42 -96 -41 l-103 0 q-35 -1 -52 13 q-17 14 -17 54 l0 285 l108 0 q56 2 81 -23 q25 -26 38 -102 l8 0 l0 267 l-8 0 q-12 -77 -38 -102 q-27 -25 -81 -23 l-108 0 l0 228 q0 40 17 54 q17 14 52 13 l88 0 q67 1 97 -35 q29 -36 43 -117 l9 0 l0 170 l-364 0 q-17 -31 -152 -274 q-135 -243 -188 -333 q-26 -47 -51 -66 q-25 -19 -82 -18 l0 -9 ZM260 292 q65 118 126 229 q61 111 87 154 l0 -383 l-213 0 Z" /><glyph glyph-name="" unicode="B" d="M30 0 l316 0 q93 1 152 52 q60 50 62 144 q-2 65 -48 110 q-46 44 -119 59 q52 19 92 61 q39 43 41 108 q-2 86 -61 126 q-60 40 -149 40 l-286 0 l0 -9 q40 2 69 -15 q30 -17 31 -71 l0 -510 q-1 -55 -31 -71 q-29 -17 -69 -15 l0 -9 ZM304 369 q-47 1 -80 10 q-34 8 -35 10 l0 226 q0 29 16 48 q15 18 45 19 l66 0 q74 -1 112 -41 q37 -40 37 -109 q1 -67 -37 -114 q-38 -47 -124 -49 l0 0 ZM250 18 q-30 1 -45 19 q-16 19 -16 48 l0 286 q3 -1 39 -9 q37 -8 74 -9 q12 0 26 1 q14 1 27 2 q69 -9 105 -55 q36 -46 36 -108 q0 -77 -39 -125 q-38 -48 -111 -50 l-96 0 Z" /><glyph glyph-name="" unicode="C" d="M381 -10 q69 2 145 15 q76 13 82 15 l0 184 l-8 0 q-10 -113 -66 -155 q-57 -43 -153 -41 q-121 2 -196 95 q-75 92 -77 247 q2 155 77 248 q75 92 196 94 q94 0 143 -42 q50 -41 65 -119 l8 0 l0 156 q-7 2 -80 12 q-72 10 -122 11 q-172 -4 -263 -105 q-91 -101 -92 -255 q-1 -154 81 -255 q83 -101 260 -105 l0 0 Z" /><glyph glyph-name="" unicode="&#x106;" d="M360 751 l10 0 l129 176 l-68 0 l-71 -176 ZM381 -10 q69 2 145 15 q76 13 82 15 l0 184 l-8 0 q-10 -113 -66 -155 q-57 -43 -153 -41 q-121 2 -196 95 q-75 92 -77 247 q2 155 77 248 q75 92 196 94 q94 0 143 -42 q50 -41 65 -119 l8 0 l0 156 q-7 2 -80 12 q-72 10 -122 11 q-172 -4 -263 -105 q-91 -101 -92 -255 q-1 -154 81 -255 q83 -101 260 -105 l0 0 Z" /><glyph glyph-name="" unicode="&#x10c;" d="M381 772 l26 0 l121 144 l-10 0 l-124 -94 l-125 94 l-9 0 l121 -144 ZM381 -10 q69 2 145 15 q76 13 82 15 l0 184 l-8 0 q-10 -113 -66 -155 q-57 -43 -153 -41 q-121 2 -196 95 q-75 92 -77 247 q2 155 77 248 q75 92 196 94 q94 0 143 -42 q50 -41 65 -119 l8 0 l0 156 q-7 2 -80 12 q-72 10 -122 11 q-172 -4 -263 -105 q-91 -101 -92 -255 q-1 -154 81 -255 q83 -101 260 -105 l0 0 Z" /><glyph glyph-name="" unicode="Ç" d="M608 20 l0 184 l-8 0 q-10 -113 -66 -155 q-57 -43 -153 -41 q-121 2 -196 95 q-75 92 -77 247 q2 155 77 248 q75 92 196 94 q94 0 143 -42 q50 -41 65 -119 l8 0 l0 156 q-7 2 -80 12 q-72 10 -122 11 q-172 -4 -263 -105 q-91 -101 -92 -255 q-1 -154 81 -255 q83 -101 260 -105 l3 0 l-46 -74 q37 -1 57 -13 q21 -11 21 -34 q0 -22 -12 -35 q-12 -14 -33 -14 q-15 1 -26 8 q-10 6 -11 7 l0 -14 q1 -1 17 -10 q16 -10 41 -11 q29 0 46 17 q17 16 17 44 q0 29 -21 45 q-22 16 -63 20 l23 64 q69 4 139 16 q70 12 75 14 l0 0 Z" /><glyph glyph-name="" unicode="&#x10a;" d="M404 777 q19 1 32 14 q13 13 14 32 q-1 19 -14 32 q-13 12 -32 13 q-20 -1 -33 -13 q-13 -13 -13 -32 q0 -19 13 -32 q13 -13 33 -14 l0 0 ZM381 -10 q69 2 145 15 q76 13 82 15 l0 184 l-8 0 q-10 -113 -66 -155 q-57 -43 -153 -41 q-121 2 -196 95 q-75 92 -77 247 q2 155 77 248 q75 92 196 94 q94 0 143 -42 q50 -41 65 -119 l8 0 l0 156 q-7 2 -80 12 q-72 10 -122 11 q-172 -4 -263 -105 q-91 -101 -92 -255 q-1 -154 81 -255 q83 -101 260 -105 l0 0 Z" /><glyph glyph-name="" unicode="D" d="M30 0 l342 0 q173 3 260 100 q86 98 86 250 q0 152 -86 250 q-87 97 -260 100 l-342 0 l0 -9 q49 2 82 -10 q33 -13 34 -66 l0 -530 q-1 -52 -34 -65 q-33 -13 -82 -11 l0 -9 ZM318 18 q-49 -3 -82 5 q-34 9 -35 62 l0 530 q1 51 35 61 q33 9 82 6 l54 0 q132 -3 205 -95 q73 -92 74 -237 q-1 -145 -74 -237 q-73 -92 -205 -95 l-54 0 Z" /><glyph glyph-name="" unicode="Ð" d="M372 700 l-342 0 l0 -9 q49 2 82 -10 q33 -13 34 -66 l0 -257 l-76 0 l0 -19 l76 0 l0 -254 q-1 -52 -34 -65 q-33 -13 -82 -11 l0 -9 l342 0 q173 3 260 100 q86 98 86 250 q0 152 -86 250 q-87 97 -260 100 l0 0 ZM372 18 l-54 0 q-49 -3 -82 5 q-34 9 -35 62 l0 254 l142 0 l0 19 l-142 0 l0 257 q1 51 35 61 q33 9 82 6 l54 0 q132 -3 205 -95 q73 -92 74 -237 q-1 -145 -74 -237 q-73 -92 -205 -95 l0 0 Z" /><glyph glyph-name="" unicode="&#x10e;" d="M336 773 l26 0 l121 144 l-10 0 l-124 -94 l-125 94 l-9 0 l121 -144 ZM30 0 l342 0 q173 3 260 100 q86 98 86 250 q0 152 -86 250 q-87 97 -260 100 l-342 0 l0 -9 q49 2 82 -10 q33 -13 34 -66 l0 -530 q-1 -52 -34 -65 q-33 -13 -82 -11 l0 -9 ZM318 18 q-49 -3 -82 5 q-34 9 -35 62 l0 530 q1 51 35 61 q33 9 82 6 l54 0 q132 -3 205 -95 q73 -92 74 -237 q-1 -145 -74 -237 q-73 -92 -205 -95 l-54 0 Z" /><glyph glyph-name="" unicode="&#x110;" d="M372 700 l-342 0 l0 -9 q49 2 82 -10 q33 -13 34 -66 l0 -228 l-97 0 l0 -16 l97 0 l0 -286 q-1 -52 -34 -65 q-33 -13 -82 -11 l0 -9 l342 0 q173 3 260 100 q86 98 86 250 q0 152 -86 250 q-87 97 -260 100 l0 0 ZM372 18 l-54 0 q-49 -3 -82 5 q-34 9 -35 62 l0 286 l158 0 l0 16 l-158 0 l0 228 q1 51 35 61 q33 9 82 6 l54 0 q132 -3 205 -95 q73 -92 74 -237 q-1 -145 -74 -237 q-73 -92 -205 -95 l0 0 Z" /><glyph glyph-name="" unicode="E" d="M30 0 l522 0 l0 198 l-8 0 q-17 -104 -44 -143 q-27 -39 -96 -37 l-133 0 q-35 -1 -52 13 q-17 14 -17 54 l0 285 l138 0 q94 2 103 -23 q9 -26 16 -102 l8 0 l0 267 l-8 0 q-6 -77 -15 -102 q-9 -25 -104 -23 l-138 0 l0 228 q0 40 17 54 q17 14 52 13 l118 0 q68 4 100 -24 q33 -27 40 -128 l9 0 l20 170 l-528 0 l0 -9 q49 2 83 -11 q33 -14 34 -65 l0 -530 q-1 -52 -34 -65 q-34 -13 -83 -11 l0 -9 Z" /><glyph glyph-name="" unicode="É" d="M299 752 l10 0 l129 176 l-68 0 l-71 -176 ZM30 0 l522 0 l0 198 l-8 0 q-17 -104 -44 -143 q-27 -39 -96 -37 l-133 0 q-35 -1 -52 13 q-17 14 -17 54 l0 285 l138 0 q94 2 103 -23 q9 -26 16 -102 l8 0 l0 267 l-8 0 q-6 -77 -15 -102 q-9 -25 -104 -23 l-138 0 l0 228 q0 40 17 54 q17 14 52 13 l118 0 q68 4 100 -24 q33 -27 40 -128 l9 0 l20 170 l-528 0 l0 -9 q49 2 83 -11 q33 -14 34 -65 l0 -530 q-1 -52 -34 -65 q-34 -13 -83 -11 l0 -9 Z" /><glyph glyph-name="" unicode="&#x11a;" d="M320 773 l26 0 l121 144 l-10 0 l-124 -94 l-125 94 l-9 0 l121 -144 ZM30 0 l522 0 l0 198 l-8 0 q-17 -104 -44 -143 q-27 -39 -96 -37 l-133 0 q-35 -1 -52 13 q-17 14 -17 54 l0 285 l138 0 q94 2 103 -23 q9 -26 16 -102 l8 0 l0 267 l-8 0 q-6 -77 -15 -102 q-9 -25 -104 -23 l-138 0 l0 228 q0 40 17 54 q17 14 52 13 l118 0 q68 4 100 -24 q33 -27 40 -128 l9 0 l20 170 l-528 0 l0 -9 q49 2 83 -11 q33 -14 34 -65 l0 -530 q-1 -52 -34 -65 q-34 -13 -83 -11 l0 -9 Z" /><glyph glyph-name="" unicode="Ê" d="M199 743 l10 0 l124 95 l124 -95 l10 0 l-121 145 l-26 0 l-121 -145 ZM30 0 l522 0 l0 198 l-8 0 q-17 -104 -44 -143 q-27 -39 -96 -37 l-133 0 q-35 -1 -52 13 q-17 14 -17 54 l0 285 l138 0 q94 2 103 -23 q9 -26 16 -102 l8 0 l0 267 l-8 0 q-6 -77 -15 -102 q-9 -25 -104 -23 l-138 0 l0 228 q0 40 17 54 q17 14 52 13 l118 0 q68 4 100 -24 q33 -27 40 -128 l9 0 l20 170 l-528 0 l0 -9 q49 2 83 -11 q33 -14 34 -65 l0 -530 q-1 -52 -34 -65 q-34 -13 -83 -11 l0 -9 Z" /><glyph glyph-name="" unicode="&#x1ec6;" d="M199 743 l10 0 l124 95 l124 -95 l10 0 l-121 145 l-26 0 l-121 -145 ZM30 0 l522 0 l0 198 l-8 0 q-17 -104 -44 -143 q-27 -39 -96 -37 l-133 0 q-35 -1 -52 13 q-17 14 -17 54 l0 285 l138 0 q94 2 103 -23 q9 -26 16 -102 l8 0 l0 267 l-8 0 q-6 -77 -15 -102 q-9 -25 -104 -23 l-138 0 l0 228 q0 40 17 54 q17 14 52 13 l118 0 q68 4 100 -24 q33 -27 40 -128 l9 0 l20 170 l-528 0 l0 -9 q49 2 83 -11 q33 -14 34 -65 l0 -530 q-1 -52 -34 -65 q-34 -13 -83 -11 l0 -9 ZM347 -163 q19 1 32 14 q13 13 14 32 q-1 19 -14 32 q-13 12 -32 13 q-20 -1 -33 -13 q-13 -13 -13 -32 q0 -19 13 -32 q13 -13 33 -14 l0 0 Z" /><glyph glyph-name="" unicode="Ë" d="M269 786 q16 0 27 11 q11 11 11 27 q0 15 -11 26 q-11 11 -27 11 q-16 0 -26 -11 q-11 -11 -11 -26 q0 -16 11 -27 q10 -11 26 -11 l0 0 ZM403 786 q16 0 27 11 q11 11 11 27 q0 15 -11 26 q-11 11 -27 11 q-16 0 -26 -11 q-11 -11 -11 -26 q0 -16 11 -27 q10 -11 26 -11 l0 0 ZM30 0 l522 0 l0 198 l-8 0 q-17 -104 -44 -143 q-27 -39 -96 -37 l-133 0 q-35 -1 -52 13 q-17 14 -17 54 l0 285 l138 0 q94 2 103 -23 q9 -26 16 -102 l8 0 l0 267 l-8 0 q-6 -77 -15 -102 q-9 -25 -104 -23 l-138 0 l0 228 q0 40 17 54 q17 14 52 13 l118 0 q68 4 100 -24 q33 -27 40 -128 l9 0 l20 170 l-528 0 l0 -9 q49 2 83 -11 q33 -14 34 -65 l0 -530 q-1 -52 -34 -65 q-34 -13 -83 -11 l0 -9 Z" /><glyph glyph-name="" unicode="&#x116;" d="M343 778 q19 1 32 14 q13 13 14 32 q-1 19 -14 32 q-13 12 -32 13 q-20 -1 -33 -13 q-13 -13 -13 -32 q0 -19 13 -32 q13 -13 33 -14 l0 0 ZM30 0 l522 0 l0 198 l-8 0 q-17 -104 -44 -143 q-27 -39 -96 -37 l-133 0 q-35 -1 -52 13 q-17 14 -17 54 l0 285 l138 0 q94 2 103 -23 q9 -26 16 -102 l8 0 l0 267 l-8 0 q-6 -77 -15 -102 q-9 -25 -104 -23 l-138 0 l0 228 q0 40 17 54 q17 14 52 13 l118 0 q68 4 100 -24 q33 -27 40 -128 l9 0 l20 170 l-528 0 l0 -9 q49 2 83 -11 q33 -14 34 -65 l0 -530 q-1 -52 -34 -65 q-34 -13 -83 -11 l0 -9 Z" /><glyph glyph-name="" unicode="&#x1eb8;" d="M30 0 l522 0 l0 198 l-8 0 q-17 -104 -44 -143 q-27 -39 -96 -37 l-133 0 q-35 -1 -52 13 q-17 14 -17 54 l0 285 l138 0 q94 2 103 -23 q9 -26 16 -102 l8 0 l0 267 l-8 0 q-6 -77 -15 -102 q-9 -25 -104 -23 l-138 0 l0 228 q0 40 17 54 q17 14 52 13 l118 0 q68 4 100 -24 q33 -27 40 -128 l9 0 l20 170 l-528 0 l0 -9 q49 2 83 -11 q33 -14 34 -65 l0 -530 q-1 -52 -34 -65 q-34 -13 -83 -11 l0 -9 ZM347 -163 q19 1 32 14 q13 13 14 32 q-1 19 -14 32 q-13 12 -32 13 q-20 -1 -33 -13 q-13 -13 -13 -32 q0 -19 13 -32 q13 -13 33 -14 l0 0 Z" /><glyph glyph-name="" unicode="È" d="M341 753 l10 0 l-71 176 l-68 0 l129 -176 ZM30 0 l522 0 l0 198 l-8 0 q-17 -104 -44 -143 q-27 -39 -96 -37 l-133 0 q-35 -1 -52 13 q-17 14 -17 54 l0 285 l138 0 q94 2 103 -23 q9 -26 16 -102 l8 0 l0 267 l-8 0 q-6 -77 -15 -102 q-9 -25 -104 -23 l-138 0 l0 228 q0 40 17 54 q17 14 52 13 l118 0 q68 4 100 -24 q33 -27 40 -128 l9 0 l20 170 l-528 0 l0 -9 q49 2 83 -11 q33 -14 34 -65 l0 -530 q-1 -52 -34 -65 q-34 -13 -83 -11 l0 -9 Z" /><glyph glyph-name="" unicode="&#x1eba;" d="M310 762 q17 6 41 32 q25 25 27 55 q0 29 -22 50 q-21 20 -62 21 q-42 -3 -64 -26 q-22 -24 -22 -27 l4 -5 q7 7 26 18 q19 10 43 11 q31 -2 42 -20 q12 -19 11 -36 q-1 -25 -10 -42 q-10 -16 -19 -26 l5 -5 ZM30 0 l522 0 l0 198 l-8 0 q-17 -104 -44 -143 q-27 -39 -96 -37 l-133 0 q-35 -1 -52 13 q-17 14 -17 54 l0 285 l138 0 q94 2 103 -23 q9 -26 16 -102 l8 0 l0 267 l-8 0 q-6 -77 -15 -102 q-9 -25 -104 -23 l-138 0 l0 228 q0 40 17 54 q17 14 52 13 l118 0 q68 4 100 -24 q33 -27 40 -128 l9 0 l20 170 l-528 0 l0 -9 q49 2 83 -11 q33 -14 34 -65 l0 -530 q-1 -52 -34 -65 q-34 -13 -83 -11 l0 -9 Z" /><glyph glyph-name="" unicode="&#x112;" d="M223 796 l210 0 l0 25 l-210 0 l0 -25 ZM30 0 l522 0 l0 198 l-8 0 q-17 -104 -44 -143 q-27 -39 -96 -37 l-133 0 q-35 -1 -52 13 q-17 14 -17 54 l0 285 l138 0 q94 2 103 -23 q9 -26 16 -102 l8 0 l0 267 l-8 0 q-6 -77 -15 -102 q-9 -25 -104 -23 l-138 0 l0 228 q0 40 17 54 q17 14 52 13 l118 0 q68 4 100 -24 q33 -27 40 -128 l9 0 l20 170 l-528 0 l0 -9 q49 2 83 -11 q33 -14 34 -65 l0 -530 q-1 -52 -34 -65 q-34 -13 -83 -11 l0 -9 Z" /><glyph glyph-name="" unicode="&#x118;" d="M539 -168 q-18 0 -26 12 q-7 11 -6 29 q0 22 13 58 q12 37 32 69 l0 198 l-8 0 q-17 -104 -44 -143 q-27 -39 -96 -37 l-133 0 q-35 -1 -52 13 q-17 14 -17 54 l0 285 l138 0 q94 2 103 -23 q9 -26 16 -102 l8 0 l0 267 l-8 0 q-6 -77 -15 -102 q-9 -25 -104 -23 l-138 0 l0 228 q0 40 17 54 q17 14 52 13 l118 0 q68 4 100 -24 q33 -27 40 -128 l9 0 l20 170 l-528 0 l0 -9 q49 2 83 -11 q33 -14 34 -65 l0 -530 q-1 -52 -34 -65 q-34 -13 -83 -11 l0 -9 l508 0 q-25 -31 -48 -68 q-22 -38 -24 -73 q1 -28 18 -41 q17 -14 44 -14 q27 1 43 11 q15 9 15 10 l0 22 q-1 -1 -14 -7 q-14 -7 -33 -8 l0 0 Z" /><glyph glyph-name="" unicode="&#x1ebc;" d="M394 785 q31 1 42 23 q12 22 17 52 l-6 0 q1 -2 -10 -17 q-10 -16 -40 -18 q-32 2 -61 18 q-29 16 -64 18 q-30 -1 -41 -23 q-12 -22 -18 -52 l6 0 q-1 2 10 18 q10 15 40 17 q29 -2 60 -18 q31 -16 65 -18 l0 0 ZM30 0 l522 0 l0 198 l-8 0 q-17 -104 -44 -143 q-27 -39 -96 -37 l-133 0 q-35 -1 -52 13 q-17 14 -17 54 l0 285 l138 0 q94 2 103 -23 q9 -26 16 -102 l8 0 l0 267 l-8 0 q-6 -77 -15 -102 q-9 -25 -104 -23 l-138 0 l0 228 q0 40 17 54 q17 14 52 13 l118 0 q68 4 100 -24 q33 -27 40 -128 l9 0 l20 170 l-528 0 l0 -9 q49 2 83 -11 q33 -14 34 -65 l0 -530 q-1 -52 -34 -65 q-34 -13 -83 -11 l0 -9 Z" /><glyph glyph-name="" unicode="F" d="M30 0 l310 0 l0 9 q-70 -2 -105 10 q-35 13 -35 66 l0 285 l133 0 q56 2 81 -23 q25 -26 38 -102 l8 0 l0 267 l-8 0 q-12 -77 -38 -102 q-26 -25 -81 -23 l-133 0 l0 228 q0 40 17 54 q18 14 52 13 l114 0 q68 3 100 -28 q32 -30 40 -124 l8 0 l20 170 l-521 0 l0 -9 q49 2 82 -11 q33 -14 34 -65 l0 -530 q-1 -51 -34 -65 q-33 -13 -82 -11 l0 -9 Z" /><glyph glyph-name="" unicode="G" d="M371 -10 q96 2 166 16 q69 13 72 15 l0 238 q0 37 13 56 q12 20 48 20 l0 9 l-246 0 l0 -9 q63 2 97 -10 q34 -13 34 -66 l0 -202 q0 -3 -46 -24 q-46 -22 -138 -25 q-118 2 -190 95 q-71 92 -73 247 q2 155 77 248 q75 92 196 94 q94 0 144 -42 q50 -41 64 -119 l8 0 l0 156 q-7 2 -80 12 q-72 10 -122 11 q-172 -4 -263 -105 q-91 -101 -92 -255 q-1 -154 78 -255 q79 -101 253 -105 l0 0 Z" /><glyph glyph-name="" unicode="&#x11e;" d="M383 764 q78 9 109 69 q30 60 29 69 l-8 0 q0 -6 -32 -48 q-32 -42 -99 -48 q-67 6 -99 48 q-31 42 -31 48 l-7 0 q-1 -9 29 -69 q30 -60 109 -69 l0 0 ZM371 -10 q96 2 166 16 q69 13 72 15 l0 238 q0 37 13 56 q12 20 48 20 l0 9 l-246 0 l0 -9 q63 2 97 -10 q34 -13 34 -66 l0 -202 q0 -3 -46 -24 q-46 -22 -138 -25 q-118 2 -190 95 q-71 92 -73 247 q2 155 77 248 q75 92 196 94 q94 0 144 -42 q50 -41 64 -119 l8 0 l0 156 q-7 2 -80 12 q-72 10 -122 11 q-172 -4 -263 -105 q-91 -101 -92 -255 q-1 -154 78 -255 q79 -101 253 -105 l0 0 Z" /><glyph glyph-name="" unicode="&#x122;" d="M371 -10 q96 2 166 16 q69 13 72 15 l0 238 q0 37 13 56 q12 20 48 20 l0 9 l-246 0 l0 -9 q63 2 97 -10 q34 -13 34 -66 l0 -202 q0 -3 -46 -24 q-46 -22 -138 -25 q-118 2 -190 95 q-71 92 -73 247 q2 155 77 248 q75 92 196 94 q94 0 144 -42 q50 -41 64 -119 l8 0 l0 156 q-7 2 -80 12 q-72 10 -122 11 q-172 -4 -263 -105 q-91 -101 -92 -255 q-1 -154 78 -255 q79 -101 253 -105 l0 0 ZM291 -229 l10 0 l92 184 l-54 12 l-48 -196 Z" /><glyph glyph-name="" unicode="&#x120;" d="M394 787 q19 1 32 14 q13 13 14 32 q-1 19 -14 32 q-13 12 -32 13 q-20 -1 -33 -13 q-13 -13 -13 -32 q0 -19 13 -32 q13 -13 33 -14 l0 0 ZM371 -10 q96 2 166 16 q69 13 72 15 l0 238 q0 37 13 56 q12 20 48 20 l0 9 l-246 0 l0 -9 q63 2 97 -10 q34 -13 34 -66 l0 -202 q0 -3 -46 -24 q-46 -22 -138 -25 q-118 2 -190 95 q-71 92 -73 247 q2 155 77 248 q75 92 196 94 q94 0 144 -42 q50 -41 64 -119 l8 0 l0 156 q-7 2 -80 12 q-72 10 -122 11 q-172 -4 -263 -105 q-91 -101 -92 -255 q-1 -154 78 -255 q79 -101 253 -105 l0 0 Z" /><glyph glyph-name="" unicode="H" d="M719 691 l0 9 l-273 0 l0 -9 q53 1 78 -14 q24 -16 24 -62 l0 -228 l-346 0 l0 228 q0 44 24 61 q25 16 78 15 l0 9 l-274 0 l0 -9 q49 2 83 -10 q33 -13 34 -66 l0 -530 q-1 -52 -34 -65 q-34 -13 -83 -11 l0 -9 l274 0 l0 9 q-53 -1 -78 14 q-24 16 -24 62 l0 285 l346 0 l0 -285 q0 -44 -24 -60 q-25 -17 -78 -16 l0 -9 l273 0 l0 9 q-49 -2 -82 10 q-33 12 -34 66 l0 530 q1 52 34 65 q33 13 82 11 l0 0 Z" /><glyph glyph-name="" unicode="&#x126;" d="M731 691 l0 9 l-273 0 l0 -9 q53 1 78 -14 q24 -16 24 -62 l0 -86 l-346 0 l0 86 q0 44 24 61 q25 16 78 15 l0 9 l-274 0 l0 -9 q49 2 83 -10 q33 -13 34 -66 l0 -86 l-100 0 l0 -17 l100 0 l0 -427 q-1 -52 -34 -65 q-34 -13 -83 -11 l0 -9 l274 0 l0 9 q-53 -1 -78 14 q-24 16 -24 62 l0 285 l346 0 l0 -285 q0 -44 -24 -60 q-25 -17 -78 -16 l0 -9 l273 0 l0 9 q-49 -2 -82 10 q-33 12 -34 66 l0 427 l99 0 l0 17 l-99 0 l0 86 q1 52 34 65 q33 13 82 11 l0 0 ZM560 387 l-346 0 l0 125 l346 0 l0 -125 Z" /><glyph glyph-name="" unicode="I" d="M30 0 l287 0 l0 9 q-49 -2 -82 10 q-33 12 -34 66 l0 530 q1 52 34 65 q33 13 82 11 l0 9 l-287 0 l0 -9 q49 2 83 -10 q33 -13 34 -66 l0 -530 q-1 -52 -34 -65 q-34 -13 -83 -11 l0 -9 Z" /><glyph glyph-name="" unicode="&#x132;" d="M30 0 l287 0 l0 9 q-49 -2 -82 10 q-33 12 -34 66 l0 530 q1 52 34 65 q33 13 82 11 l0 9 l-287 0 l0 -9 q49 2 83 -10 q33 -13 34 -66 l0 -530 q-1 -52 -34 -65 q-34 -13 -83 -11 l0 -9 ZM494 -10 q118 3 152 46 q35 43 31 92 l0 487 q1 52 34 65 q33 13 82 11 l0 9 l-316 0 l0 -9 q63 2 103 -10 q41 -13 42 -66 l0 -469 q4 -43 -14 -89 q-17 -45 -98 -49 q-67 -1 -102 38 q-36 38 -52 123 l-9 0 l0 -156 q4 -2 52 -12 q48 -10 95 -11 l0 0 Z" /><glyph glyph-name="" unicode="Í" d="M138 752 l10 0 l129 176 l-68 0 l-71 -176 ZM30 0 l287 0 l0 9 q-49 -2 -82 10 q-33 12 -34 66 l0 530 q1 52 34 65 q33 13 82 11 l0 9 l-287 0 l0 -9 q49 2 83 -10 q33 -13 34 -66 l0 -530 q-1 -52 -34 -65 q-34 -13 -83 -11 l0 -9 Z" /><glyph glyph-name="" unicode="&#x1cf;" d="M159 773 l26 0 l121 144 l-10 0 l-124 -94 l-125 94 l-9 0 l121 -144 ZM30 0 l287 0 l0 9 q-49 -2 -82 10 q-33 12 -34 66 l0 530 q1 52 34 65 q33 13 82 11 l0 9 l-287 0 l0 -9 q49 2 83 -10 q33 -13 34 -66 l0 -530 q-1 -52 -34 -65 q-34 -13 -83 -11 l0 -9 Z" /><glyph glyph-name="" unicode="Î" d="M38 743 l10 0 l124 95 l124 -95 l10 0 l-121 145 l-26 0 l-121 -145 ZM30 0 l287 0 l0 9 q-49 -2 -82 10 q-33 12 -34 66 l0 530 q1 52 34 65 q33 13 82 11 l0 9 l-287 0 l0 -9 q49 2 83 -10 q33 -13 34 -66 l0 -530 q-1 -52 -34 -65 q-34 -13 -83 -11 l0 -9 Z" /><glyph glyph-name="" unicode="Ï" d="M108 786 q16 0 27 11 q11 11 11 27 q0 15 -11 26 q-11 11 -27 11 q-16 0 -26 -11 q-11 -11 -11 -26 q0 -16 11 -27 q10 -11 26 -11 l0 0 ZM242 786 q16 0 27 11 q11 11 11 27 q0 15 -11 26 q-11 11 -27 11 q-16 0 -26 -11 q-11 -11 -11 -26 q0 -16 11 -27 q10 -11 26 -11 l0 0 ZM30 0 l287 0 l0 9 q-49 -2 -82 10 q-33 12 -34 66 l0 530 q1 52 34 65 q33 13 82 11 l0 9 l-287 0 l0 -9 q49 2 83 -10 q33 -13 34 -66 l0 -530 q-1 -52 -34 -65 q-34 -13 -83 -11 l0 -9 Z" /><glyph glyph-name="" unicode="&#x130;" d="M182 778 q19 1 32 14 q13 13 14 32 q-1 19 -14 32 q-13 12 -32 13 q-20 -1 -33 -13 q-13 -13 -13 -32 q0 -19 13 -32 q13 -13 33 -14 l0 0 ZM30 0 l287 0 l0 9 q-49 -2 -82 10 q-33 12 -34 66 l0 530 q1 52 34 65 q33 13 82 11 l0 9 l-287 0 l0 -9 q49 2 83 -10 q33 -13 34 -66 l0 -530 q-1 -52 -34 -65 q-34 -13 -83 -11 l0 -9 Z" /><glyph glyph-name="" unicode="&#x1eca;" d="M30 0 l287 0 l0 9 q-49 -2 -82 10 q-33 12 -34 66 l0 530 q1 52 34 65 q33 13 82 11 l0 9 l-287 0 l0 -9 q49 2 83 -10 q33 -13 34 -66 l0 -530 q-1 -52 -34 -65 q-34 -13 -83 -11 l0 -9 ZM180 -163 q19 1 32 14 q13 13 14 32 q-1 19 -14 32 q-13 12 -32 13 q-20 -1 -33 -13 q-13 -13 -13 -32 q0 -19 13 -32 q13 -13 33 -14 l0 0 Z" /><glyph glyph-name="" unicode="Ì" d="M180 753 l10 0 l-71 176 l-68 0 l129 -176 ZM30 0 l287 0 l0 9 q-49 -2 -82 10 q-33 12 -34 66 l0 530 q1 52 34 65 q33 13 82 11 l0 9 l-287 0 l0 -9 q49 2 83 -10 q33 -13 34 -66 l0 -530 q-1 -52 -34 -65 q-34 -13 -83 -11 l0 -9 Z" /><glyph glyph-name="" unicode="&#x1ec8;" d="M149 762 q17 6 41 32 q25 25 27 55 q0 29 -22 50 q-21 20 -62 21 q-42 -3 -64 -26 q-22 -24 -22 -27 l4 -5 q7 7 26 18 q19 10 43 11 q31 -2 42 -20 q12 -19 11 -36 q-1 -25 -10 -42 q-10 -16 -19 -26 l5 -5 ZM30 0 l287 0 l0 9 q-49 -2 -82 10 q-33 12 -34 66 l0 530 q1 52 34 65 q33 13 82 11 l0 9 l-287 0 l0 -9 q49 2 83 -10 q33 -13 34 -66 l0 -530 q-1 -52 -34 -65 q-34 -13 -83 -11 l0 -9 Z" /><glyph glyph-name="" unicode="&#x12a;" d="M62 796 l210 0 l0 25 l-210 0 l0 -25 ZM30 0 l287 0 l0 9 q-49 -2 -82 10 q-33 12 -34 66 l0 530 q1 52 34 65 q33 13 82 11 l0 9 l-287 0 l0 -9 q49 2 83 -10 q33 -13 34 -66 l0 -530 q-1 -52 -34 -65 q-34 -13 -83 -11 l0 -9 Z" /><glyph glyph-name="" unicode="&#x12e;" d="M304 -168 q-18 0 -26 12 q-7 11 -6 29 q0 22 13 58 q12 37 32 69 l0 9 q-49 -2 -82 10 q-33 12 -34 66 l0 530 q1 52 34 65 q33 13 82 11 l0 9 l-287 0 l0 -9 q49 2 83 -10 q33 -13 34 -66 l0 -530 q-1 -52 -34 -65 q-34 -13 -83 -11 l0 -9 l273 0 q-25 -31 -48 -68 q-22 -38 -24 -73 q1 -28 18 -41 q17 -14 44 -14 q27 1 43 11 q15 9 15 10 l0 22 q-1 -1 -14 -7 q-14 -7 -33 -8 l0 0 Z" /><glyph glyph-name="" unicode="&#x128;" d="M233 785 q31 1 42 23 q12 22 17 52 l-6 0 q1 -2 -10 -17 q-10 -16 -40 -18 q-32 2 -61 18 q-29 16 -64 18 q-30 -1 -41 -23 q-12 -22 -18 -52 l6 0 q-1 2 10 18 q10 15 40 17 q29 -2 60 -18 q31 -16 65 -18 l0 0 ZM30 0 l287 0 l0 9 q-49 -2 -82 10 q-33 12 -34 66 l0 530 q1 52 34 65 q33 13 82 11 l0 9 l-287 0 l0 -9 q49 2 83 -10 q33 -13 34 -66 l0 -530 q-1 -52 -34 -65 q-34 -13 -83 -11 l0 -9 Z" /><glyph glyph-name="" unicode="J" d="M147 -10 q118 3 152 46 q35 43 31 92 l0 487 q1 52 34 65 q33 13 82 11 l0 9 l-316 0 l0 -9 q63 2 103 -10 q41 -13 42 -66 l0 -469 q4 -43 -14 -89 q-17 -45 -98 -49 q-67 -1 -102 38 q-36 38 -52 123 l-9 0 l0 -156 q4 -2 52 -12 q48 -10 95 -11 l0 0 Z" /><glyph glyph-name="" unicode="K" d="M30 0 l287 0 l0 9 q-51 -2 -83 11 q-32 13 -33 65 l0 217 q13 12 36 35 q23 23 53 52 q39 -50 133 -174 q95 -123 118 -154 q20 -29 10 -41 q-11 -11 -56 -11 l0 -9 l225 0 l0 9 q-30 0 -59 18 q-29 18 -53 51 q-33 44 -136 175 q-103 131 -140 178 q60 58 123 117 q62 60 107 102 q36 32 62 37 q27 6 49 4 l0 9 l-191 0 l0 -9 l37 0 q21 0 29 -10 q7 -11 -14 -34 q-72 -73 -181 -179 q-109 -106 -152 -148 l0 295 q1 53 34 66 q33 12 82 10 l0 9 l-287 0 l0 -9 q49 2 82 -9 q33 -12 34 -67 l0 -530 q-1 -54 -34 -66 q-33 -12 -82 -10 l0 -9 Z" /><glyph glyph-name="" unicode="&#x136;" d="M30 0 l287 0 l0 9 q-51 -2 -83 11 q-32 13 -33 65 l0 217 q13 12 36 35 q23 23 53 52 q39 -50 133 -174 q95 -123 118 -154 q20 -29 10 -41 q-11 -11 -56 -11 l0 -9 l225 0 l0 9 q-30 0 -59 18 q-29 18 -53 51 q-33 44 -136 175 q-103 131 -140 178 q60 58 123 117 q62 60 107 102 q36 32 62 37 q27 6 49 4 l0 9 l-191 0 l0 -9 l37 0 q21 0 29 -10 q7 -11 -14 -34 q-72 -73 -181 -179 q-109 -106 -152 -148 l0 295 q1 53 34 66 q33 12 82 10 l0 9 l-287 0 l0 -9 q49 2 82 -9 q33 -12 34 -67 l0 -530 q-1 -54 -34 -66 q-33 -12 -82 -10 l0 -9 ZM294 -229 l10 0 l92 184 l-54 12 l-48 -196 Z" /><glyph glyph-name="" unicode="L" d="M30 0 l521 0 l0 198 l-9 0 q-16 -97 -43 -139 q-27 -42 -97 -41 l-132 0 q-35 -1 -53 13 q-17 14 -17 54 l0 530 q1 52 35 65 q33 13 83 11 l0 9 l-288 0 l0 -9 q49 2 82 -10 q33 -13 34 -66 l0 -530 q-1 -52 -34 -65 q-33 -13 -82 -11 l0 -9 Z" /><glyph glyph-name="" unicode="&#x139;" d="M190 742 l10 0 l129 146 l-68 0 l-71 -146 ZM30 0 l521 0 l0 198 l-9 0 q-16 -97 -43 -139 q-27 -42 -97 -41 l-132 0 q-35 -1 -53 13 q-17 14 -17 54 l0 530 q1 52 35 65 q33 13 83 11 l0 9 l-288 0 l0 -9 q49 2 82 -10 q33 -13 34 -66 l0 -530 q-1 -52 -34 -65 q-33 -13 -82 -11 l0 -9 Z" /><glyph glyph-name="" unicode="&#x13d;" d="M380 482 q5 0 39 29 q33 29 38 87 q-4 58 -36 87 q-31 29 -36 29 l-7 -5 q18 -20 26 -49 q8 -30 8 -62 q0 -31 -10 -61 q-11 -29 -29 -50 l7 -5 ZM30 0 l521 0 l0 198 l-9 0 q-16 -97 -43 -139 q-27 -42 -97 -41 l-132 0 q-35 -1 -53 13 q-17 14 -17 54 l0 530 q1 52 35 65 q33 13 83 11 l0 9 l-288 0 l0 -9 q49 2 82 -10 q33 -13 34 -66 l0 -530 q-1 -52 -34 -65 q-33 -13 -82 -11 l0 -9 Z" /><glyph glyph-name="" unicode="&#x13b;" d="M30 0 l521 0 l0 198 l-9 0 q-16 -97 -43 -139 q-27 -42 -97 -41 l-132 0 q-35 -1 -53 13 q-17 14 -17 54 l0 530 q1 52 35 65 q33 13 83 11 l0 9 l-288 0 l0 -9 q49 2 82 -10 q33 -13 34 -66 l0 -530 q-1 -52 -34 -65 q-33 -13 -82 -11 l0 -9 ZM207 -229 l10 0 l92 184 l-54 12 l-48 -196 Z" /><glyph glyph-name="" unicode="&#x13f;" d="M30 0 l521 0 l0 198 l-9 0 q-16 -97 -43 -139 q-27 -42 -97 -41 l-132 0 q-35 -1 -53 13 q-17 14 -17 54 l0 530 q1 52 35 65 q33 13 83 11 l0 9 l-288 0 l0 -9 q49 2 82 -10 q33 -13 34 -66 l0 -530 q-1 -52 -34 -65 q-33 -13 -82 -11 l0 -9 ZM394 289 q19 1 32 14 q13 13 14 32 q-1 19 -14 32 q-13 12 -32 13 q-20 -1 -33 -13 q-13 -13 -13 -32 q0 -19 13 -32 q13 -13 33 -14 l0 0 Z" /><glyph glyph-name="" unicode="&#x141;" d="M42 0 l521 0 l0 198 l-9 0 q-16 -97 -43 -139 q-27 -42 -97 -41 l-132 0 q-35 -1 -53 13 q-17 14 -17 54 l0 268 l106 48 l0 19 l-106 -48 l0 243 q1 52 35 65 q33 13 83 11 l0 9 l-288 0 l0 -9 q49 2 82 -10 q33 -13 34 -66 l0 -267 l-92 -42 l0 -19 l92 42 l0 -244 q-1 -52 -34 -65 q-33 -13 -82 -11 l0 -9 Z" /><glyph glyph-name="" unicode="M" d="M20 0 l237 0 l0 8 q-49 -2 -81 13 q-33 14 -32 64 l28 572 l279 -657 l28 0 l264 656 l39 -571 q2 -49 -32 -64 q-35 -15 -84 -13 l0 -8 l275 0 l0 8 q-47 -1 -72 13 q-26 15 -30 64 l-45 529 q-2 49 28 64 q30 14 74 13 l0 9 l-156 0 l-255 -633 l-268 633 l-167 0 l0 -9 q48 1 75 -16 q27 -16 27 -61 q-1 -26 -13 -238 q-11 -211 -15 -291 q-3 -47 -30 -62 q-27 -16 -74 -15 l0 -8 Z" /><glyph glyph-name="" unicode="N" d="M30 0 l234 0 l0 9 q-49 -2 -82 11 q-34 13 -35 65 l0 561 l445 -646 l17 0 l0 615 q0 44 24 61 q25 16 78 15 l0 9 l-235 0 l0 -9 q49 2 82 -10 q33 -13 34 -66 l0 -504 l-404 589 l-158 0 l0 -9 q53 1 78 -15 q24 -17 24 -61 l0 -530 q0 -46 -24 -62 q-25 -15 -78 -14 l0 -9 Z" /><glyph glyph-name="" unicode="&#x143;" d="M338 752 l10 0 l129 176 l-68 0 l-71 -176 ZM30 0 l234 0 l0 9 q-49 -2 -82 11 q-34 13 -35 65 l0 561 l445 -646 l17 0 l0 615 q0 44 24 61 q25 16 78 15 l0 9 l-235 0 l0 -9 q49 2 82 -10 q33 -13 34 -66 l0 -504 l-404 589 l-158 0 l0 -9 q53 1 78 -15 q24 -17 24 -61 l0 -530 q0 -46 -24 -62 q-25 -15 -78 -14 l0 -9 Z" /><glyph glyph-name="" unicode="&#x147;" d="M359 773 l26 0 l121 144 l-10 0 l-124 -94 l-125 94 l-9 0 l121 -144 ZM30 0 l234 0 l0 9 q-49 -2 -82 11 q-34 13 -35 65 l0 561 l445 -646 l17 0 l0 615 q0 44 24 61 q25 16 78 15 l0 9 l-235 0 l0 -9 q49 2 82 -10 q33 -13 34 -66 l0 -504 l-404 589 l-158 0 l0 -9 q53 1 78 -15 q24 -17 24 -61 l0 -530 q0 -46 -24 -62 q-25 -15 -78 -14 l0 -9 Z" /><glyph glyph-name="" unicode="&#x145;" d="M30 0 l234 0 l0 9 q-49 -2 -82 11 q-34 13 -35 65 l0 561 l445 -646 l17 0 l0 615 q0 44 24 61 q25 16 78 15 l0 9 l-235 0 l0 -9 q49 2 82 -10 q33 -13 34 -66 l0 -504 l-404 589 l-158 0 l0 -9 q53 1 78 -15 q24 -17 24 -61 l0 -530 q0 -46 -24 -62 q-25 -15 -78 -14 l0 -9 ZM305 -229 l10 0 l92 184 l-54 12 l-48 -196 Z" /><glyph glyph-name="" unicode="&#x14a;" d="M489 -215 q74 2 104 43 q29 41 28 100 l0 688 q0 44 24 61 q25 16 78 15 l0 8 l-235 0 l0 -8 q49 2 82 -10 q33 -13 34 -66 l0 -504 l-404 588 l-158 0 l0 -8 q53 1 78 -15 q24 -17 24 -61 l0 -530 q0 -46 -24 -62 q-25 -15 -78 -14 l0 -10 l234 0 l0 10 q-49 -2 -82 11 q-34 13 -35 65 l0 561 l445 -647 l0 -59 q1 -55 -21 -96 q-22 -40 -82 -42 q-21 -1 -69 17 q-48 18 -83 71 l-26 -81 q3 -2 54 -12 q50 -11 112 -13 l0 0 Z" /><glyph glyph-name="" unicode="Ñ" d="M433 785 q31 1 42 23 q12 22 17 52 l-6 0 q1 -2 -10 -17 q-10 -16 -40 -18 q-32 2 -61 18 q-29 16 -64 18 q-30 -1 -41 -23 q-12 -22 -18 -52 l6 0 q-1 2 10 18 q10 15 40 17 q29 -2 60 -18 q31 -16 65 -18 l0 0 ZM30 0 l234 0 l0 9 q-49 -2 -82 11 q-34 13 -35 65 l0 561 l445 -646 l17 0 l0 615 q0 44 24 61 q25 16 78 15 l0 9 l-235 0 l0 -9 q49 2 82 -10 q33 -13 34 -66 l0 -504 l-404 589 l-158 0 l0 -9 q53 1 78 -15 q24 -17 24 -61 l0 -530 q0 -46 -24 -62 q-25 -15 -78 -14 l0 -9 Z" /><glyph glyph-name="" unicode="O" d="M386 -10 q173 4 260 105 q87 102 87 255 q0 153 -87 255 q-87 101 -260 105 q-173 -4 -259 -105 q-87 -102 -87 -255 q0 -153 87 -255 q86 -101 259 -105 l0 0 ZM386 8 q-131 4 -204 100 q-74 97 -75 242 q1 145 75 242 q73 96 204 100 q132 -4 206 -100 q74 -97 75 -242 q-1 -145 -75 -242 q-74 -96 -206 -100 l0 0 Z" /><glyph glyph-name="" unicode="Ó" d="M354 752 l10 0 l129 176 l-68 0 l-71 -176 ZM386 -10 q173 4 260 105 q87 102 87 255 q0 153 -87 255 q-87 101 -260 105 q-173 -4 -259 -105 q-87 -102 -87 -255 q0 -153 87 -255 q86 -101 259 -105 l0 0 ZM386 8 q-131 4 -204 100 q-74 97 -75 242 q1 145 75 242 q73 96 204 100 q132 -4 206 -100 q74 -97 75 -242 q-1 -145 -75 -242 q-74 -96 -206 -100 l0 0 Z" /><glyph glyph-name="" unicode="&#x1d1;" d="M375 773 l26 0 l121 144 l-10 0 l-124 -94 l-125 94 l-9 0 l121 -144 ZM386 -10 q173 4 260 105 q87 102 87 255 q0 153 -87 255 q-87 101 -260 105 q-173 -4 -259 -105 q-87 -102 -87 -255 q0 -153 87 -255 q86 -101 259 -105 l0 0 ZM386 8 q-131 4 -204 100 q-74 97 -75 242 q1 145 75 242 q73 96 204 100 q132 -4 206 -100 q74 -97 75 -242 q-1 -145 -75 -242 q-74 -96 -206 -100 l0 0 Z" /><glyph glyph-name="" unicode="Ô" d="M254 743 l10 0 l124 95 l124 -95 l10 0 l-121 145 l-26 0 l-121 -145 ZM386 -10 q173 4 260 105 q87 102 87 255 q0 153 -87 255 q-87 101 -260 105 q-173 -4 -259 -105 q-87 -102 -87 -255 q0 -153 87 -255 q86 -101 259 -105 l0 0 ZM386 8 q-131 4 -204 100 q-74 97 -75 242 q1 145 75 242 q73 96 204 100 q132 -4 206 -100 q74 -97 75 -242 q-1 -145 -75 -242 q-74 -96 -206 -100 l0 0 Z" /><glyph glyph-name="" unicode="&#x1ed8;" d="M254 743 l10 0 l124 95 l124 -95 l10 0 l-121 145 l-26 0 l-121 -145 ZM386 -10 q173 4 260 105 q87 102 87 255 q0 153 -87 255 q-87 101 -260 105 q-173 -4 -259 -105 q-87 -102 -87 -255 q0 -153 87 -255 q86 -101 259 -105 l0 0 ZM386 8 q-131 4 -204 100 q-74 97 -75 242 q1 145 75 242 q73 96 204 100 q132 -4 206 -100 q74 -97 75 -242 q-1 -145 -75 -242 q-74 -96 -206 -100 l0 0 ZM387 -163 q19 1 32 14 q13 13 14 32 q-1 19 -14 32 q-13 12 -32 13 q-20 -1 -33 -13 q-13 -13 -13 -32 q0 -19 13 -32 q13 -13 33 -14 l0 0 Z" /><glyph glyph-name="" unicode="Ö" d="M324 786 q16 0 27 11 q11 11 11 27 q0 15 -11 26 q-11 11 -27 11 q-16 0 -26 -11 q-11 -11 -11 -26 q0 -16 11 -27 q10 -11 26 -11 l0 0 ZM458 786 q16 0 27 11 q11 11 11 27 q0 15 -11 26 q-11 11 -27 11 q-16 0 -26 -11 q-11 -11 -11 -26 q0 -16 11 -27 q10 -11 26 -11 l0 0 ZM386 -10 q173 4 260 105 q87 102 87 255 q0 153 -87 255 q-87 101 -260 105 q-173 -4 -259 -105 q-87 -102 -87 -255 q0 -153 87 -255 q86 -101 259 -105 l0 0 ZM386 8 q-131 4 -204 100 q-74 97 -75 242 q1 145 75 242 q73 96 204 100 q132 -4 206 -100 q74 -97 75 -242 q-1 -145 -75 -242 q-74 -96 -206 -100 l0 0 Z" /><glyph glyph-name="" unicode="&#x1ecc;" d="M386 -10 q173 4 260 105 q87 102 87 255 q0 153 -87 255 q-87 101 -260 105 q-173 -4 -259 -105 q-87 -102 -87 -255 q0 -153 87 -255 q86 -101 259 -105 l0 0 ZM386 8 q-131 4 -204 100 q-74 97 -75 242 q1 145 75 242 q73 96 204 100 q132 -4 206 -100 q74 -97 75 -242 q-1 -145 -75 -242 q-74 -96 -206 -100 l0 0 ZM387 -163 q19 1 32 14 q13 13 14 32 q-1 19 -14 32 q-13 12 -32 13 q-20 -1 -33 -13 q-13 -13 -13 -32 q0 -19 13 -32 q13 -13 33 -14 l0 0 Z" /><glyph glyph-name="" unicode="Ò" d="M396 753 l10 0 l-71 176 l-68 0 l129 -176 ZM386 -10 q173 4 260 105 q87 102 87 255 q0 153 -87 255 q-87 101 -260 105 q-173 -4 -259 -105 q-87 -102 -87 -255 q0 -153 87 -255 q86 -101 259 -105 l0 0 ZM386 8 q-131 4 -204 100 q-74 97 -75 242 q1 145 75 242 q73 96 204 100 q132 -4 206 -100 q74 -97 75 -242 q-1 -145 -75 -242 q-74 -96 -206 -100 l0 0 Z" /><glyph glyph-name="" unicode="&#x1ece;" d="M365 762 q17 6 41 32 q25 25 27 55 q0 29 -22 50 q-21 20 -62 21 q-42 -3 -64 -26 q-22 -24 -22 -27 l4 -5 q7 7 26 18 q19 10 43 11 q31 -2 42 -20 q12 -19 11 -36 q-1 -25 -10 -42 q-10 -16 -19 -26 l5 -5 ZM386 -10 q173 4 260 105 q87 102 87 255 q0 153 -87 255 q-87 101 -260 105 q-173 -4 -259 -105 q-87 -102 -87 -255 q0 -153 87 -255 q86 -101 259 -105 l0 0 ZM386 8 q-131 4 -204 100 q-74 97 -75 242 q1 145 75 242 q73 96 204 100 q132 -4 206 -100 q74 -97 75 -242 q-1 -145 -75 -242 q-74 -96 -206 -100 l0 0 Z" /><glyph glyph-name="" unicode="&#x150;" d="M303 752 l10 0 l129 176 l-68 0 l-71 -176 ZM410 752 l10 0 l129 176 l-68 0 l-71 -176 ZM386 -10 q173 4 260 105 q87 102 87 255 q0 153 -87 255 q-87 101 -260 105 q-173 -4 -259 -105 q-87 -102 -87 -255 q0 -153 87 -255 q86 -101 259 -105 l0 0 ZM386 8 q-131 4 -204 100 q-74 97 -75 242 q1 145 75 242 q73 96 204 100 q132 -4 206 -100 q74 -97 75 -242 q-1 -145 -75 -242 q-74 -96 -206 -100 l0 0 Z" /><glyph glyph-name="" unicode="&#x14c;" d="M278 796 l210 0 l0 25 l-210 0 l0 -25 ZM386 -10 q173 4 260 105 q87 102 87 255 q0 153 -87 255 q-87 101 -260 105 q-173 -4 -259 -105 q-87 -102 -87 -255 q0 -153 87 -255 q86 -101 259 -105 l0 0 ZM386 8 q-131 4 -204 100 q-74 97 -75 242 q1 145 75 242 q73 96 204 100 q132 -4 206 -100 q74 -97 75 -242 q-1 -145 -75 -242 q-74 -96 -206 -100 l0 0 Z" /><glyph glyph-name="" unicode="Ø" d="M175 -50 l31 0 l44 73 q34 -16 74 -24 q40 -9 87 -9 q173 4 260 105 q87 102 87 255 q0 94 -34 171 q-33 77 -101 127 l43 72 l-31 0 l-34 -57 q-38 23 -86 35 q-47 12 -104 12 q-173 -4 -259 -105 q-87 -102 -87 -255 q0 -103 40 -185 q41 -82 121 -130 l-51 -85 ZM246 69 q-53 47 -81 120 q-28 72 -28 161 q1 145 72 242 q71 96 202 100 q51 0 94 -17 q42 -17 75 -47 l-334 -559 ZM411 8 q-42 0 -78 12 q-36 11 -66 32 l333 557 q42 -48 64 -114 q22 -66 22 -145 q-1 -145 -72 -242 q-72 -96 -203 -100 l0 0 Z" /><glyph glyph-name="" unicode="Õ" d="M449 785 q31 1 42 23 q12 22 17 52 l-6 0 q1 -2 -10 -17 q-10 -16 -40 -18 q-32 2 -61 18 q-29 16 -64 18 q-30 -1 -41 -23 q-12 -22 -18 -52 l6 0 q-1 2 10 18 q10 15 40 17 q29 -2 60 -18 q31 -16 65 -18 l0 0 ZM386 -10 q173 4 260 105 q87 102 87 255 q0 153 -87 255 q-87 101 -260 105 q-173 -4 -259 -105 q-87 -102 -87 -255 q0 -153 87 -255 q86 -101 259 -105 l0 0 ZM386 8 q-131 4 -204 100 q-74 97 -75 242 q1 145 75 242 q73 96 204 100 q132 -4 206 -100 q74 -97 75 -242 q-1 -145 -75 -242 q-74 -96 -206 -100 l0 0 Z" /><glyph glyph-name="" unicode="&#x152;" d="M411 -10 q51 0 93 10 l400 0 l0 198 l-8 0 q-17 -97 -44 -139 q-27 -42 -96 -41 l-133 0 q-35 -1 -52 13 q-17 14 -17 54 l0 285 l138 0 q56 2 81 -23 q25 -26 38 -102 l8 0 l0 267 l-8 0 q-12 -77 -38 -102 q-27 -25 -81 -23 l-138 0 l0 228 q0 40 17 54 q17 14 52 13 l118 0 q67 1 97 -35 q29 -36 43 -117 l9 0 l0 170 l-386 0 q-42 10 -93 10 q-173 -4 -259 -105 q-87 -102 -87 -255 q0 -153 87 -255 q86 -101 259 -105 l0 0 ZM411 8 q-131 4 -202 100 q-71 97 -72 242 q1 145 72 242 q71 96 202 100 q48 0 88 -15 l0 -654 q-40 -15 -88 -15 l0 0 Z" /><glyph glyph-name="" unicode="P" d="M30 0 l287 0 l0 9 q-49 -2 -82 10 q-33 12 -34 66 l0 258 q7 -3 39 -10 q32 -6 84 -7 q114 2 176 60 q62 57 63 144 q-2 89 -59 130 q-57 41 -147 40 l-327 0 l0 -9 q49 2 82 -10 q33 -13 34 -66 l0 -530 q-1 -52 -34 -65 q-33 -13 -82 -11 l0 -9 ZM318 344 q-28 0 -60 5 q-33 6 -57 14 l0 252 q0 29 16 48 q15 18 45 19 l101 0 q64 0 100 -39 q35 -40 36 -118 q-1 -84 -50 -132 q-49 -48 -131 -49 l0 0 Z" /><glyph glyph-name="" unicode="Þ" d="M30 0 l287 0 l0 9 q-49 -2 -82 10 q-33 12 -34 66 l0 104 q9 -4 41 -9 q31 -6 80 -7 q114 2 176 60 q62 57 63 144 q-2 89 -59 130 q-57 41 -147 40 l-154 0 l0 68 q1 52 34 65 q33 13 82 11 l0 9 l-287 0 l0 -9 q49 2 82 -10 q33 -12 34 -66 l0 -530 q-1 -52 -34 -65 q-33 -13 -82 -11 l0 -9 ZM316 191 q-27 0 -59 5 q-32 5 -56 13 l0 320 l160 0 q64 0 100 -39 q35 -40 36 -118 q-1 -84 -50 -132 q-49 -48 -131 -49 l0 0 Z" /><glyph glyph-name="" unicode="Q" d="M672 -219 l0 20 l-204 196 q132 28 198 124 q66 96 66 229 q0 153 -86 255 q-87 101 -260 105 q-173 -4 -259 -105 q-87 -102 -87 -255 q0 -151 84 -252 q85 -101 252 -108 l296 -209 ZM386 8 q-132 4 -204 100 q-73 97 -74 242 q1 145 74 242 q72 96 204 100 q132 -4 205 -100 q73 -97 74 -242 q-1 -145 -74 -242 q-73 -96 -205 -100 l0 0 Z" /><glyph glyph-name="" unicode="R" d="M578 78 q-47 69 -108 157 q-60 87 -87 125 q87 16 133 66 q46 50 46 118 q-2 82 -58 119 q-57 38 -147 37 l-327 0 l0 -9 q49 2 82 -10 q33 -13 34 -66 l0 -530 q-1 -52 -34 -65 q-33 -13 -82 -11 l0 -9 l287 0 l0 9 q-49 -2 -82 10 q-33 12 -34 66 l0 287 q9 -4 41 -10 q32 -6 73 -7 l232 -355 l129 0 l0 9 q-30 0 -53 18 q-23 17 -45 51 l0 0 ZM201 615 q0 29 16 48 q15 18 45 19 l101 0 q71 0 104 -35 q32 -36 31 -108 q-1 -77 -50 -121 q-48 -45 -129 -46 q-28 0 -61 5 q-33 5 -57 13 l0 225 Z" /><glyph glyph-name="" unicode="&#x154;" d="M423 928 l-68 0 l-71 -176 l10 0 l129 176 ZM578 78 q-47 69 -108 157 q-60 87 -87 125 q87 16 133 66 q46 50 46 118 q-2 82 -58 119 q-57 38 -147 37 l-327 0 l0 -9 q49 2 82 -10 q33 -13 34 -66 l0 -530 q-1 -52 -34 -65 q-33 -13 -82 -11 l0 -9 l287 0 l0 9 q-49 -2 -82 10 q-33 12 -34 66 l0 287 q9 -4 41 -10 q32 -6 73 -7 l232 -355 l129 0 l0 9 q-30 0 -53 18 q-23 17 -45 51 l0 0 ZM201 615 q0 29 16 48 q15 18 45 19 l101 0 q71 0 104 -35 q32 -36 31 -108 q-1 -77 -50 -121 q-48 -45 -129 -46 q-28 0 -61 5 q-33 5 -57 13 l0 225 Z" /><glyph glyph-name="" unicode="&#x158;" d="M331 773 l121 144 l-10 0 l-124 -94 l-125 94 l-9 0 l121 -144 l26 0 ZM578 78 q-47 69 -108 157 q-60 87 -87 125 q87 16 133 66 q46 50 46 118 q-2 82 -58 119 q-57 38 -147 37 l-327 0 l0 -9 q49 2 82 -10 q33 -13 34 -66 l0 -530 q-1 -52 -34 -65 q-33 -13 -82 -11 l0 -9 l287 0 l0 9 q-49 -2 -82 10 q-33 12 -34 66 l0 287 q9 -4 41 -10 q32 -6 73 -7 l232 -355 l129 0 l0 9 q-30 0 -53 18 q-23 17 -45 51 l0 0 ZM201 615 q0 29 16 48 q15 18 45 19 l101 0 q71 0 104 -35 q32 -36 31 -108 q-1 -77 -50 -121 q-48 -45 -129 -46 q-28 0 -61 5 q-33 5 -57 13 l0 225 Z" /><glyph glyph-name="" unicode="&#x156;" d="M578 78 q-47 69 -108 157 q-60 87 -87 125 q87 16 133 66 q46 50 46 118 q-2 82 -58 119 q-57 38 -147 37 l-327 0 l0 -9 q49 2 82 -10 q33 -13 34 -66 l0 -530 q-1 -52 -34 -65 q-33 -13 -82 -11 l0 -9 l287 0 l0 9 q-49 -2 -82 10 q-33 12 -34 66 l0 287 q9 -4 41 -10 q32 -6 73 -7 l232 -355 l129 0 l0 9 q-30 0 -53 18 q-23 17 -45 51 l0 0 ZM201 615 q0 29 16 48 q15 18 45 19 l101 0 q71 0 104 -35 q32 -36 31 -108 q-1 -77 -50 -121 q-48 -45 -129 -46 q-28 0 -61 5 q-33 5 -57 13 l0 225 ZM262 -229 l10 0 l92 184 l-54 12 l-48 -196 Z" /><glyph glyph-name="" unicode="S" d="M252 -10 q91 1 158 48 q66 46 71 132 q1 61 -33 101 q-34 40 -95 80 q-34 23 -67 47 q-34 23 -68 46 q-45 29 -70 56 q-26 28 -26 76 q-1 49 32 81 q32 33 115 34 q75 1 112 -38 q36 -38 51 -123 l9 0 l0 156 q-4 2 -56 12 q-52 11 -100 12 q-121 -4 -172 -49 q-50 -45 -49 -101 q0 -54 30 -92 q29 -38 85 -75 q23 -16 60 -42 q38 -26 83 -56 q48 -31 74 -66 q26 -34 26 -81 q0 -50 -42 -93 q-41 -43 -124 -46 q-95 -3 -144 37 q-49 40 -60 158 l-7 0 l0 -183 q5 -2 72 -16 q67 -14 135 -15 l0 0 Z" /><glyph glyph-name="" unicode="&#x15a;" d="M240 752 l10 0 l129 176 l-68 0 l-71 -176 ZM252 -10 q91 1 158 48 q66 46 71 132 q1 61 -33 101 q-34 40 -95 80 q-34 23 -67 47 q-34 23 -68 46 q-45 29 -70 56 q-26 28 -26 76 q-1 49 32 81 q32 33 115 34 q75 1 112 -38 q36 -38 51 -123 l9 0 l0 156 q-4 2 -56 12 q-52 11 -100 12 q-121 -4 -172 -49 q-50 -45 -49 -101 q0 -54 30 -92 q29 -38 85 -75 q23 -16 60 -42 q38 -26 83 -56 q48 -31 74 -66 q26 -34 26 -81 q0 -50 -42 -93 q-41 -43 -124 -46 q-95 -3 -144 37 q-49 40 -60 158 l-7 0 l0 -183 q5 -2 72 -16 q67 -14 135 -15 l0 0 Z" /><glyph glyph-name="" unicode="&#x160;" d="M261 773 l26 0 l121 144 l-10 0 l-124 -94 l-125 94 l-9 0 l121 -144 ZM252 -10 q91 1 158 48 q66 46 71 132 q1 61 -33 101 q-34 40 -95 80 q-34 23 -67 47 q-34 23 -68 46 q-45 29 -70 56 q-26 28 -26 76 q-1 49 32 81 q32 33 115 34 q75 1 112 -38 q36 -38 51 -123 l9 0 l0 156 q-4 2 -56 12 q-52 11 -100 12 q-121 -4 -172 -49 q-50 -45 -49 -101 q0 -54 30 -92 q29 -38 85 -75 q23 -16 60 -42 q38 -26 83 -56 q48 -31 74 -66 q26 -34 26 -81 q0 -50 -42 -93 q-41 -43 -124 -46 q-95 -3 -144 37 q-49 40 -60 158 l-7 0 l0 -183 q5 -2 72 -16 q67 -14 135 -15 l0 0 Z" /><glyph glyph-name="" unicode="&#x15e;" d="M353 351 q-34 23 -67 47 q-34 23 -68 46 q-45 29 -70 56 q-26 28 -26 76 q-1 49 32 81 q32 33 115 34 q75 1 112 -38 q36 -38 51 -123 l9 0 l0 156 q-4 2 -56 12 q-52 11 -100 12 q-121 -4 -172 -49 q-50 -45 -49 -101 q0 -54 30 -92 q29 -38 85 -75 q23 -16 60 -42 q38 -26 83 -56 q48 -31 74 -66 q26 -34 26 -81 q0 -50 -42 -93 q-41 -43 -124 -46 q-95 -3 -144 37 q-49 40 -60 158 l-7 0 l0 -183 q5 -2 72 -16 q67 -14 135 -15 q91 1 158 48 q66 46 71 132 q1 61 -33 101 q-34 40 -95 80 l0 0 ZM240 -80 l25 70 l-8 0 l-50 -80 q37 -1 57 -13 q21 -11 21 -34 q0 -22 -12 -35 q-12 -14 -33 -14 q-15 1 -26 8 q-10 6 -11 7 l0 -14 q1 -1 17 -10 q16 -10 41 -11 q29 0 46 17 q17 16 17 44 q0 29 -21 45 q-22 16 -63 20 l0 0 Z" /><glyph glyph-name="" unicode="&#x218;" d="M252 -10 q91 1 158 48 q66 46 71 132 q1 61 -33 101 q-34 40 -95 80 q-34 23 -67 47 q-34 23 -68 46 q-45 29 -70 56 q-26 28 -26 76 q-1 49 32 81 q32 33 115 34 q75 1 112 -38 q36 -38 51 -123 l9 0 l0 156 q-4 2 -56 12 q-52 11 -100 12 q-121 -4 -172 -49 q-50 -45 -49 -101 q0 -54 30 -92 q29 -38 85 -75 q23 -16 60 -42 q38 -26 83 -56 q48 -31 74 -66 q26 -34 26 -81 q0 -50 -42 -93 q-41 -43 -124 -46 q-95 -3 -144 37 q-49 40 -60 158 l-7 0 l0 -183 q5 -2 72 -16 q67 -14 135 -15 l0 0 ZM171 -235 l10 0 l92 184 l-54 12 l-48 -196 Z" /><glyph glyph-name="" unicode="T" d="M151 0 l286 0 l0 9 q-49 -2 -82 12 q-33 13 -34 64 l0 597 l76 0 q74 -1 103 -42 q29 -41 37 -110 l8 0 l0 170 l-503 0 l0 -170 l9 0 q9 69 38 110 q30 41 102 42 l76 0 l0 -597 q-1 -52 -34 -65 q-33 -13 -82 -11 l0 -9 Z" /><glyph glyph-name="" unicode="&#x166;" d="M182 796 l210 0 l0 25 l-210 0 l0 -25 ZM151 0 l286 0 l0 9 q-49 -2 -82 12 q-33 13 -34 64 l0 597 l76 0 q74 -1 103 -42 q29 -41 37 -110 l8 0 l0 170 l-503 0 l0 -170 l9 0 q9 69 38 110 q30 41 102 42 l76 0 l0 -597 q-1 -52 -34 -65 q-33 -13 -82 -11 l0 -9 Z" /><glyph glyph-name="" unicode="&#x164;" d="M279 773 l26 0 l121 144 l-10 0 l-124 -94 l-125 94 l-9 0 l121 -144 ZM151 0 l286 0 l0 9 q-49 -2 -82 12 q-33 13 -34 64 l0 597 l76 0 q74 -1 103 -42 q29 -41 37 -110 l8 0 l0 170 l-503 0 l0 -170 l9 0 q9 69 38 110 q30 41 102 42 l76 0 l0 -597 q-1 -52 -34 -65 q-33 -13 -82 -11 l0 -9 Z" /><glyph glyph-name="" unicode="&#x162;" d="M42 700 l0 -170 l9 0 q9 69 38 110 q30 41 102 42 l76 0 l0 -597 q-1 -52 -34 -65 q-33 -13 -82 -11 l0 -9 l152 0 l-49 -78 q37 -1 57 -13 q21 -11 21 -34 q0 -22 -12 -35 q-12 -14 -33 -14 q-15 1 -26 8 q-10 6 -11 7 l0 -14 q1 -1 17 -10 q16 -10 41 -11 q29 0 46 17 q17 16 17 44 q0 29 -21 45 q-22 16 -63 20 l24 68 l126 0 l0 9 q-49 -2 -82 12 q-33 13 -34 64 l0 597 l76 0 q74 -1 103 -42 q29 -41 37 -110 l8 0 l0 170 l-503 0 Z" /><glyph glyph-name="" unicode="&#x21a;" d="M151 0 l286 0 l0 9 q-49 -2 -82 12 q-33 13 -34 64 l0 597 l76 0 q74 -1 103 -42 q29 -41 37 -110 l8 0 l0 170 l-503 0 l0 -170 l9 0 q9 69 38 110 q30 41 102 42 l76 0 l0 -597 q-1 -52 -34 -65 q-33 -13 -82 -11 l0 -9 ZM218 -223 l10 0 l92 184 l-54 12 l-48 -196 Z" /><glyph glyph-name="" unicode="U" d="M379 -10 q136 5 184 86 q47 81 44 182 l0 357 q-1 44 18 61 q18 17 68 16 l0 8 l-208 0 l0 -8 q53 1 78 -16 q24 -16 24 -61 l0 -356 q2 -104 -43 -176 q-45 -72 -165 -75 q-116 6 -157 89 q-40 82 -37 170 l0 348 q0 45 25 61 q25 17 78 16 l0 8 l-273 0 l0 -8 q49 2 82 -10 q33 -13 34 -67 l0 -349 q-4 -108 45 -190 q49 -82 203 -86 l0 0 Z" /><glyph glyph-name="" unicode="Ú" d="M357 752 l10 0 l129 176 l-68 0 l-71 -176 ZM379 -10 q136 5 184 86 q47 81 44 182 l0 357 q-1 44 18 61 q18 17 68 16 l0 8 l-208 0 l0 -8 q53 1 78 -16 q24 -16 24 -61 l0 -356 q2 -104 -43 -176 q-45 -72 -165 -75 q-116 6 -157 89 q-40 82 -37 170 l0 348 q0 45 25 61 q25 17 78 16 l0 8 l-273 0 l0 -8 q49 2 82 -10 q33 -13 34 -67 l0 -349 q-4 -108 45 -190 q49 -82 203 -86 l0 0 Z" /><glyph glyph-name="" unicode="&#x1d3;" d="M378 773 l26 0 l121 144 l-10 0 l-124 -94 l-125 94 l-9 0 l121 -144 ZM379 -10 q136 5 184 86 q47 81 44 182 l0 357 q-1 44 18 61 q18 17 68 16 l0 8 l-208 0 l0 -8 q53 1 78 -16 q24 -16 24 -61 l0 -356 q2 -104 -43 -176 q-45 -72 -165 -75 q-116 6 -157 89 q-40 82 -37 170 l0 348 q0 45 25 61 q25 17 78 16 l0 8 l-273 0 l0 -8 q49 2 82 -10 q33 -13 34 -67 l0 -349 q-4 -108 45 -190 q49 -82 203 -86 l0 0 Z" /><glyph glyph-name="" unicode="Û" d="M257 743 l10 0 l124 95 l124 -95 l10 0 l-121 145 l-26 0 l-121 -145 ZM379 -10 q136 5 184 86 q47 81 44 182 l0 357 q-1 44 18 61 q18 17 68 16 l0 8 l-208 0 l0 -8 q53 1 78 -16 q24 -16 24 -61 l0 -356 q2 -104 -43 -176 q-45 -72 -165 -75 q-116 6 -157 89 q-40 82 -37 170 l0 348 q0 45 25 61 q25 17 78 16 l0 8 l-273 0 l0 -8 q49 2 82 -10 q33 -13 34 -67 l0 -349 q-4 -108 45 -190 q49 -82 203 -86 l0 0 Z" /><glyph glyph-name="" unicode="Ü" d="M327 786 q16 0 27 11 q11 11 11 27 q0 15 -11 26 q-11 11 -27 11 q-16 0 -26 -11 q-11 -11 -11 -26 q0 -16 11 -27 q10 -11 26 -11 l0 0 ZM461 786 q16 0 27 11 q11 11 11 27 q0 15 -11 26 q-11 11 -27 11 q-16 0 -26 -11 q-11 -11 -11 -26 q0 -16 11 -27 q10 -11 26 -11 l0 0 ZM379 -10 q136 5 184 86 q47 81 44 182 l0 357 q-1 44 18 61 q18 17 68 16 l0 8 l-208 0 l0 -8 q53 1 78 -16 q24 -16 24 -61 l0 -356 q2 -104 -43 -176 q-45 -72 -165 -75 q-116 6 -157 89 q-40 82 -37 170 l0 348 q0 45 25 61 q25 17 78 16 l0 8 l-273 0 l0 -8 q49 2 82 -10 q33 -13 34 -67 l0 -349 q-4 -108 45 -190 q49 -82 203 -86 l0 0 Z" /><glyph glyph-name="" unicode="&#x1d7;" d="M376 880 l10 0 l129 176 l-68 0 l-71 -176 ZM327 786 q16 0 27 11 q11 11 11 27 q0 15 -11 26 q-11 11 -27 11 q-16 0 -26 -11 q-11 -11 -11 -26 q0 -16 11 -27 q10 -11 26 -11 l0 0 ZM461 786 q16 0 27 11 q11 11 11 27 q0 15 -11 26 q-11 11 -27 11 q-16 0 -26 -11 q-11 -11 -11 -26 q0 -16 11 -27 q10 -11 26 -11 l0 0 ZM379 -10 q136 5 184 86 q47 81 44 182 l0 357 q-1 44 18 61 q18 17 68 16 l0 8 l-208 0 l0 -8 q53 1 78 -16 q24 -16 24 -61 l0 -356 q2 -104 -43 -176 q-45 -72 -165 -75 q-116 6 -157 89 q-40 82 -37 170 l0 348 q0 45 25 61 q25 17 78 16 l0 8 l-273 0 l0 -8 q49 2 82 -10 q33 -13 34 -67 l0 -349 q-4 -108 45 -190 q49 -82 203 -86 l0 0 Z" /><glyph glyph-name="" unicode="&#x1d9;" d="M379 851 l26 0 l121 144 l-10 0 l-124 -94 l-125 94 l-9 0 l121 -144 ZM327 786 q16 0 27 11 q11 11 11 27 q0 15 -11 26 q-11 11 -27 11 q-16 0 -26 -11 q-11 -11 -11 -26 q0 -16 11 -27 q10 -11 26 -11 l0 0 ZM461 786 q16 0 27 11 q11 11 11 27 q0 15 -11 26 q-11 11 -27 11 q-16 0 -26 -11 q-11 -11 -11 -26 q0 -16 11 -27 q10 -11 26 -11 l0 0 ZM379 -10 q136 5 184 86 q47 81 44 182 l0 357 q-1 44 18 61 q18 17 68 16 l0 8 l-208 0 l0 -8 q53 1 78 -16 q24 -16 24 -61 l0 -356 q2 -104 -43 -176 q-45 -72 -165 -75 q-116 6 -157 89 q-40 82 -37 170 l0 348 q0 45 25 61 q25 17 78 16 l0 8 l-273 0 l0 -8 q49 2 82 -10 q33 -13 34 -67 l0 -349 q-4 -108 45 -190 q49 -82 203 -86 l0 0 Z" /><glyph glyph-name="" unicode="&#x1db;" d="M395 833 l10 0 l-71 176 l-68 0 l129 -176 ZM327 786 q16 0 27 11 q11 11 11 27 q0 15 -11 26 q-11 11 -27 11 q-16 0 -26 -11 q-11 -11 -11 -26 q0 -16 11 -27 q10 -11 26 -11 l0 0 ZM461 786 q16 0 27 11 q11 11 11 27 q0 15 -11 26 q-11 11 -27 11 q-16 0 -26 -11 q-11 -11 -11 -26 q0 -16 11 -27 q10 -11 26 -11 l0 0 ZM379 -10 q136 5 184 86 q47 81 44 182 l0 357 q-1 44 18 61 q18 17 68 16 l0 8 l-208 0 l0 -8 q53 1 78 -16 q24 -16 24 -61 l0 -356 q2 -104 -43 -176 q-45 -72 -165 -75 q-116 6 -157 89 q-40 82 -37 170 l0 348 q0 45 25 61 q25 17 78 16 l0 8 l-273 0 l0 -8 q49 2 82 -10 q33 -13 34 -67 l0 -349 q-4 -108 45 -190 q49 -82 203 -86 l0 0 Z" /><glyph glyph-name="" unicode="&#x1d5;" d="M280 894 l210 0 l0 25 l-210 0 l0 -25 ZM327 786 q16 0 27 11 q11 11 11 27 q0 15 -11 26 q-11 11 -27 11 q-16 0 -26 -11 q-11 -11 -11 -26 q0 -16 11 -27 q10 -11 26 -11 l0 0 ZM461 786 q16 0 27 11 q11 11 11 27 q0 15 -11 26 q-11 11 -27 11 q-16 0 -26 -11 q-11 -11 -11 -26 q0 -16 11 -27 q10 -11 26 -11 l0 0 ZM379 -10 q136 5 184 86 q47 81 44 182 l0 357 q-1 44 18 61 q18 17 68 16 l0 8 l-208 0 l0 -8 q53 1 78 -16 q24 -16 24 -61 l0 -356 q2 -104 -43 -176 q-45 -72 -165 -75 q-116 6 -157 89 q-40 82 -37 170 l0 348 q0 45 25 61 q25 17 78 16 l0 8 l-273 0 l0 -8 q49 2 82 -10 q33 -13 34 -67 l0 -349 q-4 -108 45 -190 q49 -82 203 -86 l0 0 Z" /><glyph glyph-name="" unicode="&#x1ee4;" d="M379 -10 q136 5 184 86 q47 81 44 182 l0 357 q-1 44 18 61 q18 17 68 16 l0 8 l-208 0 l0 -8 q53 1 78 -16 q24 -16 24 -61 l0 -356 q2 -104 -43 -176 q-45 -72 -165 -75 q-116 6 -157 89 q-40 82 -37 170 l0 348 q0 45 25 61 q25 17 78 16 l0 8 l-273 0 l0 -8 q49 2 82 -10 q33 -13 34 -67 l0 -349 q-4 -108 45 -190 q49 -82 203 -86 l0 0 ZM381 -163 q19 1 32 14 q13 13 14 32 q-1 19 -14 32 q-13 12 -32 13 q-20 -1 -33 -13 q-13 -13 -13 -32 q0 -19 13 -32 q13 -13 33 -14 l0 0 Z" /><glyph glyph-name="" unicode="Ù" d="M399 753 l10 0 l-71 176 l-68 0 l129 -176 ZM379 -10 q136 5 184 86 q47 81 44 182 l0 357 q-1 44 18 61 q18 17 68 16 l0 8 l-208 0 l0 -8 q53 1 78 -16 q24 -16 24 -61 l0 -356 q2 -104 -43 -176 q-45 -72 -165 -75 q-116 6 -157 89 q-40 82 -37 170 l0 348 q0 45 25 61 q25 17 78 16 l0 8 l-273 0 l0 -8 q49 2 82 -10 q33 -13 34 -67 l0 -349 q-4 -108 45 -190 q49 -82 203 -86 l0 0 Z" /><glyph glyph-name="" unicode="&#x1ee6;" d="M368 762 q17 6 41 32 q25 25 27 55 q0 29 -22 50 q-21 20 -62 21 q-42 -3 -64 -26 q-22 -24 -22 -27 l4 -5 q7 7 26 18 q19 10 43 11 q31 -2 42 -20 q12 -19 11 -36 q-1 -25 -10 -42 q-10 -16 -19 -26 l5 -5 ZM379 -10 q136 5 184 86 q47 81 44 182 l0 357 q-1 44 18 61 q18 17 68 16 l0 8 l-208 0 l0 -8 q53 1 78 -16 q24 -16 24 -61 l0 -356 q2 -104 -43 -176 q-45 -72 -165 -75 q-116 6 -157 89 q-40 82 -37 170 l0 348 q0 45 25 61 q25 17 78 16 l0 8 l-273 0 l0 -8 q49 2 82 -10 q33 -13 34 -67 l0 -349 q-4 -108 45 -190 q49 -82 203 -86 l0 0 Z" /><glyph glyph-name="" unicode="&#x170;" d="M306 752 l10 0 l129 176 l-68 0 l-71 -176 ZM413 752 l10 0 l129 176 l-68 0 l-71 -176 ZM379 -10 q136 5 184 86 q47 81 44 182 l0 357 q-1 44 18 61 q18 17 68 16 l0 8 l-208 0 l0 -8 q53 1 78 -16 q24 -16 24 -61 l0 -356 q2 -104 -43 -176 q-45 -72 -165 -75 q-116 6 -157 89 q-40 82 -37 170 l0 348 q0 45 25 61 q25 17 78 16 l0 8 l-273 0 l0 -8 q49 2 82 -10 q33 -13 34 -67 l0 -349 q-4 -108 45 -190 q49 -82 203 -86 l0 0 Z" /><glyph glyph-name="" unicode="&#x16a;" d="M281 796 l210 0 l0 25 l-210 0 l0 -25 ZM379 -10 q136 5 184 86 q47 81 44 182 l0 357 q-1 44 18 61 q18 17 68 16 l0 8 l-208 0 l0 -8 q53 1 78 -16 q24 -16 24 -61 l0 -356 q2 -104 -43 -176 q-45 -72 -165 -75 q-116 6 -157 89 q-40 82 -37 170 l0 348 q0 45 25 61 q25 17 78 16 l0 8 l-273 0 l0 -8 q49 2 82 -10 q33 -13 34 -67 l0 -349 q-4 -108 45 -190 q49 -82 203 -86 l0 0 Z" /><glyph glyph-name="" unicode="&#x172;" d="M485 700 l0 -8 q53 1 78 -16 q24 -16 24 -61 l0 -356 q2 -104 -43 -176 q-45 -72 -165 -75 q-116 6 -157 89 q-40 82 -37 170 l0 348 q0 45 25 61 q25 17 78 16 l0 8 l-273 0 l0 -8 q49 2 82 -10 q33 -13 34 -67 l0 -349 q-4 -108 45 -190 q49 -82 203 -86 l6 0 q-23 -29 -40 -61 q-18 -33 -19 -63 q1 -28 18 -41 q17 -14 44 -14 q27 1 43 11 q15 9 15 10 l0 22 q-1 -1 -14 -7 q-14 -7 -33 -8 q-18 0 -26 12 q-7 11 -6 29 q0 19 10 50 q10 31 26 61 q122 12 164 92 q43 79 40 175 l0 357 q-1 44 18 61 q18 17 68 16 l0 8 l-208 0 Z" /><glyph glyph-name="" unicode="&#x16e;" d="M391 762 q32 1 53 17 q21 16 22 39 q-1 24 -22 40 q-21 16 -53 17 q-32 -1 -53 -17 q-21 -16 -22 -40 q1 -23 22 -39 q21 -16 53 -17 l0 0 ZM391 783 q-15 0 -25 10 q-10 10 -10 24 q0 14 10 24 q10 10 25 10 q15 0 26 -10 q10 -10 10 -24 q0 -14 -10 -24 q-11 -10 -26 -10 l0 0 ZM379 -10 q136 5 184 86 q47 81 44 182 l0 357 q-1 44 18 61 q18 17 68 16 l0 8 l-208 0 l0 -8 q53 1 78 -16 q24 -16 24 -61 l0 -356 q2 -104 -43 -176 q-45 -72 -165 -75 q-116 6 -157 89 q-40 82 -37 170 l0 348 q0 45 25 61 q25 17 78 16 l0 8 l-273 0 l0 -8 q49 2 82 -10 q33 -13 34 -67 l0 -349 q-4 -108 45 -190 q49 -82 203 -86 l0 0 Z" /><glyph glyph-name="" unicode="&#x168;" d="M452 785 q31 1 42 23 q12 22 17 52 l-6 0 q1 -2 -10 -17 q-10 -16 -40 -18 q-32 2 -61 18 q-29 16 -64 18 q-30 -1 -41 -23 q-12 -22 -18 -52 l6 0 q-1 2 10 18 q10 15 40 17 q29 -2 60 -18 q31 -16 65 -18 l0 0 ZM379 -10 q136 5 184 86 q47 81 44 182 l0 357 q-1 44 18 61 q18 17 68 16 l0 8 l-208 0 l0 -8 q53 1 78 -16 q24 -16 24 -61 l0 -356 q2 -104 -43 -176 q-45 -72 -165 -75 q-116 6 -157 89 q-40 82 -37 170 l0 348 q0 45 25 61 q25 17 78 16 l0 8 l-273 0 l0 -8 q49 2 82 -10 q33 -13 34 -67 l0 -349 q-4 -108 45 -190 q49 -82 203 -86 l0 0 Z" /><glyph glyph-name="" unicode="V" d="M319 -14 l13 0 q11 32 96 283 q86 251 116 337 q18 52 44 69 q27 17 73 16 l0 9 l-249 0 l0 -9 l34 0 q39 2 68 -9 q30 -11 16 -59 l-180 -546 q-9 28 -83 249 q-74 221 -98 297 q-15 48 14 59 q28 11 77 9 l26 0 l0 9 l-296 0 l0 -9 q61 1 82 -16 q20 -17 36 -69 l211 -620 Z" /><glyph glyph-name="" unicode="W" d="M301 -14 l13 0 l197 626 l186 -626 l13 0 q9 32 82 283 q73 251 101 337 q18 52 45 69 q26 17 73 16 l0 9 l-249 0 l0 -9 l33 0 q38 2 68 -9 q30 -11 16 -59 q-20 -68 -80 -284 q-61 -217 -69 -245 l-183 620 l-16 0 l-199 -631 q-8 28 -69 246 q-61 219 -84 294 q-15 48 14 59 q29 11 77 9 l26 0 l0 9 l-296 0 l0 -9 q59 1 80 -16 q21 -17 38 -69 q29 -86 101 -337 q73 -251 82 -283 l0 0 Z" /><glyph glyph-name="" unicode="&#x1e82;" d="M501 751 l10 0 l129 176 l-68 0 l-71 -176 ZM301 -14 l13 0 l197 626 l186 -626 l13 0 q9 32 82 283 q73 251 101 337 q18 52 45 69 q26 17 73 16 l0 9 l-249 0 l0 -9 l33 0 q38 2 68 -9 q30 -11 16 -59 q-20 -68 -80 -284 q-61 -217 -69 -245 l-183 620 l-16 0 l-199 -631 q-8 28 -69 246 q-61 219 -84 294 q-15 48 14 59 q29 11 77 9 l26 0 l0 9 l-296 0 l0 -9 q59 1 80 -16 q21 -17 38 -69 q29 -86 101 -337 q73 -251 82 -283 l0 0 Z" /><glyph glyph-name="" unicode="&#x174;" d="M401 742 l10 0 l124 95 l124 -95 l10 0 l-121 145 l-26 0 l-121 -145 ZM301 -14 l13 0 l197 626 l186 -626 l13 0 q9 32 82 283 q73 251 101 337 q18 52 45 69 q26 17 73 16 l0 9 l-249 0 l0 -9 l33 0 q38 2 68 -9 q30 -11 16 -59 q-20 -68 -80 -284 q-61 -217 -69 -245 l-183 620 l-16 0 l-199 -631 q-8 28 -69 246 q-61 219 -84 294 q-15 48 14 59 q29 11 77 9 l26 0 l0 9 l-296 0 l0 -9 q59 1 80 -16 q21 -17 38 -69 q29 -86 101 -337 q73 -251 82 -283 l0 0 Z" /><glyph glyph-name="" unicode="&#x1e84;" d="M471 785 q16 0 27 11 q11 11 11 27 q0 15 -11 26 q-11 11 -27 11 q-16 0 -26 -11 q-11 -11 -11 -26 q0 -16 11 -27 q10 -11 26 -11 l0 0 ZM605 785 q16 0 27 11 q11 11 11 27 q0 15 -11 26 q-11 11 -27 11 q-16 0 -26 -11 q-11 -11 -11 -26 q0 -16 11 -27 q10 -11 26 -11 l0 0 ZM301 -14 l13 0 l197 626 l186 -626 l13 0 q9 32 82 283 q73 251 101 337 q18 52 45 69 q26 17 73 16 l0 9 l-249 0 l0 -9 l33 0 q38 2 68 -9 q30 -11 16 -59 q-20 -68 -80 -284 q-61 -217 -69 -245 l-183 620 l-16 0 l-199 -631 q-8 28 -69 246 q-61 219 -84 294 q-15 48 14 59 q29 11 77 9 l26 0 l0 9 l-296 0 l0 -9 q59 1 80 -16 q21 -17 38 -69 q29 -86 101 -337 q73 -251 82 -283 l0 0 Z" /><glyph glyph-name="" unicode="&#x1e80;" d="M543 752 l10 0 l-71 176 l-68 0 l129 -176 ZM301 -14 l13 0 l197 626 l186 -626 l13 0 q9 32 82 283 q73 251 101 337 q18 52 45 69 q26 17 73 16 l0 9 l-249 0 l0 -9 l33 0 q38 2 68 -9 q30 -11 16 -59 q-20 -68 -80 -284 q-61 -217 -69 -245 l-183 620 l-16 0 l-199 -631 q-8 28 -69 246 q-61 219 -84 294 q-15 48 14 59 q29 11 77 9 l26 0 l0 9 l-296 0 l0 -9 q59 1 80 -16 q21 -17 38 -69 q29 -86 101 -337 q73 -251 82 -283 l0 0 Z" /><glyph glyph-name="" unicode="X" d="M-10 0 l246 0 q0 5 0 9 l-26 0 q-49 -2 -71 8 q-23 10 4 53 q27 40 74 111 q47 71 103 152 q51 -84 93 -156 q42 -71 63 -107 q24 -44 3 -53 q-22 -10 -70 -8 q-13 0 -27 0 l0 -9 l303 0 l0 9 q-53 -2 -80 7 q-27 10 -53 52 q-21 33 -76 124 q-55 91 -118 195 q53 77 94 135 q40 58 54 77 q29 46 59 69 q29 23 94 23 l0 9 l-248 0 q0 -4 0 -9 l26 0 q49 2 72 -9 q23 -10 -4 -52 l-156 -230 q-47 79 -83 141 q-36 61 -52 89 q-25 44 -3 53 q22 10 70 8 q14 0 27 0 l0 9 l-287 0 l0 -9 q48 2 72 -9 q24 -11 51 -57 q42 -70 85 -139 q42 -69 84 -139 q-64 -91 -112 -160 q-49 -70 -59 -86 q-28 -47 -58 -70 q-30 -22 -94 -22 l0 -9 Z" /><glyph glyph-name="" unicode="Y" d="M135 0 l287 0 l0 8 q-49 -2 -82 10 q-33 12 -34 63 l0 249 q47 79 93 153 q46 74 74 116 q29 46 59 69 q30 23 94 23 l0 9 l-246 0 l0 -9 l26 0 q48 2 69 -8 q21 -10 -2 -53 q-23 -40 -67 -109 q-44 -69 -104 -168 q-51 85 -98 163 q-46 77 -68 114 q-25 44 -3 53 q22 10 70 8 l27 0 l0 9 l-300 0 l0 -9 q53 2 80 -7 q27 -10 53 -52 q21 -32 74 -119 q53 -86 114 -188 l0 -244 q-1 -49 -34 -62 q-33 -13 -82 -11 l0 -8 Z" /><glyph glyph-name="" unicode="Ý" d="M237 752 l10 0 l129 176 l-68 0 l-71 -176 ZM135 0 l287 0 l0 8 q-49 -2 -82 10 q-33 12 -34 63 l0 249 q47 79 93 153 q46 74 74 116 q29 46 59 69 q30 23 94 23 l0 9 l-246 0 l0 -9 l26 0 q48 2 69 -8 q21 -10 -2 -53 q-23 -40 -67 -109 q-44 -69 -104 -168 q-51 85 -98 163 q-46 77 -68 114 q-25 44 -3 53 q22 10 70 8 l27 0 l0 9 l-300 0 l0 -9 q53 2 80 -7 q27 -10 53 -52 q21 -32 74 -119 q53 -86 114 -188 l0 -244 q-1 -49 -34 -62 q-33 -13 -82 -11 l0 -8 Z" /><glyph glyph-name="" unicode="&#x176;" d="M137 743 l10 0 l124 95 l124 -95 l10 0 l-121 145 l-26 0 l-121 -145 ZM135 0 l287 0 l0 8 q-49 -2 -82 10 q-33 12 -34 63 l0 249 q47 79 93 153 q46 74 74 116 q29 46 59 69 q30 23 94 23 l0 9 l-246 0 l0 -9 l26 0 q48 2 69 -8 q21 -10 -2 -53 q-23 -40 -67 -109 q-44 -69 -104 -168 q-51 85 -98 163 q-46 77 -68 114 q-25 44 -3 53 q22 10 70 8 l27 0 l0 9 l-300 0 l0 -9 q53 2 80 -7 q27 -10 53 -52 q21 -32 74 -119 q53 -86 114 -188 l0 -244 q-1 -49 -34 -62 q-33 -13 -82 -11 l0 -8 Z" /><glyph glyph-name="" unicode="&#x178;" d="M207 786 q16 0 27 11 q11 11 11 27 q0 15 -11 26 q-11 11 -27 11 q-16 0 -26 -11 q-11 -11 -11 -26 q0 -16 11 -27 q10 -11 26 -11 l0 0 ZM341 786 q16 0 27 11 q11 11 11 27 q0 15 -11 26 q-11 11 -27 11 q-16 0 -26 -11 q-11 -11 -11 -26 q0 -16 11 -27 q10 -11 26 -11 l0 0 ZM135 0 l287 0 l0 8 q-49 -2 -82 10 q-33 12 -34 63 l0 249 q47 79 93 153 q46 74 74 116 q29 46 59 69 q30 23 94 23 l0 9 l-246 0 l0 -9 l26 0 q48 2 69 -8 q21 -10 -2 -53 q-23 -40 -67 -109 q-44 -69 -104 -168 q-51 85 -98 163 q-46 77 -68 114 q-25 44 -3 53 q22 10 70 8 l27 0 l0 9 l-300 0 l0 -9 q53 2 80 -7 q27 -10 53 -52 q21 -32 74 -119 q53 -86 114 -188 l0 -244 q-1 -49 -34 -62 q-33 -13 -82 -11 l0 -8 Z" /><glyph glyph-name="" unicode="&#x1ef4;" d="M135 0 l287 0 l0 8 q-49 -2 -82 10 q-33 12 -34 63 l0 249 q47 79 93 153 q46 74 74 116 q29 46 59 69 q30 23 94 23 l0 9 l-246 0 l0 -9 l26 0 q48 2 69 -8 q21 -10 -2 -53 q-23 -40 -67 -109 q-44 -69 -104 -168 q-51 85 -98 163 q-46 77 -68 114 q-25 44 -3 53 q22 10 70 8 l27 0 l0 9 l-300 0 l0 -9 q53 2 80 -7 q27 -10 53 -52 q21 -32 74 -119 q53 -86 114 -188 l0 -244 q-1 -49 -34 -62 q-33 -13 -82 -11 l0 -8 ZM282 -163 q19 1 32 14 q13 13 14 32 q-1 19 -14 32 q-13 12 -32 13 q-20 -1 -33 -13 q-13 -13 -13 -32 q0 -19 13 -32 q13 -13 33 -14 l0 0 Z" /><glyph glyph-name="" unicode="&#x1ef2;" d="M279 753 l10 0 l-71 176 l-68 0 l129 -176 ZM135 0 l287 0 l0 8 q-49 -2 -82 10 q-33 12 -34 63 l0 249 q47 79 93 153 q46 74 74 116 q29 46 59 69 q30 23 94 23 l0 9 l-246 0 l0 -9 l26 0 q48 2 69 -8 q21 -10 -2 -53 q-23 -40 -67 -109 q-44 -69 -104 -168 q-51 85 -98 163 q-46 77 -68 114 q-25 44 -3 53 q22 10 70 8 l27 0 l0 9 l-300 0 l0 -9 q53 2 80 -7 q27 -10 53 -52 q21 -32 74 -119 q53 -86 114 -188 l0 -244 q-1 -49 -34 -62 q-33 -13 -82 -11 l0 -8 Z" /><glyph glyph-name="" unicode="&#x1ef6;" d="M248 762 q17 6 41 32 q25 25 27 55 q0 29 -22 50 q-21 20 -62 21 q-42 -3 -64 -26 q-22 -24 -22 -27 l4 -5 q7 7 26 18 q19 10 43 11 q31 -2 42 -20 q12 -19 11 -36 q-1 -25 -10 -42 q-10 -16 -19 -26 l5 -5 ZM135 0 l287 0 l0 8 q-49 -2 -82 10 q-33 12 -34 63 l0 249 q47 79 93 153 q46 74 74 116 q29 46 59 69 q30 23 94 23 l0 9 l-246 0 l0 -9 l26 0 q48 2 69 -8 q21 -10 -2 -53 q-23 -40 -67 -109 q-44 -69 -104 -168 q-51 85 -98 163 q-46 77 -68 114 q-25 44 -3 53 q22 10 70 8 l27 0 l0 9 l-300 0 l0 -9 q53 2 80 -7 q27 -10 53 -52 q21 -32 74 -119 q53 -86 114 -188 l0 -244 q-1 -49 -34 -62 q-33 -13 -82 -11 l0 -8 Z" /><glyph glyph-name="" unicode="&#x1ef8;" d="M332 785 q31 1 42 23 q12 22 17 52 l-6 0 q1 -2 -10 -17 q-10 -16 -40 -18 q-32 2 -61 18 q-29 16 -64 18 q-30 -1 -41 -23 q-12 -22 -18 -52 l6 0 q-1 2 10 18 q10 15 40 17 q29 -2 60 -18 q31 -16 65 -18 l0 0 ZM135 0 l287 0 l0 8 q-49 -2 -82 10 q-33 12 -34 63 l0 249 q47 79 93 153 q46 74 74 116 q29 46 59 69 q30 23 94 23 l0 9 l-246 0 l0 -9 l26 0 q48 2 69 -8 q21 -10 -2 -53 q-23 -40 -67 -109 q-44 -69 -104 -168 q-51 85 -98 163 q-46 77 -68 114 q-25 44 -3 53 q22 10 70 8 l27 0 l0 9 l-300 0 l0 -9 q53 2 80 -7 q27 -10 53 -52 q21 -32 74 -119 q53 -86 114 -188 l0 -244 q-1 -49 -34 -62 q-33 -13 -82 -11 l0 -8 Z" /><glyph glyph-name="" unicode="Z" d="M50 0 l515 0 l0 198 l-9 0 q-16 -97 -43 -139 q-27 -42 -97 -41 l-291 0 l430 673 l0 9 l-474 0 l0 -170 l9 0 q14 81 43 117 q30 36 97 35 l250 0 l-430 -673 l0 -9 Z" /><glyph glyph-name="" unicode="&#x179;" d="M300 752 l10 0 l129 176 l-68 0 l-71 -176 ZM50 0 l515 0 l0 198 l-9 0 q-16 -97 -43 -139 q-27 -42 -97 -41 l-291 0 l430 673 l0 9 l-474 0 l0 -170 l9 0 q14 81 43 117 q30 36 97 35 l250 0 l-430 -673 l0 -9 Z" /><glyph glyph-name="" unicode="&#x17d;" d="M321 773 l26 0 l121 144 l-10 0 l-124 -94 l-125 94 l-9 0 l121 -144 ZM50 0 l515 0 l0 198 l-9 0 q-16 -97 -43 -139 q-27 -42 -97 -41 l-291 0 l430 673 l0 9 l-474 0 l0 -170 l9 0 q14 81 43 117 q30 36 97 35 l250 0 l-430 -673 l0 -9 Z" /><glyph glyph-name="" unicode="&#x17b;" d="M344 778 q19 1 32 14 q13 13 14 32 q-1 19 -14 32 q-13 12 -32 13 q-20 -1 -33 -13 q-13 -13 -13 -32 q0 -19 13 -32 q13 -13 33 -14 l0 0 ZM50 0 l515 0 l0 198 l-9 0 q-16 -97 -43 -139 q-27 -42 -97 -41 l-291 0 l430 673 l0 9 l-474 0 l0 -170 l9 0 q14 81 43 117 q30 36 97 35 l250 0 l-430 -673 l0 -9 Z" /><glyph glyph-name="" unicode="a" d="M140 -8 q61 2 107 31 q46 29 59 60 l0 -83 l132 0 l0 9 q-33 -1 -58 10 q-25 10 -26 44 l0 240 q-1 65 -41 96 q-40 30 -106 30 q-54 -2 -103 -16 q-49 -15 -52 -17 l40 -94 l6 0 q-4 36 18 72 q22 36 84 39 q53 0 80 -31 q26 -30 26 -86 l0 -58 q-122 -1 -193 -41 q-71 -40 -73 -111 q-1 -31 20 -61 q21 -31 80 -33 l0 0 ZM176 15 q-41 1 -58 25 q-18 23 -17 54 q-2 53 44 90 q45 36 161 38 l0 -115 q-11 -29 -49 -59 q-39 -31 -81 -33 l0 0 Z" /><glyph glyph-name="" unicode="á" d="M185 479 l10 0 l129 176 l-68 0 l-71 -176 ZM140 -8 q61 2 107 31 q46 29 59 60 l0 -83 l132 0 l0 9 q-33 -1 -58 10 q-25 10 -26 44 l0 240 q-1 65 -41 96 q-40 30 -106 30 q-54 -2 -103 -16 q-49 -15 -52 -17 l40 -94 l6 0 q-4 36 18 72 q22 36 84 39 q53 0 80 -31 q26 -30 26 -86 l0 -58 q-122 -1 -193 -41 q-71 -40 -73 -111 q-1 -31 20 -61 q21 -31 80 -33 l0 0 ZM176 15 q-41 1 -58 25 q-18 23 -17 54 q-2 53 44 90 q45 36 161 38 l0 -115 q-11 -29 -49 -59 q-39 -31 -81 -33 l0 0 Z" /><glyph glyph-name="" unicode="&#x103;" d="M218 482 q78 9 109 69 q30 60 29 69 l-8 0 q0 -6 -32 -48 q-32 -42 -99 -48 q-67 6 -99 48 q-31 42 -31 48 l-7 0 q-1 -9 29 -69 q30 -60 109 -69 l0 0 ZM140 -8 q61 2 107 31 q46 29 59 60 l0 -83 l132 0 l0 9 q-33 -1 -58 10 q-25 10 -26 44 l0 240 q-1 65 -41 96 q-40 30 -106 30 q-54 -2 -103 -16 q-49 -15 -52 -17 l40 -94 l6 0 q-4 36 18 72 q22 36 84 39 q53 0 80 -31 q26 -30 26 -86 l0 -58 q-122 -1 -193 -41 q-71 -40 -73 -111 q-1 -31 20 -61 q21 -31 80 -33 l0 0 ZM176 15 q-41 1 -58 25 q-18 23 -17 54 q-2 53 44 90 q45 36 161 38 l0 -115 q-11 -29 -49 -59 q-39 -31 -81 -33 l0 0 Z" /><glyph glyph-name="" unicode="&#x1eb7;" d="M218 482 q78 9 109 69 q30 60 29 69 l-8 0 q0 -6 -32 -48 q-32 -42 -99 -48 q-67 6 -99 48 q-31 42 -31 48 l-7 0 q-1 -9 29 -69 q30 -60 109 -69 l0 0 ZM140 -8 q61 2 107 31 q46 29 59 60 l0 -83 l132 0 l0 9 q-33 -1 -58 10 q-25 10 -26 44 l0 240 q-1 65 -41 96 q-40 30 -106 30 q-54 -2 -103 -16 q-49 -15 -52 -17 l40 -94 l6 0 q-4 36 18 72 q22 36 84 39 q53 0 80 -31 q26 -30 26 -86 l0 -58 q-122 -1 -193 -41 q-71 -40 -73 -111 q-1 -31 20 -61 q21 -31 80 -33 l0 0 ZM176 15 q-41 1 -58 25 q-18 23 -17 54 q-2 53 44 90 q45 36 161 38 l0 -115 q-11 -29 -49 -59 q-39 -31 -81 -33 l0 0 ZM239 -163 q19 1 32 14 q13 13 14 32 q-1 19 -14 32 q-13 12 -32 13 q-20 -1 -33 -13 q-13 -13 -13 -32 q0 -19 13 -32 q13 -13 33 -14 l0 0 Z" /><glyph glyph-name="" unicode="&#x1ce;" d="M206 500 l26 0 l121 144 l-10 0 l-124 -94 l-125 94 l-9 0 l121 -144 ZM140 -8 q61 2 107 31 q46 29 59 60 l0 -83 l132 0 l0 9 q-33 -1 -58 10 q-25 10 -26 44 l0 240 q-1 65 -41 96 q-40 30 -106 30 q-54 -2 -103 -16 q-49 -15 -52 -17 l40 -94 l6 0 q-4 36 18 72 q22 36 84 39 q53 0 80 -31 q26 -30 26 -86 l0 -58 q-122 -1 -193 -41 q-71 -40 -73 -111 q-1 -31 20 -61 q21 -31 80 -33 l0 0 ZM176 15 q-41 1 -58 25 q-18 23 -17 54 q-2 53 44 90 q45 36 161 38 l0 -115 q-11 -29 -49 -59 q-39 -31 -81 -33 l0 0 Z" /><glyph glyph-name="" unicode="â" d="M85 470 l10 0 l124 95 l124 -95 l10 0 l-121 145 l-26 0 l-121 -145 ZM140 -8 q61 2 107 31 q46 29 59 60 l0 -83 l132 0 l0 9 q-33 -1 -58 10 q-25 10 -26 44 l0 240 q-1 65 -41 96 q-40 30 -106 30 q-54 -2 -103 -16 q-49 -15 -52 -17 l40 -94 l6 0 q-4 36 18 72 q22 36 84 39 q53 0 80 -31 q26 -30 26 -86 l0 -58 q-122 -1 -193 -41 q-71 -40 -73 -111 q-1 -31 20 -61 q21 -31 80 -33 l0 0 ZM176 15 q-41 1 -58 25 q-18 23 -17 54 q-2 53 44 90 q45 36 161 38 l0 -115 q-11 -29 -49 -59 q-39 -31 -81 -33 l0 0 Z" /><glyph glyph-name="" unicode="&#x1ead;" d="M85 470 l10 0 l124 95 l124 -95 l10 0 l-121 145 l-26 0 l-121 -145 ZM140 -8 q61 2 107 31 q46 29 59 60 l0 -83 l132 0 l0 9 q-33 -1 -58 10 q-25 10 -26 44 l0 240 q-1 65 -41 96 q-40 30 -106 30 q-54 -2 -103 -16 q-49 -15 -52 -17 l40 -94 l6 0 q-4 36 18 72 q22 36 84 39 q53 0 80 -31 q26 -30 26 -86 l0 -58 q-122 -1 -193 -41 q-71 -40 -73 -111 q-1 -31 20 -61 q21 -31 80 -33 l0 0 ZM176 15 q-41 1 -58 25 q-18 23 -17 54 q-2 53 44 90 q45 36 161 38 l0 -115 q-11 -29 -49 -59 q-39 -31 -81 -33 l0 0 ZM239 -163 q19 1 32 14 q13 13 14 32 q-1 19 -14 32 q-13 12 -32 13 q-20 -1 -33 -13 q-13 -13 -13 -32 q0 -19 13 -32 q13 -13 33 -14 l0 0 Z" /><glyph glyph-name="" unicode="ä" d="M155 513 q16 0 27 11 q11 11 11 27 q0 15 -11 26 q-11 11 -27 11 q-16 0 -26 -11 q-11 -11 -11 -26 q0 -16 11 -27 q10 -11 26 -11 l0 0 ZM289 513 q16 0 27 11 q11 11 11 27 q0 15 -11 26 q-11 11 -27 11 q-16 0 -26 -11 q-11 -11 -11 -26 q0 -16 11 -27 q10 -11 26 -11 l0 0 ZM140 -8 q61 2 107 31 q46 29 59 60 l0 -83 l132 0 l0 9 q-33 -1 -58 10 q-25 10 -26 44 l0 240 q-1 65 -41 96 q-40 30 -106 30 q-54 -2 -103 -16 q-49 -15 -52 -17 l40 -94 l6 0 q-4 36 18 72 q22 36 84 39 q53 0 80 -31 q26 -30 26 -86 l0 -58 q-122 -1 -193 -41 q-71 -40 -73 -111 q-1 -31 20 -61 q21 -31 80 -33 l0 0 ZM176 15 q-41 1 -58 25 q-18 23 -17 54 q-2 53 44 90 q45 36 161 38 l0 -115 q-11 -29 -49 -59 q-39 -31 -81 -33 l0 0 Z" /><glyph glyph-name="" unicode="&#x1ea1;" d="M140 -8 q61 2 107 31 q46 29 59 60 l0 -83 l132 0 l0 9 q-33 -1 -58 10 q-25 10 -26 44 l0 240 q-1 65 -41 96 q-40 30 -106 30 q-54 -2 -103 -16 q-49 -15 -52 -17 l40 -94 l6 0 q-4 36 18 72 q22 36 84 39 q53 0 80 -31 q26 -30 26 -86 l0 -58 q-122 -1 -193 -41 q-71 -40 -73 -111 q-1 -31 20 -61 q21 -31 80 -33 l0 0 ZM176 15 q-41 1 -58 25 q-18 23 -17 54 q-2 53 44 90 q45 36 161 38 l0 -115 q-11 -29 -49 -59 q-39 -31 -81 -33 l0 0 ZM239 -163 q19 1 32 14 q13 13 14 32 q-1 19 -14 32 q-13 12 -32 13 q-20 -1 -33 -13 q-13 -13 -13 -32 q0 -19 13 -32 q13 -13 33 -14 l0 0 Z" /><glyph glyph-name="" unicode="à" d="M227 480 l10 0 l-71 176 l-68 0 l129 -176 ZM140 -8 q61 2 107 31 q46 29 59 60 l0 -83 l132 0 l0 9 q-33 -1 -58 10 q-25 10 -26 44 l0 240 q-1 65 -41 96 q-40 30 -106 30 q-54 -2 -103 -16 q-49 -15 -52 -17 l40 -94 l6 0 q-4 36 18 72 q22 36 84 39 q53 0 80 -31 q26 -30 26 -86 l0 -58 q-122 -1 -193 -41 q-71 -40 -73 -111 q-1 -31 20 -61 q21 -31 80 -33 l0 0 ZM176 15 q-41 1 -58 25 q-18 23 -17 54 q-2 53 44 90 q45 36 161 38 l0 -115 q-11 -29 -49 -59 q-39 -31 -81 -33 l0 0 Z" /><glyph glyph-name="" unicode="&#x1ea3;" d="M196 489 q17 6 41 32 q25 25 27 55 q0 29 -22 50 q-21 20 -62 21 q-42 -3 -64 -26 q-22 -24 -22 -27 l4 -5 q7 7 26 18 q19 10 43 11 q31 -2 42 -20 q12 -19 11 -36 q-1 -25 -10 -42 q-10 -16 -19 -26 l5 -5 ZM140 -8 q61 2 107 31 q46 29 59 60 l0 -83 l132 0 l0 9 q-33 -1 -58 10 q-25 10 -26 44 l0 240 q-1 65 -41 96 q-40 30 -106 30 q-54 -2 -103 -16 q-49 -15 -52 -17 l40 -94 l6 0 q-4 36 18 72 q22 36 84 39 q53 0 80 -31 q26 -30 26 -86 l0 -58 q-122 -1 -193 -41 q-71 -40 -73 -111 q-1 -31 20 -61 q21 -31 80 -33 l0 0 ZM176 15 q-41 1 -58 25 q-18 23 -17 54 q-2 53 44 90 q45 36 161 38 l0 -115 q-11 -29 -49 -59 q-39 -31 -81 -33 l0 0 Z" /><glyph glyph-name="" unicode="&#x101;" d="M109 523 l210 0 l0 25 l-210 0 l0 -25 ZM140 -8 q61 2 107 31 q46 29 59 60 l0 -83 l132 0 l0 9 q-33 -1 -58 10 q-25 10 -26 44 l0 240 q-1 65 -41 96 q-40 30 -106 30 q-54 -2 -103 -16 q-49 -15 -52 -17 l40 -94 l6 0 q-4 36 18 72 q22 36 84 39 q53 0 80 -31 q26 -30 26 -86 l0 -58 q-122 -1 -193 -41 q-71 -40 -73 -111 q-1 -31 20 -61 q21 -31 80 -33 l0 0 ZM176 15 q-41 1 -58 25 q-18 23 -17 54 q-2 53 44 90 q45 36 161 38 l0 -115 q-11 -29 -49 -59 q-39 -31 -81 -33 l0 0 Z" /><glyph glyph-name="" unicode="&#x105;" d="M425 -168 q-18 0 -26 12 q-7 11 -6 29 q0 22 13 58 q12 37 32 69 l0 9 q-33 -1 -58 10 q-25 10 -26 44 l0 240 q-1 65 -41 96 q-40 30 -106 30 q-54 -2 -103 -16 q-49 -15 -52 -17 l40 -94 l6 0 q-4 36 18 72 q22 36 84 39 q53 0 80 -31 q26 -30 26 -86 l0 -58 q-122 -1 -193 -41 q-71 -40 -73 -111 q-1 -31 20 -61 q21 -31 80 -33 q61 2 107 31 q46 29 59 60 l0 -83 l118 0 q-25 -31 -48 -68 q-22 -38 -24 -73 q1 -28 18 -41 q17 -14 44 -14 q27 1 43 11 q15 9 15 10 l0 22 q-1 -1 -14 -7 q-14 -7 -33 -8 l0 0 ZM306 107 q-11 -29 -49 -59 q-39 -31 -81 -33 q-41 1 -58 25 q-18 23 -17 54 q-2 53 44 90 q45 36 161 38 l0 -115 Z" /><glyph glyph-name="" unicode="å" d="M219 489 q32 1 53 17 q21 16 22 39 q-1 24 -22 40 q-21 16 -53 17 q-32 -1 -53 -17 q-21 -16 -22 -40 q1 -23 22 -39 q21 -16 53 -17 l0 0 ZM219 510 q-15 0 -25 10 q-10 10 -10 24 q0 14 10 24 q10 10 25 10 q15 0 26 -10 q10 -10 10 -24 q0 -14 -10 -24 q-11 -10 -26 -10 l0 0 ZM140 -8 q61 2 107 31 q46 29 59 60 l0 -83 l132 0 l0 9 q-33 -1 -58 10 q-25 10 -26 44 l0 240 q-1 65 -41 96 q-40 30 -106 30 q-54 -2 -103 -16 q-49 -15 -52 -17 l40 -94 l6 0 q-4 36 18 72 q22 36 84 39 q53 0 80 -31 q26 -30 26 -86 l0 -58 q-122 -1 -193 -41 q-71 -40 -73 -111 q-1 -31 20 -61 q21 -31 80 -33 l0 0 ZM176 15 q-41 1 -58 25 q-18 23 -17 54 q-2 53 44 90 q45 36 161 38 l0 -115 q-11 -29 -49 -59 q-39 -31 -81 -33 l0 0 Z" /><glyph glyph-name="" unicode="ã" d="M280 512 q31 1 42 23 q12 22 17 52 l-6 0 q1 -2 -10 -17 q-10 -16 -40 -18 q-32 2 -61 18 q-29 16 -64 18 q-30 -1 -41 -23 q-12 -22 -18 -52 l6 0 q-1 2 10 18 q10 15 40 17 q29 -2 60 -18 q31 -16 65 -18 l0 0 ZM140 -8 q61 2 107 31 q46 29 59 60 l0 -83 l132 0 l0 9 q-33 -1 -58 10 q-25 10 -26 44 l0 240 q-1 65 -41 96 q-40 30 -106 30 q-54 -2 -103 -16 q-49 -15 -52 -17 l40 -94 l6 0 q-4 36 18 72 q22 36 84 39 q53 0 80 -31 q26 -30 26 -86 l0 -58 q-122 -1 -193 -41 q-71 -40 -73 -111 q-1 -31 20 -61 q21 -31 80 -33 l0 0 ZM176 15 q-41 1 -58 25 q-18 23 -17 54 q-2 53 44 90 q45 36 161 38 l0 -115 q-11 -29 -49 -59 q-39 -31 -81 -33 l0 0 Z" /><glyph glyph-name="" unicode="æ" d="M140 -8 q57 0 100 28 q44 28 76 80 q18 -46 54 -76 q35 -31 92 -32 q75 5 111 39 q36 34 36 39 l-8 8 q0 -4 -29 -30 q-29 -26 -85 -30 q-71 3 -101 61 q-31 59 -30 133 q0 26 3 38 q2 13 2 13 l247 0 l0 26 q1 57 -32 99 q-33 43 -106 45 q-42 -1 -76 -22 q-34 -22 -57 -59 q-14 40 -49 58 q-35 19 -86 19 q-52 -2 -90 -16 q-38 -15 -40 -17 l0 -94 l6 0 q5 36 30 72 q25 36 87 39 q53 0 77 -31 q24 -30 24 -86 l0 -58 q-109 -1 -181 -44 q-72 -42 -75 -113 q-1 -29 20 -58 q21 -29 80 -31 l0 0 ZM364 283 q5 45 32 89 q27 44 78 47 q51 -4 66 -49 q16 -45 10 -87 l-186 0 ZM176 15 q-41 1 -58 23 q-18 21 -17 51 q-1 54 46 92 q47 39 149 41 l0 -115 q-10 -29 -44 -59 q-34 -31 -76 -33 l0 0 Z" /><glyph glyph-name="" unicode="b" d="M83 -14 l6 0 l42 97 q19 -38 58 -64 q38 -26 83 -27 q92 2 147 66 q56 63 57 167 q-2 102 -55 154 q-53 51 -135 51 q-42 1 -86 -23 q-45 -24 -69 -81 l0 388 l-126 -17 l0 -8 q44 0 61 -12 q18 -13 17 -42 l0 -649 ZM272 8 q-78 2 -109 60 q-32 57 -31 152 q0 88 37 141 q38 52 117 53 q68 0 99 -47 q31 -47 30 -142 q1 -96 -32 -156 q-33 -59 -111 -61 l0 0 Z" /><glyph glyph-name="" unicode="c" d="M226 -8 q75 4 111 35 q36 31 36 35 l-8 8 q0 -3 -29 -25 q-29 -23 -85 -26 q-76 1 -118 53 q-41 51 -42 138 q0 97 34 153 q35 55 106 56 q75 -4 89 -49 q14 -44 8 -82 l6 0 l47 104 q-1 3 -42 21 q-42 17 -108 20 q-92 -2 -146 -63 q-54 -61 -55 -160 q0 -91 49 -153 q48 -62 147 -65 l0 0 Z" /><glyph glyph-name="" unicode="&#x107;" d="M207 479 l10 0 l129 176 l-68 0 l-71 -176 ZM226 -8 q75 4 111 35 q36 31 36 35 l-8 8 q0 -3 -29 -25 q-29 -23 -85 -26 q-76 1 -118 53 q-41 51 -42 138 q0 97 34 153 q35 55 106 56 q75 -4 89 -49 q14 -44 8 -82 l6 0 l47 104 q-1 3 -42 21 q-42 17 -108 20 q-92 -2 -146 -63 q-54 -61 -55 -160 q0 -91 49 -153 q48 -62 147 -65 l0 0 Z" /><glyph glyph-name="" unicode="&#x10d;" d="M228 500 l26 0 l121 144 l-10 0 l-124 -94 l-125 94 l-9 0 l121 -144 ZM226 -8 q75 4 111 35 q36 31 36 35 l-8 8 q0 -3 -29 -25 q-29 -23 -85 -26 q-76 1 -118 53 q-41 51 -42 138 q0 97 34 153 q35 55 106 56 q75 -4 89 -49 q14 -44 8 -82 l6 0 l47 104 q-1 3 -42 21 q-42 17 -108 20 q-92 -2 -146 -63 q-54 -61 -55 -160 q0 -91 49 -153 q48 -62 147 -65 l0 0 Z" /><glyph glyph-name="" unicode="ç" d="M251 19 q-76 1 -118 53 q-41 51 -42 138 q0 97 34 153 q35 55 106 56 q75 -4 89 -49 q14 -44 8 -82 l6 0 l47 104 q-1 3 -42 21 q-42 17 -108 20 q-92 -2 -146 -63 q-54 -61 -55 -160 q0 -90 48 -152 q48 -63 146 -66 l-48 -76 q37 -1 57 -13 q21 -11 21 -34 q0 -22 -12 -35 q-12 -14 -33 -14 q-15 1 -26 8 q-10 6 -11 7 l0 -14 q1 -1 17 -10 q16 -10 41 -11 q29 0 46 17 q17 16 17 44 q0 29 -21 45 q-22 16 -63 20 l24 66 q72 6 106 36 q34 30 34 34 l-8 8 q0 -3 -29 -25 q-29 -23 -85 -26 l0 0 Z" /><glyph glyph-name="" unicode="&#x10b;" d="M251 505 q19 1 32 14 q13 13 14 32 q-1 19 -14 32 q-13 12 -32 13 q-20 -1 -33 -13 q-13 -13 -13 -32 q0 -19 13 -32 q13 -13 33 -14 l0 0 ZM226 -8 q75 4 111 35 q36 31 36 35 l-8 8 q0 -3 -29 -25 q-29 -23 -85 -26 q-76 1 -118 53 q-41 51 -42 138 q0 97 34 153 q35 55 106 56 q75 -4 89 -49 q14 -44 8 -82 l6 0 l47 104 q-1 3 -42 21 q-42 17 -108 20 q-92 -2 -146 -63 q-54 -61 -55 -160 q0 -91 49 -153 q48 -62 147 -65 l0 0 Z" /><glyph glyph-name="" unicode="d" d="M234 -8 q45 1 83 27 q39 26 58 64 l0 -83 l132 0 l0 9 q-32 -1 -57 8 q-25 10 -27 44 l0 653 l-126 -17 l0 -8 q44 0 61 -12 q18 -13 17 -42 l0 -309 q-18 55 -58 80 q-41 24 -83 24 q-83 -1 -142 -58 q-59 -58 -62 -161 q1 -103 57 -160 q55 -58 147 -59 l0 0 ZM234 8 q-78 1 -111 54 q-34 53 -33 149 q0 96 37 149 q37 53 107 54 q67 -1 103 -54 q37 -53 37 -141 q1 -86 -31 -147 q-32 -61 -109 -64 l0 0 Z" /><glyph glyph-name="" unicode="ð" d="M231 -8 q91 2 145 64 q54 62 55 155 q-2 134 -53 232 q-51 99 -124 163 l112 61 l-10 14 l-116 -62 q-46 38 -89 61 q-44 24 -80 34 l0 -10 q37 -15 72 -41 q36 -26 68 -60 l-88 -47 l9 -16 l92 50 q41 -46 74 -100 q32 -54 53 -111 q-25 26 -57 39 q-32 12 -63 12 q-92 -2 -146 -64 q-54 -62 -55 -155 q1 -93 55 -155 q54 -62 146 -64 l0 0 ZM231 5 q-78 2 -110 61 q-32 59 -31 145 q-1 86 31 145 q32 59 110 61 q71 -3 105 -62 q34 -59 34 -144 q1 -84 -30 -144 q-32 -59 -109 -62 l0 0 Z" /><glyph glyph-name="" unicode="&#x10f;" d="M234 -8 q45 1 83 27 q39 26 58 64 l0 -83 l132 0 l0 9 q-32 -1 -57 8 q-25 10 -27 44 l0 653 l-126 -17 l0 -8 q44 0 61 -12 q18 -13 17 -42 l0 -309 q-18 55 -58 80 q-41 24 -83 24 q-83 -1 -142 -58 q-59 -58 -62 -161 q1 -103 57 -160 q55 -58 147 -59 l0 0 ZM473 482 q5 0 39 29 q33 29 38 87 q-4 58 -36 87 q-31 29 -36 29 l-7 -5 q18 -20 26 -49 q8 -30 8 -62 q0 -31 -10 -61 q-11 -29 -29 -50 l7 -5 ZM234 8 q-78 1 -111 54 q-34 53 -33 149 q0 96 37 149 q37 53 107 54 q67 -1 103 -54 q37 -53 37 -141 q1 -86 -31 -147 q-32 -61 -109 -64 l0 0 Z" /><glyph glyph-name="" unicode="&#x111;" d="M526 523 l0 20 l-103 0 l0 171 l-126 -17 l0 -8 q44 0 61 -12 q18 -13 17 -42 l0 -92 l-152 0 l0 -20 l152 0 l0 -197 q-18 55 -58 80 q-41 24 -83 24 q-83 -1 -142 -58 q-59 -58 -62 -161 q1 -103 57 -160 q55 -58 147 -59 q45 1 83 27 q39 26 58 64 l0 -83 l132 0 l0 9 q-32 -1 -57 8 q-25 10 -27 44 l0 462 l103 0 ZM234 8 q-78 1 -111 54 q-34 53 -33 149 q0 96 37 149 q37 53 107 54 q67 -1 103 -54 q37 -53 37 -141 q1 -86 -31 -147 q-32 -61 -109 -64 l0 0 Z" /><glyph glyph-name="" unicode="e" d="M382 263 l0 3 q0 80 -39 123 q-39 44 -118 44 q-84 -1 -138 -62 q-55 -62 -57 -165 q1 -97 54 -155 q52 -58 142 -59 q75 4 111 35 q36 31 36 35 l-8 8 q0 -3 -29 -25 q-29 -23 -85 -26 q-74 1 -117 53 q-43 52 -44 140 q0 27 3 51 l289 0 ZM222 418 q56 0 79 -35 q24 -35 23 -100 l-227 0 q13 63 46 99 q33 35 79 36 l0 0 Z" /><glyph glyph-name="" unicode="é" d="M346 655 l-68 0 l-71 -176 l10 0 l129 176 ZM382 263 l0 3 q0 80 -39 123 q-39 44 -118 44 q-84 -1 -138 -62 q-55 -62 -57 -165 q1 -97 54 -155 q52 -58 142 -59 q75 4 111 35 q36 31 36 35 l-8 8 q0 -3 -29 -25 q-29 -23 -85 -26 q-74 1 -117 53 q-43 52 -44 140 q0 27 3 51 l289 0 ZM222 418 q56 0 79 -35 q24 -35 23 -100 l-227 0 q13 63 46 99 q33 35 79 36 l0 0 Z" /><glyph glyph-name="" unicode="&#x11b;" d="M254 500 l121 144 l-10 0 l-124 -94 l-125 94 l-9 0 l121 -144 l26 0 ZM382 263 l0 3 q0 80 -39 123 q-39 44 -118 44 q-84 -1 -138 -62 q-55 -62 -57 -165 q1 -97 54 -155 q52 -58 142 -59 q75 4 111 35 q36 31 36 35 l-8 8 q0 -3 -29 -25 q-29 -23 -85 -26 q-74 1 -117 53 q-43 52 -44 140 q0 27 3 51 l289 0 ZM222 418 q56 0 79 -35 q24 -35 23 -100 l-227 0 q13 63 46 99 q33 35 79 36 l0 0 Z" /><glyph glyph-name="" unicode="ê" d="M241 565 l124 -95 l10 0 l-121 145 l-26 0 l-121 -145 l10 0 l124 95 ZM382 263 l0 3 q0 80 -39 123 q-39 44 -118 44 q-84 -1 -138 -62 q-55 -62 -57 -165 q1 -97 54 -155 q52 -58 142 -59 q75 4 111 35 q36 31 36 35 l-8 8 q0 -3 -29 -25 q-29 -23 -85 -26 q-74 1 -117 53 q-43 52 -44 140 q0 27 3 51 l289 0 ZM222 418 q56 0 79 -35 q24 -35 23 -100 l-227 0 q13 63 46 99 q33 35 79 36 l0 0 Z" /><glyph glyph-name="" unicode="&#x1ec7;" d="M241 565 l124 -95 l10 0 l-121 145 l-26 0 l-121 -145 l10 0 l124 95 ZM382 263 l0 3 q0 80 -39 123 q-39 44 -118 44 q-84 -1 -138 -62 q-55 -62 -57 -165 q1 -97 54 -155 q52 -58 142 -59 q75 4 111 35 q36 31 36 35 l-8 8 q0 -3 -29 -25 q-29 -23 -85 -26 q-74 1 -117 53 q-43 52 -44 140 q0 27 3 51 l289 0 ZM222 418 q56 0 79 -35 q24 -35 23 -100 l-227 0 q13 63 46 99 q33 35 79 36 l0 0 ZM223 -72 q-20 -1 -33 -13 q-13 -13 -13 -32 q0 -19 13 -32 q13 -13 33 -14 q19 1 32 14 q13 13 14 32 q-1 19 -14 32 q-13 12 -32 13 l0 0 Z" /><glyph glyph-name="" unicode="ë" d="M177 513 q16 0 27 11 q11 11 11 27 q0 15 -11 26 q-11 11 -27 11 q-16 0 -26 -11 q-11 -11 -11 -26 q0 -16 11 -27 q10 -11 26 -11 l0 0 ZM311 513 q16 0 27 11 q11 11 11 27 q0 15 -11 26 q-11 11 -27 11 q-16 0 -26 -11 q-11 -11 -11 -26 q0 -16 11 -27 q10 -11 26 -11 l0 0 ZM382 263 l0 3 q0 80 -39 123 q-39 44 -118 44 q-84 -1 -138 -62 q-55 -62 -57 -165 q1 -97 54 -155 q52 -58 142 -59 q75 4 111 35 q36 31 36 35 l-8 8 q0 -3 -29 -25 q-29 -23 -85 -26 q-74 1 -117 53 q-43 52 -44 140 q0 27 3 51 l289 0 ZM222 418 q56 0 79 -35 q24 -35 23 -100 l-227 0 q13 63 46 99 q33 35 79 36 l0 0 Z" /><glyph glyph-name="" unicode="&#x117;" d="M251 505 q19 1 32 14 q13 13 14 32 q-1 19 -14 32 q-13 12 -32 13 q-20 -1 -33 -13 q-13 -13 -13 -32 q0 -19 13 -32 q13 -13 33 -14 l0 0 ZM382 263 l0 3 q0 80 -39 123 q-39 44 -118 44 q-84 -1 -138 -62 q-55 -62 -57 -165 q1 -97 54 -155 q52 -58 142 -59 q75 4 111 35 q36 31 36 35 l-8 8 q0 -3 -29 -25 q-29 -23 -85 -26 q-74 1 -117 53 q-43 52 -44 140 q0 27 3 51 l289 0 ZM222 418 q56 0 79 -35 q24 -35 23 -100 l-227 0 q13 63 46 99 q33 35 79 36 l0 0 Z" /><glyph glyph-name="" unicode="&#x1eb9;" d="M382 263 l0 3 q0 80 -39 123 q-39 44 -118 44 q-84 -1 -138 -62 q-55 -62 -57 -165 q1 -97 54 -155 q52 -58 142 -59 q75 4 111 35 q36 31 36 35 l-8 8 q0 -3 -29 -25 q-29 -23 -85 -26 q-74 1 -117 53 q-43 52 -44 140 q0 27 3 51 l289 0 ZM222 418 q56 0 79 -35 q24 -35 23 -100 l-227 0 q13 63 46 99 q33 35 79 36 l0 0 ZM223 -72 q-20 -1 -33 -13 q-13 -13 -13 -32 q0 -19 13 -32 q13 -13 33 -14 q19 1 32 14 q13 13 14 32 q-1 19 -14 32 q-13 12 -32 13 l0 0 Z" /><glyph glyph-name="" unicode="è" d="M259 480 l-71 176 l-68 0 l129 -176 l10 0 ZM382 263 l0 3 q0 80 -39 123 q-39 44 -118 44 q-84 -1 -138 -62 q-55 -62 -57 -165 q1 -97 54 -155 q52 -58 142 -59 q75 4 111 35 q36 31 36 35 l-8 8 q0 -3 -29 -25 q-29 -23 -85 -26 q-74 1 -117 53 q-43 52 -44 140 q0 27 3 51 l289 0 ZM222 418 q56 0 79 -35 q24 -35 23 -100 l-227 0 q13 63 46 99 q33 35 79 36 l0 0 Z" /><glyph glyph-name="" unicode="&#x1ebb;" d="M189 618 q31 -2 42 -20 q12 -19 11 -36 q-1 -25 -10 -42 q-10 -16 -19 -26 l5 -5 q17 6 41 32 q25 25 27 55 q0 29 -22 50 q-21 20 -62 21 q-42 -3 -64 -26 q-22 -24 -22 -27 l4 -5 q7 7 26 18 q19 10 43 11 l0 0 ZM382 263 l0 3 q0 80 -39 123 q-39 44 -118 44 q-84 -1 -138 -62 q-55 -62 -57 -165 q1 -97 54 -155 q52 -58 142 -59 q75 4 111 35 q36 31 36 35 l-8 8 q0 -3 -29 -25 q-29 -23 -85 -26 q-74 1 -117 53 q-43 52 -44 140 q0 27 3 51 l289 0 ZM222 418 q56 0 79 -35 q24 -35 23 -100 l-227 0 q13 63 46 99 q33 35 79 36 l0 0 Z" /><glyph glyph-name="" unicode="&#x113;" d="M341 548 l-210 0 l0 -25 l210 0 l0 25 ZM382 263 l0 3 q0 80 -39 123 q-39 44 -118 44 q-84 -1 -138 -62 q-55 -62 -57 -165 q1 -97 54 -155 q52 -58 142 -59 q75 4 111 35 q36 31 36 35 l-8 8 q0 -3 -29 -25 q-29 -23 -85 -26 q-74 1 -117 53 q-43 52 -44 140 q0 27 3 51 l289 0 ZM222 418 q56 0 79 -35 q24 -35 23 -100 l-227 0 q13 63 46 99 q33 35 79 36 l0 0 Z" /><glyph glyph-name="" unicode="&#x119;" d="M370 -106 q-18 0 -26 12 q-7 11 -6 29 q0 22 13 58 q12 37 32 69 l-10 0 l-8 8 q0 -3 -29 -25 q-29 -23 -85 -26 q-74 1 -117 53 q-43 52 -44 140 q0 27 3 51 l289 0 l0 3 q0 80 -39 123 q-39 44 -118 44 q-84 -1 -138 -62 q-55 -62 -57 -165 q1 -97 54 -155 q52 -58 142 -59 q45 1 75 15 q31 13 48 29 q-20 -27 -36 -57 q-15 -30 -16 -58 q1 -28 18 -41 q17 -14 44 -14 q27 1 43 11 q15 9 15 10 l0 22 q-1 -1 -14 -7 q-14 -7 -33 -8 l0 0 ZM222 418 q56 0 79 -35 q24 -35 23 -100 l-227 0 q13 63 46 99 q33 35 79 36 l0 0 Z" /><glyph glyph-name="" unicode="&#x1ebd;" d="M177 548 q29 -2 60 -18 q31 -16 65 -18 q31 1 42 23 q12 22 17 52 l-6 0 q1 -2 -10 -17 q-10 -16 -40 -18 q-32 2 -61 18 q-29 16 -64 18 q-30 -1 -41 -23 q-12 -22 -18 -52 l6 0 q-1 2 10 18 q10 15 40 17 l0 0 ZM382 263 l0 3 q0 80 -39 123 q-39 44 -118 44 q-84 -1 -138 -62 q-55 -62 -57 -165 q1 -97 54 -155 q52 -58 142 -59 q75 4 111 35 q36 31 36 35 l-8 8 q0 -3 -29 -25 q-29 -23 -85 -26 q-74 1 -117 53 q-43 52 -44 140 q0 27 3 51 l289 0 ZM222 418 q56 0 79 -35 q24 -35 23 -100 l-227 0 q13 63 46 99 q33 35 79 36 l0 0 Z" /><glyph glyph-name="" unicode="f" d="M30 0 l230 0 l0 9 q-51 -1 -74 10 q-24 11 -24 44 l0 330 l152 0 l0 21 l-152 0 l0 172 q0 46 24 76 q23 29 63 30 q52 -2 69 -36 q16 -33 15 -69 l6 0 l30 94 q0 2 -26 17 q-26 14 -76 16 q-78 -4 -116 -68 q-37 -65 -37 -142 l0 -90 l-80 0 l0 -21 l80 0 l0 -332 q-1 -34 -27 -44 q-25 -9 -57 -8 l0 -9 Z" /><glyph glyph-name="" unicode="g" d="M246 13 q-33 0 -61 -4 q-28 -5 -53 -14 q-13 51 13 91 q26 40 79 47 q84 3 125 50 q40 47 40 99 q0 35 -17 71 q-17 35 -54 58 l97 0 l0 21 q-47 1 -95 0 q-49 -1 -96 0 q-85 -3 -125 -51 q-41 -47 -41 -99 q-1 -42 25 -84 q25 -42 82 -58 q-26 -28 -57 -54 q-30 -26 -54 -41 l65 -56 q-50 -23 -70 -56 q-20 -33 -19 -65 q-1 -50 45 -93 q46 -42 144 -45 q100 2 160 44 q60 42 62 102 q-4 76 -67 107 q-62 31 -128 30 l0 0 ZM114 282 q-1 48 22 91 q23 42 88 45 q64 -3 87 -45 q23 -43 22 -91 q1 -48 -22 -90 q-23 -43 -87 -46 q-65 3 -88 46 q-23 42 -22 90 l0 0 ZM233 -256 q-81 2 -114 40 q-32 38 -31 84 q0 54 39 92 q38 37 113 39 q66 0 103 -29 q37 -29 38 -88 q1 -58 -33 -97 q-34 -39 -115 -41 l0 0 Z" /><glyph glyph-name="" unicode="&#x11f;" d="M223 482 q78 9 109 69 q30 60 29 69 l-8 0 q0 -6 -32 -48 q-32 -42 -99 -48 q-67 6 -99 48 q-31 42 -31 48 l-7 0 q-1 -9 29 -69 q30 -60 109 -69 l0 0 ZM246 13 q-33 0 -61 -4 q-28 -5 -53 -14 q-13 51 13 91 q26 40 79 47 q84 3 125 50 q40 47 40 99 q0 35 -17 71 q-17 35 -54 58 l97 0 l0 21 q-47 1 -95 0 q-49 -1 -96 0 q-85 -3 -125 -51 q-41 -47 -41 -99 q-1 -42 25 -84 q25 -42 82 -58 q-26 -28 -57 -54 q-30 -26 -54 -41 l65 -56 q-50 -23 -70 -56 q-20 -33 -19 -65 q-1 -50 45 -93 q46 -42 144 -45 q100 2 160 44 q60 42 62 102 q-4 76 -67 107 q-62 31 -128 30 l0 0 ZM114 282 q-1 48 22 91 q23 42 88 45 q64 -3 87 -45 q23 -43 22 -91 q1 -48 -22 -90 q-23 -43 -87 -46 q-65 3 -88 46 q-23 42 -22 90 l0 0 ZM233 -256 q-81 2 -114 40 q-32 38 -31 84 q0 54 39 92 q38 37 113 39 q66 0 103 -29 q37 -29 38 -88 q1 -58 -33 -97 q-34 -39 -115 -41 l0 0 Z" /><glyph glyph-name="" unicode="&#x123;" d="M329 655 l-68 0 l-71 -176 l10 0 l129 176 ZM246 13 q-33 0 -61 -4 q-28 -5 -53 -14 q-13 51 13 91 q26 40 79 47 q84 3 125 50 q40 47 40 99 q0 35 -17 71 q-17 35 -54 58 l97 0 l0 21 q-47 1 -95 0 q-49 -1 -96 0 q-85 -3 -125 -51 q-41 -47 -41 -99 q-1 -42 25 -84 q25 -42 82 -58 q-26 -28 -57 -54 q-30 -26 -54 -41 l65 -56 q-50 -23 -70 -56 q-20 -33 -19 -65 q-1 -50 45 -93 q46 -42 144 -45 q100 2 160 44 q60 42 62 102 q-4 76 -67 107 q-62 31 -128 30 l0 0 ZM114 282 q-1 48 22 91 q23 42 88 45 q64 -3 87 -45 q23 -43 22 -91 q1 -48 -22 -90 q-23 -43 -87 -46 q-65 3 -88 46 q-23 42 -22 90 l0 0 ZM233 -256 q-81 2 -114 40 q-32 38 -31 84 q0 54 39 92 q38 37 113 39 q66 0 103 -29 q37 -29 38 -88 q1 -58 -33 -97 q-34 -39 -115 -41 l0 0 Z" /><glyph glyph-name="" unicode="&#x121;" d="M234 505 q19 1 32 14 q13 13 14 32 q-1 19 -14 32 q-13 12 -32 13 q-20 -1 -33 -13 q-13 -13 -13 -32 q0 -19 13 -32 q13 -13 33 -14 l0 0 ZM246 13 q-33 0 -61 -4 q-28 -5 -53 -14 q-13 51 13 91 q26 40 79 47 q84 3 125 50 q40 47 40 99 q0 35 -17 71 q-17 35 -54 58 l97 0 l0 21 q-47 1 -95 0 q-49 -1 -96 0 q-85 -3 -125 -51 q-41 -47 -41 -99 q-1 -42 25 -84 q25 -42 82 -58 q-26 -28 -57 -54 q-30 -26 -54 -41 l65 -56 q-50 -23 -70 -56 q-20 -33 -19 -65 q-1 -50 45 -93 q46 -42 144 -45 q100 2 160 44 q60 42 62 102 q-4 76 -67 107 q-62 31 -128 30 l0 0 ZM114 282 q-1 48 22 91 q23 42 88 45 q64 -3 87 -45 q23 -43 22 -91 q1 -48 -22 -90 q-23 -43 -87 -46 q-65 3 -88 46 q-23 42 -22 90 l0 0 ZM233 -256 q-81 2 -114 40 q-32 38 -31 84 q0 54 39 92 q38 37 113 39 q66 0 103 -29 q37 -29 38 -88 q1 -58 -33 -97 q-34 -39 -115 -41 l0 0 Z" /><glyph glyph-name="" unicode="h" d="M10 0 l216 0 l0 9 q-32 -1 -57 10 q-26 11 -27 44 l0 249 q4 20 41 59 q37 39 107 43 q46 0 66 -29 q20 -29 19 -82 l0 -240 q-1 -36 -26 -45 q-25 -10 -58 -9 l0 -9 l216 0 l0 9 q-33 -1 -58 10 q-25 11 -26 44 l0 247 q0 71 -33 98 q-33 26 -94 25 q-67 -4 -108 -37 q-41 -34 -47 -56 l0 374 l-125 -17 l0 -8 q32 0 55 -12 q22 -13 23 -42 l0 -572 q-1 -36 -26 -45 q-25 -10 -58 -9 l0 -9 Z" /><glyph glyph-name="" unicode="&#x127;" d="M27 0 l216 0 l0 9 q-32 -1 -57 10 q-26 11 -27 44 l0 249 q4 20 41 59 q37 39 107 43 q46 0 66 -29 q20 -29 19 -82 l0 -240 q-1 -36 -26 -45 q-25 -10 -58 -9 l0 -9 l216 0 l0 9 q-33 -1 -58 10 q-25 11 -26 44 l0 247 q0 71 -33 98 q-33 26 -94 25 q-67 -4 -108 -37 q-41 -34 -47 -56 l0 163 l174 0 l0 20 l-174 0 l0 191 l-125 -17 l0 -8 q32 0 55 -12 q22 -13 23 -42 l0 -112 l-82 0 l0 -20 l82 0 l0 -440 q-1 -36 -26 -45 q-25 -10 -58 -9 l0 -9 Z" /><glyph glyph-name="" unicode="i" d="M126 529 q16 0 27 11 q11 11 11 27 q0 15 -11 26 q-11 11 -27 11 q-16 0 -26 -11 q-10 -11 -10 -26 q0 -16 10 -27 q10 -11 26 -11 l0 0 ZM30 0 l216 0 l0 8 q-32 -1 -57 11 q-26 11 -27 44 l0 367 l-126 -16 l0 -9 q44 0 61 -12 q18 -12 17 -42 l0 -290 q-2 -34 -27 -44 q-25 -10 -57 -9 l0 -8 Z" /><glyph glyph-name="" unicode="&#x131;" d="M32 0 l216 0 l0 8 q-32 -1 -57 11 q-26 11 -27 44 l0 367 l-126 -16 l0 -9 q44 0 61 -12 q18 -12 17 -42 l0 -290 q-2 -34 -27 -44 q-25 -10 -57 -9 l0 -8 Z" /><glyph glyph-name="" unicode="í" d="M104 479 l10 0 l129 176 l-68 0 l-71 -176 ZM32 0 l216 0 l0 8 q-32 -1 -57 11 q-26 11 -27 44 l0 367 l-126 -16 l0 -9 q44 0 61 -12 q18 -12 17 -42 l0 -290 q-2 -34 -27 -44 q-25 -10 -57 -9 l0 -8 Z" /><glyph glyph-name="" unicode="&#x1d0;" d="M125 500 l26 0 l121 144 l-10 0 l-124 -94 l-125 94 l-9 0 l121 -144 ZM32 0 l216 0 l0 8 q-32 -1 -57 11 q-26 11 -27 44 l0 367 l-126 -16 l0 -9 q44 0 61 -12 q18 -12 17 -42 l0 -290 q-2 -34 -27 -44 q-25 -10 -57 -9 l0 -8 Z" /><glyph glyph-name="" unicode="î" d="M4 470 l10 0 l124 95 l124 -95 l10 0 l-121 145 l-26 0 l-121 -145 ZM32 0 l216 0 l0 8 q-32 -1 -57 11 q-26 11 -27 44 l0 367 l-126 -16 l0 -9 q44 0 61 -12 q18 -12 17 -42 l0 -290 q-2 -34 -27 -44 q-25 -10 -57 -9 l0 -8 Z" /><glyph glyph-name="" unicode="ï" d="M74 513 q16 0 27 11 q11 11 11 27 q0 15 -11 26 q-11 11 -27 11 q-16 0 -26 -11 q-11 -11 -11 -26 q0 -16 11 -27 q10 -11 26 -11 l0 0 ZM208 513 q16 0 27 11 q11 11 11 27 q0 15 -11 26 q-11 11 -27 11 q-16 0 -26 -11 q-11 -11 -11 -26 q0 -16 11 -27 q10 -11 26 -11 l0 0 ZM32 0 l216 0 l0 8 q-32 -1 -57 11 q-26 11 -27 44 l0 367 l-126 -16 l0 -9 q44 0 61 -12 q18 -12 17 -42 l0 -290 q-2 -34 -27 -44 q-25 -10 -57 -9 l0 -8 Z" /><glyph glyph-name="" unicode="&#x1ecb;" d="M126 529 q16 0 27 11 q11 11 11 27 q0 15 -11 26 q-11 11 -27 11 q-16 0 -26 -11 q-10 -11 -10 -26 q0 -16 10 -27 q10 -11 26 -11 l0 0 ZM30 0 l216 0 l0 8 q-32 -1 -57 11 q-26 11 -27 44 l0 367 l-126 -16 l0 -9 q44 0 61 -12 q18 -12 17 -42 l0 -290 q-2 -34 -27 -44 q-25 -10 -57 -9 l0 -8 ZM142 -148 q19 1 32 14 q13 13 14 32 q-1 19 -14 32 q-13 12 -32 13 q-20 -1 -33 -13 q-13 -13 -13 -32 q0 -19 13 -32 q13 -13 33 -14 l0 0 Z" /><glyph glyph-name="" unicode="ì" d="M146 480 l10 0 l-71 176 l-68 0 l129 -176 ZM32 0 l216 0 l0 8 q-32 -1 -57 11 q-26 11 -27 44 l0 367 l-126 -16 l0 -9 q44 0 61 -12 q18 -12 17 -42 l0 -290 q-2 -34 -27 -44 q-25 -10 -57 -9 l0 -8 Z" /><glyph glyph-name="" unicode="&#x1ec9;" d="M115 489 q17 6 41 32 q25 25 27 55 q0 29 -22 50 q-21 20 -62 21 q-42 -3 -64 -26 q-22 -24 -22 -27 l4 -5 q7 7 26 18 q19 10 43 11 q31 -2 42 -20 q12 -19 11 -36 q-1 -25 -10 -42 q-10 -16 -19 -26 l5 -5 ZM32 0 l216 0 l0 8 q-32 -1 -57 11 q-26 11 -27 44 l0 367 l-126 -16 l0 -9 q44 0 61 -12 q18 -12 17 -42 l0 -290 q-2 -34 -27 -44 q-25 -10 -57 -9 l0 -8 Z" /><glyph glyph-name="" unicode="&#x133;" d="M126 529 q16 0 27 11 q11 11 11 27 q0 15 -11 26 q-11 11 -27 11 q-16 0 -26 -11 q-10 -11 -10 -26 q0 -16 10 -27 q10 -11 26 -11 l0 0 ZM356 529 q16 0 27 11 q11 11 11 27 q0 15 -11 26 q-11 11 -27 11 q-16 0 -26 -11 q-10 -11 -10 -26 q0 -16 10 -27 q10 -11 26 -11 l0 0 ZM30 0 l216 0 l0 8 q-32 -1 -57 11 q-26 11 -27 44 l0 367 l-126 -16 l0 -9 q44 0 61 -12 q18 -12 17 -42 l0 -290 q-2 -34 -27 -44 q-25 -10 -57 -9 l0 -8 ZM303 -269 q42 0 67 20 q24 20 24 63 l0 616 l-126 -16 l0 -9 q44 0 61 -12 q18 -12 17 -42 l0 -522 q0 -37 -16 -55 q-16 -18 -45 -18 q-33 2 -67 16 q-33 14 -36 16 l-6 -5 q2 -3 38 -26 q37 -23 89 -26 l0 0 Z" /><glyph glyph-name="" unicode="&#x12b;" d="M28 523 l210 0 l0 25 l-210 0 l0 -25 ZM32 0 l216 0 l0 8 q-32 -1 -57 11 q-26 11 -27 44 l0 367 l-126 -16 l0 -9 q44 0 61 -12 q18 -12 17 -42 l0 -290 q-2 -34 -27 -44 q-25 -10 -57 -9 l0 -8 Z" /><glyph glyph-name="" unicode="&#x12f;" d="M126 529 q16 0 27 11 q11 11 11 27 q0 15 -11 26 q-11 11 -27 11 q-16 0 -26 -11 q-10 -11 -10 -26 q0 -16 10 -27 q10 -11 26 -11 l0 0 ZM233 -168 q-18 0 -26 12 q-7 11 -6 29 q0 22 13 58 q12 37 32 69 l0 8 q-32 -1 -57 11 q-26 11 -27 44 l0 367 l-126 -16 l0 -9 q44 0 61 -12 q18 -12 17 -42 l0 -290 q-2 -34 -27 -44 q-25 -10 -57 -9 l0 -8 l202 0 q-25 -31 -48 -68 q-22 -38 -24 -73 q1 -28 18 -41 q17 -14 44 -14 q27 1 43 11 q15 9 15 10 l0 22 q-1 -1 -14 -7 q-14 -7 -33 -8 l0 0 Z" /><glyph glyph-name="" unicode="&#x129;" d="M199 512 q31 1 42 23 q12 22 17 52 l-6 0 q1 -2 -10 -17 q-10 -16 -40 -18 q-32 2 -61 18 q-29 16 -64 18 q-30 -1 -41 -23 q-12 -22 -18 -52 l6 0 q-1 2 10 18 q10 15 40 17 q29 -2 60 -18 q31 -16 65 -18 l0 0 ZM32 0 l216 0 l0 8 q-32 -1 -57 11 q-26 11 -27 44 l0 367 l-126 -16 l0 -9 q44 0 61 -12 q18 -12 17 -42 l0 -290 q-2 -34 -27 -44 q-25 -10 -57 -9 l0 -8 Z" /><glyph glyph-name="" unicode="j" d="M100 529 q16 0 27 11 q11 11 11 27 q0 15 -11 26 q-11 11 -27 11 q-16 0 -26 -11 q-10 -11 -10 -26 q0 -16 10 -27 q10 -11 26 -11 l0 0 ZM47 -269 q42 0 67 20 q24 20 24 63 l0 616 l-126 -16 l0 -9 q44 0 61 -12 q18 -12 17 -42 l0 -522 q0 -37 -16 -55 q-16 -18 -45 -18 q-33 2 -67 16 q-33 14 -36 16 l-6 -5 q2 -3 38 -26 q37 -23 89 -26 l0 0 Z" /><glyph glyph-name="" unicode="&#x237;" d="M47 -269 q42 0 67 20 q24 20 24 63 l0 616 l-126 -16 l0 -9 q44 0 61 -12 q18 -12 17 -42 l0 -522 q0 -37 -16 -55 q-16 -18 -45 -18 q-33 2 -67 16 q-33 14 -36 16 l-6 -5 q2 -3 38 -26 q37 -23 89 -26 l0 0 Z" /><glyph glyph-name="" unicode="k" d="M408 42 q-20 26 -82 107 q-62 80 -93 121 l198 145 l-75 18 l-214 -217 l0 498 l-126 -17 l0 -8 q44 0 61 -12 q18 -13 17 -42 l0 -574 q-2 -34 -27 -44 q-25 -9 -57 -8 l0 -9 l216 0 l0 9 q-33 -1 -58 10 q-25 11 -26 44 l0 139 l6 5 l48 36 q25 -32 76 -100 q50 -68 72 -97 q18 -25 6 -31 q-13 -7 -40 -6 l0 -9 l173 0 l0 9 q-22 -1 -41 6 q-18 7 -34 27 l0 0 Z" /><glyph glyph-name="" unicode="&#x137;" d="M408 42 q-20 26 -82 107 q-62 80 -93 121 l198 145 l-75 18 l-214 -217 l0 498 l-126 -17 l0 -8 q44 0 61 -12 q18 -13 17 -42 l0 -574 q-2 -34 -27 -44 q-25 -9 -57 -8 l0 -9 l216 0 l0 9 q-33 -1 -58 10 q-25 11 -26 44 l0 139 l6 5 l48 36 q25 -32 76 -100 q50 -68 72 -97 q18 -25 6 -31 q-13 -7 -40 -6 l0 -9 l173 0 l0 9 q-22 -1 -41 6 q-18 7 -34 27 l0 0 ZM166 -229 l10 0 l92 184 l-54 12 l-48 -196 Z" /><glyph glyph-name="" unicode="l" d="M10 0 l216 0 l0 9 q-33 -1 -58 10 q-25 11 -26 44 l0 651 l-126 -17 l0 -8 q44 0 61 -12 q18 -13 17 -42 l0 -574 q-2 -34 -27 -44 q-25 -9 -57 -8 l0 -9 Z" /><glyph glyph-name="" unicode="&#x13a;" d="M110 742 l10 0 l129 146 l-68 0 l-71 -146 ZM10 0 l216 0 l0 9 q-33 -1 -58 10 q-25 11 -26 44 l0 651 l-126 -17 l0 -8 q44 0 61 -12 q18 -13 17 -42 l0 -574 q-2 -34 -27 -44 q-25 -9 -57 -8 l0 -9 Z" /><glyph glyph-name="" unicode="&#x13e;" d="M10 0 l216 0 l0 9 q-33 -1 -58 10 q-25 11 -26 44 l0 651 l-126 -17 l0 -8 q44 0 61 -12 q18 -13 17 -42 l0 -574 q-2 -34 -27 -44 q-25 -9 -57 -8 l0 -9 ZM193 482 q5 0 39 29 q33 29 38 87 q-4 58 -36 87 q-31 29 -36 29 l-7 -5 q18 -20 26 -49 q8 -30 8 -62 q0 -31 -10 -61 q-11 -29 -29 -50 l7 -5 Z" /><glyph glyph-name="" unicode="&#x13c;" d="M10 0 l216 0 l0 9 q-33 -1 -58 10 q-25 11 -26 44 l0 651 l-126 -17 l0 -8 q44 0 61 -12 q18 -13 17 -42 l0 -574 q-2 -34 -27 -44 q-25 -9 -57 -8 l0 -9 ZM50 -229 l10 0 l92 184 l-54 12 l-48 -196 Z" /><glyph glyph-name="" unicode="&#x140;" d="M10 0 l216 0 l0 9 q-33 -1 -58 10 q-25 11 -26 44 l0 651 l-126 -17 l0 -8 q44 0 61 -12 q18 -13 17 -42 l0 -574 q-2 -34 -27 -44 q-25 -9 -57 -8 l0 -9 ZM255 289 q19 1 32 14 q13 13 14 32 q-1 19 -14 32 q-13 12 -32 13 q-20 -1 -33 -13 q-13 -13 -13 -32 q0 -19 13 -32 q13 -13 33 -14 l0 0 Z" /><glyph glyph-name="" unicode="&#x142;" d="M145 63 l0 329 l77 31 l0 19 l-77 -31 l0 303 l-126 -17 l0 -8 q44 0 61 -12 q18 -13 17 -42 l0 -243 l-87 -34 l0 -19 l87 34 l0 -312 q-2 -34 -27 -44 q-25 -9 -57 -8 l0 -9 l216 0 l0 9 q-33 -1 -58 10 q-25 11 -26 44 l0 0 Z" /><glyph glyph-name="" unicode="m" d="M30 0 l203 0 l0 9 q-32 -1 -51 10 q-19 11 -19 44 l0 249 q3 20 34 59 q31 39 95 43 q45 0 61 -29 q15 -29 14 -82 l0 -240 q0 -36 -19 -45 q-19 -10 -51 -9 l0 -9 l188 0 l0 9 q-32 -1 -51 10 q-19 11 -19 44 l0 249 q3 20 34 59 q31 39 95 43 q45 0 61 -29 q15 -29 14 -82 l0 -240 q0 -36 -19 -45 q-19 -10 -51 -9 l0 -9 l202 0 l0 9 q-33 -1 -58 10 q-25 11 -26 44 l0 247 q0 71 -28 98 q-28 26 -88 25 q-60 -3 -96 -37 q-36 -34 -42 -56 q-5 53 -33 74 q-28 20 -81 19 q-60 -4 -96 -37 q-36 -34 -42 -56 l0 90 l-124 -16 l0 -8 q32 0 54 -12 q22 -13 23 -43 l0 -288 q-1 -36 -26 -45 q-25 -10 -58 -9 l0 -9 Z" /><glyph glyph-name="" unicode="n" d="M30 0 l216 0 l0 9 q-32 -1 -57 10 q-26 11 -27 44 l0 250 q4 20 41 58 q37 39 107 43 q46 0 66 -29 q20 -29 19 -82 l0 -240 q-1 -36 -26 -45 q-25 -10 -58 -9 l0 -9 l216 0 l0 9 q-33 -1 -58 10 q-25 11 -26 44 l0 247 q0 71 -33 98 q-34 26 -94 25 q-67 -4 -108 -37 q-41 -34 -47 -56 l0 90 l-125 -16 l0 -8 q32 0 55 -12 q22 -13 23 -43 l0 -288 q-1 -36 -26 -45 q-25 -10 -58 -9 l0 -9 Z" /><glyph glyph-name="" unicode="&#x144;" d="M238 479 l10 0 l129 176 l-68 0 l-71 -176 ZM30 0 l216 0 l0 9 q-32 -1 -57 10 q-26 11 -27 44 l0 250 q4 20 41 58 q37 39 107 43 q46 0 66 -29 q20 -29 19 -82 l0 -240 q-1 -36 -26 -45 q-25 -10 -58 -9 l0 -9 l216 0 l0 9 q-33 -1 -58 10 q-25 11 -26 44 l0 247 q0 71 -33 98 q-34 26 -94 25 q-67 -4 -108 -37 q-41 -34 -47 -56 l0 90 l-125 -16 l0 -8 q32 0 55 -12 q22 -13 23 -43 l0 -288 q-1 -36 -26 -45 q-25 -10 -58 -9 l0 -9 Z" /><glyph glyph-name="" unicode="&#x148;" d="M259 500 l26 0 l121 144 l-10 0 l-124 -94 l-125 94 l-9 0 l121 -144 ZM30 0 l216 0 l0 9 q-32 -1 -57 10 q-26 11 -27 44 l0 250 q4 20 41 58 q37 39 107 43 q46 0 66 -29 q20 -29 19 -82 l0 -240 q-1 -36 -26 -45 q-25 -10 -58 -9 l0 -9 l216 0 l0 9 q-33 -1 -58 10 q-25 11 -26 44 l0 247 q0 71 -33 98 q-34 26 -94 25 q-67 -4 -108 -37 q-41 -34 -47 -56 l0 90 l-125 -16 l0 -8 q32 0 55 -12 q22 -13 23 -43 l0 -288 q-1 -36 -26 -45 q-25 -10 -58 -9 l0 -9 Z" /><glyph glyph-name="" unicode="&#x146;" d="M30 0 l216 0 l0 9 q-32 -1 -57 10 q-26 11 -27 44 l0 250 q4 20 41 58 q37 39 107 43 q46 0 66 -29 q20 -29 19 -82 l0 -240 q-1 -36 -26 -45 q-25 -10 -58 -9 l0 -9 l216 0 l0 9 q-33 -1 -58 10 q-25 11 -26 44 l0 247 q0 71 -33 98 q-34 26 -94 25 q-67 -4 -108 -37 q-41 -34 -47 -56 l0 90 l-125 -16 l0 -8 q32 0 55 -12 q22 -13 23 -43 l0 -288 q-1 -36 -26 -45 q-25 -10 -58 -9 l0 -9 ZM198 -229 l10 0 l92 184 l-54 12 l-48 -196 Z" /><glyph glyph-name="" unicode="&#x14b;" d="M416 -181 q63 1 88 36 q25 35 24 85 l0 577 q0 37 21 51 q21 14 66 13 l0 7 l-200 0 l0 -7 q41 2 69 -8 q28 -11 29 -56 l0 -423 l-343 494 l-134 0 l0 -7 q45 1 66 -13 q20 -14 20 -51 l0 -445 q0 -39 -20 -52 q-21 -13 -66 -12 l0 -8 l199 0 l0 8 q-42 -2 -71 10 q-28 11 -29 54 l0 471 l378 -543 l0 -50 q1 -46 -18 -80 q-18 -33 -69 -35 q-19 -1 -59 14 q-41 14 -70 59 l-22 -68 q3 -1 45 -10 q43 -10 96 -11 l0 0 Z" /><glyph glyph-name="" unicode="ñ" d="M333 512 q31 1 42 23 q12 22 17 52 l-6 0 q1 -2 -10 -17 q-10 -16 -40 -18 q-32 2 -61 18 q-29 16 -64 18 q-30 -1 -41 -23 q-12 -22 -18 -52 l6 0 q-1 2 10 18 q10 15 40 17 q29 -2 60 -18 q31 -16 65 -18 l0 0 ZM30 0 l216 0 l0 9 q-32 -1 -57 10 q-26 11 -27 44 l0 250 q4 20 41 58 q37 39 107 43 q46 0 66 -29 q20 -29 19 -82 l0 -240 q-1 -36 -26 -45 q-25 -10 -58 -9 l0 -9 l216 0 l0 9 q-33 -1 -58 10 q-25 11 -26 44 l0 247 q0 71 -33 98 q-34 26 -94 25 q-67 -4 -108 -37 q-41 -34 -47 -56 l0 90 l-125 -16 l0 -8 q32 0 55 -12 q22 -13 23 -43 l0 -288 q-1 -36 -26 -45 q-25 -10 -58 -9 l0 -9 Z" /><glyph glyph-name="" unicode="o" d="M231 -8 q91 2 145 65 q54 62 55 155 q-1 93 -55 155 q-54 63 -145 65 q-92 -2 -146 -65 q-54 -62 -55 -155 q1 -93 55 -155 q54 -63 146 -65 l0 0 ZM231 5 q-78 2 -109 62 q-31 59 -30 145 q-1 86 30 146 q31 59 109 61 q77 -2 108 -61 q30 -60 29 -146 q1 -86 -29 -145 q-31 -60 -108 -62 l0 0 Z" /><glyph glyph-name="" unicode="ó" d="M198 479 l10 0 l129 176 l-68 0 l-71 -176 ZM231 -8 q91 2 145 65 q54 62 55 155 q-1 93 -55 155 q-54 63 -145 65 q-92 -2 -146 -65 q-54 -62 -55 -155 q1 -93 55 -155 q54 -63 146 -65 l0 0 ZM231 5 q-78 2 -109 62 q-31 59 -30 145 q-1 86 30 146 q31 59 109 61 q77 -2 108 -61 q30 -60 29 -146 q1 -86 -29 -145 q-31 -60 -108 -62 l0 0 Z" /><glyph glyph-name="" unicode="&#x1d2;" d="M219 500 l26 0 l121 144 l-10 0 l-124 -94 l-125 94 l-9 0 l121 -144 ZM231 -8 q91 2 145 65 q54 62 55 155 q-1 93 -55 155 q-54 63 -145 65 q-92 -2 -146 -65 q-54 -62 -55 -155 q1 -93 55 -155 q54 -63 146 -65 l0 0 ZM231 5 q-78 2 -109 62 q-31 59 -30 145 q-1 86 30 146 q31 59 109 61 q77 -2 108 -61 q30 -60 29 -146 q1 -86 -29 -145 q-31 -60 -108 -62 l0 0 Z" /><glyph glyph-name="" unicode="ô" d="M98 470 l10 0 l124 95 l124 -95 l10 0 l-121 145 l-26 0 l-121 -145 ZM231 -8 q91 2 145 65 q54 62 55 155 q-1 93 -55 155 q-54 63 -145 65 q-92 -2 -146 -65 q-54 -62 -55 -155 q1 -93 55 -155 q54 -63 146 -65 l0 0 ZM231 5 q-78 2 -109 62 q-31 59 -30 145 q-1 86 30 146 q31 59 109 61 q77 -2 108 -61 q30 -60 29 -146 q1 -86 -29 -145 q-31 -60 -108 -62 l0 0 Z" /><glyph glyph-name="" unicode="&#x1ed9;" d="M98 470 l10 0 l124 95 l124 -95 l10 0 l-121 145 l-26 0 l-121 -145 ZM231 -8 q91 2 145 65 q54 62 55 155 q-1 93 -55 155 q-54 63 -145 65 q-92 -2 -146 -65 q-54 -62 -55 -155 q1 -93 55 -155 q54 -63 146 -65 l0 0 ZM231 5 q-78 2 -109 62 q-31 59 -30 145 q-1 86 30 146 q31 59 109 61 q77 -2 108 -61 q30 -60 29 -146 q1 -86 -29 -145 q-31 -60 -108 -62 l0 0 ZM231 -148 q19 1 32 14 q13 13 14 32 q-1 19 -14 32 q-13 12 -32 13 q-20 -1 -33 -13 q-13 -13 -13 -32 q0 -19 13 -32 q13 -13 33 -14 l0 0 Z" /><glyph glyph-name="" unicode="ö" d="M168 513 q16 0 27 11 q11 11 11 27 q0 15 -11 26 q-11 11 -27 11 q-16 0 -26 -11 q-11 -11 -11 -26 q0 -16 11 -27 q10 -11 26 -11 l0 0 ZM302 513 q16 0 27 11 q11 11 11 27 q0 15 -11 26 q-11 11 -27 11 q-16 0 -26 -11 q-11 -11 -11 -26 q0 -16 11 -27 q10 -11 26 -11 l0 0 ZM231 -8 q91 2 145 65 q54 62 55 155 q-1 93 -55 155 q-54 63 -145 65 q-92 -2 -146 -65 q-54 -62 -55 -155 q1 -93 55 -155 q54 -63 146 -65 l0 0 ZM231 5 q-78 2 -109 62 q-31 59 -30 145 q-1 86 30 146 q31 59 109 61 q77 -2 108 -61 q30 -60 29 -146 q1 -86 -29 -145 q-31 -60 -108 -62 l0 0 Z" /><glyph glyph-name="" unicode="ò" d="M240 480 l10 0 l-71 176 l-68 0 l129 -176 ZM231 -8 q91 2 145 65 q54 62 55 155 q-1 93 -55 155 q-54 63 -145 65 q-92 -2 -146 -65 q-54 -62 -55 -155 q1 -93 55 -155 q54 -63 146 -65 l0 0 ZM231 5 q-78 2 -109 62 q-31 59 -30 145 q-1 86 30 146 q31 59 109 61 q77 -2 108 -61 q30 -60 29 -146 q1 -86 -29 -145 q-31 -60 -108 -62 l0 0 Z" /><glyph glyph-name="" unicode="&#x151;" d="M147 479 l10 0 l129 176 l-68 0 l-71 -176 ZM254 479 l10 0 l129 176 l-68 0 l-71 -176 ZM231 -8 q91 2 145 65 q54 62 55 155 q-1 93 -55 155 q-54 63 -145 65 q-92 -2 -146 -65 q-54 -62 -55 -155 q1 -93 55 -155 q54 -63 146 -65 l0 0 ZM231 5 q-78 2 -109 62 q-31 59 -30 145 q-1 86 30 146 q31 59 109 61 q77 -2 108 -61 q30 -60 29 -146 q1 -86 -29 -145 q-31 -60 -108 -62 l0 0 Z" /><glyph glyph-name="" unicode="&#x14d;" d="M122 523 l210 0 l0 25 l-210 0 l0 -25 ZM231 -8 q91 2 145 65 q54 62 55 155 q-1 93 -55 155 q-54 63 -145 65 q-92 -2 -146 -65 q-54 -62 -55 -155 q1 -93 55 -155 q54 -63 146 -65 l0 0 ZM231 5 q-78 2 -109 62 q-31 59 -30 145 q-1 86 30 146 q31 59 109 61 q77 -2 108 -61 q30 -60 29 -146 q1 -86 -29 -145 q-31 -60 -108 -62 l0 0 Z" /><glyph glyph-name="" unicode="ø" d="M62 -30 l31 0 l39 55 q23 -16 51 -24 q28 -9 60 -9 q91 2 145 64 q54 62 55 155 q0 50 -17 92 q-17 43 -48 73 l45 64 l-31 0 l-33 -47 q-24 17 -53 27 q-29 10 -63 10 q-92 -2 -146 -64 q-54 -62 -55 -155 q0 -52 19 -96 q18 -44 51 -74 l-50 -71 ZM131 69 q-16 28 -22 64 q-7 37 -7 78 q-1 86 31 145 q32 59 110 61 q34 0 59 -13 q25 -12 41 -34 l-212 -301 ZM243 5 q-32 0 -56 11 q-24 11 -40 30 l210 300 q13 -28 19 -62 q6 -35 6 -73 q1 -86 -30 -145 q-32 -59 -109 -61 l0 0 Z" /><glyph glyph-name="" unicode="õ" d="M293 512 q31 1 42 23 q12 22 17 52 l-6 0 q1 -2 -10 -17 q-10 -16 -40 -18 q-32 2 -61 18 q-29 16 -64 18 q-30 -1 -41 -23 q-12 -22 -18 -52 l6 0 q-1 2 10 18 q10 15 40 17 q29 -2 60 -18 q31 -16 65 -18 l0 0 ZM231 -8 q91 2 145 65 q54 62 55 155 q-1 93 -55 155 q-54 63 -145 65 q-92 -2 -146 -65 q-54 -62 -55 -155 q1 -93 55 -155 q54 -63 146 -65 l0 0 ZM231 5 q-78 2 -109 62 q-31 59 -30 145 q-1 86 30 146 q31 59 109 61 q77 -2 108 -61 q30 -60 29 -146 q1 -86 -29 -145 q-31 -60 -108 -62 l0 0 Z" /><glyph glyph-name="" unicode="&#x153;" d="M231 -8 q56 1 99 26 q42 25 68 68 q20 -41 56 -67 q37 -26 92 -27 q75 5 111 39 q36 34 36 39 l-8 8 q0 -4 -29 -30 q-29 -26 -85 -30 q-115 15 -129 123 q-14 107 -7 122 l257 0 l0 26 q1 57 -32 99 q-33 43 -106 45 q-51 -1 -90 -29 q-40 -28 -64 -72 q-25 45 -68 71 q-44 26 -101 27 q-92 -2 -146 -64 q-54 -62 -55 -155 q1 -93 55 -155 q54 -62 146 -64 l0 0 ZM438 283 q5 45 34 89 q29 44 86 47 q53 -5 67 -54 q14 -49 9 -82 l-196 0 ZM231 5 q-78 2 -110 61 q-32 59 -31 145 q-1 86 31 145 q32 59 110 61 q77 -2 109 -61 q31 -59 30 -145 q1 -86 -30 -145 q-32 -59 -109 -61 l0 0 Z" /><glyph glyph-name="" unicode="p" d="M30 -265 l245 0 l0 8 q-60 -1 -86 11 q-27 11 -27 43 l0 286 q20 -41 58 -66 q38 -24 82 -25 q93 2 149 66 q57 63 58 161 q-1 100 -50 155 q-50 55 -135 56 q-41 1 -87 -24 q-46 -26 -75 -94 l0 118 q-31 -4 -62 -8 q-32 -4 -63 -8 l0 -8 q44 1 61 -10 q17 -11 16 -40 l0 -560 q-1 -34 -27 -44 q-25 -10 -57 -9 l0 -8 ZM302 5 q-76 2 -108 60 q-32 57 -32 141 q2 88 44 148 q41 60 110 62 q65 -1 99 -53 q34 -52 34 -144 q1 -91 -34 -152 q-35 -60 -113 -62 l0 0 Z" /><glyph glyph-name="" unicode="þ" d="M-10 -265 l245 0 l0 8 q-60 -1 -86 11 q-27 11 -27 43 l0 286 q20 -41 58 -66 q38 -24 82 -25 q93 2 149 66 q57 63 58 161 q-1 100 -52 155 q-51 55 -136 56 q-41 1 -85 -24 q-45 -26 -74 -94 l0 400 l-125 -16 l0 -8 q44 1 61 -10 q17 -11 16 -40 l0 -842 q-1 -34 -27 -44 q-25 -10 -57 -9 l0 -8 ZM262 5 q-76 2 -108 60 q-32 57 -32 141 q2 88 44 148 q41 60 110 62 q65 -1 99 -53 q34 -52 34 -144 q1 -91 -34 -152 q-35 -60 -113 -62 l0 0 Z" /><glyph glyph-name="" unicode="q" d="M263 -265 l245 0 l0 8 q-33 -1 -57 9 q-25 10 -27 44 l0 649 l-9 0 q-10 -30 -20 -59 q-10 -30 -20 -60 q-23 55 -64 80 q-41 24 -82 24 q-82 -1 -139 -58 q-57 -58 -60 -161 q1 -103 57 -160 q55 -58 147 -59 q45 1 83 27 q39 26 58 64 l0 -286 q0 -32 -26 -43 q-27 -12 -86 -11 l0 -8 ZM234 5 q-78 1 -111 55 q-33 55 -32 151 q0 96 35 150 q34 54 103 55 q66 -1 105 -55 q39 -54 40 -142 q1 -87 -31 -149 q-31 -62 -109 -65 l0 0 Z" /><glyph glyph-name="" unicode="r" d="M30 0 l217 0 l0 9 q-33 -1 -58 10 q-25 11 -26 44 l0 306 l149 0 l0 62 l-4 0 l-147 -53 l0 52 l-124 -16 l0 -8 q32 0 54 -12 q22 -13 23 -43 l0 -288 q-1 -36 -26 -45 q-25 -10 -58 -9 l0 -9 Z" /><glyph glyph-name="" unicode="&#x155;" d="M111 475 l10 0 l129 176 l-68 0 l-71 -176 ZM30 0 l217 0 l0 9 q-33 -1 -58 10 q-25 11 -26 44 l0 306 l149 0 l0 62 l-4 0 l-147 -53 l0 52 l-124 -16 l0 -8 q32 0 54 -12 q22 -13 23 -43 l0 -288 q-1 -36 -26 -45 q-25 -10 -58 -9 l0 -9 Z" /><glyph glyph-name="" unicode="&#x159;" d="M132 496 l26 0 l121 144 l-10 0 l-124 -94 l-125 94 l-9 0 l121 -144 ZM30 0 l217 0 l0 9 q-33 -1 -58 10 q-25 11 -26 44 l0 306 l149 0 l0 62 l-4 0 l-147 -53 l0 52 l-124 -16 l0 -8 q32 0 54 -12 q22 -13 23 -43 l0 -288 q-1 -36 -26 -45 q-25 -10 -58 -9 l0 -9 Z" /><glyph glyph-name="" unicode="&#x157;" d="M30 0 l217 0 l0 9 q-33 -1 -58 10 q-25 11 -26 44 l0 306 l149 0 l0 62 l-4 0 l-147 -53 l0 52 l-124 -16 l0 -8 q32 0 54 -12 q22 -13 23 -43 l0 -288 q-1 -36 -26 -45 q-25 -10 -58 -9 l0 -9 ZM85 -229 l10 0 l92 184 l-54 12 l-48 -196 Z" /><glyph glyph-name="" unicode="s" d="M184 -8 q73 1 113 27 q40 27 41 79 q2 34 -14 63 q-16 29 -60 52 q-21 11 -55 27 q-35 16 -61 29 q-21 10 -33 27 q-13 16 -13 44 q-1 23 20 50 q20 27 71 29 q51 -1 76 -29 q25 -27 30 -63 l8 0 l20 90 q-3 1 -41 8 q-38 7 -81 8 q-69 -1 -109 -31 q-40 -31 -41 -80 q-1 -29 11 -53 q12 -24 44 -41 q27 -14 62 -30 q34 -17 61 -31 q24 -12 39 -31 q14 -20 14 -53 q1 -30 -19 -53 q-20 -23 -79 -24 q-58 2 -92 32 q-34 31 -38 70 l-8 0 l-10 -89 q3 -2 47 -14 q44 -12 97 -13 l0 0 Z" /><glyph glyph-name="" unicode="&#x15b;" d="M169 479 l10 0 l129 176 l-68 0 l-71 -176 ZM184 -8 q73 1 113 27 q40 27 41 79 q2 34 -14 63 q-16 29 -60 52 q-21 11 -55 27 q-35 16 -61 29 q-21 10 -33 27 q-13 16 -13 44 q-1 23 20 50 q20 27 71 29 q51 -1 76 -29 q25 -27 30 -63 l8 0 l20 90 q-3 1 -41 8 q-38 7 -81 8 q-69 -1 -109 -31 q-40 -31 -41 -80 q-1 -29 11 -53 q12 -24 44 -41 q27 -14 62 -30 q34 -17 61 -31 q24 -12 39 -31 q14 -20 14 -53 q1 -30 -19 -53 q-20 -23 -79 -24 q-58 2 -92 32 q-34 31 -38 70 l-8 0 l-10 -89 q3 -2 47 -14 q44 -12 97 -13 l0 0 Z" /><glyph glyph-name="" unicode="&#x161;" d="M190 500 l26 0 l121 144 l-10 0 l-124 -94 l-125 94 l-9 0 l121 -144 ZM184 -8 q73 1 113 27 q40 27 41 79 q2 34 -14 63 q-16 29 -60 52 q-21 11 -55 27 q-35 16 -61 29 q-21 10 -33 27 q-13 16 -13 44 q-1 23 20 50 q20 27 71 29 q51 -1 76 -29 q25 -27 30 -63 l8 0 l20 90 q-3 1 -41 8 q-38 7 -81 8 q-69 -1 -109 -31 q-40 -31 -41 -80 q-1 -29 11 -53 q12 -24 44 -41 q27 -14 62 -30 q34 -17 61 -31 q24 -12 39 -31 q14 -20 14 -53 q1 -30 -19 -53 q-20 -23 -79 -24 q-58 2 -92 32 q-34 31 -38 70 l-8 0 l-10 -89 q3 -2 47 -14 q44 -12 97 -13 l0 0 Z" /><glyph glyph-name="" unicode="&#x15f;" d="M264 213 q-21 11 -55 27 q-35 16 -61 29 q-21 10 -33 27 q-13 16 -13 44 q-1 23 20 50 q20 27 71 29 q51 -1 76 -29 q25 -27 30 -63 l8 0 l20 90 q-3 1 -41 8 q-38 7 -81 8 q-69 -1 -109 -31 q-40 -31 -41 -80 q-1 -29 11 -53 q12 -24 44 -41 q27 -14 62 -30 q34 -17 61 -31 q24 -12 39 -31 q14 -20 14 -53 q1 -30 -19 -53 q-20 -23 -79 -24 q-58 2 -92 32 q-34 31 -38 70 l-8 0 l-10 -89 q3 -2 47 -14 q44 -12 97 -13 l1 0 l-48 -76 q37 -1 57 -13 q21 -11 21 -34 q0 -22 -12 -35 q-12 -14 -33 -14 q-15 1 -26 8 q-10 6 -11 7 l0 -14 q1 -1 17 -10 q16 -10 41 -11 q29 0 46 17 q17 16 17 44 q0 29 -21 45 q-22 16 -63 20 l24 66 q69 2 106 29 q37 26 38 77 q2 34 -14 63 q-16 29 -60 52 l0 0 Z" /><glyph glyph-name="" unicode="&#x219;" d="M184 -8 q73 1 113 27 q40 27 41 79 q2 34 -14 63 q-16 29 -60 52 q-21 11 -55 27 q-35 16 -61 29 q-21 10 -33 27 q-13 16 -13 44 q-1 23 20 50 q20 27 71 29 q51 -1 76 -29 q25 -27 30 -63 l8 0 l20 90 q-3 1 -41 8 q-38 7 -81 8 q-69 -1 -109 -31 q-40 -31 -41 -80 q-1 -29 11 -53 q12 -24 44 -41 q27 -14 62 -30 q34 -17 61 -31 q24 -12 39 -31 q14 -20 14 -53 q1 -30 -19 -53 q-20 -23 -79 -24 q-58 2 -92 32 q-34 31 -38 70 l-8 0 l-10 -89 q3 -2 47 -14 q44 -12 97 -13 l0 0 ZM101 -229 l10 0 l92 184 l-54 12 l-48 -196 Z" /><glyph glyph-name="" unicode="ß" d="M335 -8 q44 -1 86 21 q43 22 47 81 q2 29 -23 61 q-24 31 -86 83 q-13 11 -24 21 q-12 10 -22 20 q-23 20 -36 41 q-13 21 -13 43 q1 33 17 58 q17 24 43 43 q35 24 69 52 q33 27 36 73 q-1 56 -45 90 q-43 34 -112 35 q-81 -3 -133 -60 q-53 -57 -55 -133 l0 -460 q-1 -34 -27 -44 q-25 -9 -57 -8 l0 -9 l132 0 l0 576 q2 47 41 81 q39 33 96 35 q60 -2 88 -32 q28 -31 28 -72 q-1 -37 -21 -63 q-21 -26 -50 -49 q-34 -26 -61 -57 q-27 -30 -29 -75 q0 -35 14 -60 q14 -26 42 -50 q10 -9 22 -18 q11 -10 24 -20 q50 -40 71 -67 q20 -27 19 -56 q-1 -30 -21 -48 q-20 -19 -56 -19 q-52 2 -86 29 q-35 27 -36 59 l-8 0 l0 -89 q3 -1 42 -7 q39 -6 84 -6 l0 0 Z" /><glyph glyph-name="" unicode="t" d="M191 -8 q67 4 93 36 q26 31 25 35 l-8 8 q0 -3 -21 -26 q-22 -24 -70 -27 q-29 0 -46 18 q-16 17 -16 54 l0 304 l148 0 l0 20 l-148 0 l0 155 l-9 0 q-13 -83 -43 -124 q-30 -42 -96 -42 l0 -9 l100 0 l0 -319 q0 -43 25 -63 q24 -20 66 -20 l0 0 Z" /><glyph glyph-name="" unicode="&#x167;" d="M291 78 q1 -4 -23 -30 q-23 -26 -78 -30 q-29 0 -46 18 q-16 17 -16 54 l0 195 l140 0 l0 20 l-140 0 l0 89 l148 0 l0 20 l-148 0 l0 155 l-9 0 q-14 -83 -41 -124 q-26 -42 -78 -42 l0 -9 l80 0 l0 -89 l-69 0 l0 -20 l69 0 l0 -210 q0 -43 25 -63 q24 -20 66 -20 q74 5 101 41 q27 35 25 40 l-6 5 Z" /><glyph glyph-name="" unicode="&#x165;" d="M183 482 q5 0 39 29 q33 29 38 87 q-4 58 -36 87 q-31 29 -36 29 l-7 -5 q18 -20 26 -49 q8 -30 8 -62 q0 -31 -10 -61 q-11 -29 -29 -50 l7 -5 ZM171 -8 q74 5 101 41 q27 35 25 40 l-6 5 q1 -4 -23 -30 q-23 -26 -78 -30 q-29 0 -46 18 q-16 17 -16 54 l0 304 l148 0 l0 20 l-148 0 l0 155 l-9 0 q-14 -83 -41 -124 q-26 -42 -78 -42 l0 -9 l80 0 l0 -319 q0 -43 25 -63 q24 -20 66 -20 l0 0 Z" /><glyph glyph-name="" unicode="&#x163;" d="M309 63 l-8 8 q0 -3 -21 -26 q-22 -24 -70 -27 q-29 0 -46 18 q-16 17 -16 54 l0 304 l148 0 l0 20 l-148 0 l0 155 l-9 0 q-13 -83 -43 -124 q-30 -42 -96 -42 l0 -9 l100 0 l0 -319 q0 -43 25 -63 q24 -20 66 -20 l4 0 l-48 -76 q37 -1 57 -13 q21 -11 21 -34 q0 -22 -12 -35 q-12 -14 -33 -14 q-15 1 -26 8 q-10 6 -11 7 l0 -14 q1 -1 17 -10 q16 -10 41 -11 q29 0 46 17 q17 16 17 44 q0 29 -21 45 q-22 16 -63 20 l24 66 q60 9 83 38 q23 29 22 33 l0 0 Z" /><glyph glyph-name="" unicode="&#x21b;" d="M191 -8 q67 4 93 36 q26 31 25 35 l-8 8 q0 -3 -21 -26 q-22 -24 -70 -27 q-29 0 -46 18 q-16 17 -16 54 l0 304 l148 0 l0 20 l-148 0 l0 155 l-9 0 q-13 -83 -43 -124 q-30 -42 -96 -42 l0 -9 l100 0 l0 -319 q0 -43 25 -63 q24 -20 66 -20 l0 0 ZM111 -229 l10 0 l92 184 l-54 12 l-48 -196 Z" /><glyph glyph-name="" unicode="u" d="M234 -8 q54 4 95 38 q40 33 47 55 l0 -90 l124 16 l0 9 q-32 0 -55 12 q-22 12 -23 42 l0 356 l-125 -16 l0 -8 q44 1 61 -10 q17 -11 16 -40 l0 -244 q-4 -20 -38 -58 q-35 -39 -94 -43 q-47 0 -67 29 q-20 29 -19 82 l0 308 l-126 -16 l0 -8 q44 1 61 -10 q18 -11 17 -40 l0 -261 q1 -64 37 -84 q36 -21 89 -19 l0 0 Z" /><glyph glyph-name="" unicode="ú" d="M221 479 l10 0 l129 176 l-68 0 l-71 -176 ZM234 -8 q54 4 95 38 q40 33 47 55 l0 -90 l124 16 l0 9 q-32 0 -55 12 q-22 12 -23 42 l0 356 l-125 -16 l0 -8 q44 1 61 -10 q17 -11 16 -40 l0 -244 q-4 -20 -38 -58 q-35 -39 -94 -43 q-47 0 -67 29 q-20 29 -19 82 l0 308 l-126 -16 l0 -8 q44 1 61 -10 q18 -11 17 -40 l0 -261 q1 -64 37 -84 q36 -21 89 -19 l0 0 Z" /><glyph glyph-name="" unicode="&#x1d4;" d="M242 500 l26 0 l121 144 l-10 0 l-124 -94 l-125 94 l-9 0 l121 -144 ZM234 -8 q54 4 95 38 q40 33 47 55 l0 -90 l124 16 l0 9 q-32 0 -55 12 q-22 12 -23 42 l0 356 l-125 -16 l0 -8 q44 1 61 -10 q17 -11 16 -40 l0 -244 q-4 -20 -38 -58 q-35 -39 -94 -43 q-47 0 -67 29 q-20 29 -19 82 l0 308 l-126 -16 l0 -8 q44 1 61 -10 q18 -11 17 -40 l0 -261 q1 -64 37 -84 q36 -21 89 -19 l0 0 Z" /><glyph glyph-name="" unicode="û" d="M121 470 l10 0 l124 95 l124 -95 l10 0 l-121 145 l-26 0 l-121 -145 ZM234 -8 q54 4 95 38 q40 33 47 55 l0 -90 l124 16 l0 9 q-32 0 -55 12 q-22 12 -23 42 l0 356 l-125 -16 l0 -8 q44 1 61 -10 q17 -11 16 -40 l0 -244 q-4 -20 -38 -58 q-35 -39 -94 -43 q-47 0 -67 29 q-20 29 -19 82 l0 308 l-126 -16 l0 -8 q44 1 61 -10 q18 -11 17 -40 l0 -261 q1 -64 37 -84 q36 -21 89 -19 l0 0 Z" /><glyph glyph-name="" unicode="ü" d="M191 513 q16 0 27 11 q11 11 11 27 q0 15 -11 26 q-11 11 -27 11 q-16 0 -26 -11 q-11 -11 -11 -26 q0 -16 11 -27 q10 -11 26 -11 l0 0 ZM325 513 q16 0 27 11 q11 11 11 27 q0 15 -11 26 q-11 11 -27 11 q-16 0 -26 -11 q-11 -11 -11 -26 q0 -16 11 -27 q10 -11 26 -11 l0 0 ZM234 -8 q54 4 95 38 q40 33 47 55 l0 -90 l124 16 l0 9 q-32 0 -55 12 q-22 12 -23 42 l0 356 l-125 -16 l0 -8 q44 1 61 -10 q17 -11 16 -40 l0 -244 q-4 -20 -38 -58 q-35 -39 -94 -43 q-47 0 -67 29 q-20 29 -19 82 l0 308 l-126 -16 l0 -8 q44 1 61 -10 q18 -11 17 -40 l0 -261 q1 -64 37 -84 q36 -21 89 -19 l0 0 Z" /><glyph glyph-name="" unicode="&#x1d8;" d="M240 607 l10 0 l129 176 l-68 0 l-71 -176 ZM191 513 q16 0 27 11 q11 11 11 27 q0 15 -11 26 q-11 11 -27 11 q-16 0 -26 -11 q-11 -11 -11 -26 q0 -16 11 -27 q10 -11 26 -11 l0 0 ZM325 513 q16 0 27 11 q11 11 11 27 q0 15 -11 26 q-11 11 -27 11 q-16 0 -26 -11 q-11 -11 -11 -26 q0 -16 11 -27 q10 -11 26 -11 l0 0 ZM234 -8 q54 4 95 38 q40 33 47 55 l0 -90 l124 16 l0 9 q-32 0 -55 12 q-22 12 -23 42 l0 356 l-125 -16 l0 -8 q44 1 61 -10 q17 -11 16 -40 l0 -244 q-4 -20 -38 -58 q-35 -39 -94 -43 q-47 0 -67 29 q-20 29 -19 82 l0 308 l-126 -16 l0 -8 q44 1 61 -10 q18 -11 17 -40 l0 -261 q1 -64 37 -84 q36 -21 89 -19 l0 0 Z" /><glyph glyph-name="" unicode="&#x1da;" d="M243 578 l26 0 l121 144 l-10 0 l-124 -94 l-125 94 l-9 0 l121 -144 ZM191 513 q16 0 27 11 q11 11 11 27 q0 15 -11 26 q-11 11 -27 11 q-16 0 -26 -11 q-11 -11 -11 -26 q0 -16 11 -27 q10 -11 26 -11 l0 0 ZM325 513 q16 0 27 11 q11 11 11 27 q0 15 -11 26 q-11 11 -27 11 q-16 0 -26 -11 q-11 -11 -11 -26 q0 -16 11 -27 q10 -11 26 -11 l0 0 ZM234 -8 q54 4 95 38 q40 33 47 55 l0 -90 l124 16 l0 9 q-32 0 -55 12 q-22 12 -23 42 l0 356 l-125 -16 l0 -8 q44 1 61 -10 q17 -11 16 -40 l0 -244 q-4 -20 -38 -58 q-35 -39 -94 -43 q-47 0 -67 29 q-20 29 -19 82 l0 308 l-126 -16 l0 -8 q44 1 61 -10 q18 -11 17 -40 l0 -261 q1 -64 37 -84 q36 -21 89 -19 l0 0 Z" /><glyph glyph-name="" unicode="&#x1dc;" d="M259 560 l10 0 l-71 176 l-68 0 l129 -176 ZM191 513 q16 0 27 11 q11 11 11 27 q0 15 -11 26 q-11 11 -27 11 q-16 0 -26 -11 q-11 -11 -11 -26 q0 -16 11 -27 q10 -11 26 -11 l0 0 ZM325 513 q16 0 27 11 q11 11 11 27 q0 15 -11 26 q-11 11 -27 11 q-16 0 -26 -11 q-11 -11 -11 -26 q0 -16 11 -27 q10 -11 26 -11 l0 0 ZM234 -8 q54 4 95 38 q40 33 47 55 l0 -90 l124 16 l0 9 q-32 0 -55 12 q-22 12 -23 42 l0 356 l-125 -16 l0 -8 q44 1 61 -10 q17 -11 16 -40 l0 -244 q-4 -20 -38 -58 q-35 -39 -94 -43 q-47 0 -67 29 q-20 29 -19 82 l0 308 l-126 -16 l0 -8 q44 1 61 -10 q18 -11 17 -40 l0 -261 q1 -64 37 -84 q36 -21 89 -19 l0 0 Z" /><glyph glyph-name="" unicode="&#x1d6;" d="M144 621 l210 0 l0 25 l-210 0 l0 -25 ZM191 513 q16 0 27 11 q11 11 11 27 q0 15 -11 26 q-11 11 -27 11 q-16 0 -26 -11 q-11 -11 -11 -26 q0 -16 11 -27 q10 -11 26 -11 l0 0 ZM325 513 q16 0 27 11 q11 11 11 27 q0 15 -11 26 q-11 11 -27 11 q-16 0 -26 -11 q-11 -11 -11 -26 q0 -16 11 -27 q10 -11 26 -11 l0 0 ZM234 -8 q54 4 95 38 q40 33 47 55 l0 -90 l124 16 l0 9 q-32 0 -55 12 q-22 12 -23 42 l0 356 l-125 -16 l0 -8 q44 1 61 -10 q17 -11 16 -40 l0 -244 q-4 -20 -38 -58 q-35 -39 -94 -43 q-47 0 -67 29 q-20 29 -19 82 l0 308 l-126 -16 l0 -8 q44 1 61 -10 q18 -11 17 -40 l0 -261 q1 -64 37 -84 q36 -21 89 -19 l0 0 Z" /><glyph glyph-name="" unicode="&#x1ee5;" d="M234 -8 q54 4 95 38 q40 33 47 55 l0 -90 l124 16 l0 9 q-32 0 -55 12 q-22 12 -23 42 l0 356 l-125 -16 l0 -8 q44 1 61 -10 q17 -11 16 -40 l0 -244 q-4 -20 -38 -58 q-35 -39 -94 -43 q-47 0 -67 29 q-20 29 -19 82 l0 308 l-126 -16 l0 -8 q44 1 61 -10 q18 -11 17 -40 l0 -261 q1 -64 37 -84 q36 -21 89 -19 l0 0 ZM273 -148 q19 1 32 14 q13 13 14 32 q-1 19 -14 32 q-13 12 -32 13 q-20 -1 -33 -13 q-13 -13 -13 -32 q0 -19 13 -32 q13 -13 33 -14 l0 0 Z" /><glyph glyph-name="" unicode="ù" d="M263 480 l10 0 l-71 176 l-68 0 l129 -176 ZM234 -8 q54 4 95 38 q40 33 47 55 l0 -90 l124 16 l0 9 q-32 0 -55 12 q-22 12 -23 42 l0 356 l-125 -16 l0 -8 q44 1 61 -10 q17 -11 16 -40 l0 -244 q-4 -20 -38 -58 q-35 -39 -94 -43 q-47 0 -67 29 q-20 29 -19 82 l0 308 l-126 -16 l0 -8 q44 1 61 -10 q18 -11 17 -40 l0 -261 q1 -64 37 -84 q36 -21 89 -19 l0 0 Z" /><glyph glyph-name="" unicode="&#x1ee7;" d="M232 489 q17 6 41 32 q25 25 27 55 q0 29 -22 50 q-21 20 -62 21 q-42 -3 -64 -26 q-22 -24 -22 -27 l4 -5 q7 7 26 18 q19 10 43 11 q31 -2 42 -20 q12 -19 11 -36 q-1 -25 -10 -42 q-10 -16 -19 -26 l5 -5 ZM234 -8 q54 4 95 38 q40 33 47 55 l0 -90 l124 16 l0 9 q-32 0 -55 12 q-22 12 -23 42 l0 356 l-125 -16 l0 -8 q44 1 61 -10 q17 -11 16 -40 l0 -244 q-4 -20 -38 -58 q-35 -39 -94 -43 q-47 0 -67 29 q-20 29 -19 82 l0 308 l-126 -16 l0 -8 q44 1 61 -10 q18 -11 17 -40 l0 -261 q1 -64 37 -84 q36 -21 89 -19 l0 0 Z" /><glyph glyph-name="" unicode="&#x171;" d="M170 479 l10 0 l129 176 l-68 0 l-71 -176 ZM277 479 l10 0 l129 176 l-68 0 l-71 -176 ZM234 -8 q54 4 95 38 q40 33 47 55 l0 -90 l124 16 l0 9 q-32 0 -55 12 q-22 12 -23 42 l0 356 l-125 -16 l0 -8 q44 1 61 -10 q17 -11 16 -40 l0 -244 q-4 -20 -38 -58 q-35 -39 -94 -43 q-47 0 -67 29 q-20 29 -19 82 l0 308 l-126 -16 l0 -8 q44 1 61 -10 q18 -11 17 -40 l0 -261 q1 -64 37 -84 q36 -21 89 -19 l0 0 Z" /><glyph glyph-name="" unicode="&#x16b;" d="M145 523 l210 0 l0 25 l-210 0 l0 -25 ZM234 -8 q54 4 95 38 q40 33 47 55 l0 -90 l124 16 l0 9 q-32 0 -55 12 q-22 12 -23 42 l0 356 l-125 -16 l0 -8 q44 1 61 -10 q17 -11 16 -40 l0 -244 q-4 -20 -38 -58 q-35 -39 -94 -43 q-47 0 -67 29 q-20 29 -19 82 l0 308 l-126 -16 l0 -8 q44 1 61 -10 q18 -11 17 -40 l0 -261 q1 -64 37 -84 q36 -21 89 -19 l0 0 Z" /><glyph glyph-name="" unicode="&#x173;" d="M487 -157 q-18 0 -26 12 q-7 11 -6 29 q0 22 13 58 q12 37 32 69 l0 9 q-32 0 -55 12 q-22 12 -23 42 l0 356 l-125 -16 l0 -8 q44 1 61 -10 q17 -11 16 -40 l0 -244 q-4 -20 -38 -58 q-35 -39 -94 -43 q-47 0 -67 29 q-20 29 -19 82 l0 308 l-126 -16 l0 -8 q44 1 61 -10 q18 -11 17 -40 l0 -261 q1 -64 37 -84 q36 -21 89 -19 q54 4 95 38 q40 33 47 55 l0 -90 l108 14 q-25 -31 -47 -68 q-22 -37 -23 -71 q1 -28 18 -41 q17 -14 44 -14 q27 1 43 11 q15 9 15 10 l0 22 q-1 -1 -14 -7 q-14 -7 -33 -8 l0 0 Z" /><glyph glyph-name="" unicode="&#x16f;" d="M255 489 q32 1 53 17 q21 16 22 39 q-1 24 -22 40 q-21 16 -53 17 q-32 -1 -53 -17 q-21 -16 -22 -40 q1 -23 22 -39 q21 -16 53 -17 l0 0 ZM255 510 q-15 0 -25 10 q-10 10 -10 24 q0 14 10 24 q10 10 25 10 q15 0 26 -10 q10 -10 10 -24 q0 -14 -10 -24 q-11 -10 -26 -10 l0 0 ZM234 -8 q54 4 95 38 q40 33 47 55 l0 -90 l124 16 l0 9 q-32 0 -55 12 q-22 12 -23 42 l0 356 l-125 -16 l0 -8 q44 1 61 -10 q17 -11 16 -40 l0 -244 q-4 -20 -38 -58 q-35 -39 -94 -43 q-47 0 -67 29 q-20 29 -19 82 l0 308 l-126 -16 l0 -8 q44 1 61 -10 q18 -11 17 -40 l0 -261 q1 -64 37 -84 q36 -21 89 -19 l0 0 Z" /><glyph glyph-name="" unicode="&#x169;" d="M316 512 q31 1 42 23 q12 22 17 52 l-6 0 q1 -2 -10 -17 q-10 -16 -40 -18 q-32 2 -61 18 q-29 16 -64 18 q-30 -1 -41 -23 q-12 -22 -18 -52 l6 0 q-1 2 10 18 q10 15 40 17 q29 -2 60 -18 q31 -16 65 -18 l0 0 ZM234 -8 q54 4 95 38 q40 33 47 55 l0 -90 l124 16 l0 9 q-32 0 -55 12 q-22 12 -23 42 l0 356 l-125 -16 l0 -8 q44 1 61 -10 q17 -11 16 -40 l0 -244 q-4 -20 -38 -58 q-35 -39 -94 -43 q-47 0 -67 29 q-20 29 -19 82 l0 308 l-126 -16 l0 -8 q44 1 61 -10 q18 -11 17 -40 l0 -261 q1 -64 37 -84 q36 -21 89 -19 l0 0 Z" /><glyph glyph-name="" unicode="v" d="M202 -5 l18 0 q7 18 61 163 q54 145 71 196 q11 29 33 40 q21 11 53 10 l0 10 l-170 0 l0 -10 q51 0 63 -11 q13 -12 3 -40 l-104 -295 q-5 14 -48 129 q-43 116 -62 164 q-13 30 1 42 q13 12 64 11 l0 10 l-205 0 l0 -10 q31 0 53 -11 q21 -12 32 -39 l137 -359 Z" /><glyph glyph-name="" unicode="w" d="M190 0 l18 0 l104 289 l98 -289 l18 0 l133 354 q11 29 33 40 q22 11 53 10 l0 10 l-170 0 l0 -10 q50 0 63 -11 q13 -12 3 -40 q-13 -41 -57 -157 q-43 -115 -49 -130 l-95 290 q11 28 32 38 q22 11 53 10 l0 10 l-170 0 l0 -10 q50 0 63 -11 q12 -12 2 -40 q-13 -41 -56 -158 q-42 -117 -48 -132 q-5 13 -42 124 q-38 111 -54 164 q-10 31 2 42 q12 12 63 11 l0 10 l-207 0 l0 -10 q32 0 54 -11 q21 -12 32 -39 l124 -354 Z" /><glyph glyph-name="" unicode="&#x1e83;" d="M301 479 l10 0 l129 176 l-68 0 l-71 -176 ZM190 0 l18 0 l104 289 l98 -289 l18 0 l133 354 q11 29 33 40 q22 11 53 10 l0 10 l-170 0 l0 -10 q50 0 63 -11 q13 -12 3 -40 q-13 -41 -57 -157 q-43 -115 -49 -130 l-95 290 q11 28 32 38 q22 11 53 10 l0 10 l-170 0 l0 -10 q50 0 63 -11 q12 -12 2 -40 q-13 -41 -56 -158 q-42 -117 -48 -132 q-5 13 -42 124 q-38 111 -54 164 q-10 31 2 42 q12 12 63 11 l0 10 l-207 0 l0 -10 q32 0 54 -11 q21 -12 32 -39 l124 -354 Z" /><glyph glyph-name="" unicode="&#x175;" d="M201 470 l10 0 l124 95 l124 -95 l10 0 l-121 145 l-26 0 l-121 -145 ZM190 0 l18 0 l104 289 l98 -289 l18 0 l133 354 q11 29 33 40 q22 11 53 10 l0 10 l-170 0 l0 -10 q50 0 63 -11 q13 -12 3 -40 q-13 -41 -57 -157 q-43 -115 -49 -130 l-95 290 q11 28 32 38 q22 11 53 10 l0 10 l-170 0 l0 -10 q50 0 63 -11 q12 -12 2 -40 q-13 -41 -56 -158 q-42 -117 -48 -132 q-5 13 -42 124 q-38 111 -54 164 q-10 31 2 42 q12 12 63 11 l0 10 l-207 0 l0 -10 q32 0 54 -11 q21 -12 32 -39 l124 -354 Z" /><glyph glyph-name="" unicode="&#x1e85;" d="M271 513 q16 0 27 11 q11 11 11 27 q0 15 -11 26 q-11 11 -27 11 q-16 0 -26 -11 q-11 -11 -11 -26 q0 -16 11 -27 q10 -11 26 -11 l0 0 ZM405 513 q16 0 27 11 q11 11 11 27 q0 15 -11 26 q-11 11 -27 11 q-16 0 -26 -11 q-11 -11 -11 -26 q0 -16 11 -27 q10 -11 26 -11 l0 0 ZM190 0 l18 0 l104 289 l98 -289 l18 0 l133 354 q11 29 33 40 q22 11 53 10 l0 10 l-170 0 l0 -10 q50 0 63 -11 q13 -12 3 -40 q-13 -41 -57 -157 q-43 -115 -49 -130 l-95 290 q11 28 32 38 q22 11 53 10 l0 10 l-170 0 l0 -10 q50 0 63 -11 q12 -12 2 -40 q-13 -41 -56 -158 q-42 -117 -48 -132 q-5 13 -42 124 q-38 111 -54 164 q-10 31 2 42 q12 12 63 11 l0 10 l-207 0 l0 -10 q32 0 54 -11 q21 -12 32 -39 l124 -354 Z" /><glyph glyph-name="" unicode="&#x1e81;" d="M343 480 l10 0 l-71 176 l-68 0 l129 -176 ZM190 0 l18 0 l104 289 l98 -289 l18 0 l133 354 q11 29 33 40 q22 11 53 10 l0 10 l-170 0 l0 -10 q50 0 63 -11 q13 -12 3 -40 q-13 -41 -57 -157 q-43 -115 -49 -130 l-95 290 q11 28 32 38 q22 11 53 10 l0 10 l-170 0 l0 -10 q50 0 63 -11 q12 -12 2 -40 q-13 -41 -56 -158 q-42 -117 -48 -132 q-5 13 -42 124 q-38 111 -54 164 q-10 31 2 42 q12 12 63 11 l0 10 l-207 0 l0 -10 q32 0 54 -11 q21 -12 32 -39 l124 -354 Z" /><glyph glyph-name="" unicode="x" d="M0 -1 l168 0 l0 10 q-55 1 -71 17 q-15 15 -1 35 l97 144 q29 -46 53 -85 q24 -39 36 -59 q19 -28 10 -40 q-8 -12 -56 -12 l0 -10 l191 0 l0 10 q-31 0 -49 12 q-19 12 -35 37 l-114 185 l75 114 q15 23 32 35 q16 12 47 12 l0 10 l-139 0 l0 -10 q45 0 52 -12 q6 -12 -11 -38 l-65 -97 l-56 97 q-15 23 -15 36 q0 14 45 14 l0 10 l-175 0 l0 -10 q31 0 48 -10 q18 -11 33 -37 l86 -139 l-108 -160 q-17 -23 -33 -36 q-15 -13 -45 -13 l0 -10 Z" /><glyph glyph-name="" unicode="y" d="M64 -258 l74 0 l216 612 q10 29 31 40 q21 11 53 10 l0 10 l-168 0 l0 -10 q50 0 63 -12 q13 -12 4 -39 l-99 -282 l-114 279 q-14 30 0 42 q14 12 65 12 l0 10 l-209 0 l0 -10 q31 0 53 -11 q21 -11 32 -38 l148 -360 l-149 -253 Z" /><glyph glyph-name="" unicode="ý" d="M196 479 l10 0 l129 176 l-68 0 l-71 -176 ZM64 -258 l74 0 l216 612 q10 29 31 40 q21 11 53 10 l0 10 l-168 0 l0 -10 q50 0 63 -12 q13 -12 4 -39 l-99 -282 l-114 279 q-14 30 0 42 q14 12 65 12 l0 10 l-209 0 l0 -10 q31 0 53 -11 q21 -11 32 -38 l148 -360 l-149 -253 Z" /><glyph glyph-name="" unicode="&#x177;" d="M96 470 l10 0 l124 95 l124 -95 l10 0 l-121 145 l-26 0 l-121 -145 ZM64 -258 l74 0 l216 612 q10 29 31 40 q21 11 53 10 l0 10 l-168 0 l0 -10 q50 0 63 -12 q13 -12 4 -39 l-99 -282 l-114 279 q-14 30 0 42 q14 12 65 12 l0 10 l-209 0 l0 -10 q31 0 53 -11 q21 -11 32 -38 l148 -360 l-149 -253 Z" /><glyph glyph-name="" unicode="ÿ" d="M166 513 q16 0 27 11 q11 11 11 27 q0 15 -11 26 q-11 11 -27 11 q-16 0 -26 -11 q-11 -11 -11 -26 q0 -16 11 -27 q10 -11 26 -11 l0 0 ZM300 513 q16 0 27 11 q11 11 11 27 q0 15 -11 26 q-11 11 -27 11 q-16 0 -26 -11 q-11 -11 -11 -26 q0 -16 11 -27 q10 -11 26 -11 l0 0 ZM64 -258 l74 0 l216 612 q10 29 31 40 q21 11 53 10 l0 10 l-168 0 l0 -10 q50 0 63 -12 q13 -12 4 -39 l-99 -282 l-114 279 q-14 30 0 42 q14 12 65 12 l0 10 l-209 0 l0 -10 q31 0 53 -11 q21 -11 32 -38 l148 -360 l-149 -253 Z" /><glyph glyph-name="" unicode="&#x1ef5;" d="M64 -258 l74 0 l216 612 q10 29 31 40 q21 11 53 10 l0 10 l-168 0 l0 -10 q50 0 63 -12 q13 -12 4 -39 l-99 -282 l-114 279 q-14 30 0 42 q14 12 65 12 l0 10 l-209 0 l0 -10 q31 0 53 -11 q21 -11 32 -38 l148 -360 l-149 -253 ZM203 -398 q19 1 32 14 q13 13 14 32 q-1 19 -14 32 q-13 12 -32 13 q-20 -1 -33 -13 q-13 -13 -13 -32 q0 -19 13 -32 q13 -13 33 -14 l0 0 Z" /><glyph glyph-name="" unicode="&#x1ef3;" d="M238 480 l10 0 l-71 176 l-68 0 l129 -176 ZM64 -258 l74 0 l216 612 q10 29 31 40 q21 11 53 10 l0 10 l-168 0 l0 -10 q50 0 63 -12 q13 -12 4 -39 l-99 -282 l-114 279 q-14 30 0 42 q14 12 65 12 l0 10 l-209 0 l0 -10 q31 0 53 -11 q21 -11 32 -38 l148 -360 l-149 -253 Z" /><glyph glyph-name="" unicode="&#x1ef7;" d="M207 489 q17 6 41 32 q25 25 27 55 q0 29 -22 50 q-21 20 -62 21 q-42 -3 -64 -26 q-22 -24 -22 -27 l4 -5 q7 7 26 18 q19 10 43 11 q31 -2 42 -20 q12 -19 11 -36 q-1 -25 -10 -42 q-10 -16 -19 -26 l5 -5 ZM64 -258 l74 0 l216 612 q10 29 31 40 q21 11 53 10 l0 10 l-168 0 l0 -10 q50 0 63 -12 q13 -12 4 -39 l-99 -282 l-114 279 q-14 30 0 42 q14 12 65 12 l0 10 l-209 0 l0 -10 q31 0 53 -11 q21 -11 32 -38 l148 -360 l-149 -253 Z" /><glyph glyph-name="" unicode="&#x1ef9;" d="M291 512 q31 1 42 23 q12 22 17 52 l-6 0 q1 -2 -10 -17 q-10 -16 -40 -18 q-32 2 -61 18 q-29 16 -64 18 q-30 -1 -41 -23 q-12 -22 -18 -52 l6 0 q-1 2 10 18 q10 15 40 17 q29 -2 60 -18 q31 -16 65 -18 l0 0 ZM64 -258 l74 0 l216 612 q10 29 31 40 q21 11 53 10 l0 10 l-168 0 l0 -10 q50 0 63 -12 q13 -12 4 -39 l-99 -282 l-114 279 q-14 30 0 42 q14 12 65 12 l0 10 l-209 0 l0 -10 q31 0 53 -11 q21 -11 32 -38 l148 -360 l-149 -253 Z" /><glyph glyph-name="" unicode="z" d="M30 0 l324 0 l-20 131 l-8 0 q2 -51 -15 -81 q-17 -29 -65 -30 l-147 0 l250 401 l-313 0 l20 -115 l8 0 q-3 43 13 68 q17 25 65 26 q48 0 94 1 q45 0 48 0 l-254 -401 Z" /><glyph glyph-name="" unicode="&#x17a;" d="M178 475 l10 0 l129 176 l-68 0 l-71 -176 ZM30 0 l324 0 l-20 131 l-8 0 q2 -51 -15 -81 q-17 -29 -65 -30 l-147 0 l250 401 l-313 0 l20 -115 l8 0 q-3 43 13 68 q17 25 65 26 q48 0 94 1 q45 0 48 0 l-254 -401 Z" /><glyph glyph-name="" unicode="&#x17e;" d="M199 496 l26 0 l121 144 l-10 0 l-124 -94 l-125 94 l-9 0 l121 -144 ZM30 0 l324 0 l-20 131 l-8 0 q2 -51 -15 -81 q-17 -29 -65 -30 l-147 0 l250 401 l-313 0 l20 -115 l8 0 q-3 43 13 68 q17 25 65 26 q48 0 94 1 q45 0 48 0 l-254 -401 Z" /><glyph glyph-name="" unicode="&#x17c;" d="M222 501 q19 1 32 14 q13 13 14 32 q-1 19 -14 32 q-13 12 -32 13 q-20 -1 -33 -13 q-13 -13 -13 -32 q0 -19 13 -32 q13 -13 33 -14 l0 0 ZM30 0 l324 0 l-20 131 l-8 0 q2 -51 -15 -81 q-17 -29 -65 -30 l-147 0 l250 401 l-313 0 l20 -115 l8 0 q-3 43 13 68 q17 25 65 26 q48 0 94 1 q45 0 48 0 l-254 -401 Z" /><glyph glyph-name="" unicode="&#xfb01;" d="M419 63 l0 367 l-1 0 l64 118 q5 10 -26 83 q-31 73 -152 83 q-94 -4 -142 -68 q-48 -65 -48 -142 l0 -90 l-80 0 l0 -21 l80 0 l0 -332 q-1 -34 -27 -44 q-25 -9 -57 -8 l0 -9 l230 0 l0 9 q-51 -1 -74 10 q-24 11 -24 44 l0 330 l192 0 q18 -12 17 -42 l0 -290 q-2 -34 -27 -44 q-25 -10 -57 -9 l0 -8 l216 0 l0 8 q-32 -1 -57 11 q-26 11 -27 44 l0 0 ZM162 414 l0 143 q-1 48 31 90 q33 42 111 45 q79 -2 109 -73 q30 -72 -4 -190 l-108 -14 l-9 -1 l-130 0 Z" /><glyph glyph-name="" unicode="&#xfb02;" d="M418 64 l0 607 q-2 3 -38 22 q-37 18 -89 21 q-100 -4 -139 -68 q-40 -65 -38 -142 l0 -90 l-80 0 l0 -21 l80 0 l0 -332 q-1 -34 -27 -44 q-25 -9 -57 -8 l0 -9 l230 0 l0 9 q-51 -1 -74 10 q-24 11 -24 44 l0 330 l152 0 l0 21 l-152 0 l0 172 q1 46 31 76 q30 29 80 30 q66 -3 83 -41 q16 -37 14 -74 l0 -515 q-1 -34 -27 -44 q-25 -9 -57 -8 l0 -10 l216 0 l0 10 q-33 -1 -58 10 q-25 11 -26 44 l0 0 Z" /><glyph glyph-name="" unicode="ª" d="M128 369 q45 2 77 24 q31 22 41 45 l0 -63 l110 0 l0 7 q-25 -1 -44 7 q-19 8 -20 34 l0 182 q-1 49 -34 72 q-32 23 -83 23 q-40 -2 -74 -12 q-33 -11 -35 -13 l40 -81 l7 0 q-5 28 3 54 q8 27 53 29 q40 0 59 -20 q18 -20 18 -62 l0 -30 q-92 -1 -144 -33 q-52 -32 -53 -86 q-1 -23 16 -49 q17 -26 63 -28 l0 0 ZM158 398 q-32 1 -45 17 q-12 15 -12 37 q-1 41 34 66 q34 26 111 27 l0 -80 q-8 -22 -32 -44 q-24 -21 -56 -23 l0 0 Z" /><glyph glyph-name="" unicode="º" d="M183 369 q69 2 110 48 q40 46 41 117 q-1 71 -41 118 q-41 46 -110 48 q-68 -2 -110 -48 q-42 -47 -43 -118 q1 -71 43 -117 q42 -46 110 -48 l0 0 ZM183 386 q-60 2 -82 45 q-21 43 -20 103 q-1 62 20 103 q22 41 82 43 q56 -2 79 -43 q23 -41 22 -103 q1 -60 -22 -103 q-23 -43 -79 -45 l0 0 Z" /><glyph glyph-name="" unicode="&#x394;" d="M43 0 l608 0 l-277 700 l-54 0 l-277 -700 ZM105 15 l242 616 l241 -616 l-483 0 Z" /><glyph glyph-name="" unicode="&#x3a9;" d="M80 0 l265 0 l0 17 q-54 18 -130 97 q-76 80 -84 246 q2 141 80 235 q78 93 210 97 q132 -4 209 -97 q78 -94 80 -235 q-7 -166 -83 -245 q-76 -80 -130 -98 l0 -17 l265 0 l0 17 l-222 0 q87 43 160 132 q73 89 77 211 q-4 159 -107 253 q-102 95 -249 97 q-147 -2 -249 -97 q-103 -94 -107 -253 q5 -122 77 -211 q73 -89 160 -132 l-222 0 l0 -17 Z" /><glyph glyph-name="" unicode="&#x3bc;" d="M100 -253 l46 0 l0 305 q14 -24 40 -42 q26 -17 64 -18 q53 4 83 38 q30 33 35 55 l0 -90 l124 16 l0 9 q-32 0 -55 12 q-22 12 -23 42 l0 356 l-125 -16 l0 -8 q44 1 61 -10 q17 -11 16 -40 l0 -244 q-3 -20 -30 -58 q-28 -39 -86 -43 q-57 5 -79 44 q-23 40 -23 59 l0 316 l-126 -16 l0 -8 q44 1 61 -10 q18 -11 17 -40 l0 -609 Z" /><glyph glyph-name="" unicode="&#x3c0;" d="M437 -15 l0 8 q-1 0 -9 13 q-9 12 -25 42 q-21 48 -28 159 q-7 110 5 190 l86 0 l0 17 l-423 0 l0 -17 l85 0 q12 -92 7 -201 q-5 -109 -24 -195 l52 0 q15 87 20 196 q4 109 -7 200 l155 0 q-11 -72 -7 -179 q4 -108 29 -162 q26 -43 54 -58 q28 -14 30 -13 l0 0 Z" /><glyph glyph-name="" unicode="0" d="M265 -10 q112 7 168 117 q56 111 56 243 q0 132 -56 243 q-56 111 -168 118 q-113 -7 -169 -118 q-56 -111 -56 -243 q0 -132 56 -243 q56 -110 169 -117 l0 0 ZM265 8 q-85 6 -121 111 q-37 105 -36 231 q-1 126 36 232 q36 105 121 111 q84 -6 121 -111 q38 -106 37 -232 q1 -126 -37 -231 q-37 -105 -121 -111 l0 0 Z" /><glyph glyph-name="" unicode="1" d="M61 0 l365 0 l0 9 q-59 -2 -100 10 q-42 13 -44 67 l0 628 l-242 -121 l0 -8 l187 61 l0 -560 q-2 -52 -51 -65 q-49 -14 -115 -12 l0 -9 Z" /><glyph glyph-name="" unicode="2" d="M40 1 l434 0 l0 1 l1 -1 l0 131 l-8 0 q-15 -52 -36 -68 q-21 -16 -54 -14 l-287 0 q170 151 269 283 q99 132 101 228 q2 63 -43 105 q-45 41 -158 45 q-48 -1 -106 -12 q-58 -10 -63 -12 l0 -156 l8 0 q15 85 52 123 q36 39 111 38 q83 -3 110 -47 q26 -44 24 -89 q7 -66 -62 -194 q-69 -127 -293 -346 l0 -15 Z" /><glyph glyph-name="" unicode="3" d="M215 -3 q124 3 189 64 q65 62 65 147 q-1 86 -49 140 q-49 53 -137 73 q31 10 78 47 q48 36 53 107 q1 58 -40 96 q-41 39 -129 40 q-75 -2 -124 -17 q-49 -15 -51 -17 l0 -156 l8 0 q17 107 62 141 q45 33 100 30 q54 -1 83 -34 q29 -32 29 -81 q2 -57 -44 -108 q-46 -51 -170 -74 l6 -25 q1 2 30 13 q28 12 68 14 q82 -2 122 -62 q40 -60 40 -132 q1 -72 -43 -129 q-44 -58 -144 -61 q-64 1 -109 46 q-46 45 -48 116 l-10 0 l0 -149 q3 -2 52 -14 q50 -13 113 -15 l0 0 Z" /><glyph glyph-name="" unicode="4" d="M221 0 l302 0 l0 9 q-49 -2 -82 10 q-33 13 -34 67 l0 103 l103 0 l0 17 l-103 0 l0 273 l-55 0 l0 -273 l-282 0 l345 530 l-78 0 l-297 -530 l0 -17 l312 0 l0 -103 q-2 -52 -41 -65 q-40 -14 -90 -12 l0 -9 Z" /><glyph glyph-name="" unicode="5" d="M194 -3 q122 3 179 65 q58 61 57 146 q-7 130 -111 185 q-104 54 -224 41 l73 217 l122 0 q33 2 54 -14 q21 -15 35 -67 l9 0 l0 130 l-262 0 l-53 -281 q130 3 210 -54 q80 -56 82 -162 q2 -71 -33 -129 q-36 -58 -137 -61 q-63 1 -104 46 q-41 45 -43 116 l-8 0 l0 -149 q2 -2 46 -14 q45 -13 108 -15 l0 0 Z" /><glyph glyph-name="" unicode="6" d="M265 -10 q105 3 160 62 q55 59 55 135 q0 64 -44 118 q-44 55 -134 58 q-67 -2 -106 -25 q-39 -24 -52 -38 l0 -11 q37 24 72 34 q35 9 62 9 q74 -2 105 -48 q31 -46 30 -107 q2 -62 -30 -114 q-32 -52 -118 -55 q-77 1 -117 66 q-40 65 -40 184 q5 176 100 298 q94 121 225 173 l0 10 q-107 -25 -244 -141 q-136 -117 -149 -340 q1 -126 61 -196 q60 -71 164 -72 l0 0 Z" /><glyph glyph-name="" unicode="7" d="M78 -35 l79 0 l320 727 l0 8 l-437 0 l0 -161 l8 0 q14 81 42 113 q28 32 98 31 l249 0 l-359 -718 Z" /><glyph glyph-name="" unicode="8" d="M249 -10 q86 0 150 46 q64 45 67 136 q-2 84 -54 138 q-52 53 -123 89 q50 16 94 62 q44 46 47 103 q-3 80 -56 115 q-53 34 -120 33 q-70 0 -125 -40 q-54 -39 -57 -112 q0 -59 39 -99 q38 -41 109 -84 q-51 -12 -112 -61 q-62 -50 -68 -136 q2 -87 59 -138 q57 -51 150 -52 l0 0 ZM273 407 q-53 32 -95 68 q-43 36 -45 93 q-1 55 26 89 q28 34 95 35 q62 -1 89 -35 q28 -34 27 -89 q-1 -50 -28 -95 q-27 -46 -69 -66 l0 0 ZM249 8 q-74 4 -109 58 q-35 55 -35 114 q0 65 35 116 q35 52 101 71 q67 -38 115 -80 q48 -42 50 -118 q0 -76 -38 -118 q-38 -42 -119 -43 l0 0 Z" /><glyph glyph-name="" unicode="9" d="M86 -45 q107 25 244 144 q136 120 149 343 q-1 126 -61 197 q-60 71 -164 72 q-105 -3 -159 -62 q-55 -59 -55 -136 q0 -63 44 -117 q43 -54 133 -58 q68 2 107 25 q39 23 51 37 l0 12 q-36 -25 -71 -34 q-35 -9 -63 -9 q-74 2 -104 48 q-31 45 -30 106 q-2 62 30 114 q31 52 117 55 q78 -1 118 -65 q39 -65 39 -185 q-5 -176 -99 -301 q-95 -125 -226 -178 l0 -8 Z" /><glyph glyph-name="" unicode="&#x2070;" d="M181 291 q69 4 103 72 q34 67 34 147 q0 80 -34 148 q-34 68 -103 72 q-70 -4 -104 -72 q-34 -68 -34 -148 q0 -80 34 -147 q34 -68 104 -72 l0 0 ZM181 308 q-49 4 -70 65 q-21 62 -21 137 q0 76 21 138 q21 61 70 65 q49 -4 71 -65 q21 -62 21 -138 q0 -75 -21 -137 q-22 -61 -71 -65 l0 0 Z" /><glyph glyph-name="" unicode="¹" d="M56 300 l225 0 l0 10 q-36 -1 -61 7 q-25 7 -26 38 l0 382 l-151 -70 l0 -11 l112 37 l0 -338 q-1 -30 -30 -38 q-29 -7 -69 -7 l0 -10 Z" /><glyph glyph-name="" unicode="²" d="M28 300 l267 0 l0 85 l-9 0 q-9 -32 -21 -41 q-12 -9 -32 -8 l-164 0 q100 88 158 166 q58 77 59 135 q1 38 -27 65 q-28 26 -97 28 q-29 -1 -65 -7 q-36 -7 -39 -8 l0 -99 l9 0 q10 51 31 74 q21 22 66 22 q48 -2 63 -27 q15 -24 14 -51 q4 -40 -37 -115 q-41 -75 -176 -206 l0 -13 Z" /><glyph glyph-name="" unicode="³" d="M143 295 q75 2 113 40 q37 38 37 90 q0 50 -28 83 q-28 32 -78 46 q21 8 46 30 q25 22 27 61 q0 35 -25 59 q-26 24 -80 26 q-32 -1 -63 -7 q-31 -7 -33 -8 l0 -99 l9 0 q10 57 31 77 q21 20 53 19 q32 -1 48 -19 q16 -19 16 -47 q2 -34 -26 -64 q-27 -29 -103 -43 l6 -20 q1 1 19 8 q18 7 41 8 q48 -2 72 -37 q23 -34 23 -76 q1 -42 -22 -76 q-24 -33 -82 -35 q-38 1 -61 28 q-24 26 -24 69 l-12 0 l0 -95 q0 -1 29 -9 q29 -8 67 -9 l0 0 Z" /><glyph glyph-name="" unicode="&#x2074;" d="M146 300 l187 0 l0 10 q-30 -1 -50 7 q-19 7 -20 38 l0 55 l62 0 l0 17 l-62 0 l0 163 l-39 0 l0 -163 l-160 0 l207 318 l-55 0 l-179 -320 l0 -15 l187 0 l0 -55 q-1 -30 -24 -38 q-24 -7 -54 -7 l0 -10 Z" /><glyph glyph-name="" unicode="&#x2075;" d="M141 295 q75 2 110 40 q35 38 35 90 q-4 78 -66 112 q-62 34 -134 26 l42 125 l71 0 q20 1 32 -9 q12 -10 21 -44 l9 0 l0 88 l-162 0 l-34 -175 q79 3 127 -30 q48 -33 49 -96 q1 -42 -19 -76 q-21 -33 -80 -35 q-38 1 -61 28 q-24 26 -24 69 l-11 0 l0 -95 q0 -1 28 -9 q28 -8 67 -9 l0 0 Z" /><glyph glyph-name="" unicode="&#x2076;" d="M187 291 q65 2 98 38 q34 37 34 83 q0 39 -27 73 q-28 34 -83 36 q-43 -2 -67 -17 q-24 -15 -31 -23 l0 -14 q23 17 45 23 q21 6 39 6 q43 -1 61 -28 q18 -26 17 -62 q1 -36 -17 -66 q-19 -30 -69 -32 q-45 0 -68 38 q-23 38 -23 109 q3 106 60 178 q57 72 135 102 l0 12 q-64 -13 -149 -84 q-85 -71 -93 -208 q1 -77 38 -120 q37 -43 100 -44 l0 0 Z" /><glyph glyph-name="" unicode="&#x2077;" d="M80 276 l44 0 l193 438 l0 9 l-268 0 l0 -103 l9 0 q9 49 25 69 q17 19 58 18 l144 0 l-205 -431 Z" /><glyph glyph-name="" unicode="&#x2078;" d="M180 291 q52 0 92 28 q40 28 42 84 q-1 52 -30 82 q-28 31 -66 51 q27 15 50 43 q23 29 24 59 q-2 50 -35 71 q-32 22 -74 21 q-43 0 -77 -24 q-33 -25 -35 -70 q0 -36 23 -60 q22 -24 62 -49 q-31 -9 -66 -39 q-35 -30 -38 -80 q1 -53 36 -84 q35 -32 92 -33 l0 0 ZM195 547 q-31 19 -55 40 q-25 21 -26 54 q-1 32 15 51 q16 20 54 20 q36 0 52 -20 q15 -19 15 -51 q0 -29 -15 -55 q-16 -26 -40 -39 l0 0 ZM180 308 q-43 2 -63 34 q-20 31 -20 66 q0 38 20 67 q21 30 59 41 q0 0 1 0 q1 -1 5 -3 q34 -19 61 -47 q27 -29 29 -65 q0 -45 -22 -69 q-22 -24 -70 -24 l0 0 Z" /><glyph glyph-name="" unicode="&#x2079;" d="M65 269 q64 13 148 86 q85 72 93 210 q-1 77 -37 120 q-37 44 -101 45 q-65 -2 -98 -38 q-33 -37 -33 -84 q0 -39 27 -72 q27 -34 82 -36 q43 2 67 16 q24 15 31 23 l0 14 q-23 -17 -44 -23 q-22 -6 -39 -6 q-43 1 -61 28 q-18 26 -17 62 q-1 37 17 67 q18 29 68 31 q46 0 69 -38 q23 -37 23 -109 q-3 -106 -60 -180 q-57 -74 -135 -105 l0 -11 Z" /><glyph glyph-name="" unicode="&#x2044;" d="M-110 -3 l39 0 l334 706 l-38 0 l-335 -706 Z" /><glyph glyph-name="" unicode="½" d="M56 300 l225 0 l0 10 q-36 -1 -61 7 q-25 7 -26 38 l0 382 l-151 -70 l0 -11 l112 37 l0 -338 q-1 -30 -30 -38 q-29 -7 -69 -7 l0 -10 ZM208 -3 l39 0 l334 706 l-38 0 l-335 -706 ZM499 0 l267 0 l0 85 l-9 0 q-9 -32 -21 -41 q-12 -9 -32 -8 l-164 0 q100 88 158 166 q58 77 59 135 q1 38 -27 65 q-28 26 -97 28 q-29 -1 -65 -7 q-36 -7 -39 -8 l0 -99 l9 0 q10 51 31 74 q21 22 66 22 q48 -2 63 -27 q15 -24 14 -51 q4 -40 -37 -115 q-41 -75 -176 -206 l0 -13 Z" /><glyph glyph-name="" unicode="¼" d="M56 300 l225 0 l0 10 q-36 -1 -61 7 q-25 7 -26 38 l0 382 l-151 -70 l0 -11 l112 37 l0 -338 q-1 -30 -30 -38 q-29 -7 -69 -7 l0 -10 ZM208 -3 l39 0 l334 706 l-38 0 l-335 -706 ZM617 0 l187 0 l0 10 q-30 -1 -50 7 q-19 7 -20 38 l0 55 l62 0 l0 17 l-62 0 l0 163 l-39 0 l0 -163 l-160 0 l207 318 l-55 0 l-179 -320 l0 -15 l187 0 l0 -55 q-1 -30 -24 -38 q-24 -7 -54 -7 l0 -10 Z" /><glyph glyph-name="" unicode="¾" d="M143 295 q75 2 113 40 q37 38 37 90 q0 50 -28 83 q-28 32 -78 46 q21 8 46 30 q25 22 27 61 q0 35 -25 59 q-26 24 -80 26 q-32 -1 -63 -7 q-31 -7 -33 -8 l0 -99 l9 0 q10 57 31 77 q21 20 53 19 q32 -1 48 -19 q16 -19 16 -47 q2 -34 -26 -64 q-27 -29 -103 -43 l6 -20 q1 1 19 8 q18 7 41 8 q48 -2 72 -37 q23 -34 23 -76 q1 -42 -22 -76 q-24 -33 -82 -35 q-38 1 -61 28 q-24 26 -24 69 l-12 0 l0 -95 q0 -1 29 -9 q29 -8 67 -9 l0 0 ZM223 -3 l39 0 l334 706 l-38 0 l-335 -706 ZM632 0 l187 0 l0 10 q-30 -1 -50 7 q-19 7 -20 38 l0 55 l62 0 l0 17 l-62 0 l0 163 l-39 0 l0 -163 l-160 0 l207 318 l-55 0 l-179 -320 l0 -15 l187 0 l0 -55 q-1 -30 -24 -38 q-24 -7 -54 -7 l0 -10 Z" /><glyph glyph-name="" unicode="&#x215b;" d="M56 300 l225 0 l0 10 q-36 -1 -61 7 q-25 7 -26 38 l0 382 l-151 -70 l0 -11 l112 37 l0 -338 q-1 -30 -30 -38 q-29 -7 -69 -7 l0 -10 ZM208 -3 l39 0 l334 706 l-38 0 l-335 -706 ZM651 -9 q52 0 92 28 q40 28 42 84 q-1 52 -30 82 q-28 31 -66 51 q27 15 50 43 q23 29 24 59 q-2 50 -35 71 q-32 22 -74 21 q-43 0 -77 -24 q-33 -25 -35 -70 q0 -36 23 -60 q22 -24 62 -49 q-31 -9 -66 -39 q-35 -30 -38 -80 q1 -53 36 -84 q35 -32 92 -33 l0 0 ZM666 247 q-31 19 -55 40 q-25 21 -26 54 q-1 32 15 51 q16 20 54 20 q36 0 52 -20 q15 -19 15 -51 q0 -29 -15 -55 q-16 -26 -40 -39 l0 0 ZM651 8 q-43 2 -63 34 q-20 31 -20 66 q0 38 20 67 q21 30 59 41 q0 0 1 0 q1 -1 5 -3 q34 -19 61 -47 q27 -29 29 -65 q0 -45 -22 -69 q-22 -24 -70 -24 l0 0 Z" /><glyph glyph-name="" unicode="&#x215c;" d="M143 295 q75 2 113 40 q37 38 37 90 q0 50 -28 83 q-28 32 -78 46 q21 8 46 30 q25 22 27 61 q0 35 -25 59 q-26 24 -80 26 q-32 -1 -63 -7 q-31 -7 -33 -8 l0 -99 l9 0 q10 57 31 77 q21 20 53 19 q32 -1 48 -19 q16 -19 16 -47 q2 -34 -26 -64 q-27 -29 -103 -43 l6 -20 q1 1 19 8 q18 7 41 8 q48 -2 72 -37 q23 -34 23 -76 q1 -42 -22 -76 q-24 -33 -82 -35 q-38 1 -61 28 q-24 26 -24 69 l-12 0 l0 -95 q0 -1 29 -9 q29 -8 67 -9 l0 0 ZM223 -3 l39 0 l334 706 l-38 0 l-335 -706 ZM666 -9 q52 0 92 28 q40 28 42 84 q-1 52 -30 82 q-28 31 -66 51 q27 15 50 43 q23 29 24 59 q-2 50 -35 71 q-32 22 -74 21 q-43 0 -77 -24 q-33 -25 -35 -70 q0 -36 23 -60 q22 -24 62 -49 q-31 -9 -66 -39 q-35 -30 -38 -80 q1 -53 36 -84 q35 -32 92 -33 l0 0 ZM681 247 q-31 19 -55 40 q-25 21 -26 54 q-1 32 15 51 q16 20 54 20 q36 0 52 -20 q15 -19 15 -51 q0 -29 -15 -55 q-16 -26 -40 -39 l0 0 ZM666 8 q-43 2 -63 34 q-20 31 -20 66 q0 38 20 67 q21 30 59 41 q0 0 1 0 q1 -1 5 -3 q34 -19 61 -47 q27 -29 29 -65 q0 -45 -22 -69 q-22 -24 -70 -24 l0 0 Z" /><glyph glyph-name="" unicode="&#x215d;" d="M141 295 q75 2 110 40 q35 38 35 90 q-4 78 -66 112 q-62 34 -134 26 l42 125 l71 0 q20 1 32 -9 q12 -10 21 -44 l9 0 l0 88 l-162 0 l-34 -175 q79 3 127 -30 q48 -33 49 -96 q1 -42 -19 -76 q-21 -33 -80 -35 q-38 1 -61 28 q-24 26 -24 69 l-11 0 l0 -95 q0 -1 28 -9 q28 -8 67 -9 l0 0 ZM228 -3 l39 0 l334 706 l-38 0 l-335 -706 ZM671 -9 q52 0 92 28 q40 28 42 84 q-1 52 -30 82 q-28 31 -66 51 q27 15 50 43 q23 29 24 59 q-2 50 -35 71 q-32 22 -74 21 q-43 0 -77 -24 q-33 -25 -35 -70 q0 -36 23 -60 q22 -24 62 -49 q-31 -9 -66 -39 q-35 -30 -38 -80 q1 -53 36 -84 q35 -32 92 -33 l0 0 ZM686 247 q-31 19 -55 40 q-25 21 -26 54 q-1 32 15 51 q16 20 54 20 q36 0 52 -20 q15 -19 15 -51 q0 -29 -15 -55 q-16 -26 -40 -39 l0 0 ZM671 8 q-43 2 -63 34 q-20 31 -20 66 q0 38 20 67 q21 30 59 41 q0 0 1 0 q1 -1 5 -3 q34 -19 61 -47 q27 -29 29 -65 q0 -45 -22 -69 q-22 -24 -70 -24 l0 0 Z" /><glyph glyph-name="" unicode="&#x215e;" d="M80 276 l44 0 l193 438 l0 9 l-268 0 l0 -103 l9 0 q9 49 25 69 q17 19 58 18 l144 0 l-205 -431 ZM239 -3 l39 0 l334 706 l-38 0 l-335 -706 ZM682 -9 q52 0 92 28 q40 28 42 84 q-1 52 -30 82 q-28 31 -66 51 q27 15 50 43 q23 29 24 59 q-2 50 -35 71 q-32 22 -74 21 q-43 0 -77 -24 q-33 -25 -35 -70 q0 -36 23 -60 q22 -24 62 -49 q-31 -9 -66 -39 q-35 -30 -38 -80 q1 -53 36 -84 q35 -32 92 -33 l0 0 ZM697 247 q-31 19 -55 40 q-25 21 -26 54 q-1 32 15 51 q16 20 54 20 q36 0 52 -20 q15 -19 15 -51 q0 -29 -15 -55 q-16 -26 -40 -39 l0 0 ZM682 8 q-43 2 -63 34 q-20 31 -20 66 q0 38 20 67 q21 30 59 41 q0 0 1 0 q1 -1 5 -3 q34 -19 61 -47 q27 -29 29 -65 q0 -45 -22 -69 q-22 -24 -70 -24 l0 0 Z" /><glyph glyph-name="" unicode="." d="M103 -9 q19 1 32 14 q13 13 14 32 q-1 19 -14 32 q-13 12 -32 13 q-20 -1 -33 -13 q-13 -13 -13 -32 q0 -19 13 -32 q13 -13 33 -14 l0 0 Z" /><glyph glyph-name="" unicode="," d="M60 -109 q39 20 65 55 q27 35 28 80 q1 24 -10 43 q-11 18 -39 19 q-25 -1 -36 -14 q-11 -14 -11 -34 q1 -19 13 -33 q13 -14 29 -15 l17 0 q0 -21 -13 -44 q-13 -24 -43 -47 l0 -10 Z" /><glyph glyph-name="" unicode=":" d="M103 310 q19 1 32 14 q13 13 14 32 q-1 19 -14 32 q-13 12 -32 13 q-20 -1 -33 -13 q-13 -13 -13 -32 q0 -19 13 -32 q13 -13 33 -14 l0 0 ZM104 -9 q19 1 32 14 q13 13 14 32 q-1 19 -14 32 q-13 12 -32 13 q-20 -1 -33 -13 q-13 -13 -13 -32 q0 -19 13 -32 q13 -13 33 -14 l0 0 Z" /><glyph glyph-name="" unicode=";" d="M103 310 q19 1 32 14 q13 13 14 32 q-1 19 -14 32 q-13 12 -32 13 q-20 -1 -33 -13 q-13 -13 -13 -32 q0 -19 13 -32 q13 -13 33 -14 l0 0 ZM62 -115 q39 20 65 55 q27 35 28 80 q1 24 -10 43 q-11 18 -39 19 q-25 -1 -36 -14 q-11 -14 -11 -34 q1 -19 13 -33 q13 -14 29 -15 l17 0 q0 -21 -13 -44 q-13 -24 -43 -47 l0 -10 Z" /><glyph glyph-name="" unicode="&#x2026;" d="M123 -9 q19 1 32 14 q13 13 14 32 q-1 19 -14 32 q-13 12 -32 13 q-20 -1 -33 -13 q-13 -13 -13 -32 q0 -19 13 -32 q13 -13 33 -14 l0 0 ZM333 -9 q19 1 32 14 q13 13 14 32 q-1 19 -14 32 q-13 12 -32 13 q-20 -1 -33 -13 q-13 -13 -13 -32 q0 -19 13 -32 q13 -13 33 -14 l0 0 ZM543 -9 q19 1 32 14 q13 13 14 32 q-1 19 -14 32 q-13 12 -32 13 q-20 -1 -33 -13 q-13 -13 -13 -32 q0 -19 13 -32 q13 -13 33 -14 l0 0 Z" /><glyph glyph-name="" unicode="!" d="M123 184 l21 0 l16 401 l3 115 l-59 0 l3 -115 l16 -401 ZM133 -9 q19 1 32 14 q13 13 14 32 q-1 19 -14 32 q-13 12 -32 13 q-20 -1 -33 -13 q-13 -13 -13 -32 q0 -19 13 -32 q13 -13 33 -14 l0 0 Z" /><glyph glyph-name="" unicode="¡" d="M133 343 q20 1 33 14 q13 12 13 31 q0 19 -13 32 q-13 13 -33 14 q-19 -1 -32 -14 q-13 -13 -14 -32 q1 -19 14 -31 q13 -13 32 -14 l0 0 ZM103 -275 l59 0 l-3 115 l-16 401 l-21 0 l-16 -401 l-3 -115 Z" /><glyph glyph-name="" unicode="?" d="M202 182 l5 6 q-25 26 -52 72 q-28 46 40 119 q38 34 79 80 q40 45 43 93 q0 72 -36 115 q-37 43 -108 44 q-38 -2 -61 -13 q-24 -11 -25 -13 l0 -60 q2 3 31 21 q28 18 66 21 q37 0 62 -19 q24 -20 25 -63 q2 -50 -21 -81 q-24 -30 -100 -100 q-73 -87 -17 -153 q55 -66 69 -69 l0 0 ZM164 -9 q19 1 32 14 q13 13 14 32 q-1 19 -14 32 q-13 12 -32 13 q-20 -1 -33 -13 q-13 -13 -13 -32 q0 -19 13 -32 q13 -13 33 -14 l0 0 Z" /><glyph glyph-name="" unicode="¿" d="M220 341 q20 1 33 14 q13 12 13 31 q0 19 -13 32 q-13 13 -33 14 q-19 -1 -32 -14 q-13 -13 -14 -32 q1 -19 14 -31 q13 -13 32 -14 l0 0 ZM211 -288 q38 2 61 13 q24 11 25 13 l0 60 q-2 -3 -30 -21 q-29 -18 -67 -21 q-37 0 -61 19 q-25 20 -26 63 q0 62 32 96 q32 35 99 94 q71 84 12 147 q-59 63 -74 66 l-5 -6 q26 -25 55 -70 q30 -44 -45 -120 q-44 -36 -81 -73 q-37 -38 -39 -91 q0 -73 36 -120 q37 -47 108 -49 l0 0 Z" /><glyph glyph-name="" unicode="·" d="M98 289 q19 1 32 14 q13 13 14 32 q-1 19 -14 32 q-13 12 -32 13 q-20 -1 -33 -13 q-13 -13 -13 -32 q0 -19 13 -32 q13 -13 33 -14 l0 0 Z" /><glyph glyph-name="" unicode="&#x2022;" d="M159 237 q52 1 87 36 q34 34 35 86 q-1 52 -35 86 q-35 35 -87 36 q-52 -1 -86 -36 q-35 -34 -36 -86 q1 -52 36 -86 q34 -35 86 -36 l0 0 Z" /><glyph glyph-name="" unicode="*" d="M230 330 q6 0 12 2 q5 3 9 7 q4 4 5 8 q1 5 0 11 q-2 16 -9 70 q-8 55 -11 79 q20 -15 63 -51 q44 -36 56 -45 q8 -6 16 -6 q8 0 13 4 q6 5 9 10 q4 5 5 11 q1 6 -1 11 q-3 11 -14 15 q-15 6 -66 29 q-52 22 -74 33 q23 9 76 28 q53 18 68 24 q11 5 15 14 q1 5 1 12 q-1 6 -3 11 q-3 6 -9 10 q-6 5 -14 5 q-7 0 -15 -5 q-13 -10 -60 -42 q-46 -33 -66 -46 l21 149 q0 12 -7 19 q-3 5 -8 7 q-6 2 -12 2 q-6 0 -12 -2 q-5 -2 -9 -7 q-4 -4 -5 -9 q-1 -5 0 -10 q2 -16 9 -70 q8 -54 11 -78 q-20 15 -63 51 q-44 35 -56 45 q-4 3 -8 4 q-4 1 -8 1 q-8 0 -13 -4 q-6 -4 -9 -9 q-4 -5 -5 -11 q-1 -7 1 -12 q3 -9 14 -14 q15 -7 66 -29 q52 -23 74 -33 q-23 -9 -76 -28 q-53 -19 -68 -25 q-10 -5 -15 -14 q-1 -5 -1 -11 q1 -6 3 -11 q3 -6 9 -10 q6 -5 14 -5 q8 0 15 4 l126 89 q-3 -24 -11 -79 q-8 -55 -10 -71 q0 -12 6 -20 q4 -4 9 -6 q6 -2 12 -2 l0 0 Z" /><glyph glyph-name="" unicode="#" d="M39 0 l34 0 l60 252 l196 0 l-60 -252 l34 0 l60 252 l117 0 l0 28 l-111 0 l38 160 l103 0 l0 28 l-96 0 l55 232 l-34 0 l-55 -232 l-196 0 l55 232 l-34 0 l-55 -232 l-93 0 l0 -28 l86 0 l-38 -160 l-78 0 l0 -28 l72 0 l-60 -252 ZM139 280 l38 160 l196 0 l-38 -160 l-196 0 Z" /><glyph glyph-name="" unicode="/" d="M10 -50 l31 0 l190 790 l-31 0 l-190 -790 Z" /><glyph glyph-name="" unicode="\" d="M207 -50 l31 0 l-190 790 l-31 0 l190 -790 Z" /><glyph glyph-name="" unicode="(" d="M260 -144 l9 7 q-9 -1 -70 106 q-62 106 -71 328 q9 221 71 322 q61 101 70 100 l-9 9 q-12 0 -97 -107 q-86 -107 -98 -322 q12 -216 98 -329 q85 -113 97 -114 l0 0 Z" /><glyph glyph-name="" unicode=")" d="M41 -144 q12 1 98 114 q85 113 97 329 q-12 215 -97 322 q-86 107 -98 107 l-9 -9 q9 1 71 -100 q61 -101 70 -322 q-9 -222 -70 -328 q-62 -107 -71 -106 l9 -7 Z" /><glyph glyph-name="" unicode="{" d="M231 -180 l23 0 l0 11 q-50 15 -57 41 q-6 26 -3 41 l9 309 q0 33 -21 51 q-21 18 -51 22 q30 3 51 21 q21 18 21 51 l-9 279 q-3 15 3 41 q7 26 57 41 l0 11 l-23 0 q-38 0 -63 -22 q-25 -22 -25 -63 q2 -44 5 -151 q4 -108 4 -136 q2 -25 -11 -40 q-14 -15 -48 -22 l-16 -4 l0 -12 l16 -4 q31 -7 46 -23 q15 -16 13 -47 q0 -29 -4 -147 q-3 -118 -5 -163 q0 -41 25 -63 q25 -22 63 -22 l0 0 Z" /><glyph glyph-name="" unicode="}" d="M76 -180 l23 0 q38 0 63 22 q25 22 25 63 q-2 45 -5 163 q-4 118 -4 147 q-2 31 13 47 q15 16 46 23 l16 4 l0 12 l-16 4 q-34 9 -47 23 q-14 15 -12 39 q0 28 4 136 q3 107 5 151 q0 41 -25 63 q-25 22 -63 22 l-23 0 l0 -11 q50 -15 57 -41 q6 -26 3 -41 l-9 -279 q0 -33 21 -51 q21 -18 51 -21 q-30 -4 -51 -22 q-21 -18 -21 -51 l9 -309 q3 -15 -3 -41 q-7 -26 -57 -41 l0 -11 Z" /><glyph glyph-name="" unicode="[" d="M97 -180 l162 0 l0 13 l-116 21 l0 852 l116 21 l0 13 l-162 0 l0 -920 Z" /><glyph glyph-name="" unicode="]" d="M27 -180 l162 0 l0 920 l-162 0 l0 -13 l116 -21 l0 -852 l-116 -21 l0 -13 Z" /><glyph glyph-name="" unicode="-" d="M40 249 l243 0 l0 19 l-243 0 l0 -19 Z" /><glyph glyph-name="" unicode="­" d="M40 249 l243 0 l0 19 l-243 0 l0 -19 Z" /><glyph glyph-name="" unicode="&#x2013;" d="M22 249 l363 0 l0 19 l-363 0 l0 -19 Z" /><glyph glyph-name="" unicode="&#x2014;" d="M22 249 l523 0 l0 19 l-523 0 l0 -19 Z" /><glyph glyph-name="" unicode="_" d="M22 -46 l363 0 l0 19 l-363 0 l0 -19 Z" /><glyph glyph-name="" unicode="&#x201a;" d="M60 -109 q39 20 65 55 q27 35 28 80 q1 24 -10 43 q-11 18 -39 19 q-25 -1 -36 -14 q-11 -14 -11 -34 q1 -19 13 -33 q13 -14 29 -15 l17 0 q0 -21 -13 -44 q-13 -24 -43 -47 l0 -10 Z" /><glyph glyph-name="" unicode="&#x201e;" d="M58 -108 q39 20 65 55 q27 35 28 80 q1 24 -10 43 q-11 18 -39 19 q-25 -1 -36 -14 q-11 -14 -11 -34 q1 -19 13 -33 q13 -14 29 -15 l17 0 q0 -21 -13 -44 q-13 -24 -43 -47 l0 -10 ZM194 -108 q39 20 65 55 q27 35 28 80 q1 24 -10 43 q-11 18 -39 19 q-25 -1 -36 -14 q-11 -14 -11 -34 q1 -19 13 -33 q13 -14 29 -15 l17 0 q0 -21 -13 -44 q-13 -24 -43 -47 l0 -10 Z" /><glyph glyph-name="" unicode="&#x201c;" d="M148 707 q-39 -20 -65 -55 q-27 -35 -28 -80 q0 -24 10 -43 q11 -18 39 -19 q25 1 36 14 q11 14 11 34 q-1 19 -13 33 q-13 14 -29 15 l-17 0 q0 21 13 44 q13 24 43 47 l0 10 ZM284 707 q-39 -20 -65 -55 q-27 -35 -28 -80 q0 -24 10 -43 q11 -18 39 -19 q25 1 36 14 q11 14 11 34 q-1 19 -13 33 q-13 14 -29 15 l-17 0 q0 21 13 44 q13 24 43 47 l0 10 Z" /><glyph glyph-name="" unicode="&#x201d;" d="M58 513 q39 20 65 55 q27 35 28 80 q1 24 -10 43 q-11 18 -39 19 q-25 -1 -36 -14 q-11 -14 -11 -34 q1 -19 13 -33 q13 -14 29 -15 l17 0 q0 -21 -13 -44 q-13 -24 -43 -47 l0 -10 ZM194 513 q39 20 65 55 q27 35 28 80 q1 24 -10 43 q-11 18 -39 19 q-25 -1 -36 -14 q-11 -14 -11 -34 q1 -19 13 -33 q13 -14 29 -15 l17 0 q0 -21 -13 -44 q-13 -24 -43 -47 l0 -10 Z" /><glyph glyph-name="" unicode="&#x2018;" d="M148 513 l0 10 q-30 23 -43 47 q-13 23 -13 44 l17 0 q16 1 29 15 q12 14 13 33 q0 20 -11 34 q-11 13 -36 14 q-28 -1 -39 -19 q-10 -19 -10 -43 q1 -45 28 -80 q26 -35 65 -55 l0 0 Z" /><glyph glyph-name="" unicode="&#x2019;" d="M58 513 q39 20 65 55 q27 35 28 80 q1 24 -10 43 q-11 18 -39 19 q-25 -1 -36 -14 q-11 -14 -11 -34 q1 -19 13 -33 q13 -14 29 -15 l17 0 q0 -21 -13 -44 q-13 -24 -43 -47 l0 -10 Z" /><glyph glyph-name="" unicode="«" d="M189 20 l5 5 l-97 199 l96 183 l-4 5 l-142 -188 l142 -204 ZM309 20 l5 5 l-97 199 l96 183 l-4 5 l-142 -188 l142 -204 Z" /><glyph glyph-name="" unicode="»" d="M51 23 l144 197 l-140 194 l-5 -4 l95 -189 l-98 -193 l4 -5 ZM171 21 l144 198 l-140 194 l-5 -5 l95 -189 l-98 -193 l4 -5 Z" /><glyph glyph-name="" unicode="&#x2039;" d="M189 20 l5 5 l-97 199 l96 183 l-4 5 l-142 -188 l142 -204 Z" /><glyph glyph-name="" unicode="&#x203a;" d="M51 21 l144 198 l-140 194 l-5 -5 l95 -189 l-98 -193 l4 -5 Z" /><glyph glyph-name="" unicode="&quot;" d="M58 513 q39 20 65 55 q27 35 28 80 q1 24 -10 43 q-11 18 -39 19 q-25 -1 -36 -14 q-11 -14 -11 -34 q1 -19 13 -33 q13 -14 29 -15 l17 0 q0 -21 -13 -44 q-13 -24 -43 -47 l0 -10 ZM194 513 q39 20 65 55 q27 35 28 80 q1 24 -10 43 q-11 18 -39 19 q-25 -1 -36 -14 q-11 -14 -11 -34 q1 -19 13 -33 q13 -14 29 -15 l17 0 q0 -21 -13 -44 q-13 -24 -43 -47 l0 -10 Z" /><glyph glyph-name="" unicode="&#39;" d="M58 513 q39 20 65 55 q27 35 28 80 q1 24 -10 43 q-11 18 -39 19 q-25 -1 -36 -14 q-11 -14 -11 -34 q1 -19 13 -33 q13 -14 29 -15 l17 0 q0 -21 -13 -44 q-13 -24 -43 -47 l0 -10 Z" /><glyph glyph-name="" unicode="&#x2009;" d="" /><glyph glyph-name="" unicode="¢" d="M232 0 l28 0 l0 72 q35 3 63 11 q28 7 30 8 l0 99 l-11 0 q-7 -38 -28 -71 q-21 -33 -67 -35 q-72 3 -102 55 q-30 53 -29 122 q-1 69 29 121 q30 52 102 55 q46 -2 67 -35 q21 -33 28 -71 l11 0 l0 99 q-2 1 -30 8 q-28 8 -63 11 l0 73 l-28 0 l0 -74 q-80 -8 -125 -61 q-46 -54 -47 -126 q1 -72 47 -126 q45 -54 125 -62 l0 -73 Z" /><glyph glyph-name="" unicode="¤" d="M402 308 q0 33 -13 62 q-12 28 -35 50 l54 54 l-19 19 l-55 -55 l3 -3 q-21 16 -47 24 q-27 9 -56 9 q-29 0 -55 -8 q-25 -8 -46 -23 l1 1 l-55 55 l-19 -19 l53 -53 q-22 -22 -34 -51 q-13 -29 -13 -62 q0 -33 13 -62 q12 -29 34 -51 l-53 -53 l19 -19 l55 55 l-1 1 q21 -15 46 -23 q26 -8 55 -8 q29 0 56 9 q26 8 47 24 l-3 -3 l55 -55 l19 19 l-54 54 q23 22 35 50 q13 29 13 62 l0 0 ZM234 167 q-55 2 -85 42 q-31 40 -32 99 q1 59 32 99 q30 40 85 42 q53 -2 85 -42 q31 -40 32 -99 q-1 -59 -32 -99 q-32 -40 -85 -42 l0 0 Z" /><glyph glyph-name="" unicode="$" d="M358 351 q-5 4 -25 19 q-20 14 -43 31 l0 290 q65 -2 98 -41 q32 -39 46 -120 l8 0 l0 156 q-4 2 -53 12 q-50 11 -95 12 l-4 0 l0 53 l-28 0 l0 -55 q-98 -12 -139 -57 q-41 -45 -40 -91 q-2 -33 18 -74 q20 -40 92 -93 q12 -8 30 -21 q17 -13 39 -29 l0 -334 q-88 -2 -134 38 q-45 40 -56 157 l-7 0 l0 -183 q5 -2 69 -16 q63 -14 128 -15 l0 -71 l28 0 l0 72 q78 7 132 49 q54 42 58 120 q1 68 -31 110 q-33 42 -91 81 l0 0 ZM230 444 q-62 45 -78 75 q-16 30 -14 57 q-1 39 27 74 q28 35 97 41 l0 -270 l-32 23 ZM290 10 l0 313 l39 -28 q45 -31 70 -67 q25 -36 25 -90 q0 -45 -34 -82 q-33 -38 -100 -46 l0 0 Z" /><glyph glyph-name="" unicode="&#x20ac;" d="M413 -11 q46 1 90 11 q45 10 48 12 l0 114 l-8 0 q-16 -75 -55 -98 q-39 -23 -82 -21 q-95 5 -142 90 q-48 85 -58 190 l246 0 l4 17 l-252 0 q-2 24 -2 45 q0 21 2 45 l258 0 l4 17 l-260 0 q10 105 58 190 q47 85 142 90 q50 2 79 -26 q30 -27 38 -103 l8 0 l20 124 q-3 2 -48 12 q-44 10 -90 11 q-139 -6 -204 -98 q-64 -92 -75 -200 l-69 0 l0 -17 l67 0 q-2 -24 -2 -45 q0 -21 2 -45 l-67 0 l0 -17 l69 0 q11 -108 75 -200 q65 -92 204 -98 l0 0 Z" /><glyph glyph-name="" unicode="&#x192;" d="M447 714 q-64 -4 -114 -69 q-51 -64 -61 -141 q-6 -55 -13 -111 l-128 0 l0 -17 l127 0 l-21 -182 l-21 -194 q-5 -45 -30 -64 q-26 -19 -66 -19 q-41 3 -66 22 q-26 18 -27 21 l-7 -60 q1 -2 23 -13 q22 -12 54 -14 q64 4 115 68 q50 65 61 142 q8 73 16 147 q8 73 16 146 l157 0 l0 17 l-155 0 l21 194 q6 45 31 64 q25 19 65 19 q41 -3 67 -21 q26 -19 27 -22 l6 60 q-1 2 -23 14 q-22 11 -54 13 l0 0 Z" /><glyph glyph-name="" unicode="£" d="M332 18 q-63 2 -108 16 q-46 14 -82 21 q24 57 46 139 q22 81 30 181 l182 0 l3 17 l-184 0 q1 21 1 43 q-3 118 16 187 q20 68 104 69 q48 2 78 -26 q30 -27 39 -103 l8 0 l20 124 q-3 2 -48 12 q-44 10 -90 11 q-130 -6 -164 -96 q-34 -90 -29 -202 l0 -19 l-109 0 l0 -17 l109 0 q0 -90 -7 -170 q-6 -80 -29 -148 q-32 -2 -48 -18 q-16 -16 -16 -33 q1 -15 11 -24 q10 -10 11 -10 l25 0 q8 11 20 36 q3 1 7 1 q5 0 10 1 q27 1 81 -4 q54 -5 114 -6 l148 0 l0 198 l-9 0 q-16 -97 -43 -139 q-28 -42 -97 -41 l0 0 Z" /><glyph glyph-name="" unicode="¥" d="M591 691 l0 9 l-189 0 q0 0 0 -4 q0 -4 0 -5 l26 0 q34 1 42 -13 q8 -13 -6 -48 q-21 -54 -62 -167 q-41 -114 -50 -139 q-10 25 -54 138 q-44 113 -63 162 q-16 38 -7 53 q8 15 46 14 q3 0 14 0 q10 0 13 0 l0 9 l-243 0 l0 -9 q56 1 74 -11 q19 -12 31 -42 q16 -35 58 -141 q43 -107 69 -173 l-179 0 l0 -17 l185 0 q5 -12 5 -12 l0 -78 l-190 0 l0 -17 l190 0 l0 -119 q-1 -49 -34 -62 q-33 -13 -82 -11 l0 -8 l287 0 l0 8 q-49 -2 -82 10 q-33 12 -34 63 l0 119 l186 0 l0 17 l-186 0 l0 83 l3 7 l183 0 l0 17 l-177 0 q20 53 53 143 q33 89 50 132 q19 57 41 75 q21 19 82 17 l0 0 Z" /><glyph glyph-name="" unicode="+" d="M285 0 l21 0 l0 263 l242 0 l0 19 l-242 0 l0 262 l-21 0 l0 -262 l-242 0 l0 -19 l242 0 l0 -263 Z" /><glyph glyph-name="" unicode="&#x2212;" d="M43 263 l445 0 l0 19 l-445 0 l0 -19 Z" /><glyph glyph-name="" unicode="×" d="M121 74 l165 181 l165 -181 l11 9 l-166 183 l166 183 l-11 9 l-165 -181 l-165 181 l-11 -9 l166 -183 l-166 -183 l11 -9 Z" /><glyph glyph-name="" unicode="÷" d="M296 383 q17 0 28 12 q12 11 12 28 q0 16 -12 27 q-11 12 -28 12 q-17 0 -28 -12 q-11 -11 -11 -27 q0 -17 11 -28 q11 -12 28 -12 l0 0 ZM43 263 l505 0 l0 19 l-505 0 l0 -19 ZM296 73 q17 0 28 12 q12 11 12 28 q0 16 -12 27 q-11 12 -28 12 q-17 0 -28 -12 q-11 -11 -11 -27 q0 -17 11 -28 q11 -12 28 -12 l0 0 Z" /><glyph glyph-name="" unicode="=" d="M43 357 l465 0 l0 19 l-465 0 l0 -19 ZM43 167 l465 0 l0 19 l-465 0 l0 -19 Z" /><glyph glyph-name="" unicode="&#x2260;" d="M508 357 l0 19 l-193 0 l34 141 l-20 0 l-34 -141 l-252 0 l0 -19 l247 0 l-41 -171 l-206 0 l0 -19 l201 0 l-48 -197 l20 0 l48 197 l244 0 l0 19 l-239 0 l41 171 l198 0 Z" /><glyph glyph-name="" unicode="&gt;" d="M43 -1 l462 270 l-462 270 l0 -22 l427 -248 l-427 -248 l0 -22 Z" /><glyph glyph-name="" unicode="&lt;" d="M503 -1 l0 22 l-427 248 l427 248 l0 22 l-462 -270 l462 -270 Z" /><glyph glyph-name="" unicode="&#x2265;" d="M43 109 l457 230 l-457 210 l0 -22 l419 -188 l-419 -208 l0 -22 ZM43 0 l440 0 l0 19 l-440 0 l0 -19 Z" /><glyph glyph-name="" unicode="&#x2264;" d="M500 109 l0 22 l-419 208 l419 188 l0 22 l-457 -210 l457 -230 ZM60 0 l440 0 l0 19 l-440 0 l0 -19 Z" /><glyph glyph-name="" unicode="±" d="M265 80 l21 0 l0 233 l222 0 l0 19 l-222 0 l0 232 l-21 0 l0 -232 l-222 0 l0 -19 l222 0 l0 -233 ZM43 0 l465 0 l0 19 l-465 0 l0 -19 Z" /><glyph glyph-name="" unicode="&#x2248;" d="M414 282 q53 3 79 38 q25 36 30 67 l-6 0 q0 -5 -23 -40 q-24 -36 -77 -41 q-62 5 -126 41 q-64 36 -129 41 q-54 -3 -83 -38 q-29 -35 -36 -67 l6 0 q0 5 28 41 q29 35 82 40 q60 -5 125 -41 q66 -36 130 -41 l0 0 ZM414 132 q53 3 79 38 q25 36 30 67 l-6 0 q0 -5 -23 -40 q-24 -36 -77 -41 q-62 5 -126 41 q-64 36 -129 41 q-54 -3 -83 -38 q-29 -35 -36 -67 l6 0 q0 5 28 41 q29 35 82 40 q60 -5 125 -41 q66 -36 130 -41 l0 0 Z" /><glyph glyph-name="" unicode="~" d="M414 221 q53 3 79 38 q25 36 30 67 l-6 0 q0 -5 -23 -40 q-24 -36 -77 -41 q-62 5 -126 41 q-64 36 -129 41 q-54 -3 -83 -38 q-29 -35 -36 -67 l6 0 q0 5 28 41 q29 35 82 40 q60 -5 125 -41 q66 -36 130 -41 l0 0 Z" /><glyph glyph-name="" unicode="¬" d="M467 173 l21 0 l0 228 l-445 0 l0 -19 l424 0 l0 -209 Z" /><glyph glyph-name="" unicode="^" d="M43 240 l21 0 l188 421 l188 -421 l21 0 l-209 461 l-209 -461 Z" /><glyph glyph-name="" unicode="&#x2205;" d="M314 -8 q115 3 191 80 q77 76 80 191 q0 59 -23 110 q-23 51 -63 88 l48 56 l-15 12 l-48 -55 q-35 28 -79 44 q-43 16 -91 16 q-115 -3 -192 -79 q-76 -77 -79 -192 q0 -59 23 -109 q23 -51 63 -89 l-48 -55 l14 -13 l48 56 q35 -29 79 -45 q43 -16 92 -16 l0 0 ZM143 81 q-37 35 -58 82 q-21 46 -21 100 q3 106 73 177 q71 70 177 73 q44 0 84 -15 q40 -14 72 -40 l-327 -377 ZM314 14 q-45 0 -84 15 q-40 14 -72 40 l326 376 q37 -35 58 -81 q21 -47 21 -101 q-3 -105 -73 -176 q-71 -70 -176 -73 l0 0 Z" /><glyph glyph-name="" unicode="&#x221e;" d="M176 116 q54 3 94 41 q39 38 58 68 q19 -30 58 -68 q40 -38 94 -41 q54 1 93 35 q38 34 40 93 q-2 59 -40 93 q-39 34 -93 35 q-55 -3 -95 -41 q-39 -37 -57 -67 q-18 30 -57 67 q-40 38 -95 41 q-55 -1 -93 -35 q-38 -34 -40 -93 q2 -59 40 -93 q38 -34 93 -35 l0 0 ZM174 136 q-46 0 -77 29 q-31 28 -32 79 q1 51 32 79 q31 28 77 28 q65 -7 103 -53 q38 -47 39 -54 q-1 -7 -40 -54 q-39 -47 -102 -54 l0 0 ZM482 136 q-63 7 -102 54 q-39 47 -40 54 q1 7 39 54 q38 46 103 53 q46 0 77 -28 q31 -28 32 -79 q-1 -51 -32 -79 q-31 -29 -77 -29 l0 0 Z" /><glyph glyph-name="" unicode="&#x222b;" d="M92 -60 q45 0 72 30 q28 30 35 89 l67 569 q9 68 30 90 q20 23 45 21 q4 1 19 -2 q14 -4 30 -26 l0 24 q-21 12 -49 12 q-44 0 -72 -30 q-27 -30 -35 -89 l-67 -569 q-9 -68 -29 -90 q-20 -23 -46 -21 q-4 -1 -19 2 q-14 4 -30 26 l0 -24 q22 -12 49 -12 l0 0 Z" /><glyph glyph-name="" unicode="&#x220f;" d="M165 -85 l21 0 l0 716 l269 0 l0 -716 l21 0 l0 716 l122 0 l0 19 l-555 0 l0 -19 l122 0 l0 -716 Z" /><glyph glyph-name="" unicode="&#x2211;" d="M43 -85 l445 0 l0 19 l-417 0 l295 348 l-295 349 l417 0 l0 19 l-445 0 l0 -19 l295 -349 l-295 -348 l0 -19 Z" /><glyph glyph-name="" unicode="&#x221a;" d="M282 -85 l21 0 l192 925 l-21 0 l-184 -889 l-137 369 l-110 -40 l6 -17 l92 34 l141 -382 Z" /><glyph glyph-name="" unicode="&#x2202;" d="M241 -8 q92 2 153 64 q61 62 74 155 q16 224 -90 351 q-107 126 -209 152 l-1 -10 q85 -38 149 -128 q65 -91 91 -197 q-22 26 -53 39 q-30 12 -61 12 q-92 -2 -154 -64 q-61 -62 -73 -155 q-10 -93 36 -155 q46 -62 138 -64 l0 0 ZM242 5 q-78 2 -102 61 q-25 59 -13 145 q9 86 48 145 q39 59 118 61 q70 -2 98 -51 q27 -50 22 -127 q-1 -63 -37 -144 q-36 -82 -134 -90 l0 0 Z" /><glyph glyph-name="" unicode="µ" d="M422 74 l0 356 l-125 -16 l0 -8 q44 1 61 -10 q17 -11 16 -40 l0 -244 q-4 -20 -38 -58 q-35 -39 -94 -43 q-47 0 -67 29 q-20 29 -19 82 l0 308 l-126 -16 l0 -8 q44 1 61 -10 q18 -11 17 -40 l0 -34 l-8 0 l0 -587 l48 0 l0 274 q17 -10 39 -14 q22 -3 47 -3 q54 4 95 38 q40 33 47 55 l0 -90 l124 16 l0 9 q-32 0 -55 12 q-22 12 -23 42 l0 0 Z" /><glyph glyph-name="" unicode="%" d="M38 -50 l38 0 l473 790 l-37 0 l-474 -790 ZM170 435 q62 2 104 43 q41 42 43 105 q-2 62 -43 104 q-42 41 -104 43 q-63 -2 -105 -43 q-41 -42 -43 -104 q2 -63 43 -105 q42 -41 105 -43 l0 0 ZM170 459 q-45 2 -69 37 q-24 35 -24 85 q0 50 24 85 q24 35 69 37 q44 -2 68 -37 q24 -35 24 -85 q0 -50 -24 -85 q-24 -35 -68 -37 l0 0 ZM439 -4 q62 2 104 43 q41 42 43 104 q-2 63 -43 105 q-42 41 -104 43 q-63 -2 -105 -43 q-41 -42 -43 -105 q2 -62 43 -104 q42 -41 105 -43 l0 0 ZM439 20 q-44 2 -68 37 q-24 35 -24 85 q0 50 24 85 q24 35 68 37 q44 -2 68 -37 q24 -35 24 -85 q0 -50 -24 -85 q-24 -35 -68 -37 l0 0 Z" /><glyph glyph-name="" unicode="&#x2030;" d="M38 -50 l38 0 l473 790 l-37 0 l-474 -790 ZM170 435 q62 2 104 43 q41 42 43 105 q-2 62 -43 104 q-42 41 -104 43 q-63 -2 -105 -43 q-41 -42 -43 -104 q2 -63 43 -105 q42 -41 105 -43 l0 0 ZM170 459 q-45 2 -69 37 q-24 35 -24 85 q0 50 24 85 q24 35 69 37 q44 -2 68 -37 q24 -35 24 -85 q0 -50 -24 -85 q-24 -35 -68 -37 l0 0 ZM439 -4 q62 2 104 43 q41 42 43 104 q-2 63 -43 105 q-42 41 -104 43 q-63 -2 -105 -43 q-41 -42 -43 -105 q2 -62 43 -104 q42 -41 105 -43 l0 0 ZM784 -4 q62 2 104 43 q41 42 43 104 q-2 63 -43 105 q-42 41 -104 43 q-63 -2 -105 -43 q-41 -42 -43 -105 q2 -62 43 -104 q42 -41 105 -43 l0 0 ZM439 20 q-44 2 -68 37 q-24 35 -24 85 q0 50 24 85 q24 35 68 37 q44 -2 68 -37 q24 -35 24 -85 q0 -50 -24 -85 q-24 -35 -68 -37 l0 0 ZM784 20 q-44 2 -68 37 q-24 35 -24 85 q0 50 24 85 q24 35 68 37 q44 -2 68 -37 q24 -35 24 -85 q0 -50 -24 -85 q-24 -35 -68 -37 l0 0 Z" /><glyph glyph-name="" unicode="&#x25ca;" d="M233 0 l20 0 l170 350 l-170 349 l-20 0 l-170 -349 l170 -350 ZM243 21 l-160 329 l160 328 l160 -328 l-160 -329 Z" /><glyph glyph-name="" unicode="@" d="M344 -136 q51 0 101 12 q50 12 102 42 l-3 1 q-23 -12 -73 -25 q-51 -12 -98 -13 q-148 6 -213 99 q-64 93 -63 198 q3 144 91 244 q88 99 231 103 q104 -2 167 -70 q62 -67 64 -173 q-3 -103 -46 -163 q-44 -61 -97 -64 q-19 -2 -28 12 q-9 14 -2 53 l55 283 l-103 0 q-81 -3 -142 -65 q-61 -61 -78 -138 q-16 -88 7 -128 q24 -40 78 -39 q45 3 80 47 q35 44 65 91 l-16 -66 q-7 -31 0 -51 q7 -19 45 -20 q102 3 163 73 q61 70 63 175 q0 107 -68 180 q-68 74 -202 77 q-150 -1 -263 -98 q-112 -96 -119 -273 q4 -152 92 -228 q87 -76 210 -76 l0 0 ZM305 65 q-33 1 -46 36 q-13 35 -1 99 q16 71 63 127 q46 57 89 60 q20 0 39 -3 q18 -4 29 -7 l-32 -155 q-32 -71 -67 -114 q-36 -42 -74 -43 l0 0 Z" /><glyph glyph-name="" unicode="&amp;" d="M663 -77 l-184 185 l57 287 l-81 0 l0 -262 l-224 226 q-4 2 -32 60 q-29 57 -33 150 q0 55 28 91 q29 36 90 37 q46 -1 72 -37 q26 -37 27 -92 q-1 -45 -20 -86 q-20 -41 -53 -60 l5 -7 q52 20 88 60 q35 40 37 89 q1 65 -36 106 q-36 41 -120 42 q-87 -1 -133 -42 q-46 -42 -46 -115 q1 -45 32 -96 q31 -52 81 -110 q-36 -2 -91 -45 q-56 -44 -62 -136 q-1 -83 52 -130 q52 -47 165 -48 q62 1 107 21 q44 20 74 54 l119 -142 l81 0 ZM282 4 q-55 0 -103 42 q-48 41 -51 125 q6 95 51 133 q45 38 51 37 q-6 7 29 -33 q36 -41 182 -216 q-29 -45 -69 -66 q-40 -22 -90 -22 l0 0 Z" /><glyph glyph-name="" unicode="¶" d="M312 0 l55 0 l0 691 l50 0 l0 -691 l42 0 l0 617 q1 53 34 66 q33 12 82 10 l0 7 l-305 0 q-100 -1 -152 -45 q-53 -44 -53 -121 q0 -78 52 -122 q52 -44 153 -45 l42 0 l0 -367 Z" /><glyph glyph-name="" unicode="§" d="M198 -7 q38 -2 103 18 q65 20 74 92 q-3 63 -49 95 q-47 31 -89 53 q55 5 95 32 q41 27 43 76 q5 49 -35 84 q-40 35 -162 105 q-47 27 -59 43 q-13 15 -11 32 q1 35 31 53 q30 18 76 18 q51 1 79 -21 q27 -23 40 -82 l10 0 l0 105 q-4 2 -43 8 q-39 6 -75 7 q-66 -1 -115 -26 q-49 -24 -52 -72 q0 -35 23 -60 q23 -25 64 -48 q39 -23 57 -34 q18 -10 29 -16 q-69 -2 -119 -26 q-51 -25 -53 -72 q1 -49 36 -81 q36 -31 90 -57 q88 -43 115 -68 q28 -25 25 -62 q-1 -35 -33 -58 q-33 -22 -88 -23 q-69 -2 -105 23 q-36 24 -45 101 l-12 0 l2 -120 q4 -1 54 -9 q49 -9 99 -10 l0 0 ZM212 265 q-35 19 -68 41 q-34 23 -36 61 q1 35 31 53 q30 18 76 18 q48 0 79 -22 q31 -23 32 -71 q-2 -38 -36 -58 q-33 -20 -78 -22 l0 0 Z" /><glyph glyph-name="" unicode="©" d="M63 215 q6 -162 104 -243 q97 -81 227 -81 q130 0 227 81 q98 81 104 243 q-6 161 -104 242 q-97 81 -227 81 q-130 0 -227 -81 q-98 -81 -104 -242 l0 0 ZM111 216 q2 132 80 219 q78 87 203 90 q125 -3 203 -90 q78 -87 80 -219 q-2 -132 -80 -220 q-78 -89 -203 -92 q-125 3 -203 92 q-78 88 -80 220 l0 0 ZM405 41 q70 5 107 39 q37 33 37 38 l-10 10 q-1 -4 -30 -30 q-29 -27 -81 -31 q-66 2 -101 49 q-36 46 -36 109 q-1 69 29 120 q30 51 102 54 q46 -2 67 -35 q21 -33 28 -71 l11 0 l0 99 q-2 1 -36 10 q-33 8 -70 9 q-86 -3 -136 -59 q-50 -56 -51 -132 q-1 -63 39 -119 q40 -56 131 -60 l0 0 Z" /><glyph glyph-name="" unicode="®" d="M373 538 q-130 0 -227 -81 q-98 -81 -104 -242 q6 -162 104 -243 q97 -81 227 -81 q130 0 227 81 q98 81 104 243 q-6 161 -104 242 q-97 81 -227 81 l0 0 ZM373 -96 q-125 3 -203 92 q-78 88 -80 220 q2 132 80 219 q78 87 203 90 q125 -3 203 -90 q78 -87 80 -219 q-2 -132 -80 -220 q-78 -89 -203 -92 l0 0 ZM511 83 q-22 37 -50 83 q-28 47 -40 67 q44 8 66 33 q21 24 21 60 q0 36 -25 61 q-26 25 -81 26 l-203 0 l0 -9 q24 1 44 -6 q20 -6 21 -33 l0 -278 q-1 -28 -21 -35 q-20 -7 -44 -6 l0 -5 l170 0 l0 5 q-24 -1 -41 5 q-16 7 -17 36 l0 152 q4 -1 19 -4 q16 -3 37 -5 q55 -94 110 -189 l77 0 q1 0 5 2 q4 2 5 3 q-15 0 -28 10 q-12 9 -25 27 l0 0 ZM311 248 l0 117 q0 17 9 24 q9 6 21 6 l46 0 q32 -1 50 -21 q18 -20 18 -51 q0 -41 -24 -62 q-23 -22 -72 -22 q-10 0 -21 3 q-12 2 -27 6 l0 0 Z" /><glyph glyph-name="" unicode="&#x2122;" d="M100 328 l169 0 l0 12 q-26 -1 -43 6 q-16 7 -17 35 l0 303 l38 0 q43 0 54 -22 q10 -21 15 -58 l11 0 l0 96 l-285 0 l0 -96 l10 0 q3 37 15 58 q12 22 54 22 l39 0 l0 -303 q-1 -29 -18 -35 q-17 -7 -42 -6 l0 -12 ZM362 328 l132 0 l0 12 q-25 -1 -42 7 q-17 7 -16 34 q1 41 6 159 q5 117 6 132 l135 -344 l13 0 l124 342 q1 -15 10 -131 q8 -117 10 -158 q1 -27 -16 -34 q-17 -8 -38 -7 l0 -12 l159 0 l0 12 q-25 -1 -38 7 q-13 7 -16 34 q-3 39 -13 145 q-10 106 -11 119 q-1 26 15 35 q16 8 39 7 l0 13 l-105 0 q-55 -148 -110 -297 q-56 149 -113 297 l-115 0 l0 -13 q26 1 40 -8 q15 -9 15 -34 l-16 -264 q-1 -26 -15 -34 q-14 -8 -40 -7 l0 -12 Z" /><glyph glyph-name="" unicode="°" d="M168 461 q54 1 89 36 q35 35 36 89 q-1 54 -36 89 q-35 35 -89 36 q-54 -1 -89 -36 q-35 -35 -36 -89 q1 -54 36 -89 q35 -35 89 -36 l0 0 ZM168 494 q-40 1 -63 27 q-23 25 -24 65 q1 40 24 66 q23 25 63 26 q40 -1 63 -26 q23 -26 24 -66 q-1 -40 -24 -65 q-23 -26 -63 -27 l0 0 Z" /><glyph glyph-name="" unicode="|" d="M250 -50 l33 0 l0 788 l-33 0 l0 -788 Z" /><glyph glyph-name="" unicode="¦" d="M250 434 l33 0 l0 304 l-33 0 l0 -304 ZM250 -53 l33 0 l0 304 l-33 0 l0 -304 Z" /><glyph glyph-name="" unicode="&#x2020;" d="M235 -130 l33 0 l0 545 l192 0 l0 17 l-192 0 l0 276 l-33 0 l0 -276 l-193 0 l0 -17 l193 0 l0 -545 Z" /><glyph glyph-name="" unicode="&#x2021;" d="M235 -130 l33 0 l0 281 l192 0 l0 17 l-192 0 l0 247 l192 0 l0 17 l-192 0 l0 276 l-33 0 l0 -276 l-193 0 l0 -17 l193 0 l0 -247 l-193 0 l0 -17 l193 0 l0 -281 Z" /><glyph glyph-name="" unicode="&#x308;" d="M-194 529 q16 0 27 11 q11 11 11 27 q0 15 -11 26 q-11 11 -27 11 q-16 0 -26 -11 q-11 -11 -11 -26 q0 -16 11 -27 q10 -11 26 -11 l0 0 ZM-60 529 q16 0 27 11 q11 11 11 27 q0 15 -11 26 q-11 11 -27 11 q-16 0 -26 -11 q-11 -11 -11 -26 q0 -16 11 -27 q10 -11 26 -11 l0 0 Z" /><glyph glyph-name="" unicode="&#x307;" d="M-68 501 q19 1 32 14 q13 13 14 32 q-1 19 -14 32 q-13 12 -32 13 q-20 -1 -33 -13 q-13 -13 -13 -32 q0 -19 13 -32 q13 -13 33 -14 l0 0 Z" /><glyph glyph-name="" unicode="&#x300;" d="M-32 498 l10 0 l-71 176 l-68 0 l129 -176 Z" /><glyph glyph-name="" unicode="&#x301;" d="M-161 495 l10 0 l129 176 l-68 0 l-71 -176 Z" /><glyph glyph-name="" unicode="&#x30b;" d="M-268 495 l10 0 l129 176 l-68 0 l-71 -176 ZM-161 495 l10 0 l129 176 l-68 0 l-71 -176 Z" /><glyph glyph-name="" unicode="&#x302;" d="M-290 486 l10 0 l124 95 l124 -95 l10 0 l-121 145 l-26 0 l-121 -145 Z" /><glyph glyph-name="" unicode="&#x30c;" d="M-169 516 l26 0 l121 144 l-10 0 l-124 -94 l-125 94 l-9 0 l121 -144 Z" /><glyph glyph-name="" unicode="&#x306;" d="M-160 522 q78 9 109 69 q30 60 29 69 l-8 0 q0 -6 -32 -52 q-32 -45 -99 -52 q-67 7 -99 52 q-31 46 -31 52 l-7 0 q-1 -9 29 -69 q30 -60 109 -69 l0 0 Z" /><glyph glyph-name="" unicode="&#x30a;" d="M-92 529 q32 1 53 17 q21 16 22 39 q-1 24 -22 40 q-21 16 -53 17 q-32 -1 -53 -17 q-21 -16 -22 -40 q1 -23 22 -39 q21 -16 53 -17 l0 0 ZM-92 550 q-15 0 -25 10 q-10 10 -10 24 q0 14 10 24 q10 10 25 10 q15 0 26 -10 q10 -10 10 -24 q0 -14 -10 -24 q-11 -10 -26 -10 l0 0 Z" /><glyph glyph-name="" unicode="&#x303;" d="M-81 532 q31 1 42 23 q12 22 17 52 l-6 0 q1 -2 -10 -17 q-10 -16 -40 -18 q-32 2 -61 18 q-29 16 -64 18 q-30 -1 -41 -23 q-12 -22 -18 -52 l6 0 q-1 2 10 18 q10 15 40 17 q29 -2 60 -18 q31 -16 65 -18 l0 0 Z" /><glyph glyph-name="" unicode="&#x304;" d="M-232 539 l210 0 l0 25 l-210 0 l0 -25 Z" /><glyph glyph-name="" unicode="&#x309;" d="M-90 529 q17 6 41 32 q25 25 27 55 q0 29 -22 50 q-21 20 -62 21 q-42 -3 -64 -26 q-22 -24 -22 -27 l4 -5 q7 7 26 18 q19 10 43 11 q31 -2 42 -20 q12 -19 11 -36 q-1 -25 -10 -42 q-10 -16 -19 -26 l5 -5 Z" /><glyph glyph-name="" unicode="&#x312;" d="M-124 504 l10 0 l92 184 l-54 12 l-48 -196 Z" /><glyph glyph-name="" unicode="&#x31b;" d="M-198 559 q67 1 100 23 q33 23 33 59 q0 8 -2 15 q-1 8 -3 14 l-41 -3 q15 -38 5 -63 q-9 -25 -65 -34 l-27 -4 l0 -7 Z" /><glyph glyph-name="" unicode="&#x323;" d="M-68 -138 q19 1 32 14 q13 13 14 32 q-1 19 -14 32 q-13 12 -32 13 q-20 -1 -33 -13 q-13 -13 -13 -32 q0 -19 13 -32 q13 -13 33 -14 l0 0 Z" /><glyph glyph-name="" unicode="&#x326;" d="M-124 -229 l10 0 l92 184 l-54 12 l-48 -196 Z" /><glyph glyph-name="" unicode="&#x327;" d="M-97 -70 l25 70 l-8 0 l-50 -80 q37 -1 57 -13 q21 -11 21 -34 q0 -22 -12 -35 q-12 -14 -33 -14 q-15 1 -26 8 q-10 6 -11 7 l0 -14 q1 -1 17 -10 q16 -10 41 -11 q29 0 46 17 q17 16 17 44 q0 29 -21 45 q-22 16 -63 20 l0 0 Z" /><glyph glyph-name="" unicode="&#x328;" d="M-80 -196 q27 1 43 11 q15 9 15 10 l0 22 q-1 -1 -14 -7 q-14 -7 -33 -8 q-18 0 -26 12 q-7 11 -6 29 q0 22 13 58 q12 37 32 69 l-20 0 q-23 -31 -44 -68 q-21 -38 -23 -73 q1 -28 18 -41 q18 -14 45 -14 l0 0 Z" /><glyph glyph-name="" unicode="&#x335;" d="M-366 523 l303 0 l0 20 l-303 0 l0 -20 Z" /><glyph glyph-name="" unicode="&#x336;" d="M-655 512 l655 0 l0 17 l-655 0 l0 -17 Z" /><glyph glyph-name="" unicode="&#x337;" d="M-228 339 l212 84 l0 19 l-212 -84 l0 -19 Z" /><glyph glyph-name="" unicode="&#x338;" d="M-495 -50 l35 0 l460 770 l-35 0 l-460 -770 Z" /><glyph glyph-name="" unicode="´" d="M22 495 l10 0 l129 176 l-68 0 l-71 -176 Z" /><glyph glyph-name="" unicode="&#x2d8;" d="M160 522 q78 9 109 69 q30 60 29 69 l-8 0 q0 -6 -32 -48 q-32 -42 -99 -48 q-67 6 -99 48 q-31 42 -31 48 l-7 0 q-1 -9 29 -69 q30 -60 109 -69 l0 0 Z" /><glyph glyph-name="" unicode="&#x2c7;" d="M143 516 l26 0 l121 144 l-10 0 l-124 -94 l-125 94 l-9 0 l121 -144 Z" /><glyph glyph-name="" unicode="¸" d="M49 -70 l25 70 l-8 0 l-50 -80 q37 -1 57 -13 q21 -11 21 -34 q0 -22 -12 -35 q-12 -14 -33 -14 q-15 1 -26 8 q-10 6 -11 7 l0 -14 q1 -1 17 -10 q16 -10 41 -11 q29 0 46 17 q17 16 17 44 q0 29 -21 45 q-22 16 -63 20 l0 0 Z" /><glyph glyph-name="" unicode="&#x2c6;" d="M22 486 l10 0 l124 95 l124 -95 l10 0 l-121 145 l-26 0 l-121 -145 Z" /><glyph glyph-name="" unicode="¨" d="M59 529 q16 0 27 11 q11 11 11 27 q0 15 -11 26 q-11 11 -27 11 q-16 0 -26 -11 q-11 -11 -11 -26 q0 -16 11 -27 q10 -11 26 -11 l0 0 ZM193 529 q16 0 27 11 q11 11 11 27 q0 15 -11 26 q-11 11 -27 11 q-16 0 -26 -11 q-11 -11 -11 -26 q0 -16 11 -27 q10 -11 26 -11 l0 0 Z" /><glyph glyph-name="" unicode="&#x2d9;" d="M68 501 q19 1 32 14 q13 13 14 32 q-1 19 -14 32 q-13 12 -32 13 q-20 -1 -33 -13 q-13 -13 -13 -32 q0 -19 13 -32 q13 -13 33 -14 l0 0 Z" /><glyph glyph-name="" unicode="`" d="M151 498 l10 0 l-71 176 l-68 0 l129 -176 Z" /><glyph glyph-name="" unicode="&#x2dd;" d="M22 495 l10 0 l129 176 l-68 0 l-71 -176 ZM129 495 l10 0 l129 176 l-68 0 l-71 -176 Z" /><glyph glyph-name="" unicode="¯" d="M22 539 l210 0 l0 25 l-210 0 l0 -25 Z" /><glyph glyph-name="" unicode="&#x2db;" d="M75 -196 q27 1 43 11 q15 9 15 10 l0 22 q-1 -1 -14 -7 q-14 -7 -33 -8 q-18 0 -26 12 q-7 11 -6 29 q0 22 13 58 q12 37 32 69 l-14 0 q-25 -31 -48 -68 q-22 -38 -24 -73 q1 -28 18 -41 q17 -14 44 -14 l0 0 Z" /><glyph glyph-name="" unicode="&#x2da;" d="M92 529 q32 1 53 17 q21 16 22 39 q-1 24 -22 40 q-21 16 -53 17 q-32 -1 -53 -17 q-21 -16 -22 -40 q1 -23 22 -39 q21 -16 53 -17 l0 0 ZM92 550 q-15 0 -25 10 q-10 10 -10 24 q0 14 10 24 q10 10 25 10 q15 0 26 -10 q10 -10 10 -24 q0 -14 -10 -24 q-11 -10 -26 -10 l0 0 Z" /><glyph glyph-name="" unicode="&#x2dc;" d="M203 532 q31 1 42 23 q12 22 17 52 l-6 0 q1 -2 -10 -17 q-10 -16 -40 -18 q-32 2 -61 18 q-29 16 -64 18 q-30 -1 -41 -23 q-12 -22 -18 -52 l6 0 q-1 2 10 18 q10 15 40 17 q29 -2 60 -18 q31 -16 65 -18 l0 0 Z" /></font>
</defs>
</svg>
